<svg xmlns="http://www.w3.org/2000/svg" xmlns:xlink="http://www.w3.org/1999/xlink" width="320" height="320" viewBox="0 0 320 320"><defs><style>.cls-1{fill:url(#radial-gradient);}.cls-2{fill:url(#radial-gradient-2);}.cls-3{fill:url(#radial-gradient-3);}.cls-4{fill:#4f4f4f;}.cls-5{fill:#f2d897;}.cls-6{fill:#fffdf9;}.cls-7{fill:#efddac;}.cls-8{fill:url(#linear-gradient);}.cls-9{fill:#2b2b2b;}.cls-10{opacity:0.09;}.cls-11{fill:#f7eed2;}</style><radialGradient id="radial-gradient" cx="160" cy="160" r="147.88" gradientUnits="userSpaceOnUse"><stop offset="0" stop-color="#fffdf9"/><stop offset="0.84" stop-color="#efddac"/><stop offset="0.89" stop-color="#f0dfb1"/><stop offset="0.95" stop-color="#f3e6c0"/><stop offset="1" stop-color="#f7eed2"/></radialGradient><radialGradient id="radial-gradient-2" cx="-353.58" cy="-3223.23" r="115.82" gradientTransform="matrix(0.98, 0.52, -0.5, 0.94, -1098.02, 3356.57)" xlink:href="#radial-gradient"/><radialGradient id="radial-gradient-3" cx="-834.53" cy="-3895.64" r="106.2" gradientTransform="matrix(0.95, 0.67, -0.69, 0.96, -1704.57, 4453.29)" xlink:href="#radial-gradient"/><linearGradient id="linear-gradient" x1="-496.36" y1="768.31" x2="-465.65" y2="768.31" gradientTransform="translate(732.6 -659.11)" gradientUnits="userSpaceOnUse"><stop offset="0" stop-color="#707070"/><stop offset="1" stop-color="#3d3d3d"/></linearGradient></defs><g id="Layer_2" data-name="Layer 2"><path class="cls-1" d="M310.07,155.36c.24,31.55-12.85,56.42-21.61,70a15.38,15.38,0,0,1-1.39,10c-1.13,2.08-2,2.29-7,7-5.66,5.33-5.93,6.37-8,7-1.51.46-5.2,1.08-11-3l-17.88,26.18a24.09,24.09,0,0,0-4.12,3.82c-2.43,2.84-2.81,4.65-4,6-1.64,1.84-5.23,3.31-14,1.31q-4.33,2.19-8.68,4.37a77.55,77.55,0,0,1-8.32,8.32c-5.63,4.81-9.38,8-14,9-9.89,2.07-19.15-7.1-21-9a44.94,44.94,0,0,1-9,0,46.29,46.29,0,0,1-20-7l-49-18c-6.7-4.48-12.19-7.79-16-10-5.55-3.22-9.53-5.26-12-10a17.89,17.89,0,0,1-1.93-6.79q-4.68-5.69-9.37-11.38a61.06,61.06,0,0,1-9.7-7.83c-4.11-4.06-12.08-12-14-23-.78-4.45,0-5.94,1-15a200.67,200.67,0,0,0,1-27c-.67-1.67-1.34-3.33-2-5a12.14,12.14,0,0,1-9,2,11.74,11.74,0,0,1-9-9c-.88-4.72,2.78-6,5-13,3.59-11.32-2.6-18.75,2-23,3.36-3.11,8.6-.92,10-4,1.05-2.33-1.76-4-2-8-.3-4.81,3.47-7.09,8-14,2.7-4.13,1.35-3.32,7-15,7.25-15,9.49-16.38,11-17S57.83,52,67,58.09c11-10.67,48.79-44.71,102.08-43.73C244,15.73,309.51,85.58,310.07,155.36Z"/><path class="cls-2" d="M272.72,207.4c-23,43.65-74.8,68.71-128.94,61.84a41.55,41.55,0,0,1-20.53-1.82c-8.66-3.18-13.76-8.7-17.6-12.72-21.79-22.82-23.63-19.08-32.82-31-6.29-8.14-18.13-26.34-21-57.1-3.8,5.29-8.32,8.21-11.42,7.13-2.73-1-3.54-4.72-4.67-10.4-.93-4.61-2.09-13.28.16-25.94a93.34,93.34,0,0,1,3-12c-2.85-6.63-2.14-10.61-1-13,2.17-4.67,6.13-3.78,9.62-9.62,2.58-4.31,3.07-9.22,3.44-12.89a49.1,49.1,0,0,0,.15-6.71,55.22,55.22,0,0,1,3.6-19.6,17.36,17.36,0,0,0,7.27-5.19c2.43-3,2.34-5.25,3.75-7.07,1.89-2.45,6.67-4.4,19.93-1.19C88.35,48.46,155,8.56,218,42.62,273.77,72.78,303.79,148.56,272.72,207.4Z"/><path class="cls-3" d="M277,215.69c-29.15,41-83.14,60.61-134.42,48.2A38.65,38.65,0,0,1,123,260c-7.88-4-11.94-10.07-15-14.45-17.49-24.95-19.86-21.41-26.88-34.17-4.8-8.74-13.4-28.06-11.3-58.93-4.51,4.87-9.33,7.31-12.16,5.91-2.49-1.23-2.68-5.06-2.89-10.82-.17-4.68.06-13.42,4.23-25.77a101.63,101.63,0,0,1,4.75-11.64c-1.71-6.88-.4-10.77,1-13,2.83-4.42,6.52-3.13,10.82-8.57C78.78,84.48,80,79.64,81,76a53.45,53.45,0,0,0,1.21-6.65,58.51,58.51,0,0,1,6.55-19.11,18.27,18.27,0,0,0,7.86-4.42c2.82-2.75,3.08-5,4.73-6.64,2.21-2.24,7.14-3.68,19.46.87,2.91-1.41,73.63-34.21,129.2,6.14C299.16,82,316.3,160.39,277,215.69Z"/><circle class="cls-4" cx="173.68" cy="125.82" r="1.15"/><circle class="cls-4" cx="103.22" cy="134.75" r="0.52"/><circle class="cls-4" cx="124.06" cy="127.75" r="0.52"/><circle class="cls-4" cx="137.58" cy="173.32" r="0.52"/><circle class="cls-4" cx="115.28" cy="151.61" r="0.52"/><circle class="cls-4" cx="114.49" cy="136.43" r="0.52"/><circle class="cls-4" cx="127.05" cy="116.64" r="0.52"/><circle class="cls-4" cx="144.16" cy="162.31" r="0.52"/><circle class="cls-4" cx="143.09" cy="138.58" r="0.52"/><circle class="cls-4" cx="117.83" cy="171.27" r="0.52"/><ellipse class="cls-4" cx="125.6" cy="137.96" rx="0.09" ry="0.1" transform="translate(-58.37 106.94) rotate(-38.12)"/><ellipse class="cls-4" cx="133.06" cy="146.73" rx="0.09" ry="0.1" transform="translate(-62.2 113.42) rotate(-38.12)"/><ellipse class="cls-4" cx="130.79" cy="143.83" rx="0.09" ry="0.1" transform="translate(-60.89 111.4) rotate(-38.12)"/><ellipse class="cls-4" cx="131.38" cy="149.81" rx="0.09" ry="0.1" transform="translate(-64.45 113.04) rotate(-38.12)"/><ellipse class="cls-4" cx="136.14" cy="148.41" rx="0.09" ry="0.1" transform="translate(-62.58 115.68) rotate(-38.12)"/><ellipse class="cls-4" cx="136.61" cy="144.54" rx="0.09" ry="0.1" transform="translate(-60.09 115.14) rotate(-38.12)"/><ellipse class="cls-4" cx="128.52" cy="140.94" rx="0.09" ry="0.1" transform="translate(-59.59 109.38) rotate(-38.12)"/><ellipse class="cls-4" cx="127.99" cy="150.71" rx="0.09" ry="0.1" transform="translate(-65.73 111.14) rotate(-38.12)"/><ellipse class="cls-4" cx="139.03" cy="154.34" rx="0.09" ry="0.1" transform="translate(-65.62 118.73) rotate(-38.12)"/><ellipse class="cls-4" cx="137.9" cy="144.69" rx="0.09" ry="0.1" transform="matrix(0.79, -0.62, 0.62, 0.79, -59.91, 115.97)"/><ellipse class="cls-4" cx="138.61" cy="130.68" rx="0.09" ry="0.1" transform="translate(-51.1 113.42) rotate(-38.12)"/><ellipse class="cls-4" cx="142.45" cy="150.49" rx="0.09" ry="0.1" transform="translate(-62.51 120.01) rotate(-38.12)"/><ellipse class="cls-4" cx="136.19" cy="150.72" rx="0.09" ry="0.1" transform="translate(-63.99 116.2) rotate(-38.12)"/><ellipse class="cls-4" cx="149.49" cy="135.6" rx="0.09" ry="0.1" transform="translate(-51.82 121.19) rotate(-38.12)"/><ellipse class="cls-4" cx="146.54" cy="135.57" rx="0.09" ry="0.1" transform="translate(-52.43 119.36) rotate(-38.12)"/><ellipse class="cls-4" cx="148.09" cy="139.04" rx="0.09" ry="0.1" transform="matrix(0.79, -0.62, 0.62, 0.79, -54.24, 121.06)"/><ellipse class="cls-4" cx="140.15" cy="150.54" rx="0.09" ry="0.1" transform="translate(-63.04 118.61) rotate(-38.12)"/><ellipse class="cls-4" cx="139.2" cy="136.65" rx="0.09" ry="0.1" transform="translate(-54.67 115.06) rotate(-38.12)"/><ellipse class="cls-4" cx="123.28" cy="154.4" rx="0.09" ry="0.1" transform="translate(-69.02 109.02) rotate(-38.12)"/><ellipse class="cls-4" cx="118.59" cy="141.7" rx="0.09" ry="0.1" transform="translate(-62.18 103.41) rotate(-38.12)"/><ellipse class="cls-4" cx="121.37" cy="159.42" rx="0.09" ry="0.1" transform="matrix(0.79, -0.62, 0.62, 0.79, -72.52, 108.91)"/><ellipse class="cls-4" cx="126.93" cy="148.61" rx="0.09" ry="0.1" transform="translate(-64.67 110.04) rotate(-38.12)"/><circle class="cls-4" cx="133.57" cy="141.36" r="0.52"/><circle class="cls-4" cx="134.47" cy="152.95" r="0.52"/><circle class="cls-4" cx="147.8" cy="147.29" r="1.15"/><circle class="cls-4" cx="127.55" cy="160.26" r="1.15"/><circle class="cls-4" cx="132.92" cy="132.05" r="1.15"/><circle class="cls-4" cx="137.71" cy="124.09" r="0.52"/><circle class="cls-4" cx="159.47" cy="127.22" r="0.52"/><circle class="cls-4" cx="151.19" cy="167.46" r="0.52"/><circle class="cls-4" cx="140.9" cy="144.58" r="0.52"/><circle class="cls-4" cx="147.02" cy="130.67" r="0.52"/><circle class="cls-4" cx="167.13" cy="118.63" r="0.52"/><circle class="cls-4" cx="161.88" cy="167.12" r="0.52"/><circle class="cls-4" cx="171.6" cy="145.44" r="0.52"/><circle class="cls-4" cx="134.33" cy="163.28" r="0.52"/><circle class="cls-4" cx="153.54" cy="144.38" r="0.52"/><circle class="cls-4" cx="171.89" cy="155.35" r="1.15"/><circle class="cls-4" cx="147.97" cy="157.82" r="1.15"/><circle class="cls-4" cx="165.45" cy="135.04" r="1.15"/><circle class="cls-4" cx="143.32" cy="132.4" r="0.52"/><circle class="cls-4" cx="149.9" cy="121.39" r="0.52"/><circle class="cls-4" cx="156.8" cy="133.08" r="0.52"/><circle class="cls-4" cx="167.62" cy="126.2" r="0.52"/><circle class="cls-4" cx="140.08" cy="122.36" r="0.52"/><circle class="cls-4" cx="153.71" cy="116.9" r="1.15"/><ellipse class="cls-4" cx="100.89" cy="158.18" rx="0.09" ry="0.1" transform="translate(-76.12 96) rotate(-38.12)"/><ellipse class="cls-4" cx="152.56" cy="152.05" rx="0.09" ry="0.1" transform="translate(-61.32 126.59) rotate(-38.12)"/><ellipse class="cls-4" cx="153.03" cy="148.17" rx="0.09" ry="0.1" transform="translate(-58.83 126.05) rotate(-38.12)"/><ellipse class="cls-4" cx="154.32" cy="148.33" rx="0.09" ry="0.1" transform="translate(-58.65 126.88) rotate(-38.12)"/><ellipse class="cls-4" cx="158.87" cy="154.13" rx="0.09" ry="0.1" transform="translate(-61.26 130.93) rotate(-38.12)"/><ellipse class="cls-4" cx="156.57" cy="154.18" rx="0.09" ry="0.1" transform="translate(-61.78 129.52) rotate(-38.12)"/><ellipse class="cls-4" cx="160.81" cy="146.16" rx="0.09" ry="0.1" transform="translate(-55.93 130.43) rotate(-38.12)"/><ellipse class="cls-4" cx="161.28" cy="142.28" rx="0.09" ry="0.1" transform="translate(-53.43 129.89) rotate(-38.12)"/><ellipse class="cls-4" cx="162.58" cy="142.44" rx="0.09" ry="0.1" transform="translate(-53.26 130.72) rotate(-38.12)"/><ellipse class="cls-4" cx="167.12" cy="148.24" rx="0.09" ry="0.1" transform="translate(-55.86 134.76) rotate(-38.12)"/><ellipse class="cls-4" cx="164.82" cy="148.29" rx="0.09" ry="0.1" transform="translate(-56.38 133.35) rotate(-38.12)"/><ellipse class="cls-4" cx="152.33" cy="151.94" rx="0.09" ry="0.1" transform="translate(-61.3 126.43) rotate(-38.12)"/><ellipse class="cls-4" cx="155.41" cy="153.62" rx="0.09" ry="0.1" transform="translate(-61.69 128.68) rotate(-38.12)"/><ellipse class="cls-4" cx="155.87" cy="149.75" rx="0.09" ry="0.1" transform="matrix(0.79, -0.62, 0.62, 0.79, -59.19, 128.14)"/><ellipse class="cls-4" cx="158.3" cy="159.55" rx="0.09" ry="0.1" transform="translate(-64.73 131.73) rotate(-38.12)"/><ellipse class="cls-4" cx="157.17" cy="149.9" rx="0.09" ry="0.1" transform="translate(-59.01 128.98) rotate(-38.12)"/><ellipse class="cls-4" cx="161.71" cy="155.7" rx="0.09" ry="0.1" transform="translate(-61.62 133.02) rotate(-38.12)"/><ellipse class="cls-4" cx="155.46" cy="155.93" rx="0.09" ry="0.1" transform="translate(-63.1 129.2) rotate(-38.12)"/><ellipse class="cls-4" cx="159.41" cy="155.75" rx="0.09" ry="0.1" transform="matrix(0.79, -0.62, 0.62, 0.79, -62.14, 131.61)"/><circle class="cls-4" cx="153.73" cy="158.16" r="0.52"/><circle class="cls-4" cx="160.16" cy="149.79" r="0.52"/><ellipse class="cls-4" cx="140.67" cy="166.22" rx="0.09" ry="0.1" transform="translate(-72.61 122.27) rotate(-38.12)"/><ellipse class="cls-4" cx="143.74" cy="167.91" rx="0.09" ry="0.1" transform="translate(-72.99 124.53) rotate(-38.12)"/><ellipse class="cls-4" cx="144.21" cy="164.03" rx="0.09" ry="0.1" transform="translate(-70.5 123.99) rotate(-38.12)"/><ellipse class="cls-4" cx="146.64" cy="173.83" rx="0.09" ry="0.1" transform="translate(-76.03 127.58) rotate(-38.12)"/><ellipse class="cls-4" cx="145.5" cy="164.19" rx="0.09" ry="0.1" transform="translate(-70.32 124.82) rotate(-38.12)"/><ellipse class="cls-4" cx="150.05" cy="169.98" rx="0.09" ry="0.1" transform="translate(-72.92 128.86) rotate(-38.12)"/><ellipse class="cls-4" cx="143.79" cy="170.21" rx="0.09" ry="0.1" transform="matrix(0.79, -0.62, 0.62, 0.79, -74.4, 125.05)"/><ellipse class="cls-4" cx="147.75" cy="170.03" rx="0.09" ry="0.1" transform="translate(-73.45 127.45) rotate(-38.12)"/><circle class="cls-4" cx="148.5" cy="164.08" r="0.52"/><ellipse class="cls-4" cx="135.02" cy="161.88" rx="0.09" ry="0.1" transform="translate(-71.13 117.86) rotate(-38.12)"/><ellipse class="cls-4" cx="138.1" cy="163.56" rx="0.09" ry="0.1" transform="translate(-71.51 120.12) rotate(-38.12)"/><ellipse class="cls-4" cx="138.57" cy="159.68" rx="0.09" ry="0.1" transform="translate(-69.02 119.58) rotate(-38.12)"/><ellipse class="cls-4" cx="140.99" cy="169.48" rx="0.09" ry="0.1" transform="translate(-74.55 123.17) rotate(-38.12)"/><ellipse class="cls-4" cx="138.15" cy="165.86" rx="0.09" ry="0.1" transform="translate(-72.92 120.64) rotate(-38.12)"/><ellipse class="cls-4" cx="142.1" cy="165.68" rx="0.09" ry="0.1" transform="translate(-71.97 123.04) rotate(-38.12)"/><ellipse class="cls-4" cx="141.11" cy="149.5" rx="0.09" ry="0.1" transform="translate(-62.19 118.98) rotate(-38.12)"/><ellipse class="cls-4" cx="144.18" cy="151.18" rx="0.09" ry="0.1" transform="translate(-62.57 121.23) rotate(-38.12)"/><ellipse class="cls-4" cx="144.65" cy="147.3" rx="0.09" ry="0.1" transform="translate(-60.08 120.7) rotate(-38.12)"/><ellipse class="cls-4" cx="147.07" cy="157.1" rx="0.09" ry="0.1" transform="translate(-65.61 124.28) rotate(-38.12)"/><ellipse class="cls-4" cx="144.23" cy="153.48" rx="0.09" ry="0.1" transform="translate(-63.98 121.76) rotate(-38.12)"/><ellipse class="cls-4" cx="148.19" cy="153.3" rx="0.09" ry="0.1" transform="translate(-63.03 124.16) rotate(-38.12)"/><circle class="cls-4" cx="160.68" cy="77.82" r="1.15"/><circle class="cls-4" cx="90.22" cy="86.75" r="0.52"/><circle class="cls-4" cx="111.06" cy="79.75" r="0.52"/><circle class="cls-4" cx="124.58" cy="125.32" r="0.52"/><circle class="cls-4" cx="102.28" cy="103.61" r="0.52"/><circle class="cls-4" cx="101.49" cy="88.43" r="0.52"/><circle class="cls-4" cx="114.05" cy="68.64" r="0.52"/><circle class="cls-4" cx="131.16" cy="114.31" r="0.52"/><circle class="cls-4" cx="130.09" cy="90.58" r="0.52"/><circle class="cls-4" cx="104.83" cy="123.27" r="0.52"/><ellipse class="cls-4" cx="112.6" cy="89.96" rx="0.09" ry="0.1" transform="translate(-31.52 88.68) rotate(-38.12)"/><ellipse class="cls-4" cx="120.06" cy="98.73" rx="0.09" ry="0.1" transform="translate(-35.34 95.16) rotate(-38.12)"/><ellipse class="cls-4" cx="117.79" cy="95.83" rx="0.09" ry="0.1" transform="translate(-34.04 93.14) rotate(-38.12)"/><ellipse class="cls-4" cx="118.38" cy="101.81" rx="0.09" ry="0.1" transform="translate(-37.6 94.78) rotate(-38.12)"/><ellipse class="cls-4" cx="123.14" cy="100.41" rx="0.09" ry="0.1" transform="translate(-35.72 97.42) rotate(-38.12)"/><ellipse class="cls-4" cx="123.61" cy="96.54" rx="0.09" ry="0.1" transform="translate(-33.23 96.88) rotate(-38.12)"/><ellipse class="cls-4" cx="115.52" cy="92.94" rx="0.09" ry="0.1" transform="translate(-32.73 91.12) rotate(-38.12)"/><ellipse class="cls-4" cx="114.99" cy="102.71" rx="0.09" ry="0.1" transform="translate(-38.88 92.88) rotate(-38.12)"/><ellipse class="cls-4" cx="126.03" cy="106.34" rx="0.09" ry="0.1" transform="translate(-38.76 100.47) rotate(-38.12)"/><ellipse class="cls-4" cx="124.9" cy="96.69" rx="0.09" ry="0.1" transform="matrix(0.79, -0.62, 0.62, 0.79, -33.05, 97.71)"/><ellipse class="cls-4" cx="125.61" cy="82.68" rx="0.09" ry="0.1" transform="translate(-24.25 95.16) rotate(-38.12)"/><ellipse class="cls-4" cx="129.45" cy="102.49" rx="0.09" ry="0.1" transform="translate(-35.66 101.76) rotate(-38.12)"/><ellipse class="cls-4" cx="123.19" cy="102.72" rx="0.09" ry="0.1" transform="translate(-37.13 97.94) rotate(-38.12)"/><ellipse class="cls-4" cx="136.49" cy="87.6" rx="0.09" ry="0.1" transform="translate(-24.97 102.93) rotate(-38.12)"/><ellipse class="cls-4" cx="133.54" cy="87.57" rx="0.09" ry="0.1" transform="translate(-25.58 101.1) rotate(-38.12)"/><ellipse class="cls-4" cx="135.09" cy="91.04" rx="0.09" ry="0.1" transform="matrix(0.79, -0.62, 0.62, 0.79, -27.39, 102.8)"/><ellipse class="cls-4" cx="127.15" cy="102.54" rx="0.09" ry="0.1" transform="translate(-36.18 100.35) rotate(-38.12)"/><ellipse class="cls-4" cx="126.2" cy="88.65" rx="0.09" ry="0.1" transform="translate(-27.81 96.8) rotate(-38.12)"/><ellipse class="cls-4" cx="110.28" cy="106.4" rx="0.09" ry="0.1" transform="translate(-42.16 90.76) rotate(-38.12)"/><ellipse class="cls-4" cx="105.59" cy="93.7" rx="0.09" ry="0.1" transform="translate(-35.32 85.16) rotate(-38.12)"/><ellipse class="cls-4" cx="108.37" cy="111.42" rx="0.09" ry="0.1" transform="matrix(0.79, -0.62, 0.62, 0.79, -45.67, 90.65)"/><ellipse class="cls-4" cx="113.93" cy="100.61" rx="0.09" ry="0.1" transform="translate(-37.81 91.78) rotate(-38.12)"/><circle class="cls-4" cx="120.57" cy="93.36" r="0.52"/><circle class="cls-4" cx="121.47" cy="104.95" r="0.52"/><circle class="cls-4" cx="134.8" cy="99.29" r="1.15"/><circle class="cls-4" cx="114.55" cy="112.26" r="1.15"/><circle class="cls-4" cx="119.92" cy="84.05" r="1.15"/><circle class="cls-4" cx="124.71" cy="76.09" r="0.52"/><circle class="cls-4" cx="146.47" cy="79.22" r="0.52"/><circle class="cls-4" cx="138.19" cy="119.46" r="0.52"/><circle class="cls-4" cx="127.9" cy="96.58" r="0.52"/><circle class="cls-4" cx="134.02" cy="82.67" r="0.52"/><circle class="cls-4" cx="154.13" cy="70.63" r="0.52"/><circle class="cls-4" cx="148.88" cy="119.12" r="0.52"/><circle class="cls-4" cx="158.6" cy="97.44" r="0.52"/><circle class="cls-4" cx="121.33" cy="115.28" r="0.52"/><circle class="cls-4" cx="140.54" cy="96.38" r="0.52"/><circle class="cls-4" cx="158.89" cy="107.35" r="1.15"/><circle class="cls-4" cx="134.97" cy="109.82" r="1.15"/><circle class="cls-4" cx="152.45" cy="87.04" r="1.15"/><circle class="cls-4" cx="130.32" cy="84.4" r="0.52"/><circle class="cls-4" cx="136.9" cy="73.39" r="0.52"/><circle class="cls-4" cx="143.8" cy="85.08" r="0.52"/><circle class="cls-4" cx="154.62" cy="78.2" r="0.52"/><circle class="cls-4" cx="127.08" cy="74.36" r="0.52"/><circle class="cls-4" cx="140.71" cy="68.9" r="1.15"/><ellipse class="cls-4" cx="87.89" cy="110.18" rx="0.09" ry="0.1" transform="translate(-49.27 77.74) rotate(-38.12)"/><ellipse class="cls-4" cx="139.56" cy="104.05" rx="0.09" ry="0.1" transform="translate(-34.47 108.33) rotate(-38.12)"/><ellipse class="cls-4" cx="140.03" cy="100.17" rx="0.09" ry="0.1" transform="translate(-31.97 107.79) rotate(-38.12)"/><ellipse class="cls-4" cx="141.32" cy="100.33" rx="0.09" ry="0.1" transform="translate(-31.79 108.63) rotate(-38.12)"/><ellipse class="cls-4" cx="145.87" cy="106.13" rx="0.09" ry="0.1" transform="translate(-34.4 112.67) rotate(-38.12)"/><ellipse class="cls-4" cx="143.57" cy="106.18" rx="0.09" ry="0.1" transform="translate(-34.92 111.26) rotate(-38.12)"/><ellipse class="cls-4" cx="147.81" cy="98.16" rx="0.09" ry="0.1" transform="translate(-29.07 112.17) rotate(-38.12)"/><ellipse class="cls-4" cx="148.28" cy="94.28" rx="0.09" ry="0.1" transform="translate(-26.58 111.63) rotate(-38.12)"/><ellipse class="cls-4" cx="149.58" cy="94.44" rx="0.09" ry="0.1" transform="translate(-26.4 112.46) rotate(-38.12)"/><ellipse class="cls-4" cx="154.12" cy="100.24" rx="0.09" ry="0.1" transform="translate(-29.01 116.51) rotate(-38.12)"/><ellipse class="cls-4" cx="151.82" cy="100.29" rx="0.09" ry="0.1" transform="translate(-29.53 115.1) rotate(-38.12)"/><ellipse class="cls-4" cx="139.33" cy="103.94" rx="0.09" ry="0.1" transform="translate(-34.45 108.17) rotate(-38.12)"/><ellipse class="cls-4" cx="142.41" cy="105.62" rx="0.09" ry="0.1" transform="translate(-34.83 110.42) rotate(-38.12)"/><ellipse class="cls-4" cx="142.87" cy="101.75" rx="0.09" ry="0.1" transform="matrix(0.79, -0.62, 0.62, 0.79, -32.34, 109.89)"/><ellipse class="cls-4" cx="145.3" cy="111.55" rx="0.09" ry="0.1" transform="translate(-37.87 113.47) rotate(-38.12)"/><ellipse class="cls-4" cx="144.17" cy="101.9" rx="0.09" ry="0.1" transform="translate(-32.16 110.72) rotate(-38.12)"/><ellipse class="cls-4" cx="148.71" cy="107.7" rx="0.09" ry="0.1" transform="translate(-34.77 114.76) rotate(-38.12)"/><ellipse class="cls-4" cx="142.46" cy="107.93" rx="0.09" ry="0.1" transform="translate(-36.24 110.94) rotate(-38.12)"/><ellipse class="cls-4" cx="146.41" cy="107.75" rx="0.09" ry="0.1" transform="matrix(0.79, -0.62, 0.62, 0.79, -35.29, 113.35)"/><circle class="cls-4" cx="140.73" cy="110.16" r="0.52"/><circle class="cls-4" cx="147.16" cy="101.79" r="0.52"/><ellipse class="cls-4" cx="127.67" cy="118.22" rx="0.09" ry="0.1" transform="translate(-45.75 104.01) rotate(-38.12)"/><ellipse class="cls-4" cx="130.74" cy="119.91" rx="0.09" ry="0.1" transform="translate(-46.13 106.27) rotate(-38.12)"/><ellipse class="cls-4" cx="131.21" cy="116.03" rx="0.09" ry="0.1" transform="translate(-43.64 105.73) rotate(-38.12)"/><ellipse class="cls-4" cx="133.64" cy="125.83" rx="0.09" ry="0.1" transform="translate(-49.17 109.32) rotate(-38.12)"/><ellipse class="cls-4" cx="132.5" cy="116.19" rx="0.09" ry="0.1" transform="translate(-43.46 106.56) rotate(-38.12)"/><ellipse class="cls-4" cx="137.05" cy="121.98" rx="0.09" ry="0.1" transform="translate(-46.07 110.61) rotate(-38.12)"/><ellipse class="cls-4" cx="130.79" cy="122.21" rx="0.09" ry="0.1" transform="matrix(0.79, -0.62, 0.62, 0.79, -47.54, 106.79)"/><ellipse class="cls-4" cx="134.75" cy="122.03" rx="0.09" ry="0.1" transform="translate(-46.59 109.2) rotate(-38.12)"/><circle class="cls-4" cx="135.5" cy="116.08" r="0.52"/><ellipse class="cls-4" cx="122.02" cy="113.88" rx="0.09" ry="0.1" transform="translate(-44.27 99.6) rotate(-38.12)"/><ellipse class="cls-4" cx="125.1" cy="115.56" rx="0.09" ry="0.1" transform="translate(-44.65 101.86) rotate(-38.12)"/><ellipse class="cls-4" cx="125.57" cy="111.68" rx="0.09" ry="0.1" transform="translate(-42.16 101.32) rotate(-38.12)"/><ellipse class="cls-4" cx="127.99" cy="121.48" rx="0.09" ry="0.1" transform="translate(-47.69 104.91) rotate(-38.12)"/><ellipse class="cls-4" cx="125.15" cy="117.86" rx="0.09" ry="0.1" transform="translate(-46.06 102.38) rotate(-38.12)"/><ellipse class="cls-4" cx="129.1" cy="117.68" rx="0.09" ry="0.1" transform="translate(-45.11 104.78) rotate(-38.12)"/><ellipse class="cls-4" cx="128.11" cy="101.5" rx="0.09" ry="0.1" transform="translate(-35.33 100.72) rotate(-38.12)"/><ellipse class="cls-4" cx="131.18" cy="103.18" rx="0.09" ry="0.1" transform="translate(-35.71 102.97) rotate(-38.12)"/><ellipse class="cls-4" cx="131.65" cy="99.3" rx="0.09" ry="0.1" transform="translate(-33.22 102.44) rotate(-38.12)"/><ellipse class="cls-4" cx="134.07" cy="109.1" rx="0.09" ry="0.1" transform="translate(-38.75 106.02) rotate(-38.12)"/><ellipse class="cls-4" cx="131.23" cy="105.48" rx="0.09" ry="0.1" transform="translate(-37.12 103.5) rotate(-38.12)"/><ellipse class="cls-4" cx="135.19" cy="105.3" rx="0.09" ry="0.1" transform="translate(-36.17 105.9) rotate(-38.12)"/><circle class="cls-4" cx="181.68" cy="175.82" r="1.15"/><circle class="cls-4" cx="111.22" cy="184.75" r="0.52"/><circle class="cls-4" cx="132.06" cy="177.75" r="0.52"/><circle class="cls-4" cx="145.58" cy="223.32" r="0.52"/><circle class="cls-4" cx="123.28" cy="201.61" r="0.52"/><circle class="cls-4" cx="122.49" cy="186.43" r="0.52"/><circle class="cls-4" cx="135.05" cy="166.64" r="0.52"/><circle class="cls-4" cx="152.16" cy="212.31" r="0.52"/><circle class="cls-4" cx="151.09" cy="188.58" r="0.52"/><circle class="cls-4" cx="125.83" cy="221.27" r="0.52"/><ellipse class="cls-4" cx="133.6" cy="187.96" rx="0.09" ry="0.1" transform="translate(-87.53 122.54) rotate(-38.12)"/><ellipse class="cls-4" cx="141.06" cy="196.73" rx="0.09" ry="0.1" transform="translate(-91.35 129.02) rotate(-38.12)"/><ellipse class="cls-4" cx="138.79" cy="193.83" rx="0.09" ry="0.1" transform="translate(-90.05 127) rotate(-38.12)"/><ellipse class="cls-4" cx="139.38" cy="199.81" rx="0.09" ry="0.1" transform="translate(-93.61 128.64) rotate(-38.12)"/><ellipse class="cls-4" cx="144.14" cy="198.41" rx="0.09" ry="0.1" transform="translate(-91.74 131.28) rotate(-38.12)"/><ellipse class="cls-4" cx="144.61" cy="194.54" rx="0.09" ry="0.1" transform="translate(-89.24 130.74) rotate(-38.12)"/><ellipse class="cls-4" cx="136.52" cy="190.94" rx="0.09" ry="0.1" transform="translate(-88.74 124.98) rotate(-38.12)"/><ellipse class="cls-4" cx="135.99" cy="200.71" rx="0.09" ry="0.1" transform="translate(-94.89 126.74) rotate(-38.12)"/><ellipse class="cls-4" cx="147.03" cy="204.34" rx="0.09" ry="0.1" transform="translate(-94.78 134.33) rotate(-38.12)"/><ellipse class="cls-4" cx="145.9" cy="194.69" rx="0.09" ry="0.1" transform="matrix(0.79, -0.62, 0.62, 0.79, -89.06, 131.57)"/><ellipse class="cls-4" cx="146.61" cy="180.68" rx="0.09" ry="0.1" transform="translate(-80.26 129.02) rotate(-38.12)"/><ellipse class="cls-4" cx="150.45" cy="200.49" rx="0.09" ry="0.1" transform="translate(-91.67 135.61) rotate(-38.12)"/><ellipse class="cls-4" cx="144.19" cy="200.72" rx="0.09" ry="0.1" transform="translate(-93.15 131.8) rotate(-38.12)"/><ellipse class="cls-4" cx="157.49" cy="185.6" rx="0.09" ry="0.1" transform="translate(-80.98 136.79) rotate(-38.12)"/><ellipse class="cls-4" cx="154.54" cy="185.57" rx="0.09" ry="0.1" transform="translate(-81.59 134.96) rotate(-38.12)"/><ellipse class="cls-4" cx="156.09" cy="189.04" rx="0.09" ry="0.1" transform="matrix(0.79, -0.62, 0.62, 0.79, -83.4, 136.66)"/><ellipse class="cls-4" cx="148.15" cy="200.54" rx="0.09" ry="0.1" transform="translate(-92.19 134.2) rotate(-38.12)"/><ellipse class="cls-4" cx="147.2" cy="186.65" rx="0.09" ry="0.1" transform="translate(-83.82 130.66) rotate(-38.12)"/><ellipse class="cls-4" cx="131.28" cy="204.4" rx="0.09" ry="0.1" transform="translate(-98.17 124.62) rotate(-38.12)"/><ellipse class="cls-4" cx="126.59" cy="191.7" rx="0.09" ry="0.1" transform="translate(-91.34 119.01) rotate(-38.12)"/><ellipse class="cls-4" cx="129.37" cy="209.42" rx="0.09" ry="0.1" transform="matrix(0.79, -0.62, 0.62, 0.79, -101.68, 124.51)"/><ellipse class="cls-4" cx="134.93" cy="198.61" rx="0.09" ry="0.1" transform="translate(-93.82 125.64) rotate(-38.12)"/><circle class="cls-4" cx="141.57" cy="191.36" r="0.52"/><circle class="cls-4" cx="142.47" cy="202.95" r="0.52"/><circle class="cls-4" cx="155.8" cy="197.29" r="1.15"/><circle class="cls-4" cx="135.55" cy="210.26" r="1.15"/><circle class="cls-4" cx="140.92" cy="182.05" r="1.15"/><circle class="cls-4" cx="145.71" cy="174.09" r="0.52"/><circle class="cls-4" cx="167.47" cy="177.22" r="0.52"/><circle class="cls-4" cx="159.19" cy="217.46" r="0.52"/><circle class="cls-4" cx="148.9" cy="194.58" r="0.52"/><circle class="cls-4" cx="155.02" cy="180.67" r="0.52"/><circle class="cls-4" cx="175.13" cy="168.63" r="0.52"/><circle class="cls-4" cx="169.88" cy="217.12" r="0.52"/><circle class="cls-4" cx="179.6" cy="195.44" r="0.52"/><circle class="cls-4" cx="142.33" cy="213.28" r="0.52"/><circle class="cls-4" cx="161.54" cy="194.38" r="0.52"/><circle class="cls-4" cx="179.89" cy="205.35" r="1.15"/><circle class="cls-4" cx="155.97" cy="207.82" r="1.15"/><circle class="cls-4" cx="173.45" cy="185.04" r="1.15"/><circle class="cls-4" cx="151.32" cy="182.4" r="0.52"/><circle class="cls-4" cx="157.9" cy="171.39" r="0.52"/><circle class="cls-4" cx="164.8" cy="183.08" r="0.52"/><circle class="cls-4" cx="175.62" cy="176.2" r="0.52"/><circle class="cls-4" cx="148.08" cy="172.36" r="0.52"/><circle class="cls-4" cx="161.71" cy="166.9" r="1.15"/><ellipse class="cls-4" cx="108.89" cy="208.18" rx="0.09" ry="0.1" transform="translate(-105.28 111.6) rotate(-38.12)"/><ellipse class="cls-4" cx="160.56" cy="202.05" rx="0.09" ry="0.1" transform="translate(-90.48 142.19) rotate(-38.12)"/><ellipse class="cls-4" cx="161.03" cy="198.17" rx="0.09" ry="0.1" transform="translate(-87.99 141.65) rotate(-38.12)"/><ellipse class="cls-4" cx="162.32" cy="198.33" rx="0.09" ry="0.1" transform="translate(-87.81 142.48) rotate(-38.12)"/><ellipse class="cls-4" cx="166.87" cy="204.13" rx="0.09" ry="0.1" transform="translate(-90.41 146.53) rotate(-38.12)"/><ellipse class="cls-4" cx="164.57" cy="204.18" rx="0.09" ry="0.1" transform="translate(-90.94 145.12) rotate(-38.12)"/><ellipse class="cls-4" cx="168.81" cy="196.16" rx="0.09" ry="0.1" transform="translate(-85.09 146.03) rotate(-38.12)"/><ellipse class="cls-4" cx="169.28" cy="192.28" rx="0.09" ry="0.1" transform="translate(-82.59 145.49) rotate(-38.12)"/><ellipse class="cls-4" cx="170.58" cy="192.44" rx="0.09" ry="0.1" transform="translate(-82.41 146.32) rotate(-38.12)"/><ellipse class="cls-4" cx="175.12" cy="198.24" rx="0.09" ry="0.1" transform="translate(-85.02 150.36) rotate(-38.12)"/><ellipse class="cls-4" cx="172.82" cy="198.29" rx="0.09" ry="0.1" transform="translate(-85.54 148.95) rotate(-38.12)"/><ellipse class="cls-4" cx="160.33" cy="201.94" rx="0.09" ry="0.1" transform="translate(-90.46 142.02) rotate(-38.12)"/><ellipse class="cls-4" cx="163.41" cy="203.62" rx="0.09" ry="0.1" transform="translate(-90.84 144.28) rotate(-38.12)"/><ellipse class="cls-4" cx="163.87" cy="199.75" rx="0.09" ry="0.1" transform="matrix(0.79, -0.62, 0.62, 0.79, -88.35, 143.74)"/><ellipse class="cls-4" cx="166.3" cy="209.55" rx="0.09" ry="0.1" transform="translate(-93.88 147.33) rotate(-38.12)"/><ellipse class="cls-4" cx="165.17" cy="199.9" rx="0.09" ry="0.1" transform="translate(-88.17 144.58) rotate(-38.12)"/><ellipse class="cls-4" cx="169.71" cy="205.7" rx="0.09" ry="0.1" transform="translate(-90.78 148.62) rotate(-38.12)"/><ellipse class="cls-4" cx="163.46" cy="205.93" rx="0.09" ry="0.1" transform="translate(-92.25 144.8) rotate(-38.12)"/><ellipse class="cls-4" cx="167.41" cy="205.75" rx="0.09" ry="0.1" transform="matrix(0.79, -0.62, 0.62, 0.79, -91.3, 147.21)"/><circle class="cls-4" cx="161.73" cy="208.16" r="0.52"/><circle class="cls-4" cx="168.16" cy="199.79" r="0.52"/><ellipse class="cls-4" cx="148.67" cy="216.22" rx="0.09" ry="0.1" transform="translate(-101.76 137.87) rotate(-38.12)"/><ellipse class="cls-4" cx="151.74" cy="217.91" rx="0.09" ry="0.1" transform="translate(-102.15 140.13) rotate(-38.12)"/><ellipse class="cls-4" cx="152.21" cy="214.03" rx="0.09" ry="0.1" transform="translate(-99.65 139.59) rotate(-38.12)"/><ellipse class="cls-4" cx="154.64" cy="223.83" rx="0.09" ry="0.1" transform="translate(-105.19 143.18) rotate(-38.12)"/><ellipse class="cls-4" cx="153.5" cy="214.19" rx="0.09" ry="0.1" transform="translate(-99.47 140.42) rotate(-38.12)"/><ellipse class="cls-4" cx="158.05" cy="219.98" rx="0.09" ry="0.1" transform="translate(-102.08 144.46) rotate(-38.12)"/><ellipse class="cls-4" cx="151.79" cy="220.21" rx="0.09" ry="0.1" transform="matrix(0.79, -0.62, 0.62, 0.79, -103.56, 140.65)"/><ellipse class="cls-4" cx="155.75" cy="220.03" rx="0.09" ry="0.1" transform="translate(-102.6 143.05) rotate(-38.12)"/><circle class="cls-4" cx="156.5" cy="214.08" r="0.52"/><ellipse class="cls-4" cx="143.02" cy="211.88" rx="0.09" ry="0.1" transform="translate(-100.28 133.46) rotate(-38.12)"/><ellipse class="cls-4" cx="146.1" cy="213.56" rx="0.09" ry="0.1" transform="translate(-100.67 135.72) rotate(-38.12)"/><ellipse class="cls-4" cx="146.57" cy="209.68" rx="0.09" ry="0.1" transform="translate(-98.17 135.18) rotate(-38.12)"/><ellipse class="cls-4" cx="148.99" cy="219.48" rx="0.09" ry="0.1" transform="translate(-103.71 138.76) rotate(-38.12)"/><ellipse class="cls-4" cx="146.15" cy="215.86" rx="0.09" ry="0.1" transform="translate(-102.08 136.24) rotate(-38.12)"/><ellipse class="cls-4" cx="150.1" cy="215.68" rx="0.09" ry="0.1" transform="translate(-101.12 138.64) rotate(-38.12)"/><ellipse class="cls-4" cx="149.11" cy="199.5" rx="0.09" ry="0.1" transform="translate(-91.34 134.58) rotate(-38.12)"/><ellipse class="cls-4" cx="152.18" cy="201.18" rx="0.09" ry="0.1" transform="translate(-91.73 136.83) rotate(-38.12)"/><ellipse class="cls-4" cx="152.65" cy="197.3" rx="0.09" ry="0.1" transform="translate(-89.23 136.3) rotate(-38.12)"/><ellipse class="cls-4" cx="155.07" cy="207.1" rx="0.09" ry="0.1" transform="translate(-94.77 139.88) rotate(-38.12)"/><ellipse class="cls-4" cx="152.23" cy="203.48" rx="0.09" ry="0.1" transform="translate(-93.14 137.35) rotate(-38.12)"/><ellipse class="cls-4" cx="156.19" cy="203.3" rx="0.09" ry="0.1" transform="translate(-92.18 139.76) rotate(-38.12)"/><circle class="cls-4" cx="242.68" cy="150.82" r="1.15"/><circle class="cls-4" cx="172.22" cy="159.75" r="0.52"/><circle class="cls-4" cx="193.06" cy="152.75" r="0.52"/><circle class="cls-4" cx="206.58" cy="198.32" r="0.52"/><circle class="cls-4" cx="184.28" cy="176.61" r="0.52"/><circle class="cls-4" cx="183.49" cy="161.43" r="0.52"/><circle class="cls-4" cx="196.05" cy="141.64" r="0.52"/><circle class="cls-4" cx="213.16" cy="187.31" r="0.52"/><circle class="cls-4" cx="212.09" cy="163.58" r="0.52"/><circle class="cls-4" cx="186.83" cy="196.27" r="0.52"/><ellipse class="cls-4" cx="194.6" cy="162.96" rx="0.09" ry="0.1" transform="translate(-59.09 154.86) rotate(-38.12)"/><ellipse class="cls-4" cx="202.06" cy="171.73" rx="0.09" ry="0.1" transform="translate(-62.91 161.34) rotate(-38.12)"/><ellipse class="cls-4" cx="199.79" cy="168.83" rx="0.09" ry="0.1" transform="translate(-61.61 159.32) rotate(-38.12)"/><ellipse class="cls-4" cx="200.38" cy="174.81" rx="0.09" ry="0.1" transform="translate(-65.17 160.96) rotate(-38.12)"/><ellipse class="cls-4" cx="205.14" cy="173.41" rx="0.09" ry="0.1" transform="translate(-63.3 163.6) rotate(-38.12)"/><ellipse class="cls-4" cx="205.61" cy="169.54" rx="0.09" ry="0.1" transform="translate(-60.8 163.06) rotate(-38.12)"/><ellipse class="cls-4" cx="197.52" cy="165.94" rx="0.09" ry="0.1" transform="translate(-60.31 157.3) rotate(-38.12)"/><ellipse class="cls-4" cx="196.99" cy="175.71" rx="0.09" ry="0.1" transform="translate(-66.45 159.06) rotate(-38.12)"/><ellipse class="cls-4" cx="208.03" cy="179.34" rx="0.09" ry="0.1" transform="translate(-66.34 166.65) rotate(-38.12)"/><ellipse class="cls-4" cx="206.9" cy="169.69" rx="0.09" ry="0.1" transform="matrix(0.79, -0.62, 0.62, 0.79, -60.62, 163.89)"/><ellipse class="cls-4" cx="207.61" cy="155.68" rx="0.09" ry="0.1" transform="translate(-51.82 161.34) rotate(-38.12)"/><ellipse class="cls-4" cx="211.45" cy="175.49" rx="0.09" ry="0.1" transform="translate(-63.23 167.94) rotate(-38.12)"/><ellipse class="cls-4" cx="205.19" cy="175.72" rx="0.09" ry="0.1" transform="translate(-64.71 164.12) rotate(-38.12)"/><ellipse class="cls-4" cx="218.49" cy="160.6" rx="0.09" ry="0.1" transform="translate(-52.54 169.11) rotate(-38.12)"/><ellipse class="cls-4" cx="215.54" cy="160.57" rx="0.09" ry="0.1" transform="translate(-53.15 167.28) rotate(-38.12)"/><ellipse class="cls-4" cx="217.09" cy="164.04" rx="0.09" ry="0.1" transform="matrix(0.79, -0.62, 0.62, 0.79, -54.96, 168.98)"/><ellipse class="cls-4" cx="209.15" cy="175.54" rx="0.09" ry="0.1" transform="translate(-63.75 166.53) rotate(-38.12)"/><ellipse class="cls-4" cx="208.2" cy="161.65" rx="0.09" ry="0.1" transform="translate(-55.38 162.98) rotate(-38.12)"/><ellipse class="cls-4" cx="192.28" cy="179.4" rx="0.09" ry="0.1" transform="translate(-69.74 156.94) rotate(-38.12)"/><ellipse class="cls-4" cx="187.59" cy="166.7" rx="0.09" ry="0.1" transform="translate(-62.9 151.34) rotate(-38.12)"/><ellipse class="cls-4" cx="190.37" cy="184.42" rx="0.09" ry="0.1" transform="matrix(0.79, -0.62, 0.62, 0.79, -73.24, 156.83)"/><ellipse class="cls-4" cx="195.93" cy="173.61" rx="0.09" ry="0.1" transform="translate(-65.38 157.96) rotate(-38.12)"/><circle class="cls-4" cx="202.57" cy="166.36" r="0.52"/><circle class="cls-4" cx="203.47" cy="177.95" r="0.52"/><circle class="cls-4" cx="216.8" cy="172.29" r="1.15"/><circle class="cls-4" cx="196.55" cy="185.26" r="1.15"/><circle class="cls-4" cx="201.92" cy="157.05" r="1.15"/><circle class="cls-4" cx="206.71" cy="149.09" r="0.52"/><circle class="cls-4" cx="228.47" cy="152.22" r="0.52"/><circle class="cls-4" cx="220.19" cy="192.46" r="0.52"/><circle class="cls-4" cx="209.9" cy="169.58" r="0.52"/><circle class="cls-4" cx="216.02" cy="155.67" r="0.52"/><circle class="cls-4" cx="236.13" cy="143.63" r="0.52"/><circle class="cls-4" cx="230.88" cy="192.12" r="0.52"/><circle class="cls-4" cx="240.6" cy="170.44" r="0.52"/><circle class="cls-4" cx="203.33" cy="188.28" r="0.52"/><circle class="cls-4" cx="222.54" cy="169.38" r="0.52"/><circle class="cls-4" cx="240.89" cy="180.35" r="1.15"/><circle class="cls-4" cx="216.97" cy="182.82" r="1.15"/><circle class="cls-4" cx="234.45" cy="160.04" r="1.15"/><circle class="cls-4" cx="212.32" cy="157.4" r="0.52"/><circle class="cls-4" cx="218.9" cy="146.39" r="0.52"/><circle class="cls-4" cx="225.8" cy="158.08" r="0.52"/><circle class="cls-4" cx="236.62" cy="151.2" r="0.52"/><circle class="cls-4" cx="209.08" cy="147.36" r="0.52"/><circle class="cls-4" cx="222.71" cy="141.9" r="1.15"/><ellipse class="cls-4" cx="169.89" cy="183.18" rx="0.09" ry="0.1" transform="translate(-76.84 143.92) rotate(-38.12)"/><ellipse class="cls-4" cx="221.56" cy="177.05" rx="0.09" ry="0.1" transform="translate(-62.04 174.51) rotate(-38.12)"/><ellipse class="cls-4" cx="222.03" cy="173.17" rx="0.09" ry="0.1" transform="translate(-59.55 173.97) rotate(-38.12)"/><ellipse class="cls-4" cx="223.32" cy="173.33" rx="0.09" ry="0.1" transform="translate(-59.37 174.81) rotate(-38.12)"/><ellipse class="cls-4" cx="227.87" cy="179.13" rx="0.09" ry="0.1" transform="translate(-61.98 178.85) rotate(-38.12)"/><ellipse class="cls-4" cx="225.57" cy="179.18" rx="0.09" ry="0.1" transform="translate(-62.5 177.44) rotate(-38.12)"/><ellipse class="cls-4" cx="229.81" cy="171.16" rx="0.09" ry="0.1" transform="translate(-56.65 178.35) rotate(-38.12)"/><ellipse class="cls-4" cx="230.28" cy="167.28" rx="0.09" ry="0.1" transform="translate(-54.15 177.81) rotate(-38.12)"/><ellipse class="cls-4" cx="231.58" cy="167.44" rx="0.09" ry="0.1" transform="translate(-53.97 178.64) rotate(-38.12)"/><ellipse class="cls-4" cx="236.12" cy="173.24" rx="0.09" ry="0.1" transform="translate(-56.58 182.69) rotate(-38.12)"/><ellipse class="cls-4" cx="233.82" cy="173.29" rx="0.09" ry="0.1" transform="translate(-57.1 181.28) rotate(-38.12)"/><ellipse class="cls-4" cx="221.33" cy="176.94" rx="0.09" ry="0.1" transform="translate(-62.02 174.35) rotate(-38.12)"/><ellipse class="cls-4" cx="224.41" cy="178.62" rx="0.09" ry="0.1" transform="translate(-62.4 176.6) rotate(-38.12)"/><ellipse class="cls-4" cx="224.87" cy="174.75" rx="0.09" ry="0.1" transform="matrix(0.79, -0.62, 0.62, 0.79, -59.91, 176.07)"/><ellipse class="cls-4" cx="227.3" cy="184.55" rx="0.09" ry="0.1" transform="translate(-65.44 179.65) rotate(-38.12)"/><ellipse class="cls-4" cx="226.17" cy="174.9" rx="0.09" ry="0.1" transform="translate(-59.73 176.9) rotate(-38.12)"/><ellipse class="cls-4" cx="230.71" cy="180.7" rx="0.09" ry="0.1" transform="translate(-62.34 180.94) rotate(-38.12)"/><ellipse class="cls-4" cx="224.46" cy="180.93" rx="0.09" ry="0.1" transform="translate(-63.81 177.13) rotate(-38.12)"/><ellipse class="cls-4" cx="228.41" cy="180.75" rx="0.09" ry="0.1" transform="matrix(0.79, -0.62, 0.62, 0.79, -62.86, 179.53)"/><circle class="cls-4" cx="222.73" cy="183.16" r="0.52"/><circle class="cls-4" cx="229.16" cy="174.79" r="0.52"/><ellipse class="cls-4" cx="209.67" cy="191.22" rx="0.09" ry="0.1" transform="translate(-73.33 170.19) rotate(-38.12)"/><ellipse class="cls-4" cx="212.74" cy="192.91" rx="0.09" ry="0.1" transform="translate(-73.71 172.45) rotate(-38.12)"/><ellipse class="cls-4" cx="213.21" cy="189.03" rx="0.09" ry="0.1" transform="translate(-71.21 171.91) rotate(-38.12)"/><ellipse class="cls-4" cx="215.64" cy="198.83" rx="0.09" ry="0.1" transform="translate(-76.75 175.5) rotate(-38.12)"/><ellipse class="cls-4" cx="214.5" cy="189.19" rx="0.09" ry="0.1" transform="translate(-71.04 172.74) rotate(-38.12)"/><ellipse class="cls-4" cx="219.05" cy="194.98" rx="0.09" ry="0.1" transform="translate(-73.64 176.79) rotate(-38.12)"/><ellipse class="cls-4" cx="212.79" cy="195.21" rx="0.09" ry="0.1" transform="matrix(0.79, -0.62, 0.62, 0.79, -75.12, 172.97)"/><ellipse class="cls-4" cx="216.75" cy="195.03" rx="0.09" ry="0.1" transform="translate(-74.16 175.38) rotate(-38.12)"/><circle class="cls-4" cx="217.5" cy="189.08" r="0.52"/><ellipse class="cls-4" cx="204.02" cy="186.88" rx="0.09" ry="0.1" transform="translate(-71.85 165.78) rotate(-38.12)"/><ellipse class="cls-4" cx="207.1" cy="188.56" rx="0.09" ry="0.1" transform="translate(-72.23 168.04) rotate(-38.12)"/><ellipse class="cls-4" cx="207.57" cy="184.68" rx="0.09" ry="0.1" transform="translate(-69.73 167.5) rotate(-38.12)"/><ellipse class="cls-4" cx="209.99" cy="194.48" rx="0.09" ry="0.1" transform="translate(-75.27 171.09) rotate(-38.12)"/><ellipse class="cls-4" cx="207.15" cy="190.86" rx="0.09" ry="0.1" transform="translate(-73.64 168.56) rotate(-38.12)"/><ellipse class="cls-4" cx="211.1" cy="190.68" rx="0.09" ry="0.1" transform="translate(-72.68 170.96) rotate(-38.12)"/><ellipse class="cls-4" cx="210.11" cy="174.5" rx="0.09" ry="0.1" transform="translate(-62.91 166.9) rotate(-38.12)"/><ellipse class="cls-4" cx="213.18" cy="176.18" rx="0.09" ry="0.1" transform="translate(-63.29 169.15) rotate(-38.12)"/><ellipse class="cls-4" cx="213.65" cy="172.3" rx="0.09" ry="0.1" transform="translate(-60.79 168.62) rotate(-38.12)"/><ellipse class="cls-4" cx="216.07" cy="182.1" rx="0.09" ry="0.1" transform="translate(-66.33 172.2) rotate(-38.12)"/><ellipse class="cls-4" cx="213.23" cy="178.48" rx="0.09" ry="0.1" transform="translate(-64.7 169.68) rotate(-38.12)"/><ellipse class="cls-4" cx="217.19" cy="178.3" rx="0.09" ry="0.1" transform="translate(-63.74 172.08) rotate(-38.12)"/><circle class="cls-4" cx="219.68" cy="65.82" r="1.15"/><circle class="cls-4" cx="149.22" cy="74.75" r="0.52"/><circle class="cls-4" cx="170.06" cy="67.75" r="0.52"/><circle class="cls-4" cx="183.58" cy="113.32" r="0.52"/><circle class="cls-4" cx="161.28" cy="91.61" r="0.52"/><circle class="cls-4" cx="160.49" cy="76.43" r="0.52"/><circle class="cls-4" cx="173.05" cy="56.64" r="0.52"/><circle class="cls-4" cx="190.16" cy="102.31" r="0.52"/><circle class="cls-4" cx="189.09" cy="78.58" r="0.52"/><circle class="cls-4" cx="163.83" cy="111.27" r="0.52"/><ellipse class="cls-4" cx="171.6" cy="77.96" rx="0.09" ry="0.1" transform="translate(-11.53 122.54) rotate(-38.12)"/><ellipse class="cls-4" cx="179.06" cy="86.73" rx="0.09" ry="0.1" transform="translate(-15.35 129.02) rotate(-38.12)"/><ellipse class="cls-4" cx="176.79" cy="83.83" rx="0.09" ry="0.1" transform="translate(-14.05 127) rotate(-38.12)"/><ellipse class="cls-4" cx="177.38" cy="89.81" rx="0.09" ry="0.1" transform="translate(-17.61 128.64) rotate(-38.12)"/><ellipse class="cls-4" cx="182.14" cy="88.41" rx="0.09" ry="0.1" transform="translate(-15.74 131.28) rotate(-38.12)"/><ellipse class="cls-4" cx="182.61" cy="84.54" rx="0.09" ry="0.1" transform="translate(-13.24 130.74) rotate(-38.12)"/><ellipse class="cls-4" cx="174.52" cy="80.94" rx="0.09" ry="0.1" transform="translate(-12.74 124.98) rotate(-38.12)"/><ellipse class="cls-4" cx="173.99" cy="90.71" rx="0.09" ry="0.1" transform="translate(-18.89 126.74) rotate(-38.12)"/><ellipse class="cls-4" cx="185.03" cy="94.34" rx="0.09" ry="0.1" transform="translate(-18.77 134.33) rotate(-38.12)"/><ellipse class="cls-4" cx="183.9" cy="84.69" rx="0.09" ry="0.1" transform="matrix(0.79, -0.62, 0.62, 0.79, -13.06, 131.57)"/><ellipse class="cls-4" cx="184.61" cy="70.68" rx="0.09" ry="0.1" transform="translate(-4.26 129.02) rotate(-38.12)"/><ellipse class="cls-4" cx="188.45" cy="90.49" rx="0.09" ry="0.1" transform="translate(-15.67 135.61) rotate(-38.12)"/><ellipse class="cls-4" cx="182.19" cy="90.72" rx="0.09" ry="0.1" transform="translate(-17.14 131.8) rotate(-38.12)"/><ellipse class="cls-4" cx="195.49" cy="75.6" rx="0.09" ry="0.1" transform="translate(-4.98 136.79) rotate(-38.12)"/><ellipse class="cls-4" cx="192.54" cy="75.57" rx="0.09" ry="0.1" transform="translate(-5.59 134.96) rotate(-38.12)"/><ellipse class="cls-4" cx="194.09" cy="79.04" rx="0.09" ry="0.1" transform="matrix(0.79, -0.62, 0.62, 0.79, -7.4, 136.66)"/><ellipse class="cls-4" cx="186.15" cy="90.54" rx="0.09" ry="0.1" transform="translate(-16.19 134.2) rotate(-38.12)"/><ellipse class="cls-4" cx="185.2" cy="76.65" rx="0.09" ry="0.1" transform="translate(-7.82 130.66) rotate(-38.12)"/><ellipse class="cls-4" cx="169.28" cy="94.4" rx="0.09" ry="0.1" transform="translate(-22.17 124.62) rotate(-38.12)"/><ellipse class="cls-4" cx="164.59" cy="81.7" rx="0.09" ry="0.1" transform="translate(-15.34 119.01) rotate(-38.12)"/><ellipse class="cls-4" cx="167.37" cy="99.42" rx="0.09" ry="0.1" transform="matrix(0.79, -0.62, 0.62, 0.79, -25.68, 124.51)"/><ellipse class="cls-4" cx="172.93" cy="88.61" rx="0.09" ry="0.1" transform="translate(-17.82 125.64) rotate(-38.12)"/><circle class="cls-4" cx="179.57" cy="81.36" r="0.52"/><circle class="cls-4" cx="180.47" cy="92.95" r="0.52"/><circle class="cls-4" cx="193.8" cy="87.29" r="1.15"/><circle class="cls-4" cx="173.55" cy="100.26" r="1.15"/><circle class="cls-4" cx="178.92" cy="72.05" r="1.15"/><circle class="cls-4" cx="183.71" cy="64.09" r="0.52"/><circle class="cls-4" cx="205.47" cy="67.22" r="0.52"/><circle class="cls-4" cx="197.19" cy="107.46" r="0.52"/><circle class="cls-4" cx="186.9" cy="84.58" r="0.52"/><circle class="cls-4" cx="193.02" cy="70.67" r="0.52"/><circle class="cls-4" cx="213.13" cy="58.63" r="0.52"/><circle class="cls-4" cx="207.88" cy="107.12" r="0.52"/><circle class="cls-4" cx="217.6" cy="85.44" r="0.52"/><circle class="cls-4" cx="180.33" cy="103.28" r="0.52"/><circle class="cls-4" cx="199.54" cy="84.38" r="0.52"/><circle class="cls-4" cx="217.89" cy="95.35" r="1.15"/><circle class="cls-4" cx="193.97" cy="97.82" r="1.15"/><circle class="cls-4" cx="211.45" cy="75.04" r="1.15"/><circle class="cls-4" cx="189.32" cy="72.4" r="0.52"/><circle class="cls-4" cx="195.9" cy="61.39" r="0.52"/><circle class="cls-4" cx="202.8" cy="73.08" r="0.52"/><circle class="cls-4" cx="213.62" cy="66.2" r="0.52"/><circle class="cls-4" cx="186.08" cy="62.36" r="0.52"/><circle class="cls-4" cx="199.71" cy="56.9" r="1.15"/><ellipse class="cls-4" cx="146.89" cy="98.18" rx="0.09" ry="0.1" transform="translate(-29.28 111.6) rotate(-38.12)"/><ellipse class="cls-4" cx="198.56" cy="92.05" rx="0.09" ry="0.1" transform="translate(-14.48 142.19) rotate(-38.12)"/><ellipse class="cls-4" cx="199.03" cy="88.17" rx="0.09" ry="0.1" transform="translate(-11.99 141.65) rotate(-38.12)"/><ellipse class="cls-4" cx="200.32" cy="88.33" rx="0.09" ry="0.1" transform="translate(-11.81 142.48) rotate(-38.12)"/><ellipse class="cls-4" cx="204.87" cy="94.13" rx="0.09" ry="0.1" transform="translate(-14.41 146.53) rotate(-38.12)"/><ellipse class="cls-4" cx="202.57" cy="94.18" rx="0.09" ry="0.1" transform="translate(-14.94 145.12) rotate(-38.12)"/><ellipse class="cls-4" cx="206.81" cy="86.16" rx="0.09" ry="0.1" transform="translate(-9.08 146.03) rotate(-38.12)"/><ellipse class="cls-4" cx="207.28" cy="82.28" rx="0.09" ry="0.1" transform="translate(-6.59 145.49) rotate(-38.12)"/><ellipse class="cls-4" cx="208.58" cy="82.44" rx="0.09" ry="0.1" transform="translate(-6.41 146.32) rotate(-38.12)"/><ellipse class="cls-4" cx="213.12" cy="88.24" rx="0.09" ry="0.1" transform="translate(-9.02 150.36) rotate(-38.12)"/><ellipse class="cls-4" cx="210.82" cy="88.29" rx="0.09" ry="0.1" transform="translate(-9.54 148.95) rotate(-38.12)"/><ellipse class="cls-4" cx="198.33" cy="91.94" rx="0.09" ry="0.1" transform="translate(-14.46 142.02) rotate(-38.12)"/><ellipse class="cls-4" cx="201.41" cy="93.62" rx="0.09" ry="0.1" transform="translate(-14.84 144.28) rotate(-38.12)"/><ellipse class="cls-4" cx="201.87" cy="89.75" rx="0.09" ry="0.1" transform="matrix(0.79, -0.62, 0.62, 0.79, -12.35, 143.74)"/><ellipse class="cls-4" cx="204.3" cy="99.55" rx="0.09" ry="0.1" transform="translate(-17.88 147.33) rotate(-38.12)"/><ellipse class="cls-4" cx="203.17" cy="89.9" rx="0.09" ry="0.1" transform="translate(-12.17 144.58) rotate(-38.12)"/><ellipse class="cls-4" cx="207.71" cy="95.7" rx="0.09" ry="0.1" transform="translate(-14.78 148.62) rotate(-38.12)"/><ellipse class="cls-4" cx="201.46" cy="95.93" rx="0.09" ry="0.1" transform="translate(-16.25 144.8) rotate(-38.12)"/><ellipse class="cls-4" cx="205.41" cy="95.75" rx="0.09" ry="0.1" transform="matrix(0.79, -0.62, 0.62, 0.79, -15.3, 147.21)"/><circle class="cls-4" cx="199.73" cy="98.16" r="0.52"/><circle class="cls-4" cx="206.16" cy="89.79" r="0.52"/><ellipse class="cls-4" cx="186.67" cy="106.22" rx="0.09" ry="0.1" transform="translate(-25.76 137.87) rotate(-38.12)"/><ellipse class="cls-4" cx="189.74" cy="107.91" rx="0.09" ry="0.1" transform="translate(-26.15 140.13) rotate(-38.12)"/><ellipse class="cls-4" cx="190.21" cy="104.03" rx="0.09" ry="0.1" transform="translate(-23.65 139.59) rotate(-38.12)"/><ellipse class="cls-4" cx="192.64" cy="113.83" rx="0.09" ry="0.1" transform="translate(-29.19 143.18) rotate(-38.12)"/><ellipse class="cls-4" cx="191.5" cy="104.19" rx="0.09" ry="0.1" transform="translate(-23.47 140.42) rotate(-38.12)"/><ellipse class="cls-4" cx="196.05" cy="109.98" rx="0.09" ry="0.1" transform="translate(-26.08 144.46) rotate(-38.12)"/><ellipse class="cls-4" cx="189.79" cy="110.21" rx="0.09" ry="0.1" transform="matrix(0.79, -0.62, 0.62, 0.79, -27.56, 140.65)"/><ellipse class="cls-4" cx="193.75" cy="110.03" rx="0.09" ry="0.1" transform="translate(-26.6 143.05) rotate(-38.12)"/><circle class="cls-4" cx="194.5" cy="104.08" r="0.52"/><ellipse class="cls-4" cx="181.02" cy="101.88" rx="0.09" ry="0.1" transform="translate(-24.28 133.46) rotate(-38.12)"/><ellipse class="cls-4" cx="184.1" cy="103.56" rx="0.09" ry="0.1" transform="translate(-24.67 135.72) rotate(-38.12)"/><ellipse class="cls-4" cx="184.57" cy="99.68" rx="0.09" ry="0.1" transform="translate(-22.17 135.18) rotate(-38.12)"/><ellipse class="cls-4" cx="186.99" cy="109.48" rx="0.09" ry="0.1" transform="translate(-27.71 138.76) rotate(-38.12)"/><ellipse class="cls-4" cx="184.15" cy="105.86" rx="0.09" ry="0.1" transform="translate(-26.08 136.24) rotate(-38.12)"/><ellipse class="cls-4" cx="188.1" cy="105.68" rx="0.09" ry="0.1" transform="translate(-25.12 138.64) rotate(-38.12)"/><ellipse class="cls-4" cx="187.11" cy="89.5" rx="0.09" ry="0.1" transform="translate(-15.34 134.58) rotate(-38.12)"/><ellipse class="cls-4" cx="190.18" cy="91.18" rx="0.09" ry="0.1" transform="translate(-15.73 136.83) rotate(-38.12)"/><ellipse class="cls-4" cx="190.65" cy="87.3" rx="0.09" ry="0.1" transform="translate(-13.23 136.29) rotate(-38.12)"/><ellipse class="cls-4" cx="193.07" cy="97.1" rx="0.09" ry="0.1" transform="translate(-18.77 139.88) rotate(-38.12)"/><ellipse class="cls-4" cx="190.23" cy="93.48" rx="0.09" ry="0.1" transform="translate(-17.14 137.35) rotate(-38.12)"/><ellipse class="cls-4" cx="194.19" cy="93.3" rx="0.09" ry="0.1" transform="translate(-16.18 139.76) rotate(-38.12)"/><path class="cls-5" d="M138.64,115.67l123-101c18.31,33.18,12.13,74.19-14,99C218.61,141.24,171.24,142.82,138.64,115.67Z"/><path class="cls-6" d="M142.17,112l56.32-46.71,58.42-48.47c16.3,30.4,12.46,68.11-10.73,90.32C219.19,133,174,135.75,142.17,112Z"/><path class="cls-7" d="M148.07,110.36l44-38-21,48a33.48,33.48,0,0,1-23-10Z"/><path class="cls-7" d="M197.07,69.36q-11.5,25.5-23,51a29.29,29.29,0,0,0,24,3Q197.56,96.36,197.07,69.36Z"/><path class="cls-7" d="M198.94,67.42l3.36,55.84a29.26,29.26,0,0,0,22.64-8.5Z"/><path class="cls-7" d="M200.78,66.1Q215,90.19,229.24,114.27a51.68,51.68,0,0,0,17.83-15.91Z"/><path class="cls-7" d="M255.42,19.18,211.73,57.54l50.44-14.2a33.52,33.52,0,0,0-6.75-24.16Z"/><path class="cls-7" d="M208.08,62.08l53.67-15.77a29.32,29.32,0,0,1-.32,24.18Z"/><path class="cls-7" d="M205.89,63.66l54.86,11a29.36,29.36,0,0,1-11.54,21.26Z"/><rect class="cls-8" x="236.24" y="67.2" width="30.71" height="84" rx="10.36" transform="translate(-21.79 87.2) rotate(-18.86)"/><ellipse class="cls-9" cx="263.74" cy="144.7" rx="12.02" ry="4.5" transform="translate(-29.53 77.69) rotate(-15.88)"/><path class="cls-10" d="M264.12,116.91l-55.45,38.71-3.09-6.29-2.94-14.93,45.73-31.64,14.24,8.85Z"/><path class="cls-7" d="M269,113.4l-59.74,39.24-3.12-6.06q-1.37-7.26-2.74-14.52L252.64,100l14.87,8.29Z"/><path class="cls-11" d="M267.51,108.26l-61.39,38.32-6.22-21.87,49.26-32.09Q258.34,100.44,267.51,108.26Z"/><path class="cls-7" d="M260.57,109.79l-50.4,31.46-5.11-18L245.51,97Z"/></g></svg>