<svg xmlns="http://www.w3.org/2000/svg" xmlns:xlink="http://www.w3.org/1999/xlink" width="320" height="320" viewBox="0 0 320 320"><defs><style>.cls-1{fill:url(#radial-gradient);}.cls-2{fill:url(#radial-gradient-2);}.cls-3{fill:url(#radial-gradient-3);}.cls-4{opacity:0.09;}.cls-5{fill:#96716b;}.cls-6{fill:#a38078;}</style><radialGradient id="radial-gradient" cx="160" cy="160.03" r="147.88" gradientUnits="userSpaceOnUse"><stop offset="0" stop-color="#bc9a95"/><stop offset="0.05" stop-color="#ba9893"/><stop offset="0.65" stop-color="#a38078"/><stop offset="0.77" stop-color="#a6837b"/><stop offset="0.88" stop-color="#ae8c85"/><stop offset="0.97" stop-color="#bc9a97"/><stop offset="1" stop-color="#c1a09d"/></radialGradient><radialGradient id="radial-gradient-2" cx="-281.25" cy="-3444.15" r="115.82" gradientTransform="matrix(0.98, 0.52, -0.5, 0.94, -1278.82, 3526.32)" xlink:href="#radial-gradient"/><radialGradient id="radial-gradient-3" cx="176.71" cy="146.91" r="121.34" xlink:href="#radial-gradient"/></defs><g id="Layer_2" data-name="Layer 2"><path class="cls-1" d="M310.07,155.39c.24,31.55-12.85,56.42-21.61,70a15.38,15.38,0,0,1-1.39,10c-1.13,2.08-2,2.29-7,7-5.66,5.33-5.93,6.37-8,7-1.51.46-5.2,1.08-11-3l-17.88,26.18a24.09,24.09,0,0,0-4.12,3.82c-2.43,2.84-2.81,4.65-4,6-1.64,1.84-5.23,3.31-14,1.31q-4.33,2.19-8.68,4.37a77.55,77.55,0,0,1-8.32,8.32c-5.63,4.81-9.38,8-14,9-9.89,2.07-19.15-7.1-21-9a44.94,44.94,0,0,1-9,0,46.29,46.29,0,0,1-20-7l-49-18c-6.7-4.48-12.19-7.79-16-10-5.55-3.22-9.53-5.26-12-10a17.89,17.89,0,0,1-1.93-6.79q-4.68-5.68-9.37-11.38a61.06,61.06,0,0,1-9.7-7.83c-4.11-4.06-12.08-11.95-14-23-.78-4.45,0-5.94,1-15a200.67,200.67,0,0,0,1-27c-.67-1.67-1.34-3.33-2-5a12.14,12.14,0,0,1-9,2,11.74,11.74,0,0,1-9-9c-.88-4.72,2.78-6,5-13,3.59-11.32-2.6-18.75,2-23,3.36-3.11,8.6-.92,10-4,1.05-2.33-1.76-4-2-8-.3-4.81,3.47-7.09,8-14,2.7-4.13,1.35-3.32,7-15,7.25-15,9.49-16.38,11-17S57.83,52.06,67,58.12c11-10.67,48.79-44.71,102.08-43.73C244,15.76,309.51,85.61,310.07,155.39Z"/><path class="cls-2" d="M272.72,207.43c-23,43.65-74.8,68.71-128.94,61.84a41.55,41.55,0,0,1-20.53-1.82c-8.66-3.18-13.76-8.7-17.6-12.72-21.79-22.82-23.63-19.08-32.82-31-6.29-8.14-18.13-26.34-21-57.1-3.8,5.29-8.32,8.21-11.42,7.13-2.73-1-3.54-4.72-4.67-10.4-.93-4.61-2.09-13.28.16-25.94a93.34,93.34,0,0,1,3-12c-2.85-6.63-2.14-10.61-1-13,2.17-4.67,6.13-3.78,9.62-9.62,2.58-4.31,3.07-9.22,3.44-12.89a49.1,49.1,0,0,0,.15-6.71,55.22,55.22,0,0,1,3.6-19.6,17.45,17.45,0,0,0,7.27-5.19c2.43-3,2.34-5.26,3.75-7.07,1.89-2.45,6.67-4.4,19.93-1.19C88.35,48.49,155,8.59,218,42.65,273.77,72.81,303.79,148.59,272.72,207.43Z"/><path class="cls-3" d="M277,215.72c-29.15,41-83.14,60.61-134.42,48.2A38.65,38.65,0,0,1,123,260c-7.88-4.05-11.94-10.07-15-14.45-17.49-24.95-19.86-21.41-26.88-34.17-4.8-8.74-13.4-28.06-11.3-58.93-4.51,4.87-9.33,7.31-12.16,5.91-2.49-1.23-2.68-5.06-2.89-10.82-.17-4.68.06-13.42,4.23-25.77a101.63,101.63,0,0,1,4.75-11.64c-1.71-6.89-.4-10.77,1-13,2.83-4.42,6.52-3.13,10.82-8.57,3.17-4,4.41-8.86,5.34-12.47a53.45,53.45,0,0,0,1.21-6.65A58.51,58.51,0,0,1,88.71,50.3a18.27,18.27,0,0,0,7.86-4.42c2.82-2.75,3.08-5,4.73-6.64,2.21-2.24,7.14-3.68,19.46.87C123.67,38.7,194.39,5.9,250,46.25,299.16,82,316.3,160.42,277,215.72Z"/><path class="cls-4" d="M281.68,82.54l-83.36,28.77c-.55-3-1.09-6-1.64-9q.82-9.88,1.64-19.78L267,59.17l14.71,16.18Z"/><path class="cls-4" d="M229.52,87.07,151.09,46.75l5.36-7.39,15.42-12.5,64.36,33.42L234.72,82.1Z"/><path class="cls-5" d="M289,79.87l-88.94,27.91q-.87-4.36-1.75-8.72.89-9.6,1.75-19.19L273.33,57.2,289,72.9Z"/><path class="cls-6" d="M289,72.9,198.34,99.06V69.41l73.25-22.67Z"/><path class="cls-5" d="M279.77,72.35,205.32,93.82V69.48l60.14-18.61Z"/><path class="cls-5" d="M231.06,86.5,149,42.36,154,35l14.95-12.15,67.39,36.56-.26,22.19Z"/><path class="cls-6" d="M236.05,81.62,154,35l21.22-20.71,67.39,36.56Q239.31,66.25,236.05,81.62Z"/><path class="cls-5" d="M230,74.62,162.59,36.36l17.42-17,55.33,30Z"/></g></svg>