<svg xmlns="http://www.w3.org/2000/svg" xmlns:xlink="http://www.w3.org/1999/xlink" width="320" height="320" viewBox="0 0 320 320"><defs><style>.cls-1{fill:url(#radial-gradient);}.cls-2{fill:url(#radial-gradient-2);}.cls-3{fill:url(#radial-gradient-3);}.cls-4{fill:#f2b879;}.cls-5{opacity:0.09;}.cls-6{fill:#efddac;}.cls-7{fill:#f7eed2;}</style><radialGradient id="radial-gradient" cx="160" cy="160" r="147.88" gradientUnits="userSpaceOnUse"><stop offset="0" stop-color="#fffdf9"/><stop offset="0.84" stop-color="#efddac"/><stop offset="0.89" stop-color="#f0dfb1"/><stop offset="0.95" stop-color="#f3e6c0"/><stop offset="1" stop-color="#f7eed2"/></radialGradient><radialGradient id="radial-gradient-2" cx="33.55" cy="-3156.01" r="115.82" gradientTransform="matrix(0.98, 0.52, -0.5, 0.94, -1444.56, 3092.25)" xlink:href="#radial-gradient"/><radialGradient id="radial-gradient-3" cx="-351.69" cy="-3908.42" r="106.2" gradientTransform="matrix(0.95, 0.67, -0.69, 0.96, -2170.11, 4140.18)" xlink:href="#radial-gradient"/></defs><g id="Layer_2" data-name="Layer 2"><path class="cls-1" d="M310.07,155.36c.24,31.55-12.85,56.42-21.61,70a15.38,15.38,0,0,1-1.39,10c-1.13,2.08-2,2.29-7,7-5.66,5.33-5.93,6.37-8,7-1.51.46-5.2,1.08-11-3l-17.88,26.18a24.09,24.09,0,0,0-4.12,3.82c-2.43,2.84-2.81,4.65-4,6-1.64,1.84-5.23,3.31-14,1.31q-4.33,2.19-8.68,4.37a77.55,77.55,0,0,1-8.32,8.32c-5.63,4.81-9.38,8-14,9-9.89,2.07-19.15-7.1-21-9a44.94,44.94,0,0,1-9,0,46.29,46.29,0,0,1-20-7l-49-18c-6.7-4.48-12.19-7.79-16-10-5.55-3.22-9.53-5.26-12-10a17.89,17.89,0,0,1-1.93-6.79q-4.68-5.69-9.37-11.38a61.06,61.06,0,0,1-9.7-7.83c-4.11-4.06-12.08-12-14-23-.78-4.45,0-5.94,1-15a200.67,200.67,0,0,0,1-27c-.67-1.67-1.34-3.33-2-5a12.14,12.14,0,0,1-9,2,11.74,11.74,0,0,1-9-9c-.88-4.72,2.78-6,5-13,3.59-11.32-2.6-18.75,2-23,3.36-3.11,8.6-.92,10-4,1.05-2.33-1.76-4-2-8-.3-4.81,3.47-7.09,8-14,2.7-4.13,1.35-3.32,7-15,7.25-15,9.49-16.38,11-17S57.83,52,67,58.09c11-10.67,48.79-44.71,102.08-43.73C244,15.73,309.51,85.58,310.07,155.36Z"/><path class="cls-2" d="M272.72,207.4c-23,43.65-74.8,68.71-128.94,61.84a41.55,41.55,0,0,1-20.53-1.82c-8.66-3.18-13.76-8.7-17.6-12.72-21.79-22.82-23.63-19.08-32.82-31-6.29-8.14-18.13-26.34-21-57.1-3.8,5.29-8.32,8.21-11.42,7.13-2.73-1-3.54-4.72-4.67-10.4-.93-4.61-2.09-13.28.16-25.94a93.34,93.34,0,0,1,3-12c-2.85-6.63-2.14-10.61-1-13,2.17-4.67,6.13-3.78,9.62-9.62,2.58-4.31,3.07-9.22,3.44-12.89a49.1,49.1,0,0,0,.15-6.71,55.22,55.22,0,0,1,3.6-19.6,17.36,17.36,0,0,0,7.27-5.19c2.43-3,2.34-5.25,3.75-7.07,1.89-2.45,6.67-4.4,19.93-1.19C88.35,48.46,155,8.56,218,42.62,273.77,72.78,303.79,148.56,272.72,207.4Z"/><path class="cls-3" d="M277,215.69c-29.15,41-83.14,60.61-134.42,48.2A38.65,38.65,0,0,1,123,260c-7.88-4-11.94-10.07-15-14.45-17.49-24.95-19.86-21.41-26.88-34.17-4.8-8.74-13.4-28.06-11.3-58.93-4.51,4.87-9.33,7.31-12.16,5.91-2.49-1.23-2.68-5.06-2.89-10.82-.17-4.68.06-13.42,4.23-25.77a101.63,101.63,0,0,1,4.75-11.64c-1.71-6.88-.4-10.77,1-13,2.83-4.42,6.52-3.13,10.82-8.57C78.78,84.48,80,79.64,81,76a53.45,53.45,0,0,0,1.21-6.65,58.51,58.51,0,0,1,6.55-19.11,18.27,18.27,0,0,0,7.86-4.42c2.82-2.75,3.08-5,4.73-6.64,2.21-2.24,7.14-3.68,19.46.87,2.91-1.41,73.63-34.21,129.2,6.14C299.16,82,316.3,160.39,277,215.69Z"/><circle class="cls-4" cx="181.56" cy="130.11" r="1.15"/><circle class="cls-4" cx="111.11" cy="139.03" r="0.52"/><circle class="cls-4" cx="131.95" cy="132.04" r="0.52"/><circle class="cls-4" cx="145.47" cy="177.61" r="0.52"/><circle class="cls-4" cx="123.17" cy="155.9" r="0.52"/><circle class="cls-4" cx="122.38" cy="140.72" r="0.52"/><circle class="cls-4" cx="134.93" cy="120.92" r="0.52"/><circle class="cls-4" cx="152.04" cy="166.6" r="0.52"/><circle class="cls-4" cx="150.97" cy="142.86" r="0.52"/><circle class="cls-4" cx="125.71" cy="175.55" r="0.52"/><ellipse class="cls-4" cx="133.49" cy="142.24" rx="0.09" ry="0.1" transform="translate(-59.34 112.72) rotate(-38.12)"/><ellipse class="cls-4" cx="140.95" cy="151.01" rx="0.09" ry="0.1" transform="translate(-63.16 119.2) rotate(-38.12)"/><ellipse class="cls-4" cx="138.68" cy="148.12" rx="0.09" ry="0.1" transform="translate(-61.85 117.18) rotate(-38.12)"/><ellipse class="cls-4" cx="139.27" cy="154.09" rx="0.09" ry="0.1" transform="translate(-65.42 118.82) rotate(-38.12)"/><ellipse class="cls-4" cx="144.03" cy="152.7" rx="0.09" ry="0.1" transform="translate(-63.54 121.46) rotate(-38.12)"/><ellipse class="cls-4" cx="144.5" cy="148.82" rx="0.09" ry="0.1" transform="translate(-61.05 120.92) rotate(-38.12)"/><ellipse class="cls-4" cx="136.4" cy="145.22" rx="0.09" ry="0.1" transform="translate(-60.55 115.16) rotate(-38.12)"/><ellipse class="cls-4" cx="135.88" cy="154.99" rx="0.09" ry="0.1" transform="translate(-66.69 116.92) rotate(-38.12)"/><ellipse class="cls-4" cx="146.92" cy="158.62" rx="0.09" ry="0.1" transform="translate(-66.58 124.51) rotate(-38.12)"/><ellipse class="cls-4" cx="145.79" cy="148.97" rx="0.09" ry="0.1" transform="translate(-60.87 121.75) rotate(-38.12)"/><ellipse class="cls-4" cx="146.5" cy="134.96" rx="0.09" ry="0.1" transform="translate(-52.07 119.2) rotate(-38.12)"/><ellipse class="cls-4" cx="150.33" cy="154.77" rx="0.09" ry="0.1" transform="translate(-63.48 125.8) rotate(-38.12)"/><ellipse class="cls-4" cx="144.08" cy="155" rx="0.09" ry="0.1" transform="matrix(0.79, -0.62, 0.62, 0.79, -64.95, 121.98)"/><ellipse class="cls-4" cx="157.38" cy="139.88" rx="0.09" ry="0.1" transform="translate(-52.78 126.97) rotate(-38.12)"/><ellipse class="cls-4" cx="154.43" cy="139.85" rx="0.09" ry="0.1" transform="translate(-53.39 125.14) rotate(-38.12)"/><ellipse class="cls-4" cx="155.98" cy="143.32" rx="0.09" ry="0.1" transform="translate(-55.2 126.84) rotate(-38.12)"/><ellipse class="cls-4" cx="148.03" cy="154.82" rx="0.09" ry="0.1" transform="matrix(0.79, -0.62, 0.62, 0.79, -64, 124.39)"/><ellipse class="cls-4" cx="147.09" cy="140.93" rx="0.09" ry="0.1" transform="translate(-55.63 120.84) rotate(-38.12)"/><ellipse class="cls-4" cx="131.17" cy="158.69" rx="0.09" ry="0.1" transform="translate(-69.98 114.8) rotate(-38.12)"/><ellipse class="cls-4" cx="126.48" cy="145.99" rx="0.09" ry="0.1" transform="translate(-63.14 109.2) rotate(-38.12)"/><ellipse class="cls-4" cx="129.25" cy="163.7" rx="0.09" ry="0.1" transform="translate(-73.48 114.69) rotate(-38.12)"/><ellipse class="cls-4" cx="134.82" cy="152.9" rx="0.09" ry="0.1" transform="translate(-65.63 115.82) rotate(-38.12)"/><circle class="cls-4" cx="141.46" cy="145.64" r="0.52"/><circle class="cls-4" cx="142.35" cy="157.23" r="0.52"/><circle class="cls-4" cx="155.69" cy="151.58" r="1.15"/><circle class="cls-4" cx="135.43" cy="164.54" r="1.15"/><circle class="cls-4" cx="140.81" cy="136.33" r="1.15"/><circle class="cls-4" cx="145.59" cy="128.38" r="0.52"/><circle class="cls-4" cx="167.36" cy="131.5" r="0.52"/><circle class="cls-4" cx="159.07" cy="171.74" r="0.52"/><circle class="cls-4" cx="148.78" cy="148.87" r="0.52"/><circle class="cls-4" cx="154.9" cy="134.95" r="0.52"/><circle class="cls-4" cx="175.02" cy="122.91" r="0.52"/><circle class="cls-4" cx="169.76" cy="171.41" r="0.52"/><circle class="cls-4" cx="179.48" cy="149.72" r="0.52"/><circle class="cls-4" cx="142.22" cy="167.57" r="0.52"/><circle class="cls-4" cx="161.42" cy="148.67" r="0.52"/><circle class="cls-4" cx="179.78" cy="159.63" r="1.15"/><circle class="cls-4" cx="155.85" cy="162.1" r="1.15"/><circle class="cls-4" cx="173.33" cy="139.32" r="1.15"/><circle class="cls-4" cx="151.21" cy="136.69" r="0.52"/><circle class="cls-4" cx="157.79" cy="125.68" r="0.52"/><circle class="cls-4" cx="164.68" cy="137.37" r="0.52"/><circle class="cls-4" cx="175.51" cy="130.49" r="0.52"/><circle class="cls-4" cx="147.96" cy="126.65" r="0.52"/><circle class="cls-4" cx="161.6" cy="121.18" r="1.15"/><ellipse class="cls-4" cx="108.77" cy="162.46" rx="0.09" ry="0.1" transform="translate(-77.09 101.78) rotate(-38.12)"/><ellipse class="cls-4" cx="160.45" cy="156.34" rx="0.09" ry="0.1" transform="translate(-62.29 132.37) rotate(-38.12)"/><ellipse class="cls-4" cx="160.92" cy="152.46" rx="0.09" ry="0.1" transform="translate(-59.79 131.83) rotate(-38.12)"/><ellipse class="cls-4" cx="162.21" cy="152.61" rx="0.09" ry="0.1" transform="translate(-59.61 132.67) rotate(-38.12)"/><ellipse class="cls-4" cx="166.76" cy="158.41" rx="0.09" ry="0.1" transform="translate(-62.22 136.71) rotate(-38.12)"/><ellipse class="cls-4" cx="164.45" cy="158.46" rx="0.09" ry="0.1" transform="matrix(0.79, -0.62, 0.62, 0.79, -62.74, 135.3)"/><ellipse class="cls-4" cx="168.7" cy="150.45" rx="0.09" ry="0.1" transform="translate(-56.89 136.21) rotate(-38.12)"/><ellipse class="cls-4" cx="169.17" cy="146.57" rx="0.09" ry="0.1" transform="translate(-54.4 135.67) rotate(-38.12)"/><ellipse class="cls-4" cx="170.46" cy="146.72" rx="0.09" ry="0.1" transform="translate(-54.22 136.5) rotate(-38.12)"/><ellipse class="cls-4" cx="175.01" cy="152.52" rx="0.09" ry="0.1" transform="translate(-56.83 140.55) rotate(-38.12)"/><ellipse class="cls-4" cx="172.71" cy="152.57" rx="0.09" ry="0.1" transform="translate(-57.35 139.14) rotate(-38.12)"/><ellipse class="cls-4" cx="160.22" cy="156.22" rx="0.09" ry="0.1" transform="translate(-62.27 132.21) rotate(-38.12)"/><ellipse class="cls-4" cx="163.29" cy="157.91" rx="0.09" ry="0.1" transform="translate(-62.65 134.46) rotate(-38.12)"/><ellipse class="cls-4" cx="163.76" cy="154.03" rx="0.09" ry="0.1" transform="translate(-60.15 133.93) rotate(-38.12)"/><ellipse class="cls-4" cx="166.19" cy="163.83" rx="0.09" ry="0.1" transform="translate(-65.69 137.51) rotate(-38.12)"/><ellipse class="cls-4" cx="165.05" cy="154.18" rx="0.09" ry="0.1" transform="translate(-59.98 134.76) rotate(-38.12)"/><ellipse class="cls-4" cx="169.6" cy="159.98" rx="0.09" ry="0.1" transform="translate(-62.58 138.8) rotate(-38.12)"/><ellipse class="cls-4" cx="163.34" cy="160.21" rx="0.09" ry="0.1" transform="translate(-64.06 134.99) rotate(-38.12)"/><ellipse class="cls-4" cx="167.3" cy="160.03" rx="0.09" ry="0.1" transform="translate(-63.1 137.39) rotate(-38.12)"/><circle class="cls-4" cx="161.62" cy="162.44" r="0.52"/><circle class="cls-4" cx="168.05" cy="154.08" r="0.52"/><ellipse class="cls-4" cx="148.55" cy="170.51" rx="0.09" ry="0.1" transform="translate(-73.57 128.05) rotate(-38.12)"/><ellipse class="cls-4" cx="151.63" cy="172.19" rx="0.09" ry="0.1" transform="translate(-73.95 130.31) rotate(-38.12)"/><ellipse class="cls-4" cx="152.1" cy="168.31" rx="0.09" ry="0.1" transform="translate(-71.46 129.77) rotate(-38.12)"/><ellipse class="cls-4" cx="154.52" cy="178.11" rx="0.09" ry="0.1" transform="translate(-76.99 133.36) rotate(-38.12)"/><ellipse class="cls-4" cx="153.39" cy="168.47" rx="0.09" ry="0.1" transform="translate(-71.28 130.6) rotate(-38.12)"/><ellipse class="cls-4" cx="157.94" cy="174.26" rx="0.09" ry="0.1" transform="translate(-73.89 134.65) rotate(-38.12)"/><ellipse class="cls-4" cx="151.68" cy="174.49" rx="0.09" ry="0.1" transform="translate(-75.36 130.83) rotate(-38.12)"/><ellipse class="cls-4" cx="155.64" cy="174.31" rx="0.09" ry="0.1" transform="translate(-74.41 133.24) rotate(-38.12)"/><circle class="cls-4" cx="156.39" cy="168.36" r="0.52"/><ellipse class="cls-4" cx="142.91" cy="166.16" rx="0.09" ry="0.1" transform="translate(-72.09 123.64) rotate(-38.12)"/><ellipse class="cls-4" cx="145.98" cy="167.84" rx="0.09" ry="0.1" transform="translate(-72.47 125.9) rotate(-38.12)"/><ellipse class="cls-4" cx="146.45" cy="163.96" rx="0.09" ry="0.1" transform="translate(-69.98 125.36) rotate(-38.12)"/><ellipse class="cls-4" cx="148.88" cy="173.77" rx="0.09" ry="0.1" transform="translate(-75.51 128.95) rotate(-38.12)"/><ellipse class="cls-4" cx="146.03" cy="170.14" rx="0.09" ry="0.1" transform="translate(-73.88 126.42) rotate(-38.12)"/><ellipse class="cls-4" cx="149.99" cy="169.97" rx="0.09" ry="0.1" transform="translate(-72.93 128.82) rotate(-38.12)"/><ellipse class="cls-4" cx="148.99" cy="153.78" rx="0.09" ry="0.1" transform="translate(-63.15 124.76) rotate(-38.12)"/><ellipse class="cls-4" cx="152.07" cy="155.46" rx="0.09" ry="0.1" transform="translate(-63.53 127.01) rotate(-38.12)"/><ellipse class="cls-4" cx="152.54" cy="151.58" rx="0.09" ry="0.1" transform="matrix(0.79, -0.62, 0.62, 0.79, -61.04, 126.48)"/><ellipse class="cls-4" cx="154.96" cy="161.38" rx="0.09" ry="0.1" transform="translate(-66.57 130.06) rotate(-38.12)"/><ellipse class="cls-4" cx="152.12" cy="157.76" rx="0.09" ry="0.1" transform="translate(-64.94 127.54) rotate(-38.12)"/><ellipse class="cls-4" cx="156.08" cy="157.58" rx="0.09" ry="0.1" transform="translate(-63.99 129.94) rotate(-38.12)"/><circle class="cls-4" cx="168.56" cy="82.11" r="1.15"/><circle class="cls-4" cx="98.11" cy="91.03" r="0.52"/><circle class="cls-4" cx="118.95" cy="84.04" r="0.52"/><circle class="cls-4" cx="132.47" cy="129.61" r="0.52"/><circle class="cls-4" cx="110.17" cy="107.9" r="0.52"/><circle class="cls-4" cx="109.38" cy="92.72" r="0.52"/><circle class="cls-4" cx="121.93" cy="72.92" r="0.52"/><circle class="cls-4" cx="139.04" cy="118.6" r="0.52"/><circle class="cls-4" cx="137.97" cy="94.86" r="0.52"/><circle class="cls-4" cx="112.71" cy="127.55" r="0.52"/><ellipse class="cls-4" cx="120.49" cy="94.24" rx="0.09" ry="0.1" transform="translate(-32.48 94.47) rotate(-38.12)"/><ellipse class="cls-4" cx="127.95" cy="103.01" rx="0.09" ry="0.1" transform="translate(-36.3 100.94) rotate(-38.12)"/><ellipse class="cls-4" cx="125.68" cy="100.12" rx="0.09" ry="0.1" transform="translate(-35 98.92) rotate(-38.12)"/><ellipse class="cls-4" cx="126.27" cy="106.09" rx="0.09" ry="0.1" transform="translate(-38.56 100.56) rotate(-38.12)"/><ellipse class="cls-4" cx="131.03" cy="104.7" rx="0.09" ry="0.1" transform="translate(-36.68 103.2) rotate(-38.12)"/><ellipse class="cls-4" cx="131.5" cy="100.82" rx="0.09" ry="0.1" transform="translate(-34.19 102.66) rotate(-38.12)"/><ellipse class="cls-4" cx="123.4" cy="97.22" rx="0.09" ry="0.1" transform="translate(-33.69 96.9) rotate(-38.12)"/><ellipse class="cls-4" cx="122.88" cy="106.99" rx="0.09" ry="0.1" transform="translate(-39.84 98.66) rotate(-38.12)"/><ellipse class="cls-4" cx="133.92" cy="110.62" rx="0.09" ry="0.1" transform="translate(-39.72 106.25) rotate(-38.12)"/><ellipse class="cls-4" cx="132.79" cy="100.97" rx="0.09" ry="0.1" transform="translate(-34.01 103.49) rotate(-38.12)"/><ellipse class="cls-4" cx="133.5" cy="86.96" rx="0.09" ry="0.1" transform="translate(-25.21 100.94) rotate(-38.12)"/><ellipse class="cls-4" cx="137.33" cy="106.77" rx="0.09" ry="0.1" transform="translate(-36.62 107.54) rotate(-38.12)"/><ellipse class="cls-4" cx="131.08" cy="107" rx="0.09" ry="0.1" transform="matrix(0.79, -0.62, 0.62, 0.79, -38.09, 103.72)"/><ellipse class="cls-4" cx="144.38" cy="91.88" rx="0.09" ry="0.1" transform="translate(-25.93 108.71) rotate(-38.12)"/><ellipse class="cls-4" cx="141.43" cy="91.85" rx="0.09" ry="0.1" transform="translate(-26.54 106.88) rotate(-38.12)"/><ellipse class="cls-4" cx="142.98" cy="95.32" rx="0.09" ry="0.1" transform="translate(-28.35 108.58) rotate(-38.12)"/><ellipse class="cls-4" cx="135.03" cy="106.82" rx="0.09" ry="0.1" transform="matrix(0.79, -0.62, 0.62, 0.79, -37.14, 106.13)"/><ellipse class="cls-4" cx="134.09" cy="92.93" rx="0.09" ry="0.1" transform="translate(-28.77 102.58) rotate(-38.12)"/><ellipse class="cls-4" cx="118.17" cy="110.69" rx="0.09" ry="0.1" transform="translate(-43.12 96.54) rotate(-38.12)"/><ellipse class="cls-4" cx="113.48" cy="97.99" rx="0.09" ry="0.1" transform="translate(-36.29 90.94) rotate(-38.12)"/><ellipse class="cls-4" cx="116.25" cy="115.7" rx="0.09" ry="0.1" transform="translate(-46.63 96.43) rotate(-38.12)"/><ellipse class="cls-4" cx="121.82" cy="104.9" rx="0.09" ry="0.1" transform="translate(-38.77 97.56) rotate(-38.12)"/><circle class="cls-4" cx="128.46" cy="97.64" r="0.52"/><circle class="cls-4" cx="129.35" cy="109.23" r="0.52"/><circle class="cls-4" cx="142.69" cy="103.58" r="1.15"/><circle class="cls-4" cx="122.43" cy="116.54" r="1.15"/><circle class="cls-4" cx="127.81" cy="88.33" r="1.15"/><circle class="cls-4" cx="132.59" cy="80.38" r="0.52"/><circle class="cls-4" cx="154.36" cy="83.5" r="0.52"/><circle class="cls-4" cx="146.07" cy="123.74" r="0.52"/><circle class="cls-4" cx="135.78" cy="100.87" r="0.52"/><circle class="cls-4" cx="141.9" cy="86.95" r="0.52"/><circle class="cls-4" cx="162.02" cy="74.91" r="0.52"/><circle class="cls-4" cx="156.76" cy="123.41" r="0.52"/><circle class="cls-4" cx="166.48" cy="101.72" r="0.52"/><circle class="cls-4" cx="129.22" cy="119.57" r="0.52"/><circle class="cls-4" cx="148.42" cy="100.67" r="0.52"/><circle class="cls-4" cx="166.78" cy="111.63" r="1.15"/><circle class="cls-4" cx="142.85" cy="114.1" r="1.15"/><circle class="cls-4" cx="160.33" cy="91.32" r="1.15"/><circle class="cls-4" cx="138.21" cy="88.69" r="0.52"/><circle class="cls-4" cx="144.79" cy="77.68" r="0.52"/><circle class="cls-4" cx="151.68" cy="89.37" r="0.52"/><circle class="cls-4" cx="162.51" cy="82.49" r="0.52"/><circle class="cls-4" cx="134.96" cy="78.65" r="0.52"/><circle class="cls-4" cx="148.6" cy="73.18" r="1.15"/><ellipse class="cls-4" cx="95.77" cy="114.46" rx="0.09" ry="0.1" transform="translate(-50.23 83.52) rotate(-38.12)"/><ellipse class="cls-4" cx="147.45" cy="108.34" rx="0.09" ry="0.1" transform="translate(-35.43 114.11) rotate(-38.12)"/><ellipse class="cls-4" cx="147.92" cy="104.46" rx="0.09" ry="0.1" transform="translate(-32.94 113.58) rotate(-38.12)"/><ellipse class="cls-4" cx="149.21" cy="104.61" rx="0.09" ry="0.1" transform="translate(-32.76 114.41) rotate(-38.12)"/><ellipse class="cls-4" cx="153.76" cy="110.41" rx="0.09" ry="0.1" transform="translate(-35.36 118.45) rotate(-38.12)"/><ellipse class="cls-4" cx="151.45" cy="110.46" rx="0.09" ry="0.1" transform="matrix(0.79, -0.62, 0.62, 0.79, -35.89, 117.04)"/><ellipse class="cls-4" cx="155.7" cy="102.45" rx="0.09" ry="0.1" transform="translate(-30.03 117.95) rotate(-38.12)"/><ellipse class="cls-4" cx="156.17" cy="98.57" rx="0.09" ry="0.1" transform="translate(-27.54 117.41) rotate(-38.12)"/><ellipse class="cls-4" cx="157.46" cy="98.72" rx="0.09" ry="0.1" transform="translate(-27.36 118.24) rotate(-38.12)"/><ellipse class="cls-4" cx="162.01" cy="104.52" rx="0.09" ry="0.1" transform="translate(-29.97 122.29) rotate(-38.12)"/><ellipse class="cls-4" cx="159.71" cy="104.57" rx="0.09" ry="0.1" transform="translate(-30.49 120.88) rotate(-38.12)"/><ellipse class="cls-4" cx="147.22" cy="108.22" rx="0.09" ry="0.1" transform="translate(-35.41 113.95) rotate(-38.12)"/><ellipse class="cls-4" cx="150.29" cy="109.91" rx="0.09" ry="0.1" transform="translate(-35.79 116.2) rotate(-38.12)"/><ellipse class="cls-4" cx="150.76" cy="106.03" rx="0.09" ry="0.1" transform="translate(-33.3 115.67) rotate(-38.12)"/><ellipse class="cls-4" cx="153.19" cy="115.83" rx="0.09" ry="0.1" transform="translate(-38.83 119.25) rotate(-38.12)"/><ellipse class="cls-4" cx="152.05" cy="106.18" rx="0.09" ry="0.1" transform="translate(-33.12 116.5) rotate(-38.12)"/><ellipse class="cls-4" cx="156.6" cy="111.98" rx="0.09" ry="0.1" transform="translate(-35.73 120.54) rotate(-38.12)"/><ellipse class="cls-4" cx="150.34" cy="112.21" rx="0.09" ry="0.1" transform="translate(-37.2 116.73) rotate(-38.12)"/><ellipse class="cls-4" cx="154.3" cy="112.03" rx="0.09" ry="0.1" transform="translate(-36.25 119.13) rotate(-38.12)"/><circle class="cls-4" cx="148.62" cy="114.44" r="0.52"/><circle class="cls-4" cx="155.05" cy="106.08" r="0.52"/><ellipse class="cls-4" cx="135.55" cy="122.51" rx="0.09" ry="0.1" transform="translate(-46.71 109.79) rotate(-38.12)"/><ellipse class="cls-4" cx="138.63" cy="124.19" rx="0.09" ry="0.1" transform="translate(-47.1 112.05) rotate(-38.12)"/><ellipse class="cls-4" cx="139.1" cy="120.31" rx="0.09" ry="0.1" transform="translate(-44.6 111.51) rotate(-38.12)"/><ellipse class="cls-4" cx="141.52" cy="130.11" rx="0.09" ry="0.1" transform="translate(-50.14 115.1) rotate(-38.12)"/><ellipse class="cls-4" cx="140.39" cy="120.47" rx="0.09" ry="0.1" transform="translate(-44.42 112.34) rotate(-38.12)"/><ellipse class="cls-4" cx="144.94" cy="126.26" rx="0.09" ry="0.1" transform="translate(-47.03 116.39) rotate(-38.12)"/><ellipse class="cls-4" cx="138.68" cy="126.49" rx="0.09" ry="0.1" transform="translate(-48.51 112.57) rotate(-38.12)"/><ellipse class="cls-4" cx="142.64" cy="126.31" rx="0.09" ry="0.1" transform="translate(-47.55 114.98) rotate(-38.12)"/><circle class="cls-4" cx="143.39" cy="120.36" r="0.52"/><ellipse class="cls-4" cx="129.91" cy="118.16" rx="0.09" ry="0.1" transform="translate(-45.23 105.38) rotate(-38.12)"/><ellipse class="cls-4" cx="132.98" cy="119.84" rx="0.09" ry="0.1" transform="translate(-45.62 107.64) rotate(-38.12)"/><ellipse class="cls-4" cx="133.45" cy="115.96" rx="0.09" ry="0.1" transform="translate(-43.12 107.1) rotate(-38.12)"/><ellipse class="cls-4" cx="135.88" cy="125.77" rx="0.09" ry="0.1" transform="translate(-48.66 110.69) rotate(-38.12)"/><ellipse class="cls-4" cx="133.03" cy="122.14" rx="0.09" ry="0.1" transform="translate(-47.03 108.16) rotate(-38.12)"/><ellipse class="cls-4" cx="136.99" cy="121.97" rx="0.09" ry="0.1" transform="translate(-46.07 110.56) rotate(-38.12)"/><ellipse class="cls-4" cx="135.99" cy="105.78" rx="0.09" ry="0.1" transform="translate(-36.29 106.5) rotate(-38.12)"/><ellipse class="cls-4" cx="139.07" cy="107.46" rx="0.09" ry="0.1" transform="translate(-36.68 108.76) rotate(-38.12)"/><ellipse class="cls-4" cx="139.54" cy="103.58" rx="0.09" ry="0.1" transform="matrix(0.79, -0.62, 0.62, 0.79, -34.18, 108.22)"/><ellipse class="cls-4" cx="141.96" cy="113.38" rx="0.09" ry="0.1" transform="translate(-39.72 111.8) rotate(-38.12)"/><ellipse class="cls-4" cx="139.12" cy="109.76" rx="0.09" ry="0.1" transform="translate(-38.09 109.28) rotate(-38.12)"/><ellipse class="cls-4" cx="143.08" cy="109.58" rx="0.09" ry="0.1" transform="translate(-37.13 111.68) rotate(-38.12)"/><circle class="cls-4" cx="189.56" cy="180.11" r="1.15"/><circle class="cls-4" cx="119.11" cy="189.03" r="0.52"/><circle class="cls-4" cx="139.95" cy="182.04" r="0.52"/><circle class="cls-4" cx="153.47" cy="227.61" r="0.52"/><circle class="cls-4" cx="131.17" cy="205.9" r="0.52"/><circle class="cls-4" cx="130.38" cy="190.72" r="0.52"/><circle class="cls-4" cx="142.93" cy="170.92" r="0.52"/><circle class="cls-4" cx="160.04" cy="216.6" r="0.52"/><circle class="cls-4" cx="158.97" cy="192.86" r="0.52"/><circle class="cls-4" cx="133.71" cy="225.55" r="0.52"/><ellipse class="cls-4" cx="141.49" cy="192.24" rx="0.09" ry="0.1" transform="translate(-88.49 128.32) rotate(-38.12)"/><ellipse class="cls-4" cx="148.95" cy="201.01" rx="0.09" ry="0.1" transform="translate(-92.31 134.8) rotate(-38.12)"/><ellipse class="cls-4" cx="146.68" cy="198.12" rx="0.09" ry="0.1" transform="translate(-91.01 132.78) rotate(-38.12)"/><ellipse class="cls-4" cx="147.27" cy="204.09" rx="0.09" ry="0.1" transform="translate(-94.57 134.42) rotate(-38.12)"/><ellipse class="cls-4" cx="152.03" cy="202.7" rx="0.09" ry="0.1" transform="translate(-92.7 137.06) rotate(-38.12)"/><ellipse class="cls-4" cx="152.5" cy="198.82" rx="0.09" ry="0.1" transform="translate(-90.2 136.52) rotate(-38.12)"/><ellipse class="cls-4" cx="144.4" cy="195.22" rx="0.09" ry="0.1" transform="translate(-89.71 130.76) rotate(-38.12)"/><ellipse class="cls-4" cx="143.88" cy="204.99" rx="0.09" ry="0.1" transform="translate(-95.85 132.52) rotate(-38.12)"/><ellipse class="cls-4" cx="154.92" cy="208.62" rx="0.09" ry="0.1" transform="translate(-95.74 140.11) rotate(-38.12)"/><ellipse class="cls-4" cx="153.79" cy="198.97" rx="0.09" ry="0.1" transform="translate(-90.02 137.35) rotate(-38.12)"/><ellipse class="cls-4" cx="154.5" cy="184.96" rx="0.09" ry="0.1" transform="translate(-81.22 134.8) rotate(-38.12)"/><ellipse class="cls-4" cx="158.33" cy="204.77" rx="0.09" ry="0.1" transform="translate(-92.63 141.4) rotate(-38.12)"/><ellipse class="cls-4" cx="152.08" cy="205" rx="0.09" ry="0.1" transform="matrix(0.79, -0.62, 0.62, 0.79, -94.11, 137.58)"/><ellipse class="cls-4" cx="165.38" cy="189.88" rx="0.09" ry="0.1" transform="translate(-81.94 142.57) rotate(-38.12)"/><ellipse class="cls-4" cx="162.43" cy="189.85" rx="0.09" ry="0.1" transform="translate(-82.55 140.74) rotate(-38.12)"/><ellipse class="cls-4" cx="163.98" cy="193.32" rx="0.09" ry="0.1" transform="translate(-84.36 142.44) rotate(-38.12)"/><ellipse class="cls-4" cx="156.03" cy="204.82" rx="0.09" ry="0.1" transform="matrix(0.79, -0.62, 0.62, 0.79, -93.15, 139.99)"/><ellipse class="cls-4" cx="155.09" cy="190.93" rx="0.09" ry="0.1" transform="translate(-84.78 136.44) rotate(-38.12)"/><ellipse class="cls-4" cx="139.17" cy="208.69" rx="0.09" ry="0.1" transform="translate(-99.14 130.4) rotate(-38.12)"/><ellipse class="cls-4" cx="134.48" cy="195.99" rx="0.09" ry="0.1" transform="translate(-92.3 124.8) rotate(-38.12)"/><ellipse class="cls-4" cx="137.25" cy="213.7" rx="0.09" ry="0.1" transform="translate(-102.64 130.29) rotate(-38.12)"/><ellipse class="cls-4" cx="142.82" cy="202.9" rx="0.09" ry="0.1" transform="translate(-94.78 131.42) rotate(-38.12)"/><circle class="cls-4" cx="149.46" cy="195.64" r="0.52"/><circle class="cls-4" cx="150.35" cy="207.23" r="0.52"/><circle class="cls-4" cx="163.69" cy="201.58" r="1.15"/><circle class="cls-4" cx="143.43" cy="214.54" r="1.15"/><circle class="cls-4" cx="148.81" cy="186.33" r="1.15"/><circle class="cls-4" cx="153.59" cy="178.38" r="0.52"/><circle class="cls-4" cx="175.36" cy="181.5" r="0.52"/><circle class="cls-4" cx="167.07" cy="221.74" r="0.52"/><circle class="cls-4" cx="156.78" cy="198.87" r="0.52"/><circle class="cls-4" cx="162.9" cy="184.95" r="0.52"/><circle class="cls-4" cx="183.02" cy="172.91" r="0.52"/><circle class="cls-4" cx="177.76" cy="221.41" r="0.52"/><circle class="cls-4" cx="187.48" cy="199.72" r="0.52"/><circle class="cls-4" cx="150.22" cy="217.57" r="0.52"/><circle class="cls-4" cx="169.42" cy="198.67" r="0.52"/><circle class="cls-4" cx="187.78" cy="209.63" r="1.15"/><circle class="cls-4" cx="163.85" cy="212.1" r="1.15"/><circle class="cls-4" cx="181.33" cy="189.32" r="1.15"/><circle class="cls-4" cx="159.21" cy="186.69" r="0.52"/><circle class="cls-4" cx="165.79" cy="175.68" r="0.52"/><circle class="cls-4" cx="172.68" cy="187.37" r="0.52"/><circle class="cls-4" cx="183.51" cy="180.49" r="0.52"/><circle class="cls-4" cx="155.96" cy="176.65" r="0.52"/><circle class="cls-4" cx="169.6" cy="171.18" r="1.15"/><ellipse class="cls-4" cx="116.77" cy="212.46" rx="0.09" ry="0.1" transform="translate(-106.24 117.38) rotate(-38.12)"/><ellipse class="cls-4" cx="168.45" cy="206.34" rx="0.09" ry="0.1" transform="translate(-91.44 147.97) rotate(-38.12)"/><ellipse class="cls-4" cx="168.92" cy="202.46" rx="0.09" ry="0.1" transform="translate(-88.95 147.43) rotate(-38.12)"/><ellipse class="cls-4" cx="170.21" cy="202.61" rx="0.09" ry="0.1" transform="translate(-88.77 148.27) rotate(-38.12)"/><ellipse class="cls-4" cx="174.76" cy="208.41" rx="0.09" ry="0.1" transform="translate(-91.38 152.31) rotate(-38.12)"/><ellipse class="cls-4" cx="172.45" cy="208.46" rx="0.09" ry="0.1" transform="matrix(0.79, -0.62, 0.62, 0.79, -91.9, 150.9)"/><ellipse class="cls-4" cx="176.7" cy="200.45" rx="0.09" ry="0.1" transform="translate(-86.05 151.81) rotate(-38.12)"/><ellipse class="cls-4" cx="177.17" cy="196.57" rx="0.09" ry="0.1" transform="translate(-83.55 151.27) rotate(-38.12)"/><ellipse class="cls-4" cx="178.46" cy="196.72" rx="0.09" ry="0.1" transform="translate(-83.37 152.1) rotate(-38.12)"/><ellipse class="cls-4" cx="183.01" cy="202.52" rx="0.09" ry="0.1" transform="translate(-85.98 156.15) rotate(-38.12)"/><ellipse class="cls-4" cx="180.71" cy="202.57" rx="0.09" ry="0.1" transform="translate(-86.5 154.74) rotate(-38.12)"/><ellipse class="cls-4" cx="168.22" cy="206.22" rx="0.09" ry="0.1" transform="translate(-91.42 147.81) rotate(-38.12)"/><ellipse class="cls-4" cx="171.29" cy="207.91" rx="0.09" ry="0.1" transform="translate(-91.81 150.06) rotate(-38.12)"/><ellipse class="cls-4" cx="171.76" cy="204.03" rx="0.09" ry="0.1" transform="translate(-89.31 149.53) rotate(-38.12)"/><ellipse class="cls-4" cx="174.19" cy="213.83" rx="0.09" ry="0.1" transform="translate(-94.84 153.11) rotate(-38.12)"/><ellipse class="cls-4" cx="173.05" cy="204.18" rx="0.09" ry="0.1" transform="translate(-89.13 150.36) rotate(-38.12)"/><ellipse class="cls-4" cx="177.6" cy="209.98" rx="0.09" ry="0.1" transform="translate(-91.74 154.4) rotate(-38.12)"/><ellipse class="cls-4" cx="171.34" cy="210.21" rx="0.09" ry="0.1" transform="translate(-93.21 150.59) rotate(-38.12)"/><ellipse class="cls-4" cx="175.3" cy="210.03" rx="0.09" ry="0.1" transform="translate(-92.26 152.99) rotate(-38.12)"/><circle class="cls-4" cx="169.62" cy="212.44" r="0.52"/><circle class="cls-4" cx="176.05" cy="204.08" r="0.52"/><ellipse class="cls-4" cx="156.55" cy="220.51" rx="0.09" ry="0.1" transform="translate(-102.73 143.65) rotate(-38.12)"/><ellipse class="cls-4" cx="159.63" cy="222.19" rx="0.09" ry="0.1" transform="translate(-103.11 145.91) rotate(-38.12)"/><ellipse class="cls-4" cx="160.1" cy="218.31" rx="0.09" ry="0.1" transform="translate(-100.61 145.37) rotate(-38.12)"/><ellipse class="cls-4" cx="162.52" cy="228.11" rx="0.09" ry="0.1" transform="translate(-106.15 148.96) rotate(-38.12)"/><ellipse class="cls-4" cx="161.39" cy="218.47" rx="0.09" ry="0.1" transform="translate(-100.44 146.2) rotate(-38.12)"/><ellipse class="cls-4" cx="165.94" cy="224.26" rx="0.09" ry="0.1" transform="translate(-103.04 150.25) rotate(-38.12)"/><ellipse class="cls-4" cx="159.68" cy="224.49" rx="0.09" ry="0.1" transform="translate(-104.52 146.43) rotate(-38.12)"/><ellipse class="cls-4" cx="163.64" cy="224.31" rx="0.09" ry="0.1" transform="translate(-103.56 148.84) rotate(-38.12)"/><circle class="cls-4" cx="164.39" cy="218.36" r="0.52"/><ellipse class="cls-4" cx="150.91" cy="216.16" rx="0.09" ry="0.1" transform="translate(-101.25 139.24) rotate(-38.12)"/><ellipse class="cls-4" cx="153.98" cy="217.84" rx="0.09" ry="0.1" transform="translate(-101.63 141.5) rotate(-38.12)"/><ellipse class="cls-4" cx="154.45" cy="213.96" rx="0.09" ry="0.1" transform="translate(-99.14 140.96) rotate(-38.12)"/><ellipse class="cls-4" cx="156.88" cy="223.77" rx="0.09" ry="0.1" transform="translate(-104.67 144.55) rotate(-38.12)"/><ellipse class="cls-4" cx="154.03" cy="220.14" rx="0.09" ry="0.1" transform="translate(-103.04 142.02) rotate(-38.12)"/><ellipse class="cls-4" cx="157.99" cy="219.97" rx="0.09" ry="0.1" transform="translate(-102.09 144.42) rotate(-38.12)"/><ellipse class="cls-4" cx="156.99" cy="203.78" rx="0.09" ry="0.1" transform="translate(-92.31 140.36) rotate(-38.12)"/><ellipse class="cls-4" cx="160.07" cy="205.46" rx="0.09" ry="0.1" transform="translate(-92.69 142.61) rotate(-38.12)"/><ellipse class="cls-4" cx="160.54" cy="201.58" rx="0.09" ry="0.1" transform="matrix(0.79, -0.62, 0.62, 0.79, -90.2, 142.08)"/><ellipse class="cls-4" cx="162.96" cy="211.38" rx="0.09" ry="0.1" transform="translate(-95.73 145.66) rotate(-38.12)"/><ellipse class="cls-4" cx="160.12" cy="207.76" rx="0.09" ry="0.1" transform="translate(-94.1 143.14) rotate(-38.12)"/><ellipse class="cls-4" cx="164.08" cy="207.58" rx="0.09" ry="0.1" transform="translate(-93.15 145.54) rotate(-38.12)"/><circle class="cls-4" cx="252.56" cy="158.11" r="1.15"/><circle class="cls-4" cx="182.11" cy="167.03" r="0.52"/><circle class="cls-4" cx="202.95" cy="160.04" r="0.52"/><circle class="cls-4" cx="216.47" cy="205.61" r="0.52"/><circle class="cls-4" cx="194.17" cy="183.9" r="0.52"/><circle class="cls-4" cx="193.38" cy="168.72" r="0.52"/><circle class="cls-4" cx="205.93" cy="148.92" r="0.52"/><circle class="cls-4" cx="223.04" cy="194.6" r="0.52"/><circle class="cls-4" cx="221.97" cy="170.86" r="0.52"/><circle class="cls-4" cx="196.71" cy="203.55" r="0.52"/><ellipse class="cls-4" cx="204.49" cy="170.24" rx="0.09" ry="0.1" transform="translate(-61.48 162.52) rotate(-38.12)"/><ellipse class="cls-4" cx="211.95" cy="179.01" rx="0.09" ry="0.1" transform="translate(-65.3 169) rotate(-38.12)"/><ellipse class="cls-4" cx="209.68" cy="176.12" rx="0.09" ry="0.1" transform="translate(-64 166.98) rotate(-38.12)"/><ellipse class="cls-4" cx="210.27" cy="182.09" rx="0.09" ry="0.1" transform="translate(-67.56 168.62) rotate(-38.12)"/><ellipse class="cls-4" cx="215.03" cy="180.7" rx="0.09" ry="0.1" transform="translate(-65.68 171.26) rotate(-38.12)"/><ellipse class="cls-4" cx="215.5" cy="176.82" rx="0.09" ry="0.1" transform="translate(-63.19 170.72) rotate(-38.12)"/><ellipse class="cls-4" cx="207.4" cy="173.22" rx="0.09" ry="0.1" transform="translate(-62.69 164.96) rotate(-38.12)"/><ellipse class="cls-4" cx="206.88" cy="182.99" rx="0.09" ry="0.1" transform="translate(-68.84 166.72) rotate(-38.12)"/><ellipse class="cls-4" cx="217.92" cy="186.62" rx="0.09" ry="0.1" transform="translate(-68.72 174.3) rotate(-38.12)"/><ellipse class="cls-4" cx="216.79" cy="176.97" rx="0.09" ry="0.1" transform="translate(-63.01 171.55) rotate(-38.12)"/><ellipse class="cls-4" cx="217.5" cy="162.96" rx="0.09" ry="0.1" transform="translate(-54.21 169) rotate(-38.12)"/><ellipse class="cls-4" cx="221.33" cy="182.77" rx="0.09" ry="0.1" transform="translate(-65.62 175.59) rotate(-38.12)"/><ellipse class="cls-4" cx="215.08" cy="183" rx="0.09" ry="0.1" transform="matrix(0.79, -0.62, 0.62, 0.79, -67.09, 171.78)"/><ellipse class="cls-4" cx="228.38" cy="167.88" rx="0.09" ry="0.1" transform="translate(-54.93 176.76) rotate(-38.12)"/><ellipse class="cls-4" cx="225.43" cy="167.85" rx="0.09" ry="0.1" transform="translate(-55.54 174.94) rotate(-38.12)"/><ellipse class="cls-4" cx="226.98" cy="171.32" rx="0.09" ry="0.1" transform="translate(-57.35 176.63) rotate(-38.12)"/><ellipse class="cls-4" cx="219.03" cy="182.82" rx="0.09" ry="0.1" transform="matrix(0.79, -0.62, 0.62, 0.79, -66.14, 174.18)"/><ellipse class="cls-4" cx="218.09" cy="168.93" rx="0.09" ry="0.1" transform="translate(-57.77 170.64) rotate(-38.12)"/><ellipse class="cls-4" cx="202.17" cy="186.69" rx="0.09" ry="0.1" transform="translate(-72.12 164.6) rotate(-38.12)"/><ellipse class="cls-4" cx="197.48" cy="173.99" rx="0.09" ry="0.1" transform="translate(-65.29 158.99) rotate(-38.12)"/><ellipse class="cls-4" cx="200.25" cy="191.7" rx="0.09" ry="0.1" transform="translate(-75.63 164.48) rotate(-38.12)"/><ellipse class="cls-4" cx="205.82" cy="180.9" rx="0.09" ry="0.1" transform="translate(-67.77 165.62) rotate(-38.12)"/><circle class="cls-4" cx="212.46" cy="173.64" r="0.52"/><circle class="cls-4" cx="213.35" cy="185.23" r="0.52"/><circle class="cls-4" cx="226.69" cy="179.58" r="1.15"/><circle class="cls-4" cx="206.43" cy="192.54" r="1.15"/><circle class="cls-4" cx="211.81" cy="164.33" r="1.15"/><circle class="cls-4" cx="216.59" cy="156.38" r="0.52"/><circle class="cls-4" cx="238.36" cy="159.5" r="0.52"/><circle class="cls-4" cx="230.07" cy="199.74" r="0.52"/><circle class="cls-4" cx="219.78" cy="176.87" r="0.52"/><circle class="cls-4" cx="225.9" cy="162.95" r="0.52"/><circle class="cls-4" cx="246.02" cy="150.91" r="0.52"/><circle class="cls-4" cx="240.76" cy="199.41" r="0.52"/><circle class="cls-4" cx="250.48" cy="177.72" r="0.52"/><circle class="cls-4" cx="213.22" cy="195.57" r="0.52"/><circle class="cls-4" cx="232.42" cy="176.67" r="0.52"/><circle class="cls-4" cx="250.78" cy="187.63" r="1.15"/><circle class="cls-4" cx="226.85" cy="190.1" r="1.15"/><circle class="cls-4" cx="244.33" cy="167.32" r="1.15"/><circle class="cls-4" cx="222.21" cy="164.69" r="0.52"/><circle class="cls-4" cx="228.79" cy="153.68" r="0.52"/><circle class="cls-4" cx="235.68" cy="165.37" r="0.52"/><circle class="cls-4" cx="246.51" cy="158.49" r="0.52"/><circle class="cls-4" cx="218.96" cy="154.65" r="0.52"/><circle class="cls-4" cx="232.6" cy="149.18" r="1.15"/><ellipse class="cls-4" cx="179.77" cy="190.46" rx="0.09" ry="0.1" transform="translate(-79.23 151.58) rotate(-38.12)"/><ellipse class="cls-4" cx="231.45" cy="184.34" rx="0.09" ry="0.1" transform="translate(-64.43 182.17) rotate(-38.12)"/><ellipse class="cls-4" cx="231.92" cy="180.46" rx="0.09" ry="0.1" transform="translate(-61.94 181.63) rotate(-38.12)"/><ellipse class="cls-4" cx="233.21" cy="180.61" rx="0.09" ry="0.1" transform="translate(-61.76 182.46) rotate(-38.12)"/><ellipse class="cls-4" cx="237.76" cy="186.41" rx="0.09" ry="0.1" transform="translate(-64.36 186.5) rotate(-38.12)"/><ellipse class="cls-4" cx="235.45" cy="186.46" rx="0.09" ry="0.1" transform="matrix(0.79, -0.62, 0.62, 0.79, -64.89, 185.09)"/><ellipse class="cls-4" cx="239.7" cy="178.45" rx="0.09" ry="0.1" transform="translate(-59.03 186.01) rotate(-38.12)"/><ellipse class="cls-4" cx="240.17" cy="174.57" rx="0.09" ry="0.1" transform="translate(-56.54 185.47) rotate(-38.12)"/><ellipse class="cls-4" cx="241.46" cy="174.72" rx="0.09" ry="0.1" transform="translate(-56.36 186.3) rotate(-38.12)"/><ellipse class="cls-4" cx="246.01" cy="180.52" rx="0.09" ry="0.1" transform="translate(-58.97 190.34) rotate(-38.12)"/><ellipse class="cls-4" cx="243.71" cy="180.57" rx="0.09" ry="0.1" transform="translate(-59.49 188.93) rotate(-38.12)"/><ellipse class="cls-4" cx="231.22" cy="184.22" rx="0.09" ry="0.1" transform="translate(-64.41 182) rotate(-38.12)"/><ellipse class="cls-4" cx="234.29" cy="185.91" rx="0.09" ry="0.1" transform="translate(-64.79 184.26) rotate(-38.12)"/><ellipse class="cls-4" cx="234.76" cy="182.03" rx="0.09" ry="0.1" transform="translate(-62.3 183.72) rotate(-38.12)"/><ellipse class="cls-4" cx="237.19" cy="191.83" rx="0.09" ry="0.1" transform="translate(-67.83 187.31) rotate(-38.12)"/><ellipse class="cls-4" cx="236.05" cy="182.18" rx="0.09" ry="0.1" transform="translate(-62.12 184.55) rotate(-38.12)"/><ellipse class="cls-4" cx="240.6" cy="187.98" rx="0.09" ry="0.1" transform="translate(-64.73 188.59) rotate(-38.12)"/><ellipse class="cls-4" cx="234.34" cy="188.21" rx="0.09" ry="0.1" transform="translate(-66.2 184.78) rotate(-38.12)"/><ellipse class="cls-4" cx="238.3" cy="188.03" rx="0.09" ry="0.1" transform="translate(-65.25 187.18) rotate(-38.12)"/><circle class="cls-4" cx="232.62" cy="190.44" r="0.52"/><circle class="cls-4" cx="239.05" cy="182.08" r="0.52"/><ellipse class="cls-4" cx="219.55" cy="198.51" rx="0.09" ry="0.1" transform="translate(-75.71 177.85) rotate(-38.12)"/><ellipse class="cls-4" cx="222.63" cy="200.19" rx="0.09" ry="0.1" transform="translate(-76.1 180.11) rotate(-38.12)"/><ellipse class="cls-4" cx="223.1" cy="196.31" rx="0.09" ry="0.1" transform="translate(-73.6 179.57) rotate(-38.12)"/><ellipse class="cls-4" cx="225.52" cy="206.11" rx="0.09" ry="0.1" transform="translate(-79.13 183.15) rotate(-38.12)"/><ellipse class="cls-4" cx="224.39" cy="196.47" rx="0.09" ry="0.1" transform="translate(-73.42 180.4) rotate(-38.12)"/><ellipse class="cls-4" cx="228.94" cy="202.26" rx="0.09" ry="0.1" transform="translate(-76.03 184.44) rotate(-38.12)"/><ellipse class="cls-4" cx="222.68" cy="202.49" rx="0.09" ry="0.1" transform="translate(-77.51 180.63) rotate(-38.12)"/><ellipse class="cls-4" cx="226.64" cy="202.31" rx="0.09" ry="0.1" transform="translate(-76.55 183.03) rotate(-38.12)"/><circle class="cls-4" cx="227.39" cy="196.36" r="0.52"/><ellipse class="cls-4" cx="213.91" cy="194.16" rx="0.09" ry="0.1" transform="translate(-74.23 173.44) rotate(-38.12)"/><ellipse class="cls-4" cx="216.98" cy="195.84" rx="0.09" ry="0.1" transform="translate(-74.62 175.69) rotate(-38.12)"/><ellipse class="cls-4" cx="217.45" cy="191.96" rx="0.09" ry="0.1" transform="translate(-72.12 175.16) rotate(-38.12)"/><ellipse class="cls-4" cx="219.88" cy="201.77" rx="0.09" ry="0.1" transform="translate(-77.66 178.74) rotate(-38.12)"/><ellipse class="cls-4" cx="217.03" cy="198.14" rx="0.09" ry="0.1" transform="translate(-76.03 176.22) rotate(-38.12)"/><ellipse class="cls-4" cx="220.99" cy="197.97" rx="0.09" ry="0.1" transform="translate(-75.07 178.62) rotate(-38.12)"/><ellipse class="cls-4" cx="219.99" cy="181.78" rx="0.09" ry="0.1" transform="translate(-65.29 174.55) rotate(-38.12)"/><ellipse class="cls-4" cx="223.07" cy="183.46" rx="0.09" ry="0.1" transform="translate(-65.68 176.81) rotate(-38.12)"/><ellipse class="cls-4" cx="223.54" cy="179.58" rx="0.09" ry="0.1" transform="matrix(0.79, -0.62, 0.62, 0.79, -63.18, 176.27)"/><ellipse class="cls-4" cx="225.96" cy="189.38" rx="0.09" ry="0.1" transform="translate(-68.72 179.86) rotate(-38.12)"/><ellipse class="cls-4" cx="223.12" cy="185.76" rx="0.09" ry="0.1" transform="translate(-67.09 177.33) rotate(-38.12)"/><ellipse class="cls-4" cx="227.08" cy="185.58" rx="0.09" ry="0.1" transform="translate(-66.13 179.74) rotate(-38.12)"/><path class="cls-5" d="M241.49,100.66,163.05,60.34l5.37-7.4,15.41-12.49,64.36,33.42-1.51,21.82Z"/><path class="cls-5" d="M293.65,96.13,210.28,124.9q-.83-4.5-1.63-9,.81-9.89,1.63-19.78l68.65-23.37,14.72,16.18Z"/><path class="cls-6" d="M301,93.46l-88.94,27.9-1.74-8.72,1.74-19.18,73.24-22.67L301,86.49Z"/><path class="cls-7" d="M301,86.49l-90.68,26.15V83l73.24-22.67Z"/><path class="cls-6" d="M291.73,85.94l-74.45,21.47V83.07l60.14-18.61Z"/><path class="cls-6" d="M243,100.09,160.92,56l5-7.34,14.94-12.15L248.27,73,248,95.21Z"/><path class="cls-7" d="M248,95.21l-82.07-46.6L187.15,27.9l67.39,36.56Q251.27,79.83,248,95.21Z"/><path class="cls-6" d="M241.94,88.21,174.55,50l17.42-17L247.3,63Q244.61,75.59,241.94,88.21Z"/></g></svg>