<svg xmlns="http://www.w3.org/2000/svg" xmlns:xlink="http://www.w3.org/1999/xlink" width="320" height="320" viewBox="0 0 320 320"><defs><style>.cls-1{fill:url(#radial-gradient);}.cls-2{fill:url(#radial-gradient-2);}.cls-3{fill:url(#radial-gradient-3);}.cls-4{fill:#a38078;}.cls-5{fill:url(#linear-gradient);}.cls-6{fill:url(#linear-gradient-2);}.cls-7{fill:#8e6862;}</style><radialGradient id="radial-gradient" cx="158.25" cy="166.03" r="147.88" gradientUnits="userSpaceOnUse"><stop offset="0" stop-color="#eaf8f3"/><stop offset="0.64" stop-color="#bce3d9"/><stop offset="1" stop-color="#e4f5f0"/></radialGradient><radialGradient id="radial-gradient-2" cx="-198.38" cy="-3262.07" r="115.82" gradientTransform="matrix(0.98, 0.52, -0.5, 0.94, -1271.4, 3318.38)" xlink:href="#radial-gradient"/><radialGradient id="radial-gradient-3" cx="174.96" cy="152.91" r="121.34" xlink:href="#radial-gradient"/><linearGradient id="linear-gradient" x1="256.69" y1="37.63" x2="268.87" y2="121.77" gradientUnits="userSpaceOnUse"><stop offset="0" stop-color="#b0ddd1"/><stop offset="0.19" stop-color="#9dcdc0"/><stop offset="0.49" stop-color="#85baab"/><stop offset="0.76" stop-color="#77ae9e"/><stop offset="1" stop-color="#72aa9a"/></linearGradient><linearGradient id="linear-gradient-2" x1="-2680.54" y1="1456.97" x2="-2668.46" y2="1540.41" gradientTransform="translate(898.86 -2933.72) rotate(-47.98)" xlink:href="#linear-gradient"/></defs><g id="Layer_2" data-name="Layer 2"><path class="cls-1" d="M308.31,161.39c.25,31.55-12.84,56.43-21.61,70a15.29,15.29,0,0,1-1.39,10c-1.13,2.08-2,2.29-7,7-5.65,5.33-5.93,6.37-8,7-1.51.46-5.19,1.08-11-3q-8.92,13.1-17.87,26.18a24.5,24.5,0,0,0-4.13,3.82c-2.43,2.85-2.81,4.66-4,6-1.63,1.84-5.23,3.32-14,1.32l-8.68,4.37a76.94,76.94,0,0,1-8.33,8.31c-5.62,4.82-9.37,8-14,9-9.88,2.07-19.14-7.09-21-9a44.2,44.2,0,0,1-9,0,46.21,46.21,0,0,1-20-7l-49-18c-6.69-4.48-12.18-7.78-16-10-5.55-3.21-9.53-5.26-12-10a17.8,17.8,0,0,1-1.92-6.78L50,239.23a62.28,62.28,0,0,1-9.7-7.84c-4.1-4.06-12.08-11.94-14-23-.77-4.44,0-5.94,1-15a198.86,198.86,0,0,0,1-27l-2-5a12,12,0,0,1-9,2,11.74,11.74,0,0,1-9-9c-.88-4.71,2.79-6,5-13,3.6-11.31-2.6-18.75,2-23,3.36-3.1,8.61-.92,10-4,1.06-2.33-1.75-4-2-8-.3-4.81,3.48-7.09,8-14,2.7-4.13,1.36-3.32,7-15,7.25-15,9.49-16.38,11-17s6.77-2.33,15.92,3.74c11-10.67,48.8-44.71,102.08-43.74C242.23,21.76,307.76,91.62,308.31,161.39Z"/><path class="cls-2" d="M271,213.44c-23,43.65-74.81,68.71-128.94,61.84a41.46,41.46,0,0,1-20.53-1.83c-8.66-3.18-13.76-8.7-17.6-12.71-21.79-22.83-23.64-19.08-32.82-31-6.29-8.14-18.13-26.34-21-57.1-3.81,5.3-8.32,8.22-11.42,7.14-2.73-1-3.54-4.73-4.68-10.4-.92-4.62-2.09-13.28.16-25.94a92.69,92.69,0,0,1,3-12c-2.85-6.64-2.14-10.62-1-13,2.16-4.66,6.13-3.78,9.62-9.61,2.58-4.31,3.07-9.23,3.43-12.9a47.72,47.72,0,0,0,.16-6.7,55.12,55.12,0,0,1,3.59-19.6,17.42,17.42,0,0,0,7.28-5.2c2.43-3,2.34-5.25,3.75-7.07,1.89-2.44,6.67-4.39,19.93-1.19,2.73-1.7,69.37-41.6,132.36-7.54C272,78.81,302,154.59,271,213.44Z"/><path class="cls-3" d="M275.25,221.73c-29.14,41-83.14,60.6-134.41,48.19A38.63,38.63,0,0,1,121.27,266c-7.88-4.05-12-10.06-15-14.45-17.49-24.94-19.87-21.41-26.88-34.17-4.81-8.74-13.4-28.05-11.3-58.93-4.51,4.87-9.34,7.31-12.17,5.92-2.49-1.23-2.68-5.06-2.89-10.82-.17-4.69.07-13.42,4.23-25.78A101.14,101.14,0,0,1,62,116.13c-1.71-6.89-.4-10.78,1-13,2.82-4.41,6.52-3.13,10.81-8.57,3.17-4,4.42-8.85,5.35-12.46a51.53,51.53,0,0,0,1.2-6.65A58.86,58.86,0,0,1,87,56.3a18.19,18.19,0,0,0,7.85-4.42c2.82-2.75,3.09-5,4.73-6.64,2.22-2.23,7.15-3.68,19.47.87,2.91-1.41,73.63-34.21,129.2,6.15C297.41,88,314.55,166.42,275.25,221.73Z"/><circle class="cls-4" cx="204.28" cy="106.24" r="0.5"/><circle class="cls-4" cx="192.1" cy="104.63" r="0.5"/><circle class="cls-4" cx="171.62" cy="114.58" r="0.5"/><circle class="cls-4" cx="209.97" cy="124.4" r="0.5"/><ellipse class="cls-4" cx="182.6" cy="120.3" rx="0.1" ry="0.08" transform="translate(-10.34 223.22) rotate(-61.45)"/><ellipse class="cls-4" cx="185.94" cy="120.62" rx="0.1" ry="0.08" transform="translate(-8.87 226.32) rotate(-61.45)"/><ellipse class="cls-4" cx="182.91" cy="116.96" rx="0.1" ry="0.08" transform="translate(-7.23 221.75) rotate(-61.45)"/><ellipse class="cls-4" cx="179.32" cy="118.02" rx="0.1" ry="0.08" transform="translate(-10.04 219.15) rotate(-61.45)"/><ellipse class="cls-4" cx="188.02" cy="123.26" rx="0.1" ry="0.08" transform="translate(-10.1 229.52) rotate(-61.45)"/><ellipse class="cls-4" cx="187.03" cy="112.17" rx="0.1" ry="0.08" transform="translate(-0.88 222.86) rotate(-61.45)"/><ellipse class="cls-4" cx="178.97" cy="116.82" rx="0.1" ry="0.08" transform="translate(-9.17 218.21) rotate(-61.45)"/><ellipse class="cls-4" cx="182.34" cy="110.62" rx="0.1" ry="0.08" transform="translate(-1.97 217.94) rotate(-61.45)"/><ellipse class="cls-4" cx="184.92" cy="116.04" rx="0.1" ry="0.08" transform="translate(-5.38 223.03) rotate(-61.45)"/><ellipse class="cls-4" cx="166.57" cy="110.08" rx="0.1" ry="0.08" transform="translate(-9.72 203.79) rotate(-61.45)"/><ellipse class="cls-4" cx="167.66" cy="112.68" rx="0.1" ry="0.08" transform="translate(-11.44 206.12) rotate(-61.45)"/><ellipse class="cls-4" cx="170.12" cy="110" rx="0.1" ry="0.08" transform="translate(-7.8 206.88) rotate(-61.45)"/><ellipse class="cls-4" cx="183.26" cy="112.63" rx="0.1" ry="0.08" transform="translate(-3.25 219.79) rotate(-61.45)"/><ellipse class="cls-4" cx="193.06" cy="126" rx="0.1" ry="0.08" transform="translate(-9.87 235.38) rotate(-61.45)"/><ellipse class="cls-4" cx="198.2" cy="125.78" rx="0.1" ry="0.08" transform="translate(-7 239.78) rotate(-61.45)"/><circle class="cls-4" cx="187.53" cy="116.71" r="0.5"/><circle class="cls-4" cx="155.41" cy="104.48" r="0.5"/><circle class="cls-4" cx="193.96" cy="96.49" r="0.5"/><circle class="cls-4" cx="177.74" cy="114.23" r="0.5"/><circle class="cls-4" cx="189.6" cy="87.21" r="0.5"/><circle class="cls-4" cx="166.84" cy="86.89" r="0.5"/><circle class="cls-4" cx="196.68" cy="112.9" r="0.5"/><circle class="cls-4" cx="172.76" cy="103.18" r="0.5"/><circle class="cls-4" cx="161.58" cy="104.6" r="0.5"/><circle class="cls-4" cx="151.42" cy="97.69" r="0.5"/><ellipse class="cls-4" cx="179.88" cy="101.13" rx="0.1" ry="0.08" transform="translate(5.09 210.82) rotate(-61.45)"/><ellipse class="cls-4" cx="176.29" cy="102.19" rx="0.1" ry="0.08" transform="translate(2.28 208.22) rotate(-61.45)"/><ellipse class="cls-4" cx="175.94" cy="100.99" rx="0.1" ry="0.08" transform="translate(3.15 207.28) rotate(-61.45)"/><ellipse class="cls-4" cx="179.31" cy="94.79" rx="0.1" ry="0.08" transform="translate(10.36 207.01) rotate(-61.45)"/><ellipse class="cls-4" cx="180.23" cy="96.8" rx="0.1" ry="0.08" transform="translate(9.07 208.86) rotate(-61.45)"/><ellipse class="cls-4" cx="171.56" cy="96.1" rx="0.1" ry="0.08" transform="translate(5.16 200.89) rotate(-61.45)"/><ellipse class="cls-4" cx="167.97" cy="97.16" rx="0.1" ry="0.08" transform="translate(2.35 198.29) rotate(-61.45)"/><ellipse class="cls-4" cx="167.62" cy="95.97" rx="0.1" ry="0.08" transform="translate(3.22 197.35) rotate(-61.45)"/><ellipse class="cls-4" cx="170.99" cy="89.77" rx="0.1" ry="0.08" transform="translate(10.43 197.08) rotate(-61.45)"/><ellipse class="cls-4" cx="171.91" cy="91.77" rx="0.1" ry="0.08" transform="translate(9.15 198.93) rotate(-61.45)"/><ellipse class="cls-4" cx="179.87" cy="101.37" rx="0.1" ry="0.08" transform="translate(4.87 210.94) rotate(-61.45)"/><ellipse class="cls-4" cx="180.18" cy="98.03" rx="0.1" ry="0.08" transform="translate(7.97 209.46) rotate(-61.45)"/><ellipse class="cls-4" cx="176.59" cy="99.09" rx="0.1" ry="0.08" transform="translate(5.16 206.86) rotate(-61.45)"/><ellipse class="cls-4" cx="184.3" cy="93.24" rx="0.1" ry="0.08" transform="translate(14.33 210.57) rotate(-61.45)"/><ellipse class="cls-4" cx="176.24" cy="97.89" rx="0.1" ry="0.08" transform="translate(6.03 205.93) rotate(-61.45)"/><ellipse class="cls-4" cx="179.61" cy="91.69" rx="0.1" ry="0.08" transform="translate(13.24 205.65) rotate(-61.45)"/><ellipse class="cls-4" cx="182.19" cy="97.11" rx="0.1" ry="0.08" transform="translate(9.82 210.75) rotate(-61.45)"/><ellipse class="cls-4" cx="180.53" cy="93.7" rx="0.1" ry="0.08" transform="translate(11.95 207.51) rotate(-61.45)"/><circle class="cls-4" cx="184.8" cy="97.78" r="0.5"/><circle class="cls-4" cx="175.01" cy="95.3" r="0.5"/><ellipse class="cls-4" cx="196.86" cy="106.21" rx="0.1" ry="0.08" transform="translate(9.49 228.39) rotate(-61.45)"/><ellipse class="cls-4" cx="197.18" cy="102.87" rx="0.1" ry="0.08" transform="translate(12.59 226.92) rotate(-61.45)"/><ellipse class="cls-4" cx="193.59" cy="103.93" rx="0.1" ry="0.08" transform="translate(9.78 224.32) rotate(-61.45)"/><ellipse class="cls-4" cx="201.29" cy="98.08" rx="0.1" ry="0.08" transform="translate(18.95 228.03) rotate(-61.45)"/><ellipse class="cls-4" cx="193.23" cy="102.73" rx="0.1" ry="0.08" transform="translate(10.65 223.38) rotate(-61.45)"/><ellipse class="cls-4" cx="196.61" cy="96.53" rx="0.1" ry="0.08" transform="translate(17.86 223.11) rotate(-61.45)"/><ellipse class="cls-4" cx="199.18" cy="101.95" rx="0.1" ry="0.08" transform="translate(14.44 228.2) rotate(-61.45)"/><ellipse class="cls-4" cx="197.52" cy="98.54" rx="0.1" ry="0.08" transform="translate(16.58 224.96) rotate(-61.45)"/><circle class="cls-4" cx="192" cy="100.14" r="0.5"/><ellipse class="cls-4" cx="195.18" cy="112.83" rx="0.1" ry="0.08" transform="translate(2.8 230.37) rotate(-61.45)"/><ellipse class="cls-4" cx="195.49" cy="109.49" rx="0.1" ry="0.08" transform="translate(5.9 228.9) rotate(-61.45)"/><ellipse class="cls-4" cx="191.9" cy="110.55" rx="0.1" ry="0.08" transform="translate(3.09 226.3) rotate(-61.45)"/><ellipse class="cls-4" cx="199.61" cy="104.69" rx="0.1" ry="0.08" transform="translate(12.26 230.01) rotate(-61.45)"/><ellipse class="cls-4" cx="197.5" cy="108.57" rx="0.1" ry="0.08" transform="translate(7.75 230.18) rotate(-61.45)"/><ellipse class="cls-4" cx="195.84" cy="105.16" rx="0.1" ry="0.08" transform="translate(9.88 226.94) rotate(-61.45)"/><ellipse class="cls-4" cx="181.98" cy="112.18" rx="0.1" ry="0.08" transform="translate(-3.52 218.43) rotate(-61.45)"/><ellipse class="cls-4" cx="182.29" cy="108.83" rx="0.1" ry="0.08" transform="translate(-0.42 216.96) rotate(-61.45)"/><ellipse class="cls-4" cx="178.7" cy="109.89" rx="0.1" ry="0.08" transform="translate(-3.23 214.36) rotate(-61.45)"/><ellipse class="cls-4" cx="186.4" cy="104.04" rx="0.1" ry="0.08" transform="translate(5.94 218.07) rotate(-61.45)"/><ellipse class="cls-4" cx="184.3" cy="107.91" rx="0.1" ry="0.08" transform="translate(1.43 218.24) rotate(-61.45)"/><ellipse class="cls-4" cx="182.64" cy="104.5" rx="0.1" ry="0.08" transform="translate(3.56 215) rotate(-61.45)"/><circle class="cls-4" cx="143.89" cy="104.02" r="0.5"/><circle class="cls-4" cx="131.71" cy="102.41" r="0.5"/><circle class="cls-4" cx="111.23" cy="112.36" r="0.5"/><circle class="cls-4" cx="149.58" cy="122.18" r="0.5"/><ellipse class="cls-4" cx="122.21" cy="118.09" rx="0.1" ry="0.08" transform="translate(-39.92 169.01) rotate(-61.45)"/><ellipse class="cls-4" cx="125.55" cy="118.4" rx="0.1" ry="0.08" transform="translate(-38.45 172.11) rotate(-61.45)"/><ellipse class="cls-4" cx="122.52" cy="114.74" rx="0.1" ry="0.08" transform="translate(-36.82 167.54) rotate(-61.45)"/><ellipse class="cls-4" cx="118.93" cy="115.8" rx="0.1" ry="0.08" transform="translate(-39.63 164.94) rotate(-61.45)"/><ellipse class="cls-4" cx="127.63" cy="121.04" rx="0.1" ry="0.08" transform="translate(-39.68 175.32) rotate(-61.45)"/><ellipse class="cls-4" cx="126.63" cy="109.95" rx="0.1" ry="0.08" transform="translate(-30.46 168.65) rotate(-61.45)"/><ellipse class="cls-4" cx="118.58" cy="114.6" rx="0.1" ry="0.08" transform="translate(-38.76 164) rotate(-61.45)"/><ellipse class="cls-4" cx="121.95" cy="108.4" rx="0.1" ry="0.08" transform="translate(-31.55 163.73) rotate(-61.45)"/><ellipse class="cls-4" cx="124.53" cy="113.82" rx="0.1" ry="0.08" transform="translate(-34.97 168.82) rotate(-61.45)"/><ellipse class="cls-4" cx="106.18" cy="107.86" rx="0.1" ry="0.08" transform="translate(-39.31 149.59) rotate(-61.45)"/><ellipse class="cls-4" cx="107.27" cy="110.46" rx="0.1" ry="0.08" transform="translate(-41.02 151.91) rotate(-61.45)"/><ellipse class="cls-4" cx="109.73" cy="107.78" rx="0.1" ry="0.08" transform="translate(-37.39 152.67) rotate(-61.45)"/><ellipse class="cls-4" cx="122.87" cy="110.41" rx="0.1" ry="0.08" transform="translate(-32.83 165.58) rotate(-61.45)"/><ellipse class="cls-4" cx="132.67" cy="123.78" rx="0.1" ry="0.08" transform="translate(-39.46 181.17) rotate(-61.45)"/><ellipse class="cls-4" cx="137.81" cy="123.56" rx="0.1" ry="0.08" transform="translate(-36.58 185.57) rotate(-61.45)"/><circle class="cls-4" cx="127.14" cy="114.49" r="0.5"/><circle class="cls-4" cx="95.02" cy="102.26" r="0.5"/><circle class="cls-4" cx="133.57" cy="94.27" r="0.5"/><circle class="cls-4" cx="117.34" cy="112.01" r="0.5"/><circle class="cls-4" cx="129.21" cy="84.99" r="0.5"/><circle class="cls-4" cx="106.44" cy="84.67" r="0.5"/><circle class="cls-4" cx="136.29" cy="110.68" r="0.5"/><circle class="cls-4" cx="112.37" cy="100.96" r="0.5"/><circle class="cls-4" cx="101.19" cy="102.39" r="0.5"/><circle class="cls-4" cx="91.03" cy="95.47" r="0.5"/><ellipse class="cls-4" cx="119.49" cy="98.91" rx="0.1" ry="0.08" transform="translate(-24.5 156.61) rotate(-61.45)"/><ellipse class="cls-4" cx="115.9" cy="99.97" rx="0.1" ry="0.08" transform="translate(-27.3 154.01) rotate(-61.45)"/><ellipse class="cls-4" cx="115.54" cy="98.77" rx="0.1" ry="0.08" transform="translate(-26.44 153.07) rotate(-61.45)"/><ellipse class="cls-4" cx="118.92" cy="92.57" rx="0.1" ry="0.08" transform="translate(-19.23 152.8) rotate(-61.45)"/><ellipse class="cls-4" cx="119.83" cy="94.58" rx="0.1" ry="0.08" transform="translate(-20.51 154.65) rotate(-61.45)"/><ellipse class="cls-4" cx="111.17" cy="93.89" rx="0.1" ry="0.08" transform="translate(-24.42 146.68) rotate(-61.45)"/><ellipse class="cls-4" cx="107.58" cy="94.95" rx="0.1" ry="0.08" transform="translate(-27.23 144.08) rotate(-61.45)"/><ellipse class="cls-4" cx="107.23" cy="93.75" rx="0.1" ry="0.08" transform="translate(-26.36 143.14) rotate(-61.45)"/><ellipse class="cls-4" cx="110.6" cy="87.55" rx="0.1" ry="0.08" transform="translate(-19.16 142.87) rotate(-61.45)"/><ellipse class="cls-4" cx="111.52" cy="89.55" rx="0.1" ry="0.08" transform="translate(-20.44 144.72) rotate(-61.45)"/><ellipse class="cls-4" cx="119.48" cy="99.16" rx="0.1" ry="0.08" transform="translate(-24.72 156.73) rotate(-61.45)"/><ellipse class="cls-4" cx="119.79" cy="95.81" rx="0.1" ry="0.08" transform="translate(-21.62 155.25) rotate(-61.45)"/><ellipse class="cls-4" cx="116.2" cy="96.87" rx="0.1" ry="0.08" transform="translate(-24.42 152.65) rotate(-61.45)"/><ellipse class="cls-4" cx="123.9" cy="91.02" rx="0.1" ry="0.08" transform="translate(-15.26 156.37) rotate(-61.45)"/><ellipse class="cls-4" cx="115.85" cy="95.67" rx="0.1" ry="0.08" transform="translate(-23.56 151.72) rotate(-61.45)"/><ellipse class="cls-4" cx="119.22" cy="89.47" rx="0.1" ry="0.08" transform="translate(-16.35 151.44) rotate(-61.45)"/><ellipse class="cls-4" cx="121.8" cy="94.89" rx="0.1" ry="0.08" transform="translate(-19.76 156.54) rotate(-61.45)"/><ellipse class="cls-4" cx="120.14" cy="91.48" rx="0.1" ry="0.08" transform="translate(-17.63 153.3) rotate(-61.45)"/><circle class="cls-4" cx="124.41" cy="95.56" r="0.5"/><circle class="cls-4" cx="114.61" cy="93.08" r="0.5"/><ellipse class="cls-4" cx="136.47" cy="104" rx="0.1" ry="0.08" transform="translate(-20.1 174.18) rotate(-61.45)"/><ellipse class="cls-4" cx="136.78" cy="100.65" rx="0.1" ry="0.08" transform="translate(-16.99 172.71) rotate(-61.45)"/><ellipse class="cls-4" cx="133.19" cy="101.71" rx="0.1" ry="0.08" transform="translate(-19.8 170.11) rotate(-61.45)"/><ellipse class="cls-4" cx="140.9" cy="95.86" rx="0.1" ry="0.08" transform="translate(-10.64 173.82) rotate(-61.45)"/><ellipse class="cls-4" cx="132.84" cy="100.51" rx="0.1" ry="0.08" transform="translate(-18.93 169.18) rotate(-61.45)"/><ellipse class="cls-4" cx="136.21" cy="94.31" rx="0.1" ry="0.08" transform="translate(-11.73 168.9) rotate(-61.45)"/><ellipse class="cls-4" cx="138.79" cy="99.73" rx="0.1" ry="0.08" transform="translate(-15.14 173.99) rotate(-61.45)"/><ellipse class="cls-4" cx="137.13" cy="96.32" rx="0.1" ry="0.08" transform="translate(-13.01 170.75) rotate(-61.45)"/><circle class="cls-4" cx="131.61" cy="97.92" r="0.5"/><ellipse class="cls-4" cx="134.79" cy="110.61" rx="0.1" ry="0.08" transform="translate(-26.79 176.16) rotate(-61.45)"/><ellipse class="cls-4" cx="135.1" cy="107.27" rx="0.1" ry="0.08" transform="translate(-23.69 174.69) rotate(-61.45)"/><ellipse class="cls-4" cx="131.51" cy="108.33" rx="0.1" ry="0.08" transform="translate(-26.49 172.09) rotate(-61.45)"/><ellipse class="cls-4" cx="139.22" cy="102.48" rx="0.1" ry="0.08" transform="translate(-17.33 175.8) rotate(-61.45)"/><ellipse class="cls-4" cx="137.11" cy="106.35" rx="0.1" ry="0.08" transform="translate(-21.83 175.97) rotate(-61.45)"/><ellipse class="cls-4" cx="135.45" cy="102.94" rx="0.1" ry="0.08" transform="translate(-19.7 172.73) rotate(-61.45)"/><ellipse class="cls-4" cx="121.59" cy="109.96" rx="0.1" ry="0.08" transform="translate(-33.11 164.22) rotate(-61.45)"/><ellipse class="cls-4" cx="121.9" cy="106.61" rx="0.1" ry="0.08" transform="translate(-30.01 162.75) rotate(-61.45)"/><ellipse class="cls-4" cx="118.31" cy="107.67" rx="0.1" ry="0.08" transform="translate(-32.81 160.15) rotate(-61.45)"/><ellipse class="cls-4" cx="126.01" cy="101.82" rx="0.1" ry="0.08" transform="translate(-23.65 163.86) rotate(-61.45)"/><ellipse class="cls-4" cx="123.9" cy="105.7" rx="0.1" ry="0.08" transform="translate(-28.15 164.03) rotate(-61.45)"/><ellipse class="cls-4" cx="122.25" cy="102.28" rx="0.1" ry="0.08" transform="translate(-26.02 160.79) rotate(-61.45)"/><circle class="cls-4" cx="154.89" cy="219.02" r="0.5"/><circle class="cls-4" cx="142.71" cy="217.41" r="0.5"/><circle class="cls-4" cx="122.23" cy="227.36" r="0.5"/><circle class="cls-4" cx="160.58" cy="237.18" r="0.5"/><ellipse class="cls-4" cx="133.21" cy="233.09" rx="0.1" ry="0.08" transform="translate(-135.2 238.72) rotate(-61.45)"/><ellipse class="cls-4" cx="136.55" cy="233.4" rx="0.1" ry="0.08" transform="translate(-133.73 241.82) rotate(-61.45)"/><ellipse class="cls-4" cx="133.52" cy="229.74" rx="0.1" ry="0.08" transform="translate(-132.1 237.25) rotate(-61.45)"/><ellipse class="cls-4" cx="129.93" cy="230.8" rx="0.1" ry="0.08" transform="translate(-134.9 234.65) rotate(-61.45)"/><ellipse class="cls-4" cx="138.63" cy="236.04" rx="0.1" ry="0.08" transform="translate(-134.96 245.02) rotate(-61.45)"/><ellipse class="cls-4" cx="137.63" cy="224.95" rx="0.1" ry="0.08" transform="translate(-125.74 238.36) rotate(-61.45)"/><ellipse class="cls-4" cx="129.58" cy="229.6" rx="0.1" ry="0.08" transform="translate(-134.04 233.71) rotate(-61.45)"/><ellipse class="cls-4" cx="132.95" cy="223.4" rx="0.1" ry="0.08" transform="translate(-126.83 233.44) rotate(-61.45)"/><ellipse class="cls-4" cx="135.53" cy="228.82" rx="0.1" ry="0.08" transform="translate(-130.24 238.53) rotate(-61.45)"/><ellipse class="cls-4" cx="117.18" cy="222.86" rx="0.1" ry="0.08" transform="translate(-134.58 219.3) rotate(-61.45)"/><ellipse class="cls-4" cx="118.27" cy="225.46" rx="0.1" ry="0.08" transform="translate(-136.3 221.62) rotate(-61.45)"/><ellipse class="cls-4" cx="120.73" cy="222.78" rx="0.1" ry="0.08" transform="translate(-132.66 222.38) rotate(-61.45)"/><ellipse class="cls-4" cx="133.87" cy="225.41" rx="0.1" ry="0.08" transform="translate(-128.11 235.29) rotate(-61.45)"/><ellipse class="cls-4" cx="143.67" cy="238.78" rx="0.1" ry="0.08" transform="translate(-134.73 250.88) rotate(-61.45)"/><ellipse class="cls-4" cx="148.81" cy="238.56" rx="0.1" ry="0.08" transform="translate(-131.86 255.28) rotate(-61.45)"/><circle class="cls-4" cx="138.14" cy="229.49" r="0.5"/><circle class="cls-4" cx="106.02" cy="217.26" r="0.5"/><circle class="cls-4" cx="144.57" cy="209.27" r="0.5"/><circle class="cls-4" cx="128.34" cy="227.01" r="0.5"/><circle class="cls-4" cx="140.21" cy="199.99" r="0.5"/><circle class="cls-4" cx="117.44" cy="199.67" r="0.5"/><circle class="cls-4" cx="147.29" cy="225.68" r="0.5"/><circle class="cls-4" cx="123.37" cy="215.96" r="0.5"/><circle class="cls-4" cx="112.19" cy="217.39" r="0.5"/><circle class="cls-4" cx="102.03" cy="210.47" r="0.5"/><ellipse class="cls-4" cx="130.49" cy="213.91" rx="0.1" ry="0.08" transform="translate(-119.77 226.32) rotate(-61.45)"/><ellipse class="cls-4" cx="126.9" cy="214.97" rx="0.1" ry="0.08" transform="translate(-122.58 223.72) rotate(-61.45)"/><ellipse class="cls-4" cx="126.54" cy="213.77" rx="0.1" ry="0.08" transform="translate(-121.71 222.78) rotate(-61.45)"/><ellipse class="cls-4" cx="129.92" cy="207.57" rx="0.1" ry="0.08" transform="translate(-114.51 222.51) rotate(-61.45)"/><ellipse class="cls-4" cx="130.83" cy="209.58" rx="0.1" ry="0.08" transform="translate(-115.79 224.36) rotate(-61.45)"/><ellipse class="cls-4" cx="122.17" cy="208.89" rx="0.1" ry="0.08" transform="translate(-119.7 216.39) rotate(-61.45)"/><ellipse class="cls-4" cx="118.58" cy="209.95" rx="0.1" ry="0.08" transform="translate(-122.51 213.79) rotate(-61.45)"/><ellipse class="cls-4" cx="118.23" cy="208.75" rx="0.1" ry="0.08" transform="translate(-121.64 212.85) rotate(-61.45)"/><ellipse class="cls-4" cx="121.6" cy="202.55" rx="0.1" ry="0.08" transform="translate(-114.43 212.58) rotate(-61.45)"/><ellipse class="cls-4" cx="122.52" cy="204.55" rx="0.1" ry="0.08" transform="translate(-115.72 214.43) rotate(-61.45)"/><ellipse class="cls-4" cx="130.48" cy="214.16" rx="0.1" ry="0.08" transform="translate(-120 226.44) rotate(-61.45)"/><ellipse class="cls-4" cx="130.79" cy="210.81" rx="0.1" ry="0.08" transform="translate(-116.89 224.96) rotate(-61.45)"/><ellipse class="cls-4" cx="127.2" cy="211.87" rx="0.1" ry="0.08" transform="translate(-119.7 222.36) rotate(-61.45)"/><ellipse class="cls-4" cx="134.9" cy="206.02" rx="0.1" ry="0.08" transform="translate(-110.54 226.08) rotate(-61.45)"/><ellipse class="cls-4" cx="126.85" cy="210.67" rx="0.1" ry="0.08" transform="translate(-118.83 221.43) rotate(-61.45)"/><ellipse class="cls-4" cx="130.22" cy="204.47" rx="0.1" ry="0.08" transform="translate(-111.62 221.15) rotate(-61.45)"/><ellipse class="cls-4" cx="132.8" cy="209.89" rx="0.1" ry="0.08" transform="translate(-115.04 226.25) rotate(-61.45)"/><ellipse class="cls-4" cx="131.14" cy="206.48" rx="0.1" ry="0.08" transform="translate(-112.91 223.01) rotate(-61.45)"/><circle class="cls-4" cx="135.41" cy="210.56" r="0.5"/><circle class="cls-4" cx="125.61" cy="208.08" r="0.5"/><ellipse class="cls-4" cx="147.47" cy="219" rx="0.1" ry="0.08" transform="translate(-115.37 243.89) rotate(-61.45)"/><ellipse class="cls-4" cx="147.78" cy="215.65" rx="0.1" ry="0.08" transform="translate(-112.27 242.42) rotate(-61.45)"/><ellipse class="cls-4" cx="144.19" cy="216.71" rx="0.1" ry="0.08" transform="translate(-115.08 239.82) rotate(-61.45)"/><ellipse class="cls-4" cx="151.9" cy="210.86" rx="0.1" ry="0.08" transform="translate(-105.91 243.53) rotate(-61.45)"/><ellipse class="cls-4" cx="143.84" cy="215.51" rx="0.1" ry="0.08" transform="translate(-114.21 238.88) rotate(-61.45)"/><ellipse class="cls-4" cx="147.21" cy="209.31" rx="0.1" ry="0.08" transform="translate(-107 238.61) rotate(-61.45)"/><ellipse class="cls-4" cx="149.79" cy="214.73" rx="0.1" ry="0.08" transform="translate(-110.42 243.7) rotate(-61.45)"/><ellipse class="cls-4" cx="148.13" cy="211.32" rx="0.1" ry="0.08" transform="translate(-108.28 240.46) rotate(-61.45)"/><circle class="cls-4" cx="142.61" cy="212.92" r="0.5"/><ellipse class="cls-4" cx="145.79" cy="225.61" rx="0.1" ry="0.08" transform="translate(-122.06 245.87) rotate(-61.45)"/><ellipse class="cls-4" cx="146.1" cy="222.27" rx="0.1" ry="0.08" transform="translate(-118.96 244.4) rotate(-61.45)"/><ellipse class="cls-4" cx="142.51" cy="223.33" rx="0.1" ry="0.08" transform="translate(-121.77 241.8) rotate(-61.45)"/><ellipse class="cls-4" cx="150.22" cy="217.48" rx="0.1" ry="0.08" transform="translate(-112.6 245.51) rotate(-61.45)"/><ellipse class="cls-4" cx="148.11" cy="221.35" rx="0.1" ry="0.08" transform="translate(-117.11 245.68) rotate(-61.45)"/><ellipse class="cls-4" cx="146.45" cy="217.94" rx="0.1" ry="0.08" transform="translate(-114.98 242.44) rotate(-61.45)"/><ellipse class="cls-4" cx="132.59" cy="224.96" rx="0.1" ry="0.08" transform="translate(-128.38 233.93) rotate(-61.45)"/><ellipse class="cls-4" cx="132.9" cy="221.61" rx="0.1" ry="0.08" transform="translate(-125.28 232.46) rotate(-61.45)"/><ellipse class="cls-4" cx="129.31" cy="222.67" rx="0.1" ry="0.08" transform="translate(-128.09 229.86) rotate(-61.45)"/><ellipse class="cls-4" cx="137.01" cy="216.82" rx="0.1" ry="0.08" transform="translate(-118.92 233.57) rotate(-61.45)"/><ellipse class="cls-4" cx="134.9" cy="220.7" rx="0.1" ry="0.08" transform="translate(-123.43 233.74) rotate(-61.45)"/><ellipse class="cls-4" cx="133.25" cy="217.28" rx="0.1" ry="0.08" transform="translate(-121.3 230.5) rotate(-61.45)"/><circle class="cls-4" cx="268.89" cy="189.02" r="0.5"/><circle class="cls-4" cx="256.71" cy="187.41" r="0.5"/><circle class="cls-4" cx="236.23" cy="197.36" r="0.5"/><circle class="cls-4" cx="274.58" cy="207.18" r="0.5"/><ellipse class="cls-4" cx="247.21" cy="203.09" rx="0.1" ry="0.08" transform="translate(-49.32 323.19) rotate(-61.45)"/><ellipse class="cls-4" cx="250.55" cy="203.4" rx="0.1" ry="0.08" transform="translate(-47.85 326.3) rotate(-61.45)"/><ellipse class="cls-4" cx="247.52" cy="199.74" rx="0.1" ry="0.08" transform="translate(-46.22 321.72) rotate(-61.45)"/><ellipse class="cls-4" cx="243.93" cy="200.8" rx="0.1" ry="0.08" transform="translate(-49.02 319.12) rotate(-61.45)"/><ellipse class="cls-4" cx="252.63" cy="206.04" rx="0.1" ry="0.08" transform="translate(-49.08 329.5) rotate(-61.45)"/><ellipse class="cls-4" cx="251.63" cy="194.95" rx="0.1" ry="0.08" transform="translate(-39.86 322.83) rotate(-61.45)"/><ellipse class="cls-4" cx="243.58" cy="199.6" rx="0.1" ry="0.08" transform="translate(-48.16 318.19) rotate(-61.45)"/><ellipse class="cls-4" cx="246.95" cy="193.4" rx="0.1" ry="0.08" transform="translate(-40.95 317.91) rotate(-61.45)"/><ellipse class="cls-4" cx="249.53" cy="198.82" rx="0.1" ry="0.08" transform="translate(-44.37 323.01) rotate(-61.45)"/><ellipse class="cls-4" cx="231.18" cy="192.86" rx="0.1" ry="0.08" transform="translate(-48.71 303.77) rotate(-61.45)"/><ellipse class="cls-4" cx="232.27" cy="195.46" rx="0.1" ry="0.08" transform="translate(-50.42 306.09) rotate(-61.45)"/><ellipse class="cls-4" cx="234.73" cy="192.78" rx="0.1" ry="0.08" transform="translate(-46.79 306.86) rotate(-61.45)"/><ellipse class="cls-4" cx="247.87" cy="195.41" rx="0.1" ry="0.08" transform="translate(-42.23 319.77) rotate(-61.45)"/><ellipse class="cls-4" cx="257.67" cy="208.78" rx="0.1" ry="0.08" transform="translate(-48.86 335.36) rotate(-61.45)"/><ellipse class="cls-4" cx="262.81" cy="208.56" rx="0.1" ry="0.08" transform="translate(-45.98 339.76) rotate(-61.45)"/><circle class="cls-4" cx="252.14" cy="199.49" r="0.5"/><circle class="cls-4" cx="220.02" cy="187.26" r="0.5"/><circle class="cls-4" cx="258.57" cy="179.27" r="0.5"/><circle class="cls-4" cx="242.34" cy="197.01" r="0.5"/><circle class="cls-4" cx="254.21" cy="169.99" r="0.5"/><circle class="cls-4" cx="231.44" cy="169.67" r="0.5"/><circle class="cls-4" cx="261.29" cy="195.68" r="0.5"/><circle class="cls-4" cx="237.37" cy="185.96" r="0.5"/><circle class="cls-4" cx="226.19" cy="187.39" r="0.5"/><circle class="cls-4" cx="216.03" cy="180.47" r="0.5"/><ellipse class="cls-4" cx="244.49" cy="183.91" rx="0.1" ry="0.08" transform="translate(-33.9 310.79) rotate(-61.45)"/><ellipse class="cls-4" cx="240.9" cy="184.97" rx="0.1" ry="0.08" transform="translate(-36.7 308.19) rotate(-61.45)"/><ellipse class="cls-4" cx="240.54" cy="183.77" rx="0.1" ry="0.08" transform="translate(-35.84 307.26) rotate(-61.45)"/><ellipse class="cls-4" cx="243.92" cy="177.57" rx="0.1" ry="0.08" transform="translate(-28.63 306.98) rotate(-61.45)"/><ellipse class="cls-4" cx="244.83" cy="179.58" rx="0.1" ry="0.08" transform="translate(-29.91 308.84) rotate(-61.45)"/><ellipse class="cls-4" cx="236.17" cy="178.89" rx="0.1" ry="0.08" transform="translate(-33.82 300.87) rotate(-61.45)"/><ellipse class="cls-4" cx="232.58" cy="179.95" rx="0.1" ry="0.08" transform="translate(-36.63 298.27) rotate(-61.45)"/><ellipse class="cls-4" cx="232.23" cy="178.75" rx="0.1" ry="0.08" transform="translate(-35.76 297.33) rotate(-61.45)"/><ellipse class="cls-4" cx="235.6" cy="172.55" rx="0.1" ry="0.08" transform="translate(-28.56 297.06) rotate(-61.45)"/><ellipse class="cls-4" cx="236.52" cy="174.55" rx="0.1" ry="0.08" transform="translate(-29.84 298.91) rotate(-61.45)"/><ellipse class="cls-4" cx="244.48" cy="184.16" rx="0.1" ry="0.08" transform="translate(-34.12 310.91) rotate(-61.45)"/><ellipse class="cls-4" cx="244.79" cy="180.81" rx="0.1" ry="0.08" transform="translate(-31.02 309.44) rotate(-61.45)"/><ellipse class="cls-4" cx="241.2" cy="181.87" rx="0.1" ry="0.08" transform="translate(-33.82 306.84) rotate(-61.45)"/><ellipse class="cls-4" cx="248.9" cy="176.02" rx="0.1" ry="0.08" transform="translate(-24.66 310.55) rotate(-61.45)"/><ellipse class="cls-4" cx="240.85" cy="180.67" rx="0.1" ry="0.08" transform="translate(-32.96 305.91) rotate(-61.45)"/><ellipse class="cls-4" cx="244.22" cy="174.47" rx="0.1" ry="0.08" transform="translate(-25.75 305.63) rotate(-61.45)"/><ellipse class="cls-4" cx="246.8" cy="179.89" rx="0.1" ry="0.08" transform="translate(-29.16 310.72) rotate(-61.45)"/><ellipse class="cls-4" cx="245.14" cy="176.48" rx="0.1" ry="0.08" transform="translate(-27.03 307.48) rotate(-61.45)"/><circle class="cls-4" cx="249.41" cy="180.56" r="0.5"/><circle class="cls-4" cx="239.61" cy="178.08" r="0.5"/><ellipse class="cls-4" cx="261.47" cy="189" rx="0.1" ry="0.08" transform="translate(-29.5 328.37) rotate(-61.45)"/><ellipse class="cls-4" cx="261.78" cy="185.65" rx="0.1" ry="0.08" transform="translate(-26.39 326.9) rotate(-61.45)"/><ellipse class="cls-4" cx="258.19" cy="186.71" rx="0.1" ry="0.08" transform="translate(-29.2 324.3) rotate(-61.45)"/><ellipse class="cls-4" cx="265.9" cy="180.86" rx="0.1" ry="0.08" transform="translate(-20.04 328.01) rotate(-61.45)"/><ellipse class="cls-4" cx="257.84" cy="185.51" rx="0.1" ry="0.08" transform="translate(-28.33 323.36) rotate(-61.45)"/><ellipse class="cls-4" cx="261.21" cy="179.31" rx="0.1" ry="0.08" transform="translate(-21.12 323.09) rotate(-61.45)"/><ellipse class="cls-4" cx="263.79" cy="184.73" rx="0.1" ry="0.08" transform="translate(-24.54 328.18) rotate(-61.45)"/><ellipse class="cls-4" cx="262.13" cy="181.32" rx="0.1" ry="0.08" transform="translate(-22.41 324.94) rotate(-61.45)"/><circle class="cls-4" cx="256.61" cy="182.92" r="0.5"/><ellipse class="cls-4" cx="259.79" cy="195.61" rx="0.1" ry="0.08" transform="translate(-36.19 330.35) rotate(-61.45)"/><ellipse class="cls-4" cx="260.1" cy="192.27" rx="0.1" ry="0.08" transform="translate(-33.09 328.88) rotate(-61.45)"/><ellipse class="cls-4" cx="256.51" cy="193.33" rx="0.1" ry="0.08" transform="translate(-35.89 326.28) rotate(-61.45)"/><ellipse class="cls-4" cx="264.22" cy="187.48" rx="0.1" ry="0.08" transform="translate(-26.73 329.99) rotate(-61.45)"/><ellipse class="cls-4" cx="262.11" cy="191.35" rx="0.1" ry="0.08" transform="translate(-31.23 330.16) rotate(-61.45)"/><ellipse class="cls-4" cx="260.45" cy="187.94" rx="0.1" ry="0.08" transform="translate(-29.1 326.92) rotate(-61.45)"/><ellipse class="cls-4" cx="246.59" cy="194.96" rx="0.1" ry="0.08" transform="translate(-42.51 318.41) rotate(-61.45)"/><ellipse class="cls-4" cx="246.9" cy="191.61" rx="0.1" ry="0.08" transform="translate(-39.4 316.93) rotate(-61.45)"/><ellipse class="cls-4" cx="243.31" cy="192.67" rx="0.1" ry="0.08" transform="translate(-42.21 314.33) rotate(-61.45)"/><ellipse class="cls-4" cx="251.01" cy="186.82" rx="0.1" ry="0.08" transform="translate(-33.05 318.05) rotate(-61.45)"/><ellipse class="cls-4" cx="248.9" cy="190.7" rx="0.1" ry="0.08" transform="translate(-37.55 318.22) rotate(-61.45)"/><ellipse class="cls-4" cx="247.25" cy="187.28" rx="0.1" ry="0.08" transform="translate(-35.42 314.98) rotate(-61.45)"/><circle class="cls-4" cx="289.79" cy="140.23" r="0.5"/><circle class="cls-4" cx="277.6" cy="138.62" r="0.5"/><circle class="cls-4" cx="257.12" cy="148.57" r="0.5"/><circle class="cls-4" cx="295.48" cy="158.39" r="0.5"/><ellipse class="cls-4" cx="268.1" cy="154.3" rx="0.1" ry="0.08" transform="translate(4.45 316.08) rotate(-61.45)"/><ellipse class="cls-4" cx="271.45" cy="154.61" rx="0.1" ry="0.08" transform="translate(5.92 319.18) rotate(-61.45)"/><ellipse class="cls-4" cx="268.42" cy="150.95" rx="0.1" ry="0.08" transform="translate(7.55 314.61) rotate(-61.45)"/><ellipse class="cls-4" cx="264.83" cy="152.01" rx="0.1" ry="0.08" transform="translate(4.75 312.01) rotate(-61.45)"/><ellipse class="cls-4" cx="273.53" cy="157.25" rx="0.1" ry="0.08" transform="translate(4.69 322.38) rotate(-61.45)"/><ellipse class="cls-4" cx="272.53" cy="146.16" rx="0.1" ry="0.08" transform="translate(13.91 315.72) rotate(-61.45)"/><ellipse class="cls-4" cx="264.47" cy="150.81" rx="0.1" ry="0.08" transform="translate(5.61 311.07) rotate(-61.45)"/><ellipse class="cls-4" cx="267.85" cy="144.61" rx="0.1" ry="0.08" transform="translate(12.82 310.8) rotate(-61.45)"/><ellipse class="cls-4" cx="270.42" cy="150.03" rx="0.1" ry="0.08" transform="translate(9.4 315.89) rotate(-61.45)"/><ellipse class="cls-4" cx="252.07" cy="144.07" rx="0.1" ry="0.08" transform="translate(5.06 296.65) rotate(-61.45)"/><ellipse class="cls-4" cx="253.17" cy="146.67" rx="0.1" ry="0.08" transform="translate(3.35 298.98) rotate(-61.45)"/><ellipse class="cls-4" cx="255.63" cy="143.99" rx="0.1" ry="0.08" transform="translate(6.98 299.74) rotate(-61.45)"/><ellipse class="cls-4" cx="268.76" cy="146.62" rx="0.1" ry="0.08" transform="translate(11.54 312.65) rotate(-61.45)"/><ellipse class="cls-4" cx="278.57" cy="159.99" rx="0.1" ry="0.08" transform="translate(4.91 328.24) rotate(-61.45)"/><ellipse class="cls-4" cx="283.71" cy="159.77" rx="0.1" ry="0.08" transform="translate(7.79 332.64) rotate(-61.45)"/><circle class="cls-4" cx="273.04" cy="150.7" r="0.5"/><circle class="cls-4" cx="240.91" cy="138.47" r="0.5"/><circle class="cls-4" cx="279.46" cy="130.48" r="0.5"/><circle class="cls-4" cx="263.24" cy="148.22" r="0.5"/><circle class="cls-4" cx="275.11" cy="121.2" r="0.5"/><circle class="cls-4" cx="252.34" cy="120.88" r="0.5"/><circle class="cls-4" cx="282.19" cy="146.9" r="0.5"/><circle class="cls-4" cx="258.27" cy="137.17" r="0.5"/><circle class="cls-4" cx="247.09" cy="138.6" r="0.5"/><circle class="cls-4" cx="236.93" cy="131.68" r="0.5"/><ellipse class="cls-4" cx="265.39" cy="135.12" rx="0.1" ry="0.08" transform="translate(19.87 303.68) rotate(-61.45)"/><ellipse class="cls-4" cx="261.8" cy="136.18" rx="0.1" ry="0.08" transform="translate(17.07 301.08) rotate(-61.45)"/><ellipse class="cls-4" cx="261.44" cy="134.99" rx="0.1" ry="0.08" transform="translate(17.93 300.14) rotate(-61.45)"/><ellipse class="cls-4" cx="264.81" cy="128.78" rx="0.1" ry="0.08" transform="translate(25.14 299.87) rotate(-61.45)"/><ellipse class="cls-4" cx="265.73" cy="130.79" rx="0.1" ry="0.08" transform="translate(23.86 301.72) rotate(-61.45)"/><ellipse class="cls-4" cx="257.07" cy="130.1" rx="0.1" ry="0.08" transform="translate(19.95 293.75) rotate(-61.45)"/><ellipse class="cls-4" cx="253.48" cy="131.16" rx="0.1" ry="0.08" transform="translate(17.14 291.15) rotate(-61.45)"/><ellipse class="cls-4" cx="253.13" cy="129.96" rx="0.1" ry="0.08" transform="translate(18.01 290.21) rotate(-61.45)"/><ellipse class="cls-4" cx="256.5" cy="123.76" rx="0.1" ry="0.08" transform="translate(25.21 289.94) rotate(-61.45)"/><ellipse class="cls-4" cx="257.42" cy="125.77" rx="0.1" ry="0.08" transform="translate(23.93 291.79) rotate(-61.45)"/><ellipse class="cls-4" cx="265.37" cy="135.37" rx="0.1" ry="0.08" transform="translate(19.65 303.79) rotate(-61.45)"/><ellipse class="cls-4" cx="265.69" cy="132.02" rx="0.1" ry="0.08" transform="translate(22.75 302.32) rotate(-61.45)"/><ellipse class="cls-4" cx="262.1" cy="133.08" rx="0.1" ry="0.08" transform="translate(19.95 299.72) rotate(-61.45)"/><ellipse class="cls-4" cx="269.8" cy="127.23" rx="0.1" ry="0.08" transform="translate(29.11 303.43) rotate(-61.45)"/><ellipse class="cls-4" cx="261.74" cy="131.89" rx="0.1" ry="0.08" transform="translate(20.81 298.79) rotate(-61.45)"/><ellipse class="cls-4" cx="265.12" cy="125.68" rx="0.1" ry="0.08" transform="translate(28.02 298.51) rotate(-61.45)"/><ellipse class="cls-4" cx="267.69" cy="131.1" rx="0.1" ry="0.08" transform="translate(24.61 303.61) rotate(-61.45)"/><ellipse class="cls-4" cx="266.03" cy="127.69" rx="0.1" ry="0.08" transform="translate(26.74 300.37) rotate(-61.45)"/><circle class="cls-4" cx="270.31" cy="131.77" r="0.5"/><circle class="cls-4" cx="260.51" cy="129.29" r="0.5"/><ellipse class="cls-4" cx="282.37" cy="140.21" rx="0.1" ry="0.08" transform="translate(24.27 321.25) rotate(-61.45)"/><ellipse class="cls-4" cx="282.68" cy="136.86" rx="0.1" ry="0.08" transform="translate(27.38 319.78) rotate(-61.45)"/><ellipse class="cls-4" cx="279.09" cy="137.92" rx="0.1" ry="0.08" transform="translate(24.57 317.18) rotate(-61.45)"/><ellipse class="cls-4" cx="286.8" cy="132.07" rx="0.1" ry="0.08" transform="translate(33.73 320.89) rotate(-61.45)"/><ellipse class="cls-4" cx="278.74" cy="136.72" rx="0.1" ry="0.08" transform="translate(25.44 316.24) rotate(-61.45)"/><ellipse class="cls-4" cx="282.11" cy="130.52" rx="0.1" ry="0.08" transform="translate(32.65 315.97) rotate(-61.45)"/><ellipse class="cls-4" cx="284.69" cy="135.94" rx="0.1" ry="0.08" transform="translate(29.23 321.06) rotate(-61.45)"/><ellipse class="cls-4" cx="283.03" cy="132.53" rx="0.1" ry="0.08" transform="translate(31.36 317.82) rotate(-61.45)"/><circle class="cls-4" cx="277.51" cy="134.13" r="0.5"/><ellipse class="cls-4" cx="280.69" cy="146.82" rx="0.1" ry="0.08" transform="translate(17.58 323.23) rotate(-61.45)"/><ellipse class="cls-4" cx="281" cy="143.48" rx="0.1" ry="0.08" transform="translate(20.68 321.76) rotate(-61.45)"/><ellipse class="cls-4" cx="277.41" cy="144.54" rx="0.1" ry="0.08" transform="translate(17.88 319.16) rotate(-61.45)"/><ellipse class="cls-4" cx="285.11" cy="138.69" rx="0.1" ry="0.08" transform="translate(27.04 322.87) rotate(-61.45)"/><ellipse class="cls-4" cx="283.01" cy="142.56" rx="0.1" ry="0.08" transform="translate(22.54 323.04) rotate(-61.45)"/><ellipse class="cls-4" cx="281.35" cy="139.15" rx="0.1" ry="0.08" transform="translate(24.67 319.8) rotate(-61.45)"/><ellipse class="cls-4" cx="267.48" cy="146.17" rx="0.1" ry="0.08" transform="translate(11.26 311.29) rotate(-61.45)"/><ellipse class="cls-4" cx="267.8" cy="142.82" rx="0.1" ry="0.08" transform="translate(14.37 309.82) rotate(-61.45)"/><ellipse class="cls-4" cx="264.21" cy="143.89" rx="0.1" ry="0.08" transform="translate(11.56 307.22) rotate(-61.45)"/><ellipse class="cls-4" cx="271.91" cy="138.03" rx="0.1" ry="0.08" transform="translate(20.72 310.93) rotate(-61.45)"/><ellipse class="cls-4" cx="269.8" cy="141.91" rx="0.1" ry="0.08" transform="translate(16.22 311.1) rotate(-61.45)"/><ellipse class="cls-4" cx="268.14" cy="138.49" rx="0.1" ry="0.08" transform="translate(18.35 307.86) rotate(-61.45)"/><circle class="cls-4" cx="220.79" cy="221.23" r="0.5"/><circle class="cls-4" cx="208.6" cy="219.62" r="0.5"/><circle class="cls-4" cx="188.12" cy="229.57" r="0.5"/><circle class="cls-4" cx="226.48" cy="239.39" r="0.5"/><ellipse class="cls-4" cx="199.1" cy="235.3" rx="0.1" ry="0.08" transform="translate(-102.73 297.76) rotate(-61.45)"/><ellipse class="cls-4" cx="202.45" cy="235.61" rx="0.1" ry="0.08" transform="translate(-101.26 300.86) rotate(-61.45)"/><ellipse class="cls-4" cx="199.42" cy="231.95" rx="0.1" ry="0.08" transform="translate(-99.63 296.29) rotate(-61.45)"/><ellipse class="cls-4" cx="195.83" cy="233.01" rx="0.1" ry="0.08" transform="translate(-102.44 293.69) rotate(-61.45)"/><ellipse class="cls-4" cx="204.53" cy="238.25" rx="0.1" ry="0.08" transform="translate(-102.49 304.07) rotate(-61.45)"/><ellipse class="cls-4" cx="203.53" cy="227.16" rx="0.1" ry="0.08" transform="translate(-93.27 297.4) rotate(-61.45)"/><ellipse class="cls-4" cx="195.47" cy="231.81" rx="0.1" ry="0.08" transform="translate(-101.57 292.75) rotate(-61.45)"/><ellipse class="cls-4" cx="198.85" cy="225.61" rx="0.1" ry="0.08" transform="translate(-94.36 292.48) rotate(-61.45)"/><ellipse class="cls-4" cx="201.42" cy="231.03" rx="0.1" ry="0.08" transform="translate(-97.78 297.57) rotate(-61.45)"/><ellipse class="cls-4" cx="183.07" cy="225.07" rx="0.1" ry="0.08" transform="translate(-102.12 278.34) rotate(-61.45)"/><ellipse class="cls-4" cx="184.17" cy="227.67" rx="0.1" ry="0.08" transform="translate(-103.83 280.66) rotate(-61.45)"/><ellipse class="cls-4" cx="186.63" cy="224.99" rx="0.1" ry="0.08" transform="translate(-100.2 281.42) rotate(-61.45)"/><ellipse class="cls-4" cx="199.76" cy="227.62" rx="0.1" ry="0.08" transform="translate(-95.64 294.33) rotate(-61.45)"/><ellipse class="cls-4" cx="209.57" cy="240.99" rx="0.1" ry="0.08" transform="translate(-102.27 309.92) rotate(-61.45)"/><ellipse class="cls-4" cx="214.71" cy="240.77" rx="0.1" ry="0.08" transform="translate(-99.39 314.32) rotate(-61.45)"/><circle class="cls-4" cx="204.04" cy="231.7" r="0.5"/><circle class="cls-4" cx="171.91" cy="219.47" r="0.5"/><circle class="cls-4" cx="210.46" cy="211.48" r="0.5"/><circle class="cls-4" cx="194.24" cy="229.22" r="0.5"/><circle class="cls-4" cx="206.11" cy="202.2" r="0.5"/><circle class="cls-4" cx="183.34" cy="201.88" r="0.5"/><circle class="cls-4" cx="213.19" cy="227.9" r="0.5"/><circle class="cls-4" cx="189.27" cy="218.17" r="0.5"/><circle class="cls-4" cx="178.09" cy="219.6" r="0.5"/><circle class="cls-4" cx="167.93" cy="212.68" r="0.5"/><ellipse class="cls-4" cx="196.39" cy="216.12" rx="0.1" ry="0.08" transform="translate(-87.31 285.36) rotate(-61.45)"/><ellipse class="cls-4" cx="192.8" cy="217.18" rx="0.1" ry="0.08" transform="translate(-90.11 282.76) rotate(-61.45)"/><ellipse class="cls-4" cx="192.44" cy="215.99" rx="0.1" ry="0.08" transform="translate(-89.25 281.82) rotate(-61.45)"/><ellipse class="cls-4" cx="195.81" cy="209.78" rx="0.1" ry="0.08" transform="translate(-82.04 281.55) rotate(-61.45)"/><ellipse class="cls-4" cx="196.73" cy="211.79" rx="0.1" ry="0.08" transform="translate(-83.32 283.4) rotate(-61.45)"/><ellipse class="cls-4" cx="188.07" cy="211.1" rx="0.1" ry="0.08" transform="translate(-87.24 275.43) rotate(-61.45)"/><ellipse class="cls-4" cx="184.48" cy="212.16" rx="0.1" ry="0.08" transform="translate(-90.04 272.83) rotate(-61.45)"/><ellipse class="cls-4" cx="184.13" cy="210.96" rx="0.1" ry="0.08" transform="translate(-89.17 271.89) rotate(-61.45)"/><ellipse class="cls-4" cx="187.5" cy="204.76" rx="0.1" ry="0.08" transform="translate(-81.97 271.62) rotate(-61.45)"/><ellipse class="cls-4" cx="188.42" cy="206.77" rx="0.1" ry="0.08" transform="translate(-83.25 273.47) rotate(-61.45)"/><ellipse class="cls-4" cx="196.37" cy="216.37" rx="0.1" ry="0.08" transform="translate(-87.53 285.48) rotate(-61.45)"/><ellipse class="cls-4" cx="196.69" cy="213.02" rx="0.1" ry="0.08" transform="translate(-84.43 284) rotate(-61.45)"/><ellipse class="cls-4" cx="193.1" cy="214.08" rx="0.1" ry="0.08" transform="translate(-87.23 281.4) rotate(-61.45)"/><ellipse class="cls-4" cx="200.8" cy="208.23" rx="0.1" ry="0.08" transform="translate(-78.07 285.12) rotate(-61.45)"/><ellipse class="cls-4" cx="192.74" cy="212.89" rx="0.1" ry="0.08" transform="translate(-86.37 280.47) rotate(-61.45)"/><ellipse class="cls-4" cx="196.12" cy="206.68" rx="0.1" ry="0.08" transform="translate(-79.16 280.19) rotate(-61.45)"/><ellipse class="cls-4" cx="198.69" cy="212.1" rx="0.1" ry="0.08" transform="translate(-82.57 285.29) rotate(-61.45)"/><ellipse class="cls-4" cx="197.03" cy="208.69" rx="0.1" ry="0.08" transform="translate(-80.44 282.05) rotate(-61.45)"/><circle class="cls-4" cx="201.31" cy="212.77" r="0.5"/><circle class="cls-4" cx="191.51" cy="210.29" r="0.5"/><ellipse class="cls-4" cx="213.37" cy="221.21" rx="0.1" ry="0.08" transform="translate(-82.91 302.93) rotate(-61.45)"/><ellipse class="cls-4" cx="213.68" cy="217.86" rx="0.1" ry="0.08" transform="translate(-79.8 301.46) rotate(-61.45)"/><ellipse class="cls-4" cx="210.09" cy="218.92" rx="0.1" ry="0.08" transform="translate(-82.61 298.86) rotate(-61.45)"/><ellipse class="cls-4" cx="217.8" cy="213.07" rx="0.1" ry="0.08" transform="translate(-73.45 302.57) rotate(-61.45)"/><ellipse class="cls-4" cx="209.74" cy="217.72" rx="0.1" ry="0.08" transform="translate(-81.74 297.93) rotate(-61.45)"/><ellipse class="cls-4" cx="213.11" cy="211.52" rx="0.1" ry="0.08" transform="translate(-74.54 297.65) rotate(-61.45)"/><ellipse class="cls-4" cx="215.69" cy="216.94" rx="0.1" ry="0.08" transform="translate(-77.95 302.74) rotate(-61.45)"/><ellipse class="cls-4" cx="214.03" cy="213.53" rx="0.1" ry="0.08" transform="translate(-75.82 299.5) rotate(-61.45)"/><circle class="cls-4" cx="208.51" cy="215.13" r="0.5"/><ellipse class="cls-4" cx="211.69" cy="227.82" rx="0.1" ry="0.08" transform="translate(-89.6 304.91) rotate(-61.45)"/><ellipse class="cls-4" cx="212" cy="224.48" rx="0.1" ry="0.08" transform="translate(-86.5 303.44) rotate(-61.45)"/><ellipse class="cls-4" cx="208.41" cy="225.54" rx="0.1" ry="0.08" transform="translate(-89.3 300.84) rotate(-61.45)"/><ellipse class="cls-4" cx="216.11" cy="219.69" rx="0.1" ry="0.08" transform="translate(-80.14 304.55) rotate(-61.45)"/><ellipse class="cls-4" cx="214.01" cy="223.56" rx="0.1" ry="0.08" transform="translate(-84.64 304.72) rotate(-61.45)"/><ellipse class="cls-4" cx="212.35" cy="220.15" rx="0.1" ry="0.08" transform="translate(-82.51 301.48) rotate(-61.45)"/><ellipse class="cls-4" cx="198.48" cy="227.17" rx="0.1" ry="0.08" transform="translate(-95.92 292.97) rotate(-61.45)"/><ellipse class="cls-4" cx="198.8" cy="223.82" rx="0.1" ry="0.08" transform="translate(-92.82 291.5) rotate(-61.45)"/><ellipse class="cls-4" cx="195.21" cy="224.89" rx="0.1" ry="0.08" transform="translate(-95.62 288.9) rotate(-61.45)"/><ellipse class="cls-4" cx="202.91" cy="219.03" rx="0.1" ry="0.08" transform="translate(-86.46 292.61) rotate(-61.45)"/><ellipse class="cls-4" cx="200.8" cy="222.91" rx="0.1" ry="0.08" transform="translate(-90.96 292.78) rotate(-61.45)"/><ellipse class="cls-4" cx="199.14" cy="219.49" rx="0.1" ry="0.08" transform="translate(-88.83 289.54) rotate(-61.45)"/><polygon class="cls-4" points="91.53 129.79 97.44 124.89 100.69 118.4 102.53 125.69 102.53 132.27 94.52 135.37 91.53 129.79"/><polygon class="cls-4" points="84.61 107.27 86.3 112.9 91.03 110.41 87.82 107.67 84.61 107.27"/><polygon class="cls-4" points="102.53 98.91 107.18 93.83 106.52 99.97 101.47 102.8 102.53 98.91"/><polygon class="cls-4" points="107.2 110.42 106.94 120.3 111.69 118.4 118.53 114.69 117.06 111.6 111.66 112.6 107.2 110.42"/><polygon class="cls-4" points="112.78 100.68 112.69 106.35 118.23 107.63 112.78 100.68"/><polygon class="cls-4" points="109.73 128.78 107.58 135.94 112.87 137.18 114.13 136.3 112.37 134.62 113.31 132.98 111.23 131.89 111.23 128.78 109.73 128.78"/><polygon class="cls-4" points="91.53 116.21 91.53 118.4 93.46 118.4 93.46 116.96 94.11 116.21 91.53 116.21"/><polygon class="cls-4" points="268.14 179.69 266.14 174.61 262.46 170.97 267.8 171.34 272.26 172.79 272.58 178.9 268.14 179.69"/><polygon class="cls-4" points="251.37 179.41 255.56 179.51 254.91 175.75 252.35 177.32 251.37 179.41"/><polygon class="cls-4" points="249.66 165.43 247.25 161.15 251.26 162.96 252.06 167 249.66 165.43"/><polygon class="cls-4" points="258.49 164.81 265.13 167.16 264.88 163.52 263.88 158.07 261.47 158.39 260.95 162.26 258.49 164.81"/><polygon class="cls-4" points="253.13 158.88 256.94 160.19 259.04 156.72 253.13 158.88"/><polygon class="cls-4" points="271.49 167.14 275.86 170.18 277.86 166.87 277.55 165.82 276.02 166.65 275.12 165.65 273.92 166.82 271.81 166.13 271.49 167.14"/><polygon class="cls-4" points="258.95 176.7 260.43 177.18 260.86 175.87 259.88 175.55 259.52 174.95 258.95 176.7"/><polygon class="cls-4" points="252.64 198.4 251.49 195.5 249.39 193.42 252.44 193.63 254.98 194.46 255.17 197.95 252.64 198.4"/><polygon class="cls-4" points="243.06 198.24 245.45 198.3 245.08 196.15 243.62 197.05 243.06 198.24"/><polygon class="cls-4" points="242.08 190.26 240.71 187.81 243 188.85 243.45 191.15 242.08 190.26"/><polygon class="cls-4" points="247.12 189.9 250.91 191.25 250.77 189.17 250.2 186.06 248.82 186.24 248.53 188.45 247.12 189.9"/><polygon class="cls-4" points="244.06 186.51 246.24 187.26 247.44 185.28 244.06 186.51"/><polygon class="cls-4" points="254.54 191.24 257.04 192.97 258.18 191.08 258.01 190.48 257.13 190.95 256.62 190.38 255.93 191.05 254.73 190.66 254.54 191.24"/><polygon class="cls-4" points="247.39 196.69 248.23 196.97 248.47 196.22 247.92 196.04 247.71 195.69 247.39 196.69"/><polygon class="cls-4" points="126.64 132.4 125.49 129.5 123.39 127.42 126.44 127.63 128.98 128.46 129.17 131.95 126.64 132.4"/><polygon class="cls-4" points="117.06 132.24 119.45 132.3 119.08 130.15 117.62 131.05 117.06 132.24"/><polygon class="cls-4" points="116.08 124.26 114.71 121.81 117 122.85 117.45 125.15 116.08 124.26"/><polygon class="cls-4" points="121.12 123.9 124.91 125.25 124.77 123.17 124.2 120.06 122.82 120.24 122.53 122.45 121.12 123.9"/><polygon class="cls-4" points="118.06 120.52 120.24 121.27 121.44 119.28 118.06 120.52"/><polygon class="cls-4" points="128.54 125.24 131.04 126.97 132.18 125.08 132.01 124.48 131.13 124.95 130.62 124.38 129.93 125.05 128.73 124.66 128.54 125.24"/><polygon class="cls-4" points="121.39 130.69 122.23 130.97 122.47 130.22 121.92 130.04 121.71 129.69 121.39 130.69"/><polygon class="cls-4" points="123.65 216.37 130.52 214.07 131.21 206.52 142.32 212.51 134.95 220.61 137.68 224.86 128.75 226.73 123.65 216.37"/><polygon class="cls-4" points="146.38 217.9 145.84 225.53 151.9 223.82 154.65 219.46 150.24 220.7 146.38 217.9"/><polygon class="cls-4" points="147.17 209.4 146.1 213.42 149.84 214.65 150.24 211.79 148.21 211.36 147.17 209.4"/><path class="cls-5" d="M216.13,113.82a120.45,120.45,0,0,1,11.75-46.09l3.57,9.43,9.48-16c.59,3.29,1.19,6.59,1.78,9.89L253.44,56,256.82,65l8.65-12.66v9.32l10.83-9.32v6.71l13-6.71v6.19l14.15-6.19-5.38,10.71,13.75-1-10.58,9.74,5.29,4.87-13.27,6.08,9,3.65-11.39,4.83L287,92.91h8.11l-7.66,5.22,5.29,2L280.09,105l3.17,1.94-14.81,2,5.29,2.92-14.22,1.16,5.42,5.42a153,153,0,0,1-20.79,0A154.14,154.14,0,0,1,216.13,113.82Z"/><path class="cls-6" d="M216.16,113.43A119.24,119.24,0,0,1,190,74.17l9.32,3.63q-2.74-8.8-5.5-17.6l8.47,5.25-4-17.93,8.93,3.54-3.59-14.78,6.87,6.18.32-14.15,4.94,4.45,3.69-14L224,22.83,228.84,8.3l4.32,11.07L241.57,8.6l.16,14.25,7.1-.66L244.5,36l8.69-4.24-4,11.6-1.36,3.93,5.38-6L252,50.44l5-2.61-4.84,12.59,3.54-1.05-8.4,12.21,5.67-2-8.6,11.25,7.6-.4a154,154,0,0,1-13.8,15.32A153.44,153.44,0,0,1,216.16,113.43Z"/><path class="cls-7" d="M257.13,110.46,187.5,132.3c-.46-2.27-.91-4.55-1.37-6.82q.69-7.51,1.37-15l57.34-17.75L257.13,105Z"/><path class="cls-4" d="M257.13,105l-71,20.48V102.27l57.35-17.75Z"/><path class="cls-7" d="M249.89,104.57l-58.3,16.81V102.32l47.09-14.57Q244.27,96.17,249.89,104.57Z"/></g></svg>