<svg xmlns="http://www.w3.org/2000/svg" xmlns:xlink="http://www.w3.org/1999/xlink" width="320" height="320" viewBox="0 0 320 320"><defs><style>.cls-1{fill:url(#radial-gradient);}.cls-2{fill:url(#radial-gradient-2);}.cls-3{fill:url(#radial-gradient-3);}.cls-4{fill:url(#radial-gradient-4);}.cls-5{fill:url(#radial-gradient-5);}.cls-6{fill:#a38078;}.cls-7{opacity:0.09;}.cls-8{fill:url(#radial-gradient-6);}.cls-9{fill:#a3837e;}.cls-10{fill:url(#radial-gradient-7);}.cls-11{fill:#7c5a57;}.cls-12{fill:url(#radial-gradient-8);}.cls-13{fill:url(#radial-gradient-9);}.cls-14{fill:url(#radial-gradient-10);}</style><radialGradient id="radial-gradient" cx="160" cy="153.97" r="147.88" gradientUnits="userSpaceOnUse"><stop offset="0" stop-color="#fffdf9"/><stop offset="0.16" stop-color="#fefaf4"/><stop offset="0.35" stop-color="#fcf1e5"/><stop offset="0.56" stop-color="#f9e1cc"/><stop offset="0.78" stop-color="#f4ccaa"/><stop offset="0.8" stop-color="#f4caa6"/><stop offset="1" stop-color="#fbf7f1"/></radialGradient><radialGradient id="radial-gradient-2" cx="-121.98" cy="-3100.1" r="115.82" gradientTransform="matrix(0.98, 0.52, -0.5, 0.94, -1264.13, 3114.61)" gradientUnits="userSpaceOnUse"><stop offset="0" stop-color="#fffdf9"/><stop offset="0.15" stop-color="#fefaf4"/><stop offset="0.33" stop-color="#fcf1e5"/><stop offset="0.53" stop-color="#f9e1cc"/><stop offset="0.73" stop-color="#f4ccaa"/><stop offset="0.75" stop-color="#f4caa6"/><stop offset="0.81" stop-color="#f4cdab"/><stop offset="0.87" stop-color="#f6d6bb"/><stop offset="0.94" stop-color="#f8e6d4"/><stop offset="1" stop-color="#fbf7f1"/></radialGradient><radialGradient id="radial-gradient-3" cx="-8338.75" cy="-9283.32" r="70.69" gradientTransform="matrix(0.1, -1.03, -1.01, -0.1, -8482.36, -9343.89)" gradientUnits="userSpaceOnUse"><stop offset="0" stop-color="#f4caa6"/><stop offset="0.04" stop-color="#efc5a3"/><stop offset="0.3" stop-color="#cea790"/><stop offset="0.56" stop-color="#b69283"/><stop offset="0.8" stop-color="#a8857b"/><stop offset="1" stop-color="#a38078"/></radialGradient><radialGradient id="radial-gradient-4" cx="-536.02" cy="-3799.99" r="106.2" gradientTransform="matrix(0.95, 0.67, -0.69, 0.96, -1921.45, 4154.12)" gradientUnits="userSpaceOnUse"><stop offset="0" stop-color="#fae7d5"/><stop offset="0.63" stop-color="#f4caa6"/><stop offset="0.71" stop-color="#f5d1b2"/><stop offset="0.87" stop-color="#f8e4d1"/><stop offset="1" stop-color="#fbf7f1"/></radialGradient><radialGradient id="radial-gradient-5" cx="157.52" cy="144.7" r="107.83" gradientUnits="userSpaceOnUse"><stop offset="0" stop-color="#f7eed2"/><stop offset="0.09" stop-color="#f6e6c5"/><stop offset="0.34" stop-color="#f4d2a4"/><stop offset="0.58" stop-color="#f3c48c"/><stop offset="0.81" stop-color="#f2bb7e"/><stop offset="1" stop-color="#f2b879"/></radialGradient><radialGradient id="radial-gradient-6" cx="1306.14" cy="-568.67" fx="1317.261510062446" fy="-597.865839213155" r="58.9" gradientTransform="matrix(0.79, 0.24, -0.24, 0.76, -910.76, 188.52)" gradientUnits="userSpaceOnUse"><stop offset="0" stop-color="#f4caa6"/><stop offset="0.12" stop-color="#e2b99b"/><stop offset="0.36" stop-color="#c19a86"/><stop offset="0.6" stop-color="#a98377"/><stop offset="0.81" stop-color="#9b766e"/><stop offset="1" stop-color="#96716b"/></radialGradient><radialGradient id="radial-gradient-7" cx="249.98" cy="95.69" fx="249.97965007009407" fy="79.62021130825438" r="32.42" gradientTransform="matrix(1, 0, 0, 1, 0, 0)" xlink:href="#radial-gradient-6"/><radialGradient id="radial-gradient-8" cx="247.73" cy="122.01" r="19" xlink:href="#radial-gradient-5"/><radialGradient id="radial-gradient-9" cx="220.55" cy="-533.61" r="35.56" gradientTransform="translate(0 1048.13) scale(1 1.46)" xlink:href="#radial-gradient-3"/><radialGradient id="radial-gradient-10" cx="122.75" cy="52.21" r="38.84" gradientTransform="matrix(1, 0, 0, 1, 0, 0)" xlink:href="#radial-gradient-3"/></defs><g id="Layer_2" data-name="Layer 2"><path class="cls-1" d="M310.07,149.33c.24,31.55-12.85,56.43-21.61,70a15.36,15.36,0,0,1-1.39,10c-1.13,2.08-2,2.29-7,7-5.66,5.33-5.93,6.37-8,7-1.51.46-5.2,1.08-11-3l-17.88,26.18a24.51,24.51,0,0,0-4.12,3.82c-2.43,2.85-2.81,4.66-4,6-1.64,1.84-5.23,3.32-14,1.32L212.39,282a76.7,76.7,0,0,1-8.32,8.31c-5.63,4.82-9.38,8-14,9-9.89,2.07-19.15-7.09-21-9a44.21,44.21,0,0,1-9,0,46.16,46.16,0,0,1-20-7l-49-18c-6.7-4.48-12.19-7.78-16-10-5.55-3.21-9.53-5.26-12-10a17.85,17.85,0,0,1-1.93-6.78q-4.68-5.7-9.37-11.38a61.81,61.81,0,0,1-9.7-7.84c-4.11-4.06-12.08-11.94-14-23-.78-4.44,0-5.94,1-15a200.52,200.52,0,0,0,1-27q-1-2.49-2-5a12.09,12.09,0,0,1-9,2,11.73,11.73,0,0,1-9-9c-.88-4.71,2.78-6,5-13,3.59-11.31-2.6-18.75,2-23,3.36-3.11,8.6-.92,10-4,1.05-2.33-1.76-4-2-8-.3-4.81,3.47-7.09,8-14,2.7-4.13,1.35-3.32,7-15,7.25-15,9.49-16.38,11-17S57.83,46,67,52.06C78,41.4,115.78,7.36,169.07,8.33,244,9.7,309.51,79.56,310.07,149.33Z"/><path class="cls-2" d="M272.72,201.38c-23,43.65-74.8,68.71-128.94,61.83a41.32,41.32,0,0,1-20.53-1.82c-8.66-3.18-13.76-8.7-17.6-12.71-21.79-22.83-23.63-19.08-32.82-31-6.29-8.14-18.13-26.34-21-57.1-3.8,5.3-8.32,8.22-11.42,7.14-2.73-1-3.54-4.73-4.67-10.4-.93-4.62-2.09-13.28.16-25.94a92.92,92.92,0,0,1,3-12c-2.85-6.64-2.14-10.62-1-13,2.17-4.66,6.13-3.78,9.62-9.61,2.58-4.31,3.07-9.23,3.44-12.9a49,49,0,0,0,.15-6.7,55.18,55.18,0,0,1,3.6-19.6,17.4,17.4,0,0,0,7.27-5.2c2.43-3,2.34-5.25,3.75-7.07,1.89-2.44,6.67-4.39,19.93-1.19C88.35,42.43,155,2.53,218,36.59,273.77,66.75,303.79,142.53,272.72,201.38Z"/><path class="cls-3" d="M47.78,172.89c12.63-.51,17.15-36.73,28.94-36.66,3.9,0,4.23,4.05,10.25,5.05,9.31,1.55,17.87-6,20.22-8.27,11.51-11.06,7.39-22.64,14.51-25.8,11.58-5.14,33.48,20.64,35.79,18.33,1.42-1.41-7.81-10.08-5.17-16.11,2-4.56,8.77-3,18.1-7.12,3.09-1.35,16.71-7.67,21.43-21.06,5.59-15.87-4.67-32.06-5.7-31.79-.78.2,3.69,9.7.62,21.79-.61,2.4-4.77,17-16.12,21.57-10.85,4.42-23.35-3.73-24.71-1-1.12,2.27,7.61,7.41,6.35,10.79-1,2.67-7.7,3-12.94,2.17-15.9-2.35-22.33-15-26.94-12.74-4.77,2.38,2.45,15.82-4.74,28.76-3.72,6.7-11.19,13.08-19.4,13.79-7.36.64-10.23-3.72-21.47-6.79-9.36-2.55-15.8,2.49-20.6-1.95-2.4-2.22-3-5-5.53-5.28s-5.8,2.26-5.82,4.88c0,3,4.06,4.85,4.87,5.22,4.87,2.24,7.58-.54,14.67.71.44.08,8.11,1.48,8.32,4.19.13,1.59-2.44,2.27-6.55,5.49-2.5,1.95-10.11,7.91-9.31,13.38.31,2.17,1.71,2.6,1.54,4.9a7.44,7.44,0,0,1-3.89,5.75c-3.22,1.7-6.42-.06-6.77.72C37.23,166.93,42.47,173.11,47.78,172.89Z"/><path class="cls-4" d="M277,209.67c-29.15,41-83.14,60.6-134.42,48.19A38.65,38.65,0,0,1,123,253.93c-7.88-4.05-11.94-10.06-15-14.45-17.49-24.94-19.86-21.41-26.88-34.17-4.8-8.74-13.4-28.05-11.3-58.93-4.51,4.87-9.33,7.31-12.16,5.92-2.49-1.23-2.68-5.06-2.89-10.82-.17-4.69.06-13.42,4.23-25.78a101.36,101.36,0,0,1,4.75-11.63c-1.71-6.89-.4-10.78,1-13,2.83-4.42,6.52-3.13,10.82-8.57C78.78,78.45,80,73.62,81,70a52.24,52.24,0,0,0,1.21-6.65,58.55,58.55,0,0,1,6.55-19.12,18.27,18.27,0,0,0,7.86-4.42c2.82-2.75,3.08-5,4.73-6.64,2.21-2.23,7.14-3.68,19.46.87C123.67,32.64,194.39-.16,250,40.2,299.16,75.93,316.3,154.36,277,209.67Z"/><path class="cls-5" d="M57.07,233.33c2.5-18.76,56.45-20.39,58-38,.5-5.81-5.37-6.88-6-16-1-14.11,11.34-25.81,15-29,17.88-15.61,34.35-7.82,40-18,9.18-16.55-25.73-52.87-22-56,2.28-1.91,13.75,13.08,23,10,7-2.33,5.67-12.65,13-26,2.42-4.42,13.63-23.85,34-29,24.13-6.1,46.53,11.5,46,13-.41,1.13-13.77-6.87-32-4-3.62.57-25.61,4.71-34,21-8,15.56,2.23,35.37-2,37-3.5,1.35-9.85-12.4-15-11-4.07,1.11-5.42,11.08-5,19,1.24,24.06,19,35.45,15,42-4.17,6.79-22.94-5.89-43,3-10.39,4.61-20.81,14.86-23,27-2,10.9,4,15.79,7,33,2.45,14.32-5.88,23.21,0,31,2.93,3.9,7,5.17,7,9s-4.14,8.34-8,8c-4.38-.38-6.57-6.74-7-8-2.62-7.59,1.84-11.23,1-22-.06-.66-1-12.29-5-13-2.33-.41-3.69,3.32-9,9-3.23,3.45-13.06,14-21,12-3.15-.77-3.59-2.92-7-3a11,11,0,0,0-9,5c-2.95,4.57-.81,9.59-2,10C64.37,249.92,56,241.23,57.07,233.33Z"/><circle class="cls-6" cx="81.43" cy="102.86" r="1.77"/><circle class="cls-6" cx="175.03" cy="158.88" r="0.8"/><circle class="cls-6" cx="143.21" cy="147.56" r="0.8"/><circle class="cls-6" cx="170.08" cy="79.68" r="0.8"/><circle class="cls-6" cx="176.45" cy="127.05" r="0.8"/><circle class="cls-6" cx="163.01" cy="146.15" r="0.8"/><circle class="cls-6" cx="129.07" cy="158.17" r="0.8"/><circle class="cls-6" cx="151.7" cy="86.75" r="0.8"/><circle class="cls-6" cx="130.48" cy="116.45" r="0.8"/><circle class="cls-6" cx="192.01" cy="100.89" r="0.8"/><ellipse class="cls-6" cx="151.04" cy="133.77" rx="0.14" ry="0.16"/><ellipse class="cls-6" cx="150.33" cy="116.09" rx="0.14" ry="0.16"/><ellipse class="cls-6" cx="150.33" cy="121.75" rx="0.14" ry="0.16"/><ellipse class="cls-6" cx="155.28" cy="113.97" rx="0.14" ry="0.16"/><ellipse class="cls-6" cx="148.21" cy="111.14" rx="0.14" ry="0.16"/><ellipse class="cls-6" cx="143.97" cy="115.39" rx="0.14" ry="0.16"/><ellipse class="cls-6" cx="150.33" cy="127.41" rx="0.14" ry="0.16"/><ellipse class="cls-6" cx="160.23" cy="116.09" rx="0.14" ry="0.16"/><ellipse class="cls-6" cx="150.33" cy="101.24" rx="0.14" ry="0.16"/><ellipse class="cls-6" cx="142.55" cy="113.97" rx="0.14" ry="0.16"/><ellipse class="cls-6" cx="128.41" cy="130.24" rx="0.14" ry="0.16"/><ellipse class="cls-6" cx="142.55" cy="102.66" rx="0.14" ry="0.16"/><ellipse class="cls-6" cx="150.33" cy="108.32" rx="0.14" ry="0.16"/><ellipse class="cls-6" cx="119.92" cy="113.97" rx="0.14" ry="0.16"/><ellipse class="cls-6" cx="123.46" cy="116.8" rx="0.14" ry="0.16"/><ellipse class="cls-6" cx="124.87" cy="111.14" rx="0.14" ry="0.16"/><ellipse class="cls-6" cx="145.38" cy="104.78" rx="0.14" ry="0.16"/><ellipse class="cls-6" cx="133.36" cy="122.46" rx="0.14" ry="0.16"/><ellipse class="cls-6" cx="169.42" cy="116.09" rx="0.14" ry="0.16"/><ellipse class="cls-6" cx="163.06" cy="135.89" rx="0.14" ry="0.16"/><ellipse class="cls-6" cx="176.49" cy="111.85" rx="0.14" ry="0.16"/><ellipse class="cls-6" cx="159.52" cy="119.63" rx="0.14" ry="0.16"/><circle class="cls-6" cx="144.63" cy="122.1" r="0.8"/><circle class="cls-6" cx="154.53" cy="107.25" r="0.8"/><circle class="cls-6" cx="133.05" cy="101.44" r="1.77"/><circle class="cls-6" cx="169.82" cy="104.98" r="1.77"/><circle class="cls-6" cx="136.59" cy="133.97" r="1.77"/><circle class="cls-6" cx="123.26" cy="139.05" r="0.8"/><circle class="cls-6" cx="99.92" cy="114.64" r="0.8"/><circle class="cls-6" cx="148.08" cy="73.86" r="0.8"/><circle class="cls-6" cx="138.83" cy="111.26" r="0.8"/><circle class="cls-6" cx="118.24" cy="122.28" r="0.8"/><circle class="cls-6" cx="82.52" cy="117.75" r="0.8"/><circle class="cls-6" cx="134.84" cy="64.13" r="0.8"/><circle class="cls-6" cx="102.54" cy="81.12" r="0.8"/><circle class="cls-6" cx="164.49" cy="94.89" r="0.8"/><circle class="cls-6" cx="123.36" cy="99.52" r="0.8"/><circle class="cls-6" cx="111.58" cy="68.87" r="1.77"/><circle class="cls-6" cx="142.83" cy="88.56" r="1.77"/><circle class="cls-6" cx="100.11" cy="99.52" r="1.77"/><circle class="cls-6" cx="124.35" cy="123.68" r="0.8"/><circle class="cls-6" cx="105.96" cy="130.75" r="0.8"/><circle class="cls-6" cx="108.71" cy="110.09" r="0.8"/><circle class="cls-6" cx="89.11" cy="108.14" r="0.8"/><circle class="cls-6" cx="118.75" cy="138.89" r="0.8"/><circle class="cls-6" cx="97.1" cy="132.57" r="1.77"/><ellipse class="cls-6" cx="200.07" cy="132.77" rx="0.14" ry="0.16"/><ellipse class="cls-6" cx="131.81" cy="91.18" rx="0.14" ry="0.16"/><ellipse class="cls-6" cx="127.57" cy="95.42" rx="0.14" ry="0.16"/><ellipse class="cls-6" cx="126.16" cy="94.01" rx="0.14" ry="0.16"/><ellipse class="cls-6" cx="126.16" cy="82.69" rx="0.14" ry="0.16"/><ellipse class="cls-6" cx="128.98" cy="84.81" rx="0.14" ry="0.16"/><ellipse class="cls-6" cx="116.26" cy="90.47" rx="0.14" ry="0.16"/><ellipse class="cls-6" cx="112.01" cy="94.71" rx="0.14" ry="0.16"/><ellipse class="cls-6" cx="110.6" cy="93.3" rx="0.14" ry="0.16"/><ellipse class="cls-6" cx="110.6" cy="81.98" rx="0.14" ry="0.16"/><ellipse class="cls-6" cx="113.43" cy="84.11" rx="0.14" ry="0.16"/><ellipse class="cls-6" cx="131.99" cy="91.53" rx="0.14" ry="0.16"/><ellipse class="cls-6" cx="129.86" cy="86.58" rx="0.14" ry="0.16"/><ellipse class="cls-6" cx="125.62" cy="90.82" rx="0.14" ry="0.16"/><ellipse class="cls-6" cx="131.99" cy="76.68" rx="0.14" ry="0.16"/><ellipse class="cls-6" cx="124.21" cy="89.41" rx="0.14" ry="0.16"/><ellipse class="cls-6" cx="124.21" cy="78.1" rx="0.14" ry="0.16"/><ellipse class="cls-6" cx="131.99" cy="83.75" rx="0.14" ry="0.16"/><ellipse class="cls-6" cx="127.04" cy="80.22" rx="0.14" ry="0.16"/><circle class="cls-6" cx="136.18" cy="82.69" r="0.8"/><circle class="cls-6" cx="120.48" cy="86.7" r="0.8"/><ellipse class="cls-6" cx="159.62" cy="85.33" rx="0.14" ry="0.16"/><ellipse class="cls-6" cx="157.5" cy="80.38" rx="0.14" ry="0.16"/><ellipse class="cls-6" cx="153.26" cy="84.62" rx="0.14" ry="0.16"/><ellipse class="cls-6" cx="159.62" cy="70.48" rx="0.14" ry="0.16"/><ellipse class="cls-6" cx="151.84" cy="83.21" rx="0.14" ry="0.16"/><ellipse class="cls-6" cx="151.84" cy="71.89" rx="0.14" ry="0.16"/><ellipse class="cls-6" cx="159.62" cy="77.55" rx="0.14" ry="0.16"/><ellipse class="cls-6" cx="154.67" cy="74.01" rx="0.14" ry="0.16"/><circle class="cls-6" cx="148.12" cy="80.5" r="0.8"/><ellipse class="cls-6" cx="162.32" cy="95.93" rx="0.14" ry="0.16"/><ellipse class="cls-6" cx="160.2" cy="90.98" rx="0.14" ry="0.16"/><ellipse class="cls-6" cx="155.96" cy="95.23" rx="0.14" ry="0.16"/><ellipse class="cls-6" cx="162.32" cy="81.08" rx="0.14" ry="0.16"/><ellipse class="cls-6" cx="162.32" cy="88.16" rx="0.14" ry="0.16"/><ellipse class="cls-6" cx="157.37" cy="84.62" rx="0.14" ry="0.16"/><ellipse class="cls-6" cx="143.23" cy="105.13" rx="0.14" ry="0.16"/><ellipse class="cls-6" cx="141.11" cy="100.18" rx="0.14" ry="0.16"/><ellipse class="cls-6" cx="136.87" cy="104.42" rx="0.14" ry="0.16"/><ellipse class="cls-6" cx="143.23" cy="90.28" rx="0.14" ry="0.16"/><ellipse class="cls-6" cx="143.23" cy="97.35" rx="0.14" ry="0.16"/><ellipse class="cls-6" cx="138.28" cy="93.81" rx="0.14" ry="0.16"/><circle class="cls-6" cx="141.43" cy="169.86" r="1.77"/><circle class="cls-6" cx="235.03" cy="225.88" r="0.8"/><circle class="cls-6" cx="203.21" cy="214.56" r="0.8"/><circle class="cls-6" cx="230.08" cy="146.68" r="0.8"/><circle class="cls-6" cx="236.45" cy="194.05" r="0.8"/><circle class="cls-6" cx="223.01" cy="213.15" r="0.8"/><circle class="cls-6" cx="189.07" cy="225.17" r="0.8"/><circle class="cls-6" cx="211.7" cy="153.75" r="0.8"/><circle class="cls-6" cx="190.48" cy="183.45" r="0.8"/><circle class="cls-6" cx="252.01" cy="167.89" r="0.8"/><ellipse class="cls-6" cx="211.04" cy="200.77" rx="0.14" ry="0.16"/><ellipse class="cls-6" cx="210.33" cy="183.09" rx="0.14" ry="0.16"/><ellipse class="cls-6" cx="210.33" cy="188.75" rx="0.14" ry="0.16"/><ellipse class="cls-6" cx="215.28" cy="180.97" rx="0.14" ry="0.16"/><ellipse class="cls-6" cx="208.21" cy="178.14" rx="0.14" ry="0.16"/><ellipse class="cls-6" cx="203.97" cy="182.39" rx="0.14" ry="0.16"/><ellipse class="cls-6" cx="210.33" cy="194.41" rx="0.14" ry="0.16"/><ellipse class="cls-6" cx="220.23" cy="183.09" rx="0.14" ry="0.16"/><ellipse class="cls-6" cx="210.33" cy="168.24" rx="0.14" ry="0.16"/><ellipse class="cls-6" cx="202.55" cy="180.97" rx="0.14" ry="0.16"/><ellipse class="cls-6" cx="188.41" cy="197.24" rx="0.14" ry="0.16"/><ellipse class="cls-6" cx="202.55" cy="169.66" rx="0.14" ry="0.16"/><ellipse class="cls-6" cx="210.33" cy="175.32" rx="0.14" ry="0.16"/><ellipse class="cls-6" cx="179.92" cy="180.97" rx="0.14" ry="0.16"/><ellipse class="cls-6" cx="183.46" cy="183.8" rx="0.14" ry="0.16"/><ellipse class="cls-6" cx="184.87" cy="178.14" rx="0.14" ry="0.16"/><ellipse class="cls-6" cx="205.38" cy="171.78" rx="0.14" ry="0.16"/><ellipse class="cls-6" cx="193.36" cy="189.46" rx="0.14" ry="0.16"/><ellipse class="cls-6" cx="229.42" cy="183.09" rx="0.14" ry="0.16"/><ellipse class="cls-6" cx="223.06" cy="202.89" rx="0.14" ry="0.16"/><ellipse class="cls-6" cx="236.49" cy="178.85" rx="0.14" ry="0.16"/><ellipse class="cls-6" cx="219.52" cy="186.63" rx="0.14" ry="0.16"/><circle class="cls-6" cx="204.63" cy="189.1" r="0.8"/><circle class="cls-6" cx="214.53" cy="174.25" r="0.8"/><circle class="cls-6" cx="193.05" cy="168.44" r="1.77"/><circle class="cls-6" cx="229.82" cy="171.98" r="1.77"/><circle class="cls-6" cx="196.59" cy="200.97" r="1.77"/><circle class="cls-6" cx="183.26" cy="206.05" r="0.8"/><circle class="cls-6" cx="159.92" cy="181.64" r="0.8"/><circle class="cls-6" cx="208.08" cy="140.86" r="0.8"/><circle class="cls-6" cx="198.83" cy="178.26" r="0.8"/><circle class="cls-6" cx="178.24" cy="189.28" r="0.8"/><circle class="cls-6" cx="142.52" cy="184.75" r="0.8"/><circle class="cls-6" cx="194.84" cy="131.13" r="0.8"/><circle class="cls-6" cx="162.54" cy="148.12" r="0.8"/><circle class="cls-6" cx="224.49" cy="161.89" r="0.8"/><circle class="cls-6" cx="183.36" cy="166.52" r="0.8"/><circle class="cls-6" cx="171.58" cy="135.87" r="1.77"/><circle class="cls-6" cx="202.83" cy="155.56" r="1.77"/><circle class="cls-6" cx="160.11" cy="166.52" r="1.77"/><circle class="cls-6" cx="184.35" cy="190.68" r="0.8"/><circle class="cls-6" cx="165.96" cy="197.75" r="0.8"/><circle class="cls-6" cx="168.71" cy="177.09" r="0.8"/><circle class="cls-6" cx="149.11" cy="175.14" r="0.8"/><circle class="cls-6" cx="178.75" cy="205.89" r="0.8"/><circle class="cls-6" cx="157.1" cy="199.57" r="1.77"/><ellipse class="cls-6" cx="260.07" cy="199.77" rx="0.14" ry="0.16"/><ellipse class="cls-6" cx="191.81" cy="158.18" rx="0.14" ry="0.16"/><ellipse class="cls-6" cx="187.57" cy="162.42" rx="0.14" ry="0.16"/><ellipse class="cls-6" cx="186.16" cy="161.01" rx="0.14" ry="0.16"/><ellipse class="cls-6" cx="186.16" cy="149.69" rx="0.14" ry="0.16"/><ellipse class="cls-6" cx="188.98" cy="151.81" rx="0.14" ry="0.16"/><ellipse class="cls-6" cx="176.26" cy="157.47" rx="0.14" ry="0.16"/><ellipse class="cls-6" cx="172.01" cy="161.71" rx="0.14" ry="0.16"/><ellipse class="cls-6" cx="170.6" cy="160.3" rx="0.14" ry="0.16"/><ellipse class="cls-6" cx="170.6" cy="148.98" rx="0.14" ry="0.16"/><ellipse class="cls-6" cx="173.43" cy="151.11" rx="0.14" ry="0.16"/><ellipse class="cls-6" cx="191.99" cy="158.53" rx="0.14" ry="0.16"/><ellipse class="cls-6" cx="189.86" cy="153.58" rx="0.14" ry="0.16"/><ellipse class="cls-6" cx="185.62" cy="157.82" rx="0.14" ry="0.16"/><ellipse class="cls-6" cx="191.99" cy="143.68" rx="0.14" ry="0.16"/><ellipse class="cls-6" cx="184.21" cy="156.41" rx="0.14" ry="0.16"/><ellipse class="cls-6" cx="184.21" cy="145.1" rx="0.14" ry="0.16"/><ellipse class="cls-6" cx="191.99" cy="150.75" rx="0.14" ry="0.16"/><ellipse class="cls-6" cx="187.04" cy="147.22" rx="0.14" ry="0.16"/><circle class="cls-6" cx="196.18" cy="149.69" r="0.8"/><circle class="cls-6" cx="180.48" cy="153.7" r="0.8"/><ellipse class="cls-6" cx="219.62" cy="152.33" rx="0.14" ry="0.16"/><ellipse class="cls-6" cx="217.5" cy="147.38" rx="0.14" ry="0.16"/><ellipse class="cls-6" cx="213.26" cy="151.62" rx="0.14" ry="0.16"/><ellipse class="cls-6" cx="219.62" cy="137.48" rx="0.14" ry="0.16"/><ellipse class="cls-6" cx="211.84" cy="150.21" rx="0.14" ry="0.16"/><ellipse class="cls-6" cx="211.84" cy="138.89" rx="0.14" ry="0.16"/><ellipse class="cls-6" cx="219.62" cy="144.55" rx="0.14" ry="0.16"/><ellipse class="cls-6" cx="214.67" cy="141.01" rx="0.14" ry="0.16"/><circle class="cls-6" cx="208.12" cy="147.5" r="0.8"/><ellipse class="cls-6" cx="222.32" cy="162.93" rx="0.14" ry="0.16"/><ellipse class="cls-6" cx="220.2" cy="157.98" rx="0.14" ry="0.16"/><ellipse class="cls-6" cx="215.96" cy="162.23" rx="0.14" ry="0.16"/><ellipse class="cls-6" cx="222.32" cy="148.08" rx="0.14" ry="0.16"/><ellipse class="cls-6" cx="222.32" cy="155.16" rx="0.14" ry="0.16"/><ellipse class="cls-6" cx="217.37" cy="151.62" rx="0.14" ry="0.16"/><ellipse class="cls-6" cx="203.23" cy="172.13" rx="0.14" ry="0.16"/><ellipse class="cls-6" cx="201.11" cy="167.18" rx="0.14" ry="0.16"/><ellipse class="cls-6" cx="196.87" cy="171.42" rx="0.14" ry="0.16"/><ellipse class="cls-6" cx="203.23" cy="157.28" rx="0.14" ry="0.16"/><ellipse class="cls-6" cx="203.23" cy="164.35" rx="0.14" ry="0.16"/><ellipse class="cls-6" cx="198.28" cy="160.81" rx="0.14" ry="0.16"/><circle class="cls-6" cx="179.8" cy="103.19" r="1.14"/><circle class="cls-6" cx="239.9" cy="139.16" r="0.51"/><circle class="cls-6" cx="219.47" cy="131.9" r="0.51"/><circle class="cls-6" cx="236.72" cy="88.31" r="0.51"/><circle class="cls-6" cx="240.81" cy="118.73" r="0.51"/><circle class="cls-6" cx="232.18" cy="130.99" r="0.51"/><circle class="cls-6" cx="210.39" cy="138.71" r="0.51"/><circle class="cls-6" cx="224.92" cy="92.85" r="0.51"/><circle class="cls-6" cx="211.3" cy="111.92" r="0.51"/><circle class="cls-6" cx="250.8" cy="101.93" r="0.51"/><ellipse class="cls-6" cx="224.49" cy="123.04" rx="0.09" ry="0.1"/><ellipse class="cls-6" cx="224.04" cy="111.69" rx="0.09" ry="0.1"/><ellipse class="cls-6" cx="224.04" cy="115.32" rx="0.09" ry="0.1"/><ellipse class="cls-6" cx="227.22" cy="110.33" rx="0.09" ry="0.1"/><ellipse class="cls-6" cx="222.68" cy="108.51" rx="0.09" ry="0.1"/><ellipse class="cls-6" cx="219.95" cy="111.24" rx="0.09" ry="0.1"/><ellipse class="cls-6" cx="224.04" cy="118.96" rx="0.09" ry="0.1"/><ellipse class="cls-6" cx="230.4" cy="111.69" rx="0.09" ry="0.1"/><ellipse class="cls-6" cx="224.04" cy="102.15" rx="0.09" ry="0.1"/><ellipse class="cls-6" cx="219.04" cy="110.33" rx="0.09" ry="0.1"/><ellipse class="cls-6" cx="209.96" cy="120.77" rx="0.09" ry="0.1"/><ellipse class="cls-6" cx="219.04" cy="103.06" rx="0.09" ry="0.1"/><ellipse class="cls-6" cx="224.04" cy="106.7" rx="0.09" ry="0.1"/><ellipse class="cls-6" cx="204.51" cy="110.33" rx="0.09" ry="0.1"/><ellipse class="cls-6" cx="206.78" cy="112.14" rx="0.09" ry="0.1"/><ellipse class="cls-6" cx="207.69" cy="108.51" rx="0.09" ry="0.1"/><ellipse class="cls-6" cx="220.86" cy="104.43" rx="0.09" ry="0.1"/><ellipse class="cls-6" cx="213.14" cy="115.78" rx="0.09" ry="0.1"/><ellipse class="cls-6" cx="236.3" cy="111.69" rx="0.09" ry="0.1"/><ellipse class="cls-6" cx="232.21" cy="124.4" rx="0.09" ry="0.1"/><ellipse class="cls-6" cx="240.84" cy="108.97" rx="0.09" ry="0.1"/><ellipse class="cls-6" cx="229.94" cy="113.96" rx="0.09" ry="0.1"/><circle class="cls-6" cx="220.38" cy="115.55" r="0.51"/><circle class="cls-6" cx="226.73" cy="106.01" r="0.51"/><circle class="cls-6" cx="212.94" cy="102.28" r="1.14"/><circle class="cls-6" cx="236.56" cy="104.55" r="1.14"/><circle class="cls-6" cx="215.21" cy="123.17" r="1.14"/><circle class="cls-6" cx="206.66" cy="126.43" r="0.51"/><circle class="cls-6" cx="191.67" cy="110.75" r="0.51"/><circle class="cls-6" cx="222.6" cy="84.57" r="0.51"/><circle class="cls-6" cx="216.65" cy="108.59" r="0.51"/><circle class="cls-6" cx="203.43" cy="115.66" r="0.51"/><circle class="cls-6" cx="180.5" cy="112.76" r="0.51"/><circle class="cls-6" cx="214.09" cy="78.32" r="0.51"/><circle class="cls-6" cx="193.35" cy="89.23" r="0.51"/><circle class="cls-6" cx="233.13" cy="98.07" r="0.51"/><circle class="cls-6" cx="206.72" cy="101.05" r="0.51"/><circle class="cls-6" cx="199.16" cy="81.37" r="1.14"/><circle class="cls-6" cx="219.23" cy="94.01" r="1.14"/><circle class="cls-6" cx="191.79" cy="101.05" r="1.14"/><circle class="cls-6" cx="207.36" cy="116.56" r="0.51"/><circle class="cls-6" cx="195.55" cy="121.1" r="0.51"/><circle class="cls-6" cx="197.31" cy="107.83" r="0.51"/><circle class="cls-6" cx="184.73" cy="106.58" r="0.51"/><circle class="cls-6" cx="203.76" cy="126.33" r="0.51"/><circle class="cls-6" cx="189.86" cy="122.27" r="1.14"/><ellipse class="cls-6" cx="255.98" cy="122.4" rx="0.09" ry="0.1"/><ellipse class="cls-6" cx="212.15" cy="95.69" rx="0.09" ry="0.1"/><ellipse class="cls-6" cx="209.42" cy="98.42" rx="0.09" ry="0.1"/><ellipse class="cls-6" cx="208.52" cy="97.51" rx="0.09" ry="0.1"/><ellipse class="cls-6" cx="208.52" cy="90.24" rx="0.09" ry="0.1"/><ellipse class="cls-6" cx="210.33" cy="91.6" rx="0.09" ry="0.1"/><ellipse class="cls-6" cx="202.16" cy="95.24" rx="0.09" ry="0.1"/><ellipse class="cls-6" cx="199.43" cy="97.96" rx="0.09" ry="0.1"/><ellipse class="cls-6" cx="198.53" cy="97.05" rx="0.09" ry="0.1"/><ellipse class="cls-6" cx="198.53" cy="89.79" rx="0.09" ry="0.1"/><ellipse class="cls-6" cx="200.34" cy="91.15" rx="0.09" ry="0.1"/><ellipse class="cls-6" cx="212.26" cy="95.92" rx="0.09" ry="0.1"/><ellipse class="cls-6" cx="210.9" cy="92.74" rx="0.09" ry="0.1"/><ellipse class="cls-6" cx="208.17" cy="95.46" rx="0.09" ry="0.1"/><ellipse class="cls-6" cx="212.26" cy="86.38" rx="0.09" ry="0.1"/><ellipse class="cls-6" cx="207.26" cy="94.56" rx="0.09" ry="0.1"/><ellipse class="cls-6" cx="207.26" cy="87.29" rx="0.09" ry="0.1"/><ellipse class="cls-6" cx="212.26" cy="90.92" rx="0.09" ry="0.1"/><ellipse class="cls-6" cx="209.08" cy="88.65" rx="0.09" ry="0.1"/><circle class="cls-6" cx="214.96" cy="90.24" r="0.51"/><circle class="cls-6" cx="204.87" cy="92.82" r="0.51"/><ellipse class="cls-6" cx="230.01" cy="91.93" rx="0.09" ry="0.1"/><ellipse class="cls-6" cx="228.64" cy="88.76" rx="0.09" ry="0.1"/><ellipse class="cls-6" cx="225.92" cy="91.48" rx="0.09" ry="0.1"/><ellipse class="cls-6" cx="230.01" cy="82.4" rx="0.09" ry="0.1"/><ellipse class="cls-6" cx="225.01" cy="90.57" rx="0.09" ry="0.1"/><ellipse class="cls-6" cx="225.01" cy="83.31" rx="0.09" ry="0.1"/><ellipse class="cls-6" cx="230.01" cy="86.94" rx="0.09" ry="0.1"/><ellipse class="cls-6" cx="226.83" cy="84.67" rx="0.09" ry="0.1"/><circle class="cls-6" cx="222.62" cy="88.83" r="0.51"/><ellipse class="cls-6" cx="231.74" cy="98.75" rx="0.09" ry="0.1"/><ellipse class="cls-6" cx="230.38" cy="95.57" rx="0.09" ry="0.1"/><ellipse class="cls-6" cx="227.65" cy="98.29" rx="0.09" ry="0.1"/><ellipse class="cls-6" cx="231.74" cy="89.21" rx="0.09" ry="0.1"/><ellipse class="cls-6" cx="231.74" cy="93.75" rx="0.09" ry="0.1"/><ellipse class="cls-6" cx="228.56" cy="91.48" rx="0.09" ry="0.1"/><ellipse class="cls-6" cx="219.48" cy="104.65" rx="0.09" ry="0.1"/><ellipse class="cls-6" cx="218.12" cy="101.47" rx="0.09" ry="0.1"/><ellipse class="cls-6" cx="215.39" cy="104.19" rx="0.09" ry="0.1"/><ellipse class="cls-6" cx="219.48" cy="95.11" rx="0.09" ry="0.1"/><ellipse class="cls-6" cx="219.48" cy="99.65" rx="0.09" ry="0.1"/><ellipse class="cls-6" cx="216.3" cy="97.38" rx="0.09" ry="0.1"/><path class="cls-7" d="M300.25,115.44c-.68,2.19-8.44,1.74-15,1,1.91,2.44,4,5.91,3,9-1.19,3.72-6.76,6.78-42,8-21.47.74-41.19,1.34-42-3-.21-1.12.94-2,3-4a105.1,105.1,0,0,0,15-18,71.41,71.41,0,0,1-23-1c-11.57-2.45-16.54-6.68-18-8-.88-.8-1.56-1.51-2-2,16.06-6.09,40.08-12,67.5-7C274.44,95.51,301.62,111,300.25,115.44Z"/><path class="cls-8" d="M300.43,115c-1.3-29.07-17.63-51-40.38-54.28-17.67-2.54-36.32,6.57-50,23.4a16.72,16.72,0,0,0-8.15-3.59c-9.29-1.33-19.24,5.17-24.69,16.14L199.89,100h0Z"/><path class="cls-9" d="M274.31,66.77c-.05-.07-.2-.19-.2-.13l.21.25Z"/><path class="cls-9" d="M273.64,66.6a1.56,1.56,0,0,0,.48.57c-.19-.26-.09-.18-.32-.48,0-.06.14,0,.22.1,0-.07.11,0,0-.17s-.29-.07-.2.13C273.73,66.72,273.68,66.64,273.64,66.6Z"/><path class="cls-9" d="M270,69.79H270A0,0,0,0,0,270,69.79Z"/><path class="cls-9" d="M267.77,71.85s0,0,0-.07A.09.09,0,0,0,267.77,71.85Z"/><path class="cls-9" d="M267.38,71.73h0S267.37,71.7,267.38,71.73Z"/><path class="cls-9" d="M270,69.79h-.13C269.89,69.85,269.9,69.8,270,69.79Z"/><path class="cls-9" d="M273.76,67.63a.23.23,0,0,0,0-.09v.06Z"/><path class="cls-9" d="M270.66,68.64v0l-.08-.11Z"/><path class="cls-9" d="M271.31,67.86s.18.21.26.3c-.07-.09-.1-.14-.1-.17Z"/><path class="cls-9" d="M272.78,67v0Z"/><path class="cls-9" d="M270.11,69.13l-.07-.06Z"/><path class="cls-9" d="M246.23,63.92l0,0S246.23,63.91,246.23,63.92Z"/><polygon class="cls-9" points="246.62 62.14 246.64 62.14 246.77 62.05 246.62 62.14"/><path class="cls-9" d="M267.07,71.41h0Z"/><path class="cls-9" d="M258.71,70.11c.05.26-.21.28-.12.59C258.6,70.58,258.8,70.29,258.71,70.11Z"/><path class="cls-9" d="M273.72,67.63l0,0S273.72,67.64,273.72,67.63Z"/><path class="cls-9" d="M258.59,70.7h0v0Z"/><path class="cls-9" d="M265.07,71.22v.13A.55.55,0,0,0,265.07,71.22Z"/><path class="cls-9" d="M266.58,71.9l0,0S266.57,71.9,266.58,71.9Z"/><path class="cls-9" d="M264.18,71.46s0-.06-.06,0v0S264.16,71.41,264.18,71.46Z"/><path class="cls-9" d="M263.32,71.31v.06h0Z"/><path class="cls-9" d="M247.94,65.94l.18-.19C248,65.89,247.83,65.83,247.94,65.94Z"/><path class="cls-9" d="M273.65,67.53c.05,0,.07.08.07.1v0Z"/><path class="cls-9" d="M263.74,73.64l-.12-.07A.21.21,0,0,0,263.74,73.64Z"/><path class="cls-9" d="M252.19,71.08h-.06S252.16,71.1,252.19,71.08Z"/><path class="cls-9" d="M263.2,73.54a.43.43,0,0,0,0-.2.33.33,0,0,0,0,.06Z"/><path class="cls-9" d="M248.12,65.75Z"/><path class="cls-9" d="M247,65.43c.07.11.32-.17.51-.27.18.06-.17.22-.29.38.14,0,.45-.13.48-.06a.29.29,0,0,1-.12.09c.3-.09.2.24.56.11l-.06.07a4.3,4.3,0,0,1,.39-.32s.25-.06.08.11c0,0-.1,0-.17,0h.12c-.24.26-.15,0-.35.16.16,0,.48,0,.46.1-.26.22-.23-.1-.39.18v-.19c-.36.41,0-.1-.41.33,0,.21.26.06.3.27.17-.08.21-.18.39-.26.43,0-.55.69-.08.57.21-.1.57-.34.47-.09l-.33.19c.08.17.5-.25.41.06-.14.06-.19,0-.21,0-.16.28.23-.06.29,0l-.26.23c.16.12.48.14.66.27-.08,0-.19.09-.24.19.3.12.32.49.31.82l.3-.1s-.08.11-.14.13.15-.11.27-.14-.09.16-.18.19c.31,0,.74.08.6.42l-.09,0c0,.19.58-.23.45,0h-.06c.09.33.52.45.32.91.36-.22,0,.37.52,0-.09.34-.24.35-.13.76,0,.1.38-.13.51-.1l-.19.24.35-.14a2.6,2.6,0,0,0-.13.36h.16a.22.22,0,0,1,0-.24c.22,0,.33.41.29.57a2.4,2.4,0,0,0,.52-.1c0,.11-.12.14-.2.2.3-.25,0,.32.23.1,0-.08.06-.18.08-.24a.27.27,0,0,0,.38.19l-.06.2c.21.1.47,0,.71,0-.07-.12,0-.48.1-.5l0,.33c.08-.19-.06-.14.08-.36.09,0,0,.37-.07.47l.13-.09c0,.09,0,.14-.08.26.08-.19.13.36.26,0V72c.24,0,.37,0,.57,0,.05-.27.12-.2.22-.41.13.12.25.36.43.37s.07-.23.16-.38c0,.25.14.26,0,.42a1,1,0,0,0,.58-.15.43.43,0,0,1,0-.25c.06,0,.09.13.06.25v0c.36-.32.55.86.88.38l0,0,.3-.23c.1.07-.11.18-.05.35.34-.37.41.14.67-.1,0,.77.61.06.75.57l0-.18c.09-.16.05.12.09.16,0-.13,0-.16,0-.25.54-.12,1,.44,1.46.69.18.08.27-.89.43-.42l-.12.31c.44-.32.76.15,1.19-.11,0,.07-.05.17-.09.16,0,.25.29.06.33-.13.05,0,0,.18,0,.28s.25-.26.24,0a.13.13,0,0,1-.05.09c.07-.11.23.07.23-.21.12.15.29-.08.37.11.13-.3.21.19.31-.24-.09.44.18.4.31.21-.06.13.05.15,0,.33.1,0,.21,0,.23-.28.09.56.45-.37.43.34a3.22,3.22,0,0,1,.93-.36c-.09.44-.3,0-.38.46.29-.14.5-.49.74-.34.05.08-.08.19-.11.26.28-.14.48.13.75-.07a.26.26,0,0,1-.07.11c.05,0,.09.08.12-.12l0,0c0-.31.29-.58.32-.73-.09.28,0,.32,0,.39s.12.16,0,.5a.29.29,0,0,0,.14-.25c.06.05.07.14,0,.28.28-.07.19-.3.41-.27,0,.1,0,.13-.07.25.13-.18.21-.37.39-.29,0,.06,0,.14,0,.14.33-.06.37-.56.68-.56.13.44.15.06.36.37a1.09,1.09,0,0,0,.09-.23l-.16-.1c.13-.1,0-.41.21-.41l0,.2a2.36,2.36,0,0,0,.14-.26.69.69,0,0,0-.2,0c0-.24-.34-.33-.16-.37,0,0,.08-.08.28,0h0c-.05-.12-.11-.25,0-.24a3.83,3.83,0,0,1,.35.34c-.19-.26.12-.25-.08-.53a1,1,0,0,0,.22.23l-.16-.21c.1,0,.13,0,.24.16.14-.08-.38-.29-.11-.29,0,0,0,.05.05.1.2-.06.12-.37.33-.41.31.22,0,.17.24.35.11-.22,0-.67.23-.78H270c-.36-.39.31,0,.21-.21,0,0,.19.23.15.19.17-.06.13-.33.17-.62l.08.11c.16,0,.22-.13.34-.16-.08-.12,0-.15-.19-.25.78.3.1-.73.77-.49,0,0,0,.14.05.12l.07-.26c-.18-.14-.13-.07-.29-.16s-.11-.23-.07-.28c0,.19.27.26.39.31-.05,0-.1-.11-.15-.15.38.19-.33-.34,0-.27l.08.09c0-.09-.08-.24,0-.27.22.16.05.14.21.29.05-.08-.24-.48,0-.37,0,.08,0,.13,0,.21.3.14.25.08.33.06h0l.22,0-.1,0c-.42-.56.08-.26-.14-.69.2.41.16.19.37.4.09,0,.21,0,.26.12-.13-.22.22,0,0-.28.07.06.06-.06.23.12,0-.12-.14-.1-.23-.18-.14-.34.54,0,.36-.47,0-.26-.22-.51-.22-.75a.49.49,0,0,1,.22.27c.17,0,.2,0,.18-.18a.55.55,0,0,0,.22.16c0-.07-.23-.28-.06-.25a3.81,3.81,0,0,1,.24.32c0-.12-.08-.31-.09-.43.14.1.15.21.21.31a.51.51,0,0,0-.11-.5l-.11,0s.18.15.2.2c.09.21-.15,0-.23,0V67c-.46-.34-.11.25-.22.32l-.27-.32.17.33c-.1,0-.28-.2-.29-.29-.21-.07.06.16-.16.06,0,0-.05,0-.05,0l0,.15c-.05-.07-.22-.19-.14-.19-.28,0,0,.4-.22.23v0c-.05.26.21.23.36.6l-.63-.44.21.23s-.07,0-.15-.07c.09.21.1.08.21.25-.28-.1-.11.32-.48,0,.14.19.2,0,.24.24-.41-.33,0,.16-.27.07s0-.18-.25-.27c.29.36-.21.08-.2.2.26.25,0,.24,0,.42-.08-.09-.33.06-.51.07l-.05,0c.26.26.11.32.1.44a.67.67,0,0,1-.24-.33l-.07.07c.07.1.1.16.09.23l-.19-.2c-.07.1.07.4-.17.39.18.18.6.4.61.64-.1-.09-.28-.25-.29-.32s0,.12,0,.1l-.12-.21c-.12,0,.12.16.06.19-.14-.14-.13-.07-.24-.18s.09,0,.05-.05a.49.49,0,0,1-.34-.08c.09.07.2.18.19.23s-.21-.13-.33-.15c.08.12-.08.08.13.28,0,0-.13-.06-.19-.1,0,.13-.18.24.1.4h0v0h0c.08.36-.42.21-.47.45l-.07-.07c0,.17-.14.25-.05.46,0,0-.19-.06-.26-.15,0,.12.06.2-.15.19-.06-.19-.14-.08,0-.16-.15,0-.28,0-.17.23-.16-.21-.3-.15-.29-.06l.2.06c0,.08-.08.1-.13.13l-.23-.25c-.46-.09.19.81-.43.49.12.2.21,0,.37.24-.11,0-.55-.19-.57-.16-.24,0,.25.44.05.48.1.06.34.26.34.43s-.42-.27-.47-.37,0,0,.07,0a.2.2,0,0,0-.14-.18l.08.1c-.13,0-.15,0-.27-.16a.29.29,0,0,0,.18.18c-.16-.08-.08.08-.19,0,0,.06.12.17.11.18s.07.25,0,.35c-.12-.16-.14-.44-.17-.26a1.17,1.17,0,0,1-.12-.42c0,.25-.11-.15-.11-.19v-.1c0,.06,0,.06,0,.06l0,.24s0,0,0-.15a6.14,6.14,0,0,1,0,.62c0-.12-.1.12-.09-.2.07.12,0-.32.06-.36s0,0,0,0a.22.22,0,0,1,0-.09c0-.28,0,.36-.16.33,0-.17,0-.34,0-.31s0,.3-.11.42c-.09-.15-.14.08-.2.05l.06.08c-.05.17-.11.14-.2.18,0-.14.09-.08.07-.15-.14.29-.14-.35-.3-.17,0-.13.06-.33,0-.42-.18.21-.11-.26-.28-.1a.47.47,0,0,1-.13.4l.27-.13-.22.32c.07,0,.18-.12.22-.08s-.09.13-.09.33c0-.37-.24.17-.31-.09l.11-.58c-.12-.29-.36.24-.55.05l.05.12c-.07.22-.14,0-.23.09a1.05,1.05,0,0,0,0-.4c0,.14-.16,0-.25.34l-.05-.27c-.16-.14-.31.51-.47.41.09-.2,0-.35.18-.48-.06,0-.1-.06-.13.08,0-.13-.21.23-.23,0,0,.08-.08.28-.14.25a.41.41,0,0,1,0-.1c0,.1-.13.12-.11.34-.07-.64-.51,0-.57-.59a1.6,1.6,0,0,1-.41.07c0-.06,0-.1,0-.07-.12-.21-.2.54-.34.3s.13-.15.09-.28c.09-.64-.23,0-.28-.35l0,0c-.05-.23-.26.2-.41.13a.41.41,0,0,0,0-.1.91.91,0,0,1-.54.45c.09-.25.09-.12.11-.38-.07,0-.05.41-.2.46a2,2,0,0,1-.05-.56h.13c0-.36-.16,0-.22-.09l0-.15c-.2,0-.27.4-.47.33v.12c-.18.37-.05-.23-.21,0l0-.4a2.23,2.23,0,0,1-.47.38,2.39,2.39,0,0,1,.43-.55.29.29,0,0,0-.32.17s.09-.12.11-.05c-.15.29-.29.41-.43.38.16-.75-.34-.26-.34-.86-.31.23-.48-.21-.79-.22,0,.61-.09,0-.18.61-.07,0-.1,0-.1,0l-.14-.4c0-.18.09-.12.11-.26-.14-.07,0-.26-.09-.44,0,.22-.11.3-.18.2l.07.3c-.27.28-.09-.54-.36-.26l.1-.18c-.13.09-.4-.07-.59.39,0-.07,0-.24.05-.28-.25-.12-.67.41-.82.08l.05-.15c-.06,0-.14.26-.17.11s0-.15,0-.16-.17.23-.22.14l.08-.16c-.22-.24-.46.33-.69.4a.7.7,0,0,0-.18-.7v-.06c-.29-.11-.57.26-.87.38-.09-.5-.54-.3-.77-.61a.55.55,0,0,1-.12.37c0-.1-.23.27-.14-.13l0,0c0-.4-.09-.32-.15-.34l-.14.5c0-.4-.06-.34-.14-.29s-.21.06,0-.2c-.1.09-.13.06-.25.11l.21-.18a.41.41,0,0,0-.22-.34l.19-.09c-.06-.11-.75.37-.83.28l.31-.28c-.14-.17,0-.58-.42-.52.06,0,.16-.1.19-.09s0-.49-.45-.11c.29-.23-.11-.2-.32-.2l.23-.15c-.34.13-.42.19-.58.14,0-.05.15-.16.12-.08,0-.18-.26.09-.22-.11l.17-.07c-.05-.1-.12,0-.33,0s-.07-.22.12-.38c-.13.08-.34.15-.32,0a.45.45,0,0,1,.16-.09c0-.26-.43,0-.29-.3l.12-.12c.08.13.15.24.12.24.21-.16.17-.28.51-.42-.21,0-.65.16-.63,0l.06-.07h0s0,0-.07,0,0-.09,0-.12c.16-.14,0-.19,0-.24-.22.17-.23.08-.37.28,0,0,0,0,.07,0h0l.11.11c-.14.05-.27.08-.18-.07l-.42.21c.26-.3.33-.56.51-.73-.24-.05-.35-.29-.84-.06-.09,0,.08-.14.14-.21s.07,0,.14,0c-.17,0-.23-.22-.54,0,0-.21.32-.14.16-.26l.1,0c.25-.65-1.11.1-.75-.68a.26.26,0,0,1-.07.11c0-.57-.83-.56-.68-1.24,0-.17-.19,0-.38,0l.22-.21-.36.11c-.32,0,.39-.72-.14-.62l-.14.15c0-.09-.27-.14-.07-.27,0,0-.19.1-.12,0l.12-.1h-.34c0-.2.51-.36.39-.57a1,1,0,0,0-.59.16s0,.14-.14.24l-.12,0c-.38.27-.79.51-.93.87L246,63l-.15.17-.08-.09c-.13.19,0,.11.18.07a.65.65,0,0,0-.17.19l.44-.16c-.13.13-.32.17-.35.31.2-.08.29-.3.46-.3-.13.19-.28.27-.08.23a.44.44,0,0,1-.22.12c.15,0,.16.11.38,0-.17.21.19.15-.16.41.1,0,.35-.11.4-.07-.49.22.12.21-.34.52.43-.21.35.13.66.09,0,0-.11,0-.1,0s-.08.2-.11.3c.32-.23.47-.17.71-.26-.24.31-.41.23-.68.47.25-.19.37,0,.55-.23a1,1,0,0,1-.28.35c.4-.28.12,0,.4-.12-.12.24-.35.31-.15.32A.4.4,0,0,1,247,65.43Zm2.54,1.94h0l0,0Zm.16.2a.27.27,0,0,0-.06-.1c.07-.06.16-.12.17-.09S249.78,67.49,249.74,67.57ZM251,66s0,0,0,.09l-.07,0h0Z"/><path class="cls-9" d="M250.62,66.12h0l0,0,.07,0Z"/><path class="cls-9" d="M270,69.79h0l0,0Z"/><polygon class="cls-9" points="251.7 70.9 251.75 70.85 251.68 70.87 251.7 70.9"/><path class="cls-9" d="M271.68,69.41l.07,0S271.71,69.42,271.68,69.41Z"/><path class="cls-9" d="M272.15,69h0Z"/><path class="cls-9" d="M272.58,68.75l-.09-.09h0Z"/><path class="cls-9" d="M266.28,73.76h0C266.21,73.82,266.24,73.8,266.28,73.76Z"/><path class="cls-9" d="M268.73,72.39a1.21,1.21,0,0,1,0,.14S268.84,72.5,268.73,72.39Z"/><polygon class="cls-9" points="263.76 73.65 263.76 73.64 263.74 73.64 263.76 73.65"/><path class="cls-9" d="M268.7,72.61c.07,0,.08,0,.08-.08S268.69,72.55,268.7,72.61Z"/><path class="cls-9" d="M274.07,67.34h0l0,0Z"/><path class="cls-9" d="M274.06,67.3v0S274,67.28,274.06,67.3Z"/><path class="cls-9" d="M274,67.17l0,.09S274.09,67.24,274,67.17Z"/><path class="cls-9" d="M273.55,67.71l.07.08Z"/><path class="cls-9" d="M273.44,67.87c.05,0,.24.07.23,0l-.05-.06C273.71,67.91,273.34,67.72,273.44,67.87Z"/><path class="cls-9" d="M272,67.59l.16-.06c-.09,0-.23-.13-.2-.2C271.57,67.26,272.15,67.47,272,67.59Z"/><path class="cls-9" d="M271.52,67.84c0-.09-.11-.1-.16-.15C271.4,67.8,271.41,67.83,271.52,67.84Z"/><path class="cls-9" d="M269.08,70.45l-.18-.18C268.88,70.35,269,70.34,269.08,70.45Z"/><polygon class="cls-9" points="269.58 71.86 269.74 71.92 269.59 71.74 269.58 71.86"/><polygon class="cls-9" points="267.97 70.91 267.96 70.86 267.96 71 267.97 70.91"/><path class="cls-9" d="M263.52,71.09l0,.32S263.61,71,263.52,71.09Z"/><path class="cls-9" d="M260.91,70.94c0-.16-.06-.27-.13-.12S260.87,71,260.91,70.94Z"/><polygon class="cls-9" points="253.5 69.06 253.55 68.97 253.48 69.04 253.5 69.06"/><path class="cls-9" d="M271.12,74.8c-.09,0-.23.17-.13.22l.3-.15Z"/><path class="cls-9" d="M271.08,75.72a.87.87,0,0,0,.69-.33c-.32.11-.23,0-.61.14-.09,0,0-.2.08-.26-.09,0-.05-.17-.24-.08-.12.26,0,.4.26.4C271.22,75.66,271.13,75.69,271.08,75.72Z"/><path class="cls-9" d="M276,84.25v-.08A.11.11,0,0,0,276,84.25Z"/><path class="cls-9" d="M273.93,88.17a.06.06,0,0,0,0-.09S273.91,88.16,273.93,88.17Z"/><path class="cls-9" d="M272.92,88.64l.06,0S272.91,88.62,272.92,88.64Z"/><path class="cls-9" d="M276,84.25l0,.19C276.09,84.4,276,84.33,276,84.25Z"/><path class="cls-9" d="M272.56,76.31a.27.27,0,0,0-.13,0l.08,0Z"/><path class="cls-9" d="M274.49,82l0,0-.14,0Z"/><path class="cls-9" d="M273.38,80.32c0,.05.26-.09.37-.14-.11,0-.17,0-.21,0A.51.51,0,0,0,273.38,80.32Z"/><path class="cls-9" d="M271.93,77.37l-.06,0Z"/><path class="cls-9" d="M275.16,83.34a.18.18,0,0,0-.08.06Z"/><path class="cls-9" d="M247.21,73.23l0,0S247.22,73.23,247.21,73.23Z"/><polygon class="cls-9" points="250.02 73.44 250 73.47 250.05 73.62 250.02 73.44"/><path class="cls-9" d="M271.29,89.76h0C271.31,89.7,271.3,89.72,271.29,89.76Z"/><path class="cls-9" d="M256.69,91.93c.2.26-.34.32,0,.61C256.63,92.42,256.94,92.1,256.69,91.93Z"/><path class="cls-9" d="M272.56,76.38l.06.06A.17.17,0,0,0,272.56,76.38Z"/><path class="cls-9" d="M256.65,92.54h0l0,0Z"/><path class="cls-9" d="M268.36,93.14a.31.31,0,0,0,.12,0Z"/><path class="cls-9" d="M270.9,91l-.08,0S270.89,91,270.9,91Z"/><path class="cls-9" d="M267.94,93.89s0-.07-.06,0v0S267.91,93.84,267.94,93.89Z"/><path class="cls-9" d="M266.45,93.51a.14.14,0,0,0,0,.06h.06Z"/><path class="cls-9" d="M242.56,76.4a1.07,1.07,0,0,1,.22.15C242.64,76.41,242.81,76.18,242.56,76.4Z"/><path class="cls-9" d="M272.43,76.41c.07,0,.1,0,.13,0a.1.1,0,0,0-.05,0S272.44,76.38,272.43,76.41Z"/><path class="cls-9" d="M267.93,96.19l-.5-.19A2.61,2.61,0,0,0,267.93,96.19Z"/><path class="cls-9" d="M246.51,87.51l-.06,0A0,0,0,0,0,246.51,87.51Z"/><path class="cls-9" d="M266.49,95.8a.49.49,0,0,0-.11-.23l-.05.07Z"/><path class="cls-9" d="M242.78,76.55Z"/><path class="cls-9" d="M244,74.86c-.24.16.09.38.16.58-.21.28-.28-.13-.48-.22-.12.2,0,.57-.18.65s-.08,0-.1-.12c0,.36-.52.4-.49.85l-.09,0a2,2,0,0,1,.35.37c-.1.08,0,.33-.22.16.06,0,0-.12,0-.2l0,.16c-.31-.2.06-.2-.1-.4-.13.24-.17.65-.38.7-.25-.24.28-.38-.12-.45l.32-.08c-.52-.28.17-.09-.36-.41-.37.18-.24.42-.61.6.06.21.21.2.26.4-.17.59-1.08-.2-1.2.54.06.25.45.47-.09.66a3.36,3.36,0,0,1-.29-.24c-.53.44.38.39-.37.75-.13-.09.18-.35.05-.29-.34.11-.33.18-.26.24a.57.57,0,0,1,.13.08s0,0,0,0a.36.36,0,0,1,.09.08l-.4,0c.51.56,1.21,1.06,1.67,1.52-.11,0-.28,0-.26.18a3.75,3.75,0,0,1,.39.37,2.92,2.92,0,0,1,.24.37,5.8,5.8,0,0,1,.34.83l.36,0s0,.15-.12.15c0,.23.15-.11.3-.11s0,.23-.14.23c.42.12,1.08.46,1.09,1h-.11c.1.31.67-.13.65.26h-.08c.33.58,1,1,1,1.62.38-.2.28.62.76.26,0,.48-.13.47.07,1,.08.13.42-.08.58,0l-.23.21.4,0-.19.34.17.07a.25.25,0,0,1,.08-.25c.27.1.25.61.14.72l.6.28c-.1.07-.2,0-.32,0,.45,0-.2.26.21.28,0-.07.16-.1.21-.14,0,.24.18.49.4.62l-.18.11a14.3,14.3,0,0,0,1,1c0-.2.26-.41.38-.33l-.2.26c.21-.06,0-.19.3-.22.1.17-.19.35-.34.34l.24.09c-.06.08-.14.07-.24.15.22-.07,0,.51.38.37l-.06.08c.34.37.58.46.87.75.21-.19.27,0,.52-.09a2.8,2.8,0,0,0,.48.92c.28.09.22-.11.42-.14-.17.19.1.44-.16.43a2.89,2.89,0,0,0,1.1.68c0-.13,0-.22.06-.26a.26.26,0,0,1,.08.35h0a5.81,5.81,0,0,1,1.3.68c.45.24.86.38,1.11.11l0,0,.5-.29c.23,0-.14.2,0,.35.52-.43.84.06,1.28-.22.32.75,1.21,0,1.64.48v-.18c.12-.17.13.11.22.15,0-.13-.12-.16,0-.26a7.29,7.29,0,0,1,3,.7c.37.1.34-.88.75-.39L262,95c.81-.28,1.52.26,2.31.07,0,.06-.07.16-.14.15.1.26.56.12.6-.07.11,0,0,.18,0,.29s.45-.21.48,0c0,0-.06.06-.09.08.13-.1.46.13.43-.16.24.19.55,0,.72.21.22-.27.43.27.58-.15-.06.22,0,.34.17.38a1.24,1.24,0,0,0,.71,0c-.11.11.26.22.15.39.37.1.69.1.57-.18a1,1,0,0,0,.27.22c.08,0,.13-.07.19-.12a2.09,2.09,0,0,0,.26-.46c.15-.31.25-.53.61-.42.06-.11.17-.28.19-.34l.09-.22.18-.42a7.63,7.63,0,0,1,.41-.75c.32.31-.37.47,0,.77.21-.5.13-1,.56-1.29.14-.06.09.19.12.27.22-.5.71-.7.86-1.2,0,0,0,.1,0,.16s.19-.11,0-.25l0,.11c-.31-.1-.19-.7-.29-.82.31.52.42-.22.78.47a.28.28,0,0,0-.11-.28c.09,0,.17,0,.22.18.15-.31-.09-.38.12-.59.07.07.06.14.12.24,0-.24-.07-.48.17-.6,0,0,.11.09.06.14.28-.32.15-.88.62-1.08.2.41.22,0,.49.24l.11-.25-.2-.07c.16-.14.12-.48.34-.52v.23L275,89l-.27.06c0-.3-.34-.33-.06-.46,0,.07.17-.15.41-.07h0c0-.16,0-.33.18-.37s.25.32.33.36c-.14-.3.32-.41.2-.75a.64.64,0,0,0,.18.25l-.1-.25c.13,0,.17,0,.26.14.26-.17-.39-.28,0-.38,0,0,0,.05,0,.12a1,1,0,0,0,.38-.38,1,1,0,0,1,.43-.39c.39.15-.24.34.1.45a5,5,0,0,0,.62-.87c.09-.14.17-.26.26-.38l0,0,0-.06-.06-.11a1.8,1.8,0,0,1-.08-.21v.1c-.33-.07-.29-.15-.24-.27a.3.3,0,0,0-.07-.43c.07.05.34,0,.27,0a1.63,1.63,0,0,0-.36-.64l-.51-.47H277c0-.23-.17-.49-.21-.7-.15,0-.19-.11-.33,0,.38-.94-.95-.88-.67-1.69,0,0,.19.08.16,0l-.36-.36c-.18.15-.08.12-.19.3a.37.37,0,0,1-.37-.15c.24.11.32-.19.38-.34a1.18,1.18,0,0,1-.19.11c.22-.43-.42.2-.36-.24L275,81c-.12-.08-.32-.09-.36-.23.19-.19.18,0,.37-.06-.12-.16-.64-.06-.5-.35.1,0,.17.13.27.16.17-.33.09-.31,0-.45h0l-.07-.36,0,.12c-.72.17-.38-.36-.95-.38.54,0,.24-.1.51-.24,0-.12,0-.28.12-.3-.29,0,0-.33-.41-.31.08-.06-.09-.15.14-.26-.18-.12-.12.14-.23.19-.45-.07-.09-.84-.73-1-.38-.21-.69-.07-1-.26.06-.19.35-.13.35-.13a.41.41,0,0,0-.32-.43c.09,0,.13-.1.18-.21-.11-.1-.34.14-.35-.11a1.69,1.69,0,0,1,.4-.12c-.18-.08-.42-.11-.61-.2.11-.14.27-.07.4-.09-.19-.11-.45-.32-.7-.21V76c-.06,0,.15-.18.23-.16.27,0,.08.25,0,.32l-.13-.06c-.37.45.39.35.52.58l-.39.17h.43c-.05.11-.21.28-.34.22-.05.27.22,0,.13.3a.05.05,0,0,1-.06,0l.21.07c-.09,0-.22.2-.24.08,0,.4.57.23.38.52h0c.38.28.28-.15.77-.08l-.49.62.28-.14a.13.13,0,0,1-.06.19c.27,0,.09-.1.31-.13-.1.34.46.44.09.75.23-.06,0-.27.29-.17-.39.35.23.18.14.49-.26.09-.24-.15-.33.16.45-.15.13.38.3.48.31-.19.33.23.58.41-.11,0,.12.56.14.86l-.05,0c.34-.14.42.13.59.27a.51.51,0,0,1-.43.07l.1.16a.33.33,0,0,1,.3.08l-.26.1c.14.21.53.28.53.65.23-.11.5-.58.81-.36-.11.08-.31.21-.4.16s.15,0,.12.11h-.27c0,.18.21,0,.25.08-.18.1-.08.15-.23.21s0-.13-.07-.13a.53.53,0,0,1-.09.45c.09-.07.23-.13.3-.06s-.17.19-.19.37c.15,0,.1.19.36.06,0,.06-.08.14-.14.2.18.06.31.52.52.25v0h0a.74.74,0,0,1,.33.57l.06.33a.51.51,0,0,0,.11.22l-.09,0c.19.14.23.34.54.51,0,.06-.16.09-.32,0,0,.1.09.17-.22.23-.08-.16-.19,0,0-.14-.21.08-.35,0-.24.25-.17-.18-.32-.14-.3-.05l.19.07a.18.18,0,0,1-.07.08l-.15.11-.17-.29c-.67.05-.24,1.14-1,.91.05.26.32-.07.41.21-.21.13-.71,0-.77,0-.37.09.11.57-.23.71.11.06.36.26.25.51s-.56-.15-.51-.33a.06.06,0,0,1,.1,0c0-.09.07-.2-.09-.22l.06.1c-.17,0-.4.24-.48,0-.05.21.08.2.22.15-.34.09-.35.33-.66.47.08,0,.21.08.17.11-.43.22,0,.3-.17.56-.26,0-.26-.35-.38,0-.22,0-.25-.19-.26-.32,0,.37-.5.28-.64.37l0-.18a.37.37,0,0,1-.14.21l.23.11c-.09,0-.14.09-.21,0,0,.18.33.23.35.51-.17,0-.16.35-.42.16.34-.19-.25-.19-.06-.45a.22.22,0,0,1-.17.15.06.06,0,0,1,0-.08c-.46.06.14.37-.13.63-.09-.16-.3-.17-.32-.1.11-.11.27.15.27.34-.27.08-.11.26-.21.34l.15-.06c.09.16,0,.23-.08.39-.11-.08,0-.17-.05-.17.1.35-.52.07-.55.41-.16,0-.25-.22-.38-.2,0,.37-.39.06-.46.42.23.09.2,0,.23.36l.22-.48,0,.47c.1-.11.11-.34.2-.37,0,.24,0,.19.2.27-.4-.09-.13.44-.46.45l-.43-.4c-.44.08-.21.67-.63.92l.17,0c.14.21-.17.24-.19.41-.14-.14-.26-.11-.39-.15.11.1-.24.25.06.5a1.08,1.08,0,0,1-.24-.12c-.08,0,0,.16,0,.35a1,1,0,0,1,0,.29c0,.08,0,.18-.1.12,0-.24-.11-.37-.08-.59,0,.05-.09,0-.05.12,0-.14-.12.24-.2,0,0,.08,0,.29-.13.25a.22.22,0,0,1,0-.1c0,.1-.16.09-.12.33-.16-.68-1-.21-1.18-.8a5.7,5.7,0,0,1-.84,0c0-.06,0-.1.07-.07-.29-.25-.32.51-.65.23-.12-.35.23-.13.14-.27.08-.64-.46,0-.64-.42l.07,0c-.15-.25-.51.16-.82.06a.19.19,0,0,0,0-.1,1.63,1.63,0,0,1-1,.37c.13-.23.15-.11.14-.37-.14,0,0,.41-.31.44-.06-.15-.24-.3-.22-.57l.25,0c-.08-.37-.33,0-.46-.12l0-.15c-.4,0-.45.39-.87.31l0,.12c-.27.36-.17-.24-.43,0l0-.4a3.74,3.74,0,0,1-.85.37,2.31,2.31,0,0,1,.73-.54c-.15,0-.52,0-.62.16.07,0,.15-.12.21,0a.85.85,0,0,1-.77.39c.11-.77-.77-.26-.95-.86-.55.25-1.06-.18-1.7-.14.21.6-.18,0-.15.62-.15,0-.2,0-.22,0l-.43-.37c-.11-.18.14-.13.12-.27-.32-.05-.13-.26-.34-.42,0,.22-.12.31-.3.23L256,92c-.44.33-.39-.51-.84-.18l.14-.2c-.26.12-.82,0-1,.5,0-.07-.05-.24,0-.28a.84.84,0,0,0-.5.1.25.25,0,0,1-.37-.2l.12-.1c-.08,0-.28.13-.25,0s.12-.09.1-.12-.34,0-.36-.12l.19,0c-.2-.5-.84-.3-1.22-.54a.76.76,0,0,0,.06-.9l.05,0c-.38-.48-1-.51-1.49-.81.12-.58-.65-1-.83-1.61,0,.12-.27.22-.37.18s-.47-.07-.15-.32l0,0c.23-.34,0-.47-.16-.64l-.42.33c.2-.93-1.18-.9-.86-1.59-.19,0-.3-.14-.49-.15l.22-.18a2.3,2.3,0,0,0-.64-.79l.22-.06c-.16-.21-.83.29-1,.11l.27-.33c-.3-.33-.31-.92-.89-1,0,0,.15-.11.21-.06-.13-.17-.31-.81-.71-.38.29-.25-.27-.38-.55-.46l.24-.15c-.41.07-.49.13-.75,0,0-.07.13-.19.14-.07,0-.27-.32,0-.38-.28l.2,0c-.13-.2-.19-.12-.44-.09s-.22-.38,0-.57c-.14.07-.38.1-.41,0a.21.21,0,0,1,.17-.07c-.1-.42-.61-.25-.57-.63a.33.33,0,0,0,.1-.14,1.75,1.75,0,0,1,.3.45c.2-.17.08-.39.48-.46l-.52-.06a.87.87,0,0,1-.23-.08,0,0,0,0,1-.05-.06l.07-.06h0s0,0-.07,0,0-.06,0-.08c.21-.08.08-.08.07-.11-.32,0-.32,0-.55.07t.09,0l0,0h0a1.13,1.13,0,0,1,.11.11c-.17,0-.34,0-.22-.1a3.43,3.43,0,0,1-.59,0,1.56,1.56,0,0,1,.92-.23c-.11-.12.05-.19-.27-.62,0-.09.18,0,.26.09s0,.07,0,.13,0-.12.08-.23a.36.36,0,0,0,0-.42c.31,0,.11.36.35.08l0,.12c.92,0,.34-1.49,1.45-1.37-.07,0-.11,0-.15,0,.93-.26,1.4-1.34,2.46-1.35.27,0,.18-.25.23-.49l.19.24.07-.44c.22-.41.93.34,1.14-.31l-.15-.15c.17,0,.44-.35.52-.13,0,0,0-.22.06-.15l.08.14.27-.42c.35,0,.21.58.66.42.14-.13.29-.62.18-.7a.23.23,0,0,1-.27-.16l.12-.14c-.16-.44-.22-.93-.74-1.06l-.15.38-.18-.17.22-.11c-.22-.14-.22.07-.26.23a.44.44,0,0,0-.22-.18l-.08.53c-.11-.15,0-.38-.25-.39,0,.24.29.31.15.53-.22-.13-.26-.3-.33-.07a.23.23,0,0,1,0-.26c-.07.2-.33.23-.28.49-.26-.17-.42.29-.61-.11a.84.84,0,0,1-.18.51c0-.59-.46.21-.68-.31.07.5-.48.51-.62.91,0,0,0-.13,0-.12-.18.06-.3,0-.44,0,.18.35,0,.57,0,.86-.4-.2-.14-.46-.39-.73.18.26-.16.48,0,.66-.27-.1-.19,0-.44-.24.24.43-.09.16,0,.49-.34-.06-.31-.34-.46-.07C243.85,75.14,244,74.86,244,74.86Zm-2.65,5.91h0l-.13-.14Zm.38.46a1,1,0,0,0-.14-.19c.06-.07.15-.12.18-.07S241.7,81.12,241.69,81.23Zm1.15-1.67s0,0-.06,0l-.06,0h0Z"/><path class="cls-9" d="M242.4,79.6h0a.15.15,0,0,0-.06,0h.11Z"/><path class="cls-9" d="M276,84.16h0l0,0Z"/><polygon class="cls-9" points="246.02 87.16 246.07 87.12 246 87.12 246.02 87.16"/><path class="cls-9" d="M275.45,81.14a.08.08,0,0,0,0-.07Z"/><path class="cls-9" d="M274.84,80v-.21A1.16,1.16,0,0,0,274.84,80Z"/><path class="cls-9" d="M274.43,79.13a.28.28,0,0,0-.11.05h0Z"/><path class="cls-9" d="M272.31,92.23s0,0,0,0S272.3,92.3,272.31,92.23Z"/><path class="cls-9" d="M275.07,88.57a.65.65,0,0,1,0,.2C275.12,88.73,275.17,88.69,275.07,88.57Z"/><polygon class="cls-9" points="267.99 96.21 267.99 96.21 267.93 96.19 267.99 96.21"/><path class="cls-9" d="M274.89,88.91a.17.17,0,0,0,.16-.14C275,88.8,274.91,88.84,274.89,88.91Z"/><path class="cls-9" d="M272,75.6l0,0,0,0Z"/><path class="cls-9" d="M272,75.58l-.06,0S272,75.6,272,75.58Z"/><path class="cls-9" d="M271.8,75.52l.12,0S271.88,75.49,271.8,75.52Z"/><path class="cls-9" d="M272.73,76.71l.09,0Z"/><path class="cls-9" d="M273,77c0-.09,0-.32-.1-.39l-.07,0C273,76.62,272.8,77,273,77Z"/><path class="cls-9" d="M272.91,79.07l-.12-.31c-.06.1-.14.25-.24.14C272.51,79.42,272.7,78.69,272.91,79.07Z"/><path class="cls-9" d="M273.33,80c-.14-.11-.13.09-.19.12C273.29,80.13,273.32,80.14,273.33,80Z"/><path class="cls-9" d="M276.52,85.82l-.3-.08C276.22,85.79,276.34,85.77,276.52,85.82Z"/><polygon class="cls-9" points="276.69 87.43 276.89 87.46 276.79 87.25 276.69 87.43"/><polygon class="cls-9" points="274.86 86.63 274.88 86.57 274.77 86.79 274.86 86.63"/><path class="cls-9" d="M266.82,93.34l0,.32C266.89,93.63,267,93.29,266.82,93.34Z"/><path class="cls-9" d="M261.46,92.69c0-.16-.18-.28-.29-.14C261.29,92.58,261.39,92.72,261.46,92.69Z"/><polygon class="cls-9" points="248.84 86.54 248.99 86.54 248.79 86.45 248.84 86.54"/><path class="cls-9" d="M223.93,75.17c0,.08-.08.27-.06.24l.11-.32Z"/><path class="cls-9" d="M223.85,75.79a4.59,4.59,0,0,0,.25-.71c-.11.3-.08.17-.21.53,0,0,0-.11,0-.23,0,.08,0-.07-.07.12s0,.27.06.08C223.9,75.65,223.87,75.73,223.85,75.79Z"/><path class="cls-9" d="M225.17,76.73v0Z"/><path class="cls-9" d="M226,77.19a.3.3,0,0,0,0,.06A.07.07,0,0,0,226,77.19Z"/><path class="cls-9" d="M226.07,77.58v0S226.06,77.61,226.07,77.58Z"/><path class="cls-9" d="M225.17,76.73v.11C225.2,76.74,225.17,76.76,225.17,76.73Z"/><path class="cls-9" d="M224.29,75.09l0,.08,0,0Z"/><path class="cls-9" d="M224.69,76.87h0a1.12,1.12,0,0,1-.05.13Z"/><path class="cls-9" d="M224.36,76.82a3.25,3.25,0,0,0,.13-.37l-.07.18C224.4,76.68,224.39,76.74,224.36,76.82Z"/><path class="cls-9" d="M224,76.2l0,0Z"/><path class="cls-9" d="M224.89,77a.62.62,0,0,1,0,.1Z"/><path class="cls-9" d="M234.13,77.63l0,.05Z"/><path class="cls-9" d="M234.07,79.07h0c0,.06,0,.11,0,.16Z"/><path class="cls-9" d="M226.25,78h0S226.24,78,226.25,78Z"/><path class="cls-9" d="M228.92,78.62c.05-.25.15-.29.18-.57A4.83,4.83,0,0,0,228.92,78.62Z"/><path class="cls-9" d="M224.29,75.12h0S224.29,75.11,224.29,75.12Z"/><path class="cls-9" d="M229.1,78.05h0v0Z"/><path class="cls-9" d="M227,78.06a1,1,0,0,1,0-.12A.5.5,0,0,0,227,78.06Z"/><path class="cls-9" d="M226.59,77.52v0Z"/><path class="cls-9" d="M227.33,77.76s0,.06,0,0v0S227.32,77.8,227.33,77.76Z"/><path class="cls-9" d="M227.59,77.84a.15.15,0,0,0,0-.06h0Z"/><path class="cls-9" d="M233.28,77.51a2.27,2.27,0,0,1-.06.25C233.28,77.57,233.34,77.51,233.28,77.51Z"/><path class="cls-9" d="M224.24,75.24a.52.52,0,0,1,0-.12l0,0Z"/><path class="cls-9" d="M228,75.64l0,0S228,75.64,228,75.64Z"/><path class="cls-9" d="M231.38,77l0,0S231.39,76.94,231.38,77Z"/><path class="cls-9" d="M228.16,75.69c0,.1,0,.16,0,.19l0-.06Z"/><path class="cls-9" d="M233.22,77.76Z"/><path class="cls-9" d="M233.69,77.21a2.84,2.84,0,0,0-.19.54c-.08.08.06-.27.1-.45-.06.08-.19.4-.2.38a.62.62,0,0,1,0-.16c-.12.28-.1,0-.24.33,0,0,0-.06,0-.09l-.14.49s-.1.21,0,0c0,0,0-.09.07-.16l-.05.1c.08-.34.06-.11.13-.35-.07.09-.19.35-.19.25.09-.32.1-.09.15-.39v.14c.13-.52,0,0,.16-.51,0-.11-.12.14-.15,0-.07.18-.07.27-.14.45s.19-.84,0-.43c-.08.21-.21.62-.19.39l.13-.36s-.19.52-.18.25.08-.1.09-.15c0-.3-.09.2-.12.19l.09-.33c-.07,0-.21.25-.29.29a2.13,2.13,0,0,0,.09-.3c-.13.14-.16-.09-.18-.31l-.12.27a.71.71,0,0,1,0-.18c0-.12-.06.18-.1.28s0-.17.06-.25c-.13.22-.31.47-.28.15l0-.08c0-.13-.23.56-.19.29l0-.05c-.06-.15-.24.07-.19-.38-.14.4,0-.21-.22.36a3,3,0,0,0,.06-.61s-.14.34-.18.39l.09-.29-.13.3.09-.36,0,.07a1,1,0,0,1-.05.22c-.08.12,0-.23,0-.38l-.17.22a1.91,1.91,0,0,1,.1-.23c-.14.29.09-.31,0,0a1.23,1.23,0,0,1-.08.23c0-.18,0-.2-.07-.13l.07-.2c-.05-.08-.17,0-.24,0a1.82,1.82,0,0,1-.15.48l.08-.31a2.68,2.68,0,0,1-.11.35,1.54,1.54,0,0,1,.14-.46l-.07.1.09-.26c-.08.19,0-.33-.09,0l0-.09c-.08,0-.14.07-.21.07a2.84,2.84,0,0,1-.17.41c0-.1,0-.32-.06-.32a1.88,1.88,0,0,0-.15.38c.07-.25,0-.24.09-.41-.07,0-.1,0-.24.2a1.32,1.32,0,0,1-.05.23s0-.11,0-.23v0c-.2.34,0-.78-.22-.29v0l-.15.25c0-.06.07-.18.1-.34-.21.38-.11-.1-.27.15.18-.74-.2,0-.12-.49l-.05.17c-.07.17,0-.1,0-.14a2.06,2.06,0,0,1-.07.25c-.22.15-.24-.35-.35-.55s-.31.87-.25.44l.11-.31c-.23.34-.23-.09-.44.2,0-.07.06-.17.07-.16,0-.24-.09,0-.15.15a2.17,2.17,0,0,1,.07-.27c0-.15-.15.27-.09,0a.39.39,0,0,1,0-.09c-.05.11-.07,0-.13.22,0-.14-.12.09-.11-.08-.11.29,0-.16-.16.26.13-.44,0-.38-.06-.18,0-.13,0-.14.09-.32,0,0-.09.07-.15.29.1-.53-.25.38-.07-.29a2.58,2.58,0,0,1-.41.41c.13-.43.1,0,.24-.47-.13.16-.29.51-.34.38a1,1,0,0,1,.1-.25c-.13.15-.14-.09-.28.13a.43.43,0,0,1,0-.12s0-.07-.07.13l0,0a5.26,5.26,0,0,1-.29.72c.2-.55,0-.16.23-.86a1.78,1.78,0,0,0-.1.26.9.9,0,0,1,.08-.27c-.08.1-.13.31-.17.29s0-.13.09-.24c-.08.18-.16.36-.17.27s0-.14.05-.13-.27.46-.28.26c.15-.41,0-.15.12-.5l-.07.09,0,.18s-.14.23-.13.11l.07-.14-.08,0V76c-.09.18-.13.46-.15.34s0,0,0-.23h0c0,.11-.11.22-.1.13s.12-.39.14-.47c-.11.29-.1.06-.22.37,0-.07.09-.26.1-.3l-.09.24a1.74,1.74,0,0,1,.06-.27c0-.06-.12.46-.11.24,0,0,0,0,0-.09s-.16.13-.17,0c.09-.36.07-.07.14-.38-.09,0-.28.38-.32.28v0c-.17.5,0-.27-.09,0,0,0,.1-.28.08-.22,0-.1-.14.09-.26.23l0-.13c0-.12-.06-.09-.07-.16a1.38,1.38,0,0,0-.11.3c.14-.77-.3.34-.19-.31,0,0,.06-.1.05-.11l-.11.1a3.22,3.22,0,0,0-.07.32c0,.12-.1.22-.12.21a1.43,1.43,0,0,0,.13-.48l-.06.21c.08-.4-.15.44-.12.16l0-.11s-.1.2-.11.16c.07-.26.06-.11.12-.32,0,0-.2.46-.15.2,0-.07,0-.06.08-.13.07-.31,0-.23,0-.29h0v-.07c-.25.66-.12.1-.3.52a1.79,1.79,0,0,0,.17-.52,2.44,2.44,0,0,1,.06-.26c-.1.23,0-.2-.12.14,0-.1,0,0,0-.25,0,.06,0,.16-.08.28-.14.3,0-.42-.19,0-.11.17-.22.48-.32.62a1.13,1.13,0,0,1,.12-.34c0-.14,0-.13-.08,0,0-.08,0-.15.07-.26s-.12.34-.11.19l.14-.36c-.05.07-.13.24-.18.31a2,2,0,0,1,.13-.34.92.92,0,0,0-.21.38v.1a1,1,0,0,1,.08-.27c.09-.2,0,.1,0,.19l0,.06c-.15.55.1-.07.13,0L224,76l.14-.32A1.42,1.42,0,0,1,224,76c0,.21.07-.13,0,.1a.14.14,0,0,1,0,.07l.07-.11c0,.08-.09.28-.09.22,0,.24.17-.28.1,0v0c.11-.11.09-.29.25-.62l-.19.73.1-.29a.33.33,0,0,1,0,.16,2.33,2.33,0,0,0,.11-.31c-.05.27.13-.1,0,.37.08-.22,0-.18.11-.33-.15.51.07-.07,0,.17s-.07.11-.11.35c.15-.43,0,.11.08,0,.11-.35.1-.13.18-.23,0,.11,0,.21,0,.35l0,.06c.12-.35.14-.27.19-.33a1.63,1.63,0,0,1-.14.38h0a.71.71,0,0,1,.1-.2l-.09.26s.17-.28.17-.09a4.15,4.15,0,0,1,.27-.84,3.75,3.75,0,0,1-.14.41s0-.11,0-.05l-.08.22c0,.1.06-.19.08-.16-.06.19,0,.14-.08.29s0-.09,0,0a.79.79,0,0,1,0,.3,1.2,1.2,0,0,1,.1-.27s-.06.23-.06.33c0-.13,0,0,.11-.26,0,0,0,.13,0,.21.06-.12.1,0,.17-.31v0h0c.15-.26.08.2.18.1l0,.1c.07-.1.11,0,.2-.24a1.14,1.14,0,0,1-.07.3c0-.07.09-.17.08,0s0,.15-.07.11,0,.25.1,0c-.09.24-.07.31,0,.25l0-.18s0,0,.05,0l-.1.31c-.05.42.34-.61.2.06.09-.22,0-.17.1-.43,0,0-.08.52-.07.53,0,.19.19-.45.2-.32a2.23,2.23,0,0,1,.19-.51,1.93,1.93,0,0,1-.15.57s0,0,0-.07a.53.53,0,0,0-.07.21l0-.11c0,.12,0,.12,0,.31a.48.48,0,0,0,.07-.25c0,.18.07,0,.08.15a1.82,1.82,0,0,1,.05-.2c0,.16.1-.2.16-.24,0,.18-.14.41,0,.28a1.37,1.37,0,0,1-.13.39c.11-.2,0,.17,0,.22l0,.08s0,0,0,0l.06-.23a.28.28,0,0,1,0,.14c.06-.14.1-.38.19-.57,0,.12.09-.11,0,.19,0-.12-.09.31-.15.34s0,0,0,0l0,.08c0,.28.13-.34.18-.31s-.08.32-.06.29.07-.29.13-.41c0,.14.07-.09.09-.07v-.06c.06-.17.07-.14.11-.19,0,.13-.05.08-.06.14.12-.29,0,.33.07.14,0,.12-.1.32-.1.4.11-.2,0,.25.07.08a1.4,1.4,0,0,1,.14-.39l-.12.14.15-.32s-.1.13-.1.09a1.15,1.15,0,0,0,.11-.31c-.07.35.12-.19.09.06l-.18.56c0,.27.18-.26.21-.1v-.1c.08-.22.05,0,.1-.1a2,2,0,0,0-.09.38c0-.14,0,0,.16-.35l0,.26c0,.12.23-.52.26-.44a4.13,4.13,0,0,1-.18.48s0,0,.07-.09c0,.13.12-.23.08,0,0-.08.1-.28.12-.26l0,.1a1.51,1.51,0,0,0,.11-.33c-.12.6.17,0,.06.52a.39.39,0,0,1,.17-.1c0,.06,0,.09,0,.07,0,.19.19-.53.19-.32s-.08.16-.1.28c-.18.62.09-.06,0,.31l0,0c0,.22.14-.21.17-.15a.85.85,0,0,0,0,.09,1.18,1.18,0,0,1,.3-.47,2.43,2.43,0,0,0-.13.38s.11-.4.18-.46a4.73,4.73,0,0,1-.12.53h0c-.08.35.05,0,.06.07l-.05.15c.07,0,.19-.41.24-.36l0-.12c.15-.36,0,.22.08,0l-.11.38a4.4,4.4,0,0,1,.26-.39,4.49,4.49,0,0,1-.28.55s.08,0,.15-.18c0,0-.06.12,0,.06.12-.29.2-.42.24-.4-.23.72.06.22-.08.79.16-.24.12.17.22.15.14-.58,0,0,.21-.59,0,0,0,0,0,0l0,.37c0,.17-.06.12-.1.25s-.05.25-.07.42c.06-.21.11-.3.11-.21l0-.28c.17-.29-.09.51.07.22L229,79c.07-.1.12,0,.3-.42a1,1,0,0,1-.08.27c.06.1.33-.44.3-.14l-.05.15s.11-.26.09-.11a1.26,1.26,0,0,0-.05.15c0-.05.12-.24.11-.15l-.06.15c0,.21.24-.35.33-.43a1.42,1.42,0,0,0-.1.65l0,.06c.08.08.27-.3.4-.44-.09.48.12.25.12.53a1.35,1.35,0,0,1,.14-.36c0,.09.14-.28,0,.11h0c-.1.38,0,.29,0,.31l.16-.5c-.14.76.3-.2.15.47.05-.12.08-.11.14-.23l-.09.27c0,.08,0,.13.14.08l-.07.19s.29-.76.33-.77l-.12.41c.07,0,0,.39.21,0a.77.77,0,0,1-.07.19s0,.31.2-.24c-.11.36.06,0,.14-.1l-.09.27a2.44,2.44,0,0,1,.24-.51s-.06.22-.05.15c0,.15.11-.25.1-.09l-.06.16s.05-.06.13-.25,0,.09,0,.33c0-.14.13-.34.13-.26a1.26,1.26,0,0,1-.07.17c0,.2.18-.28.14,0,0,.09,0,.14,0,.17s-.08-.05-.07-.07a4,4,0,0,1-.18.63c.09-.18.26-.56.26-.44a.37.37,0,0,1,0,.09v0s0,0,0,0,0,.08,0,.09c-.06.2,0,.12,0,.14a2.66,2.66,0,0,0,.13-.45s0,0,0,0v0h-.06c.06-.13.11-.24.09-.08.06-.17.12-.35.16-.43-.09.38-.11.6-.17.83a1,1,0,0,0,.36-.55c0-.06,0,.15-.05.23s0,0-.06.11c.07-.12.11,0,.23-.37,0,.17-.13.32-.05.28l0,.1c-.07.6.45-.84.35-.08a.79.79,0,0,1,0-.13c0,.36.38-.21.36.34,0,.11.08-.11.16-.27l-.08.29.14-.32c.13-.23-.12.74.1.3l0-.2s.12-.09,0,.13c0,0,.07-.2,0-.09l0,.15.14-.24c0,.13-.19.6-.13.65a2.27,2.27,0,0,0,.24-.52.64.64,0,0,1,0-.25l.05-.08a8,8,0,0,0,.34-1.22l-.13.26.06-.22h0c0-.21,0,0-.08.08a1.13,1.13,0,0,0,.05-.24l-.17.41a2.46,2.46,0,0,0,.13-.44,4.15,4.15,0,0,1-.18.51c0-.2.1-.37,0-.2a1.38,1.38,0,0,1,.09-.24c-.06.13-.08,0-.16.28.06-.26-.09,0,0-.38A2,2,0,0,1,234,78c.19-.49-.07-.05.11-.59-.17.45-.16.17-.28.41,0,0,0-.11,0-.08a1.52,1.52,0,0,1,0-.28,4.54,4.54,0,0,1-.27.67,6.46,6.46,0,0,1,.25-.78c-.09.3-.15.28-.22.54a3.05,3.05,0,0,1,.1-.43c-.15.47,0,.07-.16.35,0-.24.13-.44,0-.31A1.27,1.27,0,0,1,233.69,77.21Zm-1.18.52Zm-.08,0,0,0a.8.8,0,0,1-.06.18A1.06,1.06,0,0,0,232.43,77.71ZM232,79.62s0,0,0-.07l0,0v0A.89.89,0,0,1,232,79.62Z"/><path class="cls-9" d="M232.15,79.28l0,0s0-.05,0-.06l0,.08Z"/><path class="cls-9" d="M225.17,76.69h0a.08.08,0,0,1,0,0Z"/><polygon class="cls-9" points="231.51 76.86 231.49 76.93 231.51 76.87 231.51 76.86"/><path class="cls-9" d="M225,75.63a.19.19,0,0,0,0-.07A.64.64,0,0,0,225,75.63Z"/><path class="cls-9" d="M224.86,75.51v-.1C224.85,75.47,224.85,75.5,224.86,75.51Z"/><path class="cls-9" d="M224.75,75.34s0,.08,0,.11h0Z"/><path class="cls-9" d="M227.13,75.72h0S227.15,75.68,227.13,75.72Z"/><path class="cls-9" d="M226.26,76.14l.06-.12S226.31,76,226.26,76.14Z"/><polygon class="cls-9" points="227.99 75.63 227.99 75.64 227.99 75.64 227.99 75.63"/><path class="cls-9" d="M226.35,76c0-.06,0-.05,0,0S226.33,76.07,226.35,76Z"/><path class="cls-9" d="M224.17,75h0l0,0Z"/><path class="cls-9" d="M224.15,75.05l0,0S224.14,75.08,224.15,75.05Z"/><path class="cls-9" d="M224.1,75.14l0-.06S224.12,75.07,224.1,75.14Z"/><path class="cls-9" d="M224.32,75.2l0-.09Z"/><path class="cls-9" d="M224.39,75.19s0-.21,0-.16l0,.08C224.41,75,224.32,75.35,224.39,75.19Z"/><path class="cls-9" d="M224.26,76.47l0-.09a.72.72,0,0,1-.08.27C224.11,77,224.21,76.41,224.26,76.47Z"/><path class="cls-9" d="M224.36,76.67s-.05.15-.07.21A.4.4,0,0,0,224.36,76.67Z"/><path class="cls-9" d="M225.44,77l-.08.25S225.39,77.15,225.44,77Z"/><polygon class="cls-9" points="226.04 75.81 226.07 75.65 225.99 75.87 226.04 75.81"/><polygon class="cls-9" points="225.62 77.58 225.6 77.62 225.66 77.54 225.62 77.58"/><path class="cls-9" d="M227.47,78.06l.09-.3S227.42,78.14,227.47,78.06Z"/><path class="cls-9" d="M228.35,78c0,.16,0,.26,0,.12S228.37,78,228.35,78Z"/><polygon class="cls-9" points="230.55 79.21 230.51 79.31 230.56 79.23 230.55 79.21"/><path class="cls-9" d="M288.4,80.07c0-.08-.1-.26-.1-.22l.11.31Z"/><path class="cls-9" d="M288.1,79.53a4.92,4.92,0,0,0,.24.71c-.09-.31,0-.18-.17-.54,0,0,.06.09.11.2,0-.08,0,.06,0-.13s-.13-.24-.08,0C288.14,79.67,288.12,79.59,288.1,79.53Z"/><path class="cls-9" d="M286.63,79.59l0,0Z"/><path class="cls-9" d="M285.78,79.78a.21.21,0,0,0,0-.06A.07.07,0,0,0,285.78,79.78Z"/><path class="cls-9" d="M285.48,79.52l0,0S285.48,79.5,285.48,79.52Z"/><path class="cls-9" d="M286.63,79.59l-.06-.09C286.61,79.6,286.61,79.57,286.63,79.59Z"/><path class="cls-9" d="M288.22,80.35a.64.64,0,0,1,0-.09v0Z"/><path class="cls-9" d="M286.87,79.19h0l-.05-.12Z"/><path class="cls-9" d="M287.12,79s.1.25.14.36l-.06-.18A1.26,1.26,0,0,0,287.12,79Z"/><path class="cls-9" d="M287.74,79.31v0Z"/><path class="cls-9" d="M286.66,79.21l-.05-.09Z"/><path class="cls-9" d="M281.12,85.17l0,0Z"/><polygon class="cls-9" points="279.96 84.33 279.96 84.32 279.85 84.2 279.96 84.33"/><path class="cls-9" d="M285.08,79.32h0S285.07,79.3,285.08,79.32Z"/><path class="cls-9" d="M283,80.74c.15.2.13.3.31.51A4.36,4.36,0,0,0,283,80.74Z"/><path class="cls-9" d="M288.2,80.31h0S288.2,80.32,288.2,80.31Z"/><polygon class="cls-9" points="283.29 81.25 283.29 81.25 283.31 81.27 283.29 81.25"/><path class="cls-9" d="M284.59,79.76l.07.11Z"/><path class="cls-9" d="M285.19,79.9l0,0Z"/><path class="cls-9" d="M284.57,80.23s0,0,0,0l0,0S284.54,80.19,284.57,80.23Z"/><path class="cls-9" d="M284.35,80.35l0,.05v0Z"/><path class="cls-9" d="M281.58,84.61l-.17-.18C281.54,84.58,281.56,84.66,281.58,84.61Z"/><path class="cls-9" d="M288.16,80.2a.53.53,0,0,0,0,.11h0Z"/><path class="cls-9" d="M285.62,82.18l-.06,0S285.61,82.19,285.62,82.18Z"/><path class="cls-9" d="M282.88,83.57l0,0S282.9,83.6,282.88,83.57Z"/><path class="cls-9" d="M285.49,82.25l-.11-.16,0,.07Z"/><path class="cls-9" d="M281.41,84.42h0Z"/><path class="cls-9" d="M281.64,85.09s-.21-.28-.34-.45.19.19.32.33a2.6,2.6,0,0,1-.22-.37.73.73,0,0,1,.1.13c-.16-.25.05-.07-.15-.37l.06.06-.33-.39s-.12-.2,0,0c0,0,.05.07.09.14l0-.1c.23.26,0,.11.22.31-.05-.11-.2-.36-.12-.3.22.26,0,.13.24.34l-.11-.07c.36.39,0,0,.34.41.1,0-.06-.17,0-.12l-.29-.37c-.16-.31.58.63.34.24-.13-.18-.4-.52-.23-.37l.23.31c.06,0-.32-.45-.12-.28s.05.13.09.16c.21.21-.12-.19-.1-.2l.21.26c0-.07-.09-.3-.09-.39a2.19,2.19,0,0,0,.2.25c-.05-.18.14-.07.32.05l-.16-.25a.76.76,0,0,1,.12.15c.09.07-.11-.15-.17-.25s.12.12.17.2c-.12-.23-.22-.51,0-.29l.05.08c.1.07-.33-.51-.13-.32l0,0c.15,0,.06-.23.38.09-.24-.34.18.11-.16-.37a4.07,4.07,0,0,0,.43.42s-.19-.32-.21-.38l.18.25-.16-.28.23.29,0-.08a1,1,0,0,1-.15-.17c-.05-.14.19.12.28.25l-.08-.26c.07.11.08.15.12.22-.15-.28.19.26.06,0a1.21,1.21,0,0,1-.14-.2c.12.14.16.12.14,0l.12.18c.08,0,0-.15.1-.18a2.13,2.13,0,0,1-.29-.42l.19.26c-.1-.17-.08-.09-.2-.3a1.72,1.72,0,0,1,.27.39l0-.11.15.23c-.1-.18.23.24,0-.06l.06.08c.05,0,0-.15.05-.19a3.31,3.31,0,0,1-.22-.39c.09.05.25.21.27.17a2.64,2.64,0,0,0-.2-.36c.14.22.17.17.25.34,0-.07,0-.09,0-.3a1.82,1.82,0,0,1-.14-.19s.08.07.15.18v0c-.14-.37.56.53.33,0v0l-.09-.27c.05,0,.08.17.19.29-.17-.4.13,0,0-.28.43.62.11-.13.41.25l-.09-.15c-.08-.16.06.07.1.1a1,1,0,0,1-.14-.21c0-.26.37.08.57.15s-.44-.81-.17-.48l.15.3c-.11-.4.18-.1.11-.44a1,1,0,0,1,.07.16c.13.2.07,0,0-.2a2.64,2.64,0,0,1,.14.24c.09.11-.1-.3,0-.09a.19.19,0,0,1,0,.09c0-.11.07,0-.07-.25.1.1,0-.14.11,0-.14-.28.13.1-.08-.29.22.4.23.29.15.09.06.13.09.12.17.29,0,0,0-.11-.11-.31.3.46-.12-.43.23.17a1.92,1.92,0,0,1,0-.56c.2.4,0,.08.17.49,0-.19-.17-.56-.06-.49a1.17,1.17,0,0,1,.11.25c0-.2.14,0,.08-.27a.54.54,0,0,1,.05.11s.05.05,0-.13v0a6,6,0,0,1-.31-.72c.25.54.13.11.43.79a1.22,1.22,0,0,0-.11-.26.83.83,0,0,1,.13.25c0-.12-.12-.31-.08-.32l.1.23c-.07-.18-.14-.36-.07-.3s.06.12.05.12-.14-.5,0-.37a4.57,4.57,0,0,0,.25.46l0-.12-.09-.16s-.06-.26,0-.16l.05.15,0-.09-.09-.11c-.06-.19-.21-.43-.13-.35s0,0,.14.18h0c0-.11-.08-.23,0-.16s.18.38.22.45c-.13-.29,0-.11-.1-.42a2.73,2.73,0,0,0,.13.29l-.1-.24a1.32,1.32,0,0,1,.13.25c.06,0-.22-.43-.08-.26a.92.92,0,0,0,0,.09c.09.07,0-.19.11-.09.17.33,0,.1.15.38,0-.09-.06-.47,0-.42l0,0c-.22-.48.15.22.07,0,0,0,.12.27.09.22s0-.16,0-.34l0,.13c.08.1.09,0,.14.08a1.08,1.08,0,0,0-.11-.29c.39.67,0-.45.31.11a.42.42,0,0,0,0,.12v-.14c-.1-.21-.07-.13-.15-.29a.6.6,0,0,1-.06-.24,2.78,2.78,0,0,0,.21.46,1.8,1.8,0,0,0-.08-.21c.19.37-.18-.43,0-.19l.05.11c0-.06-.06-.22,0-.19.11.24,0,.12.12.32,0,0-.15-.48,0-.25a.88.88,0,0,0,0,.16c.15.28.12.2.15.24h0l.1.12-.05-.08c-.24-.65,0-.14-.12-.58a3.59,3.59,0,0,0,.2.52,1,1,0,0,1,.13.23c-.08-.23.1.16,0-.18a.74.74,0,0,1,.11.23c0-.08-.07-.15-.11-.27-.09-.32.24.34.13-.11,0-.19-.14-.5-.15-.67a2,2,0,0,1,.12.34c.07.12.08.09.06,0a1.74,1.74,0,0,0,.11.25s-.12-.34,0-.21.09.27.13.37c0-.09-.05-.27-.07-.36a1.7,1.7,0,0,1,.11.35,1,1,0,0,0-.08-.42l-.05-.09a2.35,2.35,0,0,1,.1.27c.06.2-.07-.08-.1-.17v-.06c-.22-.53,0,.11-.08.09l-.14-.39.1.33a2.39,2.39,0,0,1-.15-.37c-.1-.18,0,.14-.07-.06a.25.25,0,0,1,0-.07l0,.12c0-.08-.11-.27-.08-.22-.13-.2.05.32-.08,0v0a5.42,5.42,0,0,0,.2.63l-.31-.68.11.28s0,0-.08-.14c.06.21.06.13.12.31-.14-.24,0,.16-.22-.29.08.22.09.15.12.31-.2-.48,0,.1-.11-.11s0-.13-.14-.34c.16.43-.09-.07-.08,0,.14.33,0,.16,0,.29,0-.12-.15-.16-.23-.26l0-.06c.13.34.07.29.07.37-.08-.2-.11-.28-.14-.38h0a.73.73,0,0,1,.06.22l-.1-.25s.06.32-.06.17a6.47,6.47,0,0,1,.35.82,4.17,4.17,0,0,1-.17-.4s0,.11,0,.06l-.07-.22c-.06-.09.06.18,0,.16s-.06-.12-.13-.26.05.07,0,0a.77.77,0,0,1-.16-.26,2.6,2.6,0,0,1,.1.28s-.11-.21-.17-.3c.05.13,0,0,.09.28a1,1,0,0,1-.1-.19c0,.12-.07.07.08.34v0h0c.06.3-.19-.1-.19,0l0-.09c0,.12,0,.09,0,.3a1.3,1.3,0,0,1-.14-.26c0,.07.05.18-.05,0s-.08-.13,0-.12-.14-.2-.07.06c-.09-.24-.15-.28-.14-.2l.1.15s0,0-.05,0l-.13-.31c-.24-.33.17.68-.17.09.08.22.11.13.21.39-.05,0-.29-.45-.3-.44-.12-.15.17.46.08.36a2.66,2.66,0,0,1,.21.5,2,2,0,0,1-.27-.52l0,.06a.52.52,0,0,0-.09-.21l.05.11c-.07-.1-.11-.07-.18-.25a.42.42,0,0,0,.12.23c-.12-.14-.07,0-.16-.06a.88.88,0,0,1,.1.18c-.13-.11.07.21.06.28-.11-.15-.19-.39-.16-.24a1.39,1.39,0,0,1-.18-.37c.07.22-.13-.1-.17-.13l0-.09c0,.06,0,.06,0,.06l.11.21a.26.26,0,0,1-.08-.12c.06.15.18.35.26.55-.07-.1,0,.14-.14-.14.1.08-.14-.28-.13-.34s0,0,0,0a.16.16,0,0,1,0-.08c-.17-.23.14.33.09.35-.08-.16-.17-.3-.16-.26a1.38,1.38,0,0,1,.19.39c-.09-.11,0,.11,0,.1l.05,0c.07.16.05.15.05.21-.06-.12,0-.1-.06-.15.12.29-.2-.26-.13-.05-.07-.1-.16-.3-.21-.37.07.23-.15-.19-.1,0A1.27,1.27,0,0,1,285,80l0-.18.12.33s0-.16,0-.12a1.4,1.4,0,0,0,.15.3c-.19-.31,0,.21-.1,0l-.27-.53c-.17-.21.06.31-.06.21l.06.08c.1.22,0,0,0,.15a3.44,3.44,0,0,0-.2-.34c.07.13-.05,0,.13.36l-.15-.21c-.1-.07.21.52.14.48a3.09,3.09,0,0,1-.22-.46s-.05,0,0,.11c-.07-.11.08.25,0,.09a2.24,2.24,0,0,1,.11.26l-.05-.08a2.32,2.32,0,0,0,.16.31c-.34-.52-.11.11-.4-.33a.42.42,0,0,1,0,.18s-.05-.09,0-.07c-.13-.14.25.51.1.35s-.06-.16-.13-.26c-.33-.56,0,.11-.23-.2v0c-.13-.18.06.25,0,.23L284,80.5a1.4,1.4,0,0,1,.16.53,2.37,2.37,0,0,0-.19-.35s.21.36.22.44a4.65,4.65,0,0,1-.31-.44l0,0c-.19-.3,0,0-.08,0l-.07-.14c0,.07.17.41.11.42l.06.1c.17.35-.13-.18,0,.09l-.21-.34c0,.1.13.37.14.45a4.27,4.27,0,0,1-.24-.58s-.05.07,0,.24c0,0-.05-.13,0-.08.14.28.19.43.15.44-.39-.66-.2-.11-.53-.6.08.28-.19,0-.24.06.34.49,0,0,.31.55q0,.06,0,0l-.24-.27c-.11-.15-.06-.13-.13-.24s-.16-.21-.27-.34c.12.19.16.28.09.22l.18.22c.12.31-.32-.4-.2-.1l-.09-.17c0,.11-.1.06.14.49a.93.93,0,0,1-.15-.24c-.11,0,.13.54-.08.31l-.08-.12s.14.25,0,.13a.65.65,0,0,0-.09-.13s.11.24,0,.17l-.08-.14c-.17-.13.13.4.13.52a1.69,1.69,0,0,0-.43-.5l0,0c-.1,0,.08.39.11.58-.31-.37-.25-.07-.47-.25a2.21,2.21,0,0,1,.21.33c-.07-.06.13.28-.1,0h0c-.24-.31-.21-.21-.24-.2l.3.44c-.51-.58,0,.35-.44-.19.06.12,0,.14.1.25l-.17-.23c-.08,0-.12,0-.14.06l-.11-.18s.45.69.43.73l-.26-.34s-.32-.22-.14.13a.77.77,0,0,1-.11-.17s-.27-.16.09.3c-.23-.3-.08,0,0,.17l-.16-.23a2.44,2.44,0,0,1,.28.48s-.15-.17-.09-.12c-.12-.1.14.23,0,.13l-.1-.15s0,.08.13.25-.09,0-.25-.21c.09.12.2.3.14.25a.53.53,0,0,1-.1-.15c-.16-.12.13.31-.07.11l-.1-.12s.07,0,.08,0a4.48,4.48,0,0,1-.41-.51c.1.17.32.53.22.46l-.06-.07,0,0s0,0,0,0l-.07,0c-.13-.16-.1-.06-.12-.06a3.19,3.19,0,0,0,.29.37.06.06,0,0,1,0,0s0,0,0,0v0l0,0c.07.12.14.23,0,.12.11.14.22.3.27.37-.27-.3-.43-.43-.59-.62a1.09,1.09,0,0,0,.27.6c0,.06-.11-.11-.17-.17a.34.34,0,0,0,0-.11c.06.12,0,.1.18.39-.13-.11-.19-.28-.2-.2L280.4,83c-.46-.39.46.84-.11.32a.94.94,0,0,1,.1.1c-.32-.18,0,.41-.45.09-.1-.06.05.12.15.27l-.2-.22.19.29c.13.23-.55-.5-.29-.09l.14.15s0,.14-.13,0c0,0,.13.17.06.09l-.11-.12.13.25c-.11-.06-.4-.48-.48-.46a2.24,2.24,0,0,0,.33.47.82.82,0,0,1,.19.17l0,.08a9.12,9.12,0,0,0,.86.93l-.16-.24.16.16v0c.15.15,0,0,0-.1a.83.83,0,0,0,.18.17l-.27-.35a4,4,0,0,0,.31.34c-.12-.17-.28-.3-.35-.42.16.15.26.28.16.13l.16.19c-.08-.12,0-.07-.16-.27.19.19,0-.09.29.24a2.53,2.53,0,0,1-.2-.3c.32.42.07,0,.43.41-.29-.37-.07-.21-.21-.44l.05.07a2.31,2.31,0,0,1,.21.18,5.41,5.41,0,0,1-.42-.59c.26.27.28.37.52.64-.2-.24-.16-.28-.34-.47a2.26,2.26,0,0,1,.3.31c-.31-.37,0-.07-.21-.32.18.17.3.35.23.22A1.07,1.07,0,0,1,281.64,85.09Zm.12-1.17h0v0Zm.05,0h0a.85.85,0,0,1-.11-.16A.64.64,0,0,0,281.81,83.87Zm-1.32-1.44s0,0,.06,0v0l0,0Z"/><path class="cls-9" d="M280.7,82.73v0l0,0-.05-.08Z"/><path class="cls-9" d="M286.66,79.62h0l0,0Z"/><polygon class="cls-9" points="282.9 83.73 282.86 83.67 282.89 83.72 282.9 83.73"/><path class="cls-9" d="M287.41,80.35l0,.06Z"/><path class="cls-9" d="M287.59,80.34l.06.08S287.61,80.35,287.59,80.34Z"/><path class="cls-9" d="M287.77,80.42a.58.58,0,0,0,0-.11h0Z"/><path class="cls-9" d="M286.06,81.57v0S286.07,81.62,286.06,81.57Z"/><path class="cls-9" d="M286.31,80.71c0,.05,0,.1,0,.13S286.38,80.86,286.31,80.71Z"/><polygon class="cls-9" points="285.62 82.18 285.62 82.18 285.62 82.18 285.62 82.18"/><path class="cls-9" d="M286.32,80.85s0,0,0,0S286.31,80.81,286.32,80.85Z"/><path class="cls-9" d="M288.33,80.33h0v0Z"/><path class="cls-9" d="M288.33,80.29v0Z"/><path class="cls-9" d="M288.31,80.19v.07S288.33,80.26,288.31,80.19Z"/><path class="cls-9" d="M288.13,80.27l0,.09Z"/><path class="cls-9" d="M288.09,80.32s.11.19.1.12l0-.08C288.21,80.51,288,80.15,288.09,80.32Z"/><path class="cls-9" d="M287.41,79.23l.07.06a.8.8,0,0,1-.1-.26C287.2,78.75,287.48,79.25,287.41,79.23Z"/><path class="cls-9" d="M287.22,79.14a.52.52,0,0,0-.09-.2A.52.52,0,0,0,287.22,79.14Z"/><path class="cls-9" d="M286.28,79.55l-.11-.23S286.22,79.41,286.28,79.55Z"/><polygon class="cls-9" points="286.66 80.83 286.75 80.97 286.65 80.75 286.66 80.83"/><polygon class="cls-9" points="285.78 79.23 285.77 79.19 285.79 79.29 285.78 79.23"/><path class="cls-9" d="M284.27,80.11l.15.27S284.24,80,284.27,80.11Z"/><path class="cls-9" d="M283.77,80.76c-.08-.13-.15-.21-.09-.07S283.79,80.8,283.77,80.76Z"/><polygon class="cls-9" points="281.6 81.55 281.55 81.46 281.58 81.55 281.6 81.55"/><path class="cls-10" d="M205.25,127.74l85-3.61a44.06,44.06,0,0,0-85,3.61Z"/><rect class="cls-11" x="221.49" y="106.05" width="50.64" height="16.27" rx="5.18" transform="translate(-3.76 8.5) rotate(-1.96)"/><path class="cls-12" d="M227,115.08a11.6,11.6,0,0,1,5.43-3.61c3.82-1.3,5.68,0,10.85,0,3.47,0,2.87-.61,10.85-1.81,9.94-1.5,11.68-.69,12.66,0,2.38,1.68,3.21,4.61,3.62,7.23.5,3.21,2,13-1.36,14.33-2.35,1-4.31-3.27-8-2.65-4.12.69-4.57,6.54-8,6.64-2.55.07-2.71-3.21-8-5.66-2.71-1.25-3.63-.84-5.26-2.31-2.36-2.13-2-4.39-3.79-4.92-1.45-.44-2.11.94-5.42,1.81-1.75.46-4.21,1.1-5.43,0C223.43,122.57,224.63,118,227,115.08Z"/><path class="cls-13" d="M261.55,226.69a108.07,108.07,0,0,0-5,19c-1.85,11-2.77,26.81-3,30.66-.48,8.2-.52,12.62-3,16.06-2.14,3-5.88,4.9-8,2.92-3.18-3-2.9-15-1-23.36.81-3.53,1.82-6,1-8.76-.91-3.05-3.79-5.26-6-4.38-.72.29-1.79,1.07-5,10.22-2.46,7-2.46,8.4-4,10.22-.18.22-3.21,3.7-7,2.92-4.24-.88-5-6.17-8-5.84-3.32.36-5.44,7-6,8.76a29.13,29.13,0,0,0-1,13.13c.42,2.38,1,3.3,1,5.84,0,1.1,0,6-2,7.3-1.65,1.08-4-.6-5-2.92-.88-2-.42-3.57,0-10.22a74.15,74.15,0,0,0,0-13.13c-.35-3.34-.71-6.74-2-7.3s-2.08,2.59-5,4.38a7,7,0,0,1-6.28.62,6.9,6.9,0,0,1-2.72-2.08c-3.82-4.66-4-18.93-4-20a122,122,0,0,0,82-34Z"/><path class="cls-14" d="M168.25,21.44c-7.5,5.92-9.53,11.24-10,15-.74,5.9,2.05,10.62-1,15a11.11,11.11,0,0,1-6,4c-10.72,3.38-18.06-8.65-25-6-8.68,3.31-4.62,24.94-14,28-4.07,1.32-6.71-2.13-13,0-4.38,1.48-5,3.82-9,5-3,.89-7.19.92-13-2,.57-1.91,1.23-3.92,2-6q1-2.64,2-5c6.4,4.92,12,5.07,14,5,10.53-.37,17.68-9.91,20-13,5.42-7.23,3.84-10.45,8-13,8.33-5.1,19.49,4.9,24,1,2.17-1.88,3-7.19-4-23a102.77,102.77,0,0,1,25-5Z"/></g></svg>