<svg xmlns="http://www.w3.org/2000/svg" xmlns:xlink="http://www.w3.org/1999/xlink" width="320" height="320" viewBox="0 0 320 320"><defs><style>.cls-1{fill:url(#radial-gradient);}.cls-2{fill:url(#radial-gradient-2);}.cls-3{fill:url(#radial-gradient-3);}.cls-4{fill:#a38078;}.cls-5{fill:url(#radial-gradient-4);}</style><radialGradient id="radial-gradient" cx="160" cy="160" r="147.88" gradientUnits="userSpaceOnUse"><stop offset="0" stop-color="#fff"/><stop offset="0.41" stop-color="#fbefe8"/><stop offset="0.68" stop-color="#f9e8de"/><stop offset="0.81" stop-color="#f9eae1"/><stop offset="0.9" stop-color="#fbf0e9"/><stop offset="0.97" stop-color="#fefaf8"/><stop offset="1" stop-color="#fff"/></radialGradient><radialGradient id="radial-gradient-2" cx="-264.9" cy="-3031.93" r="115.82" gradientTransform="matrix(0.98, 0.52, -0.5, 0.94, -1089.97, 3130.96)" xlink:href="#radial-gradient"/><radialGradient id="radial-gradient-3" cx="176.71" cy="146.88" r="121.34" xlink:href="#radial-gradient"/><radialGradient id="radial-gradient-4" cx="160.15" cy="153" r="107.83" gradientUnits="userSpaceOnUse"><stop offset="0" stop-color="#f4caa6"/><stop offset="0.04" stop-color="#efc5a3"/><stop offset="0.3" stop-color="#cea790"/><stop offset="0.56" stop-color="#b69283"/><stop offset="0.8" stop-color="#a8857b"/><stop offset="1" stop-color="#a38078"/></radialGradient></defs><g id="Layer_2" data-name="Layer 2"><path class="cls-1" d="M310.07,155.36c.24,31.55-12.85,56.42-21.61,70a15.38,15.38,0,0,1-1.39,10c-1.13,2.08-2,2.29-7,7-5.66,5.33-5.93,6.37-8,7-1.51.46-5.2,1.08-11-3l-17.88,26.18a24.09,24.09,0,0,0-4.12,3.82c-2.43,2.84-2.81,4.65-4,6-1.64,1.84-5.23,3.31-14,1.31q-4.33,2.19-8.68,4.37a77.55,77.55,0,0,1-8.32,8.32c-5.63,4.81-9.38,8-14,9-9.89,2.07-19.15-7.1-21-9a44.94,44.94,0,0,1-9,0,46.29,46.29,0,0,1-20-7l-49-18c-6.7-4.48-12.19-7.79-16-10-5.55-3.22-9.53-5.26-12-10a17.89,17.89,0,0,1-1.93-6.79q-4.68-5.69-9.37-11.38a61.06,61.06,0,0,1-9.7-7.83c-4.11-4.06-12.08-12-14-23-.78-4.45,0-5.94,1-15a200.67,200.67,0,0,0,1-27c-.67-1.67-1.34-3.33-2-5a12.14,12.14,0,0,1-9,2,11.74,11.74,0,0,1-9-9c-.88-4.72,2.78-6,5-13,3.59-11.32-2.6-18.75,2-23,3.36-3.11,8.6-.92,10-4,1.05-2.33-1.76-4-2-8-.3-4.81,3.47-7.09,8-14,2.7-4.13,1.35-3.32,7-15,7.25-15,9.49-16.38,11-17S57.83,52,67,58.09c11-10.67,48.79-44.71,102.08-43.73C244,15.73,309.51,85.58,310.07,155.36Z"/><path class="cls-2" d="M272.72,207.4c-23,43.65-74.8,68.71-128.94,61.84a41.55,41.55,0,0,1-20.53-1.82c-8.66-3.18-13.76-8.7-17.6-12.72-21.79-22.82-23.63-19.08-32.82-31-6.29-8.14-18.13-26.34-21-57.1-3.8,5.29-8.32,8.21-11.42,7.13-2.73-1-3.54-4.72-4.67-10.4-.93-4.61-2.09-13.28.16-25.94a93.34,93.34,0,0,1,3-12c-2.85-6.63-2.14-10.61-1-13,2.17-4.67,6.13-3.78,9.62-9.62,2.58-4.31,3.07-9.22,3.44-12.89a49.1,49.1,0,0,0,.15-6.71,55.22,55.22,0,0,1,3.6-19.6,17.36,17.36,0,0,0,7.27-5.19c2.43-3,2.34-5.25,3.75-7.07,1.89-2.45,6.67-4.4,19.93-1.19C88.35,48.46,155,8.56,218,42.62,273.77,72.78,303.79,148.56,272.72,207.4Z"/><path class="cls-3" d="M277,215.69c-29.15,41-83.14,60.61-134.42,48.2A38.65,38.65,0,0,1,123,260c-7.88-4-11.94-10.07-15-14.45-17.49-24.95-19.86-21.41-26.88-34.17-4.8-8.74-13.4-28.06-11.3-58.93-4.51,4.87-9.33,7.31-12.16,5.91-2.49-1.23-2.68-5.06-2.89-10.82-.17-4.68.06-13.42,4.23-25.77a101.63,101.63,0,0,1,4.75-11.64c-1.71-6.88-.4-10.77,1-13,2.83-4.42,6.52-3.13,10.82-8.57C78.78,84.48,80,79.64,81,76a53.45,53.45,0,0,0,1.21-6.65,58.51,58.51,0,0,1,6.55-19.11,18.27,18.27,0,0,0,7.86-4.42c2.82-2.75,3.08-5,4.73-6.64,2.21-2.24,7.14-3.68,19.46.87,2.91-1.41,73.63-34.21,129.2,6.14C299.16,82,316.3,160.39,277,215.69Z"/><circle class="cls-4" cx="206.03" cy="100.2" r="0.5"/><circle class="cls-4" cx="193.85" cy="98.6" r="0.5"/><circle class="cls-4" cx="173.37" cy="108.55" r="0.5"/><circle class="cls-4" cx="211.72" cy="118.36" r="0.5"/><ellipse class="cls-4" cx="184.35" cy="114.27" rx="0.1" ry="0.08" transform="translate(-4.12 221.61) rotate(-61.45)"/><ellipse class="cls-4" cx="187.7" cy="114.58" rx="0.1" ry="0.08" transform="translate(-2.65 224.71) rotate(-61.45)"/><ellipse class="cls-4" cx="184.67" cy="110.92" rx="0.1" ry="0.08" transform="translate(-1.02 220.13) rotate(-61.45)"/><ellipse class="cls-4" cx="181.08" cy="111.98" rx="0.1" ry="0.08" transform="translate(-3.82 217.53) rotate(-61.45)"/><ellipse class="cls-4" cx="189.78" cy="117.22" rx="0.1" ry="0.08" transform="translate(-3.88 227.91) rotate(-61.45)"/><ellipse class="cls-4" cx="188.78" cy="106.13" rx="0.1" ry="0.08" transform="translate(5.34 221.25) rotate(-61.45)"/><ellipse class="cls-4" cx="180.72" cy="110.79" rx="0.1" ry="0.08" transform="translate(-2.96 216.6) rotate(-61.45)"/><ellipse class="cls-4" cx="184.09" cy="104.59" rx="0.1" ry="0.08" transform="translate(4.25 216.32) rotate(-61.45)"/><ellipse class="cls-4" cx="186.67" cy="110.01" rx="0.1" ry="0.08" transform="translate(0.83 221.42) rotate(-61.45)"/><ellipse class="cls-4" cx="168.32" cy="104.04" rx="0.1" ry="0.08" transform="translate(-3.51 202.18) rotate(-61.45)"/><ellipse class="cls-4" cx="169.42" cy="106.65" rx="0.1" ry="0.08" transform="translate(-5.22 204.5) rotate(-61.45)"/><ellipse class="cls-4" cx="171.88" cy="103.97" rx="0.1" ry="0.08" transform="translate(-1.58 205.27) rotate(-61.45)"/><ellipse class="cls-4" cx="185.01" cy="106.59" rx="0.1" ry="0.08" transform="translate(2.97 218.18) rotate(-61.45)"/><ellipse class="cls-4" cx="194.82" cy="119.96" rx="0.1" ry="0.08" transform="translate(-3.66 233.77) rotate(-61.45)"/><ellipse class="cls-4" cx="199.96" cy="119.74" rx="0.1" ry="0.08" transform="translate(-0.78 238.17) rotate(-61.45)"/><circle class="cls-4" cx="189.29" cy="110.68" r="0.5"/><circle class="cls-4" cx="157.16" cy="98.44" r="0.5"/><circle class="cls-4" cx="195.71" cy="90.45" r="0.5"/><circle class="cls-4" cx="179.49" cy="108.19" r="0.5"/><circle class="cls-4" cx="191.36" cy="81.18" r="0.5"/><circle class="cls-4" cx="168.59" cy="80.86" r="0.5"/><circle class="cls-4" cx="198.43" cy="106.87" r="0.5"/><circle class="cls-4" cx="174.52" cy="97.15" r="0.5"/><circle class="cls-4" cx="163.33" cy="98.57" r="0.5"/><circle class="cls-4" cx="153.17" cy="91.66" r="0.5"/><ellipse class="cls-4" cx="181.63" cy="95.09" rx="0.1" ry="0.08" transform="translate(11.3 209.21) rotate(-61.45)"/><ellipse class="cls-4" cx="178.04" cy="96.16" rx="0.1" ry="0.08" transform="translate(8.5 206.61) rotate(-61.45)"/><ellipse class="cls-4" cx="177.69" cy="94.96" rx="0.1" ry="0.08" transform="translate(9.36 205.67) rotate(-61.45)"/><ellipse class="cls-4" cx="181.06" cy="88.76" rx="0.1" ry="0.08" transform="translate(16.57 205.4) rotate(-61.45)"/><ellipse class="cls-4" cx="181.98" cy="90.76" rx="0.1" ry="0.08" transform="translate(15.29 207.25) rotate(-61.45)"/><ellipse class="cls-4" cx="173.32" cy="90.07" rx="0.1" ry="0.08" transform="translate(11.38 199.28) rotate(-61.45)"/><ellipse class="cls-4" cx="169.73" cy="91.13" rx="0.1" ry="0.08" transform="translate(8.57 196.68) rotate(-61.45)"/><ellipse class="cls-4" cx="169.37" cy="89.93" rx="0.1" ry="0.08" transform="translate(9.44 195.74) rotate(-61.45)"/><ellipse class="cls-4" cx="172.75" cy="83.73" rx="0.1" ry="0.08" transform="translate(16.64 195.47) rotate(-61.45)"/><ellipse class="cls-4" cx="173.67" cy="85.74" rx="0.1" ry="0.08" transform="translate(15.36 197.32) rotate(-61.45)"/><ellipse class="cls-4" cx="181.62" cy="95.34" rx="0.1" ry="0.08" transform="translate(11.08 209.32) rotate(-61.45)"/><ellipse class="cls-4" cx="181.93" cy="91.99" rx="0.1" ry="0.08" transform="translate(14.18 207.85) rotate(-61.45)"/><ellipse class="cls-4" cx="178.34" cy="93.06" rx="0.1" ry="0.08" transform="translate(11.38 205.25) rotate(-61.45)"/><ellipse class="cls-4" cx="186.05" cy="87.2" rx="0.1" ry="0.08" transform="translate(20.54 208.96) rotate(-61.45)"/><ellipse class="cls-4" cx="177.99" cy="91.86" rx="0.1" ry="0.08" transform="translate(12.24 204.32) rotate(-61.45)"/><ellipse class="cls-4" cx="181.36" cy="85.66" rx="0.1" ry="0.08" transform="translate(19.45 204.04) rotate(-61.45)"/><ellipse class="cls-4" cx="183.94" cy="91.08" rx="0.1" ry="0.08" transform="translate(16.04 209.14) rotate(-61.45)"/><ellipse class="cls-4" cx="182.28" cy="87.66" rx="0.1" ry="0.08" transform="translate(18.17 205.9) rotate(-61.45)"/><circle class="cls-4" cx="186.56" cy="91.75" r="0.5"/><circle class="cls-4" cx="176.76" cy="89.26" r="0.5"/><ellipse class="cls-4" cx="198.62" cy="100.18" rx="0.1" ry="0.08" transform="translate(15.7 226.78) rotate(-61.45)"/><ellipse class="cls-4" cx="198.93" cy="96.83" rx="0.1" ry="0.08" transform="translate(18.81 225.31) rotate(-61.45)"/><ellipse class="cls-4" cx="195.34" cy="97.89" rx="0.1" ry="0.08" transform="translate(16 222.71) rotate(-61.45)"/><ellipse class="cls-4" cx="203.04" cy="92.04" rx="0.1" ry="0.08" transform="translate(25.17 226.42) rotate(-61.45)"/><ellipse class="cls-4" cx="194.99" cy="96.7" rx="0.1" ry="0.08" transform="translate(16.87 221.77) rotate(-61.45)"/><ellipse class="cls-4" cx="198.36" cy="90.5" rx="0.1" ry="0.08" transform="translate(24.08 221.5) rotate(-61.45)"/><ellipse class="cls-4" cx="200.94" cy="95.92" rx="0.1" ry="0.08" transform="translate(20.66 226.59) rotate(-61.45)"/><ellipse class="cls-4" cx="199.28" cy="92.5" rx="0.1" ry="0.08" transform="translate(22.79 223.35) rotate(-61.45)"/><circle class="cls-4" cx="193.75" cy="94.1" r="0.5"/><ellipse class="cls-4" cx="196.93" cy="106.8" rx="0.1" ry="0.08" transform="translate(9.01 228.76) rotate(-61.45)"/><ellipse class="cls-4" cx="197.25" cy="103.45" rx="0.1" ry="0.08" transform="translate(12.12 227.29) rotate(-61.45)"/><ellipse class="cls-4" cx="193.66" cy="104.51" rx="0.1" ry="0.08" transform="translate(9.31 224.69) rotate(-61.45)"/><ellipse class="cls-4" cx="201.36" cy="98.66" rx="0.1" ry="0.08" transform="translate(18.47 228.4) rotate(-61.45)"/><ellipse class="cls-4" cx="199.25" cy="102.53" rx="0.1" ry="0.08" transform="translate(13.97 228.57) rotate(-61.45)"/><ellipse class="cls-4" cx="197.59" cy="99.12" rx="0.1" ry="0.08" transform="translate(16.1 225.33) rotate(-61.45)"/><ellipse class="cls-4" cx="183.73" cy="106.14" rx="0.1" ry="0.08" transform="translate(2.69 216.82) rotate(-61.45)"/><ellipse class="cls-4" cx="184.04" cy="102.8" rx="0.1" ry="0.08" transform="translate(5.8 215.35) rotate(-61.45)"/><ellipse class="cls-4" cx="180.45" cy="103.86" rx="0.1" ry="0.08" transform="translate(2.99 212.75) rotate(-61.45)"/><ellipse class="cls-4" cx="188.16" cy="98.01" rx="0.1" ry="0.08" transform="translate(12.15 216.46) rotate(-61.45)"/><ellipse class="cls-4" cx="186.05" cy="101.88" rx="0.1" ry="0.08" transform="translate(7.65 216.63) rotate(-61.45)"/><ellipse class="cls-4" cx="184.39" cy="98.47" rx="0.1" ry="0.08" transform="translate(9.78 213.39) rotate(-61.45)"/><circle class="cls-4" cx="270.64" cy="182.98" r="0.5"/><circle class="cls-4" cx="258.46" cy="181.38" r="0.5"/><circle class="cls-4" cx="237.98" cy="191.33" r="0.5"/><circle class="cls-4" cx="276.33" cy="201.14" r="0.5"/><ellipse class="cls-4" cx="248.96" cy="197.05" rx="0.1" ry="0.08" transform="translate(-43.1 321.58) rotate(-61.45)"/><ellipse class="cls-4" cx="252.31" cy="197.36" rx="0.1" ry="0.08" transform="translate(-41.63 324.69) rotate(-61.45)"/><ellipse class="cls-4" cx="249.27" cy="193.71" rx="0.1" ry="0.08" transform="translate(-40 320.11) rotate(-61.45)"/><ellipse class="cls-4" cx="245.68" cy="194.77" rx="0.1" ry="0.08" transform="translate(-42.81 317.51) rotate(-61.45)"/><ellipse class="cls-4" cx="254.39" cy="200" rx="0.1" ry="0.08" transform="translate(-42.86 327.89) rotate(-61.45)"/><ellipse class="cls-4" cx="253.39" cy="188.91" rx="0.1" ry="0.08" transform="translate(-33.64 321.22) rotate(-61.45)"/><ellipse class="cls-4" cx="245.33" cy="193.57" rx="0.1" ry="0.08" transform="translate(-41.94 316.58) rotate(-61.45)"/><ellipse class="cls-4" cx="248.7" cy="187.37" rx="0.1" ry="0.08" transform="translate(-34.73 316.3) rotate(-61.45)"/><ellipse class="cls-4" cx="251.28" cy="192.79" rx="0.1" ry="0.08" transform="translate(-38.15 321.4) rotate(-61.45)"/><ellipse class="cls-4" cx="232.93" cy="186.82" rx="0.1" ry="0.08" transform="translate(-42.49 302.16) rotate(-61.45)"/><ellipse class="cls-4" cx="234.02" cy="189.43" rx="0.1" ry="0.08" transform="translate(-44.21 304.48) rotate(-61.45)"/><ellipse class="cls-4" cx="236.48" cy="186.75" rx="0.1" ry="0.08" transform="translate(-40.57 305.25) rotate(-61.45)"/><ellipse class="cls-4" cx="249.62" cy="189.37" rx="0.1" ry="0.08" transform="translate(-36.02 318.16) rotate(-61.45)"/><ellipse class="cls-4" cx="259.42" cy="202.74" rx="0.1" ry="0.08" transform="translate(-42.64 333.75) rotate(-61.45)"/><ellipse class="cls-4" cx="264.56" cy="202.53" rx="0.1" ry="0.08" transform="translate(-39.77 338.15) rotate(-61.45)"/><circle class="cls-4" cx="253.9" cy="193.46" r="0.5"/><circle class="cls-4" cx="221.77" cy="181.23" r="0.5"/><circle class="cls-4" cx="260.32" cy="173.24" r="0.5"/><circle class="cls-4" cx="244.1" cy="190.97" r="0.5"/><circle class="cls-4" cx="255.96" cy="163.96" r="0.5"/><circle class="cls-4" cx="233.2" cy="163.64" r="0.5"/><circle class="cls-4" cx="263.04" cy="189.65" r="0.5"/><circle class="cls-4" cx="239.12" cy="179.93" r="0.5"/><circle class="cls-4" cx="227.94" cy="181.35" r="0.5"/><circle class="cls-4" cx="217.78" cy="174.44" r="0.5"/><ellipse class="cls-4" cx="246.24" cy="177.88" rx="0.1" ry="0.08" transform="translate(-27.68 309.18) rotate(-61.45)"/><ellipse class="cls-4" cx="242.65" cy="178.94" rx="0.1" ry="0.08" transform="translate(-30.49 306.58) rotate(-61.45)"/><ellipse class="cls-4" cx="242.3" cy="177.74" rx="0.1" ry="0.08" transform="translate(-29.62 305.65) rotate(-61.45)"/><ellipse class="cls-4" cx="245.67" cy="171.54" rx="0.1" ry="0.08" transform="translate(-22.41 305.37) rotate(-61.45)"/><ellipse class="cls-4" cx="246.59" cy="173.55" rx="0.1" ry="0.08" transform="translate(-23.69 307.23) rotate(-61.45)"/><ellipse class="cls-4" cx="237.93" cy="172.85" rx="0.1" ry="0.08" transform="translate(-27.61 299.26) rotate(-61.45)"/><ellipse class="cls-4" cx="234.34" cy="173.91" rx="0.1" ry="0.08" transform="translate(-30.41 296.66) rotate(-61.45)"/><ellipse class="cls-4" cx="233.98" cy="172.71" rx="0.1" ry="0.08" transform="translate(-29.55 295.72) rotate(-61.45)"/><ellipse class="cls-4" cx="237.36" cy="166.51" rx="0.1" ry="0.08" transform="translate(-22.34 295.45) rotate(-61.45)"/><ellipse class="cls-4" cx="238.27" cy="168.52" rx="0.1" ry="0.08" transform="translate(-23.62 297.3) rotate(-61.45)"/><ellipse class="cls-4" cx="246.23" cy="178.12" rx="0.1" ry="0.08" transform="translate(-27.9 309.3) rotate(-61.45)"/><ellipse class="cls-4" cx="246.54" cy="174.78" rx="0.1" ry="0.08" transform="translate(-24.8 307.83) rotate(-61.45)"/><ellipse class="cls-4" cx="242.95" cy="175.84" rx="0.1" ry="0.08" transform="translate(-27.61 305.23) rotate(-61.45)"/><ellipse class="cls-4" cx="250.66" cy="169.98" rx="0.1" ry="0.08" transform="translate(-18.44 308.94) rotate(-61.45)"/><ellipse class="cls-4" cx="242.6" cy="174.64" rx="0.1" ry="0.08" transform="translate(-26.74 304.3) rotate(-61.45)"/><ellipse class="cls-4" cx="245.97" cy="168.44" rx="0.1" ry="0.08" transform="translate(-19.53 304.02) rotate(-61.45)"/><ellipse class="cls-4" cx="248.55" cy="173.86" rx="0.1" ry="0.08" transform="translate(-22.95 309.11) rotate(-61.45)"/><ellipse class="cls-4" cx="246.89" cy="170.45" rx="0.1" ry="0.08" transform="translate(-20.81 305.87) rotate(-61.45)"/><circle class="cls-4" cx="251.17" cy="174.53" r="0.5"/><circle class="cls-4" cx="241.37" cy="172.05" r="0.5"/><ellipse class="cls-4" cx="263.22" cy="182.96" rx="0.1" ry="0.08" transform="translate(-23.28 326.76) rotate(-61.45)"/><ellipse class="cls-4" cx="263.54" cy="179.62" rx="0.1" ry="0.08" transform="translate(-20.18 325.29) rotate(-61.45)"/><ellipse class="cls-4" cx="259.95" cy="180.68" rx="0.1" ry="0.08" transform="translate(-22.98 322.69) rotate(-61.45)"/><ellipse class="cls-4" cx="267.65" cy="174.82" rx="0.1" ry="0.08" transform="translate(-13.82 326.4) rotate(-61.45)"/><ellipse class="cls-4" cx="259.59" cy="179.48" rx="0.1" ry="0.08" transform="translate(-22.12 321.75) rotate(-61.45)"/><ellipse class="cls-4" cx="262.97" cy="173.28" rx="0.1" ry="0.08" transform="translate(-14.91 321.48) rotate(-61.45)"/><ellipse class="cls-4" cx="265.54" cy="178.7" rx="0.1" ry="0.08" transform="translate(-18.32 326.57) rotate(-61.45)"/><ellipse class="cls-4" cx="263.89" cy="175.28" rx="0.1" ry="0.08" transform="translate(-16.19 323.33) rotate(-61.45)"/><circle class="cls-4" cx="258.36" cy="176.88" r="0.5"/><ellipse class="cls-4" cx="261.54" cy="189.58" rx="0.1" ry="0.08" transform="translate(-29.97 328.74) rotate(-61.45)"/><ellipse class="cls-4" cx="261.86" cy="186.23" rx="0.1" ry="0.08" transform="translate(-26.87 327.26) rotate(-61.45)"/><ellipse class="cls-4" cx="258.27" cy="187.29" rx="0.1" ry="0.08" transform="translate(-29.67 324.66) rotate(-61.45)"/><ellipse class="cls-4" cx="265.97" cy="181.44" rx="0.1" ry="0.08" transform="translate(-20.51 328.38) rotate(-61.45)"/><ellipse class="cls-4" cx="263.86" cy="185.32" rx="0.1" ry="0.08" transform="translate(-25.02 328.55) rotate(-61.45)"/><ellipse class="cls-4" cx="262.2" cy="181.9" rx="0.1" ry="0.08" transform="translate(-22.88 325.31) rotate(-61.45)"/><ellipse class="cls-4" cx="248.34" cy="188.92" rx="0.1" ry="0.08" transform="translate(-36.29 316.8) rotate(-61.45)"/><ellipse class="cls-4" cx="248.65" cy="185.58" rx="0.1" ry="0.08" transform="translate(-33.19 315.32) rotate(-61.45)"/><ellipse class="cls-4" cx="245.06" cy="186.64" rx="0.1" ry="0.08" transform="translate(-35.99 312.72) rotate(-61.45)"/><ellipse class="cls-4" cx="252.77" cy="180.79" rx="0.1" ry="0.08" transform="translate(-26.83 316.44) rotate(-61.45)"/><ellipse class="cls-4" cx="250.66" cy="184.66" rx="0.1" ry="0.08" transform="translate(-31.34 316.61) rotate(-61.45)"/><ellipse class="cls-4" cx="249" cy="181.25" rx="0.1" ry="0.08" transform="translate(-29.2 313.37) rotate(-61.45)"/><circle class="cls-4" cx="291.54" cy="134.19" r="0.5"/><circle class="cls-4" cx="279.36" cy="132.59" r="0.5"/><circle class="cls-4" cx="258.88" cy="142.54" r="0.5"/><circle class="cls-4" cx="297.23" cy="152.35" r="0.5"/><ellipse class="cls-4" cx="269.86" cy="148.26" rx="0.1" ry="0.08" transform="translate(10.67 314.47) rotate(-61.45)"/><ellipse class="cls-4" cx="273.2" cy="148.57" rx="0.1" ry="0.08" transform="translate(12.14 317.57) rotate(-61.45)"/><ellipse class="cls-4" cx="270.17" cy="144.92" rx="0.1" ry="0.08" transform="translate(13.77 312.99) rotate(-61.45)"/><ellipse class="cls-4" cx="266.58" cy="145.98" rx="0.1" ry="0.08" transform="translate(10.96 310.39) rotate(-61.45)"/><ellipse class="cls-4" cx="275.28" cy="151.21" rx="0.1" ry="0.08" transform="translate(10.91 320.77) rotate(-61.45)"/><ellipse class="cls-4" cx="274.28" cy="140.12" rx="0.1" ry="0.08" transform="translate(20.13 314.11) rotate(-61.45)"/><ellipse class="cls-4" cx="266.23" cy="144.78" rx="0.1" ry="0.08" transform="translate(11.83 309.46) rotate(-61.45)"/><ellipse class="cls-4" cx="269.6" cy="138.58" rx="0.1" ry="0.08" transform="translate(19.04 309.18) rotate(-61.45)"/><ellipse class="cls-4" cx="272.18" cy="144" rx="0.1" ry="0.08" transform="translate(15.62 314.28) rotate(-61.45)"/><ellipse class="cls-4" cx="253.83" cy="138.03" rx="0.1" ry="0.08" transform="translate(11.28 295.04) rotate(-61.45)"/><ellipse class="cls-4" cx="254.92" cy="140.64" rx="0.1" ry="0.08" transform="translate(9.56 297.36) rotate(-61.45)"/><ellipse class="cls-4" cx="257.38" cy="137.96" rx="0.1" ry="0.08" transform="translate(13.2 298.13) rotate(-61.45)"/><ellipse class="cls-4" cx="270.52" cy="140.59" rx="0.1" ry="0.08" transform="translate(17.75 311.04) rotate(-61.45)"/><ellipse class="cls-4" cx="280.32" cy="153.95" rx="0.1" ry="0.08" transform="translate(11.13 326.63) rotate(-61.45)"/><ellipse class="cls-4" cx="285.46" cy="153.74" rx="0.1" ry="0.08" transform="translate(14 331.03) rotate(-61.45)"/><circle class="cls-4" cx="274.79" cy="144.67" r="0.5"/><circle class="cls-4" cx="242.67" cy="132.44" r="0.5"/><circle class="cls-4" cx="281.22" cy="124.45" r="0.5"/><circle class="cls-4" cx="264.99" cy="142.19" r="0.5"/><circle class="cls-4" cx="276.86" cy="115.17" r="0.5"/><circle class="cls-4" cx="254.09" cy="114.85" r="0.5"/><circle class="cls-4" cx="283.94" cy="140.86" r="0.5"/><circle class="cls-4" cx="260.02" cy="131.14" r="0.5"/><circle class="cls-4" cx="248.84" cy="132.56" r="0.5"/><circle class="cls-4" cx="238.68" cy="125.65" r="0.5"/><ellipse class="cls-4" cx="267.14" cy="129.09" rx="0.1" ry="0.08" transform="translate(26.09 302.07) rotate(-61.45)"/><ellipse class="cls-4" cx="263.55" cy="130.15" rx="0.1" ry="0.08" transform="translate(23.28 299.47) rotate(-61.45)"/><ellipse class="cls-4" cx="263.19" cy="128.95" rx="0.1" ry="0.08" transform="translate(24.15 298.53) rotate(-61.45)"/><ellipse class="cls-4" cx="266.57" cy="122.75" rx="0.1" ry="0.08" transform="translate(31.36 298.26) rotate(-61.45)"/><ellipse class="cls-4" cx="267.49" cy="124.76" rx="0.1" ry="0.08" transform="translate(30.07 300.11) rotate(-61.45)"/><ellipse class="cls-4" cx="258.82" cy="124.06" rx="0.1" ry="0.08" transform="translate(26.16 292.14) rotate(-61.45)"/><ellipse class="cls-4" cx="255.23" cy="125.12" rx="0.1" ry="0.08" transform="translate(23.36 289.54) rotate(-61.45)"/><ellipse class="cls-4" cx="254.88" cy="123.93" rx="0.1" ry="0.08" transform="translate(24.22 288.6) rotate(-61.45)"/><ellipse class="cls-4" cx="258.25" cy="117.72" rx="0.1" ry="0.08" transform="translate(31.43 288.33) rotate(-61.45)"/><ellipse class="cls-4" cx="259.17" cy="119.73" rx="0.1" ry="0.08" transform="translate(30.15 290.18) rotate(-61.45)"/><ellipse class="cls-4" cx="267.13" cy="129.33" rx="0.1" ry="0.08" transform="translate(25.87 302.18) rotate(-61.45)"/><ellipse class="cls-4" cx="267.44" cy="125.99" rx="0.1" ry="0.08" transform="translate(28.97 300.71) rotate(-61.45)"/><ellipse class="cls-4" cx="263.85" cy="127.05" rx="0.1" ry="0.08" transform="translate(26.16 298.11) rotate(-61.45)"/><ellipse class="cls-4" cx="271.55" cy="121.19" rx="0.1" ry="0.08" transform="translate(35.33 301.82) rotate(-61.45)"/><ellipse class="cls-4" cx="263.5" cy="125.85" rx="0.1" ry="0.08" transform="translate(27.03 297.18) rotate(-61.45)"/><ellipse class="cls-4" cx="266.87" cy="119.65" rx="0.1" ry="0.08" transform="translate(34.24 296.9) rotate(-61.45)"/><ellipse class="cls-4" cx="269.45" cy="125.07" rx="0.1" ry="0.08" transform="translate(30.82 302) rotate(-61.45)"/><ellipse class="cls-4" cx="267.79" cy="121.66" rx="0.1" ry="0.08" transform="translate(32.96 298.76) rotate(-61.45)"/><circle class="cls-4" cx="272.06" cy="125.74" r="0.5"/><circle class="cls-4" cx="262.26" cy="123.26" r="0.5"/><ellipse class="cls-4" cx="284.12" cy="134.17" rx="0.1" ry="0.08" transform="translate(30.49 319.64) rotate(-61.45)"/><ellipse class="cls-4" cx="284.44" cy="130.83" rx="0.1" ry="0.08" transform="translate(33.59 318.17) rotate(-61.45)"/><ellipse class="cls-4" cx="280.85" cy="131.89" rx="0.1" ry="0.08" transform="translate(30.79 315.57) rotate(-61.45)"/><ellipse class="cls-4" cx="288.55" cy="126.03" rx="0.1" ry="0.08" transform="translate(39.95 319.28) rotate(-61.45)"/><ellipse class="cls-4" cx="280.49" cy="130.69" rx="0.1" ry="0.08" transform="translate(31.65 314.63) rotate(-61.45)"/><ellipse class="cls-4" cx="283.86" cy="124.49" rx="0.1" ry="0.08" transform="translate(38.86 314.36) rotate(-61.45)"/><ellipse class="cls-4" cx="286.44" cy="129.91" rx="0.1" ry="0.08" transform="translate(35.45 319.45) rotate(-61.45)"/><ellipse class="cls-4" cx="284.78" cy="126.5" rx="0.1" ry="0.08" transform="translate(37.58 316.21) rotate(-61.45)"/><circle class="cls-4" cx="279.26" cy="128.1" r="0.5"/><ellipse class="cls-4" cx="282.44" cy="140.79" rx="0.1" ry="0.08" transform="translate(23.8 321.62) rotate(-61.45)"/><ellipse class="cls-4" cx="282.75" cy="137.44" rx="0.1" ry="0.08" transform="translate(26.9 320.15) rotate(-61.45)"/><ellipse class="cls-4" cx="279.16" cy="138.5" rx="0.1" ry="0.08" transform="translate(24.1 317.55) rotate(-61.45)"/><ellipse class="cls-4" cx="286.87" cy="132.65" rx="0.1" ry="0.08" transform="translate(33.26 321.26) rotate(-61.45)"/><ellipse class="cls-4" cx="284.76" cy="136.53" rx="0.1" ry="0.08" transform="translate(28.75 321.43) rotate(-61.45)"/><ellipse class="cls-4" cx="283.1" cy="133.11" rx="0.1" ry="0.08" transform="translate(30.89 318.19) rotate(-61.45)"/><ellipse class="cls-4" cx="269.24" cy="140.14" rx="0.1" ry="0.08" transform="translate(17.48 309.68) rotate(-61.45)"/><ellipse class="cls-4" cx="269.55" cy="136.79" rx="0.1" ry="0.08" transform="translate(20.58 308.21) rotate(-61.45)"/><ellipse class="cls-4" cx="265.96" cy="137.85" rx="0.1" ry="0.08" transform="translate(17.78 305.61) rotate(-61.45)"/><ellipse class="cls-4" cx="273.66" cy="132" rx="0.1" ry="0.08" transform="translate(26.94 309.32) rotate(-61.45)"/><ellipse class="cls-4" cx="271.56" cy="135.87" rx="0.1" ry="0.08" transform="translate(22.43 309.49) rotate(-61.45)"/><ellipse class="cls-4" cx="269.9" cy="132.46" rx="0.1" ry="0.08" transform="translate(24.57 306.25) rotate(-61.45)"/><circle class="cls-4" cx="222.54" cy="215.19" r="0.5"/><circle class="cls-4" cx="210.36" cy="213.59" r="0.5"/><circle class="cls-4" cx="189.88" cy="223.54" r="0.5"/><circle class="cls-4" cx="228.23" cy="233.35" r="0.5"/><ellipse class="cls-4" cx="200.86" cy="229.26" rx="0.1" ry="0.08" transform="translate(-96.52 296.15) rotate(-61.45)"/><ellipse class="cls-4" cx="204.2" cy="229.57" rx="0.1" ry="0.08" transform="translate(-95.04 299.25) rotate(-61.45)"/><ellipse class="cls-4" cx="201.17" cy="225.92" rx="0.1" ry="0.08" transform="translate(-93.41 294.68) rotate(-61.45)"/><ellipse class="cls-4" cx="197.58" cy="226.98" rx="0.1" ry="0.08" transform="translate(-96.22 292.08) rotate(-61.45)"/><ellipse class="cls-4" cx="206.28" cy="232.21" rx="0.1" ry="0.08" transform="translate(-96.28 302.45) rotate(-61.45)"/><ellipse class="cls-4" cx="205.28" cy="221.12" rx="0.1" ry="0.08" transform="translate(-87.06 295.79) rotate(-61.45)"/><ellipse class="cls-4" cx="197.23" cy="225.78" rx="0.1" ry="0.08" transform="translate(-95.35 291.14) rotate(-61.45)"/><ellipse class="cls-4" cx="200.6" cy="219.58" rx="0.1" ry="0.08" transform="translate(-88.15 290.87) rotate(-61.45)"/><ellipse class="cls-4" cx="203.18" cy="225" rx="0.1" ry="0.08" transform="translate(-91.56 295.96) rotate(-61.45)"/><ellipse class="cls-4" cx="184.83" cy="219.03" rx="0.1" ry="0.08" transform="translate(-95.9 276.73) rotate(-61.45)"/><ellipse class="cls-4" cx="185.92" cy="221.64" rx="0.1" ry="0.08" transform="translate(-97.62 279.05) rotate(-61.45)"/><ellipse class="cls-4" cx="188.38" cy="218.96" rx="0.1" ry="0.08" transform="translate(-93.98 279.81) rotate(-61.45)"/><ellipse class="cls-4" cx="201.52" cy="221.59" rx="0.1" ry="0.08" transform="translate(-89.43 292.72) rotate(-61.45)"/><ellipse class="cls-4" cx="211.32" cy="234.95" rx="0.1" ry="0.08" transform="translate(-96.05 308.31) rotate(-61.45)"/><ellipse class="cls-4" cx="216.46" cy="234.74" rx="0.1" ry="0.08" transform="translate(-93.18 312.71) rotate(-61.45)"/><circle class="cls-4" cx="205.79" cy="225.67" r="0.5"/><circle class="cls-4" cx="173.67" cy="213.44" r="0.5"/><circle class="cls-4" cx="212.22" cy="205.45" r="0.5"/><circle class="cls-4" cx="195.99" cy="223.19" r="0.5"/><circle class="cls-4" cx="207.86" cy="196.17" r="0.5"/><circle class="cls-4" cx="185.09" cy="195.85" r="0.5"/><circle class="cls-4" cx="214.94" cy="221.86" r="0.5"/><circle class="cls-4" cx="191.02" cy="212.14" r="0.5"/><circle class="cls-4" cx="179.84" cy="213.56" r="0.5"/><circle class="cls-4" cx="169.68" cy="206.65" r="0.5"/><ellipse class="cls-4" cx="198.14" cy="210.09" rx="0.1" ry="0.08" transform="translate(-81.09 283.75) rotate(-61.45)"/><ellipse class="cls-4" cx="194.55" cy="211.15" rx="0.1" ry="0.08" transform="translate(-83.9 281.15) rotate(-61.45)"/><ellipse class="cls-4" cx="194.19" cy="209.95" rx="0.1" ry="0.08" transform="translate(-83.03 280.21) rotate(-61.45)"/><ellipse class="cls-4" cx="197.57" cy="203.75" rx="0.1" ry="0.08" transform="translate(-75.82 279.94) rotate(-61.45)"/><ellipse class="cls-4" cx="198.49" cy="205.76" rx="0.1" ry="0.08" transform="translate(-77.11 281.79) rotate(-61.45)"/><ellipse class="cls-4" cx="189.82" cy="205.06" rx="0.1" ry="0.08" transform="translate(-81.02 273.82) rotate(-61.45)"/><ellipse class="cls-4" cx="186.23" cy="206.12" rx="0.1" ry="0.08" transform="translate(-83.82 271.22) rotate(-61.45)"/><ellipse class="cls-4" cx="185.88" cy="204.93" rx="0.1" ry="0.08" transform="translate(-82.96 270.28) rotate(-61.45)"/><ellipse class="cls-4" cx="189.25" cy="198.72" rx="0.1" ry="0.08" transform="translate(-75.75 270.01) rotate(-61.45)"/><ellipse class="cls-4" cx="190.17" cy="200.73" rx="0.1" ry="0.08" transform="translate(-77.03 271.86) rotate(-61.45)"/><ellipse class="cls-4" cx="198.13" cy="210.33" rx="0.1" ry="0.08" transform="translate(-81.31 283.87) rotate(-61.45)"/><ellipse class="cls-4" cx="198.44" cy="206.99" rx="0.1" ry="0.08" transform="translate(-78.21 282.39) rotate(-61.45)"/><ellipse class="cls-4" cx="194.85" cy="208.05" rx="0.1" ry="0.08" transform="translate(-81.02 279.79) rotate(-61.45)"/><ellipse class="cls-4" cx="202.55" cy="202.19" rx="0.1" ry="0.08" transform="translate(-71.85 283.51) rotate(-61.45)"/><ellipse class="cls-4" cx="194.5" cy="206.85" rx="0.1" ry="0.08" transform="translate(-80.15 278.86) rotate(-61.45)"/><ellipse class="cls-4" cx="197.87" cy="200.65" rx="0.1" ry="0.08" transform="translate(-72.94 278.58) rotate(-61.45)"/><ellipse class="cls-4" cx="200.45" cy="206.07" rx="0.1" ry="0.08" transform="translate(-76.36 283.68) rotate(-61.45)"/><ellipse class="cls-4" cx="198.79" cy="202.66" rx="0.1" ry="0.08" transform="translate(-74.23 280.44) rotate(-61.45)"/><circle class="cls-4" cx="203.06" cy="206.74" r="0.5"/><circle class="cls-4" cx="193.26" cy="204.26" r="0.5"/><ellipse class="cls-4" cx="215.12" cy="215.17" rx="0.1" ry="0.08" transform="translate(-76.69 301.32) rotate(-61.45)"/><ellipse class="cls-4" cx="215.44" cy="211.83" rx="0.1" ry="0.08" transform="translate(-73.59 299.85) rotate(-61.45)"/><ellipse class="cls-4" cx="211.85" cy="212.89" rx="0.1" ry="0.08" transform="translate(-76.39 297.25) rotate(-61.45)"/><ellipse class="cls-4" cx="219.55" cy="207.03" rx="0.1" ry="0.08" transform="translate(-67.23 300.96) rotate(-61.45)"/><ellipse class="cls-4" cx="211.49" cy="211.69" rx="0.1" ry="0.08" transform="translate(-75.53 296.31) rotate(-61.45)"/><ellipse class="cls-4" cx="214.86" cy="205.49" rx="0.1" ry="0.08" transform="translate(-68.32 296.04) rotate(-61.45)"/><ellipse class="cls-4" cx="217.44" cy="210.91" rx="0.1" ry="0.08" transform="translate(-71.73 301.13) rotate(-61.45)"/><ellipse class="cls-4" cx="215.78" cy="207.5" rx="0.1" ry="0.08" transform="translate(-69.6 297.89) rotate(-61.45)"/><circle class="cls-4" cx="210.26" cy="209.1" r="0.5"/><ellipse class="cls-4" cx="213.44" cy="221.79" rx="0.1" ry="0.08" transform="translate(-83.38 303.3) rotate(-61.45)"/><ellipse class="cls-4" cx="213.75" cy="218.44" rx="0.1" ry="0.08" transform="translate(-80.28 301.83) rotate(-61.45)"/><ellipse class="cls-4" cx="210.16" cy="219.5" rx="0.1" ry="0.08" transform="translate(-83.09 299.23) rotate(-61.45)"/><ellipse class="cls-4" cx="217.87" cy="213.65" rx="0.1" ry="0.08" transform="translate(-73.92 302.94) rotate(-61.45)"/><ellipse class="cls-4" cx="215.76" cy="217.53" rx="0.1" ry="0.08" transform="translate(-78.43 303.11) rotate(-61.45)"/><ellipse class="cls-4" cx="214.1" cy="214.11" rx="0.1" ry="0.08" transform="translate(-76.29 299.87) rotate(-61.45)"/><ellipse class="cls-4" cx="200.24" cy="221.14" rx="0.1" ry="0.08" transform="translate(-89.7 291.36) rotate(-61.45)"/><ellipse class="cls-4" cx="200.55" cy="217.79" rx="0.1" ry="0.08" transform="translate(-86.6 289.89) rotate(-61.45)"/><ellipse class="cls-4" cx="196.96" cy="218.85" rx="0.1" ry="0.08" transform="translate(-89.41 287.29) rotate(-61.45)"/><ellipse class="cls-4" cx="204.66" cy="213" rx="0.1" ry="0.08" transform="translate(-80.24 291) rotate(-61.45)"/><ellipse class="cls-4" cx="202.56" cy="216.87" rx="0.1" ry="0.08" transform="translate(-84.75 291.17) rotate(-61.45)"/><ellipse class="cls-4" cx="200.9" cy="213.46" rx="0.1" ry="0.08" transform="translate(-82.61 287.93) rotate(-61.45)"/><path class="cls-5" d="M59.69,241.63c2.51-18.76,56.46-20.39,58-38,.51-5.81-5.36-6.88-6-16-1-14.11,11.35-25.81,15-29,17.89-15.61,34.36-7.82,40-18,9.19-16.55-25.72-52.87-22-56,2.29-1.91,13.76,13.08,23,10,7-2.33,5.68-12.65,13-26,2.43-4.42,13.64-23.85,34-29,24.14-6.1,46.54,11.5,46,13-.4,1.13-13.76-6.87-32-4-3.61.57-25.6,4.71-34,21-8,15.56,2.24,35.37-2,37-3.49,1.35-9.84-12.4-15-11-4.06,1.11-5.41,11.08-5,19,1.25,24.06,19,35.45,15,42-4.16,6.79-22.93-5.89-43,3-10.38,4.61-20.8,14.85-23,27-2,10.9,4,15.79,7,33,2.46,14.32-5.87,23.21,0,31,2.94,3.9,7,5.17,7,9s-4.14,8.34-8,8c-4.37-.38-6.56-6.74-7-8-2.61-7.59,1.85-11.23,1-22,0-.66-1-12.3-5-13-2.32-.41-3.68,3.32-9,9-3.22,3.45-13,14-21,12-3.14-.78-3.58-2.92-7-3a11,11,0,0,0-9,5c-2.94,4.57-.8,9.59-2,10C67,258.22,58.64,249.53,59.69,241.63Z"/><circle class="cls-4" cx="204.26" cy="104.72" r="0.5"/><circle class="cls-4" cx="192.08" cy="103.11" r="0.5"/><circle class="cls-4" cx="171.6" cy="113.06" r="0.5"/><circle class="cls-4" cx="209.95" cy="122.88" r="0.5"/><ellipse class="cls-4" cx="182.58" cy="118.79" rx="0.1" ry="0.08" transform="translate(-9.01 222.4) rotate(-61.45)"/><ellipse class="cls-4" cx="185.92" cy="119.1" rx="0.1" ry="0.08" transform="translate(-7.54 225.51) rotate(-61.45)"/><ellipse class="cls-4" cx="182.89" cy="115.44" rx="0.1" ry="0.08" transform="translate(-5.91 220.93) rotate(-61.45)"/><ellipse class="cls-4" cx="179.3" cy="116.5" rx="0.1" ry="0.08" transform="translate(-8.72 218.33) rotate(-61.45)"/><ellipse class="cls-4" cx="188" cy="121.74" rx="0.1" ry="0.08" transform="translate(-8.77 228.71) rotate(-61.45)"/><ellipse class="cls-4" cx="187" cy="110.65" rx="0.1" ry="0.08" transform="translate(0.45 222.04) rotate(-61.45)"/><ellipse class="cls-4" cx="178.95" cy="115.3" rx="0.1" ry="0.08" transform="translate(-7.85 217.4) rotate(-61.45)"/><ellipse class="cls-4" cx="182.32" cy="109.1" rx="0.1" ry="0.08" transform="translate(-0.64 217.12) rotate(-61.45)"/><ellipse class="cls-4" cx="184.9" cy="114.52" rx="0.1" ry="0.08" transform="translate(-4.06 222.22) rotate(-61.45)"/><ellipse class="cls-4" cx="166.55" cy="108.56" rx="0.1" ry="0.08" transform="translate(-8.4 202.98) rotate(-61.45)"/><ellipse class="cls-4" cx="167.64" cy="111.16" rx="0.1" ry="0.08" transform="translate(-10.12 205.3) rotate(-61.45)"/><ellipse class="cls-4" cx="170.1" cy="108.48" rx="0.1" ry="0.08" transform="translate(-6.48 206.07) rotate(-61.45)"/><ellipse class="cls-4" cx="183.24" cy="111.11" rx="0.1" ry="0.08" transform="translate(-1.93 218.98) rotate(-61.45)"/><ellipse class="cls-4" cx="193.04" cy="124.48" rx="0.1" ry="0.08" transform="translate(-8.55 234.57) rotate(-61.45)"/><ellipse class="cls-4" cx="198.18" cy="124.26" rx="0.1" ry="0.08" transform="translate(-5.68 238.97) rotate(-61.45)"/><circle class="cls-4" cx="187.51" cy="115.19" r="0.5"/><circle class="cls-4" cx="155.39" cy="102.96" r="0.5"/><circle class="cls-4" cx="193.94" cy="94.97" r="0.5"/><circle class="cls-4" cx="177.71" cy="112.71" r="0.5"/><circle class="cls-4" cx="189.58" cy="85.69" r="0.5"/><circle class="cls-4" cx="166.81" cy="85.37" r="0.5"/><circle class="cls-4" cx="196.66" cy="111.38" r="0.5"/><circle class="cls-4" cx="172.74" cy="101.66" r="0.5"/><circle class="cls-4" cx="161.56" cy="103.09" r="0.5"/><circle class="cls-4" cx="151.4" cy="96.17" r="0.5"/><ellipse class="cls-4" cx="179.86" cy="99.61" rx="0.1" ry="0.08" transform="translate(6.41 210) rotate(-61.45)"/><ellipse class="cls-4" cx="176.27" cy="100.67" rx="0.1" ry="0.08" transform="translate(3.6 207.4) rotate(-61.45)"/><ellipse class="cls-4" cx="175.91" cy="99.47" rx="0.1" ry="0.08" transform="translate(4.47 206.47) rotate(-61.45)"/><ellipse class="cls-4" cx="179.29" cy="93.27" rx="0.1" ry="0.08" transform="translate(11.68 206.19) rotate(-61.45)"/><ellipse class="cls-4" cx="180.2" cy="95.28" rx="0.1" ry="0.08" transform="translate(10.4 208.05) rotate(-61.45)"/><ellipse class="cls-4" cx="171.54" cy="94.59" rx="0.1" ry="0.08" transform="translate(6.48 200.08) rotate(-61.45)"/><ellipse class="cls-4" cx="167.95" cy="95.65" rx="0.1" ry="0.08" transform="translate(3.68 197.48) rotate(-61.45)"/><ellipse class="cls-4" cx="167.6" cy="94.45" rx="0.1" ry="0.08" transform="translate(4.54 196.54) rotate(-61.45)"/><ellipse class="cls-4" cx="170.97" cy="88.25" rx="0.1" ry="0.08" transform="translate(11.75 196.27) rotate(-61.45)"/><ellipse class="cls-4" cx="171.89" cy="90.25" rx="0.1" ry="0.08" transform="translate(10.47 198.12) rotate(-61.45)"/><ellipse class="cls-4" cx="179.85" cy="99.86" rx="0.1" ry="0.08" transform="translate(6.19 210.12) rotate(-61.45)"/><ellipse class="cls-4" cx="180.16" cy="96.51" rx="0.1" ry="0.08" transform="translate(9.29 208.65) rotate(-61.45)"/><ellipse class="cls-4" cx="176.57" cy="97.57" rx="0.1" ry="0.08" transform="translate(6.48 206.05) rotate(-61.45)"/><ellipse class="cls-4" cx="184.27" cy="91.72" rx="0.1" ry="0.08" transform="translate(15.65 209.76) rotate(-61.45)"/><ellipse class="cls-4" cx="176.22" cy="96.37" rx="0.1" ry="0.08" transform="translate(7.35 205.12) rotate(-61.45)"/><ellipse class="cls-4" cx="179.59" cy="90.17" rx="0.1" ry="0.08" transform="translate(14.56 204.84) rotate(-61.45)"/><ellipse class="cls-4" cx="182.17" cy="95.59" rx="0.1" ry="0.08" transform="translate(11.14 209.93) rotate(-61.45)"/><ellipse class="cls-4" cx="180.51" cy="92.18" rx="0.1" ry="0.08" transform="translate(13.28 206.69) rotate(-61.45)"/><circle class="cls-4" cx="184.78" cy="96.26" r="0.5"/><circle class="cls-4" cx="174.98" cy="93.78" r="0.5"/><ellipse class="cls-4" cx="196.84" cy="104.7" rx="0.1" ry="0.08" transform="translate(10.81 227.58) rotate(-61.45)"/><ellipse class="cls-4" cx="197.15" cy="101.35" rx="0.1" ry="0.08" transform="translate(13.91 226.11) rotate(-61.45)"/><ellipse class="cls-4" cx="193.56" cy="102.41" rx="0.1" ry="0.08" transform="translate(11.11 223.51) rotate(-61.45)"/><ellipse class="cls-4" cx="201.27" cy="96.56" rx="0.1" ry="0.08" transform="translate(20.27 227.22) rotate(-61.45)"/><ellipse class="cls-4" cx="193.21" cy="101.21" rx="0.1" ry="0.08" transform="translate(11.97 222.57) rotate(-61.45)"/><ellipse class="cls-4" cx="196.58" cy="95.01" rx="0.1" ry="0.08" transform="translate(19.18 222.3) rotate(-61.45)"/><ellipse class="cls-4" cx="199.16" cy="100.43" rx="0.1" ry="0.08" transform="translate(15.77 227.39) rotate(-61.45)"/><ellipse class="cls-4" cx="197.5" cy="97.02" rx="0.1" ry="0.08" transform="translate(17.9 224.15) rotate(-61.45)"/><circle class="cls-4" cx="191.98" cy="98.62" r="0.5"/><ellipse class="cls-4" cx="195.16" cy="111.31" rx="0.1" ry="0.08" transform="translate(4.12 229.56) rotate(-61.45)"/><ellipse class="cls-4" cx="195.47" cy="107.97" rx="0.1" ry="0.08" transform="translate(7.22 228.08) rotate(-61.45)"/><ellipse class="cls-4" cx="191.88" cy="109.03" rx="0.1" ry="0.08" transform="translate(4.42 225.48) rotate(-61.45)"/><ellipse class="cls-4" cx="199.59" cy="103.18" rx="0.1" ry="0.08" transform="translate(13.58 229.2) rotate(-61.45)"/><ellipse class="cls-4" cx="197.48" cy="107.05" rx="0.1" ry="0.08" transform="translate(9.07 229.37) rotate(-61.45)"/><ellipse class="cls-4" cx="195.82" cy="103.64" rx="0.1" ry="0.08" transform="translate(11.21 226.13) rotate(-61.45)"/><ellipse class="cls-4" cx="181.96" cy="110.66" rx="0.1" ry="0.08" transform="translate(-2.2 217.62) rotate(-61.45)"/><ellipse class="cls-4" cx="182.27" cy="107.31" rx="0.1" ry="0.08" transform="translate(0.9 216.14) rotate(-61.45)"/><ellipse class="cls-4" cx="178.68" cy="108.37" rx="0.1" ry="0.08" transform="translate(-1.9 213.54) rotate(-61.45)"/><ellipse class="cls-4" cx="186.38" cy="102.52" rx="0.1" ry="0.08" transform="translate(7.26 217.26) rotate(-61.45)"/><ellipse class="cls-4" cx="184.27" cy="106.4" rx="0.1" ry="0.08" transform="translate(2.76 217.43) rotate(-61.45)"/><ellipse class="cls-4" cx="182.62" cy="102.98" rx="0.1" ry="0.08" transform="translate(4.89 214.19) rotate(-61.45)"/><circle class="cls-4" cx="143.87" cy="102.5" r="0.5"/><circle class="cls-4" cx="131.68" cy="100.89" r="0.5"/><circle class="cls-4" cx="111.2" cy="110.84" r="0.5"/><circle class="cls-4" cx="149.56" cy="120.66" r="0.5"/><ellipse class="cls-4" cx="122.19" cy="116.57" rx="0.1" ry="0.08" transform="translate(-38.6 168.2) rotate(-61.45)"/><ellipse class="cls-4" cx="125.53" cy="116.88" rx="0.1" ry="0.08" transform="translate(-37.13 171.3) rotate(-61.45)"/><ellipse class="cls-4" cx="122.5" cy="113.22" rx="0.1" ry="0.08" transform="translate(-35.5 166.72) rotate(-61.45)"/><ellipse class="cls-4" cx="118.91" cy="114.28" rx="0.1" ry="0.08" transform="translate(-38.3 164.12) rotate(-61.45)"/><ellipse class="cls-4" cx="127.61" cy="119.52" rx="0.1" ry="0.08" transform="translate(-38.36 174.5) rotate(-61.45)"/><ellipse class="cls-4" cx="126.61" cy="108.43" rx="0.1" ry="0.08" transform="translate(-29.14 167.84) rotate(-61.45)"/><ellipse class="cls-4" cx="118.55" cy="113.09" rx="0.1" ry="0.08" transform="translate(-37.44 163.19) rotate(-61.45)"/><ellipse class="cls-4" cx="121.93" cy="106.88" rx="0.1" ry="0.08" transform="translate(-30.23 162.91) rotate(-61.45)"/><ellipse class="cls-4" cx="124.5" cy="112.3" rx="0.1" ry="0.08" transform="translate(-33.64 168.01) rotate(-61.45)"/><ellipse class="cls-4" cx="106.15" cy="106.34" rx="0.1" ry="0.08" transform="translate(-37.99 148.77) rotate(-61.45)"/><ellipse class="cls-4" cx="107.25" cy="108.94" rx="0.1" ry="0.08" transform="translate(-39.7 151.09) rotate(-61.45)"/><ellipse class="cls-4" cx="109.71" cy="106.27" rx="0.1" ry="0.08" transform="translate(-36.06 151.86) rotate(-61.45)"/><ellipse class="cls-4" cx="122.85" cy="108.89" rx="0.1" ry="0.08" transform="translate(-31.51 164.77) rotate(-61.45)"/><ellipse class="cls-4" cx="132.65" cy="122.26" rx="0.1" ry="0.08" transform="translate(-38.14 180.36) rotate(-61.45)"/><ellipse class="cls-4" cx="137.79" cy="122.04" rx="0.1" ry="0.08" transform="translate(-35.26 184.76) rotate(-61.45)"/><circle class="cls-4" cx="127.12" cy="112.97" r="0.5"/><circle class="cls-4" cx="94.99" cy="100.74" r="0.5"/><circle class="cls-4" cx="133.54" cy="92.75" r="0.5"/><circle class="cls-4" cx="117.32" cy="110.49" r="0.5"/><circle class="cls-4" cx="129.19" cy="83.47" r="0.5"/><circle class="cls-4" cx="106.42" cy="83.16" r="0.5"/><circle class="cls-4" cx="136.27" cy="109.17" r="0.5"/><circle class="cls-4" cx="112.35" cy="99.45" r="0.5"/><circle class="cls-4" cx="101.17" cy="100.87" r="0.5"/><circle class="cls-4" cx="91.01" cy="93.96" r="0.5"/><ellipse class="cls-4" cx="119.47" cy="97.39" rx="0.1" ry="0.08" transform="translate(-23.18 155.8) rotate(-61.45)"/><ellipse class="cls-4" cx="115.88" cy="98.45" rx="0.1" ry="0.08" transform="translate(-25.98 153.2) rotate(-61.45)"/><ellipse class="cls-4" cx="115.52" cy="97.26" rx="0.1" ry="0.08" transform="translate(-25.11 152.26) rotate(-61.45)"/><ellipse class="cls-4" cx="118.9" cy="91.06" rx="0.1" ry="0.08" transform="translate(-17.91 151.99) rotate(-61.45)"/><ellipse class="cls-4" cx="119.81" cy="93.06" rx="0.1" ry="0.08" transform="translate(-19.19 153.84) rotate(-61.45)"/><ellipse class="cls-4" cx="111.15" cy="92.37" rx="0.1" ry="0.08" transform="translate(-23.1 145.87) rotate(-61.45)"/><ellipse class="cls-4" cx="107.56" cy="93.43" rx="0.1" ry="0.08" transform="translate(-25.91 143.27) rotate(-61.45)"/><ellipse class="cls-4" cx="107.21" cy="92.23" rx="0.1" ry="0.08" transform="translate(-25.04 142.33) rotate(-61.45)"/><ellipse class="cls-4" cx="110.58" cy="86.03" rx="0.1" ry="0.08" transform="translate(-17.83 142.06) rotate(-61.45)"/><ellipse class="cls-4" cx="111.5" cy="88.04" rx="0.1" ry="0.08" transform="translate(-19.12 143.91) rotate(-61.45)"/><ellipse class="cls-4" cx="119.45" cy="97.64" rx="0.1" ry="0.08" transform="translate(-23.4 155.91) rotate(-61.45)"/><ellipse class="cls-4" cx="119.77" cy="94.29" rx="0.1" ry="0.08" transform="translate(-20.29 154.44) rotate(-61.45)"/><ellipse class="cls-4" cx="116.18" cy="95.35" rx="0.1" ry="0.08" transform="translate(-23.1 151.84) rotate(-61.45)"/><ellipse class="cls-4" cx="123.88" cy="89.5" rx="0.1" ry="0.08" transform="translate(-13.94 155.55) rotate(-61.45)"/><ellipse class="cls-4" cx="115.82" cy="94.16" rx="0.1" ry="0.08" transform="translate(-22.23 150.91) rotate(-61.45)"/><ellipse class="cls-4" cx="119.2" cy="87.96" rx="0.1" ry="0.08" transform="translate(-15.03 150.63) rotate(-61.45)"/><ellipse class="cls-4" cx="121.77" cy="93.37" rx="0.1" ry="0.08" transform="translate(-18.44 155.73) rotate(-61.45)"/><ellipse class="cls-4" cx="120.12" cy="89.96" rx="0.1" ry="0.08" transform="translate(-16.31 152.49) rotate(-61.45)"/><circle class="cls-4" cx="124.39" cy="94.05" r="0.5"/><circle class="cls-4" cx="114.59" cy="91.56" r="0.5"/><ellipse class="cls-4" cx="136.45" cy="102.48" rx="0.1" ry="0.08" transform="translate(-18.77 173.37) rotate(-61.45)"/><ellipse class="cls-4" cx="136.76" cy="99.13" rx="0.1" ry="0.08" transform="translate(-15.67 171.9) rotate(-61.45)"/><ellipse class="cls-4" cx="133.17" cy="100.19" rx="0.1" ry="0.08" transform="translate(-18.48 169.3) rotate(-61.45)"/><ellipse class="cls-4" cx="140.88" cy="94.34" rx="0.1" ry="0.08" transform="translate(-9.31 173.01) rotate(-61.45)"/><ellipse class="cls-4" cx="132.82" cy="99" rx="0.1" ry="0.08" transform="translate(-17.61 168.36) rotate(-61.45)"/><ellipse class="cls-4" cx="136.19" cy="92.79" rx="0.1" ry="0.08" transform="translate(-10.4 168.09) rotate(-61.45)"/><ellipse class="cls-4" cx="138.77" cy="98.21" rx="0.1" ry="0.08" transform="translate(-13.82 173.18) rotate(-61.45)"/><ellipse class="cls-4" cx="137.11" cy="94.8" rx="0.1" ry="0.08" transform="translate(-11.69 169.94) rotate(-61.45)"/><circle class="cls-4" cx="131.59" cy="96.4" r="0.5"/><ellipse class="cls-4" cx="134.77" cy="109.09" rx="0.1" ry="0.08" transform="translate(-25.47 175.35) rotate(-61.45)"/><ellipse class="cls-4" cx="135.08" cy="105.75" rx="0.1" ry="0.08" transform="translate(-22.36 173.88) rotate(-61.45)"/><ellipse class="cls-4" cx="131.49" cy="106.81" rx="0.1" ry="0.08" transform="translate(-25.17 171.28) rotate(-61.45)"/><ellipse class="cls-4" cx="139.19" cy="100.96" rx="0.1" ry="0.08" transform="translate(-16 174.99) rotate(-61.45)"/><ellipse class="cls-4" cx="137.09" cy="104.83" rx="0.1" ry="0.08" transform="translate(-20.51 175.16) rotate(-61.45)"/><ellipse class="cls-4" cx="135.43" cy="101.42" rx="0.1" ry="0.08" transform="translate(-18.38 171.92) rotate(-61.45)"/><ellipse class="cls-4" cx="121.56" cy="108.44" rx="0.1" ry="0.08" transform="translate(-31.78 163.41) rotate(-61.45)"/><ellipse class="cls-4" cx="121.88" cy="105.1" rx="0.1" ry="0.08" transform="translate(-28.68 161.94) rotate(-61.45)"/><ellipse class="cls-4" cx="118.29" cy="106.16" rx="0.1" ry="0.08" transform="translate(-31.49 159.34) rotate(-61.45)"/><ellipse class="cls-4" cx="125.99" cy="100.3" rx="0.1" ry="0.08" transform="translate(-22.32 163.05) rotate(-61.45)"/><ellipse class="cls-4" cx="123.88" cy="104.18" rx="0.1" ry="0.08" transform="translate(-26.83 163.22) rotate(-61.45)"/><ellipse class="cls-4" cx="122.22" cy="100.76" rx="0.1" ry="0.08" transform="translate(-24.7 159.98) rotate(-61.45)"/><circle class="cls-4" cx="154.87" cy="217.5" r="0.5"/><circle class="cls-4" cx="142.68" cy="215.89" r="0.5"/><circle class="cls-4" cx="122.2" cy="225.84" r="0.5"/><circle class="cls-4" cx="160.56" cy="235.66" r="0.5"/><ellipse class="cls-4" cx="133.19" cy="231.57" rx="0.1" ry="0.08" transform="translate(-133.88 237.91) rotate(-61.45)"/><ellipse class="cls-4" cx="136.53" cy="231.88" rx="0.1" ry="0.08" transform="translate(-132.4 241.01) rotate(-61.45)"/><ellipse class="cls-4" cx="133.5" cy="228.22" rx="0.1" ry="0.08" transform="translate(-130.77 236.43) rotate(-61.45)"/><ellipse class="cls-4" cx="129.91" cy="229.28" rx="0.1" ry="0.08" transform="translate(-133.58 233.83) rotate(-61.45)"/><ellipse class="cls-4" cx="138.61" cy="234.52" rx="0.1" ry="0.08" transform="translate(-133.64 244.21) rotate(-61.45)"/><ellipse class="cls-4" cx="137.61" cy="223.43" rx="0.1" ry="0.08" transform="translate(-124.42 237.54) rotate(-61.45)"/><ellipse class="cls-4" cx="129.55" cy="228.09" rx="0.1" ry="0.08" transform="translate(-132.71 232.9) rotate(-61.45)"/><ellipse class="cls-4" cx="132.93" cy="221.88" rx="0.1" ry="0.08" transform="translate(-125.5 232.62) rotate(-61.45)"/><ellipse class="cls-4" cx="135.5" cy="227.3" rx="0.1" ry="0.08" transform="translate(-128.92 237.72) rotate(-61.45)"/><ellipse class="cls-4" cx="117.15" cy="221.34" rx="0.1" ry="0.08" transform="translate(-133.26 218.48) rotate(-61.45)"/><ellipse class="cls-4" cx="118.25" cy="223.94" rx="0.1" ry="0.08" transform="translate(-134.98 220.8) rotate(-61.45)"/><ellipse class="cls-4" cx="120.71" cy="221.27" rx="0.1" ry="0.08" transform="translate(-131.34 221.57) rotate(-61.45)"/><ellipse class="cls-4" cx="133.85" cy="223.89" rx="0.1" ry="0.08" transform="translate(-126.79 234.48) rotate(-61.45)"/><ellipse class="cls-4" cx="143.65" cy="237.26" rx="0.1" ry="0.08" transform="translate(-133.41 250.07) rotate(-61.45)"/><ellipse class="cls-4" cx="148.79" cy="237.04" rx="0.1" ry="0.08" transform="translate(-130.54 254.47) rotate(-61.45)"/><circle class="cls-4" cx="138.12" cy="227.97" r="0.5"/><circle class="cls-4" cx="105.99" cy="215.74" r="0.5"/><circle class="cls-4" cx="144.54" cy="207.75" r="0.5"/><circle class="cls-4" cx="128.32" cy="225.49" r="0.5"/><circle class="cls-4" cx="140.19" cy="198.47" r="0.5"/><circle class="cls-4" cx="117.42" cy="198.16" r="0.5"/><circle class="cls-4" cx="147.27" cy="224.17" r="0.5"/><circle class="cls-4" cx="123.35" cy="214.45" r="0.5"/><circle class="cls-4" cx="112.17" cy="215.87" r="0.5"/><circle class="cls-4" cx="102.01" cy="208.96" r="0.5"/><ellipse class="cls-4" cx="130.47" cy="212.39" rx="0.1" ry="0.08" transform="translate(-118.45 225.5) rotate(-61.45)"/><ellipse class="cls-4" cx="126.88" cy="213.45" rx="0.1" ry="0.08" transform="translate(-121.26 222.9) rotate(-61.45)"/><ellipse class="cls-4" cx="126.52" cy="212.26" rx="0.1" ry="0.08" transform="translate(-120.39 221.97) rotate(-61.45)"/><ellipse class="cls-4" cx="129.9" cy="206.06" rx="0.1" ry="0.08" transform="translate(-113.18 221.69) rotate(-61.45)"/><ellipse class="cls-4" cx="130.81" cy="208.06" rx="0.1" ry="0.08" transform="translate(-114.47 223.55) rotate(-61.45)"/><ellipse class="cls-4" cx="122.15" cy="207.37" rx="0.1" ry="0.08" transform="translate(-118.38 215.58) rotate(-61.45)"/><ellipse class="cls-4" cx="118.56" cy="208.43" rx="0.1" ry="0.08" transform="translate(-121.18 212.98) rotate(-61.45)"/><ellipse class="cls-4" cx="118.21" cy="207.23" rx="0.1" ry="0.08" transform="translate(-120.32 212.04) rotate(-61.45)"/><ellipse class="cls-4" cx="121.58" cy="201.03" rx="0.1" ry="0.08" transform="translate(-113.11 211.77) rotate(-61.45)"/><ellipse class="cls-4" cx="122.5" cy="203.04" rx="0.1" ry="0.08" transform="translate(-114.39 213.62) rotate(-61.45)"/><ellipse class="cls-4" cx="130.45" cy="212.64" rx="0.1" ry="0.08" transform="translate(-118.67 225.62) rotate(-61.45)"/><ellipse class="cls-4" cx="130.77" cy="209.29" rx="0.1" ry="0.08" transform="translate(-115.57 224.15) rotate(-61.45)"/><ellipse class="cls-4" cx="127.18" cy="210.35" rx="0.1" ry="0.08" transform="translate(-118.38 221.55) rotate(-61.45)"/><ellipse class="cls-4" cx="134.88" cy="204.5" rx="0.1" ry="0.08" transform="translate(-109.21 225.26) rotate(-61.45)"/><ellipse class="cls-4" cx="126.82" cy="209.16" rx="0.1" ry="0.08" transform="translate(-117.51 220.62) rotate(-61.45)"/><ellipse class="cls-4" cx="130.2" cy="202.96" rx="0.1" ry="0.08" transform="translate(-110.3 220.34) rotate(-61.45)"/><ellipse class="cls-4" cx="132.77" cy="208.37" rx="0.1" ry="0.08" transform="translate(-113.72 225.43) rotate(-61.45)"/><ellipse class="cls-4" cx="131.12" cy="204.96" rx="0.1" ry="0.08" transform="translate(-111.59 222.2) rotate(-61.45)"/><circle class="cls-4" cx="135.39" cy="209.05" r="0.5"/><circle class="cls-4" cx="125.59" cy="206.56" r="0.5"/><ellipse class="cls-4" cx="147.45" cy="217.48" rx="0.1" ry="0.08" transform="translate(-114.05 243.08) rotate(-61.45)"/><ellipse class="cls-4" cx="147.76" cy="214.13" rx="0.1" ry="0.08" transform="translate(-110.95 241.61) rotate(-61.45)"/><ellipse class="cls-4" cx="144.17" cy="215.19" rx="0.1" ry="0.08" transform="translate(-113.75 239.01) rotate(-61.45)"/><ellipse class="cls-4" cx="151.88" cy="209.34" rx="0.1" ry="0.08" transform="translate(-104.59 242.72) rotate(-61.45)"/><ellipse class="cls-4" cx="143.82" cy="214" rx="0.1" ry="0.08" transform="translate(-112.89 238.07) rotate(-61.45)"/><ellipse class="cls-4" cx="147.19" cy="207.79" rx="0.1" ry="0.08" transform="translate(-105.68 237.8) rotate(-61.45)"/><ellipse class="cls-4" cx="149.77" cy="213.21" rx="0.1" ry="0.08" transform="translate(-109.09 242.89) rotate(-61.45)"/><ellipse class="cls-4" cx="148.11" cy="209.8" rx="0.1" ry="0.08" transform="translate(-106.96 239.65) rotate(-61.45)"/><circle class="cls-4" cx="142.59" cy="211.4" r="0.5"/><ellipse class="cls-4" cx="145.77" cy="224.09" rx="0.1" ry="0.08" transform="translate(-120.74 245.06) rotate(-61.45)"/><ellipse class="cls-4" cx="146.08" cy="220.75" rx="0.1" ry="0.08" transform="translate(-117.64 243.59) rotate(-61.45)"/><ellipse class="cls-4" cx="142.49" cy="221.81" rx="0.1" ry="0.08" transform="translate(-120.45 240.99) rotate(-61.45)"/><ellipse class="cls-4" cx="150.19" cy="215.96" rx="0.1" ry="0.08" transform="translate(-111.28 244.7) rotate(-61.45)"/><ellipse class="cls-4" cx="148.09" cy="219.83" rx="0.1" ry="0.08" transform="translate(-115.79 244.87) rotate(-61.45)"/><ellipse class="cls-4" cx="146.43" cy="216.42" rx="0.1" ry="0.08" transform="translate(-113.65 241.63) rotate(-61.45)"/><ellipse class="cls-4" cx="132.56" cy="223.44" rx="0.1" ry="0.08" transform="translate(-127.06 233.12) rotate(-61.45)"/><ellipse class="cls-4" cx="132.88" cy="220.1" rx="0.1" ry="0.08" transform="translate(-123.96 231.65) rotate(-61.45)"/><ellipse class="cls-4" cx="129.29" cy="221.16" rx="0.1" ry="0.08" transform="translate(-126.77 229.05) rotate(-61.45)"/><ellipse class="cls-4" cx="136.99" cy="215.3" rx="0.1" ry="0.08" transform="translate(-117.6 232.76) rotate(-61.45)"/><ellipse class="cls-4" cx="134.88" cy="219.18" rx="0.1" ry="0.08" transform="translate(-122.11 232.93) rotate(-61.45)"/><ellipse class="cls-4" cx="133.22" cy="215.76" rx="0.1" ry="0.08" transform="translate(-119.97 229.69) rotate(-61.45)"/><polygon class="cls-4" points="91.5 128.27 97.42 123.38 100.67 116.88 102.5 124.17 102.5 130.75 94.5 133.85 91.5 128.27"/><polygon class="cls-4" points="84.59 105.75 86.28 111.38 91.01 108.89 87.8 106.16 84.59 105.75"/><polygon class="cls-4" points="102.5 97.39 107.16 92.32 106.49 98.45 101.45 101.28 102.5 97.39"/><polygon class="cls-4" points="107.17 108.9 106.92 118.78 111.67 116.88 118.51 113.17 117.04 110.08 111.64 111.08 107.17 108.9"/><polygon class="cls-4" points="112.76 99.16 112.67 104.83 118.21 106.12 112.76 99.16"/><polygon class="cls-4" points="109.71 127.27 107.56 134.42 112.85 135.66 114.11 134.79 112.35 133.1 113.29 131.46 111.2 130.37 111.2 127.27 109.71 127.27"/><polygon class="cls-4" points="91.5 114.69 91.5 116.88 93.44 116.88 93.44 115.44 94.09 114.69 91.5 114.69"/><polygon class="cls-4" points="126.61 130.88 125.47 127.98 123.36 125.9 126.41 126.11 128.96 126.94 129.15 130.43 126.61 130.88"/><polygon class="cls-4" points="117.03 130.72 119.42 130.78 119.06 128.63 117.59 129.53 117.03 130.72"/><polygon class="cls-4" points="116.06 122.74 114.68 120.3 116.97 121.33 117.43 123.64 116.06 122.74"/><polygon class="cls-4" points="121.1 122.38 124.89 123.73 124.75 121.65 124.18 118.54 122.8 118.72 122.51 120.93 121.1 122.38"/><polygon class="cls-4" points="118.04 119 120.22 119.75 121.41 117.76 118.04 119"/><polygon class="cls-4" points="128.52 123.72 131.02 125.45 132.16 123.56 131.98 122.96 131.11 123.43 130.59 122.86 129.91 123.53 128.71 123.14 128.52 123.72"/><polygon class="cls-4" points="121.36 129.17 122.21 129.45 122.45 128.7 121.9 128.52 121.69 128.17 121.36 129.17"/><polygon class="cls-4" points="141.63 238.85 148.5 236.55 149.19 229 160.3 234.99 152.93 243.09 155.66 247.34 146.73 249.21 141.63 238.85"/><polygon class="cls-4" points="146.35 216.38 145.81 224.01 151.88 222.31 154.63 217.94 150.22 219.18 146.35 216.38"/><polygon class="cls-4" points="147.15 207.88 146.08 211.9 149.81 213.13 150.22 210.27 148.18 209.84 147.15 207.88"/><circle class="cls-4" cx="162.9" cy="171.18" r="0.5"/><circle class="cls-4" cx="174.98" cy="173.43" r="0.5"/><circle class="cls-4" cx="195.96" cy="164.59" r="0.5"/><circle class="cls-4" cx="158.19" cy="152.74" r="0.5"/><ellipse class="cls-4" cx="185.3" cy="158.29" rx="0.1" ry="0.08" transform="translate(-46.63 233.12) rotate(-58.39)"/><ellipse class="cls-4" cx="181.98" cy="157.8" rx="0.1" ry="0.08" transform="translate(-47.79 230.05) rotate(-58.39)"/><ellipse class="cls-4" cx="184.81" cy="161.61" rx="0.1" ry="0.08" transform="translate(-49.7 234.28) rotate(-58.39)"/><ellipse class="cls-4" cx="188.45" cy="160.75" rx="0.1" ry="0.08" transform="matrix(0.52, -0.85, 0.85, 0.52, -47.23, 236.97)"/><ellipse class="cls-4" cx="180.04" cy="155.05" rx="0.1" ry="0.08" transform="translate(-46.38 227.1) rotate(-58.39)"/><ellipse class="cls-4" cx="180.44" cy="166.18" rx="0.1" ry="0.08" transform="translate(-55.66 232.74) rotate(-58.39)"/><ellipse class="cls-4" cx="188.74" cy="161.96" rx="0.1" ry="0.08" transform="translate(-48.12 237.79) rotate(-58.39)"/><ellipse class="cls-4" cx="185.04" cy="167.97" rx="0.1" ry="0.08" transform="translate(-55 237.5) rotate(-58.39)"/><ellipse class="cls-4" cx="182.76" cy="162.42" rx="0.1" ry="0.08" transform="translate(-51.36 232.92) rotate(-58.39)"/><ellipse class="cls-4" cx="200.76" cy="169.36" rx="0.1" ry="0.08" transform="translate(-48.7 251.55) rotate(-58.39)"/><ellipse class="cls-4" cx="199.81" cy="166.7" rx="0.1" ry="0.08" transform="translate(-46.89 249.47) rotate(-58.39)"/><ellipse class="cls-4" cx="197.21" cy="169.24" rx="0.1" ry="0.08" transform="translate(-50.3 248.47) rotate(-58.39)"/><ellipse class="cls-4" cx="184.23" cy="165.92" rx="0.1" ry="0.08" transform="translate(-53.64 235.84) rotate(-58.39)"/><ellipse class="cls-4" cx="175.16" cy="152.05" rx="0.1" ry="0.08" transform="translate(-46.14 221.51) rotate(-58.39)"/><ellipse class="cls-4" cx="170.01" cy="151.99" rx="0.1" ry="0.08" transform="translate(-48.54 217.1) rotate(-58.39)"/><circle class="cls-4" cx="180.18" cy="161.61" r="0.5"/><circle class="cls-4" cx="211.6" cy="175.55" r="0.5"/><circle class="cls-4" cx="172.68" cy="181.46" r="0.5"/><circle class="cls-4" cx="189.83" cy="164.62" r="0.5"/><circle class="cls-4" cx="176.54" cy="190.96" r="0.5"/><circle class="cls-4" cx="199.25" cy="192.5" r="0.5"/><circle class="cls-4" cx="170.84" cy="164.93" r="0.5"/><circle class="cls-4" cx="194.21" cy="175.91" r="0.5"/><circle class="cls-4" cx="205.45" cy="175.09" r="0.5"/><circle class="cls-4" cx="215.22" cy="182.54" r="0.5"/><ellipse class="cls-4" cx="186.99" cy="177.58" rx="0.1" ry="0.08" transform="translate(-62.26 243.74) rotate(-58.39)"/><ellipse class="cls-4" cx="190.63" cy="176.72" rx="0.1" ry="0.08" transform="matrix(0.52, -0.85, 0.85, 0.52, -59.79, 246.42)"/><ellipse class="cls-4" cx="190.92" cy="177.93" rx="0.1" ry="0.08" transform="translate(-60.68 247.25) rotate(-58.39)"/><ellipse class="cls-4" cx="187.22" cy="183.94" rx="0.1" ry="0.08" transform="translate(-67.56 246.96) rotate(-58.39)"/><ellipse class="cls-4" cx="186.41" cy="181.89" rx="0.1" ry="0.08" transform="translate(-66.2 245.29) rotate(-58.39)"/><ellipse class="cls-4" cx="195.02" cy="183.05" rx="0.1" ry="0.08" transform="matrix(0.52, -0.85, 0.85, 0.52, -63.09, 253.18)"/><ellipse class="cls-4" cx="198.66" cy="182.18" rx="0.1" ry="0.08" transform="translate(-60.62 255.87) rotate(-58.39)"/><ellipse class="cls-4" cx="198.95" cy="183.39" rx="0.1" ry="0.08" transform="translate(-61.51 256.69) rotate(-58.39)"/><ellipse class="cls-4" cx="195.25" cy="189.4" rx="0.1" ry="0.08" transform="translate(-68.39 256.4) rotate(-58.39)"/><ellipse class="cls-4" cx="194.44" cy="187.35" rx="0.1" ry="0.08" transform="translate(-67.03 254.73) rotate(-58.39)"/><ellipse class="cls-4" cx="187.01" cy="177.34" rx="0.1" ry="0.08" transform="translate(-62.04 243.64) rotate(-58.39)"/><ellipse class="cls-4" cx="186.52" cy="180.66" rx="0.1" ry="0.08" transform="translate(-65.1 244.8) rotate(-58.39)"/><ellipse class="cls-4" cx="190.16" cy="179.79" rx="0.1" ry="0.08" transform="translate(-62.63 247.49) rotate(-58.39)"/><ellipse class="cls-4" cx="182.16" cy="185.23" rx="0.1" ry="0.08" transform="translate(-71.07 243.26) rotate(-58.39)"/><ellipse class="cls-4" cx="190.45" cy="181.01" rx="0.1" ry="0.08" transform="translate(-63.53 248.32) rotate(-58.39)"/><ellipse class="cls-4" cx="186.75" cy="187.02" rx="0.1" ry="0.08" transform="translate(-70.41 248.02) rotate(-58.39)"/><ellipse class="cls-4" cx="184.47" cy="181.47" rx="0.1" ry="0.08" transform="translate(-66.77 243.44) rotate(-58.39)"/><ellipse class="cls-4" cx="185.94" cy="184.97" rx="0.1" ry="0.08" transform="translate(-69.05 246.36) rotate(-58.39)"/><circle class="cls-4" cx="181.89" cy="180.66" r="0.5"/><circle class="cls-4" cx="191.54" cy="183.67" r="0.5"/><ellipse class="cls-4" cx="170.3" cy="171.6" rx="0.1" ry="0.08" transform="translate(-65.1 226.68) rotate(-58.39)"/><ellipse class="cls-4" cx="169.81" cy="174.92" rx="0.1" ry="0.08" transform="translate(-68.16 227.84) rotate(-58.39)"/><ellipse class="cls-4" cx="173.45" cy="174.05" rx="0.1" ry="0.08" transform="translate(-65.69 230.53) rotate(-58.39)"/><ellipse class="cls-4" cx="165.45" cy="179.49" rx="0.1" ry="0.08" transform="translate(-74.13 226.3) rotate(-58.39)"/><ellipse class="cls-4" cx="173.74" cy="175.27" rx="0.1" ry="0.08" transform="translate(-66.59 231.35) rotate(-58.39)"/><ellipse class="cls-4" cx="170.04" cy="181.28" rx="0.1" ry="0.08" transform="matrix(0.52, -0.85, 0.85, 0.52, -73.47, 231.06)"/><ellipse class="cls-4" cx="167.76" cy="175.73" rx="0.1" ry="0.08" transform="translate(-69.83 226.48) rotate(-58.39)"/><ellipse class="cls-4" cx="169.23" cy="179.23" rx="0.1" ry="0.08" transform="translate(-72.11 229.4) rotate(-58.39)"/><circle class="cls-4" cx="174.83" cy="177.92" r="0.5"/><ellipse class="cls-4" cx="172.34" cy="165.08" rx="0.1" ry="0.08" transform="translate(-58.58 225.31) rotate(-58.39)"/><ellipse class="cls-4" cx="171.84" cy="168.4" rx="0.1" ry="0.08" transform="translate(-61.65 226.47) rotate(-58.39)"/><ellipse class="cls-4" cx="175.49" cy="167.53" rx="0.1" ry="0.08" transform="translate(-59.17 229.16) rotate(-58.39)"/><ellipse class="cls-4" cx="167.48" cy="172.97" rx="0.1" ry="0.08" transform="translate(-67.61 224.93) rotate(-58.39)"/><ellipse class="cls-4" cx="169.79" cy="169.21" rx="0.1" ry="0.08" transform="translate(-63.31 225.11) rotate(-58.39)"/><ellipse class="cls-4" cx="171.27" cy="172.71" rx="0.1" ry="0.08" transform="translate(-65.59 228.03) rotate(-58.39)"/><ellipse class="cls-4" cx="185.49" cy="166.44" rx="0.1" ry="0.08" transform="translate(-53.48 237.15) rotate(-58.39)"/><ellipse class="cls-4" cx="184.99" cy="169.76" rx="0.1" ry="0.08" transform="matrix(0.52, -0.85, 0.85, 0.52, -56.55, 238.32)"/><ellipse class="cls-4" cx="188.64" cy="168.89" rx="0.1" ry="0.08" transform="translate(-54.08 241) rotate(-58.39)"/><ellipse class="cls-4" cx="180.63" cy="174.33" rx="0.1" ry="0.08" transform="translate(-62.51 236.77) rotate(-58.39)"/><ellipse class="cls-4" cx="182.94" cy="170.57" rx="0.1" ry="0.08" transform="translate(-58.21 236.95) rotate(-58.39)"/><ellipse class="cls-4" cx="184.42" cy="174.07" rx="0.1" ry="0.08" transform="translate(-60.49 239.87) rotate(-58.39)"/><circle class="cls-4" cx="223.08" cy="176.62" r="0.5"/><circle class="cls-4" cx="235.16" cy="178.88" r="0.5"/><circle class="cls-4" cx="256.15" cy="170.04" r="0.5"/><circle class="cls-4" cx="218.37" cy="158.19" r="0.5"/><ellipse class="cls-4" cx="245.49" cy="163.74" rx="0.1" ry="0.08" transform="translate(-22.63 286.96) rotate(-58.39)"/><ellipse class="cls-4" cx="242.16" cy="163.25" rx="0.1" ry="0.08" transform="translate(-23.8 283.9) rotate(-58.39)"/><ellipse class="cls-4" cx="245" cy="167.06" rx="0.1" ry="0.08" transform="translate(-25.7 288.13) rotate(-58.39)"/><ellipse class="cls-4" cx="248.64" cy="166.19" rx="0.1" ry="0.08" transform="translate(-23.23 290.82) rotate(-58.39)"/><ellipse class="cls-4" cx="240.23" cy="160.5" rx="0.1" ry="0.08" transform="translate(-22.38 280.95) rotate(-58.39)"/><ellipse class="cls-4" cx="240.63" cy="171.63" rx="0.1" ry="0.08" transform="translate(-31.66 286.58) rotate(-58.39)"/><ellipse class="cls-4" cx="248.93" cy="167.41" rx="0.1" ry="0.08" transform="translate(-24.12 291.64) rotate(-58.39)"/><ellipse class="cls-4" cx="245.23" cy="173.42" rx="0.1" ry="0.08" transform="translate(-31 291.35) rotate(-58.39)"/><ellipse class="cls-4" cx="242.94" cy="167.87" rx="0.1" ry="0.08" transform="translate(-27.36 286.77) rotate(-58.39)"/><ellipse class="cls-4" cx="260.95" cy="174.81" rx="0.1" ry="0.08" transform="translate(-24.71 305.4) rotate(-58.39)"/><ellipse class="cls-4" cx="259.99" cy="172.15" rx="0.1" ry="0.08" transform="translate(-22.89 303.32) rotate(-58.39)"/><ellipse class="cls-4" cx="257.39" cy="174.69" rx="0.1" ry="0.08" transform="translate(-26.3 302.32) rotate(-58.39)"/><ellipse class="cls-4" cx="244.42" cy="171.37" rx="0.1" ry="0.08" transform="translate(-29.64 289.68) rotate(-58.39)"/><ellipse class="cls-4" cx="235.34" cy="157.49" rx="0.1" ry="0.08" transform="translate(-22.14 275.36) rotate(-58.39)"/><ellipse class="cls-4" cx="230.2" cy="157.44" rx="0.1" ry="0.08" transform="translate(-24.54 270.95) rotate(-58.39)"/><circle class="cls-4" cx="240.37" cy="167.06" r="0.5"/><circle class="cls-4" cx="271.79" cy="181" r="0.5"/><circle class="cls-4" cx="232.87" cy="186.91" r="0.5"/><circle class="cls-4" cx="250.02" cy="170.06" r="0.5"/><circle class="cls-4" cx="236.72" cy="196.41" r="0.5"/><circle class="cls-4" cx="259.44" cy="197.94" r="0.5"/><circle class="cls-4" cx="231.03" cy="170.37" r="0.5"/><circle class="cls-4" cx="254.39" cy="181.36" r="0.5"/><circle class="cls-4" cx="265.63" cy="180.54" r="0.5"/><circle class="cls-4" cx="275.41" cy="187.99" r="0.5"/><ellipse class="cls-4" cx="247.18" cy="183.03" rx="0.1" ry="0.08" transform="translate(-38.26 297.58) rotate(-58.39)"/><ellipse class="cls-4" cx="250.82" cy="182.16" rx="0.1" ry="0.08" transform="matrix(0.52, -0.85, 0.85, 0.52, -35.79, 300.27)"/><ellipse class="cls-4" cx="251.11" cy="183.38" rx="0.1" ry="0.08" transform="translate(-36.68 301.1) rotate(-58.39)"/><ellipse class="cls-4" cx="247.41" cy="189.39" rx="0.1" ry="0.08" transform="translate(-43.56 300.8) rotate(-58.39)"/><ellipse class="cls-4" cx="246.6" cy="187.34" rx="0.1" ry="0.08" transform="translate(-42.2 299.14) rotate(-58.39)"/><ellipse class="cls-4" cx="255.21" cy="188.49" rx="0.1" ry="0.08" transform="matrix(0.52, -0.85, 0.85, 0.52, -39.09, 307.02)"/><ellipse class="cls-4" cx="258.85" cy="187.63" rx="0.1" ry="0.08" transform="translate(-36.62 309.71) rotate(-58.39)"/><ellipse class="cls-4" cx="259.14" cy="188.84" rx="0.1" ry="0.08" transform="translate(-37.51 310.54) rotate(-58.39)"/><ellipse class="cls-4" cx="255.44" cy="194.85" rx="0.1" ry="0.08" transform="matrix(0.52, -0.85, 0.85, 0.52, -44.39, 310.25)"/><ellipse class="cls-4" cx="254.63" cy="192.8" rx="0.1" ry="0.08" transform="matrix(0.52, -0.85, 0.85, 0.52, -43.03, 308.58)"/><ellipse class="cls-4" cx="247.2" cy="182.79" rx="0.1" ry="0.08" transform="translate(-38.04 297.49) rotate(-58.39)"/><ellipse class="cls-4" cx="246.71" cy="186.11" rx="0.1" ry="0.08" transform="translate(-41.1 298.65) rotate(-58.39)"/><ellipse class="cls-4" cx="250.35" cy="185.24" rx="0.1" ry="0.08" transform="translate(-38.63 301.34) rotate(-58.39)"/><ellipse class="cls-4" cx="242.34" cy="190.67" rx="0.1" ry="0.08" transform="translate(-47.07 297.11) rotate(-58.39)"/><ellipse class="cls-4" cx="250.64" cy="186.46" rx="0.1" ry="0.08" transform="translate(-39.53 302.16) rotate(-58.39)"/><ellipse class="cls-4" cx="246.94" cy="192.47" rx="0.1" ry="0.08" transform="translate(-46.41 301.87) rotate(-58.39)"/><ellipse class="cls-4" cx="244.66" cy="186.92" rx="0.1" ry="0.08" transform="translate(-42.77 297.29) rotate(-58.39)"/><ellipse class="cls-4" cx="246.13" cy="190.42" rx="0.1" ry="0.08" transform="translate(-45.05 300.21) rotate(-58.39)"/><circle class="cls-4" cx="242.08" cy="186.11" r="0.5"/><circle class="cls-4" cx="251.73" cy="189.11" r="0.5"/><ellipse class="cls-4" cx="230.49" cy="177.04" rx="0.1" ry="0.08" transform="translate(-41.1 280.52) rotate(-58.39)"/><ellipse class="cls-4" cx="230" cy="180.37" rx="0.1" ry="0.08" transform="translate(-44.17 281.69) rotate(-58.39)"/><ellipse class="cls-4" cx="233.64" cy="179.5" rx="0.1" ry="0.08" transform="translate(-41.7 284.38) rotate(-58.39)"/><ellipse class="cls-4" cx="225.63" cy="184.93" rx="0.1" ry="0.08" transform="translate(-50.13 280.14) rotate(-58.39)"/><ellipse class="cls-4" cx="233.93" cy="180.71" rx="0.1" ry="0.08" transform="translate(-42.59 285.2) rotate(-58.39)"/><ellipse class="cls-4" cx="230.23" cy="186.73" rx="0.1" ry="0.08" transform="translate(-49.47 284.91) rotate(-58.39)"/><ellipse class="cls-4" cx="227.94" cy="181.18" rx="0.1" ry="0.08" transform="translate(-45.83 280.32) rotate(-58.39)"/><ellipse class="cls-4" cx="229.42" cy="184.67" rx="0.1" ry="0.08" transform="translate(-48.11 283.24) rotate(-58.39)"/><circle class="cls-4" cx="235.02" cy="183.37" r="0.5"/><ellipse class="cls-4" cx="232.52" cy="170.53" rx="0.1" ry="0.08" transform="translate(-34.58 279.15) rotate(-58.39)"/><ellipse class="cls-4" cx="232.03" cy="173.85" rx="0.1" ry="0.08" transform="translate(-37.65 280.32) rotate(-58.39)"/><ellipse class="cls-4" cx="235.67" cy="172.98" rx="0.1" ry="0.08" transform="translate(-35.18 283.01) rotate(-58.39)"/><ellipse class="cls-4" cx="227.67" cy="178.41" rx="0.1" ry="0.08" transform="translate(-43.61 278.77) rotate(-58.39)"/><ellipse class="cls-4" cx="229.98" cy="174.66" rx="0.1" ry="0.08" transform="translate(-39.31 278.95) rotate(-58.39)"/><ellipse class="cls-4" cx="231.45" cy="178.15" rx="0.1" ry="0.08" transform="matrix(0.52, -0.85, 0.85, 0.52, -41.59, 281.87)"/><ellipse class="cls-4" cx="245.67" cy="171.88" rx="0.1" ry="0.08" transform="translate(-29.48 291) rotate(-58.39)"/><ellipse class="cls-4" cx="245.18" cy="175.21" rx="0.1" ry="0.08" transform="translate(-32.55 292.16) rotate(-58.39)"/><ellipse class="cls-4" cx="248.82" cy="174.34" rx="0.1" ry="0.08" transform="translate(-30.08 294.85) rotate(-58.39)"/><ellipse class="cls-4" cx="240.82" cy="179.77" rx="0.1" ry="0.08" transform="translate(-38.51 290.62) rotate(-58.39)"/><ellipse class="cls-4" cx="243.13" cy="176.02" rx="0.1" ry="0.08" transform="translate(-34.21 290.8) rotate(-58.39)"/><ellipse class="cls-4" cx="244.6" cy="179.51" rx="0.1" ry="0.08" transform="translate(-36.49 293.72) rotate(-58.39)"/><circle class="cls-4" cx="218.25" cy="61.2" r="0.5"/><circle class="cls-4" cx="230.33" cy="63.46" r="0.5"/><circle class="cls-4" cx="251.32" cy="54.62" r="0.5"/><circle class="cls-4" cx="213.54" cy="42.76" r="0.5"/><ellipse class="cls-4" cx="240.66" cy="48.31" rx="0.1" ry="0.08" transform="translate(73.36 227.93) rotate(-58.39)"/><ellipse class="cls-4" cx="237.33" cy="47.82" rx="0.1" ry="0.08" transform="matrix(0.52, -0.85, 0.85, 0.52, 72.2, 224.87)"/><ellipse class="cls-4" cx="240.17" cy="51.64" rx="0.1" ry="0.08" transform="translate(70.3 229.1) rotate(-58.39)"/><ellipse class="cls-4" cx="243.81" cy="50.77" rx="0.1" ry="0.08" transform="translate(72.77 231.78) rotate(-58.39)"/><ellipse class="cls-4" cx="235.4" cy="45.08" rx="0.1" ry="0.08" transform="translate(73.62 221.91) rotate(-58.39)"/><ellipse class="cls-4" cx="235.8" cy="56.2" rx="0.1" ry="0.08" transform="translate(64.33 227.55) rotate(-58.39)"/><ellipse class="cls-4" cx="244.1" cy="51.98" rx="0.1" ry="0.08" transform="matrix(0.52, -0.85, 0.85, 0.52, 71.87, 232.61)"/><ellipse class="cls-4" cx="240.4" cy="58" rx="0.1" ry="0.08" transform="translate(64.99 232.32) rotate(-58.39)"/><ellipse class="cls-4" cx="238.11" cy="52.45" rx="0.1" ry="0.08" transform="translate(68.63 227.73) rotate(-58.39)"/><ellipse class="cls-4" cx="256.12" cy="59.38" rx="0.1" ry="0.08" transform="translate(71.29 246.37) rotate(-58.39)"/><ellipse class="cls-4" cx="255.17" cy="56.73" rx="0.1" ry="0.08" transform="translate(73.1 244.29) rotate(-58.39)"/><ellipse class="cls-4" cx="252.56" cy="59.27" rx="0.1" ry="0.08" transform="translate(69.7 243.28) rotate(-58.39)"/><ellipse class="cls-4" cx="239.59" cy="55.94" rx="0.1" ry="0.08" transform="translate(66.36 230.65) rotate(-58.39)"/><ellipse class="cls-4" cx="230.51" cy="42.07" rx="0.1" ry="0.08" transform="translate(73.85 216.32) rotate(-58.39)"/><ellipse class="cls-4" cx="225.37" cy="42.01" rx="0.1" ry="0.08" transform="translate(71.46 211.91) rotate(-58.39)"/><circle class="cls-4" cx="235.54" cy="51.64" r="0.5"/><circle class="cls-4" cx="266.96" cy="65.57" r="0.5"/><circle class="cls-4" cx="228.04" cy="71.49" r="0.5"/><circle class="cls-4" cx="245.19" cy="54.64" r="0.5"/><circle class="cls-4" cx="231.89" cy="80.98" r="0.5"/><circle class="cls-4" cx="254.61" cy="82.52" r="0.5"/><circle class="cls-4" cx="226.2" cy="54.95" r="0.5"/><circle class="cls-4" cx="249.56" cy="65.94" r="0.5"/><circle class="cls-4" cx="260.81" cy="65.12" r="0.5"/><circle class="cls-4" cx="270.58" cy="72.56" r="0.5"/><ellipse class="cls-4" cx="242.35" cy="67.61" rx="0.1" ry="0.08" transform="translate(57.74 238.55) rotate(-58.39)"/><ellipse class="cls-4" cx="245.99" cy="66.74" rx="0.1" ry="0.08" transform="translate(60.21 241.24) rotate(-58.39)"/><ellipse class="cls-4" cx="246.28" cy="67.95" rx="0.1" ry="0.08" transform="translate(59.31 242.06) rotate(-58.39)"/><ellipse class="cls-4" cx="242.58" cy="73.96" rx="0.1" ry="0.08" transform="translate(52.43 241.77) rotate(-58.39)"/><ellipse class="cls-4" cx="241.77" cy="71.91" rx="0.1" ry="0.08" transform="translate(53.8 240.11) rotate(-58.39)"/><ellipse class="cls-4" cx="250.38" cy="73.07" rx="0.1" ry="0.08" transform="translate(56.91 247.99) rotate(-58.39)"/><ellipse class="cls-4" cx="254.02" cy="72.2" rx="0.1" ry="0.08" transform="translate(59.38 250.68) rotate(-58.39)"/><ellipse class="cls-4" cx="254.31" cy="73.42" rx="0.1" ry="0.08" transform="translate(58.48 251.5) rotate(-58.39)"/><ellipse class="cls-4" cx="250.61" cy="79.43" rx="0.1" ry="0.08" transform="translate(51.6 251.21) rotate(-58.39)"/><ellipse class="cls-4" cx="249.8" cy="77.38" rx="0.1" ry="0.08" transform="translate(52.97 249.55) rotate(-58.39)"/><ellipse class="cls-4" cx="242.37" cy="67.36" rx="0.1" ry="0.08" transform="translate(57.96 238.45) rotate(-58.39)"/><ellipse class="cls-4" cx="241.88" cy="70.69" rx="0.1" ry="0.08" transform="translate(54.89 239.62) rotate(-58.39)"/><ellipse class="cls-4" cx="245.52" cy="69.82" rx="0.1" ry="0.08" transform="translate(57.36 242.31) rotate(-58.39)"/><ellipse class="cls-4" cx="237.51" cy="75.25" rx="0.1" ry="0.08" transform="translate(48.93 238.07) rotate(-58.39)"/><ellipse class="cls-4" cx="245.81" cy="71.03" rx="0.1" ry="0.08" transform="matrix(0.52, -0.85, 0.85, 0.52, 56.47, 243.13)"/><ellipse class="cls-4" cx="242.11" cy="77.04" rx="0.1" ry="0.08" transform="translate(49.59 242.84) rotate(-58.39)"/><ellipse class="cls-4" cx="239.83" cy="71.49" rx="0.1" ry="0.08" transform="translate(53.23 238.25) rotate(-58.39)"/><ellipse class="cls-4" cx="241.3" cy="74.99" rx="0.1" ry="0.08" transform="matrix(0.52, -0.85, 0.85, 0.52, 50.95, 241.17)"/><circle class="cls-4" cx="237.25" cy="70.68" r="0.5"/><circle class="cls-4" cx="246.9" cy="73.69" r="0.5"/><ellipse class="cls-4" cx="225.66" cy="61.62" rx="0.1" ry="0.08" transform="translate(54.9 221.49) rotate(-58.39)"/><ellipse class="cls-4" cx="225.17" cy="64.94" rx="0.1" ry="0.08" transform="translate(51.83 222.65) rotate(-58.39)"/><ellipse class="cls-4" cx="228.81" cy="64.08" rx="0.1" ry="0.08" transform="translate(54.3 225.34) rotate(-58.39)"/><ellipse class="cls-4" cx="220.8" cy="69.51" rx="0.1" ry="0.08" transform="translate(45.87 221.11) rotate(-58.39)"/><ellipse class="cls-4" cx="229.1" cy="65.29" rx="0.1" ry="0.08" transform="translate(53.41 226.17) rotate(-58.39)"/><ellipse class="cls-4" cx="225.4" cy="71.3" rx="0.1" ry="0.08" transform="translate(46.53 225.88) rotate(-58.39)"/><ellipse class="cls-4" cx="223.12" cy="65.75" rx="0.1" ry="0.08" transform="translate(50.17 221.29) rotate(-58.39)"/><ellipse class="cls-4" cx="224.59" cy="69.25" rx="0.1" ry="0.08" transform="translate(47.89 224.21) rotate(-58.39)"/><circle class="cls-4" cx="230.19" cy="67.95" r="0.5"/><ellipse class="cls-4" cx="227.69" cy="55.1" rx="0.1" ry="0.08" transform="translate(61.41 220.12) rotate(-58.39)"/><ellipse class="cls-4" cx="227.2" cy="58.42" rx="0.1" ry="0.08" transform="translate(58.35 221.28) rotate(-58.39)"/><ellipse class="cls-4" cx="230.84" cy="57.56" rx="0.1" ry="0.08" transform="translate(60.82 223.97) rotate(-58.39)"/><ellipse class="cls-4" cx="222.84" cy="62.99" rx="0.1" ry="0.08" transform="translate(52.39 219.74) rotate(-58.39)"/><ellipse class="cls-4" cx="225.15" cy="59.23" rx="0.1" ry="0.08" transform="translate(56.68 219.92) rotate(-58.39)"/><ellipse class="cls-4" cx="226.62" cy="62.73" rx="0.1" ry="0.08" transform="translate(54.41 222.84) rotate(-58.39)"/><ellipse class="cls-4" cx="240.84" cy="56.46" rx="0.1" ry="0.08" transform="translate(66.51 231.97) rotate(-58.39)"/><ellipse class="cls-4" cx="240.35" cy="59.78" rx="0.1" ry="0.08" transform="translate(63.45 233.13) rotate(-58.39)"/><ellipse class="cls-4" cx="243.99" cy="58.92" rx="0.1" ry="0.08" transform="translate(65.92 235.82) rotate(-58.39)"/><ellipse class="cls-4" cx="235.99" cy="64.35" rx="0.1" ry="0.08" transform="translate(57.48 231.59) rotate(-58.39)"/><ellipse class="cls-4" cx="238.3" cy="60.59" rx="0.1" ry="0.08" transform="translate(61.78 231.77) rotate(-58.39)"/><ellipse class="cls-4" cx="239.77" cy="64.09" rx="0.1" ry="0.08" transform="translate(59.51 234.69) rotate(-58.39)"/><polygon class="cls-4" points="276.75 153.69 270.58 158.26 266.99 164.58 265.55 157.2 265.9 150.62 274.06 147.96 276.75 153.69"/><polygon class="cls-4" points="282.45 176.55 281.07 170.83 276.21 173.07 279.27 175.97 282.45 176.55"/><polygon class="cls-4" points="264.11 183.94 259.19 188.76 260.19 182.66 265.37 180.12 264.11 183.94"/><polygon class="cls-4" points="260.07 172.19 260.85 162.34 256 163.99 248.98 167.33 250.28 170.49 255.72 169.78 260.07 172.19"/><polygon class="cls-4" points="253.97 181.62 254.37 175.97 248.89 174.39 253.97 181.62"/><polygon class="cls-4" points="258.52 153.72 261.05 146.69 255.83 145.18 254.53 145.98 256.19 147.75 255.16 149.34 257.19 150.54 257.02 153.64 258.52 153.72"/><polygon class="cls-4" points="276.02 167.25 276.14 165.07 274.2 164.96 274.13 166.4 273.44 167.11 276.02 167.25"/><polygon class="cls-4" points="241.83 149.2 242.82 152.16 244.81 154.35 241.78 153.98 239.28 153.01 239.28 149.52 241.83 149.2"/><polygon class="cls-4" points="251.39 149.88 249 149.69 249.26 151.85 250.76 151.04 251.39 149.88"/><polygon class="cls-4" points="251.93 157.9 253.18 160.41 250.95 159.26 250.62 156.93 251.93 157.9"/><polygon class="cls-4" points="246.88 157.99 243.17 156.44 243.2 158.52 243.6 161.66 244.99 161.56 245.4 159.36 246.88 157.99"/><polygon class="cls-4" points="249.76 161.53 247.62 160.67 246.32 162.58 249.76 161.53"/><polygon class="cls-4" points="239.54 156.26 237.14 154.39 235.9 156.22 236.04 156.82 236.94 156.4 237.43 157 238.15 156.37 239.32 156.82 239.54 156.26"/><polygon class="cls-4" points="246.98 151.19 246.15 150.87 245.87 151.61 246.41 151.82 246.6 152.17 246.98 151.19"/><polygon class="cls-4" points="226.69 62.77 227.64 55.18 221.5 56.56 218.51 60.78 222.98 59.77 226.69 62.77"/><polygon class="cls-4" points="225.45 71.22 226.73 67.26 223.06 65.83 222.51 68.67 224.52 69.2 225.45 71.22"/></g></svg>