<svg xmlns="http://www.w3.org/2000/svg" xmlns:xlink="http://www.w3.org/1999/xlink" width="320" height="320" viewBox="0 0 320 320"><defs><style>.cls-1{fill:url(#radial-gradient);}.cls-2{fill:url(#radial-gradient-2);}.cls-3{fill:url(#radial-gradient-3);}.cls-4{fill:url(#radial-gradient-4);}.cls-5{fill:url(#radial-gradient-5);}.cls-6{fill:url(#radial-gradient-6);}.cls-7{fill:url(#radial-gradient-7);}.cls-8{fill:#a38078;}</style><radialGradient id="radial-gradient" cx="160" cy="160" r="147.88" gradientUnits="userSpaceOnUse"><stop offset="0" stop-color="#fffdf9"/><stop offset="0.16" stop-color="#fefaf4"/><stop offset="0.35" stop-color="#fcf1e5"/><stop offset="0.56" stop-color="#f9e1cc"/><stop offset="0.78" stop-color="#f4ccaa"/><stop offset="0.8" stop-color="#f4caa6"/><stop offset="1" stop-color="#fbf7f1"/></radialGradient><radialGradient id="radial-gradient-2" cx="1429.5" cy="-3035.26" r="115.82" gradientTransform="matrix(0.98, 0.52, -0.5, 0.94, -2754.6, 2253.26)" gradientUnits="userSpaceOnUse"><stop offset="0" stop-color="#fffdf9"/><stop offset="0.15" stop-color="#fefaf4"/><stop offset="0.33" stop-color="#fcf1e5"/><stop offset="0.53" stop-color="#f9e1cc"/><stop offset="0.73" stop-color="#f4ccaa"/><stop offset="0.75" stop-color="#f4caa6"/><stop offset="0.81" stop-color="#f4cdab"/><stop offset="0.87" stop-color="#f6d6bb"/><stop offset="0.94" stop-color="#f8e6d4"/><stop offset="1" stop-color="#fbf7f1"/></radialGradient><radialGradient id="radial-gradient-3" cx="-10208.47" cy="-11453.89" r="70.69" gradientTransform="matrix(0.1, -1.03, -1.01, -0.1, -10399.88, -11352.35)" gradientUnits="userSpaceOnUse"><stop offset="0" stop-color="#f7eed2"/><stop offset="0.09" stop-color="#f6e6c5"/><stop offset="0.34" stop-color="#f4d2a4"/><stop offset="0.58" stop-color="#f3c48c"/><stop offset="0.81" stop-color="#f2bb7e"/><stop offset="1" stop-color="#f2b879"/></radialGradient><radialGradient id="radial-gradient-4" cx="-10107.59" cy="-11345.52" r="70.69" xlink:href="#radial-gradient-3"/><radialGradient id="radial-gradient-5" cx="1376.21" cy="-4103.99" r="106.2" gradientTransform="matrix(0.95, 0.67, -0.69, 0.96, -3938.77, 3163.78)" gradientUnits="userSpaceOnUse"><stop offset="0" stop-color="#fae7d5"/><stop offset="0.63" stop-color="#f4caa6"/><stop offset="0.71" stop-color="#f5d1b2"/><stop offset="0.87" stop-color="#f8e4d1"/><stop offset="1" stop-color="#fbf7f1"/></radialGradient><radialGradient id="radial-gradient-6" cx="-10810.78" cy="-2.64" r="70.69" gradientTransform="matrix(-1.03, 0, 0, 1.02, -10917.11, 98.54)" xlink:href="#radial-gradient-3"/><radialGradient id="radial-gradient-7" cx="157.52" cy="150.73" r="107.83" gradientUnits="userSpaceOnUse"><stop offset="0" stop-color="#f4caa6"/><stop offset="0.04" stop-color="#efc5a3"/><stop offset="0.3" stop-color="#cea790"/><stop offset="0.56" stop-color="#b69283"/><stop offset="0.8" stop-color="#a8857b"/><stop offset="1" stop-color="#a38078"/></radialGradient></defs><g id="Layer_2" data-name="Layer 2"><path class="cls-1" d="M310.07,155.36c.24,31.55-12.85,56.42-21.61,70a15.38,15.38,0,0,1-1.39,10c-1.13,2.08-2,2.29-7,7-5.66,5.33-5.93,6.37-8,7-1.51.46-5.2,1.08-11-3l-17.88,26.18a24.09,24.09,0,0,0-4.12,3.82c-2.43,2.84-2.81,4.65-4,6-1.64,1.84-5.23,3.31-14,1.31q-4.33,2.19-8.68,4.37a77.55,77.55,0,0,1-8.32,8.32c-5.63,4.81-9.38,8-14,9-9.89,2.07-19.15-7.1-21-9a44.94,44.94,0,0,1-9,0,46.29,46.29,0,0,1-20-7l-49-18c-6.7-4.48-12.19-7.79-16-10-5.55-3.22-9.53-5.26-12-10a17.89,17.89,0,0,1-1.93-6.79q-4.68-5.69-9.37-11.38a61.06,61.06,0,0,1-9.7-7.83c-4.11-4.06-12.08-12-14-23-.78-4.45,0-5.94,1-15a200.67,200.67,0,0,0,1-27c-.67-1.67-1.34-3.33-2-5a12.14,12.14,0,0,1-9,2,11.74,11.74,0,0,1-9-9c-.88-4.72,2.78-6,5-13,3.59-11.32-2.6-18.75,2-23,3.36-3.11,8.6-.92,10-4,1.05-2.33-1.76-4-2-8-.3-4.81,3.47-7.09,8-14,2.7-4.13,1.35-3.32,7-15,7.25-15,9.49-16.38,11-17S57.83,52,67,58.09c11-10.67,48.79-44.71,102.08-43.73C244,15.73,309.51,85.58,310.07,155.36Z"/><path class="cls-2" d="M272.72,207.4c-23,43.65-74.8,68.71-128.94,61.84a41.55,41.55,0,0,1-20.53-1.82c-8.66-3.18-13.76-8.7-17.6-12.72-21.79-22.82-23.63-19.08-32.82-31-6.29-8.14-18.13-26.34-21-57.1-3.8,5.29-8.32,8.21-11.42,7.13-2.73-1-3.54-4.72-4.67-10.4-.93-4.61-2.09-13.28.16-25.94a93.34,93.34,0,0,1,3-12c-2.85-6.63-2.14-10.61-1-13,2.17-4.67,6.13-3.78,9.62-9.62,2.58-4.31,3.07-9.22,3.44-12.89a49.1,49.1,0,0,0,.15-6.71,55.22,55.22,0,0,1,3.6-19.6,17.36,17.36,0,0,0,7.27-5.19c2.43-3,2.34-5.25,3.75-7.07,1.89-2.45,6.67-4.4,19.93-1.19C88.35,48.46,155,8.56,218,42.62,273.77,72.78,303.79,148.56,272.72,207.4Z"/><path class="cls-3" d="M147.78,292.92c12.63-.51,17.15-36.73,28.94-36.66,3.9,0,4.23,4,10.25,5.05,9.31,1.55,17.87-6,20.22-8.28,11.51-11.06,7.39-22.64,14.51-25.8,11.58-5.14,33.48,20.65,35.79,18.34,1.42-1.42-7.81-10.08-5.17-16.12,2-4.56,8.77-3,18.1-7.11,3.09-1.36,16.71-7.68,21.43-21.07,5.59-15.86-4.67-32.05-5.7-31.79-.78.2,3.69,9.7.62,21.8-.61,2.4-4.77,16.94-16.12,21.57-10.85,4.42-23.35-3.73-24.71-1-1.12,2.27,7.61,7.4,6.35,10.79-1,2.67-7.7,3-12.94,2.17-15.9-2.36-22.33-15-26.94-12.74-4.77,2.37,2.45,15.81-4.74,28.76-3.72,6.7-11.19,13.07-19.4,13.79-7.36.63-10.23-3.72-21.47-6.79-9.36-2.56-15.8,2.49-20.6-1.95-2.4-2.23-3-5-5.53-5.28s-5.8,2.26-5.82,4.88c0,3,4.06,4.85,4.87,5.22,4.87,2.24,7.58-.54,14.67.71.44.07,8.11,1.48,8.32,4.18.13,1.59-2.44,2.27-6.55,5.49-2.5,2-10.11,7.92-9.31,13.39.31,2.17,1.71,2.6,1.54,4.9a7.41,7.41,0,0,1-3.89,5.74c-3.22,1.7-6.42-.05-6.77.72C137.23,287,142.47,293.13,147.78,292.92Z"/><path class="cls-4" d="M47.78,178.92c12.63-.51,17.15-36.73,28.94-36.66,3.9,0,4.23,4,10.25,5.05,9.31,1.55,17.87-6,20.22-8.28,11.51-11.06,7.39-22.64,14.51-25.8,11.58-5.14,33.48,20.65,35.79,18.34,1.42-1.42-7.81-10.08-5.17-16.12,2-4.56,8.77-3,18.1-7.11,3.09-1.36,16.71-7.68,21.43-21.07,5.59-15.86-4.67-32-5.7-31.79-.78.2,3.69,9.7.62,21.8-.61,2.4-4.77,16.94-16.12,21.57-10.85,4.42-23.35-3.73-24.71-1-1.12,2.27,7.61,7.4,6.35,10.79-1,2.67-7.7,3-12.94,2.17-15.9-2.36-22.33-15-26.94-12.74-4.77,2.37,2.45,15.81-4.74,28.76-3.72,6.7-11.19,13.07-19.4,13.79-7.36.63-10.23-3.72-21.47-6.79-9.36-2.56-15.8,2.49-20.6-1.95-2.4-2.23-3-5-5.53-5.28s-5.8,2.26-5.82,4.88c0,3,4.06,4.85,4.87,5.22,4.87,2.24,7.58-.54,14.67.71.44.07,8.11,1.48,8.32,4.18.13,1.59-2.44,2.27-6.55,5.49-2.5,2-10.11,7.92-9.31,13.39.31,2.17,1.71,2.6,1.54,4.9a7.41,7.41,0,0,1-3.89,5.74c-3.22,1.7-6.42,0-6.77.72C37.23,173,42.47,179.13,47.78,178.92Z"/><path class="cls-5" d="M277,215.69c-29.15,41-83.14,60.61-134.42,48.2A38.65,38.65,0,0,1,123,260c-7.88-4-11.94-10.07-15-14.45-17.49-24.95-19.86-21.41-26.88-34.17-4.8-8.74-13.4-28.06-11.3-58.93-4.51,4.87-9.33,7.31-12.16,5.91-2.49-1.23-2.68-5.06-2.89-10.82-.17-4.68.06-13.42,4.23-25.77a101.63,101.63,0,0,1,4.75-11.64c-1.71-6.88-.4-10.77,1-13,2.83-4.42,6.52-3.13,10.82-8.57C78.78,84.48,80,79.64,81,76a53.45,53.45,0,0,0,1.21-6.65,58.51,58.51,0,0,1,6.55-19.11,18.27,18.27,0,0,0,7.86-4.42c2.82-2.75,3.08-5,4.73-6.64,2.21-2.24,7.14-3.68,19.46.87,2.91-1.41,73.63-34.21,129.2,6.14C299.16,82,316.3,160.39,277,215.69Z"/><path class="cls-6" d="M303,155c-1.69-12.52-38.18-13.61-39.22-25.36-.35-3.88,3.63-4.59,4.06-10.67.66-9.42-7.68-17.23-10.15-19.35-12.09-10.42-23.23-5.23-27.05-12-6.21-11,17.4-35.28,14.88-37.37C244,49,236.22,59,230,56.91c-4.73-1.55-3.84-8.44-8.8-17.35-1.64-3-9.21-15.91-23-19.35-16.32-4.07-31.47,7.67-31.11,8.68.27.75,9.31-4.59,21.64-2.67,2.44.38,17.32,3.14,23,14,5.42,10.38-1.52,23.6,1.35,24.69,2.36.9,6.65-8.28,10.14-7.34,2.75.74,3.66,7.39,3.38,12.68-.84,16-12.86,23.65-10.14,28,2.82,4.53,15.51-3.93,29.08,2,7,3.08,14.07,9.91,15.55,18,1.33,7.27-2.74,10.53-4.73,22-1.66,9.55,4,15.49,0,20.68-2,2.61-4.73,3.45-4.73,6s2.8,5.56,5.41,5.34c3-.26,4.44-4.5,4.73-5.34,1.77-5.07-1.25-7.5-.68-14.68,0-.44.71-8.21,3.39-8.67,1.57-.28,2.49,2.21,6.08,6,2.18,2.3,8.83,9.32,14.2,8,2.13-.52,2.43-1.95,4.74-2a7.41,7.41,0,0,1,6.08,3.33c2,3.05.55,6.4,1.36,6.67C298.06,166.07,303.72,160.27,303,155Z"/><path class="cls-7" d="M57.07,239.36c2.5-18.76,56.45-20.39,58-38,.5-5.81-5.37-6.88-6-16-1-14.12,11.34-25.81,15-29,17.88-15.62,34.35-7.83,40-18,9.18-16.55-25.73-52.87-22-56,2.28-1.92,13.75,13.08,23,10,7-2.33,5.67-12.65,13-26,2.42-4.42,13.63-23.85,34-29,24.13-6.1,46.53,11.49,46,13-.41,1.13-13.77-6.88-32-4-3.62.57-25.61,4.71-34,21-8,15.56,2.23,35.37-2,37-3.5,1.35-9.85-12.4-15-11-4.07,1.1-5.42,11.07-5,19,1.24,24.06,19,35.45,15,42-4.17,6.78-22.94-5.9-43,3-10.39,4.6-20.81,14.85-23,27-2,10.89,4,15.79,7,33,2.45,14.32-5.88,23.21,0,31,2.93,3.9,7,5.17,7,9s-4.14,8.33-8,8c-4.38-.38-6.57-6.75-7-8-2.62-7.59,1.84-11.24,1-22-.06-.67-1-12.3-5-13-2.33-.41-3.69,3.32-9,9-3.23,3.45-13.06,14-21,12-3.15-.78-3.59-2.92-7-3a11,11,0,0,0-9,5c-2.95,4.57-.81,9.58-2,10C64.37,256,56,247.26,57.07,239.36Z"/><circle class="cls-8" cx="81.43" cy="108.88" r="1.77"/><circle class="cls-8" cx="175.03" cy="164.9" r="0.8"/><circle class="cls-8" cx="143.21" cy="153.59" r="0.8"/><circle class="cls-8" cx="170.08" cy="85.7" r="0.8"/><circle class="cls-8" cx="176.45" cy="133.08" r="0.8"/><circle class="cls-8" cx="163.01" cy="152.17" r="0.8"/><circle class="cls-8" cx="129.07" cy="164.2" r="0.8"/><circle class="cls-8" cx="151.7" cy="92.77" r="0.8"/><circle class="cls-8" cx="130.48" cy="122.47" r="0.8"/><circle class="cls-8" cx="192.01" cy="106.92" r="0.8"/><ellipse class="cls-8" cx="151.04" cy="139.8" rx="0.14" ry="0.16"/><ellipse class="cls-8" cx="150.33" cy="122.12" rx="0.14" ry="0.16"/><ellipse class="cls-8" cx="150.33" cy="127.78" rx="0.14" ry="0.16"/><ellipse class="cls-8" cx="155.28" cy="120" rx="0.14" ry="0.16"/><ellipse class="cls-8" cx="148.21" cy="117.17" rx="0.14" ry="0.16"/><ellipse class="cls-8" cx="143.97" cy="121.41" rx="0.14" ry="0.16"/><ellipse class="cls-8" cx="150.33" cy="133.43" rx="0.14" ry="0.16"/><ellipse class="cls-8" cx="160.23" cy="122.12" rx="0.14" ry="0.16"/><ellipse class="cls-8" cx="150.33" cy="107.27" rx="0.14" ry="0.16"/><ellipse class="cls-8" cx="142.55" cy="120" rx="0.14" ry="0.16"/><ellipse class="cls-8" cx="128.41" cy="136.26" rx="0.14" ry="0.16"/><ellipse class="cls-8" cx="142.55" cy="108.68" rx="0.14" ry="0.16"/><ellipse class="cls-8" cx="150.33" cy="114.34" rx="0.14" ry="0.16"/><ellipse class="cls-8" cx="119.92" cy="120" rx="0.14" ry="0.16"/><ellipse class="cls-8" cx="123.46" cy="122.83" rx="0.14" ry="0.16"/><ellipse class="cls-8" cx="124.87" cy="117.17" rx="0.14" ry="0.16"/><ellipse class="cls-8" cx="145.38" cy="110.81" rx="0.14" ry="0.16"/><ellipse class="cls-8" cx="133.36" cy="128.48" rx="0.14" ry="0.16"/><ellipse class="cls-8" cx="169.42" cy="122.12" rx="0.14" ry="0.16"/><ellipse class="cls-8" cx="163.06" cy="141.92" rx="0.14" ry="0.16"/><ellipse class="cls-8" cx="176.49" cy="117.88" rx="0.14" ry="0.16"/><ellipse class="cls-8" cx="159.52" cy="125.66" rx="0.14" ry="0.16"/><circle class="cls-8" cx="144.63" cy="128.13" r="0.8"/><circle class="cls-8" cx="154.53" cy="113.28" r="0.8"/><circle class="cls-8" cx="133.05" cy="107.47" r="1.77"/><circle class="cls-8" cx="169.82" cy="111" r="1.77"/><circle class="cls-8" cx="136.59" cy="140" r="1.77"/><circle class="cls-8" cx="123.26" cy="145.08" r="0.8"/><circle class="cls-8" cx="99.92" cy="120.66" r="0.8"/><circle class="cls-8" cx="148.08" cy="79.89" r="0.8"/><circle class="cls-8" cx="138.83" cy="117.29" r="0.8"/><circle class="cls-8" cx="118.24" cy="128.3" r="0.8"/><circle class="cls-8" cx="82.52" cy="123.78" r="0.8"/><circle class="cls-8" cx="134.84" cy="70.16" r="0.8"/><circle class="cls-8" cx="102.54" cy="87.15" r="0.8"/><circle class="cls-8" cx="164.49" cy="100.91" r="0.8"/><circle class="cls-8" cx="123.36" cy="105.55" r="0.8"/><circle class="cls-8" cx="111.58" cy="74.9" r="1.77"/><circle class="cls-8" cx="142.83" cy="94.59" r="1.77"/><circle class="cls-8" cx="100.11" cy="105.54" r="1.77"/><circle class="cls-8" cx="124.35" cy="129.71" r="0.8"/><circle class="cls-8" cx="105.96" cy="136.78" r="0.8"/><circle class="cls-8" cx="108.71" cy="116.11" r="0.8"/><circle class="cls-8" cx="89.11" cy="114.16" r="0.8"/><circle class="cls-8" cx="118.75" cy="144.92" r="0.8"/><circle class="cls-8" cx="97.1" cy="138.6" r="1.77"/><ellipse class="cls-8" cx="200.07" cy="138.79" rx="0.14" ry="0.16"/><ellipse class="cls-8" cx="131.81" cy="97.2" rx="0.14" ry="0.16"/><ellipse class="cls-8" cx="127.57" cy="101.45" rx="0.14" ry="0.16"/><ellipse class="cls-8" cx="126.16" cy="100.03" rx="0.14" ry="0.16"/><ellipse class="cls-8" cx="126.16" cy="88.72" rx="0.14" ry="0.16"/><ellipse class="cls-8" cx="128.98" cy="90.84" rx="0.14" ry="0.16"/><ellipse class="cls-8" cx="116.26" cy="96.5" rx="0.14" ry="0.16"/><ellipse class="cls-8" cx="112.01" cy="100.74" rx="0.14" ry="0.16"/><ellipse class="cls-8" cx="110.6" cy="99.32" rx="0.14" ry="0.16"/><ellipse class="cls-8" cx="110.6" cy="88.01" rx="0.14" ry="0.16"/><ellipse class="cls-8" cx="113.43" cy="90.13" rx="0.14" ry="0.16"/><ellipse class="cls-8" cx="131.99" cy="97.56" rx="0.14" ry="0.16"/><ellipse class="cls-8" cx="129.86" cy="92.61" rx="0.14" ry="0.16"/><ellipse class="cls-8" cx="125.62" cy="96.85" rx="0.14" ry="0.16"/><ellipse class="cls-8" cx="131.99" cy="82.71" rx="0.14" ry="0.16"/><ellipse class="cls-8" cx="124.21" cy="95.44" rx="0.14" ry="0.16"/><ellipse class="cls-8" cx="124.21" cy="84.12" rx="0.14" ry="0.16"/><ellipse class="cls-8" cx="131.99" cy="89.78" rx="0.14" ry="0.16"/><ellipse class="cls-8" cx="127.04" cy="86.24" rx="0.14" ry="0.16"/><circle class="cls-8" cx="136.18" cy="88.72" r="0.8"/><circle class="cls-8" cx="120.48" cy="92.73" r="0.8"/><ellipse class="cls-8" cx="159.62" cy="91.35" rx="0.14" ry="0.16"/><ellipse class="cls-8" cx="157.5" cy="86.4" rx="0.14" ry="0.16"/><ellipse class="cls-8" cx="153.26" cy="90.65" rx="0.14" ry="0.16"/><ellipse class="cls-8" cx="159.62" cy="76.5" rx="0.14" ry="0.16"/><ellipse class="cls-8" cx="151.84" cy="89.23" rx="0.14" ry="0.16"/><ellipse class="cls-8" cx="151.84" cy="77.92" rx="0.14" ry="0.16"/><ellipse class="cls-8" cx="159.62" cy="83.57" rx="0.14" ry="0.16"/><ellipse class="cls-8" cx="154.67" cy="80.04" rx="0.14" ry="0.16"/><circle class="cls-8" cx="148.12" cy="86.52" r="0.8"/><ellipse class="cls-8" cx="162.32" cy="101.96" rx="0.14" ry="0.16"/><ellipse class="cls-8" cx="160.2" cy="97.01" rx="0.14" ry="0.16"/><ellipse class="cls-8" cx="155.96" cy="101.25" rx="0.14" ry="0.16"/><ellipse class="cls-8" cx="162.32" cy="87.11" rx="0.14" ry="0.16"/><ellipse class="cls-8" cx="162.32" cy="94.18" rx="0.14" ry="0.16"/><ellipse class="cls-8" cx="157.37" cy="90.65" rx="0.14" ry="0.16"/><ellipse class="cls-8" cx="143.23" cy="111.15" rx="0.14" ry="0.16"/><ellipse class="cls-8" cx="141.11" cy="106.2" rx="0.14" ry="0.16"/><ellipse class="cls-8" cx="136.87" cy="110.45" rx="0.14" ry="0.16"/><ellipse class="cls-8" cx="143.23" cy="96.3" rx="0.14" ry="0.16"/><ellipse class="cls-8" cx="143.23" cy="103.37" rx="0.14" ry="0.16"/><ellipse class="cls-8" cx="138.28" cy="99.84" rx="0.14" ry="0.16"/><circle class="cls-8" cx="141.43" cy="175.88" r="1.77"/><circle class="cls-8" cx="235.03" cy="231.9" r="0.8"/><circle class="cls-8" cx="203.21" cy="220.59" r="0.8"/><circle class="cls-8" cx="230.08" cy="152.7" r="0.8"/><circle class="cls-8" cx="236.45" cy="200.08" r="0.8"/><circle class="cls-8" cx="223.01" cy="219.17" r="0.8"/><circle class="cls-8" cx="189.07" cy="231.2" r="0.8"/><circle class="cls-8" cx="211.7" cy="159.77" r="0.8"/><circle class="cls-8" cx="190.48" cy="189.47" r="0.8"/><circle class="cls-8" cx="252.01" cy="173.92" r="0.8"/><ellipse class="cls-8" cx="211.04" cy="206.8" rx="0.14" ry="0.16"/><ellipse class="cls-8" cx="210.33" cy="189.12" rx="0.14" ry="0.16"/><ellipse class="cls-8" cx="210.33" cy="194.78" rx="0.14" ry="0.16"/><ellipse class="cls-8" cx="215.28" cy="187" rx="0.14" ry="0.16"/><ellipse class="cls-8" cx="208.21" cy="184.17" rx="0.14" ry="0.16"/><ellipse class="cls-8" cx="203.97" cy="188.41" rx="0.14" ry="0.16"/><ellipse class="cls-8" cx="210.33" cy="200.43" rx="0.14" ry="0.16"/><ellipse class="cls-8" cx="220.23" cy="189.12" rx="0.14" ry="0.16"/><ellipse class="cls-8" cx="210.33" cy="174.27" rx="0.14" ry="0.16"/><ellipse class="cls-8" cx="202.55" cy="187" rx="0.14" ry="0.16"/><ellipse class="cls-8" cx="188.41" cy="203.26" rx="0.14" ry="0.16"/><ellipse class="cls-8" cx="202.55" cy="175.68" rx="0.14" ry="0.16"/><ellipse class="cls-8" cx="210.33" cy="181.34" rx="0.14" ry="0.16"/><ellipse class="cls-8" cx="179.92" cy="187" rx="0.14" ry="0.16"/><ellipse class="cls-8" cx="183.46" cy="189.83" rx="0.14" ry="0.16"/><ellipse class="cls-8" cx="184.87" cy="184.17" rx="0.14" ry="0.16"/><ellipse class="cls-8" cx="205.38" cy="177.81" rx="0.14" ry="0.16"/><ellipse class="cls-8" cx="193.36" cy="195.48" rx="0.14" ry="0.16"/><ellipse class="cls-8" cx="229.42" cy="189.12" rx="0.14" ry="0.16"/><ellipse class="cls-8" cx="223.06" cy="208.92" rx="0.14" ry="0.16"/><ellipse class="cls-8" cx="236.49" cy="184.88" rx="0.14" ry="0.16"/><ellipse class="cls-8" cx="219.52" cy="192.66" rx="0.14" ry="0.16"/><circle class="cls-8" cx="204.63" cy="195.13" r="0.8"/><circle class="cls-8" cx="214.53" cy="180.28" r="0.8"/><circle class="cls-8" cx="193.05" cy="174.47" r="1.77"/><circle class="cls-8" cx="229.82" cy="178" r="1.77"/><circle class="cls-8" cx="196.59" cy="207" r="1.77"/><circle class="cls-8" cx="183.26" cy="212.08" r="0.8"/><circle class="cls-8" cx="159.92" cy="187.66" r="0.8"/><circle class="cls-8" cx="208.08" cy="146.89" r="0.8"/><circle class="cls-8" cx="198.83" cy="184.29" r="0.8"/><circle class="cls-8" cx="178.24" cy="195.3" r="0.8"/><circle class="cls-8" cx="142.52" cy="190.78" r="0.8"/><circle class="cls-8" cx="194.84" cy="137.16" r="0.8"/><circle class="cls-8" cx="162.54" cy="154.15" r="0.8"/><circle class="cls-8" cx="224.49" cy="167.91" r="0.8"/><circle class="cls-8" cx="183.36" cy="172.55" r="0.8"/><circle class="cls-8" cx="171.58" cy="141.9" r="1.77"/><circle class="cls-8" cx="202.83" cy="161.59" r="1.77"/><circle class="cls-8" cx="160.11" cy="172.54" r="1.77"/><circle class="cls-8" cx="184.35" cy="196.71" r="0.8"/><circle class="cls-8" cx="165.96" cy="203.78" r="0.8"/><circle class="cls-8" cx="168.71" cy="183.11" r="0.8"/><circle class="cls-8" cx="149.11" cy="181.16" r="0.8"/><circle class="cls-8" cx="178.75" cy="211.92" r="0.8"/><circle class="cls-8" cx="157.1" cy="205.6" r="1.77"/><ellipse class="cls-8" cx="260.07" cy="205.79" rx="0.14" ry="0.16"/><ellipse class="cls-8" cx="191.81" cy="164.2" rx="0.14" ry="0.16"/><ellipse class="cls-8" cx="187.57" cy="168.45" rx="0.14" ry="0.16"/><ellipse class="cls-8" cx="186.16" cy="167.03" rx="0.14" ry="0.16"/><ellipse class="cls-8" cx="186.16" cy="155.72" rx="0.14" ry="0.16"/><ellipse class="cls-8" cx="188.98" cy="157.84" rx="0.14" ry="0.16"/><ellipse class="cls-8" cx="176.26" cy="163.5" rx="0.14" ry="0.16"/><ellipse class="cls-8" cx="172.01" cy="167.74" rx="0.14" ry="0.16"/><ellipse class="cls-8" cx="170.6" cy="166.32" rx="0.14" ry="0.16"/><ellipse class="cls-8" cx="170.6" cy="155.01" rx="0.14" ry="0.16"/><ellipse class="cls-8" cx="173.43" cy="157.13" rx="0.14" ry="0.16"/><ellipse class="cls-8" cx="191.99" cy="164.56" rx="0.14" ry="0.16"/><ellipse class="cls-8" cx="189.86" cy="159.61" rx="0.14" ry="0.16"/><ellipse class="cls-8" cx="185.62" cy="163.85" rx="0.14" ry="0.16"/><ellipse class="cls-8" cx="191.99" cy="149.71" rx="0.14" ry="0.16"/><ellipse class="cls-8" cx="184.21" cy="162.44" rx="0.14" ry="0.16"/><ellipse class="cls-8" cx="184.21" cy="151.12" rx="0.14" ry="0.16"/><ellipse class="cls-8" cx="191.99" cy="156.78" rx="0.14" ry="0.16"/><ellipse class="cls-8" cx="187.04" cy="153.24" rx="0.14" ry="0.16"/><circle class="cls-8" cx="196.18" cy="155.72" r="0.8"/><circle class="cls-8" cx="180.48" cy="159.73" r="0.8"/><ellipse class="cls-8" cx="219.62" cy="158.35" rx="0.14" ry="0.16"/><ellipse class="cls-8" cx="217.5" cy="153.4" rx="0.14" ry="0.16"/><ellipse class="cls-8" cx="213.26" cy="157.65" rx="0.14" ry="0.16"/><ellipse class="cls-8" cx="219.62" cy="143.5" rx="0.14" ry="0.16"/><ellipse class="cls-8" cx="211.84" cy="156.23" rx="0.14" ry="0.16"/><ellipse class="cls-8" cx="211.84" cy="144.92" rx="0.14" ry="0.16"/><ellipse class="cls-8" cx="219.62" cy="150.57" rx="0.14" ry="0.16"/><ellipse class="cls-8" cx="214.67" cy="147.04" rx="0.14" ry="0.16"/><circle class="cls-8" cx="208.12" cy="153.52" r="0.8"/><ellipse class="cls-8" cx="222.32" cy="168.96" rx="0.14" ry="0.16"/><ellipse class="cls-8" cx="220.2" cy="164.01" rx="0.14" ry="0.16"/><ellipse class="cls-8" cx="215.96" cy="168.25" rx="0.14" ry="0.16"/><ellipse class="cls-8" cx="222.32" cy="154.11" rx="0.14" ry="0.16"/><ellipse class="cls-8" cx="222.32" cy="161.18" rx="0.14" ry="0.16"/><ellipse class="cls-8" cx="217.37" cy="157.65" rx="0.14" ry="0.16"/><ellipse class="cls-8" cx="203.23" cy="178.15" rx="0.14" ry="0.16"/><ellipse class="cls-8" cx="201.11" cy="173.2" rx="0.14" ry="0.16"/><ellipse class="cls-8" cx="196.87" cy="177.45" rx="0.14" ry="0.16"/><ellipse class="cls-8" cx="203.23" cy="163.3" rx="0.14" ry="0.16"/><ellipse class="cls-8" cx="203.23" cy="170.37" rx="0.14" ry="0.16"/><ellipse class="cls-8" cx="198.28" cy="166.84" rx="0.14" ry="0.16"/><circle class="cls-8" cx="179.8" cy="109.22" r="1.14"/><circle class="cls-8" cx="239.9" cy="145.19" r="0.51"/><circle class="cls-8" cx="219.47" cy="137.92" r="0.51"/><circle class="cls-8" cx="236.72" cy="94.33" r="0.51"/><circle class="cls-8" cx="240.81" cy="124.75" r="0.51"/><circle class="cls-8" cx="232.18" cy="137.01" r="0.51"/><circle class="cls-8" cx="210.39" cy="144.73" r="0.51"/><circle class="cls-8" cx="224.92" cy="98.87" r="0.51"/><circle class="cls-8" cx="211.3" cy="117.94" r="0.51"/><circle class="cls-8" cx="250.8" cy="107.95" r="0.51"/><ellipse class="cls-8" cx="224.49" cy="129.07" rx="0.09" ry="0.1"/><ellipse class="cls-8" cx="224.04" cy="117.72" rx="0.09" ry="0.1"/><ellipse class="cls-8" cx="224.04" cy="121.35" rx="0.09" ry="0.1"/><ellipse class="cls-8" cx="227.22" cy="116.35" rx="0.09" ry="0.1"/><ellipse class="cls-8" cx="222.68" cy="114.54" rx="0.09" ry="0.1"/><ellipse class="cls-8" cx="219.95" cy="117.26" rx="0.09" ry="0.1"/><ellipse class="cls-8" cx="224.04" cy="124.98" rx="0.09" ry="0.1"/><ellipse class="cls-8" cx="230.4" cy="117.72" rx="0.09" ry="0.1"/><ellipse class="cls-8" cx="224.04" cy="108.18" rx="0.09" ry="0.1"/><ellipse class="cls-8" cx="219.04" cy="116.35" rx="0.09" ry="0.1"/><ellipse class="cls-8" cx="209.96" cy="126.8" rx="0.09" ry="0.1"/><ellipse class="cls-8" cx="219.04" cy="109.09" rx="0.09" ry="0.1"/><ellipse class="cls-8" cx="224.04" cy="112.72" rx="0.09" ry="0.1"/><ellipse class="cls-8" cx="204.51" cy="116.35" rx="0.09" ry="0.1"/><ellipse class="cls-8" cx="206.78" cy="118.17" rx="0.09" ry="0.1"/><ellipse class="cls-8" cx="207.69" cy="114.54" rx="0.09" ry="0.1"/><ellipse class="cls-8" cx="220.86" cy="110.45" rx="0.09" ry="0.1"/><ellipse class="cls-8" cx="213.14" cy="121.8" rx="0.09" ry="0.1"/><ellipse class="cls-8" cx="236.3" cy="117.72" rx="0.09" ry="0.1"/><ellipse class="cls-8" cx="232.21" cy="130.43" rx="0.09" ry="0.1"/><ellipse class="cls-8" cx="240.84" cy="114.99" rx="0.09" ry="0.1"/><ellipse class="cls-8" cx="229.94" cy="119.99" rx="0.09" ry="0.1"/><circle class="cls-8" cx="220.38" cy="121.58" r="0.51"/><circle class="cls-8" cx="226.73" cy="112.04" r="0.51"/><circle class="cls-8" cx="212.94" cy="108.31" r="1.14"/><circle class="cls-8" cx="236.56" cy="110.58" r="1.14"/><circle class="cls-8" cx="215.21" cy="129.2" r="1.14"/><circle class="cls-8" cx="206.66" cy="132.46" r="0.51"/><circle class="cls-8" cx="191.67" cy="116.78" r="0.51"/><circle class="cls-8" cx="222.6" cy="90.6" r="0.51"/><circle class="cls-8" cx="216.65" cy="114.61" r="0.51"/><circle class="cls-8" cx="203.43" cy="121.69" r="0.51"/><circle class="cls-8" cx="180.5" cy="118.78" r="0.51"/><circle class="cls-8" cx="214.09" cy="84.35" r="0.51"/><circle class="cls-8" cx="193.35" cy="95.26" r="0.51"/><circle class="cls-8" cx="233.13" cy="104.1" r="0.51"/><circle class="cls-8" cx="206.72" cy="107.07" r="0.51"/><circle class="cls-8" cx="199.16" cy="87.39" r="1.14"/><circle class="cls-8" cx="219.23" cy="100.04" r="1.14"/><circle class="cls-8" cx="191.79" cy="107.07" r="1.14"/><circle class="cls-8" cx="207.36" cy="122.59" r="0.51"/><circle class="cls-8" cx="195.55" cy="127.13" r="0.51"/><circle class="cls-8" cx="197.31" cy="113.86" r="0.51"/><circle class="cls-8" cx="184.73" cy="112.61" r="0.51"/><circle class="cls-8" cx="203.76" cy="132.36" r="0.51"/><circle class="cls-8" cx="189.86" cy="128.3" r="1.14"/><ellipse class="cls-8" cx="255.98" cy="128.42" rx="0.09" ry="0.1"/><ellipse class="cls-8" cx="212.15" cy="101.72" rx="0.09" ry="0.1"/><ellipse class="cls-8" cx="209.42" cy="104.44" rx="0.09" ry="0.1"/><ellipse class="cls-8" cx="208.52" cy="103.53" rx="0.09" ry="0.1"/><ellipse class="cls-8" cx="208.52" cy="96.27" rx="0.09" ry="0.1"/><ellipse class="cls-8" cx="210.33" cy="97.63" rx="0.09" ry="0.1"/><ellipse class="cls-8" cx="202.16" cy="101.26" rx="0.09" ry="0.1"/><ellipse class="cls-8" cx="199.43" cy="103.99" rx="0.09" ry="0.1"/><ellipse class="cls-8" cx="198.53" cy="103.08" rx="0.09" ry="0.1"/><ellipse class="cls-8" cx="198.53" cy="95.81" rx="0.09" ry="0.1"/><ellipse class="cls-8" cx="200.34" cy="97.18" rx="0.09" ry="0.1"/><ellipse class="cls-8" cx="212.26" cy="101.94" rx="0.09" ry="0.1"/><ellipse class="cls-8" cx="210.9" cy="98.77" rx="0.09" ry="0.1"/><ellipse class="cls-8" cx="208.17" cy="101.49" rx="0.09" ry="0.1"/><ellipse class="cls-8" cx="212.26" cy="92.41" rx="0.09" ry="0.1"/><ellipse class="cls-8" cx="207.26" cy="100.58" rx="0.09" ry="0.1"/><ellipse class="cls-8" cx="207.26" cy="93.32" rx="0.09" ry="0.1"/><ellipse class="cls-8" cx="212.26" cy="96.95" rx="0.09" ry="0.1"/><ellipse class="cls-8" cx="209.08" cy="94.68" rx="0.09" ry="0.1"/><circle class="cls-8" cx="214.96" cy="96.27" r="0.51"/><circle class="cls-8" cx="204.87" cy="98.84" r="0.51"/><ellipse class="cls-8" cx="230.01" cy="97.96" rx="0.09" ry="0.1"/><ellipse class="cls-8" cx="228.64" cy="94.78" rx="0.09" ry="0.1"/><ellipse class="cls-8" cx="225.92" cy="97.51" rx="0.09" ry="0.1"/><ellipse class="cls-8" cx="230.01" cy="88.42" rx="0.09" ry="0.1"/><ellipse class="cls-8" cx="225.01" cy="96.6" rx="0.09" ry="0.1"/><ellipse class="cls-8" cx="225.01" cy="89.33" rx="0.09" ry="0.1"/><ellipse class="cls-8" cx="230.01" cy="92.97" rx="0.09" ry="0.1"/><ellipse class="cls-8" cx="226.83" cy="90.7" rx="0.09" ry="0.1"/><circle class="cls-8" cx="222.62" cy="94.86" r="0.51"/><ellipse class="cls-8" cx="231.74" cy="104.77" rx="0.09" ry="0.1"/><ellipse class="cls-8" cx="230.38" cy="101.59" rx="0.09" ry="0.1"/><ellipse class="cls-8" cx="227.65" cy="104.32" rx="0.09" ry="0.1"/><ellipse class="cls-8" cx="231.74" cy="95.24" rx="0.09" ry="0.1"/><ellipse class="cls-8" cx="231.74" cy="99.78" rx="0.09" ry="0.1"/><ellipse class="cls-8" cx="228.56" cy="97.51" rx="0.09" ry="0.1"/><ellipse class="cls-8" cx="219.48" cy="110.67" rx="0.09" ry="0.1"/><ellipse class="cls-8" cx="218.12" cy="107.5" rx="0.09" ry="0.1"/><ellipse class="cls-8" cx="215.39" cy="110.22" rx="0.09" ry="0.1"/><ellipse class="cls-8" cx="219.48" cy="101.14" rx="0.09" ry="0.1"/><ellipse class="cls-8" cx="219.48" cy="105.68" rx="0.09" ry="0.1"/><ellipse class="cls-8" cx="216.3" cy="103.41" rx="0.09" ry="0.1"/></g></svg>