<svg xmlns="http://www.w3.org/2000/svg" xmlns:xlink="http://www.w3.org/1999/xlink" width="320" height="320" viewBox="0 0 320 320"><defs><style>.cls-1{fill:url(#radial-gradient);}.cls-2{fill:url(#radial-gradient-2);}.cls-3{fill:url(#radial-gradient-3);}.cls-4{opacity:0.09;}.cls-5{fill:url(#linear-gradient);}.cls-6{fill:#f2d897;}.cls-7{fill:#fffdf9;}.cls-8{fill:#efddac;}.cls-9{fill:#eacf8c;}.cls-10{opacity:0.64;}.cls-11{fill:#fff;}</style><radialGradient id="radial-gradient" cx="160" cy="160" r="147.88" gradientUnits="userSpaceOnUse"><stop offset="0" stop-color="#fffdf9"/><stop offset="0.84" stop-color="#efddac"/><stop offset="0.89" stop-color="#f0dfb1"/><stop offset="0.95" stop-color="#f3e6c0"/><stop offset="1" stop-color="#f7eed2"/></radialGradient><radialGradient id="radial-gradient-2" cx="641.49" cy="-2934.46" r="115.82" gradientTransform="matrix(0.98, 0.52, -0.5, 0.94, -1931.1, 2568.31)" xlink:href="#radial-gradient"/><radialGradient id="radial-gradient-3" cx="419.13" cy="-3785.92" r="106.2" gradientTransform="matrix(0.95, 0.67, -0.69, 0.96, -2815.44, 3502.9)" xlink:href="#radial-gradient"/><linearGradient id="linear-gradient" x1="160" y1="62.8" x2="265.59" y2="62.8" gradientUnits="userSpaceOnUse"><stop offset="0" stop-color="#fff"/><stop offset="1" stop-color="#f4caa6"/></linearGradient></defs><g id="Layer_2" data-name="Layer 2"><path class="cls-1" d="M310.07,155.36c.24,31.55-12.85,56.42-21.61,70a15.38,15.38,0,0,1-1.39,10c-1.13,2.08-2,2.29-7,7-5.66,5.33-5.93,6.37-8,7-1.51.46-5.2,1.08-11-3l-17.88,26.18a24.09,24.09,0,0,0-4.12,3.82c-2.43,2.84-2.81,4.65-4,6-1.64,1.84-5.23,3.31-14,1.31q-4.33,2.19-8.68,4.37a77.55,77.55,0,0,1-8.32,8.32c-5.63,4.81-9.38,8-14,9-9.89,2.07-19.15-7.1-21-9a44.94,44.94,0,0,1-9,0,46.29,46.29,0,0,1-20-7l-49-18c-6.7-4.48-12.19-7.79-16-10-5.55-3.22-9.53-5.26-12-10a17.89,17.89,0,0,1-1.93-6.79q-4.68-5.69-9.37-11.38a61.06,61.06,0,0,1-9.7-7.83c-4.11-4.06-12.08-12-14-23-.78-4.45,0-5.94,1-15a200.67,200.67,0,0,0,1-27c-.67-1.67-1.34-3.33-2-5a12.14,12.14,0,0,1-9,2,11.74,11.74,0,0,1-9-9c-.88-4.72,2.78-6,5-13,3.59-11.32-2.6-18.75,2-23,3.36-3.11,8.6-.92,10-4,1.05-2.33-1.76-4-2-8-.3-4.81,3.47-7.09,8-14,2.7-4.13,1.35-3.32,7-15,7.25-15,9.49-16.38,11-17S57.83,52,67,58.09c11-10.67,48.79-44.71,102.08-43.73C244,15.73,309.51,85.58,310.07,155.36Z"/><path class="cls-2" d="M272.72,207.4c-23,43.65-74.8,68.71-128.94,61.84a41.55,41.55,0,0,1-20.53-1.82c-8.66-3.18-13.76-8.7-17.6-12.72-21.79-22.82-23.63-19.08-32.82-31-6.29-8.14-18.13-26.34-21-57.1-3.8,5.29-8.32,8.21-11.42,7.13-2.73-1-3.54-4.72-4.67-10.4-.93-4.61-2.09-13.28.16-25.94a93.34,93.34,0,0,1,3-12c-2.85-6.63-2.14-10.61-1-13,2.17-4.67,6.13-3.78,9.62-9.62,2.58-4.31,3.07-9.22,3.44-12.89a49.1,49.1,0,0,0,.15-6.71,55.22,55.22,0,0,1,3.6-19.6,17.36,17.36,0,0,0,7.27-5.19c2.43-3,2.34-5.25,3.75-7.07,1.89-2.45,6.67-4.4,19.93-1.19C88.35,48.46,155,8.56,218,42.62,273.77,72.78,303.79,148.56,272.72,207.4Z"/><path class="cls-3" d="M277,215.69c-29.15,41-83.14,60.61-134.42,48.2A38.65,38.65,0,0,1,123,260c-7.88-4-11.94-10.07-15-14.45-17.49-24.95-19.86-21.41-26.88-34.17-4.8-8.74-13.4-28.06-11.3-58.93-4.51,4.87-9.33,7.31-12.16,5.91-2.49-1.23-2.68-5.06-2.89-10.82-.17-4.68.06-13.42,4.23-25.77a101.63,101.63,0,0,1,4.75-11.64c-1.71-6.88-.4-10.77,1-13,2.83-4.42,6.52-3.13,10.82-8.57C78.78,84.48,80,79.64,81,76a53.45,53.45,0,0,0,1.21-6.65,58.51,58.51,0,0,1,6.55-19.11,18.27,18.27,0,0,0,7.86-4.42c2.82-2.75,3.08-5,4.73-6.64,2.21-2.24,7.14-3.68,19.46.87,2.91-1.41,73.63-34.21,129.2,6.14C299.16,82,316.3,160.39,277,215.69Z"/><path class="cls-4" d="M285.12,106.26c.47,3.6-13.69,10.11-27.41,11.42-12.35,1.17-16.54-2.62-38.84-3.43-8.57-.31-7.91.25-17.13,0-15.44-.42-38.78-2.57-38.83-5.14-.06-3.13,34.57-6.59,62.82-7.42C238.47,101.31,284.29,100,285.12,106.26Z"/><path class="cls-5" d="M258.4,95.4c-2.6,3.15-8.41,8.79-42.71,12.56-31.5,3.46-47.25,5.19-52.75-2.52-7.6-10.63.29-34.26,15.07-45.22,15.38-11.39,32.25-4.67,37.68-15.07,5.78-11-8.7-27.36-5-30.14,1.79-1.36,6.45,1.56,22.61,15.07,27.06,22.63,29.09,27.11,30.15,30.14C267,70.63,266.62,85.42,258.4,95.4Z"/><path class="cls-6" d="M210.91,101.05,294,32.81c12.37,22.42,8.2,50.12-9.45,66.89C264.93,118.32,232.93,119.39,210.91,101.05Z"/><path class="cls-7" d="M213.29,98.56,251.34,67l39.47-32.75c11,20.54,8.41,46-7.25,61C265.32,112.75,234.81,114.61,213.29,98.56Z"/><path class="cls-8" d="M217.27,97.46,247,71.79l-14.19,32.43a22.66,22.66,0,0,1-15.54-6.76Z"/><path class="cls-9" d="M250.38,69.76l-15.54,34.46a19.77,19.77,0,0,0,16.21,2Q250.72,88,250.38,69.76Z"/><path class="cls-9" d="M251.64,68.45q1.14,18.87,2.27,37.73a19.84,19.84,0,0,0,15.3-5.75Z"/><path class="cls-9" d="M252.89,67.56l19.23,32.54a34.63,34.63,0,0,0,6.48-4.52,35,35,0,0,0,5.56-6.23Z"/><path class="cls-8" d="M289.8,35.86,260.29,61.78l34.07-9.6a22.58,22.58,0,0,0-4.56-16.32Z"/><path class="cls-9" d="M257.81,64.84l36.27-10.65a19.85,19.85,0,0,1-.22,16.34Z"/><path class="cls-9" d="M256.34,65.92l37.06,7.43a19.74,19.74,0,0,1-7.8,14.36Z"/><g class="cls-10"><path class="cls-11" d="M229.07,37.08c-.08.05-.18.22-.08.24l.24-.23Z"/><path class="cls-11" d="M229.16,37.93a1.07,1.07,0,0,0,.6-.48c-.29.18-.22.06-.55.29-.09,0-.05-.18,0-.27-.08.05-.07-.14-.23,0s0,.36.28.29C229.28,37.84,229.2,37.88,229.16,37.93Z"/><path class="cls-11" d="M232,45.21l0-.05A.1.1,0,0,0,232,45.21Z"/><path class="cls-11" d="M231.24,50s0-.06-.05-.08S231.21,50,231.24,50Z"/><path class="cls-11" d="M230.64,50.67l0,0S230.62,50.65,230.64,50.67Z"/><path class="cls-11" d="M232,45.21l-.09.14C232,45.35,232,45.28,232,45.21Z"/><path class="cls-11" d="M230.57,38.17a.24.24,0,0,0-.12,0l.08,0Z"/><path class="cls-11" d="M231.44,43.15v0h-.13Z"/><path class="cls-11" d="M230.88,41.66s.27-.06.39-.1c-.12,0-.18,0-.21,0Z"/><path class="cls-11" d="M230,39.22h0Z"/><path class="cls-11" d="M231.61,44.29l-.1,0Z"/><path class="cls-11" d="M210.21,84.5h-.05S210.21,84.51,210.21,84.5Z"/><polygon class="cls-11" points="209.02 86.48 209 86.45 208.84 86.48 209.02 86.48"/><path class="cls-11" d="M229.75,51.92h0C229.74,51.87,229.74,51.89,229.75,51.92Z"/><path class="cls-11" d="M222,63.79c.3,0,.08.41.46.4C222.36,64.14,222.26,63.74,222,63.79Z"/><path class="cls-11" d="M230.57,38.23l.06.06A.11.11,0,0,0,230.57,38.23Z"/><path class="cls-11" d="M222.46,64.19Z"/><path class="cls-11" d="M228.26,55.08l.12,0Z"/><path class="cls-11" d="M229.88,53l-.06,0A.1.1,0,0,0,229.88,53Z"/><path class="cls-11" d="M227.86,56.46s-.08,0-.07.07h0S227.8,56.47,227.86,56.46Z"/><path class="cls-11" d="M227.05,57.66h.07v0Z"/><path class="cls-11" d="M210.94,80.61a1.17,1.17,0,0,1-.26,0C210.87,80.63,210.86,80.84,210.94,80.61Z"/><path class="cls-11" d="M230.45,38.28c.06,0,.1-.06.12-.05l0,0S230.46,38.25,230.45,38.28Z"/><path class="cls-11" d="M229.68,57.72l-.16.18A.56.56,0,0,0,229.68,57.72Z"/><path class="cls-11" d="M217.07,72.67v.06A.06.06,0,0,0,217.07,72.67Z"/><path class="cls-11" d="M229.16,58.51a.63.63,0,0,0-.24,0s0,0,.05.07Z"/><path class="cls-11" d="M210.68,80.57Z"/><path class="cls-11" d="M210.85,82.1c.06-.18-.33-.19-.52-.29,0-.26.3,0,.5,0-.05-.16-.33-.38-.28-.49s.08,0,.15,0c-.22-.25.15-.45-.12-.76h.1a2,2,0,0,1-.48-.17c0-.09-.15-.25.09-.19,0,.05.06.09.12.15l-.06-.14c.35.06.06.18.29.28,0-.22-.2-.55,0-.64.32.11,0,.36.31.31l-.21.15c.56.06-.09.11.5.2.2-.23,0-.37.19-.59-.14-.14-.26-.1-.4-.25-.1-.53.91.11.66-.37-.16-.18-.52-.42-.21-.51l.29.26c.18-.22-.39-.42,0-.55.1.13,0,.26.05.25.36,0-.11-.23,0-.36l.31.15c.11-.28.1-.7.25-1,.08.07.13.18.26.18.11-.46.59-.72,1-.92l-.13-.31s.15,0,.17.1c.19-.06-.14-.13-.18-.26s.21,0,.24.11c0-.38.14-1,.58-1l0,.11c.25-.1-.26-.61.09-.59V75c.45-.3.66-.91,1.27-.9-.25-.35.5-.24.11-.68.42,0,.43.12.88,0,.1-.06-.14-.38-.09-.52l.22.21-.09-.36.34.18,0-.15c-.05,0-.18,0-.24-.08.05-.25.51-.22.63-.11l.17-.54c.08.09,0,.18.06.29,0-.42.26.19.23-.19-.07,0-.12-.14-.16-.19.22,0,.42-.15.51-.36l.12.18a9.45,9.45,0,0,0,.77-.94c-.18,0-.42-.24-.36-.35l.27.19c-.09-.2-.18,0-.25-.28.14-.09.35.18.36.31l.05-.21c.08.06.09.12.17.22-.1-.2.46,0,.28-.34l.08.06a9.18,9.18,0,0,0,.56-.79c-.21-.19-.07-.25-.17-.48.23-.12.59-.18.77-.42s-.13-.21-.2-.39c.21.16.39-.08.42.16a2.27,2.27,0,0,0,.42-.87c-.11,0-.18,0-.23-.09s.2-.08.29,0v0c0-.64,1.35-.42,1.21-1.08v0l.06-.51c.16-.12.08.22.29.21,0-.63.51-.52.53-1,.78.25.61-.84,1.24-.85l-.16-.09c-.07-.19.16,0,.24-.07-.12-.08-.19,0-.23-.12.36-.82,1.3-1.25,2-1.87.23-.23-.63-.7,0-.77l.2.29c.07-.76.8-1.08.9-1.8,0,.08.12.14.08.19.28,0,.3-.41.14-.52.08-.07.16.08.28.09s-.06-.45.18-.38c0,0,0,.08,0,.11,0-.14.27-.32,0-.41.24-.12.16-.45.4-.52-.18-.27.36-.26,0-.53.36.26.54-.16.44-.4.09.12.19,0,.32.12.09-.15.11-.33-.1-.43.63,0,0-.79.66-.57a8.91,8.91,0,0,1,.31-1.54c.39.24-.22.47.2.69.07-.48-.14-.89.16-1.23.11-.07.14.15.19.22,0-.48.45-.75.4-1.22,0,0,.06.07.08.13s.14-.14,0-.22v.09c-.32,0-.42-.55-.56-.63.48.37.3-.29.88.22a.28.28,0,0,0-.2-.21c.07-.06.15,0,.26.09,0-.31-.23-.3-.12-.54.09,0,.11.11.2.18-.12-.2-.25-.39-.09-.56,0,0,.13,0,.11.1.11-.36-.25-.77.06-1.09.37.26.19-.08.55,0l0-.25-.2,0c.07-.18-.14-.43,0-.55l.1.19,0-.37-.19.15c-.13-.24-.46-.11-.29-.32,0,.05.05-.18.29-.22h0c-.09-.12-.18-.24,0-.36s.39.14.47.13c-.28-.17,0-.46-.28-.65a.7.7,0,0,0,.3.1L232.6,49c.1-.07.14-.08.29,0,.1-.25-.47,0-.22-.28,0,0,.06,0,.09.08.16-.3,0-.63.11-.9.38,0,.06.27.39.22,0-.45-.34-.94-.23-1.34l-.05.07c-.52-.08.28-.29,0-.51,0,.05.29.08.23.06.1-.28-.12-.59-.31-1l.14,0c.12-.18.05-.45.09-.63-.14,0-.13-.15-.32-.06.71-.66-.55-1,0-1.56,0,.05.14.11.13.06l-.21-.38c-.22.09-.13.09-.28.21a.34.34,0,0,1-.3-.19c.2.13.36-.1.46-.21-.07,0-.15,0-.22,0,.34-.32-.45.09-.27-.26l.12,0c-.09-.08-.27-.13-.28-.25.24-.13.16.07.37,0-.07-.16-.59-.14-.39-.37.1,0,.13.13.23.18.24-.26.15-.26.16-.39h0l0-.32-.06.1c-.72.07-.29-.35-.82-.42.5.06.25-.06.53-.18,0-.1.08-.24.17-.25-.28,0,.06-.3-.35-.31.09,0-.06-.13.17-.22-.15-.13-.13.12-.24.16-.41-.07,0-.78-.6-.86-.36-.17-.66,0-1-.15,0-.18.32-.16.32-.16,0-.22-.1-.3-.29-.35.09,0,.12-.1.17-.21-.11-.08-.32.18-.33,0a2.09,2.09,0,0,1,.37-.17,5.77,5.77,0,0,0-.58-.08c.08-.15.24-.12.37-.16-.19-.07-.46-.21-.67,0V38c-.05,0,.13-.19.2-.2.26,0,.1.22,0,.3l-.13,0c-.31.49.39.23.51.43l-.36.21.4-.06c-.05.11-.2.28-.32.25,0,.24.2,0,.12.24,0,0,0,0-.06,0l.19,0c-.09,0-.22.2-.23.1,0,.35.5.14.31.41h0c.33.21.27-.15.72-.12l-.53.57.28-.13a.12.12,0,0,1-.08.16c.25,0,.1-.09.31-.12-.13.29.36.38,0,.65.23-.06.07-.24.31-.15-.44.3.19.16.05.42-.27.07-.21-.13-.35.12.45-.1,0,.33.17.42.34-.14.26.21.45.39-.12,0,0,.47-.11.71h-.06c.36-.06.36.17.48.31a.61.61,0,0,1-.43,0l0,.14a.27.27,0,0,1,.26.12l-.28,0c.06.18.41.31.28.6.25,0,.66-.34.88-.08-.14,0-.37.08-.44,0s.13.06.08.12l-.25-.07c-.08.14.2,0,.2.13-.2,0-.13.09-.29.1s.07-.09,0-.11a.45.45,0,0,1-.25.31c.1,0,.26,0,.3,0s-.23.1-.32.23c.14,0,0,.17.31.14,0,.06-.13.08-.21.11.14.09.08.48.39.34l0,0v0h0c.31.33-.13.72,0,1.06H232c.11.21.05.46.25.62,0,.06-.19.13-.3.09.06.16.17.19,0,.4-.16-.17-.16,0-.11-.17-.1.19-.27.21,0,.46-.24-.11-.34.1-.27.2l.19-.11a.41.41,0,0,1,0,.29l-.32-.1c-.47.31.54.85-.19,1,.2.16.2-.18.45,0-.09.18-.6.26-.61.31-.25.2.41.35.21.58.12,0,.44.06.49.29-.1.17-.55.08-.6-.06a.06.06,0,0,1,.08,0c0-.07-.05-.16-.19-.12l.11.06c-.15,0-.22.3-.38.18.06.17.16.12.26,0-.24.17-.12.35-.32.55.08,0,.22,0,.21,0-.27.3.16.23.12.49-.22.07-.39-.2-.33.08-.18.1-.31-.08-.38-.17.13.29-.3.33-.38.43l0-.14a.24.24,0,0,1,0,.19l.24,0c-.06,0-.09.1-.18.06.12.13.39.1.52.32-.15,0,0,.32-.3.22.22-.23-.3-.1-.24-.35a.15.15,0,0,1-.08.16.06.06,0,0,1-.06-.06c-.38.14.27.26.14.53-.14-.11-.33-.09-.32,0,.05-.1.29.08.37.23-.21.11,0,.23-.06.32l.11-.08c.14.12.08.19.07.34-.13,0,0-.15-.1-.14.21.28-.45.15-.35.43-.15,0-.3-.15-.41-.11.1.31-.33.1-.28.4.24,0,.2,0,.32.28l0-.43.18.39c.06-.11,0-.3.06-.34.11.2.06.16.27.2-.4,0,0,.39-.28.44l-.52-.29c-.36.12,0,.59-.3.84l.15,0c.18.16-.09.21-.07.36a.7.7,0,0,0-.4-.1c.13.07-.15.23.17.46h-.31c-.25.2.29.59.08.8-.13-.19-.32-.15-.35-.4-.05.08-.13.13,0,.21-.13,0,.08.37-.13.34.05.09.22.21.15.29a.21.21,0,0,1-.08,0c.08,0,0,.22.25.26-.68-.09-.44.73-1,.64a2.6,2.6,0,0,1-.27.63s-.08,0,0-.07c-.3.11.37.46,0,.59-.35,0-.05-.23-.21-.22-.55-.34-.13.35-.56.3v-.06c-.27,0,0,.45-.21.63a.15.15,0,0,0-.07,0,1.26,1.26,0,0,1,0,.92c-.16-.21,0-.17-.28-.29,0,.12.36.22.28.45a1.17,1.17,0,0,1-.58-.12l.11-.18c-.35-.12-.14.23-.26.28l-.12-.1c-.15.28.16.52-.06.78l.11,0c.2.38-.27,0-.15.32l-.35-.19a2.73,2.73,0,0,1,0,.79,2.25,2.25,0,0,1-.15-.81c-.08.1-.23.35-.12.52,0-.06,0-.17,0-.17a.64.64,0,0,1,0,.75c-.58-.5-.54.38-1.12.15,0,.52-.63.6-.91,1,.58.23-.08.12.42.48-.05.12-.08.15-.12.13l-.51,0c-.19,0,0-.17-.15-.25-.19.17-.26-.08-.5,0,.2.11.19.26,0,.32l.35,0c0,.48-.59-.1-.58.39l-.07-.21c0,.21-.44.51-.18,1-.08,0-.23-.1-.22-.19-.33.29-.24,1.09-.7,1.15l-.09-.12c0,.09.12.29-.06.27s-.09-.13-.12-.1.05.33-.09.36l-.06-.18c-.44.19-.14.76-.31,1.1a.68.68,0,0,0-.82-.06l0,0c-.38.33-.31.87-.5,1.33-.55-.12-.82.58-1.34.72.11,0,.24.25.22.34s0,.43-.27.13l0,0c-.34-.22-.42,0-.55.13l.35.39c-.86-.21-.64,1.06-1.31.75,0,.18-.09.27-.07.45l-.2-.21a1.69,1.69,0,0,0-.62.58L214,72c-.17.15.39.77.26.93l-.35-.25c-.25.27-.79.3-.77.84,0,0-.13-.14-.1-.19-.13.12-.69.32-.21.66-.28-.25-.29.28-.31.54l-.18-.2c.15.36.22.43.13.68-.06,0-.2-.11-.09-.12-.24,0,.1.29-.16.37l-.09-.18c-.14.14-.06.19,0,.4s-.29.25-.5.12c.1.12.19.33.07.38a.23.23,0,0,1-.12-.16c-.36.15,0,.6-.4.62a.25.25,0,0,0-.16-.07c.17-.21.31-.38.31-.35-.2-.15-.37,0-.55-.36,0,.26.21.75,0,.85a.19.19,0,0,1-.09,0v0a.11.11,0,0,0,0,.13c-.08,0-.13,0-.17.1-.19-.1-.24.15-.3.24.23.15.12.24.39.26,0,0,0,0,0-.11s0,0,0,0l0,0a1.42,1.42,0,0,1,.13-.23c.07.15.12.29-.07.3l.29.38c-.41-.1-.74,0-1-.06,0,.36-.32.74,0,1.18,0,.11-.18,0-.27,0s0-.13,0-.19c0,.23-.22.53.09.73-.25.14-.25-.27-.33,0l-.09-.09c-.82.36.44,1.32-.5,1.71a.21.21,0,0,1,.15,0c-.59.68-.17,1.66-.8,2.37-.13.22.1.28.26.43l-.3,0,.33.27c.23.33-.77.57-.28,1l.2-.07c0,.16.15.48-.09.47,0,0,.21,0,.11.11h-.15l.31.35c-.07.31-.64,0-.59.49.09.16.54.37.63.29a.27.27,0,0,1,.22-.22l.11.12c.46-.07.94-.09,1.2-.44l-.31-.16.21-.1,0,.17c.19-.14,0-.16-.14-.21a.65.65,0,0,0,.24-.12l-.47-.15c.18,0,.37,0,.45-.1-.21-.07-.39.14-.55,0,.2-.12.38-.1.19-.21a.31.31,0,0,1,.25,0c-.14-.1-.07-.27-.32-.32.25-.11-.07-.36.37-.34-.11,0-.35-.19-.36-.29.51.2,0-.37.61-.28-.47-.16-.16-.48-.39-.74,0,0,.11,0,.08.07s.21-.14.31-.2c-.38-.09-.44-.31-.64-.47.4-.08.42.19.79.21-.31,0-.25-.33-.52-.34a.77.77,0,0,1,.47-.06c-.47-.14-.06-.14-.32-.31.28-.11.46.08.37-.15C210.73,81.89,210.85,82.1,210.85,82.1Zm1.38-4.63h0l0,.09Zm.24-.34-.11.14c-.09,0-.16-.12-.13-.15S212.37,77.13,212.47,77.13Zm-2.12-.37c0-.09.06-.07.12-.05a.59.59,0,0,0-.05.13l0,0Z"/><path class="cls-11" d="M210.58,77.07v0h.08L210.6,77Z"/><path class="cls-11" d="M232.08,45.15h0l0,0Z"/><polygon class="cls-11" points="216.82 73.11 216.77 73.06 216.79 73.13 216.82 73.11"/><path class="cls-11" d="M232.62,42.61l.06-.06A.17.17,0,0,0,232.62,42.61Z"/><path class="cls-11" d="M232.34,41.55l0-.19A.58.58,0,0,0,232.34,41.55Z"/><path class="cls-11" d="M232.14,40.71l-.12,0h0Z"/><path class="cls-11" d="M231.6,53.75a0,0,0,0,0,0,0C231.61,53.87,231.61,53.82,231.6,53.75Z"/><path class="cls-11" d="M232.39,49.86a.7.7,0,0,1,.1.16C232.53,50,232.55,49.91,232.39,49.86Z"/><polygon class="cls-11" points="229.7 57.7 229.7 57.7 229.68 57.72 229.7 57.7"/><path class="cls-11" d="M232.43,50.19a.13.13,0,0,0,.06-.17A.18.18,0,0,0,232.43,50.19Z"/><path class="cls-11" d="M230,37.59l0,0,0,0Z"/><path class="cls-11" d="M230,37.59h-.05S230,37.61,230,37.59Z"/><path class="cls-11" d="M229.8,37.57h.12S229.87,37.52,229.8,37.57Z"/><path class="cls-11" d="M230.74,38.52l.09-.06Z"/><path class="cls-11" d="M231,38.78c0-.08.05-.31-.08-.36l-.07,0C231,38.41,230.8,38.82,231,38.78Z"/><path class="cls-11" d="M230.7,40.61l-.06-.27c-.07.1-.17.22-.25.14C230.28,40.91,230.57,40.29,230.7,40.61Z"/><path class="cls-11" d="M230.91,41.38c-.1-.1-.14.07-.2.09C230.84,41.5,230.87,41.51,230.91,41.38Z"/><path class="cls-11" d="M231.84,47l-.25,0C231.62,47,231.69,46.93,231.84,47Z"/><polygon class="cls-11" points="233.01 48.26 233.19 48.17 232.97 48.08 233.01 48.26"/><polygon class="cls-11" points="231.1 48.58 231.07 48.53 231.13 48.72 231.1 48.58"/><path class="cls-11" d="M227,57.31l.28.15C227.27,57.37,227,57.16,227,57.31Z"/><path class="cls-11" d="M224.73,61c-.16-.06-.31,0-.23.13C224.57,61.09,224.73,61.08,224.73,61Z"/><polygon class="cls-11" points="215.85 70.51 215.83 70.37 215.78 70.55 215.85 70.51"/></g><g class="cls-10"><path class="cls-11" d="M210.25,53.94c-.07,0-.26-.1-.25,0l.3.15Z"/><path class="cls-11" d="M209.52,54.14a1.26,1.26,0,0,0,.65.38c-.27-.19-.14-.16-.46-.37,0-.07.14-.07.25,0-.07-.05.11-.07-.08-.17s-.32.08-.16.27A.53.53,0,0,1,209.52,54.14Z"/><path class="cls-11" d="M205.6,58.88h.05A0,0,0,0,0,205.6,58.88Z"/><path class="cls-11" d="M202.5,61a.08.08,0,0,0,0-.09S202.47,61,202.5,61Z"/><path class="cls-11" d="M201.76,61.07h0S201.75,61,201.76,61.07Z"/><path class="cls-11" d="M205.6,58.88h-.15C205.52,59,205.55,58.89,205.6,58.88Z"/><path class="cls-11" d="M209.9,55.28a.14.14,0,0,0-.05-.09v.06Z"/><path class="cls-11" d="M206.55,57.51l0,0-.08-.1Z"/><path class="cls-11" d="M207.29,56.5s.2.19.29.27c-.09-.08-.12-.13-.12-.16Z"/><path class="cls-11" d="M208.74,55.05v0Z"/><path class="cls-11" d="M205.9,58.12l-.08-.06Z"/><path class="cls-11" d="M180.58,80.64h-.05S180.58,80.65,180.58,80.64Z"/><polygon class="cls-11" points="179.3 82.17 179.28 82.15 179.13 82.17 179.3 82.17"/><path class="cls-11" d="M200.57,61.34h0S200.58,61.31,200.57,61.34Z"/><path class="cls-11" d="M190.57,66c.22.18-.06.38.23.55C190.74,66.41,190.78,66,190.57,66Z"/><path class="cls-11" d="M209.85,55.3l0,.05A.06.06,0,0,0,209.85,55.3Z"/><path class="cls-11" d="M190.8,66.5h0Z"/><path class="cls-11" d="M198.24,62.69a.86.86,0,0,0,.07.1Z"/><path class="cls-11" d="M200.23,62.16h-.06S200.22,62.17,200.23,62.16Z"/><path class="cls-11" d="M197.43,63.48s-.06,0-.08,0l0,0S197.38,63.45,197.43,63.48Z"/><path class="cls-11" d="M196.4,63.92l0,0,0,0Z"/><path class="cls-11" d="M181,77.69l-.25,0C180.91,77.7,180.93,77.86,181,77.69Z"/><path class="cls-11" d="M209.76,55.21c.06,0,.08.06.09.09v0Z"/><path class="cls-11" d="M198.26,65.54l-.18,0A.38.38,0,0,0,198.26,65.54Z"/><path class="cls-11" d="M185.27,71.71v.05S185.28,71.75,185.27,71.71Z"/><path class="cls-11" d="M197.6,65.82a.47.47,0,0,0-.17-.14.28.28,0,0,0,0,.08Z"/><path class="cls-11" d="M180.72,77.65Z"/><path class="cls-11" d="M181.06,78.83c.05-.14-.33-.15-.53-.23s.29,0,.49,0c-.07-.13-.38-.3-.34-.38a.28.28,0,0,1,.15,0c-.25-.2.09-.34-.21-.6l.1,0a2.89,2.89,0,0,1-.49-.15c0-.07-.18-.21.06-.15,0,0,.07.08.13.12l-.07-.11c.35.06.08.14.32.23-.06-.17-.27-.44-.14-.51.32.1,0,.29.35.25l-.18.12c.55.06-.06.08.51.17.17-.17-.09-.29.1-.45-.16-.12-.27-.1-.42-.22-.18-.43.88.12.56-.27-.18-.15-.56-.36-.28-.41l.32.22c.13-.17-.43-.36-.1-.45.12.11,0,.21.09.2.34,0-.14-.19-.09-.29l.31.14a6.12,6.12,0,0,1,.06-.83c.08.07.15.16.27.17,0-.37.41-.56.75-.69l-.17-.27s.14,0,.17.09-.15-.11-.21-.23.19,0,.23.11c-.07-.31,0-.81.36-.79l0,.09c.19-.07-.33-.55,0-.5l0,.06c.35-.21.45-.71,1-.61-.25-.34.4-.13,0-.58.37.07.4.19.76.13.08,0-.16-.36-.12-.48l.21.23-.11-.34.3.23,0-.12a.33.33,0,0,1-.21-.12c0-.21.43-.07.53,0l.12-.43a.74.74,0,0,1,.06.27c0-.37.22.24.18-.1-.06,0-.1-.16-.14-.21a.3.3,0,0,0,.42-.16l.1.19c.24-.11.39-.41.64-.57-.14,0-.32-.34-.27-.42l.21.25c-.06-.2-.14-.05-.18-.32.12,0,.27.27.27.39l0-.17a2,2,0,0,1,.12.25c-.06-.2.37.14.25-.19l.06.07c.26-.15.32-.32.52-.46-.14-.24,0-.24-.08-.47.21,0,.49.08.67,0s-.07-.23-.09-.41c.13.22.31.09.3.31a1.42,1.42,0,0,0,.48-.55c-.08-.07-.14-.09-.16-.18s.17,0,.22.14v0c.16-.51,1.11.28,1.14-.33v0l.17-.39c.15,0,0,.21.16.31.13-.53.51-.17.65-.54.51.6.68-.36,1.15,0l-.09-.16c0-.19.13.06.19.07s-.13-.11-.13-.22c.51-.45,1.33-.27,2-.37.24,0-.22-.91.23-.63l0,.34c.31-.55.94-.37,1.27-.86,0,.08,0,.17,0,.19.19.18.36-.14.28-.32.08,0,.09.16.17.23s.12-.38.26-.18c0,0,0,.08,0,.11,0-.13.3-.09.13-.32.22,0,.28-.25.48-.16,0-.32.35,0,.21-.4.16.42.44.21.46,0,0,.14.15.09.18.28a.25.25,0,0,0,.09-.39c.44.4.27-.59.68,0a5.55,5.55,0,0,1,.81-.94c.18.41-.34.22-.13.64.24-.32.24-.76.6-.8.1,0,0,.19,0,.27.22-.31.61-.26.76-.62a.17.17,0,0,1,0,.14c.05,0,.16,0,.06-.18l0,.07c-.22-.22-.08-.65-.15-.8.19.57.33,0,.55.72a.41.41,0,0,0-.06-.28c.07,0,.12.07.14.23.14-.2,0-.35.14-.44.05.08,0,.14.07.25,0-.22,0-.43.17-.44,0,.06.07.11,0,.14.23-.17.15-.69.51-.69.15.42.17.07.38.38l.08-.18-.15-.12c.12-.07.09-.37.26-.34v.19l.19-.21-.21,0c0-.24-.26-.39-.05-.41,0,0,.12-.07.31.07h0c0-.14,0-.28.12-.26s.22.35.28.41c-.12-.3.23-.27.11-.59a1,1,0,0,0,.16.27l-.09-.24c.1,0,.13.05.21.18.19-.08-.33-.35,0-.32,0,0,0,.06,0,.11.27,0,.28-.41.53-.44.28.26-.1.19.15.4.22-.25.26-.76.55-.89h-.07c-.31-.43.34.06.3-.23a.59.59,0,0,0,.13.2c.22-.07.24-.39.36-.73l.07.13c.17,0,.29-.17.43-.22-.06-.12,0-.16-.16-.27.84.24.26-.85,1-.69,0,0,0,.16,0,.13l.12-.32c-.19-.13-.14-.06-.31-.13s-.1-.25-.05-.31c0,.2.28.24.42.28-.06,0-.11-.11-.17-.15.42.14-.34-.32,0-.31l.09.09c0-.11-.08-.27,0-.32.23.14,0,.15.21.29.06-.11-.25-.51,0-.43,0,.08,0,.15,0,.23.32.1.27,0,.36,0h0l.25-.09h-.1c-.46-.54.09-.34-.16-.78.24.42.18.17.42.36.1,0,.23,0,.29,0-.15-.23.25,0,0-.36.08,0,.07-.09.26.06,0-.15-.16-.06-.26-.14-.16-.34.6-.21.36-.7,0-.32-.3-.51-.35-.79.17,0,.29.22.29.22.18,0,.2-.15.15-.31a.42.42,0,0,0,.26.08c0-.1-.29-.21-.11-.26a1.85,1.85,0,0,1,.32.25c0-.15-.15-.32-.18-.46.17,0,.21.16.29.25a.58.58,0,0,0-.24-.53l-.12,0c0-.05.22.07.25.12s-.14.12-.24.09l0-.11c-.55-.14-.06.34-.16.49l-.35-.24.24.3c-.11,0-.33-.1-.35-.2-.24,0,.09.16-.16.15a.12.12,0,0,1-.07,0l.07.16c-.07-.06-.27-.12-.19-.15-.29.07.12.43-.19.35v0c0,.31.25.17.46.54l-.73-.26.25.18s-.07.06-.17,0c.13.2.12.05.26.21-.3,0-.1.39-.52.16.16.17.22,0,.27.2-.46-.26,0,.19-.29.16s0-.2-.29-.23c.34.32-.21.15-.2.28.29.22,0,.27,0,.49-.09-.09-.36.14-.57.18l0,0c.26.26.1.35.07.49a.65.65,0,0,1-.24-.34l-.08.09a.3.3,0,0,1,.08.25l-.19-.2c-.09.12,0,.46-.24.47.18.19.64.37.61.64-.11-.08-.28-.24-.28-.32s0,.13,0,.11l-.11-.22c-.13,0,.11.17,0,.21-.14-.14-.14-.06-.24-.18s.1,0,.07-.06a.47.47,0,0,1-.37-.06c.09.07.19.19.17.25s-.21-.13-.34-.14c.07.13-.1.09.1.31,0,0-.13-.06-.2-.11,0,.15-.25.28,0,.45h0v0h0c0,.39-.51.26-.63.51l-.07-.07c0,.19-.22.27-.17.51,0,0-.2-.07-.26-.17-.05.13,0,.23-.23.21,0-.21-.13-.1,0-.18-.18,0-.3-.07-.27.24-.11-.23-.28-.18-.3-.08l.2.08a.33.33,0,0,1-.19.14l-.16-.29c-.48-.14-.07.89-.65.47.06.24.23,0,.33.31-.15,0-.54-.26-.58-.24-.26,0,.12.51-.13.52.09.08.28.33.21.51s-.42-.32-.4-.45.06,0,.08,0a.15.15,0,0,0-.08-.21l.05.11c-.12-.06-.28,0-.35-.14,0,.16.07.19.17.2-.25,0-.25.16-.48.16.06,0,.16.14.13.16-.32,0,0,.25-.13.4-.19-.1-.19-.39-.27-.16-.17,0-.19-.26-.19-.37,0,.29-.36,0-.47,0l0-.13c0,.07-.05.09-.09.12l.16.18c-.07,0-.11,0-.16-.08,0,.16.23.33.24.56-.12-.07-.13.23-.31,0,.26,0-.17-.26,0-.4q0,.07-.12.06a.13.13,0,0,1,0-.08c-.32-.15.09.36-.12.46-.06-.17-.2-.27-.21-.22s.17.24.16.4c-.19-.06-.09.16-.17.18l.11,0c.06.17,0,.19-.08.28-.08-.12,0-.12,0-.16.05.33-.37-.17-.41.09-.12-.08-.16-.3-.25-.34-.06.29-.28-.14-.36.12.15.19.13.13.12.4l.2-.29,0,.4c.09,0,.11-.22.18-.21,0,.22,0,.16.11.32-.27-.27-.13.3-.37.14l-.25-.53c-.31-.15-.22.44-.55.43l.13.05c.06.23-.15.11-.19.23a1,1,0,0,0-.25-.32c.07.13-.19.08-.06.45l-.22-.19c-.25,0,0,.62-.25.65,0-.22-.17-.31-.09-.51-.07,0-.15,0-.1.15-.09-.1-.08.32-.22.18,0,.09.08.29,0,.3a.2.2,0,0,1,0-.09c0,.09-.07.18.08.35-.45-.48-.58.29-1-.12a1.61,1.61,0,0,1-.42.33c0-.06,0-.09,0-.08-.26-.09.1.57-.2.47-.23-.25.05-.21-.06-.29-.28-.59-.23.19-.52-.1l0-.05c-.19-.16-.18.34-.38.37a.29.29,0,0,0,0-.09,1,1,0,0,1-.34.71c0-.26,0-.16-.1-.38-.07.06.18.37,0,.5-.1-.11-.26-.17-.38-.42l.15-.08c-.21-.3-.19.09-.29.07l-.05-.15c-.21.14-.07.5-.32.58l.07.1c0,.41-.2-.16-.22.16l-.19-.35a2.7,2.7,0,0,1-.3.62,2,2,0,0,1,.16-.73c-.09,0-.29.15-.26.35,0,0,0-.16.09-.12,0,.33-.08.53-.25.6-.27-.72-.53,0-.89-.48-.2.39-.67.15-1,.35.37.49-.1.06.17.61-.07.07-.1.08-.13.05l-.4-.22c-.13-.14,0-.16,0-.28-.2,0-.18-.21-.37-.3.11.19.06.32-.08.29l.27.19c-.12.41-.44-.37-.57,0V66c-.09.16-.5.22-.42.73,0-.05-.15-.19-.11-.25-.36.09-.47.81-.85.67l-.05-.15c0,.07,0,.31-.11.21s-.05-.14-.08-.14,0,.32-.15.28V67.2c-.41,0-.27.61-.47.84a.67.67,0,0,0-.68-.37l0,0c-.38.17-.41.66-.63,1-.45-.27-.77.26-1.23.27a.45.45,0,0,1,.16.36c-.12,0,0,.39-.24.06h0c-.29-.28-.39-.09-.51,0l.31.44c-.77-.37-.58.82-1.17.44,0,.16-.07.23,0,.39l-.19-.21a1,1,0,0,0-.54.44l-.09-.19c-.14.12.41.74.31.86l-.33-.26c-.21.21-.7.2-.61.68,0,0-.13-.13-.11-.18-.11.1-.6.24-.12.57-.29-.24-.23.23-.2.46l-.2-.2c.19.33.27.4.23.61-.06,0-.21-.11-.11-.11-.21,0,.13.25-.09.3l-.11-.16c-.11.12,0,.16.1.36s-.23.19-.45.07c.11.1.23.29.12.32a.31.31,0,0,1-.13-.13c-.31.1.06.5-.27.5a.29.29,0,0,0-.15-.06c.11-.18.21-.31.22-.29-.21-.14-.34,0-.56-.33.08.23.32.65.13.73l-.09,0,0,0s0,.06,0,.11-.11,0-.14.08c-.19-.09-.2.11-.25.18.25.14.16.21.41.23,0,0,0,0,0-.08s0,0,0,0l0,0a1.54,1.54,0,0,1,.09-.19c.09.13.16.25,0,.25.14.13.28.26.34.33-.39-.1-.68,0-.91-.08,0,.3-.2.6.22,1,0,.09-.17,0-.25,0s0-.1-.07-.16c.07.19-.13.43.2.6-.23.1-.27-.23-.32,0l-.09-.07c-.73.28.6,1.06-.26,1.35a.22.22,0,0,1,.14,0c-.5.54,0,1.3-.58,1.85-.12.17.12.21.29.33l-.31,0,.33.2c.23.25-.74.44-.26.78l.21,0c0,.12.12.36-.11.36,0,0,.21,0,.11.08h-.16l.31.27c-.09.23-.63,0-.62.37.07.12.49.29.59.22s.09-.14.24-.16l.09.09a2.18,2.18,0,0,0,1.24-.34l-.3-.12.22-.08,0,.13c.2-.1,0-.13-.13-.17a.46.46,0,0,0,.24-.09l-.46-.11c.18,0,.37,0,.46-.08-.22-.05-.4.11-.55,0,.2-.09.37-.08.19-.16a.36.36,0,0,1,.25,0c-.14-.07-.06-.2-.31-.24.26-.09-.07-.27.37-.27-.11,0-.35-.14-.37-.22.52.15.05-.27.61-.21-.46-.12-.18-.36-.43-.56,0,0,.11,0,.09,0s.19-.1.29-.15c-.38-.07-.45-.23-.67-.36.4-.06.44.15.81.17-.32,0-.28-.26-.55-.27a.93.93,0,0,1,.46,0c-.48-.11-.07-.1-.35-.24.26-.08.45.06.34-.11A.36.36,0,0,1,181.06,78.83Zm.62-3.61h0a.24.24,0,0,1,0,.07A.41.41,0,0,1,181.68,75.22Zm.16-.28a1,1,0,0,0-.08.11c-.08,0-.16-.1-.14-.13S181.75,74.94,181.84,74.94Zm-2-.4c0-.07.05-.06.1,0s0,.06,0,.1l0,0Z"/><path class="cls-11" d="M180.07,74.81a0,0,0,0,1,0,0h.07l-.06-.06Z"/><path class="cls-11" d="M205.66,58.88h0l0,0Z"/><polygon class="cls-11" points="185.09 72.05 185.05 71.99 185.07 72.06 185.09 72.05"/><path class="cls-11" d="M207.64,58.21l.07,0Z"/><path class="cls-11" d="M208.2,57.6l.16,0A.45.45,0,0,0,208.2,57.6Z"/><path class="cls-11" d="M208.69,57.16l-.09-.07h0Z"/><path class="cls-11" d="M201.14,63.81v0C201.1,63.91,201.13,63.87,201.14,63.81Z"/><path class="cls-11" d="M203.37,61.74a.76.76,0,0,1,0,.16C203.42,61.89,203.46,61.88,203.37,61.74Z"/><polygon class="cls-11" points="198.28 65.53 198.28 65.53 198.26 65.54 198.28 65.53"/><path class="cls-11" d="M203.24,62c.08,0,.11,0,.12-.08S203.26,61.92,203.24,62Z"/><path class="cls-11" d="M210.16,54.76l0,0,0,0Z"/><path class="cls-11" d="M210.14,54.71v0S210.12,54.69,210.14,54.71Z"/><path class="cls-11" d="M210.09,54.57l0,.1S210.16,54.62,210.09,54.57Z"/><path class="cls-11" d="M209.68,55.49l.09,0Z"/><path class="cls-11" d="M209.6,55.74c0-.05.26,0,.24-.15l-.07-.05C209.89,55.65,209.47,55.61,209.6,55.74Z"/><path class="cls-11" d="M208,56l.17-.13c-.11,0-.26-.06-.24-.15C207.52,55.77,208.16,55.81,208,56Z"/><path class="cls-11" d="M207.51,56.43c0-.12-.13-.09-.17-.13C207.38,56.41,207.39,56.44,207.51,56.43Z"/><path class="cls-11" d="M204.46,59.63l-.15-.21C204.27,59.51,204.37,59.5,204.46,59.63Z"/><polygon class="cls-11" points="204.57 61.22 204.73 61.29 204.63 61.08 204.57 61.22"/><polygon class="cls-11" points="203.08 60.04 203.09 59.99 203.03 60.14 203.08 60.04"/><path class="cls-11" d="M196.49,63.61l.14.28C196.66,63.82,196.54,63.49,196.49,63.61Z"/><path class="cls-11" d="M193.52,65.17c-.1-.13-.22-.19-.22,0C193.38,65.14,193.5,65.23,193.52,65.17Z"/><polygon class="cls-11" points="184.17 69.53 184.16 69.41 184.11 69.56 184.17 69.53"/></g><g class="cls-10"><path class="cls-11" d="M243.74,45.67c-.06.06-.16.23-.12.21l.2-.26Z"/><path class="cls-11" d="M243.55,46.28a3.18,3.18,0,0,0,.45-.6c-.2.25-.14.14-.37.43,0,0,0-.11.09-.21-.05.07,0-.08-.12.08s-.08.27.07.12C243.64,46.16,243.58,46.23,243.55,46.28Z"/><path class="cls-11" d="M245.22,48.21l0,0Z"/><path class="cls-11" d="M246.21,49.38l-.06,0S246.19,49.41,246.21,49.38Z"/><path class="cls-11" d="M246.13,49.82v0S246.11,49.83,246.13,49.82Z"/><path class="cls-11" d="M245.22,48.21l0,.1C245.26,48.24,245.22,48.24,245.22,48.21Z"/><path class="cls-11" d="M244.29,45.82l-.07.06,0,0Z"/><path class="cls-11" d="M244.54,48h0l-.09.1Z"/><path class="cls-11" d="M244.11,47.71l.25-.3a.8.8,0,0,1-.14.14Z"/><path class="cls-11" d="M243.74,46.83l0,0Z"/><path class="cls-11" d="M244.78,48.26l-.06.08Z"/><path class="cls-11" d="M253.69,60.13h0Z"/><polygon class="cls-11" points="252.4 60.94 252.38 60.94 252.23 60.95 252.4 60.94"/><path class="cls-11" d="M246.18,50.41h0S246.16,50.42,246.18,50.41Z"/><path class="cls-11" d="M248.84,53.69c.19-.17.32-.1.52-.3C249.27,53.45,249,53.55,248.84,53.69Z"/><path class="cls-11" d="M244.28,45.86h0S244.29,45.85,244.28,45.86Z"/><polygon class="cls-11" points="249.36 53.39 249.36 53.39 249.38 53.37 249.36 53.39"/><path class="cls-11" d="M247,51.1l.09-.09A.73.73,0,0,0,247,51.1Z"/><path class="cls-11" d="M246.79,50.23l0,0S246.79,50.23,246.79,50.23Z"/><path class="cls-11" d="M247.57,51.17s0,0,0,0l0,0S247.55,51.21,247.57,51.17Z"/><path class="cls-11" d="M247.84,51.52l0,0h0Z"/><path class="cls-11" d="M253.29,58.71l-.24.08C253.25,58.74,253.33,58.79,253.29,58.71Z"/><path class="cls-11" d="M244.2,46c0-.05.06-.08.08-.09h0Z"/><path class="cls-11" d="M249.33,49.82l0,.08A.08.08,0,0,0,249.33,49.82Z"/><path class="cls-11" d="M252.24,55.43h0S252.28,55.42,252.24,55.43Z"/><path class="cls-11" d="M249.52,50.06a1.07,1.07,0,0,0-.13.15l.06,0Z"/><path class="cls-11" d="M253.05,58.79Z"/><path class="cls-11" d="M253.8,59.15c0-.07-.36,0-.57.06s.26-.09.44-.16c-.11,0-.45,0-.44,0l.15,0c-.3,0,0-.17-.42-.15l.09,0-.49.12s-.24,0,0-.07c0,0,.09,0,.17,0h-.11c.33-.1.13,0,.38,0-.13,0-.42-.05-.34-.12.33-.08.14.09.42,0l-.11.1c.51-.17,0,.06.52-.12.07-.12-.19-.08-.12-.2-.19,0-.27.07-.46.09-.37-.06.8-.31.33-.31-.22,0-.64.12-.44,0l.38-.07c0-.1-.55.09-.33-.08s.15,0,.19,0c.27-.14-.23,0-.24,0l.33-.1c-.08-.09-.35-.14-.44-.24a1,1,0,0,0,.3-.08c-.2-.1,0-.32.1-.52l-.29,0s.12-.07.18-.07-.18,0-.3.06.15-.09.24-.1c-.27,0-.6-.1-.33-.3h.09c.08-.11-.6.11-.37,0h.06c.06-.21-.25-.3.12-.58-.41.12.11-.23-.44,0,.23-.2.34-.21.47-.41,0,0-.36.08-.43.06l.28-.11-.32,0,.33-.16h-.09a.55.55,0,0,1-.2.11c-.15,0,.14-.23.29-.29l-.3-.06a.8.8,0,0,1,.24,0c-.32,0,.3-.14,0-.11a1.09,1.09,0,0,1-.23.09c.16-.11.12-.19,0-.22l.21-.07c0-.14-.2-.2-.25-.32a1.06,1.06,0,0,1-.46.2l.29-.15c-.2.06-.1.09-.35.14a1.06,1.06,0,0,1,.44-.2h-.13l.25-.09c-.19.06.26-.24-.08-.13l.09,0c-.05-.13-.18-.13-.24-.23-.26.12-.22,0-.44.12,0-.11.21-.28.14-.36s-.22.09-.39.13c.23-.11.17-.19.35-.23-.09-.08-.11-.11-.36-.14a1.67,1.67,0,0,1-.2.13c-.05,0,.06-.11.18-.16h0c-.41,0,.49-.69,0-.55h0l-.31,0c0-.08.19-.06.3-.18-.45.08-.06-.23-.37-.2.6-.46-.22-.26.13-.62l-.15.1c-.16.06.07-.09.09-.13s-.11.11-.21.15c-.32-.13-.09-.62-.11-1,0-.12-.8.46-.52.11l.29-.15c-.44,0-.23-.37-.63-.34.07,0,.15-.09.16-.08.17-.17-.08-.14-.24,0,0,0,.14-.11.21-.19s-.32.1-.14-.06a.14.14,0,0,1,.09,0c-.11,0-.06-.13-.26.06.06-.14-.19,0-.09-.2-.27.16,0-.19-.32.06.36-.27.21-.33,0-.24.12-.07.08-.12.25-.22-.05,0-.14,0-.32.12.36-.41-.47.12,0-.36a2.05,2.05,0,0,1-.69,0c.35-.28.14.1.5-.21-.24,0-.58.2-.59,0s.16-.11.23-.15c-.23,0-.15-.23-.42-.16a.67.67,0,0,1,.11-.07s0-.08-.14.06l.06,0a3.72,3.72,0,0,1-.65.44c.46-.36,0-.19.62-.64a1.09,1.09,0,0,0-.22.16s.07-.1.2-.19c-.15,0-.28.18-.33.12a1.73,1.73,0,0,1,.2-.15c-.17.1-.34.2-.32.09s.09-.09.11-.08-.51.21-.46,0c.34-.27.07-.13.34-.39l-.13,0-.11.14s-.27.11-.22,0l.14-.08-.13,0,0,.15c-.18.09-.33.33-.32.2s0,0,.1-.22h0c-.1.07-.21.14-.18,0s.3-.29.35-.35c-.24.2-.16,0-.42.18l.23-.22-.2.16a.71.71,0,0,1,.18-.21c0-.09-.32.36-.24.14,0,0,0,0,.08-.05s-.25,0-.22-.17c.23-.3.12,0,.31-.27-.14,0-.5.14-.54,0v0c-.37.39.11-.25-.1-.11l.16-.16c0-.12-.22,0-.42,0l.1-.09c0-.13-.06-.14-.06-.23-.1.1-.11.06-.22.22.37-.7-.5.11-.21-.48,0,0,.11-.07.1-.07h-.18a1.3,1.3,0,0,0-.17.28c-.1.1-.19.16-.22.14a1.17,1.17,0,0,0,.3-.41l-.14.17c.2-.36-.3.36-.2.09l.08-.09c-.07,0-.19.13-.2.08.16-.22.11-.07.25-.25-.05,0-.4.34-.27.1.07,0,.09,0,.15-.07.16-.28.1-.22.1-.28h0l0-.17,0,.08c-.48.51-.19,0-.53.33.33-.29.16-.19.35-.43a.63.63,0,0,1,.12-.23c-.18.16.06-.2-.2,0,.06-.08,0,0,.13-.23-.09,0-.09.15-.17.24-.26.22.08-.44-.29-.14-.19.1-.4.36-.57.44a1,1,0,0,1,.23-.28c0-.15,0-.15-.11-.08a1,1,0,0,0,.14-.23c-.05,0-.22.28-.18.13a3.31,3.31,0,0,1,.25-.3c-.09,0-.23.17-.32.22a1.19,1.19,0,0,1,.25-.28.64.64,0,0,0-.37.26l0,.1s.12-.2.16-.23,0,.11,0,.2l-.07,0c-.29.49.16,0,.2.07l-.26.32.26-.24a1.07,1.07,0,0,1-.24.32c-.08.2.12-.09,0,.12l0,.06.11-.08c-.06.07-.17.25-.15.18-.08.24.28-.18.13.1h0c.17,0,.18-.24.46-.48l-.39.64.19-.24s0,0-.07.14c.16-.14.07-.11.21-.25-.12.25.21,0-.07.39.15-.18.06-.18.2-.27-.3.43.11,0,0,.19s-.13.06-.23.29c.3-.35,0,.14.1.1.23-.29.17-.07.3-.12-.08.1,0,.24,0,.39l0,0c.24-.28.25-.19.34-.21a1.52,1.52,0,0,1-.29.29l0,0a.41.41,0,0,1,.18-.13l-.18.2c.06,0,.31-.17.25,0,.17-.19.41-.59.58-.66a1.58,1.58,0,0,1-.29.32s.1-.07.07,0l-.17.16c0,.1.14-.14.14-.1s-.07.12-.17.24,0-.08,0,0a.61.61,0,0,1-.13.29.81.81,0,0,1,.21-.21c.06,0-.14.2-.18.3.1-.09,0,0,.23-.18,0,0-.07.12-.12.18.11-.08.14.07.32-.19v0h0c.27-.14.06.28.22.25l-.07.08c.13,0,.16,0,.33-.09,0,0-.08.17-.17.25.09,0,.17-.1.11.06s-.09.13-.12.06c0,.11-.12.23.12.08-.19.17-.19.27-.11.23l.09-.16c.05,0,.05,0,.06.07l-.24.23c-.19.38.64-.33.24.22.18-.14.06-.16.27-.34,0,.08-.28.46-.26.47-.08.19.39-.29.36-.14a1.61,1.61,0,0,1,.42-.36c0,.08-.3.4-.39.44s0,0,0-.06a.36.36,0,0,0-.17.14l.09-.07c-.07.1,0,.15-.16.27a.27.27,0,0,0,.18-.19c-.07.17.08.09,0,.22,0,0,.13-.16.14-.15,0,.19.19-.11.28-.09-.1.15-.32.28-.16.24a1,1,0,0,1-.3.27c.21-.1,0,.2,0,.26l-.1,0c.06,0,.07,0,.08,0l.16-.18s0,.06-.07.13a5.13,5.13,0,0,1,.46-.39c-.07.1.16,0-.07.19,0-.13-.23.23-.31.2s0,0,0,0l-.07,0c-.15.25.29-.21.35-.14-.14.11-.24.24-.2.22s.2-.21.33-.27c-.07.13.12,0,.13,0l0-.07c.14-.11.14-.07.21-.08-.1.09-.09,0-.13.09.27-.18-.17.29,0,.19-.07.1-.25.22-.29.3.22-.1-.14.21.05.14a.78.78,0,0,1,.33-.24h-.2l.31-.16s-.16,0-.15,0a.59.59,0,0,0,.26-.21c-.23.28.23,0,.08.15l-.45.38c-.15.24.33-.08.29.11l0-.1c.19-.13.07,0,.17,0a1.81,1.81,0,0,0-.28.28c.11-.09,0,.07.35-.17l-.17.2c0,.14.51-.27.51-.16a2,2,0,0,1-.42.28s0,.07.11,0c-.09.09.26-.1.13,0,.08,0,.24-.17.25-.13l-.08.06c.08-.06.14,0,.29-.2-.43.45.19.18-.18.57a.57.57,0,0,1,.23.07c-.05,0-.08.06-.07,0-.1.17.49-.29.38-.1s-.17.06-.25.16c-.52.39.14,0-.13.31h0c-.16.16.27,0,.27,0l-.08.05a.88.88,0,0,1,.57-.11,1.38,1.38,0,0,0-.33.2s.33-.24.43-.22a3.3,3.3,0,0,1-.4.36l-.05,0c-.28.23.05.06,0,.12l-.13.08c.09.06.42-.16.46-.06l.09-.07c.35-.17-.16.16.11,0l-.32.23a2.17,2.17,0,0,1,.5-.08,3.61,3.61,0,0,1-.61.19s.09.09.26,0c0,0-.13,0-.08,0q.42-.2.48-.09c-.66.39-.06.26-.54.62.31,0,0,.28.14.38.48-.34,0,0,.56-.28.05,0,.05,0,0,0l-.26.27c-.14.11-.13,0-.25.11s-.21.16-.32.28c.18-.12.28-.13.23,0l.21-.19c.34-.07-.4.33-.06.26l-.19.06c.13,0,.1.18.55,0-.06,0-.2.14-.25.13,0,.15.6,0,.38.25l-.14.06c.05,0,.27-.09.15,0s-.14,0-.14.07.26-.06.2,0l-.16.05c-.12.2.45,0,.59,0a1,1,0,0,0-.52.42l0,0c0,.15.43.07.64.12-.4.28-.06.35-.25.58a1.12,1.12,0,0,1,.36-.13c-.06.07.32,0-.05.12h0c-.36.17-.23.19-.22.24l.49-.19c-.66.41.39.23-.22.55.13,0,.14,0,.28,0l-.27.1c0,.11-.05.17,0,.25l-.19,0c0,.07.79-.2.83-.15l-.39.16c.05.1-.28.33.12.3a.64.64,0,0,1-.2,0c0,.05-.21.28.34.08-.36.12,0,.11.17.12l-.26.08c.35-.06.44-.09.56,0,0,0-.21.08-.15,0-.12.09.27,0,.15.07l-.18,0c0,.06.09,0,.3,0s0,.12-.28.2c.15,0,.36-.06.3,0l-.18,0c-.15.14.35,0,.1.19l-.15.05c0-.07,0-.14,0-.14a2.25,2.25,0,0,1-.62.2c.2,0,.62,0,.52.05l-.08,0h0s0,0,.05,0-.07.05-.07.07c-.2.06-.09.09-.09.12a1.62,1.62,0,0,0,.45-.12s0,0,0,0h0l0-.07c.14,0,.26,0,.12,0l.45-.07c-.37.14-.55.27-.78.35a.82.82,0,0,0,.68.11c.07,0-.14.07-.22.1s0,0-.12,0c.14,0,.09.14.45.06-.15.11-.34,0-.26.12l-.11,0c-.54.3,1,.09.28.45a.22.22,0,0,1,.12,0c-.28.29.41.41-.08.73-.09.08.14,0,.32.06l-.29.06.35,0c.27.06-.71.27-.21.32l.2,0s.13.12-.1.15c0,0,.21,0,.11,0l-.16,0,.29.07c-.1.1-.63.07-.64.19a1.83,1.83,0,0,0,.58,0s.09-.06.25-.08l.08,0a4.19,4.19,0,0,0,1.25-.22l-.29,0,.22,0,0,.06c.21-.06,0-.06-.11-.07l.24-.06-.45,0a1.93,1.93,0,0,0,.45-.08c-.21,0-.4.09-.54,0,.21-.07.38-.08.19-.1a.74.74,0,0,1,.25,0c-.15,0-.07-.1-.32-.08.25-.07-.09-.12.35-.18a1.09,1.09,0,0,1-.37,0c.53,0,0-.13.57-.2-.48,0-.23-.14-.51-.19,0,0,.12,0,.1,0s.17-.09.25-.14a3.09,3.09,0,0,1-.74,0,5.82,5.82,0,0,1,.82-.13c-.32.06-.34,0-.59,0a2.87,2.87,0,0,1,.42-.14c-.49.09-.09,0-.4,0,.23-.11.45-.11.29-.15A.66.66,0,0,1,253.8,59.15Zm-1.21-1.46h0l0,0Zm0-.14s0,0,0,.07-.19.05-.19,0A.47.47,0,0,0,252.55,57.55Zm-1.8.8c-.05,0,0,0,.06-.05l0,0h0Z"/><path class="cls-11" d="M251.11,58.29h0l.06,0-.09,0Z"/><path class="cls-11" d="M245.24,48.16h0l0,0Z"/><polygon class="cls-11" points="252.43 55.53 252.36 55.55 252.43 55.55 252.43 55.53"/><path class="cls-11" d="M245.29,46.94l0-.06Z"/><path class="cls-11" d="M245.06,46.69l0-.11A.45.45,0,0,0,245.06,46.69Z"/><path class="cls-11" d="M245,46.42l-.08.09h0Z"/><path class="cls-11" d="M248.18,49h0C248.25,48.94,248.23,49,248.18,49Z"/><path class="cls-11" d="M246.87,48.53l.12-.06S247,48.42,246.87,48.53Z"/><polygon class="cls-11" points="249.33 49.81 249.33 49.81 249.33 49.82 249.33 49.81"/><path class="cls-11" d="M247,48.51c0-.06,0-.06,0,0S247,48.53,247,48.51Z"/><path class="cls-11" d="M244.11,45.67v0l0,0Z"/><path class="cls-11" d="M244.08,45.69l0,0S244.07,45.71,244.08,45.69Z"/><path class="cls-11" d="M244,45.75l.06,0S244,45.69,244,45.75Z"/><path class="cls-11" d="M244.32,46l.06-.08Z"/><path class="cls-11" d="M244.42,46s.08-.22,0-.19l-.05.07C244.48,45.77,244.3,46.13,244.42,46Z"/><path class="cls-11" d="M244,47.27l0-.12c0,.1-.12.23-.17.23C243.73,47.7,244,47.17,244,47.27Z"/><path class="cls-11" d="M244.13,47.55c-.06,0-.09.12-.13.17A.27.27,0,0,0,244.13,47.55Z"/><path class="cls-11" d="M245.52,48.7l-.18.19S245.41,48.82,245.52,48.7Z"/><polygon class="cls-11" points="246.68 47.98 246.76 47.85 246.59 48 246.68 47.98"/><polygon class="cls-11" points="245.56 49.44 245.53 49.46 245.63 49.43 245.56 49.44"/><path class="cls-11" d="M247.59,51.61l.25-.2C247.78,51.42,247.5,51.63,247.59,51.61Z"/><path class="cls-11" d="M248.6,52.48c-.12.1-.19.18,0,.12S248.64,52.47,248.6,52.48Z"/><polygon class="cls-11" points="249.96 56.13 249.85 56.15 249.95 56.16 249.96 56.13"/></g></g></svg>