<svg xmlns="http://www.w3.org/2000/svg" xmlns:xlink="http://www.w3.org/1999/xlink" width="320" height="320" viewBox="0 0 320 320"><defs><style>.cls-1{fill:url(#radial-gradient);}.cls-2{fill:url(#radial-gradient-2);}.cls-3{fill:url(#linear-gradient);}.cls-4{opacity:0.34;filter:url(#AI_Turbulence_5);}.cls-5{fill:url(#linear-gradient-2);}.cls-6{fill:url(#linear-gradient-3);}.cls-7{fill:url(#linear-gradient-4);}.cls-8{fill:url(#radial-gradient-3);}.cls-9{fill:#a38078;}.cls-10{fill:url(#radial-gradient-4);}.cls-11{fill:url(#radial-gradient-5);}</style><radialGradient id="radial-gradient" cx="160.45" cy="170.95" r="135.51" gradientUnits="userSpaceOnUse"><stop offset="0" stop-color="#f7dbc6"/><stop offset="0.29" stop-color="#e5c3ad"/><stop offset="0.65" stop-color="#d1aa92"/><stop offset="0.76" stop-color="#d3ad95"/><stop offset="0.85" stop-color="#dbb79f"/><stop offset="0.93" stop-color="#e7c7b1"/><stop offset="1" stop-color="#f7dbc6"/></radialGradient><radialGradient id="radial-gradient-2" cx="721.59" cy="-2741.47" r="106.13" gradientTransform="matrix(0.98, 0.52, -0.5, 0.94, -1913.09, 2357.51)" xlink:href="#radial-gradient"/><linearGradient id="linear-gradient" x1="-1082.82" y1="-8168.68" x2="-977.69" y2="-8168.68" gradientTransform="translate(-7089.93 -3979.54) rotate(126.8)" gradientUnits="userSpaceOnUse"><stop offset="0" stop-color="#f7dbc6"/><stop offset="0.34" stop-color="#f4caa6"/><stop offset="0.75" stop-color="#bd9887"/><stop offset="0.99" stop-color="#a38078"/></linearGradient><filter id="AI_Turbulence_5" x="0" y="0" width="100%" height="100%" name="AI_Turbulence_5"><feTurbulence result="turb" baseFrequency="0.4" numOctaves="4" type="fractalNoise"/><feComposite operator="in" in="turb" in2="SourceAlpha"/></filter><linearGradient id="linear-gradient-2" x1="-1082.09" y1="-8169.23" x2="-976.96" y2="-8169.23" xlink:href="#linear-gradient"/><linearGradient id="linear-gradient-3" x1="-2733.49" y1="-8393.96" x2="-2628.36" y2="-8393.96" gradientTransform="translate(-6785.66 -5434.55) rotate(146.33)" xlink:href="#linear-gradient"/><linearGradient id="linear-gradient-4" x1="-2845.41" y1="-8389.33" x2="-2740.29" y2="-8389.33" gradientTransform="translate(-6745.1 -5534.06) rotate(147.7)" xlink:href="#linear-gradient"/><radialGradient id="radial-gradient-3" cx="175.76" cy="158.92" r="111.2" xlink:href="#radial-gradient"/><radialGradient id="radial-gradient-4" cx="160.59" cy="164.53" r="98.81" gradientUnits="userSpaceOnUse"><stop offset="0" stop-color="#f4caa6"/><stop offset="0.04" stop-color="#efc5a3"/><stop offset="0.3" stop-color="#cea790"/><stop offset="0.56" stop-color="#b69283"/><stop offset="0.8" stop-color="#a8857b"/><stop offset="1" stop-color="#a38078"/></radialGradient><radialGradient id="radial-gradient-5" cx="213.49" cy="-953.42" r="32.58" gradientTransform="translate(0 1670.62) scale(1 1.46)" xlink:href="#radial-gradient-4"/></defs><g id="Layer_2" data-name="Layer 2"><path class="cls-1" d="M298,166.7c.23,28.91-11.76,51.7-19.8,64.16a14.12,14.12,0,0,1-1.27,9.15c-1,1.9-1.83,2.09-6.42,6.41-5.18,4.88-5.43,5.84-7.33,6.41-1.38.43-4.76,1-10.08-2.74l-16.37,24a22.36,22.36,0,0,0-3.79,3.51c-2.22,2.6-2.57,4.26-3.66,5.49-1.5,1.69-4.79,3-12.83,1.21l-7.95,4a70.37,70.37,0,0,1-7.63,7.62c-5.15,4.42-8.59,7.36-12.83,8.25-9.05,1.9-17.54-6.5-19.24-8.25a40.47,40.47,0,0,1-8.25,0,42.48,42.48,0,0,1-18.33-6.41L97.28,273c-6.13-4.1-11.16-7.13-14.66-9.16-5.09-2.95-8.73-4.82-11-9.16a16.39,16.39,0,0,1-1.76-6.22L61.27,238a56.71,56.71,0,0,1-8.89-7.18c-3.77-3.72-11.07-11-12.83-21.07-.71-4.08,0-5.45.91-13.75a181.06,181.06,0,0,0,.92-24.74l-1.83-4.58a11.13,11.13,0,0,1-8.25,1.83,10.78,10.78,0,0,1-8.25-8.25c-.8-4.32,2.56-5.52,4.59-11.91,3.29-10.37-2.39-17.18,1.83-21.08,3.08-2.85,7.88-.84,9.16-3.66,1-2.14-1.6-3.67-1.83-7.33-.27-4.41,3.19-6.5,7.33-12.83,2.48-3.79,1.24-3,6.41-13.75,6.65-13.75,8.7-15,10.08-15.58s6.21-2.13,14.6,3.42c10-9.77,44.71-41,93.54-40.07C237.41,38.74,297.46,102.75,298,166.7Z"/><path class="cls-2" d="M263.75,214.39c-21.12,40-68.55,63-118.16,56.66a38,38,0,0,1-18.82-1.67c-7.93-2.91-12.61-8-16.12-11.65-20-20.92-21.66-17.48-30.08-28.37C74.81,221.9,64,205.22,61.36,177c-3.48,4.85-7.62,7.53-10.46,6.54-2.5-.88-3.24-4.33-4.29-9.53-.84-4.23-1.91-12.17.15-23.77a84.7,84.7,0,0,1,2.72-11c-2.61-6.08-2-9.73-.95-11.91,2-4.27,5.61-3.46,8.81-8.81,2.37-4,2.81-8.45,3.15-11.81a43.89,43.89,0,0,0,.14-6.15,50.73,50.73,0,0,1,3.29-18,15.86,15.86,0,0,0,6.67-4.76c2.23-2.77,2.15-4.81,3.44-6.48,1.73-2.24,6.11-4,18.26-1.09,2.51-1.56,63.58-38.12,121.3-6.91C264.7,91,292.22,160.46,263.75,214.39Z"/><path class="cls-3" d="M70.93,26.28l30.36,108.08a5.38,5.38,0,0,1-2.91,6.33l-26.8,12.44a5.38,5.38,0,0,1-7.47-3.55L36.41,40.93a5.38,5.38,0,0,1,2.84-6.15L63.39,22.91A5.36,5.36,0,0,1,70.93,26.28Z"/><g class="cls-4"><path class="cls-5" d="M70.93,27.19l30.36,108.09a5.37,5.37,0,0,1-2.91,6.32L71.58,154a5.37,5.37,0,0,1-7.47-3.54L36.41,41.85a5.37,5.37,0,0,1,2.84-6.15L63.39,23.82A5.38,5.38,0,0,1,70.93,27.19Z"/></g><path class="cls-6" d="M122.75,6.93l-7.52,112a5.38,5.38,0,0,1-4.86,5L81,126.7a5.37,5.37,0,0,1-5.85-5.84L85.31,9.2A5.37,5.37,0,0,1,90,4.35l26.72-3.12A5.38,5.38,0,0,1,122.75,6.93Z"/><g class="cls-4"><path class="cls-7" d="M123.21,7.5,113,119.3a5.38,5.38,0,0,1-5,4.88l-29.47,2.06a5.38,5.38,0,0,1-5.72-6L85.73,8.88a5.38,5.38,0,0,1,4.84-4.74l26.79-2.48A5.38,5.38,0,0,1,123.21,7.5Z"/></g><path class="cls-8" d="M267.67,222c-26.7,37.59-76.19,55.53-123.17,44.16a35.48,35.48,0,0,1-17.94-3.6c-7.21-3.72-10.94-9.23-13.76-13.25-16-22.85-18.2-19.61-24.63-31.31-4.41-8-12.28-25.71-10.36-54-4.13,4.46-8.55,6.7-11.14,5.42-2.29-1.12-2.46-4.63-2.65-9.91-.16-4.3.06-12.3,3.87-23.62a92.61,92.61,0,0,1,4.36-10.66c-1.57-6.32-.37-9.88,1-11.94,2.59-4,6-2.87,9.91-7.85,2.91-3.69,4-8.12,4.9-11.43a48.31,48.31,0,0,0,1.11-6.09,53.94,53.94,0,0,1,6-17.52,16.74,16.74,0,0,0,7.2-4c2.59-2.53,2.83-4.57,4.34-6.09,2-2,6.54-3.38,17.83.79,2.67-1.29,67.47-31.34,118.4,5.64C288,99.43,303.68,171.31,267.67,222Z"/><circle class="cls-9" cx="202.63" cy="116.15" r="0.46"/><circle class="cls-9" cx="191.47" cy="114.68" r="0.46"/><circle class="cls-9" cx="172.7" cy="123.8" r="0.46"/><circle class="cls-9" cx="207.85" cy="132.79" r="0.46"/><ellipse class="cls-9" cx="182.76" cy="129.04" rx="0.09" ry="0.08" transform="translate(-17.93 227.93) rotate(-61.45)"/><ellipse class="cls-9" cx="185.83" cy="129.33" rx="0.09" ry="0.08" transform="translate(-16.58 230.77) rotate(-61.45)"/><ellipse class="cls-9" cx="183.05" cy="125.98" rx="0.09" ry="0.08" transform="translate(-15.08 226.58) rotate(-61.45)"/><ellipse class="cls-9" cx="179.76" cy="126.95" rx="0.09" ry="0.08" transform="translate(-17.66 224.19) rotate(-61.45)"/><ellipse class="cls-9" cx="187.74" cy="131.75" rx="0.09" ry="0.08" transform="translate(-17.71 233.7) rotate(-61.45)"/><ellipse class="cls-9" cx="186.82" cy="121.58" rx="0.09" ry="0.08" transform="matrix(0.48, -0.88, 0.88, 0.48, -9.26, 227.6)"/><ellipse class="cls-9" cx="179.44" cy="125.85" rx="0.09" ry="0.08" transform="translate(-16.86 223.34) rotate(-61.45)"/><ellipse class="cls-9" cx="182.53" cy="120.17" rx="0.09" ry="0.08" transform="translate(-10.26 223.09) rotate(-61.45)"/><ellipse class="cls-9" cx="184.89" cy="125.14" rx="0.09" ry="0.08" transform="translate(-13.39 227.75) rotate(-61.45)"/><ellipse class="cls-9" cx="168.07" cy="119.67" rx="0.09" ry="0.08" transform="translate(-17.36 210.13) rotate(-61.45)"/><ellipse class="cls-9" cx="169.08" cy="122.06" rx="0.09" ry="0.08" transform="translate(-18.94 212.25) rotate(-61.45)"/><ellipse class="cls-9" cx="171.33" cy="119.6" rx="0.09" ry="0.08" transform="translate(-15.6 212.95) rotate(-61.45)"/><ellipse class="cls-9" cx="183.37" cy="122.01" rx="0.09" ry="0.08" transform="translate(-11.43 224.78) rotate(-61.45)"/><ellipse class="cls-9" cx="192.35" cy="134.26" rx="0.09" ry="0.08" transform="translate(-17.5 239.07) rotate(-61.45)"/><ellipse class="cls-9" cx="197.06" cy="134.06" rx="0.09" ry="0.08" transform="translate(-14.87 243.11) rotate(-61.45)"/><circle class="cls-9" cx="187.29" cy="125.75" r="0.46"/><circle class="cls-9" cx="157.85" cy="114.54" r="0.46"/><circle class="cls-9" cx="193.17" cy="107.22" r="0.46"/><circle class="cls-9" cx="178.31" cy="123.47" r="0.46"/><circle class="cls-9" cx="189.18" cy="98.72" r="0.46"/><circle class="cls-9" cx="168.32" cy="98.43" r="0.46"/><circle class="cls-9" cx="195.67" cy="122.26" r="0.46"/><circle class="cls-9" cx="173.75" cy="113.35" r="0.46"/><circle class="cls-9" cx="163.5" cy="114.66" r="0.46"/><circle class="cls-9" cx="154.19" cy="108.32" r="0.46"/><ellipse class="cls-9" cx="180.27" cy="111.47" rx="0.09" ry="0.08" transform="translate(-3.79 216.56) rotate(-61.45)"/><ellipse class="cls-9" cx="176.98" cy="112.44" rx="0.09" ry="0.08" transform="translate(-6.36 214.18) rotate(-61.45)"/><ellipse class="cls-9" cx="176.66" cy="111.35" rx="0.09" ry="0.08" transform="translate(-5.57 213.32) rotate(-61.45)"/><ellipse class="cls-9" cx="179.75" cy="105.66" rx="0.09" ry="0.08" transform="translate(1.04 213.07) rotate(-61.45)"/><ellipse class="cls-9" cx="180.59" cy="107.5" rx="0.09" ry="0.08" transform="translate(-0.14 214.77) rotate(-61.45)"/><ellipse class="cls-9" cx="172.65" cy="106.87" rx="0.09" ry="0.08" transform="translate(-3.73 207.46) rotate(-61.45)"/><ellipse class="cls-9" cx="169.36" cy="107.84" rx="0.09" ry="0.08" transform="translate(-6.3 205.08) rotate(-61.45)"/><ellipse class="cls-9" cx="169.04" cy="106.74" rx="0.09" ry="0.08" transform="translate(-5.5 204.23) rotate(-61.45)"/><ellipse class="cls-9" cx="172.13" cy="101.06" rx="0.09" ry="0.08" transform="translate(1.1 203.97) rotate(-61.45)"/><ellipse class="cls-9" cx="172.97" cy="102.9" rx="0.09" ry="0.08" transform="translate(-0.07 205.67) rotate(-61.45)"/><ellipse class="cls-9" cx="180.26" cy="111.7" rx="0.09" ry="0.08" transform="translate(-4 216.67) rotate(-61.45)"/><ellipse class="cls-9" cx="180.55" cy="108.63" rx="0.09" ry="0.08" transform="translate(-1.15 215.32) rotate(-61.45)"/><ellipse class="cls-9" cx="177.26" cy="109.6" rx="0.09" ry="0.08" transform="translate(-3.72 212.94) rotate(-61.45)"/><ellipse class="cls-9" cx="184.32" cy="104.24" rx="0.09" ry="0.08" transform="translate(4.67 216.34) rotate(-61.45)"/><ellipse class="cls-9" cx="176.94" cy="108.51" rx="0.09" ry="0.08" transform="translate(-2.93 212.08) rotate(-61.45)"/><ellipse class="cls-9" cx="180.03" cy="102.82" rx="0.09" ry="0.08" transform="translate(3.68 211.83) rotate(-61.45)"/><ellipse class="cls-9" cx="182.39" cy="107.79" rx="0.09" ry="0.08" transform="translate(0.55 216.5) rotate(-61.45)"/><ellipse class="cls-9" cx="180.87" cy="104.66" rx="0.09" ry="0.08" transform="translate(2.5 213.53) rotate(-61.45)"/><circle class="cls-9" cx="184.79" cy="108.4" r="0.46"/><circle class="cls-9" cx="175.81" cy="106.13" r="0.46"/><ellipse class="cls-9" cx="195.84" cy="116.13" rx="0.09" ry="0.08" transform="translate(0.24 232.67) rotate(-61.45)"/><ellipse class="cls-9" cx="196.12" cy="113.07" rx="0.09" ry="0.08" transform="translate(3.08 231.32) rotate(-61.45)"/><ellipse class="cls-9" cx="192.83" cy="114.04" rx="0.09" ry="0.08" transform="translate(0.51 228.94) rotate(-61.45)"/><ellipse class="cls-9" cx="199.89" cy="108.67" rx="0.09" ry="0.08" transform="translate(8.91 232.34) rotate(-61.45)"/><ellipse class="cls-9" cx="192.51" cy="112.94" rx="0.09" ry="0.08" transform="translate(1.31 228.08) rotate(-61.45)"/><ellipse class="cls-9" cx="195.6" cy="107.26" rx="0.09" ry="0.08" transform="translate(7.91 227.83) rotate(-61.45)"/><ellipse class="cls-9" cx="197.96" cy="112.22" rx="0.09" ry="0.08" transform="translate(4.78 232.49) rotate(-61.45)"/><ellipse class="cls-9" cx="196.44" cy="109.1" rx="0.09" ry="0.08" transform="translate(6.74 229.53) rotate(-61.45)"/><circle class="cls-9" cx="191.38" cy="110.56" r="0.46"/><ellipse class="cls-9" cx="194.3" cy="122.2" rx="0.09" ry="0.08" transform="translate(-5.89 234.48) rotate(-61.45)"/><ellipse class="cls-9" cx="194.58" cy="119.13" rx="0.09" ry="0.08" transform="translate(-3.05 233.13) rotate(-61.45)"/><ellipse class="cls-9" cx="191.29" cy="120.1" rx="0.09" ry="0.08" transform="translate(-5.62 230.75) rotate(-61.45)"/><ellipse class="cls-9" cx="198.35" cy="114.74" rx="0.09" ry="0.08" transform="translate(2.78 234.15) rotate(-61.45)"/><ellipse class="cls-9" cx="196.42" cy="118.29" rx="0.09" ry="0.08" transform="translate(-1.35 234.31) rotate(-61.45)"/><ellipse class="cls-9" cx="194.9" cy="115.16" rx="0.09" ry="0.08" transform="translate(0.6 231.34) rotate(-61.45)"/><ellipse class="cls-9" cx="182.2" cy="121.6" rx="0.09" ry="0.08" transform="translate(-11.68 223.54) rotate(-61.45)"/><ellipse class="cls-9" cx="182.48" cy="118.53" rx="0.09" ry="0.08" transform="translate(-8.84 222.19) rotate(-61.45)"/><ellipse class="cls-9" cx="179.19" cy="119.5" rx="0.09" ry="0.08" transform="translate(-11.41 219.81) rotate(-61.45)"/><ellipse class="cls-9" cx="186.25" cy="114.14" rx="0.09" ry="0.08" transform="translate(-3.01 223.21) rotate(-61.45)"/><ellipse class="cls-9" cx="184.32" cy="117.69" rx="0.09" ry="0.08" transform="translate(-7.14 223.36) rotate(-61.45)"/><ellipse class="cls-9" cx="182.8" cy="114.56" rx="0.09" ry="0.08" transform="translate(-5.19 220.4) rotate(-61.45)"/><circle class="cls-9" cx="147.29" cy="114.12" r="0.46"/><circle class="cls-9" cx="136.13" cy="112.65" r="0.46"/><circle class="cls-9" cx="117.36" cy="121.77" r="0.46"/><circle class="cls-9" cx="152.51" cy="130.76" r="0.46"/><ellipse class="cls-9" cx="127.42" cy="127.01" rx="0.09" ry="0.08" transform="translate(-45.04 178.25) rotate(-61.45)"/><ellipse class="cls-9" cx="130.49" cy="127.3" rx="0.09" ry="0.08" transform="translate(-43.69 181.09) rotate(-61.45)"/><ellipse class="cls-9" cx="127.71" cy="123.94" rx="0.09" ry="0.08" transform="translate(-42.19 176.9) rotate(-61.45)"/><ellipse class="cls-9" cx="124.42" cy="124.92" rx="0.09" ry="0.08" transform="translate(-44.77 174.52) rotate(-61.45)"/><ellipse class="cls-9" cx="132.4" cy="129.71" rx="0.09" ry="0.08" transform="translate(-44.82 184.03) rotate(-61.45)"/><ellipse class="cls-9" cx="131.48" cy="119.55" rx="0.09" ry="0.08" transform="translate(-36.37 177.92) rotate(-61.45)"/><ellipse class="cls-9" cx="124.1" cy="123.82" rx="0.09" ry="0.08" transform="translate(-43.97 173.66) rotate(-61.45)"/><ellipse class="cls-9" cx="127.19" cy="118.14" rx="0.09" ry="0.08" transform="translate(-37.37 173.41) rotate(-61.45)"/><ellipse class="cls-9" cx="129.55" cy="123.1" rx="0.09" ry="0.08" transform="translate(-40.5 178.08) rotate(-61.45)"/><ellipse class="cls-9" cx="112.73" cy="117.64" rx="0.09" ry="0.08" transform="translate(-44.47 160.45) rotate(-61.45)"/><ellipse class="cls-9" cx="113.74" cy="120.02" rx="0.09" ry="0.08" transform="translate(-46.05 162.58) rotate(-61.45)"/><ellipse class="cls-9" cx="115.99" cy="117.57" rx="0.09" ry="0.08" transform="translate(-42.71 163.28) rotate(-61.45)"/><ellipse class="cls-9" cx="128.03" cy="119.98" rx="0.09" ry="0.08" transform="translate(-38.54 175.11) rotate(-61.45)"/><ellipse class="cls-9" cx="137.01" cy="132.23" rx="0.09" ry="0.08" transform="translate(-44.61 189.4) rotate(-61.45)"/><ellipse class="cls-9" cx="141.72" cy="132.03" rx="0.09" ry="0.08" transform="translate(-41.98 193.43) rotate(-61.45)"/><circle class="cls-9" cx="131.95" cy="123.72" r="0.46"/><circle class="cls-9" cx="102.51" cy="112.51" r="0.46"/><circle class="cls-9" cx="137.83" cy="105.19" r="0.46"/><circle class="cls-9" cx="122.97" cy="121.44" r="0.46"/><circle class="cls-9" cx="133.84" cy="96.68" r="0.46"/><circle class="cls-9" cx="112.98" cy="96.39" r="0.46"/><circle class="cls-9" cx="140.33" cy="120.23" r="0.46"/><circle class="cls-9" cx="118.41" cy="111.32" r="0.46"/><circle class="cls-9" cx="108.16" cy="112.62" r="0.46"/><circle class="cls-9" cx="98.85" cy="106.29" r="0.46"/><ellipse class="cls-9" cx="124.93" cy="109.44" rx="0.09" ry="0.08" transform="translate(-30.9 166.89) rotate(-61.45)"/><ellipse class="cls-9" cx="121.64" cy="110.41" rx="0.09" ry="0.08" transform="translate(-33.47 164.5) rotate(-61.45)"/><ellipse class="cls-9" cx="121.32" cy="109.31" rx="0.09" ry="0.08" transform="translate(-32.68 163.65) rotate(-61.45)"/><ellipse class="cls-9" cx="124.41" cy="103.63" rx="0.09" ry="0.08" transform="translate(-26.07 163.4) rotate(-61.45)"/><ellipse class="cls-9" cx="125.25" cy="105.47" rx="0.09" ry="0.08" transform="translate(-27.25 165.09) rotate(-61.45)"/><ellipse class="cls-9" cx="117.31" cy="104.83" rx="0.09" ry="0.08" transform="translate(-30.84 157.79) rotate(-61.45)"/><ellipse class="cls-9" cx="114.02" cy="105.81" rx="0.09" ry="0.08" transform="translate(-33.41 155.41) rotate(-61.45)"/><ellipse class="cls-9" cx="113.7" cy="104.71" rx="0.09" ry="0.08" transform="translate(-32.61 154.55) rotate(-61.45)"/><ellipse class="cls-9" cx="116.79" cy="99.03" rx="0.09" ry="0.08" transform="translate(-26.01 154.3) rotate(-61.45)"/><ellipse class="cls-9" cx="117.63" cy="100.86" rx="0.09" ry="0.08" transform="translate(-27.18 156) rotate(-61.45)"/><ellipse class="cls-9" cx="124.92" cy="109.66" rx="0.09" ry="0.08" transform="translate(-31.11 167) rotate(-61.45)"/><ellipse class="cls-9" cx="125.21" cy="106.6" rx="0.09" ry="0.08" transform="translate(-28.26 165.65) rotate(-61.45)"/><ellipse class="cls-9" cx="121.92" cy="107.57" rx="0.09" ry="0.08" transform="translate(-30.83 163.26) rotate(-61.45)"/><ellipse class="cls-9" cx="128.98" cy="102.21" rx="0.09" ry="0.08" transform="translate(-22.44 166.67) rotate(-61.45)"/><ellipse class="cls-9" cx="121.6" cy="106.47" rx="0.09" ry="0.08" transform="translate(-30.04 162.41) rotate(-61.45)"/><ellipse class="cls-9" cx="124.69" cy="100.79" rx="0.09" ry="0.08" transform="translate(-23.43 162.16) rotate(-61.45)"/><ellipse class="cls-9" cx="127.05" cy="105.76" rx="0.09" ry="0.08" transform="translate(-26.56 166.82) rotate(-61.45)"/><ellipse class="cls-9" cx="125.53" cy="102.63" rx="0.09" ry="0.08" transform="translate(-24.61 163.85) rotate(-61.45)"/><circle class="cls-9" cx="129.44" cy="106.37" r="0.46"/><circle class="cls-9" cx="120.47" cy="104.1" r="0.46"/><ellipse class="cls-9" cx="140.5" cy="114.1" rx="0.09" ry="0.08" transform="translate(-26.87 182.99) rotate(-61.45)"/><ellipse class="cls-9" cx="140.78" cy="111.03" rx="0.09" ry="0.08" transform="translate(-24.03 181.64) rotate(-61.45)"/><ellipse class="cls-9" cx="137.49" cy="112" rx="0.09" ry="0.08" transform="translate(-26.6 179.26) rotate(-61.45)"/><ellipse class="cls-9" cx="144.55" cy="106.64" rx="0.09" ry="0.08" transform="translate(-18.2 182.66) rotate(-61.45)"/><ellipse class="cls-9" cx="137.17" cy="110.91" rx="0.09" ry="0.08" transform="translate(-25.8 178.4) rotate(-61.45)"/><ellipse class="cls-9" cx="140.26" cy="105.23" rx="0.09" ry="0.08" transform="translate(-19.2 178.15) rotate(-61.45)"/><ellipse class="cls-9" cx="142.62" cy="110.19" rx="0.09" ry="0.08" transform="translate(-22.33 182.82) rotate(-61.45)"/><ellipse class="cls-9" cx="141.1" cy="107.06" rx="0.09" ry="0.08" transform="translate(-20.37 179.85) rotate(-61.45)"/><circle class="cls-9" cx="136.04" cy="108.53" r="0.46"/><ellipse class="cls-9" cx="138.95" cy="120.16" rx="0.09" ry="0.08" transform="translate(-33 184.8) rotate(-61.45)"/><ellipse class="cls-9" cx="139.24" cy="117.1" rx="0.09" ry="0.08" transform="translate(-30.16 183.46) rotate(-61.45)"/><ellipse class="cls-9" cx="135.95" cy="118.07" rx="0.09" ry="0.08" transform="translate(-32.73 181.07) rotate(-61.45)"/><ellipse class="cls-9" cx="143.01" cy="112.7" rx="0.09" ry="0.08" transform="translate(-24.33 184.47) rotate(-61.45)"/><ellipse class="cls-9" cx="141.08" cy="116.26" rx="0.09" ry="0.08" transform="translate(-28.46 184.63) rotate(-61.45)"/><ellipse class="cls-9" cx="139.56" cy="113.13" rx="0.09" ry="0.08" transform="translate(-26.51 181.66) rotate(-61.45)"/><ellipse class="cls-9" cx="126.85" cy="119.56" rx="0.09" ry="0.08" transform="translate(-38.79 173.86) rotate(-61.45)"/><ellipse class="cls-9" cx="127.14" cy="116.5" rx="0.09" ry="0.08" transform="translate(-35.95 172.51) rotate(-61.45)"/><ellipse class="cls-9" cx="123.85" cy="117.47" rx="0.09" ry="0.08" transform="translate(-38.52 170.13) rotate(-61.45)"/><ellipse class="cls-9" cx="130.91" cy="112.11" rx="0.09" ry="0.08" transform="translate(-30.12 173.53) rotate(-61.45)"/><ellipse class="cls-9" cx="128.98" cy="115.66" rx="0.09" ry="0.08" transform="translate(-34.25 173.69) rotate(-61.45)"/><ellipse class="cls-9" cx="127.46" cy="112.53" rx="0.09" ry="0.08" transform="translate(-32.3 170.72) rotate(-61.45)"/><circle class="cls-9" cx="157.37" cy="219.5" r="0.46"/><circle class="cls-9" cx="146.21" cy="218.03" r="0.46"/><circle class="cls-9" cx="127.44" cy="227.15" r="0.46"/><circle class="cls-9" cx="162.59" cy="236.14" r="0.46"/><ellipse class="cls-9" cx="137.5" cy="232.39" rx="0.09" ry="0.08" transform="translate(-132.35 242.13) rotate(-61.45)"/><ellipse class="cls-9" cx="140.57" cy="232.68" rx="0.09" ry="0.08" transform="translate(-131 244.97) rotate(-61.45)"/><ellipse class="cls-9" cx="137.79" cy="229.33" rx="0.09" ry="0.08" transform="translate(-129.5 240.78) rotate(-61.45)"/><ellipse class="cls-9" cx="134.5" cy="230.3" rx="0.09" ry="0.08" transform="translate(-132.07 238.4) rotate(-61.45)"/><ellipse class="cls-9" cx="142.48" cy="235.1" rx="0.09" ry="0.08" transform="translate(-132.12 247.91) rotate(-61.45)"/><ellipse class="cls-9" cx="141.56" cy="224.93" rx="0.09" ry="0.08" transform="translate(-123.68 241.8) rotate(-61.45)"/><ellipse class="cls-9" cx="134.18" cy="229.2" rx="0.09" ry="0.08" transform="translate(-131.28 237.54) rotate(-61.45)"/><ellipse class="cls-9" cx="137.27" cy="223.52" rx="0.09" ry="0.08" transform="translate(-124.67 237.29) rotate(-61.45)"/><ellipse class="cls-9" cx="139.63" cy="228.49" rx="0.09" ry="0.08" transform="translate(-127.8 241.96) rotate(-61.45)"/><ellipse class="cls-9" cx="122.81" cy="223.02" rx="0.09" ry="0.08" transform="translate(-131.78 224.33) rotate(-61.45)"/><ellipse class="cls-9" cx="123.82" cy="225.41" rx="0.09" ry="0.08" transform="translate(-133.36 226.46) rotate(-61.45)"/><ellipse class="cls-9" cx="126.07" cy="222.95" rx="0.09" ry="0.08" transform="translate(-130.02 227.16) rotate(-61.45)"/><ellipse class="cls-9" cx="138.11" cy="225.36" rx="0.09" ry="0.08" transform="translate(-125.85 238.99) rotate(-61.45)"/><ellipse class="cls-9" cx="147.09" cy="237.61" rx="0.09" ry="0.08" transform="translate(-131.92 253.28) rotate(-61.45)"/><ellipse class="cls-9" cx="151.8" cy="237.41" rx="0.09" ry="0.08" transform="translate(-129.29 257.31) rotate(-61.45)"/><circle class="cls-9" cx="142.03" cy="229.1" r="0.46"/><circle class="cls-9" cx="112.59" cy="217.89" r="0.46"/><circle class="cls-9" cx="147.91" cy="210.57" r="0.46"/><circle class="cls-9" cx="133.05" cy="226.82" r="0.46"/><circle class="cls-9" cx="143.92" cy="202.07" r="0.46"/><circle class="cls-9" cx="123.06" cy="201.77" r="0.46"/><circle class="cls-9" cx="150.41" cy="225.61" r="0.46"/><circle class="cls-9" cx="128.49" cy="216.7" r="0.46"/><circle class="cls-9" cx="118.24" cy="218.01" r="0.46"/><circle class="cls-9" cx="108.93" cy="211.67" r="0.46"/><ellipse class="cls-9" cx="135.01" cy="214.82" rx="0.09" ry="0.08" transform="translate(-118.21 230.77) rotate(-61.45)"/><ellipse class="cls-9" cx="131.72" cy="215.79" rx="0.09" ry="0.08" transform="translate(-120.78 228.38) rotate(-61.45)"/><ellipse class="cls-9" cx="131.4" cy="214.7" rx="0.09" ry="0.08" transform="translate(-119.99 227.53) rotate(-61.45)"/><ellipse class="cls-9" cx="134.49" cy="209.01" rx="0.09" ry="0.08" transform="translate(-113.38 227.28) rotate(-61.45)"/><ellipse class="cls-9" cx="135.33" cy="210.85" rx="0.09" ry="0.08" transform="translate(-114.56 228.97) rotate(-61.45)"/><ellipse class="cls-9" cx="127.39" cy="210.22" rx="0.09" ry="0.08" transform="translate(-118.14 221.67) rotate(-61.45)"/><ellipse class="cls-9" cx="124.1" cy="211.19" rx="0.09" ry="0.08" transform="translate(-120.72 219.29) rotate(-61.45)"/><ellipse class="cls-9" cx="123.78" cy="210.09" rx="0.09" ry="0.08" transform="translate(-119.92 218.43) rotate(-61.45)"/><ellipse class="cls-9" cx="126.87" cy="204.41" rx="0.09" ry="0.08" transform="translate(-113.32 218.18) rotate(-61.45)"/><ellipse class="cls-9" cx="127.71" cy="206.25" rx="0.09" ry="0.08" transform="translate(-114.49 219.88) rotate(-61.45)"/><ellipse class="cls-9" cx="135" cy="215.05" rx="0.09" ry="0.08" transform="translate(-118.41 230.87) rotate(-61.45)"/><ellipse class="cls-9" cx="135.29" cy="211.98" rx="0.09" ry="0.08" transform="translate(-115.57 229.53) rotate(-61.45)"/><ellipse class="cls-9" cx="132" cy="212.95" rx="0.09" ry="0.08" transform="translate(-118.14 227.14) rotate(-61.45)"/><ellipse class="cls-9" cx="139.06" cy="207.59" rx="0.09" ry="0.08" transform="translate(-109.74 230.54) rotate(-61.45)"/><ellipse class="cls-9" cx="131.68" cy="211.86" rx="0.09" ry="0.08" transform="translate(-117.35 226.29) rotate(-61.45)"/><ellipse class="cls-9" cx="134.77" cy="206.17" rx="0.09" ry="0.08" transform="translate(-110.74 226.04) rotate(-61.45)"/><ellipse class="cls-9" cx="137.13" cy="211.14" rx="0.09" ry="0.08" transform="translate(-113.87 230.7) rotate(-61.45)"/><ellipse class="cls-9" cx="135.61" cy="208.01" rx="0.09" ry="0.08" transform="translate(-111.92 227.73) rotate(-61.45)"/><circle class="cls-9" cx="139.52" cy="211.75" r="0.46"/><circle class="cls-9" cx="130.55" cy="209.48" r="0.46"/><ellipse class="cls-9" cx="150.58" cy="219.48" rx="0.09" ry="0.08" transform="translate(-114.18 246.87) rotate(-61.45)"/><ellipse class="cls-9" cx="150.86" cy="216.41" rx="0.09" ry="0.08" transform="translate(-111.34 245.52) rotate(-61.45)"/><ellipse class="cls-9" cx="147.57" cy="217.39" rx="0.09" ry="0.08" transform="translate(-113.91 243.14) rotate(-61.45)"/><ellipse class="cls-9" cx="154.63" cy="212.02" rx="0.09" ry="0.08" transform="translate(-105.51 246.54) rotate(-61.45)"/><ellipse class="cls-9" cx="147.25" cy="216.29" rx="0.09" ry="0.08" transform="translate(-113.11 242.28) rotate(-61.45)"/><ellipse class="cls-9" cx="150.34" cy="210.61" rx="0.09" ry="0.08" transform="translate(-106.51 242.03) rotate(-61.45)"/><ellipse class="cls-9" cx="152.7" cy="215.57" rx="0.09" ry="0.08" transform="translate(-109.64 246.7) rotate(-61.45)"/><ellipse class="cls-9" cx="151.18" cy="212.45" rx="0.09" ry="0.08" transform="translate(-107.68 243.73) rotate(-61.45)"/><circle class="cls-9" cx="146.12" cy="213.91" r="0.46"/><ellipse class="cls-9" cx="149.03" cy="225.54" rx="0.09" ry="0.08" transform="translate(-120.31 248.68) rotate(-61.45)"/><ellipse class="cls-9" cx="149.32" cy="222.48" rx="0.09" ry="0.08" transform="translate(-117.47 247.33) rotate(-61.45)"/><ellipse class="cls-9" cx="146.03" cy="223.45" rx="0.09" ry="0.08" transform="translate(-120.04 244.95) rotate(-61.45)"/><ellipse class="cls-9" cx="153.09" cy="218.09" rx="0.09" ry="0.08" transform="translate(-111.64 248.35) rotate(-61.45)"/><ellipse class="cls-9" cx="151.16" cy="221.64" rx="0.09" ry="0.08" transform="translate(-115.77 248.51) rotate(-61.45)"/><ellipse class="cls-9" cx="149.64" cy="218.51" rx="0.09" ry="0.08" transform="translate(-113.81 245.54) rotate(-61.45)"/><ellipse class="cls-9" cx="136.93" cy="224.95" rx="0.09" ry="0.08" transform="translate(-126.1 237.74) rotate(-61.45)"/><ellipse class="cls-9" cx="137.22" cy="221.88" rx="0.09" ry="0.08" transform="translate(-123.26 236.39) rotate(-61.45)"/><ellipse class="cls-9" cx="133.93" cy="222.85" rx="0.09" ry="0.08" transform="translate(-125.83 234.01) rotate(-61.45)"/><ellipse class="cls-9" cx="140.99" cy="217.49" rx="0.09" ry="0.08" transform="translate(-117.43 237.41) rotate(-61.45)"/><ellipse class="cls-9" cx="139.06" cy="221.04" rx="0.09" ry="0.08" transform="matrix(0.48, -0.88, 0.88, 0.48, -121.56, 237.57)"/><ellipse class="cls-9" cx="137.54" cy="217.91" rx="0.09" ry="0.08" transform="translate(-119.61 234.6) rotate(-61.45)"/><circle class="cls-9" cx="261.84" cy="192.01" r="0.46"/><circle class="cls-9" cx="250.67" cy="190.54" r="0.46"/><circle class="cls-9" cx="231.91" cy="199.66" r="0.46"/><circle class="cls-9" cx="267.05" cy="208.65" r="0.46"/><ellipse class="cls-9" cx="241.97" cy="204.9" rx="0.09" ry="0.08" transform="translate(-53.65 319.54) rotate(-61.45)"/><ellipse class="cls-9" cx="245.04" cy="205.19" rx="0.09" ry="0.08" transform="translate(-52.3 322.38) rotate(-61.45)"/><ellipse class="cls-9" cx="242.26" cy="201.84" rx="0.09" ry="0.08" transform="translate(-50.81 318.19) rotate(-61.45)"/><ellipse class="cls-9" cx="238.97" cy="202.81" rx="0.09" ry="0.08" transform="translate(-53.38 315.81) rotate(-61.45)"/><ellipse class="cls-9" cx="246.94" cy="207.61" rx="0.09" ry="0.08" transform="translate(-53.43 325.32) rotate(-61.45)"/><ellipse class="cls-9" cx="246.03" cy="197.44" rx="0.09" ry="0.08" transform="translate(-44.98 319.21) rotate(-61.45)"/><ellipse class="cls-9" cx="238.64" cy="201.71" rx="0.09" ry="0.08" transform="translate(-52.58 314.95) rotate(-61.45)"/><ellipse class="cls-9" cx="241.73" cy="196.03" rx="0.09" ry="0.08" transform="translate(-45.98 314.7) rotate(-61.45)"/><ellipse class="cls-9" cx="244.09" cy="200.99" rx="0.09" ry="0.08" transform="translate(-49.11 319.37) rotate(-61.45)"/><ellipse class="cls-9" cx="227.28" cy="195.53" rx="0.09" ry="0.08" transform="translate(-53.09 301.74) rotate(-61.45)"/><ellipse class="cls-9" cx="228.28" cy="197.92" rx="0.09" ry="0.08" transform="translate(-54.66 303.87) rotate(-61.45)"/><ellipse class="cls-9" cx="230.54" cy="195.46" rx="0.09" ry="0.08" transform="translate(-51.33 304.57) rotate(-61.45)"/><ellipse class="cls-9" cx="242.57" cy="197.87" rx="0.09" ry="0.08" transform="translate(-47.16 316.4) rotate(-61.45)"/><ellipse class="cls-9" cx="251.56" cy="210.12" rx="0.09" ry="0.08" transform="translate(-53.23 330.69) rotate(-61.45)"/><ellipse class="cls-9" cx="256.27" cy="209.92" rx="0.09" ry="0.08" transform="translate(-50.59 334.72) rotate(-61.45)"/><circle class="cls-9" cx="246.49" cy="201.61" r="0.46"/><circle class="cls-9" cx="217.05" cy="190.4" r="0.46"/><circle class="cls-9" cx="252.38" cy="183.08" r="0.46"/><circle class="cls-9" cx="237.51" cy="199.33" r="0.46"/><circle class="cls-9" cx="248.39" cy="174.58" r="0.46"/><circle class="cls-9" cx="227.52" cy="174.28" r="0.46"/><circle class="cls-9" cx="254.87" cy="198.12" r="0.46"/><circle class="cls-9" cx="232.96" cy="189.21" r="0.46"/><circle class="cls-9" cx="222.71" cy="190.51" r="0.46"/><circle class="cls-9" cx="213.4" cy="184.18" r="0.46"/><ellipse class="cls-9" cx="239.48" cy="187.33" rx="0.09" ry="0.08" transform="translate(-39.52 308.18) rotate(-61.45)"/><ellipse class="cls-9" cx="236.19" cy="188.3" rx="0.09" ry="0.08" transform="translate(-42.09 305.8) rotate(-61.45)"/><ellipse class="cls-9" cx="235.86" cy="187.2" rx="0.09" ry="0.08" transform="translate(-41.29 304.94) rotate(-61.45)"/><ellipse class="cls-9" cx="238.96" cy="181.52" rx="0.09" ry="0.08" transform="translate(-34.69 304.69) rotate(-61.45)"/><ellipse class="cls-9" cx="239.8" cy="183.36" rx="0.09" ry="0.08" transform="translate(-35.86 306.39) rotate(-61.45)"/><ellipse class="cls-9" cx="231.86" cy="182.72" rx="0.09" ry="0.08" transform="translate(-39.45 299.08) rotate(-61.45)"/><ellipse class="cls-9" cx="228.57" cy="183.7" rx="0.09" ry="0.08" transform="translate(-42.02 296.7) rotate(-61.45)"/><ellipse class="cls-9" cx="228.24" cy="182.6" rx="0.09" ry="0.08" transform="translate(-41.23 295.84) rotate(-61.45)"/><ellipse class="cls-9" cx="231.34" cy="176.92" rx="0.09" ry="0.08" transform="translate(-34.62 295.59) rotate(-61.45)"/><ellipse class="cls-9" cx="232.18" cy="178.76" rx="0.09" ry="0.08" transform="translate(-35.8 297.29) rotate(-61.45)"/><ellipse class="cls-9" cx="239.47" cy="187.55" rx="0.09" ry="0.08" transform="translate(-39.72 308.29) rotate(-61.45)"/><ellipse class="cls-9" cx="239.75" cy="184.49" rx="0.09" ry="0.08" transform="translate(-36.88 306.94) rotate(-61.45)"/><ellipse class="cls-9" cx="236.47" cy="185.46" rx="0.09" ry="0.08" transform="translate(-39.45 304.56) rotate(-61.45)"/><ellipse class="cls-9" cx="243.52" cy="180.1" rx="0.09" ry="0.08" transform="translate(-31.05 307.96) rotate(-61.45)"/><ellipse class="cls-9" cx="236.14" cy="184.36" rx="0.09" ry="0.08" transform="translate(-38.65 303.7) rotate(-61.45)"/><ellipse class="cls-9" cx="239.23" cy="178.68" rx="0.09" ry="0.08" transform="translate(-32.05 303.45) rotate(-61.45)"/><ellipse class="cls-9" cx="241.59" cy="183.65" rx="0.09" ry="0.08" transform="translate(-35.18 308.11) rotate(-61.45)"/><ellipse class="cls-9" cx="240.07" cy="180.52" rx="0.09" ry="0.08" transform="translate(-33.22 305.15) rotate(-61.45)"/><circle class="cls-9" cx="243.99" cy="184.26" r="0.46"/><circle class="cls-9" cx="235.01" cy="181.99" r="0.46"/><ellipse class="cls-9" cx="255.04" cy="191.99" rx="0.09" ry="0.08" transform="translate(-35.48 324.28) rotate(-61.45)"/><ellipse class="cls-9" cx="255.33" cy="188.92" rx="0.09" ry="0.08" transform="translate(-32.64 322.93) rotate(-61.45)"/><ellipse class="cls-9" cx="252.04" cy="189.9" rx="0.09" ry="0.08" transform="translate(-35.21 320.55) rotate(-61.45)"/><ellipse class="cls-9" cx="259.1" cy="184.53" rx="0.09" ry="0.08" transform="translate(-26.81 323.95) rotate(-61.45)"/><ellipse class="cls-9" cx="251.71" cy="188.8" rx="0.09" ry="0.08" transform="translate(-34.42 319.69) rotate(-61.45)"/><ellipse class="cls-9" cx="254.81" cy="183.12" rx="0.09" ry="0.08" transform="translate(-27.81 319.44) rotate(-61.45)"/><ellipse class="cls-9" cx="257.17" cy="188.08" rx="0.09" ry="0.08" transform="translate(-30.94 324.11) rotate(-61.45)"/><ellipse class="cls-9" cx="255.65" cy="184.95" rx="0.09" ry="0.08" transform="translate(-28.99 321.14) rotate(-61.45)"/><circle class="cls-9" cx="250.59" cy="186.42" r="0.46"/><ellipse class="cls-9" cx="253.5" cy="198.05" rx="0.09" ry="0.08" transform="translate(-41.61 326.1) rotate(-61.45)"/><ellipse class="cls-9" cx="253.79" cy="194.99" rx="0.09" ry="0.08" transform="translate(-38.77 324.75) rotate(-61.45)"/><ellipse class="cls-9" cx="250.5" cy="195.96" rx="0.09" ry="0.08" transform="translate(-41.34 322.36) rotate(-61.45)"/><ellipse class="cls-9" cx="257.56" cy="190.6" rx="0.09" ry="0.08" transform="translate(-32.95 325.77) rotate(-61.45)"/><ellipse class="cls-9" cx="255.62" cy="194.15" rx="0.09" ry="0.08" transform="translate(-37.07 325.92) rotate(-61.45)"/><ellipse class="cls-9" cx="254.11" cy="191.02" rx="0.09" ry="0.08" transform="translate(-35.12 322.95) rotate(-61.45)"/><ellipse class="cls-9" cx="241.4" cy="197.45" rx="0.09" ry="0.08" transform="translate(-47.41 315.15) rotate(-61.45)"/><ellipse class="cls-9" cx="241.69" cy="194.39" rx="0.09" ry="0.08" transform="translate(-44.56 313.81) rotate(-61.45)"/><ellipse class="cls-9" cx="238.4" cy="195.36" rx="0.09" ry="0.08" transform="translate(-47.13 311.42) rotate(-61.45)"/><ellipse class="cls-9" cx="245.46" cy="190" rx="0.09" ry="0.08" transform="translate(-38.74 314.82) rotate(-61.45)"/><ellipse class="cls-9" cx="243.53" cy="193.55" rx="0.09" ry="0.08" transform="translate(-42.86 314.98) rotate(-61.45)"/><ellipse class="cls-9" cx="242.01" cy="190.42" rx="0.09" ry="0.08" transform="translate(-40.91 312.01) rotate(-61.45)"/><circle class="cls-9" cx="280.99" cy="147.3" r="0.46"/><circle class="cls-9" cx="269.82" cy="145.83" r="0.46"/><circle class="cls-9" cx="251.06" cy="154.95" r="0.46"/><circle class="cls-9" cx="286.2" cy="163.94" r="0.46"/><ellipse class="cls-9" cx="261.12" cy="160.19" rx="0.09" ry="0.08" transform="translate(-4.38 313.02) rotate(-61.45)"/><ellipse class="cls-9" cx="264.18" cy="160.48" rx="0.09" ry="0.08" transform="translate(-3.03 315.86) rotate(-61.45)"/><ellipse class="cls-9" cx="261.41" cy="157.13" rx="0.09" ry="0.08" transform="translate(-1.53 311.67) rotate(-61.45)"/><ellipse class="cls-9" cx="258.12" cy="158.1" rx="0.09" ry="0.08" transform="translate(-4.11 309.29) rotate(-61.45)"/><ellipse class="cls-9" cx="266.09" cy="162.9" rx="0.09" ry="0.08" transform="translate(-4.16 318.8) rotate(-61.45)"/><ellipse class="cls-9" cx="265.18" cy="152.73" rx="0.09" ry="0.08" transform="translate(4.29 312.69) rotate(-61.45)"/><ellipse class="cls-9" cx="257.79" cy="157" rx="0.09" ry="0.08" transform="translate(-3.31 308.43) rotate(-61.45)"/><ellipse class="cls-9" cx="260.88" cy="151.32" rx="0.09" ry="0.08" transform="translate(3.29 308.18) rotate(-61.45)"/><ellipse class="cls-9" cx="263.24" cy="156.29" rx="0.09" ry="0.08" transform="translate(0.16 312.85) rotate(-61.45)"/><ellipse class="cls-9" cx="246.43" cy="150.82" rx="0.09" ry="0.08" transform="translate(-3.81 295.22) rotate(-61.45)"/><ellipse class="cls-9" cx="247.43" cy="153.21" rx="0.09" ry="0.08" transform="translate(-5.39 297.35) rotate(-61.45)"/><ellipse class="cls-9" cx="249.69" cy="150.75" rx="0.09" ry="0.08" transform="translate(-2.05 298.05) rotate(-61.45)"/><ellipse class="cls-9" cx="261.72" cy="153.16" rx="0.09" ry="0.08" transform="translate(2.12 309.88) rotate(-61.45)"/><ellipse class="cls-9" cx="270.71" cy="165.41" rx="0.09" ry="0.08" transform="translate(-3.95 324.17) rotate(-61.45)"/><ellipse class="cls-9" cx="275.42" cy="165.21" rx="0.09" ry="0.08" transform="translate(-1.32 328.2) rotate(-61.45)"/><circle class="cls-9" cx="265.64" cy="156.9" r="0.46"/><circle class="cls-9" cx="236.2" cy="145.69" r="0.46"/><circle class="cls-9" cx="271.53" cy="138.37" r="0.46"/><circle class="cls-9" cx="256.66" cy="154.62" r="0.46"/><circle class="cls-9" cx="267.54" cy="129.87" r="0.46"/><circle class="cls-9" cx="246.67" cy="129.57" r="0.46"/><circle class="cls-9" cx="274.02" cy="153.41" r="0.46"/><circle class="cls-9" cx="252.11" cy="144.5" r="0.46"/><circle class="cls-9" cx="241.86" cy="145.81" r="0.46"/><circle class="cls-9" cx="232.55" cy="139.47" r="0.46"/><ellipse class="cls-9" cx="258.63" cy="142.62" rx="0.09" ry="0.08" transform="translate(9.76 301.66) rotate(-61.45)"/><ellipse class="cls-9" cx="255.34" cy="143.59" rx="0.09" ry="0.08" transform="translate(7.19 299.27) rotate(-61.45)"/><ellipse class="cls-9" cx="255.01" cy="142.5" rx="0.09" ry="0.08" transform="translate(7.98 298.42) rotate(-61.45)"/><ellipse class="cls-9" cx="258.1" cy="136.81" rx="0.09" ry="0.08" transform="translate(14.58 298.16) rotate(-61.45)"/><ellipse class="cls-9" cx="258.95" cy="138.65" rx="0.09" ry="0.08" transform="translate(13.41 299.86) rotate(-61.45)"/><ellipse class="cls-9" cx="251.01" cy="138.02" rx="0.09" ry="0.08" transform="translate(9.82 292.56) rotate(-61.45)"/><ellipse class="cls-9" cx="247.72" cy="138.99" rx="0.09" ry="0.08" transform="translate(7.25 290.18) rotate(-61.45)"/><ellipse class="cls-9" cx="247.39" cy="137.89" rx="0.09" ry="0.08" transform="translate(8.05 289.32) rotate(-61.45)"/><ellipse class="cls-9" cx="250.49" cy="132.21" rx="0.09" ry="0.08" transform="translate(14.65 289.07) rotate(-61.45)"/><ellipse class="cls-9" cx="251.33" cy="134.05" rx="0.09" ry="0.08" transform="translate(13.48 290.77) rotate(-61.45)"/><ellipse class="cls-9" cx="258.62" cy="142.85" rx="0.09" ry="0.08" transform="translate(9.55 301.76) rotate(-61.45)"/><ellipse class="cls-9" cx="258.9" cy="139.78" rx="0.09" ry="0.08" transform="translate(12.4 300.42) rotate(-61.45)"/><ellipse class="cls-9" cx="255.61" cy="140.75" rx="0.09" ry="0.08" transform="translate(9.83 298.03) rotate(-61.45)"/><ellipse class="cls-9" cx="262.67" cy="135.39" rx="0.09" ry="0.08" transform="translate(18.22 301.43) rotate(-61.45)"/><ellipse class="cls-9" cx="255.29" cy="139.66" rx="0.09" ry="0.08" transform="translate(10.62 297.18) rotate(-61.45)"/><ellipse class="cls-9" cx="258.38" cy="133.97" rx="0.09" ry="0.08" transform="translate(17.22 296.92) rotate(-61.45)"/><ellipse class="cls-9" cx="260.74" cy="138.94" rx="0.09" ry="0.08" transform="translate(14.1 301.59) rotate(-61.45)"/><ellipse class="cls-9" cx="259.22" cy="135.81" rx="0.09" ry="0.08" transform="translate(16.05 298.62) rotate(-61.45)"/><circle class="cls-9" cx="263.14" cy="139.55" r="0.46"/><circle class="cls-9" cx="254.16" cy="137.28" r="0.46"/><ellipse class="cls-9" cx="274.19" cy="147.28" rx="0.09" ry="0.08" transform="translate(13.79 317.76) rotate(-61.45)"/><ellipse class="cls-9" cx="274.48" cy="144.21" rx="0.09" ry="0.08" transform="translate(16.63 316.41) rotate(-61.45)"/><ellipse class="cls-9" cx="271.19" cy="145.19" rx="0.09" ry="0.08" transform="translate(14.06 314.03) rotate(-61.45)"/><ellipse class="cls-9" cx="278.25" cy="139.82" rx="0.09" ry="0.08" transform="translate(22.46 317.43) rotate(-61.45)"/><ellipse class="cls-9" cx="270.86" cy="144.09" rx="0.09" ry="0.08" transform="translate(14.86 313.17) rotate(-61.45)"/><ellipse class="cls-9" cx="273.96" cy="138.41" rx="0.09" ry="0.08" transform="translate(21.46 312.92) rotate(-61.45)"/><ellipse class="cls-9" cx="276.32" cy="143.37" rx="0.09" ry="0.08" transform="translate(18.33 317.59) rotate(-61.45)"/><ellipse class="cls-9" cx="274.8" cy="140.25" rx="0.09" ry="0.08" transform="translate(20.29 314.62) rotate(-61.45)"/><circle class="cls-9" cx="269.73" cy="141.71" r="0.46"/><ellipse class="cls-9" cx="272.65" cy="153.34" rx="0.09" ry="0.08" transform="translate(7.66 319.57) rotate(-61.45)"/><ellipse class="cls-9" cx="272.94" cy="150.28" rx="0.09" ry="0.08" transform="translate(10.5 318.22) rotate(-61.45)"/><ellipse class="cls-9" cx="269.65" cy="151.25" rx="0.09" ry="0.08" transform="translate(7.93 315.84) rotate(-61.45)"/><ellipse class="cls-9" cx="276.71" cy="145.89" rx="0.09" ry="0.08" transform="translate(16.33 319.24) rotate(-61.45)"/><ellipse class="cls-9" cx="274.77" cy="149.44" rx="0.09" ry="0.08" transform="translate(12.2 319.4) rotate(-61.45)"/><ellipse class="cls-9" cx="273.25" cy="146.31" rx="0.09" ry="0.08" transform="translate(14.15 316.43) rotate(-61.45)"/><ellipse class="cls-9" cx="260.55" cy="152.75" rx="0.09" ry="0.08" transform="translate(1.87 308.63) rotate(-61.45)"/><ellipse class="cls-9" cx="260.84" cy="149.68" rx="0.09" ry="0.08" transform="translate(4.71 307.28) rotate(-61.45)"/><ellipse class="cls-9" cx="257.55" cy="150.65" rx="0.09" ry="0.08" transform="translate(2.14 304.9) rotate(-61.45)"/><ellipse class="cls-9" cx="264.61" cy="145.29" rx="0.09" ry="0.08" transform="translate(10.54 308.3) rotate(-61.45)"/><ellipse class="cls-9" cx="262.68" cy="148.84" rx="0.09" ry="0.08" transform="translate(6.41 308.46) rotate(-61.45)"/><ellipse class="cls-9" cx="261.16" cy="145.71" rx="0.09" ry="0.08" transform="translate(8.36 305.49) rotate(-61.45)"/><circle class="cls-9" cx="217.76" cy="221.53" r="0.46"/><circle class="cls-9" cx="206.59" cy="220.05" r="0.46"/><circle class="cls-9" cx="187.83" cy="229.17" r="0.46"/><circle class="cls-9" cx="222.97" cy="238.17" r="0.46"/><ellipse class="cls-9" cx="197.89" cy="234.42" rx="0.09" ry="0.08" transform="translate(-102.59 296.23) rotate(-61.45)"/><ellipse class="cls-9" cx="200.96" cy="234.7" rx="0.09" ry="0.08" transform="translate(-101.25 299.08) rotate(-61.45)"/><ellipse class="cls-9" cx="198.18" cy="231.35" rx="0.09" ry="0.08" transform="translate(-99.75 294.88) rotate(-61.45)"/><ellipse class="cls-9" cx="194.89" cy="232.32" rx="0.09" ry="0.08" transform="translate(-102.32 292.5) rotate(-61.45)"/><ellipse class="cls-9" cx="202.86" cy="237.12" rx="0.09" ry="0.08" transform="translate(-102.37 302.01) rotate(-61.45)"/><ellipse class="cls-9" cx="201.95" cy="226.96" rx="0.09" ry="0.08" transform="translate(-93.93 295.9) rotate(-61.45)"/><ellipse class="cls-9" cx="194.56" cy="231.23" rx="0.09" ry="0.08" transform="translate(-101.53 291.64) rotate(-61.45)"/><ellipse class="cls-9" cx="197.65" cy="225.55" rx="0.09" ry="0.08" transform="translate(-94.92 291.39) rotate(-61.45)"/><ellipse class="cls-9" cx="200.01" cy="230.51" rx="0.09" ry="0.08" transform="translate(-98.05 296.06) rotate(-61.45)"/><ellipse class="cls-9" cx="183.2" cy="225.05" rx="0.09" ry="0.08" transform="translate(-102.03 278.43) rotate(-61.45)"/><ellipse class="cls-9" cx="184.2" cy="227.43" rx="0.09" ry="0.08" transform="translate(-103.6 280.56) rotate(-61.45)"/><ellipse class="cls-9" cx="186.46" cy="224.98" rx="0.09" ry="0.08" transform="translate(-100.27 281.26) rotate(-61.45)"/><ellipse class="cls-9" cx="198.5" cy="227.38" rx="0.09" ry="0.08" transform="translate(-96.1 293.09) rotate(-61.45)"/><ellipse class="cls-9" cx="207.48" cy="239.63" rx="0.09" ry="0.08" transform="translate(-102.17 307.38) rotate(-61.45)"/><ellipse class="cls-9" cx="212.19" cy="239.43" rx="0.09" ry="0.08" transform="translate(-99.54 311.41) rotate(-61.45)"/><circle class="cls-9" cx="202.41" cy="231.13" r="0.46"/><circle class="cls-9" cx="172.97" cy="219.92" r="0.46"/><circle class="cls-9" cx="208.3" cy="212.59" r="0.46"/><circle class="cls-9" cx="193.43" cy="228.85" r="0.46"/><circle class="cls-9" cx="204.31" cy="204.09" r="0.46"/><circle class="cls-9" cx="183.44" cy="203.8" r="0.46"/><circle class="cls-9" cx="210.79" cy="227.64" r="0.46"/><circle class="cls-9" cx="188.88" cy="218.73" r="0.46"/><circle class="cls-9" cx="178.63" cy="220.03" r="0.46"/><circle class="cls-9" cx="169.32" cy="213.7" r="0.46"/><ellipse class="cls-9" cx="195.4" cy="216.85" rx="0.09" ry="0.08" transform="translate(-88.46 284.87) rotate(-61.45)"/><ellipse class="cls-9" cx="192.11" cy="217.82" rx="0.09" ry="0.08" transform="translate(-91.03 282.49) rotate(-61.45)"/><ellipse class="cls-9" cx="191.78" cy="216.72" rx="0.09" ry="0.08" transform="translate(-90.24 281.63) rotate(-61.45)"/><ellipse class="cls-9" cx="194.88" cy="211.04" rx="0.09" ry="0.08" transform="translate(-83.63 281.38) rotate(-61.45)"/><ellipse class="cls-9" cx="195.72" cy="212.88" rx="0.09" ry="0.08" transform="translate(-84.81 283.08) rotate(-61.45)"/><ellipse class="cls-9" cx="187.78" cy="212.24" rx="0.09" ry="0.08" transform="translate(-88.39 275.77) rotate(-61.45)"/><ellipse class="cls-9" cx="184.49" cy="213.21" rx="0.09" ry="0.08" transform="translate(-90.96 273.39) rotate(-61.45)"/><ellipse class="cls-9" cx="184.17" cy="212.12" rx="0.09" ry="0.08" transform="translate(-90.17 272.53) rotate(-61.45)"/><ellipse class="cls-9" cx="187.26" cy="206.43" rx="0.09" ry="0.08" transform="translate(-83.57 272.28) rotate(-61.45)"/><ellipse class="cls-9" cx="188.1" cy="208.27" rx="0.09" ry="0.08" transform="translate(-84.74 273.98) rotate(-61.45)"/><ellipse class="cls-9" cx="195.39" cy="217.07" rx="0.09" ry="0.08" transform="translate(-88.66 284.98) rotate(-61.45)"/><ellipse class="cls-9" cx="195.68" cy="214.01" rx="0.09" ry="0.08" transform="translate(-85.82 283.63) rotate(-61.45)"/><ellipse class="cls-9" cx="192.39" cy="214.98" rx="0.09" ry="0.08" transform="translate(-88.39 281.25) rotate(-61.45)"/><ellipse class="cls-9" cx="199.44" cy="209.61" rx="0.09" ry="0.08" transform="translate(-79.99 284.65) rotate(-61.45)"/><ellipse class="cls-9" cx="192.06" cy="213.88" rx="0.09" ry="0.08" transform="translate(-87.6 280.39) rotate(-61.45)"/><ellipse class="cls-9" cx="195.15" cy="208.2" rx="0.09" ry="0.08" transform="translate(-80.99 280.14) rotate(-61.45)"/><ellipse class="cls-9" cx="197.51" cy="213.16" rx="0.09" ry="0.08" transform="translate(-84.12 284.8) rotate(-61.45)"/><ellipse class="cls-9" cx="195.99" cy="210.04" rx="0.09" ry="0.08" transform="translate(-82.17 281.84) rotate(-61.45)"/><circle class="cls-9" cx="199.91" cy="213.78" r="0.46"/><circle class="cls-9" cx="190.93" cy="211.5" r="0.46"/><ellipse class="cls-9" cx="210.96" cy="221.51" rx="0.09" ry="0.08" transform="translate(-84.43 300.97) rotate(-61.45)"/><ellipse class="cls-9" cx="211.25" cy="218.44" rx="0.09" ry="0.08" transform="translate(-81.58 299.63) rotate(-61.45)"/><ellipse class="cls-9" cx="207.96" cy="219.41" rx="0.09" ry="0.08" transform="translate(-84.16 297.24) rotate(-61.45)"/><ellipse class="cls-9" cx="215.02" cy="214.05" rx="0.09" ry="0.08" transform="translate(-75.76 300.64) rotate(-61.45)"/><ellipse class="cls-9" cx="207.63" cy="218.32" rx="0.09" ry="0.08" transform="translate(-83.36 296.39) rotate(-61.45)"/><ellipse class="cls-9" cx="210.73" cy="212.63" rx="0.09" ry="0.08" transform="translate(-76.76 296.13) rotate(-61.45)"/><ellipse class="cls-9" cx="213.09" cy="217.6" rx="0.09" ry="0.08" transform="translate(-79.89 300.8) rotate(-61.45)"/><ellipse class="cls-9" cx="211.57" cy="214.47" rx="0.09" ry="0.08" transform="translate(-77.93 297.83) rotate(-61.45)"/><circle class="cls-9" cx="206.51" cy="215.94" r="0.46"/><ellipse class="cls-9" cx="209.42" cy="227.57" rx="0.09" ry="0.08" transform="translate(-90.56 302.79) rotate(-61.45)"/><ellipse class="cls-9" cx="209.71" cy="224.5" rx="0.09" ry="0.08" transform="translate(-87.72 301.44) rotate(-61.45)"/><ellipse class="cls-9" cx="206.42" cy="225.48" rx="0.09" ry="0.08" transform="translate(-90.29 299.06) rotate(-61.45)"/><ellipse class="cls-9" cx="213.48" cy="220.11" rx="0.09" ry="0.08" transform="translate(-81.89 302.46) rotate(-61.45)"/><ellipse class="cls-9" cx="211.55" cy="223.66" rx="0.09" ry="0.08" transform="translate(-86.02 302.61) rotate(-61.45)"/><ellipse class="cls-9" cx="210.03" cy="220.54" rx="0.09" ry="0.08" transform="translate(-84.06 299.65) rotate(-61.45)"/><ellipse class="cls-9" cx="197.32" cy="226.97" rx="0.09" ry="0.08" transform="translate(-96.35 291.84) rotate(-61.45)"/><ellipse class="cls-9" cx="197.61" cy="223.91" rx="0.09" ry="0.08" transform="translate(-93.51 290.5) rotate(-61.45)"/><ellipse class="cls-9" cx="194.32" cy="224.88" rx="0.09" ry="0.08" transform="translate(-96.08 288.11) rotate(-61.45)"/><ellipse class="cls-9" cx="201.38" cy="219.51" rx="0.09" ry="0.08" transform="translate(-87.68 291.51) rotate(-61.45)"/><ellipse class="cls-9" cx="199.45" cy="223.06" rx="0.09" ry="0.08" transform="translate(-91.81 291.67) rotate(-61.45)"/><ellipse class="cls-9" cx="197.93" cy="219.94" rx="0.09" ry="0.08" transform="translate(-89.86 288.7) rotate(-61.45)"/><path class="cls-10" d="M68.53,245.75c2.3-17.19,51.74-18.68,53.15-34.82.47-5.32-4.91-6.3-5.5-14.66-.9-12.94,10.4-23.65,13.75-26.58,16.39-14.31,31.48-7.17,36.65-16.49C175,138,143,104.75,146.42,101.88c2.09-1.75,12.61,12,21.08,9.17,6.41-2.14,5.2-11.6,11.91-23.83,2.23-4,12.49-21.85,31.16-26.57,22.12-5.6,42.64,10.53,42.15,11.91-.36,1-12.61-6.3-29.32-3.67-3.31.53-23.47,4.32-31.16,19.25-7.34,14.26,2,32.41-1.83,33.9-3.2,1.24-9-11.36-13.75-10.08-3.72,1-4.95,10.15-4.58,17.41,1.15,22,17.43,32.49,13.75,38.49-3.82,6.22-21-5.4-39.41,2.75-9.51,4.22-19.06,13.61-21.07,24.74-1.8,10,3.71,14.47,6.41,30.24,2.25,13.13-5.38,21.27,0,28.41,2.7,3.57,6.41,4.74,6.42,8.25s-3.8,7.64-7.33,7.33c-4-.35-6-6.18-6.42-7.33-2.4-7,1.7-10.3.92-20.16,0-.61-1-11.27-4.58-11.91-2.14-.38-3.38,3-8.25,8.24-3,3.16-12,12.8-19.25,11-2.88-.71-3.28-2.68-6.41-2.75a10.07,10.07,0,0,0-8.25,4.58c-2.7,4.19-.74,8.78-1.83,9.17C75.23,261,67.56,253,68.53,245.75Z"/><path class="cls-11" d="M251.07,239.92a98.83,98.83,0,0,0-4.59,17.39c-1.7,10.12-2.54,24.57-2.75,28.09-.43,7.52-.48,11.57-2.74,14.72-2,2.73-5.4,4.49-7.34,2.67-2.92-2.73-2.66-13.76-.91-21.4.74-3.23,1.66-5.53.91-8-.84-2.8-3.47-4.81-5.49-4-.66.26-1.65,1-4.59,9.37-2.25,6.44-2.26,7.69-3.66,9.36-.17.2-2.94,3.39-6.42,2.67-3.88-.8-4.54-5.65-7.33-5.35-3,.33-5,6.43-5.49,8a26.47,26.47,0,0,0-.92,12c.38,2.17.9,3,.92,5.35,0,1,0,5.46-1.84,6.69-1.51,1-3.64-.55-4.58-2.68-.81-1.82-.39-3.27,0-9.36a67.94,67.94,0,0,0,0-12c-.32-3.06-.65-6.17-1.83-6.69s-1.91,2.38-4.58,4a6.1,6.1,0,0,1-8.25-1.33c-3.51-4.27-3.66-17.34-3.67-18.34a111.78,111.78,0,0,0,75.15-31.16Z"/></g></svg>