<svg xmlns="http://www.w3.org/2000/svg" width="870" height="390" viewBox="0 0 870 390"><defs><style>.cls-1{fill:#fff2f8;}</style></defs><g id="Layer_3" data-name="Layer 3"><path class="cls-1" d="M3,32.89a543.18,543.18,0,0,1,146,11c55.26,11.88,79.58,26.38,109,36,120.49,39.37,200.08-44.56,374-70C683.23,2.4,763-3,866,16.89q.5,126,1,252c-4-3.32-23.73-19.13-51-16-5.77.66-27.82,3.17-39,20-12.21,18.36-1.46,49.19,4,66,4.12,12.72,8.56,20.87,5,31-2.63,7.51-10,17-20,17-10.33,0-17.63-10.24-20-18-3-9.68.94-18.3,3-24,9.29-25.9,7.49-66.05-11-79-13.83-9.69-37.94-7.79-50,5-13.79,14.61-7.81,42.16-7,46,2.75,13.05,7.81,17.62,5,26-3,8.86-13.24,17.6-24,16-10.3-1.54-15.39-11.73-16-13-4.44-9.25-1.59-18.4,0-26,3.56-17.24,5.42-50.14-7-59s-39.59,6.78-64,21c-14.37,8.36-21,13.12-27.16,17.86C531.9,312.1,528.56,318.9,514,321.89c-31.09,6.39-67.85-13.88-88-37-18.28-21-16.93-37.43-35-44-16-5.8-38.21,0-47,14-4.4,7-4.24,14.54-4,27,.39,21.38,7.12,28.07,2,38-3.4,6.61-11.08,12.76-19,12-9.35-.9-14.5-11-15-12-5.21-10.59.77-18.51,3-36,1.13-9,5-37.3-9-47-12.34-8.56-31-.69-35,1-17.85,7.53-16.63,18.39-33,27-15.16,8-38.51,10.38-54,0-16.16-10.83-10.83-26.88-27-35-12.71-6.38-30.51-3.76-41,5-9.74,8.12-6,15.54-16,27-10.16,11.68-24.55,14.1-40,17a127.43,127.43,0,0,1-51-1Q4,155.39,3,32.89Z"/></g></svg>