<svg width="203" height="203" viewBox="0 0 203 203" fill="none" xmlns="http://www.w3.org/2000/svg">
<g filter="url(#filter0_d_384_3016)">
<rect x="19" y="17" width="165" height="164.75" fill="#FBF7F1"/>
</g>
<path d="M55.1395 145.118V158.209H52.768V145.118H55.1395ZM65.3652 150.986L63.2558 151.216C63.1961 151.003 63.0917 150.803 62.9426 150.615C62.7977 150.428 62.6017 150.277 62.3545 150.161C62.1073 150.046 61.8048 149.989 61.4468 149.989C60.9653 149.989 60.5605 150.093 60.2323 150.302C59.9085 150.511 59.7487 150.781 59.7529 151.114C59.7487 151.399 59.8531 151.632 60.0662 151.811C60.2835 151.99 60.6414 152.137 61.14 152.252L62.8147 152.61C63.7437 152.81 64.4341 153.127 64.8858 153.562C65.3417 153.997 65.5718 154.566 65.5761 155.269C65.5718 155.887 65.3907 156.432 65.0328 156.905C64.6791 157.374 64.1869 157.74 63.5562 158.004C62.9255 158.269 62.2011 158.401 61.3829 158.401C60.1812 158.401 59.2139 158.149 58.4809 157.647C57.748 157.139 57.3112 156.434 57.1706 155.531L59.427 155.313C59.5292 155.757 59.7466 156.091 60.0789 156.317C60.4113 156.543 60.8439 156.656 61.3765 156.656C61.9262 156.656 62.3673 156.543 62.6997 156.317C63.0363 156.091 63.2047 155.812 63.2047 155.48C63.2047 155.198 63.096 154.966 62.8787 154.783C62.6656 154.6 62.3332 154.459 61.8815 154.361L60.2068 154.009C59.265 153.813 58.5683 153.483 58.1166 153.019C57.6649 152.55 57.4412 151.958 57.4454 151.242C57.4412 150.637 57.6052 150.112 57.9376 149.669C58.2743 149.222 58.7409 148.877 59.3375 148.634C59.9383 148.387 60.6308 148.263 61.4149 148.263C62.5654 148.263 63.471 148.508 64.1315 148.998C64.7963 149.488 65.2075 150.151 65.3652 150.986ZM71.1276 158.382C70.3563 158.382 69.6659 158.183 69.0566 157.787C68.4472 157.391 67.9657 156.816 67.612 156.061C67.2583 155.307 67.0814 154.391 67.0814 153.313C67.0814 152.222 67.2604 151.301 67.6184 150.551C67.9806 149.797 68.4685 149.228 69.0821 148.845C69.6958 148.457 70.3797 148.263 71.134 148.263C71.7093 148.263 72.1823 148.361 72.553 148.557C72.9238 148.749 73.2178 148.981 73.4351 149.254C73.6524 149.522 73.8208 149.776 73.9401 150.014H74.036V145.118H76.3563V158.209H74.0807V156.662H73.9401C73.8208 156.901 73.6482 157.154 73.4223 157.423C73.1965 157.687 72.8982 157.913 72.5274 158.1C72.1567 158.288 71.6901 158.382 71.1276 158.382ZM71.7732 156.483C72.2632 156.483 72.6809 156.351 73.026 156.087C73.3712 155.818 73.6333 155.446 73.8122 154.968C73.9912 154.491 74.0807 153.935 74.0807 153.3C74.0807 152.665 73.9912 152.113 73.8122 151.644C73.6375 151.176 73.3776 150.811 73.0324 150.551C72.6915 150.291 72.2718 150.161 71.7732 150.161C71.2576 150.161 70.8272 150.296 70.482 150.564C70.1368 150.833 69.8769 151.203 69.7022 151.676C69.5274 152.149 69.4401 152.691 69.4401 153.3C69.4401 153.914 69.5274 154.461 69.7022 154.943C69.8811 155.42 70.1432 155.797 70.4884 156.074C70.8378 156.347 71.2661 156.483 71.7732 156.483ZM83.1686 158.401C82.1842 158.401 81.3341 158.196 80.6182 157.787C79.9065 157.374 79.3589 156.79 78.9754 156.036C78.5919 155.277 78.4001 154.384 78.4001 153.357C78.4001 152.348 78.5919 151.461 78.9754 150.698C79.3632 149.931 79.9044 149.335 80.599 148.909C81.2936 148.478 82.1097 148.263 83.0472 148.263C83.6523 148.263 84.2233 148.361 84.7602 148.557C85.3014 148.749 85.7787 149.047 86.192 149.452C86.6097 149.857 86.9378 150.372 87.1764 150.999C87.4151 151.621 87.5344 152.362 87.5344 153.223V153.933H79.4868V152.373H85.3163C85.3121 151.93 85.2162 151.536 85.0287 151.191C84.8412 150.841 84.5791 150.566 84.2425 150.366C83.9101 150.166 83.5223 150.066 83.0791 150.066C82.6061 150.066 82.1906 150.181 81.8327 150.411C81.4747 150.637 81.1956 150.935 80.9953 151.306C80.7993 151.672 80.6991 152.075 80.6949 152.514V153.875C80.6949 154.446 80.7993 154.936 81.0081 155.345C81.2169 155.75 81.5088 156.061 81.8838 156.279C82.2588 156.492 82.6977 156.598 83.2006 156.598C83.5372 156.598 83.8419 156.551 84.1146 156.458C84.3874 156.36 84.6239 156.217 84.8241 156.029C85.0244 155.842 85.1757 155.61 85.278 155.333L87.4385 155.576C87.3021 156.147 87.0422 156.645 86.6587 157.071C86.2794 157.493 85.7936 157.821 85.2013 158.056C84.6089 158.286 83.9314 158.401 83.1686 158.401ZM97.2519 150.986L95.1425 151.216C95.0828 151.003 94.9784 150.803 94.8293 150.615C94.6844 150.428 94.4884 150.277 94.2412 150.161C93.9941 150.046 93.6915 149.989 93.3336 149.989C92.852 149.989 92.4472 150.093 92.1191 150.302C91.7952 150.511 91.6354 150.781 91.6397 151.114C91.6354 151.399 91.7398 151.632 91.9529 151.811C92.1702 151.99 92.5282 152.137 93.0267 152.252L94.7015 152.61C95.6304 152.81 96.3208 153.127 96.7725 153.562C97.2284 153.997 97.4586 154.566 97.4628 155.269C97.4586 155.887 97.2774 156.432 96.9195 156.905C96.5658 157.374 96.0736 157.74 95.4429 158.004C94.8122 158.269 94.0878 158.401 93.2696 158.401C92.0679 158.401 91.1006 158.149 90.3676 157.647C89.6347 157.139 89.1979 156.434 89.0573 155.531L91.3137 155.313C91.4159 155.757 91.6333 156.091 91.9657 156.317C92.298 156.543 92.7306 156.656 93.2632 156.656C93.813 156.656 94.254 156.543 94.5864 156.317C94.923 156.091 95.0914 155.812 95.0914 155.48C95.0914 155.198 94.9827 154.966 94.7654 154.783C94.5523 154.6 94.2199 154.459 93.7682 154.361L92.0935 154.009C91.1517 153.813 90.455 153.483 90.0033 153.019C89.5516 152.55 89.3279 151.958 89.3321 151.242C89.3279 150.637 89.4919 150.112 89.8243 149.669C90.161 149.222 90.6276 148.877 91.2242 148.634C91.825 148.387 92.5175 148.263 93.3016 148.263C94.4522 148.263 95.3577 148.508 96.0182 148.998C96.683 149.488 97.0942 150.151 97.2519 150.986ZM107.131 150.986L105.021 151.216C104.962 151.003 104.857 150.803 104.708 150.615C104.563 150.428 104.367 150.277 104.12 150.161C103.873 150.046 103.57 149.989 103.212 149.989C102.731 149.989 102.326 150.093 101.998 150.302C101.674 150.511 101.514 150.781 101.519 151.114C101.514 151.399 101.619 151.632 101.832 151.811C102.049 151.99 102.407 152.137 102.906 152.252L104.58 152.61C105.509 152.81 106.2 153.127 106.651 153.562C107.107 153.997 107.337 154.566 107.342 155.269C107.337 155.887 107.156 156.432 106.798 156.905C106.445 157.374 105.953 157.74 105.322 158.004C104.691 158.269 103.967 158.401 103.149 158.401C101.947 158.401 100.98 158.149 100.247 157.647C99.5136 157.139 99.0768 156.434 98.9362 155.531L101.193 155.313C101.295 155.757 101.512 156.091 101.845 156.317C102.177 156.543 102.609 156.656 103.142 156.656C103.692 156.656 104.133 156.543 104.465 156.317C104.802 156.091 104.97 155.812 104.97 155.48C104.97 155.198 104.862 154.966 104.644 154.783C104.431 154.6 104.099 154.459 103.647 154.361L101.972 154.009C101.031 153.813 100.334 153.483 99.8822 153.019C99.4305 152.55 99.2068 151.958 99.211 151.242C99.2068 150.637 99.3708 150.112 99.7032 149.669C100.04 149.222 100.506 148.877 101.103 148.634C101.704 148.387 102.396 148.263 103.181 148.263C104.331 148.263 105.237 148.508 105.897 148.998C106.562 149.488 106.973 150.151 107.131 150.986ZM113.596 158.401C112.612 158.401 111.762 158.196 111.046 157.787C110.334 157.374 109.787 156.79 109.403 156.036C109.02 155.277 108.828 154.384 108.828 153.357C108.828 152.348 109.02 151.461 109.403 150.698C109.791 149.931 110.332 149.335 111.027 148.909C111.721 148.478 112.537 148.263 113.475 148.263C114.08 148.263 114.651 148.361 115.188 148.557C115.729 148.749 116.206 149.047 116.62 149.452C117.037 149.857 117.366 150.372 117.604 150.999C117.843 151.621 117.962 152.362 117.962 153.223V153.933H109.915V152.373H115.744C115.74 151.93 115.644 151.536 115.456 151.191C115.269 150.841 115.007 150.566 114.67 150.366C114.338 150.166 113.95 150.066 113.507 150.066C113.034 150.066 112.618 150.181 112.26 150.411C111.902 150.637 111.623 150.935 111.423 151.306C111.227 151.672 111.127 152.075 111.123 152.514V153.875C111.123 154.446 111.227 154.936 111.436 155.345C111.645 155.75 111.937 156.061 112.312 156.279C112.687 156.492 113.125 156.598 113.628 156.598C113.965 156.598 114.27 156.551 114.542 156.458C114.815 156.36 115.052 156.217 115.252 156.029C115.452 155.842 115.603 155.61 115.706 155.333L117.866 155.576C117.73 156.147 117.47 156.645 117.086 157.071C116.707 157.493 116.221 157.821 115.629 158.056C115.037 158.286 114.359 158.401 113.596 158.401ZM119.92 158.209V148.391H122.163V150.027H122.266C122.445 149.46 122.751 149.024 123.186 148.717C123.625 148.406 124.126 148.25 124.688 148.25C124.816 148.25 124.959 148.257 125.116 148.269C125.278 148.278 125.413 148.293 125.519 148.314V150.443C125.421 150.409 125.266 150.379 125.052 150.353C124.844 150.323 124.641 150.308 124.445 150.308C124.023 150.308 123.644 150.4 123.307 150.583C122.975 150.762 122.713 151.012 122.521 151.331C122.329 151.651 122.234 152.019 122.234 152.437V158.209H119.92ZM132.486 148.391V150.181H126.842V148.391H132.486ZM128.236 146.039H130.55V155.256C130.55 155.567 130.597 155.806 130.69 155.972C130.788 156.134 130.916 156.245 131.074 156.304C131.231 156.364 131.406 156.394 131.598 156.394C131.743 156.394 131.875 156.383 131.994 156.362C132.118 156.34 132.212 156.321 132.275 156.304L132.665 158.113C132.542 158.156 132.365 158.203 132.135 158.254C131.909 158.305 131.632 158.335 131.304 158.343C130.724 158.36 130.202 158.273 129.738 158.081C129.273 157.885 128.905 157.583 128.632 157.174C128.364 156.764 128.231 156.253 128.236 155.639V146.039ZM138.663 158.401C137.678 158.401 136.828 158.196 136.112 157.787C135.401 157.374 134.853 156.79 134.47 156.036C134.086 155.277 133.894 154.384 133.894 153.357C133.894 152.348 134.086 151.461 134.47 150.698C134.857 149.931 135.399 149.335 136.093 148.909C136.788 148.478 137.604 148.263 138.541 148.263C139.146 148.263 139.717 148.361 140.254 148.557C140.796 148.749 141.273 149.047 141.686 149.452C142.104 149.857 142.432 150.372 142.671 150.999C142.909 151.621 143.029 152.362 143.029 153.223V153.933H134.981V152.373H140.81C140.806 151.93 140.71 151.536 140.523 151.191C140.335 150.841 140.073 150.566 139.737 150.366C139.404 150.166 139.016 150.066 138.573 150.066C138.1 150.066 137.685 150.181 137.327 150.411C136.969 150.637 136.69 150.935 136.489 151.306C136.293 151.672 136.193 152.075 136.189 152.514V153.875C136.189 154.446 136.293 154.936 136.502 155.345C136.711 155.75 137.003 156.061 137.378 156.279C137.753 156.492 138.192 156.598 138.695 156.598C139.031 156.598 139.336 156.551 139.609 156.458C139.881 156.36 140.118 156.217 140.318 156.029C140.519 155.842 140.67 155.61 140.772 155.333L142.933 155.576C142.796 156.147 142.536 156.645 142.153 157.071C141.774 157.493 141.288 157.821 140.695 158.056C140.103 158.286 139.426 158.401 138.663 158.401ZM144.986 158.209V148.391H147.23V150.027H147.332C147.511 149.46 147.818 149.024 148.252 148.717C148.691 148.406 149.192 148.25 149.755 148.25C149.882 148.25 150.025 148.257 150.183 148.269C150.345 148.278 150.479 148.293 150.586 148.314V150.443C150.487 150.409 150.332 150.379 150.119 150.353C149.91 150.323 149.708 150.308 149.512 150.308C149.09 150.308 148.711 150.4 148.374 150.583C148.041 150.762 147.779 151.012 147.588 151.331C147.396 151.651 147.3 152.019 147.3 152.437V158.209H144.986Z" fill="#363636"/>
<g clip-path="url(#clip0_384_3016)">
<g opacity="0.64">
<path d="M108.851 64.8846C108.851 64.9087 108.806 64.9708 108.83 64.9708L108.896 64.8777L108.851 64.8846Z" fill="white"/>
<path d="M108.882 65.1432C108.954 65.0923 109.011 65.0217 109.044 64.9398C108.968 65.0225 108.982 64.9777 108.896 65.0777C108.872 65.0777 108.896 65.0294 108.896 64.9949C108.875 65.0156 108.879 64.9535 108.834 64.9949C108.789 65.0363 108.834 65.1053 108.913 65.0604C108.903 65.1053 108.903 65.1259 108.882 65.1432Z" fill="white"/>
<path d="M109.793 66.8128C109.793 66.8128 109.799 66.8073 109.793 66.8128V66.8128Z" fill="white"/>
<path d="M109.483 67.9259C109.483 67.9259 109.483 67.9259 109.483 67.9015C109.483 67.877 109.472 67.9224 109.483 67.9259Z" fill="white"/>
<path d="M109.281 68.0444C109.281 68.0444 109.27 68.0337 109.281 68.0444V68.0444Z" fill="white"/>
<path d="M109.793 66.8119L109.759 66.8464C109.797 66.8464 109.786 66.8291 109.793 66.8119Z" fill="white"/>
<path d="M109.286 65.0777C109.28 65.0754 109.274 65.0742 109.268 65.0742C109.263 65.0742 109.257 65.0754 109.251 65.0777H109.272H109.286Z" fill="white"/>
<path d="M109.414 66.0189C109.414 66.0189 109.5 65.981 109.534 65.9603C109.514 65.9719 109.492 65.9789 109.469 65.981L109.414 66.0189Z" fill="white"/>
<path d="M109.652 66.605H109.617C109.629 66.607 109.64 66.607 109.652 66.605Z" fill="white"/>
<path d="M102.55 75.9244L102.543 75.9209L102.49 75.9349L102.55 75.9244Z" fill="white"/>
<path d="M108.983 68.2823C108.983 68.2823 108.977 68.2716 108.983 68.2823V68.2823Z" fill="white"/>
<path d="M106.566 70.8389C106.652 70.8802 106.587 70.9664 106.697 71.0009C106.666 70.9733 106.642 70.8492 106.566 70.8389Z" fill="white"/>
<path d="M108.489 68.9839L108.526 69.0046L108.489 68.9839Z" fill="white"/>
<path d="M108.356 69.3289H108.333C108.333 69.3289 108.337 69.3251 108.356 69.3289Z" fill="white"/>
<path d="M103.232 74.6211L103.153 74.5831C103.212 74.6176 103.205 74.6728 103.232 74.6211Z" fill="white"/>
<path d="M109.248 65.119C109.265 65.119 109.275 65.0949 109.282 65.0949L109.248 65.119Z" fill="white"/>
<path d="M108.904 69.8701L108.851 69.905C108.871 69.8985 108.89 69.8864 108.904 69.8701Z" fill="white"/>
<path d="M108.731 70.0393C108.709 70.027 108.686 70.0187 108.661 70.0148V70.0393H108.731Z" fill="white"/>
<path d="M103.191 74.9762C103.212 74.9382 103.087 74.9038 103.025 74.8624C103.025 74.7934 103.122 74.8624 103.187 74.8934C103.187 74.852 103.084 74.7693 103.101 74.7486C103.118 74.7279 103.129 74.7486 103.149 74.7762C103.084 74.6935 103.201 74.6797 103.122 74.5728H103.149C103.098 74.5468 103.048 74.5168 103.001 74.4831C103.001 74.4625 102.96 74.4004 103.032 74.4418C103.032 74.4418 103.032 74.4728 103.067 74.49V74.4521C103.177 74.5004 103.067 74.5004 103.153 74.5521C103.153 74.4935 103.098 74.39 103.153 74.3797C103.249 74.4418 103.153 74.4693 103.246 74.4935H103.177C103.353 74.5659 103.149 74.5142 103.332 74.5969C103.398 74.5624 103.332 74.5004 103.398 74.4659C103.356 74.4142 103.318 74.4107 103.277 74.3556C103.253 74.2004 103.553 74.4831 103.484 74.328C103.436 74.2625 103.332 74.1556 103.425 74.1694L103.512 74.2728C103.567 74.228 103.398 74.1142 103.512 74.1177C103.539 74.1659 103.512 74.1901 103.512 74.1935C103.619 74.2315 103.481 74.1177 103.512 74.0901L103.602 74.1659C103.639 74.1004 103.643 73.9798 103.691 73.9039C103.712 73.9349 103.726 73.9694 103.764 73.9832C103.802 73.8694 103.947 73.8419 104.071 73.8281L104.036 73.7246C104.036 73.7246 104.078 73.7488 104.085 73.7695C104.092 73.7901 104.043 73.7212 104.033 73.6764C104.023 73.6315 104.095 73.7039 104.102 73.735C104.102 73.6246 104.15 73.4592 104.278 73.5005V73.5316C104.35 73.5316 104.209 73.3247 104.309 73.3661V73.3867C104.44 73.3419 104.506 73.1799 104.678 73.2454C104.609 73.1144 104.823 73.2213 104.713 73.0523C104.834 73.0868 104.837 73.1316 104.965 73.1247C104.992 73.1247 104.927 72.9937 104.944 72.9558L105.006 73.042L104.979 72.9247L105.075 73.0109V72.9696C105.075 72.9696 105.027 72.9489 105.01 72.9213C104.992 72.8937 105.158 72.9213 105.189 72.9523L105.241 72.8041C105.248 72.8346 105.248 72.8666 105.241 72.8972C105.241 72.7696 105.313 72.9834 105.306 72.8661C105.288 72.8445 105.273 72.82 105.262 72.7937C105.275 72.8005 105.289 72.8043 105.304 72.8049C105.319 72.8056 105.334 72.803 105.347 72.7975C105.361 72.7919 105.374 72.7835 105.384 72.7727C105.394 72.7619 105.402 72.7491 105.407 72.7351L105.445 72.8006C105.531 72.7593 105.583 72.6558 105.669 72.5938C105.617 72.5938 105.548 72.48 105.565 72.4524L105.645 72.5352C105.617 72.4662 105.593 72.5352 105.576 72.4283C105.614 72.4283 105.672 72.5145 105.676 72.5558V72.4972C105.7 72.5214 105.7 72.542 105.724 72.58C105.696 72.511 105.859 72.6213 105.807 72.5076L105.831 72.5317C105.914 72.4696 105.931 72.4076 105.993 72.3524C105.938 72.2731 105.993 72.2697 105.948 72.1938C106.017 72.1938 106.121 72.1938 106.176 72.1421C106.231 72.0904 106.138 72.0697 106.121 72.0111C106.176 72.0766 106.231 72.0111 106.242 72.0973C106.302 72.0386 106.345 71.9647 106.366 71.8835C106.335 71.8628 106.314 71.8594 106.3 71.8318C106.287 71.8042 106.359 71.8318 106.383 71.8663C106.383 71.6836 106.777 71.8663 106.728 71.6698L106.749 71.5284C106.797 71.5077 106.77 71.5974 106.832 71.618C106.832 71.4284 106.984 71.5146 106.994 71.3801C107.218 71.5284 107.181 71.1974 107.363 71.256L107.319 71.2147C107.298 71.1526 107.367 71.2147 107.388 71.2147C107.357 71.1802 107.332 71.1905 107.322 71.156C107.436 70.9561 107.715 70.925 107.919 70.8113C107.992 70.7699 107.736 70.5492 107.919 70.5837L107.974 70.6871C108.002 70.4768 108.223 70.4596 108.261 70.2631C108.261 70.2907 108.295 70.3148 108.282 70.3251C108.364 70.3596 108.375 70.2389 108.33 70.1907C108.351 70.1907 108.375 70.232 108.413 70.2458C108.451 70.2596 108.413 70.1079 108.468 70.1562C108.468 70.1562 108.468 70.1803 108.468 70.1907C108.468 70.1458 108.547 70.1217 108.468 70.07C108.544 70.07 108.52 69.9597 108.596 69.9631C108.54 69.8666 108.703 69.9252 108.596 69.8149C108.706 69.9252 108.761 69.8149 108.734 69.7459C108.761 69.7873 108.792 69.7459 108.83 69.8114C108.858 69.7769 108.865 69.7287 108.803 69.6804C108.996 69.7494 108.803 69.4563 109.01 69.5873C109.034 69.45 109.073 69.3158 109.127 69.1874C109.241 69.2942 109.051 69.2977 109.179 69.4011C109.206 69.2736 109.144 69.1391 109.244 69.0564C109.279 69.0564 109.286 69.1115 109.3 69.1391C109.324 69.0115 109.452 68.9736 109.445 68.8391C109.457 68.851 109.464 68.867 109.465 68.884C109.465 68.8633 109.514 68.8598 109.465 68.8185V68.846C109.365 68.8081 109.341 68.653 109.296 68.6219C109.441 68.7667 109.396 68.5702 109.572 68.7633C109.569 68.7471 109.562 68.7318 109.552 68.7187C109.541 68.7055 109.528 68.6949 109.514 68.6874C109.534 68.6874 109.562 68.6874 109.593 68.7357C109.593 68.653 109.527 68.6323 109.565 68.5806C109.593 68.5978 109.596 68.6185 109.628 68.6461C109.59 68.5806 109.555 68.5151 109.607 68.484C109.659 68.453 109.648 68.5082 109.638 68.522C109.683 68.4358 109.576 68.2944 109.679 68.2358C109.793 68.3358 109.741 68.2358 109.855 68.2875V68.2185H109.79C109.817 68.1772 109.752 68.0944 109.81 68.0772L109.842 68.1324L109.859 68.0393L109.793 68.0634C109.755 67.991 109.645 67.9979 109.703 67.9565C109.703 67.9565 109.724 67.9151 109.807 67.922C109.779 67.8841 109.748 67.8462 109.807 67.8255C109.866 67.8048 109.935 67.8876 109.962 67.891C109.873 67.829 109.962 67.7703 109.879 67.7048C109.91 67.7241 109.944 67.7381 109.98 67.7462L109.904 67.6979C109.919 67.6906 109.936 67.6867 109.954 67.6867C109.971 67.6867 109.988 67.6906 110.004 67.6979C110.038 67.6393 109.842 67.6669 109.931 67.6117C109.931 67.6117 109.952 67.6117 109.959 67.6393C110.021 67.5704 109.959 67.4704 110.014 67.4118C110.145 67.4118 110.014 67.4842 110.138 67.4842C110.138 67.367 110.038 67.2221 110.08 67.1394V67.1601C109.897 67.1256 110.176 67.0911 110.097 67.0256C110.097 67.0256 110.194 67.0498 110.176 67.0463C110.204 66.9705 110.138 66.8877 110.073 66.7808H110.121C110.159 66.736 110.121 66.6636 110.152 66.6153C110.104 66.6153 110.107 66.5774 110.042 66.6153C110.166 66.5257 110.118 66.4567 110.059 66.4016C110 66.3464 109.942 66.3016 110.028 66.2051C110.028 66.2051 110.08 66.2292 110.076 66.2051L109.997 66.112C109.928 66.1499 109.959 66.143 109.907 66.1844C109.855 66.2257 109.814 66.1844 109.804 66.1533C109.873 66.1775 109.924 66.1051 109.955 66.0706L109.886 66.0947C109.993 65.9878 109.735 66.1499 109.793 66.043H109.831C109.804 66.0258 109.741 66.043 109.738 65.9982C109.814 65.9465 109.79 65.9982 109.859 65.9741C109.835 65.9361 109.665 65.9741 109.728 65.9051C109.759 65.9051 109.772 65.9292 109.804 65.9327C109.879 65.8465 109.852 65.8534 109.852 65.8155V65.7258V65.7568C109.617 65.8396 109.759 65.6844 109.583 65.7155C109.748 65.6844 109.662 65.6775 109.748 65.6189C109.748 65.5879 109.769 65.5431 109.797 65.5327C109.71 65.5534 109.814 65.4431 109.686 65.4776C109.71 65.4534 109.662 65.4465 109.731 65.3983C109.679 65.3776 109.697 65.4431 109.659 65.4672C109.527 65.4948 109.659 65.2431 109.458 65.2845C109.351 65.2845 109.265 65.3431 109.172 65.3431C109.172 65.2845 109.265 65.2604 109.265 65.2604C109.265 65.1949 109.231 65.1811 109.179 65.188C109.203 65.188 109.21 65.1431 109.224 65.1052C109.238 65.0673 109.134 65.1914 109.127 65.1259C109.16 65.0925 109.195 65.0625 109.234 65.0363C109.182 65.0363 109.113 65.0673 109.065 65.0707C109.086 65.019 109.134 65.0121 109.168 64.988C109.135 64.9788 109.1 64.9784 109.067 64.9868C109.034 64.9953 109.003 65.0124 108.979 65.0363V65.0811C108.979 65.0811 109.013 65.0087 109.03 65.0018C109.103 64.9604 109.062 65.0604 109.03 65.088H108.996C108.91 65.2707 109.106 65.119 109.144 65.1673L109.041 65.2673L109.158 65.2052C109.158 65.2431 109.103 65.3121 109.068 65.3121C109.068 65.3914 109.127 65.3121 109.103 65.3741C109.103 65.3741 109.103 65.3914 109.086 65.3948H109.141C109.117 65.4121 109.082 65.4741 109.075 65.4465C109.075 65.5465 109.224 65.4465 109.172 65.5293C109.269 65.5534 109.248 65.4569 109.386 65.4155L109.234 65.6327L109.317 65.5638C109.317 65.5638 109.317 65.5948 109.293 65.6189C109.369 65.5982 109.324 65.5845 109.386 65.5534C109.345 65.65 109.507 65.6189 109.386 65.7327C109.458 65.6982 109.407 65.6603 109.479 65.6638C109.345 65.7879 109.538 65.6913 109.479 65.7741C109.42 65.8568 109.414 65.7741 109.372 65.8396C109.514 65.7672 109.389 65.9223 109.427 65.9327C109.534 65.8637 109.514 65.9637 109.576 65.9913C109.534 65.9913 109.576 66.1154 109.541 66.1809H109.524C109.641 66.1395 109.641 66.1982 109.679 66.2257C109.635 66.2451 109.586 66.2534 109.538 66.2499V66.2809C109.551 66.2742 109.566 66.2707 109.581 66.2707C109.596 66.2707 109.611 66.2742 109.624 66.2809L109.534 66.305C109.534 66.343 109.669 66.3568 109.624 66.4326C109.71 66.4326 109.848 66.3188 109.924 66.374C109.879 66.374 109.8 66.4119 109.776 66.3981C109.752 66.3843 109.821 66.3981 109.804 66.4257H109.717C109.69 66.4636 109.786 66.4257 109.786 66.4498C109.717 66.4498 109.741 66.4774 109.686 66.4878C109.631 66.4981 109.71 66.4602 109.686 66.4567C109.68 66.477 109.669 66.4955 109.654 66.5105C109.639 66.5255 109.62 66.5366 109.6 66.5429C109.638 66.5429 109.69 66.5429 109.703 66.5429C109.717 66.5429 109.624 66.574 109.593 66.605C109.641 66.605 109.593 66.6429 109.7 66.6291C109.7 66.6291 109.655 66.6533 109.628 66.6636C109.676 66.6808 109.652 66.7705 109.759 66.736C109.866 66.8153 109.707 66.9084 109.759 66.9911H109.724C109.762 67.0429 109.724 67.098 109.807 67.1428C109.807 67.1428 109.741 67.1704 109.703 67.1428C109.721 67.1842 109.759 67.1946 109.703 67.2394C109.652 67.1911 109.648 67.2394 109.669 67.1946C109.628 67.2359 109.576 67.229 109.669 67.3014C109.59 67.2635 109.552 67.3014 109.572 67.3359H109.641C109.643 67.3482 109.642 67.3608 109.639 67.3728C109.635 67.3847 109.629 67.3957 109.621 67.4049L109.514 67.3635C109.358 67.4049 109.69 67.6014 109.441 67.5911C109.507 67.6428 109.514 67.5635 109.593 67.6152C109.562 67.6566 109.393 67.6359 109.386 67.6462C109.307 67.6772 109.517 67.7669 109.452 67.8083C109.493 67.8083 109.596 67.8565 109.607 67.9186C109.617 67.9807 109.427 67.8945 109.41 67.8565C109.393 67.8186 109.41 67.8565 109.441 67.8565C109.437 67.8432 109.429 67.8315 109.418 67.8234C109.407 67.8153 109.393 67.8112 109.379 67.8117L109.414 67.8324C109.365 67.8324 109.341 67.891 109.286 67.8324C109.289 67.8404 109.294 67.8475 109.3 67.8535C109.307 67.8594 109.314 67.864 109.322 67.8669C109.33 67.8698 109.339 67.871 109.348 67.8704C109.356 67.8698 109.364 67.8674 109.372 67.8634C109.289 67.8876 109.327 67.9427 109.262 67.9738C109.286 67.9738 109.334 67.9944 109.327 68.0013C109.241 68.0531 109.376 68.0737 109.362 68.1358C109.289 68.1358 109.241 68.0496 109.251 68.1358C109.196 68.1358 109.155 68.0841 109.134 68.0565C109.172 68.1427 109.037 68.1151 109.01 68.1324V68.0875C109.014 68.0949 109.016 68.1032 109.016 68.1117C109.016 68.1201 109.014 68.1285 109.01 68.1358L109.086 68.1668C109.065 68.1668 109.058 68.1875 109.027 68.1668C109.065 68.2117 109.151 68.2323 109.189 68.3013C109.144 68.3013 109.189 68.384 109.093 68.3289C109.165 68.291 108.999 68.2737 109.02 68.2151C109.02 68.2151 109.02 68.2427 108.992 68.2496C108.988 68.2471 108.984 68.2436 108.981 68.2395C108.978 68.2353 108.976 68.2305 108.975 68.2254C108.854 68.2254 109.058 68.322 109.013 68.3771C108.968 68.3358 108.91 68.3254 108.913 68.3392C108.917 68.353 109.003 68.3909 109.027 68.4392C108.961 68.4392 109.027 68.5013 109.006 68.5185H109.041C109.082 68.5633 109.065 68.5771 109.058 68.615C109.017 68.5875 109.058 68.5702 109.027 68.5668C109.089 68.6633 108.889 68.5668 108.913 68.6495C108.868 68.6495 108.823 68.5806 108.789 68.5771C108.813 68.6702 108.685 68.5771 108.699 68.6599C108.772 68.6978 108.758 68.684 108.792 68.7667L108.81 68.653L108.865 68.7771C108.882 68.7564 108.865 68.6978 108.885 68.6909C108.92 68.7564 108.906 68.7426 108.968 68.7736C108.844 68.7288 108.968 68.884 108.875 68.8667L108.72 68.7357C108.606 68.7357 108.72 68.8978 108.62 68.9357H108.665C108.716 68.9977 108.634 68.9874 108.64 69.0288C108.605 68.9983 108.564 68.9749 108.52 68.9598C108.558 68.9943 108.471 69.0081 108.565 69.1046L108.471 69.077C108.392 69.1046 108.554 69.2701 108.471 69.308C108.433 69.2425 108.375 69.2322 108.368 69.1598C108.351 69.177 108.326 69.1839 108.368 69.2184C108.33 69.1977 108.388 69.3287 108.326 69.3011C108.326 69.3287 108.392 69.3804 108.368 69.3977C108.358 69.3917 108.35 69.3834 108.344 69.3735C108.368 69.3977 108.344 69.4356 108.416 69.4701C108.212 69.377 108.282 69.6356 108.102 69.5528C108.083 69.6068 108.056 69.6578 108.023 69.7045C108.023 69.6873 107.998 69.6804 108.023 69.6804C107.929 69.6804 108.13 69.8459 108.023 69.8493C107.916 69.8528 108.023 69.7804 107.964 69.7666C107.798 69.6149 107.919 69.8528 107.791 69.7942C107.709 69.7666 107.791 69.9217 107.722 69.9562L107.702 69.9286C107.719 69.9707 107.728 70.0158 107.728 70.0614C107.728 70.1069 107.719 70.1521 107.702 70.1941C107.657 70.1148 107.702 70.139 107.619 70.0838C107.619 70.1114 107.726 70.1838 107.702 70.2389C107.638 70.2202 107.58 70.1885 107.529 70.1459L107.564 70.1079C107.46 70.0355 107.515 70.1562 107.481 70.1596L107.446 70.1183C107.401 70.1838 107.495 70.2838 107.422 70.3355L107.457 70.3596C107.515 70.4906 107.377 70.332 107.412 70.4355L107.308 70.3458C107.314 70.421 107.308 70.4966 107.291 70.5699C107.264 70.49 107.25 70.4061 107.25 70.3217C107.229 70.3377 107.215 70.3599 107.209 70.3848C107.203 70.4097 107.205 70.436 107.215 70.4596C107.215 70.4424 107.215 70.4079 107.215 70.4148C107.26 70.5182 107.256 70.5906 107.215 70.632C107.046 70.4286 107.049 70.6871 106.87 70.563C106.87 70.7078 106.684 70.6699 106.601 70.763C106.766 70.8906 106.577 70.794 106.718 70.9492C106.718 70.9768 106.694 70.9802 106.684 70.9733L106.535 70.9354C106.476 70.9009 106.535 70.8802 106.494 70.8457C106.432 70.8768 106.414 70.794 106.345 70.7802C106.401 70.832 106.397 70.8768 106.345 70.8768L106.445 70.9181C106.445 71.063 106.276 70.8354 106.276 70.9768L106.256 70.9078C106.256 70.9664 106.124 71.0147 106.197 71.1733C106.176 71.1733 106.131 71.1216 106.138 71.0974C106.035 71.1457 106.059 71.3905 105.928 71.3629L105.9 71.3181C105.9 71.3422 105.935 71.4181 105.883 71.3905C105.831 71.3629 105.855 71.3457 105.845 71.3491C105.835 71.3526 105.845 71.456 105.821 71.4491V71.387C105.693 71.387 105.776 71.6008 105.728 71.6836C105.703 71.6448 105.667 71.6144 105.624 71.5966C105.581 71.5787 105.535 71.5742 105.489 71.5836C105.379 71.6422 105.396 71.8111 105.341 71.9283C105.182 71.8387 105.103 72.018 104.954 72.0111C104.973 72.0257 104.988 72.0446 104.999 72.0661C105.009 72.0877 105.014 72.1114 105.013 72.1352C104.975 72.1352 105.013 72.2628 104.937 72.1352C104.841 72.0352 104.816 72.0973 104.778 72.1352L104.878 72.2904C104.63 72.1387 104.689 72.542 104.499 72.3869C104.499 72.4386 104.475 72.4593 104.478 72.511L104.423 72.4317C104.35 72.4466 104.285 72.487 104.24 72.5455L104.216 72.4765C104.168 72.5041 104.326 72.7455 104.288 72.7799L104.188 72.6696C104.112 72.7282 103.96 72.6696 103.96 72.8454C103.96 72.8454 103.926 72.7903 103.936 72.7765C103.947 72.7627 103.736 72.8041 103.871 72.9523C103.788 72.8523 103.781 73.004 103.778 73.0833L103.722 73.0006C103.764 73.1247 103.784 73.1523 103.757 73.2178C103.74 73.2178 103.698 73.1661 103.729 73.173C103.66 73.173 103.757 73.2661 103.681 73.2626L103.657 73.204C103.615 73.2282 103.639 73.2523 103.657 73.3247C103.674 73.3971 103.567 73.3661 103.505 73.304C103.536 73.3488 103.56 73.4212 103.522 73.4212C103.505 73.4066 103.493 73.3874 103.488 73.3661C103.381 73.3661 103.47 73.5316 103.363 73.5005C103.35 73.4847 103.334 73.4718 103.315 73.4626C103.37 73.4212 103.412 73.3868 103.415 73.3971C103.356 73.3316 103.305 73.3557 103.256 73.235C103.256 73.3143 103.308 73.4729 103.256 73.4798H103.232C103.215 73.4798 103.215 73.4798 103.215 73.5143C103.215 73.5488 103.177 73.5143 103.167 73.5143C103.108 73.466 103.091 73.5143 103.07 73.5488C103.139 73.6177 103.101 73.6315 103.184 73.666C103.184 73.666 103.184 73.666 103.184 73.6384C103.184 73.6109 103.184 73.6384 103.184 73.6384L103.229 73.5867C103.229 73.6384 103.26 73.6833 103.201 73.666C103.232 73.7212 103.267 73.7763 103.284 73.8039C103.163 73.7315 103.06 73.735 102.991 73.6833C102.97 73.7832 102.877 73.8591 102.991 74.028C102.991 74.0625 102.935 74.028 102.908 74.0039C102.88 73.9798 102.908 73.9694 102.908 73.9487C102.908 74.0142 102.828 74.0729 102.908 74.159C102.825 74.159 102.835 74.0591 102.801 74.1384L102.777 74.1073C102.507 74.128 102.891 74.5038 102.58 74.5245C102.588 74.5211 102.596 74.5193 102.604 74.5193C102.612 74.5193 102.621 74.5211 102.628 74.5245C102.421 74.659 102.538 74.9451 102.314 75.1003C102.262 75.152 102.342 75.1761 102.397 75.2244H102.293L102.4 75.3072C102.48 75.3968 102.128 75.4451 102.293 75.5692H102.366C102.366 75.6106 102.414 75.6933 102.331 75.6933C102.331 75.6933 102.407 75.6933 102.369 75.7209H102.318C102.352 75.7515 102.387 75.7803 102.425 75.8071C102.4 75.8898 102.204 75.8312 102.224 75.9553C102.255 76.0002 102.411 76.0381 102.438 76.0105C102.466 75.9829 102.459 75.9588 102.514 75.9415L102.549 75.9691C102.697 75.9479 102.838 75.8911 102.96 75.8036H102.853L102.925 75.7726V75.8071C102.991 75.7692 102.925 75.7726 102.877 75.7657C102.906 75.7602 102.934 75.7497 102.96 75.7347C102.908 75.7347 102.853 75.7347 102.801 75.714C102.863 75.714 102.928 75.714 102.956 75.6864C102.884 75.6864 102.818 75.7243 102.77 75.6864C102.839 75.6554 102.901 75.6588 102.835 75.6381C102.864 75.6305 102.893 75.6305 102.922 75.6381C102.873 75.6381 102.897 75.5864 102.811 75.5761C102.904 75.5519 102.79 75.4968 102.942 75.5037C102.904 75.5037 102.825 75.4589 102.822 75.4347C102.998 75.4899 102.822 75.3589 103.035 75.3968C102.877 75.3451 102.98 75.2899 102.904 75.2175C102.904 75.2175 102.942 75.2348 102.932 75.2382C102.922 75.2416 103.001 75.2382 103.039 75.2106C102.908 75.1692 102.894 75.1141 102.825 75.0624C102.96 75.0624 102.966 75.1348 103.087 75.1658C102.984 75.1313 103.008 75.0727 102.918 75.0486C102.971 75.0449 103.024 75.0519 103.073 75.0693C102.918 75.0003 103.073 75.0348 102.97 74.9727C103.067 74.9727 103.118 75.0279 103.091 74.9727C103.123 74.9616 103.159 74.9629 103.191 74.9762ZM103.664 73.9108V73.9315V73.9108ZM103.74 73.8384C103.725 73.8441 103.712 73.8536 103.702 73.866C103.677 73.8419 103.657 73.8143 103.667 73.8074C103.677 73.8005 103.726 73.8281 103.726 73.8384H103.74ZM103.108 73.4936C103.108 73.4729 103.132 73.4936 103.146 73.4936C103.145 73.5039 103.145 73.5144 103.146 73.5247C103.132 73.5195 103.12 73.5125 103.108 73.504V73.4936Z" fill="white"/>
<path d="M103.174 73.6216H103.198L103.181 73.5936L103.174 73.6216Z" fill="white"/>
<path d="M105.024 73.0905L105.01 73.0696L105.013 73.094L105.024 73.0905Z" fill="white"/>
<path d="M109.987 66.1353C109.995 66.1285 110.003 66.1207 110.01 66.112L109.987 66.1353Z" fill="white"/>
<path d="M109.883 65.8645V65.812C109.88 65.8294 109.88 65.8471 109.883 65.8645Z" fill="white"/>
<path d="M109.804 65.65L109.766 65.6707L109.804 65.65Z" fill="white"/>
<path d="M109.538 68.9529C109.542 68.9898 109.545 68.975 109.538 68.9529V68.9529Z" fill="white"/>
<path d="M109.866 67.9807L109.894 68.0296C109.894 68.0296 109.915 68.0051 109.866 67.9807Z" fill="white"/>
<path d="M108.904 69.8632L108.899 69.8677L108.904 69.8632Z" fill="white"/>
<path d="M109.872 68.0709C109.877 68.0704 109.882 68.0687 109.885 68.066C109.889 68.0634 109.892 68.0598 109.894 68.0556C109.896 68.0514 109.897 68.0468 109.897 68.0422C109.897 68.0375 109.896 68.033 109.893 68.0289C109.893 68.0289 109.865 68.0499 109.872 68.0709Z" fill="white"/>
<path d="M109.108 64.9604C109.108 64.9604 109.097 64.9712 109.108 64.9604V64.9604Z" fill="white"/>
<path d="M109.058 64.9708H109.093C109.093 64.9708 109.075 64.9501 109.058 64.9708Z" fill="white"/>
<path d="M109.338 65.1642L109.362 65.1397C109.353 65.1469 109.345 65.1551 109.338 65.1642Z" fill="white"/>
<path d="M109.417 65.2121C109.417 65.1914 109.417 65.1225 109.383 65.119L109.362 65.1397C109.407 65.1087 109.362 65.2466 109.417 65.2121Z" fill="white"/>
<path d="M109.351 65.7603L109.331 65.6982C109.31 65.7293 109.282 65.7741 109.255 65.7603C109.224 65.8913 109.307 65.6913 109.351 65.7603Z" fill="white"/>
<path d="M109.425 65.9431C109.39 65.9431 109.379 65.9745 109.362 65.985C109.4 65.985 109.411 65.985 109.425 65.9431Z" fill="white"/>
<path d="M109.717 67.2221H109.631C109.638 67.229 109.665 67.2118 109.717 67.2221Z" fill="white"/>
<path d="M110.1 67.6021L110.16 67.5847L110.086 67.5497L110.1 67.6021Z" fill="white"/>
<path d="M109.452 67.5637L109.441 67.5497L109.459 67.5986L109.452 67.5637Z" fill="white"/>
<path d="M108.088 69.4805L108.171 69.5529C108.171 69.5253 108.085 69.4357 108.088 69.4805Z" fill="white"/>
<path d="M107.385 70.3118C107.34 70.2803 107.294 70.2733 107.315 70.3118C107.34 70.3153 107.385 70.3327 107.385 70.3118Z" fill="white"/>
<path d="M104.755 72.2117L104.751 72.1697L104.734 72.2187L104.755 72.2117Z" fill="white"/>
</g>
<g opacity="0.64">
<path d="M102.949 68.7599C102.925 68.7599 102.863 68.7151 102.866 68.7392L102.96 68.8013L102.949 68.7599Z" fill="white"/>
<path d="M102.69 68.7737C102.746 68.8412 102.817 68.8944 102.897 68.9288C102.814 68.8564 102.856 68.8737 102.752 68.7875C102.752 68.7668 102.801 68.7875 102.835 68.7875C102.814 68.7668 102.873 68.7875 102.814 68.7323C102.756 68.6771 102.707 68.7323 102.756 68.7978C102.733 68.7924 102.711 68.7843 102.69 68.7737Z" fill="white"/>
<path d="M100.426 70.2395C100.426 70.2395 100.426 70.2395 100.426 70.2115C100.426 70.1835 100.419 70.2325 100.426 70.2395Z" fill="white"/>
<path d="M100.216 70.1956C100.216 70.1956 100.212 70.182 100.216 70.1956V70.1956Z" fill="white"/>
<path d="M101.379 69.8149H101.334C101.355 69.8324 101.362 69.8149 101.379 69.8149Z" fill="white"/>
<path d="M102.801 69.1326C102.803 69.1223 102.803 69.1116 102.801 69.1012C102.802 69.1081 102.802 69.1153 102.801 69.1222V69.1326Z" fill="white"/>
<path d="M101.697 69.4845L101.672 69.4426L101.697 69.4845Z" fill="white"/>
<path d="M101.945 69.2529C101.945 69.2529 102 69.3288 102.024 69.3633C102.009 69.3456 101.998 69.3242 101.993 69.3012L101.945 69.2529Z" fill="white"/>
<path d="M101.486 69.6084L101.465 69.5839L101.486 69.6084Z" fill="white"/>
<path d="M93.1827 74.9694L93.1792 74.9659L93.1233 74.9764L93.1827 74.9694Z" fill="white"/>
<path d="M96.9956 71.1526C97.0543 71.2251 96.9749 71.2768 97.0543 71.3526C97.037 71.3181 97.0543 71.194 96.9956 71.1526Z" fill="white"/>
<path d="M99.1873 70.4976L99.2082 70.536C99.2025 70.5225 99.1955 70.5097 99.1873 70.4976Z" fill="white"/>
<path d="M98.9508 70.7153C98.9508 70.7153 98.9508 70.7153 98.9248 70.7153C98.9248 70.7153 98.936 70.7004 98.9508 70.7153Z" fill="white"/>
<path d="M93.8238 73.8936L93.7444 73.8557C93.8031 73.8902 93.8065 73.935 93.8238 73.8936Z" fill="white"/>
<path d="M102.756 69.1012C102.773 69.1012 102.784 69.1292 102.784 69.1362C102.784 69.1432 102.784 69.1362 102.784 69.1362L102.756 69.1012Z" fill="white"/>
<path d="M99.1603 71.4492H99.1079C99.125 71.4543 99.1432 71.4543 99.1603 71.4492Z" fill="white"/>
<path d="M98.9702 71.5051C98.9586 71.4839 98.9432 71.4649 98.9248 71.4492V71.4771L98.9702 71.5051Z" fill="white"/>
<path d="M93.8204 74.1936C93.8204 74.1625 93.7134 74.1246 93.6512 74.0901C93.5891 74.0557 93.7479 74.1108 93.8135 74.1246C93.7928 74.0867 93.6996 74.0143 93.7134 73.997C93.731 74.0016 93.7475 74.0098 93.7617 74.0212C93.6823 73.9453 93.8031 73.9419 93.7134 73.8453H93.7444C93.6921 73.8198 93.6413 73.791 93.5926 73.7591C93.5926 73.7591 93.5443 73.6833 93.6167 73.7212C93.6167 73.7212 93.6374 73.7523 93.6547 73.7695V73.7316C93.7617 73.7833 93.6547 73.7798 93.7479 73.8247C93.7479 73.7729 93.6754 73.6764 93.7237 73.673C93.8238 73.735 93.7237 73.7523 93.8238 73.7798H93.7617C93.9343 73.8557 93.7375 73.7798 93.9204 73.8798C93.9757 73.8522 93.9205 73.7971 93.9653 73.7695C93.9239 73.7212 93.8859 73.7178 93.8411 73.6661C93.8031 73.5282 94.1103 73.7971 94.0274 73.6661C93.9791 73.604 93.8721 73.504 93.9619 73.5213L94.0516 73.6178C94.0965 73.5868 93.9308 73.4695 94.0516 73.4833C94.0861 73.5247 94.0516 73.5454 94.0723 73.5488C94.1758 73.5902 94.0343 73.4799 94.0551 73.4557L94.1448 73.5316C94.1758 73.4764 94.1655 73.3661 94.2 73.3006C94.2207 73.3282 94.238 73.3661 94.2725 73.3799C94.2966 73.2765 94.4209 73.2661 94.5279 73.2661L94.4899 73.1696C94.4899 73.1696 94.5313 73.1937 94.5382 73.2144C94.5451 73.2351 94.4968 73.1627 94.4865 73.1248C94.4761 73.0868 94.5417 73.1523 94.552 73.1834C94.552 73.0834 94.5727 72.9317 94.6866 72.9869V73.0179C94.7488 73.0179 94.6107 72.8145 94.7039 72.8662V72.8869C94.8143 72.8627 94.8696 72.7214 95.0145 72.8076C94.9558 72.6766 95.1388 72.8076 95.0456 72.6352C95.1491 72.6903 95.1491 72.7317 95.2561 72.749C95.2803 72.749 95.2251 72.6214 95.2561 72.5904L95.3044 72.6834V72.5662L95.3838 72.6697V72.6352C95.3838 72.6352 95.3424 72.6007 95.3286 72.5731C95.3148 72.5455 95.4528 72.5938 95.477 72.6421C95.477 72.6007 95.5115 72.5593 95.5288 72.518C95.5352 72.5475 95.5352 72.5781 95.5288 72.6076C95.5288 72.4904 95.584 72.7076 95.5874 72.6076C95.5731 72.5825 95.5615 72.5559 95.5529 72.5283C95.5598 72.539 95.5693 72.5478 95.5804 72.5538C95.5916 72.5599 95.6041 72.5631 95.6168 72.5631C95.6295 72.5631 95.642 72.5599 95.6531 72.5538C95.6643 72.5478 95.6738 72.539 95.6806 72.5283L95.7013 72.5973C95.7773 72.5973 95.8325 72.5042 95.9084 72.4731C95.867 72.4524 95.8256 72.3352 95.8428 72.3145L95.8946 72.4111C95.8946 72.3421 95.8532 72.3835 95.8532 72.2938C95.8877 72.2938 95.9188 72.4007 95.9188 72.4421L95.9395 72.3938C95.9493 72.4232 95.9573 72.4532 95.9636 72.4835C95.9636 72.4111 96.0672 72.5628 96.043 72.4421V72.4731C96.1224 72.4421 96.1431 72.3938 96.2052 72.3628C96.1707 72.2732 96.2052 72.2835 96.2052 72.2008C96.2639 72.2008 96.3433 72.2663 96.3985 72.2387C96.4537 72.2111 96.3812 72.1559 96.3812 72.0939C96.4123 72.1766 96.4675 72.149 96.4606 72.218C96.5235 72.1869 96.5744 72.136 96.6056 72.0732C96.5868 72.0523 96.5726 72.0276 96.5642 72.0008C96.5642 71.9801 96.6159 72.0249 96.6263 72.0628C96.685 71.9043 96.9369 72.2318 96.9714 72.0318L97.0266 71.9146C97.0681 71.9146 97.0266 71.987 97.0681 72.0284C97.1129 71.8594 97.2165 72.0042 97.2613 71.887C97.3925 72.1215 97.4581 71.8112 97.5858 71.9456L97.5651 71.8905C97.5651 71.825 97.5961 71.9146 97.6168 71.9249C97.6168 71.8801 97.5789 71.8767 97.5823 71.8422C97.7342 71.7215 97.962 71.8422 98.1518 71.8422C98.2208 71.8422 98.1035 71.5284 98.2243 71.6457V71.7594C98.3174 71.594 98.4935 71.6905 98.5901 71.5422C98.5901 71.5698 98.5901 71.6008 98.5901 71.6043C98.6419 71.6767 98.6936 71.5802 98.6764 71.5147C98.6971 71.5147 98.6971 71.5698 98.7178 71.6008C98.7385 71.6319 98.7592 71.4802 98.7937 71.5526C98.7965 71.5585 98.7979 71.565 98.7979 71.5715C98.7979 71.5781 98.7965 71.5846 98.7937 71.5905C98.7937 71.5457 98.88 71.5905 98.8386 71.4905C98.8973 71.5181 98.918 71.4216 98.9732 71.4629C98.9732 71.3526 99.0698 71.4871 99.0353 71.3423C99.0767 71.4905 99.1561 71.4354 99.1665 71.3423C99.1665 71.3905 99.2079 71.3802 99.2148 71.4457C99.2493 71.4457 99.2735 71.3974 99.2424 71.3216C99.3632 71.4802 99.3252 71.1388 99.4357 71.3561C99.5025 71.2571 99.5826 71.1678 99.6738 71.0906C99.7187 71.2388 99.5772 71.1423 99.6289 71.294C99.7014 71.2044 99.7083 71.0595 99.8084 71.0664C99.8395 71.0664 99.8084 71.132 99.8084 71.163C99.874 71.0699 99.9844 71.1147 100.033 71.0044C100.038 71.02 100.038 71.037 100.033 71.0527C100.033 71.0527 100.074 71.0527 100.05 70.994V71.0182C99.9913 70.932 100.05 70.7941 100.022 70.7424C100.067 70.9423 100.116 70.763 100.164 71.0182C100.175 70.9869 100.175 70.9529 100.164 70.9216C100.181 70.9216 100.198 70.9527 100.202 71.0078C100.243 70.9527 100.202 70.8872 100.247 70.8699C100.292 70.8527 100.247 70.9182 100.264 70.9596C100.264 70.8872 100.264 70.8148 100.316 70.8251C100.368 70.8354 100.336 70.8699 100.316 70.8734C100.385 70.8354 100.371 70.6596 100.475 70.6872C100.509 70.832 100.519 70.7217 100.575 70.8389L100.602 70.7837L100.561 70.7355C100.599 70.7355 100.592 70.6217 100.64 70.6458V70.7079L100.699 70.6527L100.64 70.6251C100.64 70.5493 100.571 70.4803 100.64 70.4907C100.64 70.4907 100.675 70.4907 100.726 70.5355C100.726 70.4907 100.726 70.4424 100.768 70.4596C100.809 70.4769 100.82 70.5907 100.837 70.6148C100.809 70.5079 100.909 70.5493 100.882 70.4355C100.891 70.4706 100.905 70.5042 100.923 70.5355L100.899 70.4493C100.93 70.4493 100.937 70.4769 100.958 70.5251C101.016 70.5251 100.871 70.3872 100.958 70.4217C100.958 70.4217 100.958 70.4424 100.958 70.4562C101.034 70.4562 101.047 70.3528 101.12 70.3631C101.196 70.47 101.085 70.4148 101.154 70.5045C101.223 70.4424 101.244 70.2804 101.334 70.2666H101.313C101.234 70.1011 101.413 70.3148 101.406 70.2148C101.414 70.2411 101.425 70.2665 101.437 70.2907C101.503 70.2907 101.52 70.1907 101.565 70.0976V70.1424C101.617 70.1631 101.655 70.1149 101.696 70.1114C101.696 70.0666 101.696 70.0631 101.655 70.0114C101.903 70.1735 101.755 69.7735 101.965 69.8942C101.965 69.8942 101.965 69.9459 101.965 69.939L102.01 69.8528C101.955 69.7942 101.972 69.8218 101.921 69.7804C101.869 69.7391 101.896 69.6942 101.921 69.6804C101.921 69.7459 101.997 69.7839 102.038 69.808C102.038 69.808 102.01 69.7632 101.993 69.7459C102.117 69.8287 101.9 69.6149 101.993 69.6529L102.017 69.6873C102.017 69.6563 102 69.5977 102.017 69.5942C102.086 69.6563 102.017 69.6425 102.072 69.7011C102.097 69.6735 102.014 69.5253 102.097 69.5736C102.097 69.6046 102.097 69.6184 102.097 69.646C102.193 69.708 102.179 69.6839 102.211 69.677H102.283H102.252C102.124 69.4667 102.29 69.5805 102.224 69.4288C102.286 69.5736 102.28 69.4977 102.349 69.5736C102.38 69.5736 102.421 69.5736 102.435 69.6184C102.397 69.5356 102.518 69.6184 102.459 69.5115C102.483 69.5356 102.483 69.4908 102.538 69.5563C102.538 69.5081 102.49 69.5218 102.462 69.4908C102.418 69.3701 102.663 69.4908 102.597 69.3115C102.597 69.215 102.511 69.1357 102.507 69.0529C102.563 69.0529 102.594 69.1391 102.594 69.1391C102.656 69.1391 102.663 69.1116 102.652 69.0633C102.674 69.0851 102.702 69.1006 102.732 69.1081C102.732 69.0771 102.642 69.0219 102.704 69.0219C102.739 69.0506 102.77 69.083 102.797 69.1185C102.797 69.0736 102.759 69.0116 102.752 68.9702C102.804 68.9943 102.815 69.0323 102.839 69.0633C102.845 69.0318 102.842 68.9992 102.83 68.9693C102.819 68.9394 102.799 68.9134 102.773 68.8944H102.735C102.735 68.8944 102.808 68.9288 102.815 68.9461C102.863 69.015 102.763 68.9702 102.735 68.9461V68.915C102.556 68.8288 102.711 69.0081 102.673 69.0426L102.566 68.9461L102.639 69.0529C102.601 69.0529 102.532 68.9978 102.528 68.9668C102.452 68.9668 102.552 69.0219 102.473 68.9943H102.456V69.0426C102.435 69.0219 102.373 68.9874 102.4 68.984C102.3 68.984 102.428 69.1185 102.331 69.0667C102.331 69.1564 102.407 69.1391 102.466 69.2667L102.245 69.1254L102.318 69.2012C102.318 69.2012 102.293 69.2012 102.262 69.1805C102.297 69.2495 102.3 69.2081 102.338 69.2633C102.242 69.2288 102.297 69.3736 102.173 69.2633C102.217 69.3288 102.242 69.2633 102.252 69.3495C102.114 69.2288 102.252 69.4046 102.159 69.3701C102.066 69.3357 102.159 69.3081 102.076 69.2736C102.169 69.4012 102.003 69.2943 102.003 69.3322C102.086 69.4253 102.003 69.415 101.983 69.477C101.959 69.446 101.869 69.477 101.803 69.477C101.876 69.5805 101.824 69.5908 101.803 69.6322C101.771 69.5973 101.748 69.5545 101.738 69.5081L101.714 69.5287C101.722 69.5404 101.728 69.5539 101.731 69.5682C101.734 69.5825 101.734 69.5973 101.731 69.6115L101.679 69.5287C101.648 69.5598 101.679 69.6701 101.596 69.6494C101.645 69.7253 101.776 69.8252 101.758 69.908C101.726 69.8701 101.7 69.827 101.682 69.7804C101.682 69.7804 101.682 69.8218 101.682 69.8115L101.658 69.7322C101.617 69.7322 101.686 69.7942 101.658 69.8011C101.617 69.746 101.617 69.7701 101.589 69.7218C101.562 69.6735 101.62 69.7218 101.61 69.7218C101.569 69.7166 101.531 69.697 101.503 69.6667C101.527 69.6977 101.555 69.7425 101.544 69.7597C101.534 69.777 101.489 69.7011 101.448 69.6839C101.465 69.7287 101.417 69.6839 101.472 69.7873C101.472 69.7873 101.434 69.7563 101.413 69.7356C101.413 69.7839 101.334 69.8011 101.413 69.8804C101.413 70.008 101.255 69.9114 101.213 69.9838L101.196 69.9563C101.196 70.0114 101.127 70.0252 101.134 70.1011C101.134 70.1011 101.075 70.0631 101.061 70.0252C101.044 70.0631 101.061 70.0976 100.992 70.07C100.992 70.0045 100.958 70.0287 100.992 70.0149C100.94 70.0149 100.909 69.9666 100.913 70.07C100.885 69.9873 100.833 69.9873 100.827 70.0218L100.882 70.0631C100.875 70.0721 100.866 70.079 100.856 70.0833C100.845 70.0875 100.834 70.0889 100.823 70.0873L100.782 69.9804C100.644 69.8942 100.747 70.2631 100.585 70.0838C100.585 70.1666 100.651 70.1149 100.675 70.208C100.63 70.208 100.523 70.0769 100.512 70.0838C100.437 70.0459 100.533 70.2562 100.464 70.239C100.485 70.2735 100.537 70.37 100.512 70.4252C100.488 70.4803 100.399 70.2872 100.409 70.2493C100.419 70.2114 100.426 70.2493 100.43 70.2493C100.435 70.2365 100.437 70.2222 100.434 70.2086C100.43 70.1949 100.423 70.1826 100.412 70.1735V70.2148C100.378 70.1838 100.33 70.2148 100.316 70.1424C100.316 70.1907 100.316 70.2079 100.361 70.2217C100.288 70.1873 100.285 70.2493 100.219 70.2217C100.219 70.2424 100.261 70.2838 100.254 70.2838C100.164 70.2838 100.254 70.37 100.209 70.4079C100.157 70.3631 100.164 70.2666 100.133 70.3355C100.088 70.3079 100.088 70.2355 100.085 70.2011C100.085 70.2907 99.9844 70.2011 99.9534 70.1804V70.1424C99.9534 70.1666 99.9361 70.17 99.9223 70.1735L99.9672 70.2459C99.9465 70.2459 99.9361 70.2459 99.9223 70.208C99.9223 70.2666 99.9844 70.3321 99.981 70.4114C99.9465 70.3803 99.9396 70.4769 99.8947 70.3769C99.9672 70.3769 99.8498 70.2769 99.8947 70.2424C99.9396 70.208 99.8947 70.2424 99.8602 70.2424C99.8578 70.2382 99.8565 70.2335 99.8565 70.2286C99.8565 70.2238 99.8578 70.219 99.8602 70.2148C99.7705 70.1459 99.8602 70.339 99.8188 70.3597C99.8188 70.2976 99.7635 70.2528 99.7601 70.27C99.7566 70.2873 99.805 70.3631 99.8015 70.4148C99.7463 70.3838 99.7704 70.4631 99.7497 70.4631H99.7808C99.7808 70.5217 99.7808 70.5217 99.7532 70.5493C99.7325 70.5079 99.7532 70.5114 99.7532 70.4941C99.7532 70.6079 99.6462 70.4148 99.6324 70.4941C99.5979 70.4596 99.591 70.3838 99.5668 70.3631C99.5461 70.4562 99.4874 70.301 99.4633 70.3631C99.5012 70.4355 99.4978 70.4148 99.4909 70.5045L99.5496 70.4217V70.5527C99.5737 70.5527 99.5841 70.4872 99.6013 70.4941C99.6013 70.5665 99.6013 70.5458 99.6289 70.6079C99.5565 70.501 99.5875 70.6975 99.522 70.632L99.4564 70.439C99.3701 70.37 99.3908 70.5734 99.2976 70.5458L99.3321 70.5734C99.3494 70.6527 99.2907 70.5975 99.2769 70.6389C99.2634 70.5947 99.2411 70.5537 99.2113 70.5182C99.2113 70.5631 99.1561 70.5183 99.1872 70.6631L99.1285 70.5872C99.056 70.5872 99.1285 70.7941 99.0491 70.7906C99.0491 70.7148 99.0043 70.6768 99.0284 70.6148C99.0077 70.6148 98.987 70.6148 99.0008 70.6562C98.9766 70.6217 98.9732 70.763 98.9352 70.7044C98.9352 70.7355 98.9559 70.8044 98.9352 70.8079C98.9339 70.7964 98.9339 70.7848 98.9352 70.7734C98.9352 70.8079 98.9145 70.8285 98.9559 70.8941C98.8317 70.7113 98.7868 70.9596 98.6833 70.801C98.6441 70.8423 98.5987 70.8772 98.5487 70.9044C98.5487 70.8837 98.5487 70.8699 98.5487 70.8768C98.4762 70.832 98.5694 71.0733 98.4866 71.0216C98.4037 70.9699 98.4866 70.9561 98.4866 70.9216C98.4175 70.7079 98.421 70.9734 98.3416 70.8596C98.2898 70.7975 98.2864 70.963 98.2312 70.963C98.2323 70.9527 98.2323 70.9423 98.2312 70.932C98.2305 70.9737 98.2213 71.0148 98.2041 71.0527C98.1869 71.0907 98.162 71.1247 98.1311 71.1526C98.1311 71.063 98.1311 71.1009 98.1069 71.0182C98.0862 71.0182 98.1518 71.1526 98.1069 71.1906C98.0627 71.1434 98.0276 71.0884 98.0034 71.0285H98.0448C97.9896 70.9147 97.993 71.0285 97.962 71.0285V70.9768C97.8998 71.0113 97.9378 71.1423 97.8653 71.1526V71.1906C97.8653 71.3319 97.8135 71.1285 97.8032 71.2354L97.7549 71.1078C97.7323 71.1748 97.701 71.2386 97.6617 71.2974C97.6671 71.2157 97.6857 71.1353 97.7169 71.0595C97.6935 71.0645 97.6726 71.0776 97.658 71.0966C97.6435 71.1155 97.6362 71.1391 97.6375 71.163C97.6375 71.163 97.6375 71.1113 97.6651 71.1285C97.6651 71.2388 97.6375 71.3009 97.5858 71.3147C97.5236 71.0561 97.4374 71.2871 97.3442 71.1009C97.2855 71.2216 97.1578 71.1009 97.0577 71.1595C97.1543 71.3457 97.0301 71.1595 97.0957 71.3733C97.075 71.394 97.0681 71.394 97.0612 71.3733L96.9507 71.2768C96.9162 71.2216 96.9507 71.225 96.9507 71.1802C96.9507 71.1354 96.9024 71.1009 96.8506 71.0595C96.8817 71.1285 96.8506 71.1664 96.8265 71.1492L96.8955 71.2285C96.8575 71.3595 96.7816 71.0802 96.7402 71.2078V71.1388C96.7126 71.1871 96.5952 71.1802 96.6125 71.3561C96.6125 71.3354 96.5711 71.2837 96.5814 71.263C96.4813 71.263 96.4365 71.5009 96.3329 71.425V71.3733C96.3329 71.394 96.3329 71.4767 96.295 71.4354C96.257 71.394 96.295 71.3836 96.295 71.3836C96.295 71.3836 96.295 71.4836 96.2466 71.4629V71.4043C96.1362 71.3698 96.1569 71.5836 96.0982 71.6457C96.0868 71.6018 96.0633 71.5621 96.0303 71.531C95.9974 71.4999 95.9563 71.4787 95.9119 71.4698V71.4491C95.798 71.4733 95.7807 71.6388 95.7082 71.7284C95.5874 71.6008 95.4839 71.7491 95.3631 71.7043C95.3778 71.7225 95.3888 71.7435 95.3953 71.766C95.4018 71.7885 95.4038 71.812 95.4011 71.8353C95.3666 71.8353 95.4011 71.9594 95.3286 71.8353C95.2527 71.7215 95.2216 71.7732 95.1871 71.787L95.2561 71.956C95.049 71.756 95.0628 72.1594 94.911 71.956C94.911 72.0077 94.8834 72.0215 94.8834 72.0732L94.8385 71.987C94.7718 71.9926 94.7093 72.022 94.6625 72.0697V72.0008C94.6142 72.0215 94.7488 72.2732 94.7177 72.3007L94.6314 72.1835C94.5624 72.2318 94.4174 72.1835 94.4209 72.3249C94.4209 72.3249 94.3864 72.2697 94.3967 72.2594C94.4071 72.249 94.2104 72.2594 94.3381 72.4214C94.2621 72.318 94.2587 72.4628 94.2552 72.5352L94.2035 72.4524C94.2449 72.5766 94.2656 72.6041 94.2449 72.6628C94.2449 72.6628 94.1897 72.6076 94.2173 72.6179C94.1551 72.6179 94.2483 72.7076 94.1758 72.7007L94.1551 72.6386C94.1137 72.6628 94.1551 72.6834 94.1551 72.7559C94.1551 72.8283 94.0758 72.7869 94.0136 72.7248C94.0447 72.7696 94.0723 72.8386 94.0378 72.8351C94.0205 72.8211 94.0083 72.8017 94.0033 72.78C93.9066 72.78 94.0033 72.9351 93.8963 72.8972C93.8839 72.8827 93.8686 72.871 93.8514 72.8627C93.8963 72.8248 93.9377 72.7972 93.9377 72.8076C93.879 72.7386 93.8342 72.7593 93.7789 72.6421C93.7789 72.7214 93.8445 72.8662 93.7789 72.8696H93.7548C93.7548 72.8696 93.7548 72.8696 93.7548 72.9007C93.7548 72.9317 93.7203 72.9007 93.7099 72.9007C93.6547 72.8524 93.6409 72.9007 93.6236 72.9248C93.6927 72.9937 93.6616 73.0041 93.7375 73.0386C93.7375 73.0386 93.7375 73.0386 93.7375 73.0144C93.7375 72.9903 93.7375 73.0144 93.7375 73.0144L93.7755 72.9662C93.7962 73.0144 93.8135 73.0593 93.7755 73.0386L93.8618 73.1696C93.7444 73.0972 93.6478 73.0937 93.5788 73.0455C93.5788 73.1351 93.489 73.2006 93.6029 73.3489C93.6029 73.3799 93.5477 73.3489 93.5201 73.3247C93.4925 73.3006 93.5201 73.2937 93.5201 73.273C93.5201 73.3351 93.458 73.3833 93.5546 73.4661C93.4787 73.4661 93.4787 73.373 93.4511 73.442L93.4269 73.4109C93.2992 73.4109 93.3337 73.5075 93.3648 73.5971C93.3958 73.6867 93.42 73.766 93.2716 73.7764C93.2873 73.7711 93.3042 73.7711 93.3199 73.7764C93.2816 73.8048 93.2504 73.8416 93.2289 73.8841C93.2073 73.9266 93.1959 73.9735 93.1957 74.0212C93.1937 74.0709 93.1798 74.1193 93.1552 74.1625C93.1306 74.2057 93.0959 74.2424 93.0542 74.2694C93.0058 74.3142 93.0852 74.3349 93.1405 74.3763H93.0335L93.1474 74.4487C93.2302 74.5246 92.8712 74.559 93.0438 74.6694H93.1128C93.1128 74.7038 93.1577 74.7762 93.0749 74.7762C93.0749 74.7762 93.1474 74.7762 93.1128 74.7969H93.0576L93.1612 74.8693C93.1301 74.9383 92.9437 74.8693 92.9506 74.99C92.9794 75.013 93.0128 75.0296 93.0485 75.0385C93.0842 75.0474 93.1215 75.0485 93.1577 75.0417C93.1577 75.0417 93.1853 75.0003 93.2371 74.9866L93.2681 75.0107C93.4173 74.9975 93.562 74.9528 93.6927 74.8797L93.5891 74.8624L93.6651 74.8383V74.8659C93.7341 74.8383 93.6651 74.8383 93.6202 74.8314C93.6495 74.8283 93.6777 74.8189 93.703 74.8038L93.5443 74.7866C93.6064 74.7866 93.672 74.7866 93.703 74.7625C93.6305 74.7625 93.5615 74.7935 93.5166 74.7625C93.5891 74.7383 93.6478 74.7418 93.5857 74.7245C93.6139 74.7171 93.6437 74.7171 93.672 74.7245C93.6202 74.7245 93.6478 74.6797 93.565 74.6694C93.6512 74.6694 93.5374 74.6039 93.6927 74.6142C93.6547 74.6142 93.5753 74.5728 93.5719 74.5521C93.7513 74.6039 93.5926 74.4866 93.7824 74.5246C93.6202 74.4797 93.7272 74.4349 93.6478 74.3729C93.6478 74.3729 93.6858 74.3729 93.6754 74.3729C93.6651 74.3729 93.7444 74.3729 93.7755 74.3729C93.693 74.3466 93.6183 74.3004 93.5581 74.2384C93.6927 74.2384 93.6996 74.3073 93.8238 74.3384C93.7203 74.3073 93.7375 74.2556 93.6478 74.2349C93.7007 74.2309 93.7539 74.2392 93.8031 74.2591C93.6443 74.1936 93.7824 74.228 93.6927 74.1694C93.7824 74.1694 93.8376 74.2246 93.81 74.1694C93.8141 74.1772 93.8175 74.1853 93.8204 74.1936ZM94.2069 73.2247C94.1946 73.2299 94.1839 73.2382 94.1758 73.2489C94.1482 73.2247 94.1275 73.1972 94.1379 73.1937C94.1482 73.1903 94.1758 73.2144 94.2069 73.2247ZM93.5995 72.88C93.5995 72.8593 93.5995 72.88 93.634 72.88V72.9076L93.5995 72.88Z" fill="white"/>
<path d="M93.6685 72.9734H93.693L93.672 72.9489L93.6685 72.9734Z" fill="white"/>
<path d="M95.2841 72.7113L95.27 72.6869L95.2735 72.7113H95.2841Z" fill="white"/>
<path d="M102 69.8047H102.023C102.016 69.8031 102.008 69.8031 102 69.8047Z" fill="white"/>
<path d="M102.346 69.5913L102.321 69.5563L102.346 69.5913Z" fill="white"/>
<path d="M99.9955 71.0527C99.9804 71.0829 99.988 71.0716 99.9955 71.0527V71.0527Z" fill="white"/>
<path d="M100.664 70.5355C100.666 70.5529 100.666 70.5706 100.664 70.588C100.664 70.588 100.685 70.588 100.664 70.5355Z" fill="white"/>
<path d="M100.619 70.6045C100.64 70.6045 100.65 70.6045 100.654 70.6045C100.657 70.6045 100.619 70.5838 100.619 70.6045Z" fill="white"/>
<path d="M102.898 68.9847C102.898 68.9847 102.886 68.9762 102.898 68.9847V68.9847Z" fill="white"/>
<path d="M102.88 68.9392V68.9706C102.88 68.9706 102.901 68.9567 102.88 68.9392Z" fill="white"/>
<path d="M102.725 69.1805L102.752 69.2012L102.725 69.1805Z" fill="white"/>
<path d="M102.69 69.2426C102.69 69.2426 102.78 69.2426 102.776 69.2219L102.756 69.2012C102.787 69.2426 102.649 69.1805 102.69 69.2426Z" fill="white"/>
<path d="M102.169 69.1805L102.228 69.1599C102.193 69.1426 102.148 69.115 102.159 69.0944C102.031 69.0599 102.228 69.1357 102.169 69.1805Z" fill="white"/>
<path d="M102.001 69.2572C102.001 69.2222 101.962 69.2152 101.948 69.1978C101.973 69.2362 101.976 69.2467 102.001 69.2572Z" fill="white"/>
<path d="M101.023 69.9494L100.985 69.8701C100.965 69.8907 101.002 69.9011 101.023 69.9494Z" fill="white"/>
<path d="M101.02 70.4631L101.068 70.501L101.04 70.4252L101.02 70.4631Z" fill="white"/>
<path d="M100.616 69.9634L100.62 69.9459L100.599 69.9914L100.616 69.9634Z" fill="white"/>
<path d="M98.6833 70.7045L98.7213 70.8079C98.7317 70.7837 98.6972 70.6665 98.6833 70.7045Z" fill="white"/>
<path d="M97.8316 71.0672C97.8072 71.0147 97.7722 70.9868 97.7722 71.0462C97.7932 71.0462 97.8281 71.0812 97.8316 71.0672Z" fill="white"/>
<path d="M95.1113 71.8221V71.7802L95.0903 71.8256L95.1113 71.8221Z" fill="white"/>
</g>
<g opacity="0.64">
<path d="M113.476 66.7912C113.476 66.8154 113.434 66.8774 113.445 66.8671L113.5 66.7671L113.476 66.7912Z" fill="white"/>
<path d="M113.427 67.0016C113.474 66.9291 113.514 66.853 113.548 66.774C113.493 66.8706 113.51 66.8258 113.448 66.943C113.448 66.943 113.448 66.9051 113.472 66.8671C113.472 66.8913 113.472 66.8396 113.441 66.9016C113.41 66.9637 113.42 66.9947 113.462 66.9326L113.427 67.0016Z" fill="white"/>
<path d="M114.178 67.8531C114.178 67.8531 114.167 67.8639 114.178 67.8531V67.8531Z" fill="white"/>
<path d="M113.904 67.4567V67.4951C113.914 67.4567 113.904 67.4567 113.904 67.4567Z" fill="white"/>
<path d="M113.628 66.7912L113.61 66.8191L113.628 66.7912Z" fill="white"/>
<path d="M113.711 67.4567L113.686 67.4951L113.711 67.4567Z" fill="white"/>
<path d="M113.59 67.4049C113.59 67.4049 113.638 67.3256 113.659 67.2877C113.648 67.3074 113.635 67.3259 113.621 67.3429C113.621 67.3429 113.603 67.3774 113.59 67.4049Z" fill="white"/>
<path d="M116.224 70.2632L116.217 70.2597L116.164 70.2702L116.224 70.2632Z" fill="white"/>
<path d="M114.198 68.0221C114.198 68.0221 114.193 68.0275 114.198 68.0221V68.0221Z" fill="white"/>
<path d="M115.018 68.6668C115.074 68.6013 115.115 68.6082 115.174 68.5323C115.117 68.571 115.065 68.6161 115.018 68.6668Z" fill="white"/>
<path d="M113.624 66.8059C113.624 66.8059 113.629 66.8004 113.624 66.8059V66.8059Z" fill="white"/>
<path d="M115.174 68.5303L115.182 68.522L115.174 68.5303Z" fill="white"/>
<path d="M114.442 68.1466L114.467 68.1117L114.442 68.1466Z" fill="white"/>
<path d="M114.608 68.0979C114.608 68.0979 114.6 68.1139 114.608 68.0979V68.0979Z" fill="white"/>
<path d="M116.516 69.6425L116.433 69.6735C116.495 69.6529 116.527 69.6632 116.516 69.6425Z" fill="white"/>
<path d="M113.603 66.8435C113.608 66.8296 113.615 66.8167 113.624 66.805L113.603 66.8435Z" fill="white"/>
<path d="M115.115 67.5187V67.5431C115.117 67.5393 115.118 67.5351 115.118 67.5309C115.118 67.5267 115.117 67.5225 115.115 67.5187Z" fill="white"/>
<path d="M116.116 68.8361C116.116 68.8361 116.127 68.8146 116.116 68.8361V68.8361Z" fill="white"/>
<path d="M115.167 67.5704C115.153 67.5874 115.141 67.6062 115.132 67.6264L115.167 67.5704Z" fill="white"/>
<path d="M116.692 69.739C116.692 69.7184 116.568 69.7632 116.496 69.7804C116.423 69.7977 116.585 69.7425 116.644 69.7184C116.61 69.7184 116.492 69.7184 116.496 69.7184C116.513 69.7154 116.53 69.7154 116.547 69.7184C116.447 69.7184 116.53 69.6735 116.402 69.6977H116.434L116.268 69.7528C116.268 69.7528 116.185 69.7528 116.268 69.7528C116.286 69.7541 116.305 69.7541 116.323 69.7528H116.289C116.399 69.708 116.33 69.7528 116.416 69.7218C116.371 69.7218 116.271 69.7218 116.299 69.7218C116.409 69.6804 116.347 69.7218 116.44 69.6873L116.402 69.7218C116.575 69.6494 116.402 69.7218 116.578 69.6597C116.599 69.6218 116.509 69.6597 116.534 69.6115C116.471 69.6115 116.444 69.6459 116.378 69.6632C116.257 69.6632 116.647 69.5356 116.489 69.5598C116.413 69.5804 116.275 69.6287 116.34 69.5839L116.468 69.5425C116.468 69.5115 116.285 69.5977 116.358 69.5425C116.43 69.4874 116.406 69.5425 116.42 69.5425C116.509 69.4874 116.344 69.5598 116.34 69.5425L116.447 69.4977C116.42 69.477 116.33 69.4977 116.299 69.4598C116.333 69.451 116.366 69.437 116.396 69.4184C116.327 69.4184 116.375 69.3357 116.423 69.2701L116.323 69.3012C116.34 69.2865 116.36 69.2759 116.382 69.2701C116.409 69.2391 116.323 69.2977 116.285 69.3081C116.247 69.3184 116.333 69.2736 116.361 69.2632C116.275 69.2632 116.164 69.2632 116.251 69.2046H116.278C116.306 69.1667 116.081 69.277 116.157 69.2046H116.175C116.192 69.1426 116.088 69.1426 116.206 69.0391C116.075 69.1046 116.24 68.9667 116.061 69.0633C116.137 68.9909 116.171 68.9805 116.213 68.9116C116.213 68.9116 116.095 68.9633 116.071 68.9633L116.15 68.8357L116.047 68.8805L116.15 68.8081H116.119C116.103 68.8288 116.081 68.8453 116.057 68.8564C116.009 68.8564 116.099 68.7806 116.144 68.753H116.047C116.071 68.7391 116.097 68.7276 116.123 68.7185C116.019 68.7564 116.216 68.6564 116.123 68.6909C116.1 68.7076 116.076 68.7225 116.05 68.7357C116.099 68.6909 116.085 68.6702 116.05 68.6702L116.113 68.6358C116.113 68.5978 116.047 68.5978 116.03 68.5668C115.988 68.6075 115.939 68.6402 115.885 68.6633L115.974 68.5944C115.912 68.6289 115.947 68.6289 115.867 68.6668C115.867 68.6461 115.968 68.5875 116.002 68.5702H115.961L116.04 68.5185C115.981 68.553 116.116 68.4323 116.012 68.4944L116.04 68.4737C116.019 68.4427 115.978 68.453 115.957 68.4323C115.914 68.462 115.868 68.4874 115.819 68.5082C115.819 68.4737 115.878 68.4082 115.857 68.391C115.815 68.4113 115.776 68.4368 115.74 68.4668C115.809 68.4116 115.788 68.3944 115.843 68.3668C115.816 68.3668 115.809 68.3461 115.726 68.3668C115.708 68.387 115.689 68.4055 115.667 68.422C115.667 68.422 115.685 68.3875 115.719 68.3599C115.588 68.4116 115.854 68.122 115.688 68.2117L115.591 68.2462C115.591 68.2255 115.647 68.2117 115.681 68.1669C115.547 68.2324 115.66 68.1048 115.564 68.1462C115.743 67.9565 115.491 68.0945 115.591 67.96L115.55 68.0014C115.498 68.0358 115.567 67.9703 115.574 67.9565C115.581 67.9428 115.54 68.0014 115.512 68.0186C115.408 68.0186 115.477 67.8462 115.457 67.7566C115.457 67.7255 115.226 67.9703 115.301 67.8428L115.388 67.7669C115.253 67.829 115.312 67.6842 115.191 67.7324C115.212 67.7324 115.236 67.6911 115.239 67.6945C115.288 67.6256 115.212 67.6635 115.167 67.7118C115.167 67.7118 115.205 67.6669 115.226 67.6359C115.246 67.6049 115.132 67.698 115.184 67.6359C115.191 67.6279 115.199 67.6209 115.208 67.6152C115.177 67.6393 115.191 67.5842 115.132 67.66C115.132 67.6118 115.074 67.66 115.101 67.6118C115.022 67.6876 115.101 67.5532 115.008 67.6635C115.112 67.5463 115.063 67.5463 115.008 67.5945C115.043 67.5601 115.032 67.5497 115.077 67.5014C115.077 67.5014 115.036 67.5014 114.987 67.5704C115.087 67.4118 114.849 67.6531 114.987 67.4601C114.922 67.4887 114.854 67.5095 114.784 67.5221C114.88 67.4015 114.825 67.5221 114.925 67.4049C114.856 67.4325 114.76 67.5256 114.753 67.4739C114.746 67.4221 114.798 67.4256 114.818 67.4049C114.749 67.4359 114.77 67.3532 114.694 67.4049C114.703 67.3929 114.713 67.3824 114.725 67.3739C114.725 67.3739 114.725 67.3463 114.684 67.4049C114.63 67.4771 114.57 67.5441 114.504 67.6049C114.632 67.4497 114.504 67.5463 114.673 67.3497C114.65 67.3713 114.629 67.3956 114.611 67.4221C114.623 67.3915 114.642 67.3643 114.666 67.3428C114.625 67.3428 114.587 67.4256 114.573 67.4118L114.628 67.3463C114.584 67.3911 114.535 67.4428 114.539 67.4083C114.542 67.3739 114.563 67.3704 114.57 67.3739C114.577 67.3773 114.425 67.4876 114.435 67.4187C114.528 67.3015 114.456 67.3704 114.528 67.267L114.49 67.2877L114.459 67.3428C114.459 67.3428 114.383 67.4015 114.397 67.3428L114.439 67.3049H114.401V67.3532C114.349 67.4015 114.307 67.4911 114.314 67.4497C114.321 67.4084 114.314 67.4497 114.339 67.3739C114.307 67.4015 114.28 67.4325 114.287 67.4015L114.383 67.2601C114.318 67.3463 114.339 67.2601 114.266 67.3566C114.283 67.3359 114.321 67.2773 114.328 67.267L114.273 67.3359C114.285 67.3061 114.301 67.2782 114.321 67.2532C114.321 67.2256 114.238 67.3911 114.256 67.3187C114.256 67.3187 114.256 67.3187 114.276 67.2946C114.297 67.2704 114.207 67.3153 114.211 67.267C114.276 67.1567 114.245 67.267 114.297 67.1567C114.256 67.1567 114.156 67.2498 114.145 67.2084C114.045 67.3635 114.173 67.1187 114.114 67.1842C114.114 67.1842 114.173 67.1015 114.163 67.1187C114.163 67.0808 114.1 67.1187 114.042 67.1636L114.069 67.1256C114.069 67.0843 114.052 67.0877 114.052 67.0636C114.027 67.09 114.006 67.1202 113.99 67.1532C114.087 66.8981 113.848 67.236 113.928 67.0256C113.928 67.0256 113.955 66.9946 113.952 66.9912L113.904 67.0153C113.886 67.0471 113.871 67.0806 113.859 67.1153C113.831 67.1567 113.807 67.1842 113.8 67.1808C113.835 67.1336 113.861 67.0812 113.88 67.0256L113.842 67.0912C113.893 66.9601 113.762 67.2325 113.786 67.136L113.807 67.1015C113.79 67.1015 113.759 67.1601 113.755 67.1463C113.797 67.0636 113.783 67.1118 113.821 67.0463C113.821 67.0463 113.714 67.1877 113.748 67.1015C113.766 67.0808 113.773 67.1015 113.79 67.0636C113.831 66.9636 113.814 66.9843 113.814 66.967V66.9153V66.9429C113.686 67.1463 113.762 66.967 113.672 67.0946C113.71 67.0434 113.741 66.9878 113.766 66.9291C113.771 66.8988 113.781 66.8696 113.797 66.8429C113.748 66.9119 113.797 66.774 113.741 66.8774C113.741 66.8464 113.741 66.8774 113.773 66.7946C113.748 66.7946 113.748 66.8498 113.728 66.8877C113.659 66.9808 113.748 66.7395 113.648 66.8671C113.597 66.9153 113.541 67.0153 113.496 67.0532C113.511 67.0151 113.531 66.9792 113.555 66.9463C113.555 66.8981 113.555 66.9015 113.527 66.9463C113.541 66.9196 113.552 66.8919 113.562 66.8636C113.562 66.8636 113.503 66.9705 113.514 66.9222C113.535 66.882 113.558 66.8428 113.583 66.805C113.559 66.8257 113.521 66.8774 113.496 66.8981C113.514 66.8598 113.536 66.8238 113.562 66.7912C113.518 66.8181 113.483 66.8578 113.462 66.905V66.9395C113.474 66.9082 113.489 66.8782 113.507 66.8498C113.548 66.7912 113.507 66.8877 113.507 66.9188H113.49C113.414 67.0981 113.534 66.9188 113.545 66.9188L113.476 67.0429L113.545 66.9429C113.529 66.9874 113.507 67.0293 113.479 67.067C113.462 67.136 113.514 67.0256 113.479 67.1015C113.48 67.1095 113.48 67.1176 113.479 67.1256L113.507 67.0912C113.507 67.1187 113.465 67.1842 113.469 67.1601C113.452 67.2463 113.545 67.0808 113.503 67.1808C113.552 67.1498 113.552 67.0877 113.628 66.9877L113.524 67.2256L113.572 67.1325C113.572 67.1325 113.572 67.1325 113.555 67.1842C113.6 67.1256 113.576 67.1429 113.61 67.0843C113.583 67.1773 113.669 67.0636 113.61 67.2118C113.652 67.1429 113.61 67.1532 113.666 67.1084C113.59 67.2704 113.697 67.1084 113.666 67.1705C113.634 67.2325 113.631 67.2015 113.607 67.2808C113.686 67.1463 113.607 67.3222 113.634 67.3015C113.693 67.1911 113.679 67.267 113.717 67.2394C113.697 67.2739 113.717 67.3153 113.717 67.3635V67.3808C113.779 67.2739 113.783 67.3015 113.807 67.2842C113.789 67.3275 113.763 67.3672 113.731 67.4015C113.744 67.3784 113.762 67.3584 113.783 67.3428L113.735 67.4221C113.735 67.4221 113.817 67.3394 113.804 67.4049C113.846 67.3125 113.898 67.2247 113.959 67.1429C113.936 67.1867 113.911 67.2293 113.883 67.2704C113.883 67.2704 113.907 67.2394 113.883 67.2704L113.835 67.3359C113.835 67.3704 113.873 67.2808 113.876 67.2877C113.842 67.3497 113.855 67.3325 113.828 67.3808C113.8 67.429 113.828 67.3532 113.828 67.3808C113.825 67.4159 113.814 67.45 113.797 67.4808C113.811 67.4506 113.83 67.4228 113.852 67.398C113.852 67.398 113.814 67.4704 113.807 67.5049C113.831 67.467 113.807 67.5049 113.869 67.4256C113.861 67.45 113.849 67.4731 113.835 67.4945C113.866 67.4601 113.876 67.4945 113.921 67.4083C113.997 67.3359 113.921 67.4876 113.983 67.4635V67.4911C114.018 67.467 114.028 67.4911 114.076 67.4359C114.066 67.4685 114.049 67.4988 114.028 67.5256C114.052 67.5256 114.073 67.4808 114.059 67.5256C114.045 67.5704 114.035 67.5738 114.024 67.5566C114.024 67.5911 113.997 67.6393 114.062 67.5566C114.011 67.629 114.011 67.6566 114.031 67.6393L114.056 67.5807C114.056 67.5807 114.056 67.5807 114.076 67.5807L114.011 67.6738C113.959 67.8083 114.187 67.5083 114.08 67.7152C114.131 67.6531 114.08 67.66 114.156 67.5842C114.135 67.6431 114.111 67.7007 114.083 67.7566C114.062 67.8186 114.194 67.6256 114.187 67.6738C114.217 67.6188 114.255 67.5688 114.301 67.5256C114.275 67.5888 114.239 67.6471 114.194 67.698C114.194 67.698 114.194 67.698 114.194 67.6773C114.174 67.6934 114.157 67.7133 114.145 67.7359L114.173 67.7049C114.152 67.7428 114.173 67.7497 114.131 67.8048C114.154 67.7846 114.171 67.7583 114.18 67.729C114.159 67.7876 114.2 67.729 114.18 67.7911C114.19 67.7703 114.203 67.7506 114.218 67.7324C114.218 67.7876 114.273 67.6738 114.301 67.6704C114.273 67.729 114.211 67.7911 114.256 67.76C114.236 67.8032 114.208 67.842 114.173 67.8738C114.232 67.8186 114.173 67.9324 114.173 67.9496L114.145 67.9738C114.163 67.9738 114.166 67.9738 114.169 67.9738L114.211 67.9048C114.209 67.9217 114.202 67.9374 114.19 67.9496C114.228 67.9083 114.27 67.8359 114.321 67.7842C114.301 67.8221 114.363 67.76 114.301 67.8497C114.301 67.8048 114.238 67.9393 114.214 67.9428C114.19 67.9462 114.214 67.9428 114.214 67.9428L114.194 67.9669C114.152 68.0565 114.276 67.8738 114.29 67.8876C114.252 67.9359 114.225 67.9841 114.235 67.9772C114.26 67.9336 114.291 67.8941 114.328 67.86C114.328 67.9048 114.363 67.8393 114.366 67.86V67.8359C114.404 67.7911 114.404 67.8014 114.425 67.7911C114.446 67.7807 114.397 67.8117 114.387 67.8324C114.463 67.7531 114.342 67.9359 114.387 67.8876C114.366 67.9255 114.318 67.9807 114.304 68.0048C114.366 67.9531 114.27 68.0841 114.325 68.0427C114.347 68.0001 114.377 67.9626 114.414 67.9324L114.356 67.96L114.446 67.8772C114.446 67.8772 114.397 67.9083 114.404 67.8945C114.433 67.8689 114.458 67.8386 114.477 67.8048C114.411 67.9083 114.539 67.7635 114.501 67.8393L114.373 67.9979C114.335 68.0807 114.47 67.9393 114.459 67.9979L114.477 67.9634C114.528 67.9014 114.497 67.9634 114.525 67.9634C114.496 67.9982 114.469 68.035 114.446 68.0738C114.477 68.0324 114.446 68.0738 114.546 67.9876L114.501 68.0634C114.501 68.1082 114.642 67.9324 114.646 67.9634C114.609 68.0091 114.568 68.0517 114.525 68.091C114.525 68.091 114.525 68.1117 114.556 68.091C114.532 68.1255 114.632 68.0358 114.594 68.091C114.618 68.0703 114.663 68.0186 114.666 68.0289L114.646 68.0531C114.676 68.0253 114.703 67.9953 114.729 67.9634C114.608 68.1393 114.787 67.9945 114.684 68.1462C114.706 68.1395 114.73 68.1395 114.753 68.1462C114.753 68.1462 114.732 68.1703 114.732 68.1462C114.704 68.2048 114.874 68.0083 114.842 68.0772C114.811 68.1462 114.794 68.1117 114.773 68.1496C114.622 68.3151 114.811 68.1496 114.735 68.2531C114.694 68.3151 114.815 68.2082 114.818 68.2531L114.794 68.2772C114.841 68.2319 114.9 68.1997 114.963 68.1841C114.928 68.2115 114.895 68.2427 114.867 68.2772C114.867 68.2772 114.963 68.1738 114.994 68.1669C114.958 68.2175 114.919 68.2658 114.877 68.3117C114.798 68.4048 114.894 68.3117 114.877 68.3427L114.839 68.3806C114.87 68.3806 114.963 68.291 114.977 68.3151L115.005 68.2841C115.108 68.1979 114.96 68.3461 115.039 68.2841L114.946 68.3841C114.992 68.3552 115.04 68.3309 115.091 68.3117C115.033 68.3541 114.973 68.3932 114.911 68.4289C114.911 68.4289 114.939 68.4289 114.991 68.4013C114.991 68.4013 114.953 68.4254 114.967 68.4013C115.05 68.3358 115.098 68.3117 115.108 68.3255C114.915 68.5047 115.108 68.4082 114.953 68.5565C115.046 68.5151 114.953 68.6323 115.001 68.6461C115.146 68.5013 115.001 68.6461 115.17 68.5082L115.094 68.6116C115.053 68.6564 115.053 68.6358 115.018 68.6668C114.984 68.6978 114.956 68.7323 114.922 68.7771C114.977 68.7254 115.008 68.7116 114.991 68.7392L115.056 68.6633C115.157 68.6116 114.936 68.7944 115.036 68.7426L114.98 68.7806C115.018 68.7806 115.012 68.8185 115.15 68.7185C115.128 68.7432 115.102 68.7642 115.074 68.7806C115.074 68.8219 115.26 68.7219 115.194 68.8081L115.153 68.8357C115.153 68.8357 115.236 68.784 115.198 68.8357L115.157 68.8702C115.174 68.8702 115.236 68.8288 115.219 68.8702L115.167 68.9012C115.132 68.9667 115.308 68.853 115.353 68.853C115.232 68.9461 115.205 68.9943 115.194 69.0185H115.174C115.174 69.0598 115.312 68.9943 115.381 68.9874C115.26 69.0978 115.364 69.0874 115.305 69.1633C115.341 69.137 115.381 69.115 115.422 69.0978C115.398 69.1219 115.522 69.0598 115.402 69.1322C115.288 69.2115 115.329 69.2046 115.333 69.2184L115.488 69.1219C115.277 69.2874 115.616 69.146 115.422 69.2839C115.467 69.2839 115.471 69.2839 115.512 69.2598L115.429 69.3081C115.429 69.3391 115.412 69.3529 115.429 69.3667L115.367 69.3943C115.367 69.3943 115.622 69.2736 115.633 69.2839L115.509 69.3598C115.509 69.3805 115.422 69.4632 115.553 69.4253L115.488 69.4529C115.488 69.4529 115.422 69.5391 115.598 69.4529C115.484 69.5115 115.598 69.4805 115.657 69.4529L115.571 69.4942C115.628 69.4644 115.69 69.4446 115.754 69.4356C115.754 69.4356 115.685 69.4736 115.705 69.4563C115.667 69.4908 115.792 69.4287 115.754 69.4563L115.695 69.477C115.695 69.477 115.723 69.477 115.792 69.4529C115.861 69.4287 115.792 69.4908 115.702 69.5253C115.754 69.5253 115.819 69.4839 115.802 69.5011C115.783 69.511 115.763 69.519 115.743 69.5253C115.691 69.5735 115.857 69.5253 115.778 69.5667L115.726 69.5908V69.5563C115.661 69.5931 115.593 69.6243 115.522 69.6494C115.588 69.6494 115.729 69.5942 115.695 69.6218H115.671C115.671 69.6218 115.671 69.6218 115.688 69.6218L115.667 69.6425C115.598 69.6701 115.636 69.6735 115.636 69.6804C115.688 69.665 115.737 69.6442 115.785 69.6184H115.767C115.816 69.6184 115.857 69.5942 115.809 69.6184L115.957 69.5701C115.836 69.6287 115.774 69.677 115.698 69.708C115.772 69.7322 115.852 69.7322 115.926 69.708C115.95 69.708 115.878 69.7321 115.854 69.7459C115.83 69.7597 115.854 69.7459 115.809 69.7459C115.857 69.7459 115.84 69.777 115.961 69.7459C115.912 69.7804 115.847 69.777 115.874 69.7908H115.836C115.66 69.8942 116.182 69.7597 115.937 69.8873C115.95 69.879 115.963 69.8721 115.978 69.8666C115.881 69.9528 116.116 69.9528 115.954 70.0528C115.919 70.0769 115.999 70.0528 116.061 70.0528L115.961 70.0804H116.081C116.171 70.0804 115.84 70.1735 116.009 70.1666L116.078 70.1493C116.078 70.1493 116.123 70.1769 116.044 70.1907C116.044 70.1907 116.116 70.1907 116.081 70.1907H116.03H116.126C116.092 70.2183 115.912 70.2252 115.909 70.2562C115.974 70.2629 116.04 70.2629 116.106 70.2562C116.106 70.2562 116.137 70.2562 116.192 70.2286H116.22C116.365 70.2161 116.509 70.186 116.647 70.139H116.547L116.623 70.1183C116.692 70.0976 116.623 70.1183 116.582 70.1183C116.611 70.1142 116.638 70.1061 116.665 70.0942H116.509C116.562 70.0894 116.615 70.0778 116.665 70.0597C116.603 70.0722 116.541 70.0814 116.478 70.0873C116.547 70.0631 116.61 70.0562 116.544 70.0562C116.573 70.0523 116.602 70.0523 116.63 70.0562C116.578 70.0562 116.603 70.0321 116.52 70.0562C116.606 70.0252 116.489 70.0252 116.637 69.9942C116.595 70.0012 116.552 70.0012 116.509 69.9942C116.692 69.9735 116.509 69.9562 116.703 69.9183C116.54 69.9425 116.623 69.8873 116.53 69.8873C116.53 69.8873 116.568 69.8873 116.561 69.8873C116.554 69.8873 116.616 69.8563 116.644 69.839C116.562 69.8567 116.479 69.8671 116.396 69.8701C116.486 69.8422 116.578 69.8192 116.672 69.8011C116.565 69.8321 116.558 69.8011 116.471 69.8321C116.517 69.8108 116.565 69.7924 116.613 69.777C116.447 69.8218 116.582 69.777 116.478 69.777C116.554 69.7356 116.63 69.7287 116.575 69.7252C116.615 69.7216 116.655 69.7263 116.692 69.739ZM116.247 69.3598L116.185 69.3839C116.206 69.3819 116.227 69.3784 116.247 69.3736V69.3598ZM115.657 69.7046C115.657 69.7046 115.657 69.7046 115.678 69.6873H115.705L115.657 69.7046Z" fill="white"/>
<path d="M116.181 68.8289L116.157 68.8444L116.181 68.8366V68.8289Z" fill="white"/>
<path d="M113.845 66.9986V66.9601C113.848 66.9811 113.845 66.9916 113.845 66.9986Z" fill="white"/>
<path d="M113.811 66.9222L113.793 66.9607L113.811 66.9222Z" fill="white"/>
<path d="M114.373 67.3917L114.408 67.3567C114.408 67.3567 114.405 67.3427 114.373 67.3917Z" fill="white"/>
<path d="M114.425 67.3673C114.425 67.3458 114.425 67.3673 114.425 67.3673C114.425 67.3673 114.404 67.3781 114.425 67.3673Z" fill="white"/>
<path d="M113.545 66.7957H113.563C113.563 66.7957 113.56 66.7659 113.545 66.7957Z" fill="white"/>
<path d="M113.666 66.8395C113.666 66.8395 113.666 66.7671 113.666 66.7809V66.805C113.679 66.7671 113.634 66.8912 113.666 66.8395Z" fill="white"/>
<path d="M113.565 67.2739V67.2394C113.565 67.2739 113.534 67.3222 113.521 67.3256C113.486 67.436 113.548 67.2498 113.565 67.2739Z" fill="white"/>
<path d="M113.597 67.3532C113.597 67.3532 113.569 67.3987 113.559 67.4197C113.577 67.4014 113.591 67.3784 113.597 67.3532Z" fill="white"/>
<path d="M113.99 67.5807L113.942 67.6532C113.942 67.6532 113.959 67.6256 113.99 67.5807Z" fill="white"/>
<path d="M114.311 67.2401L114.336 67.1912L114.287 67.2576L114.311 67.2401Z" fill="white"/>
<path d="M114.014 67.7945L114.004 67.8049L114.031 67.7842L114.014 67.7945Z" fill="white"/>
<path d="M114.621 68.2186L114.69 68.1359C114.673 68.1462 114.59 68.2393 114.621 68.2186Z" fill="white"/>
<path d="M114.933 68.36C114.894 68.4019 114.877 68.4299 114.933 68.3984C114.989 68.367 114.943 68.353 114.933 68.36Z" fill="white"/>
<path d="M115.384 69.2047L115.35 69.2219L115.384 69.215V69.2047Z" fill="white"/>
</g>
<path d="M141 83.3163H63V124H141V83.3163Z" fill="url(#paint0_linear_384_3016)"/>
<path d="M119.257 81.3546C118.263 82.2648 116.03 83.8887 102.883 84.9747C90.8038 85.9711 84.7605 86.4711 82.6517 84.2507C79.7388 81.1856 82.7622 74.3797 88.4327 71.2216C94.3276 67.9393 100.799 69.877 102.883 66.8809C105.106 63.6986 99.546 58.9958 100.964 58.1959C101.655 57.8063 103.439 58.6441 109.634 62.5367C120.012 69.0598 120.789 70.3493 121.196 71.2216C122.573 74.2211 122.411 78.4895 119.257 81.3546Z" fill="url(#paint1_linear_384_3016)"/>
<path d="M141 101.59H63V107.106H141V101.59Z" fill="url(#paint2_linear_384_3016)"/>
<path d="M113.779 83.2267C114.006 78.8005 115.114 74.4637 117.037 70.47L118.028 73.0834C118.905 71.6032 119.78 70.1252 120.654 68.6496C120.82 69.569 120.985 70.4826 121.148 71.3906L124.123 67.2084L125.062 69.7218L127.478 66.2155V68.7944L130.477 66.2155V68.0738L134.083 66.2155V67.9393L138.004 66.2155L136.513 69.1805L140.31 68.9013L137.376 71.594L138.843 72.942L135.164 74.628L137.669 75.6416L134.511 76.9759L133.438 77.431H135.688L133.566 78.8757L135.033 79.417L131.512 80.765L132.392 81.3029L128.285 81.8442L129.752 82.651L125.814 82.9716L127.319 84.4748C125.4 84.6028 123.474 84.6028 121.555 84.4748C118.93 84.2974 116.328 83.8797 113.779 83.2267Z" fill="url(#paint3_linear_384_3016)"/>
<path d="M113.79 83.1164C110.674 80.0102 108.21 76.3145 106.542 72.2456L109.127 73.2489C108.621 71.6261 108.112 70.0011 107.602 68.3737L109.948 69.8287L108.841 64.8639L111.319 65.843L110.325 61.7506L112.226 63.4744L112.306 59.5267L113.686 60.761L114.722 56.872L115.985 58.0097L117.303 54.0103L118.501 57.0788L120.834 54.0931L120.875 58.0408L122.843 57.858L121.645 61.685L124.061 60.5128L122.95 63.7227L122.573 64.8122L124.064 63.1572L123.719 65.681L125.1 64.9604L123.743 68.4358L124.724 68.1462L122.397 71.525L123.968 70.9837L121.583 74.0867L123.692 73.9798C122.511 75.4767 121.233 76.8934 119.864 78.2205C117.994 80.0353 115.961 81.6742 113.79 83.1164Z" fill="url(#paint4_linear_384_3016)"/>
<path d="M125.148 82.282L105.841 88.3328C105.714 87.7019 105.589 87.0709 105.462 86.44C105.591 85.0609 105.717 83.6749 105.841 82.282L121.742 77.3793L125.148 80.7822V82.282Z" fill="#8E6862"/>
<path d="M125.148 80.7822L105.451 86.4538V80.0237L121.362 75.1107L125.148 80.7822Z" fill="#A38078"/>
<path d="M123.139 80.6616L106.977 85.3195V80.041L120.03 76.0037C121.065 77.5598 122.102 79.1124 123.139 80.6616Z" fill="#8E6862"/>
</g>
<defs>
<filter id="filter0_d_384_3016" x="0" y="0" width="203" height="202.75" filterUnits="userSpaceOnUse" color-interpolation-filters="sRGB">
<feFlood flood-opacity="0" result="BackgroundImageFix"/>
<feColorMatrix in="SourceAlpha" type="matrix" values="0 0 0 0 0 0 0 0 0 0 0 0 0 0 0 0 0 0 127 0" result="hardAlpha"/>
<feMorphology radius="2" operator="dilate" in="SourceAlpha" result="effect1_dropShadow_384_3016"/>
<feOffset dy="2"/>
<feGaussianBlur stdDeviation="8.5"/>
<feComposite in2="hardAlpha" operator="out"/>
<feColorMatrix type="matrix" values="0 0 0 0 0 0 0 0 0 0 0 0 0 0 0 0 0 0 0.09 0"/>
<feBlend mode="normal" in2="BackgroundImageFix" result="effect1_dropShadow_384_3016"/>
<feBlend mode="normal" in="SourceGraphic" in2="effect1_dropShadow_384_3016" result="shape"/>
</filter>
<linearGradient id="paint0_linear_384_3016" x1="63" y1="103.658" x2="141" y2="103.658" gradientUnits="userSpaceOnUse">
<stop stop-color="#BC9A95"/>
<stop offset="0.05" stop-color="#BA9893"/>
<stop offset="0.65" stop-color="#A38078"/>
<stop offset="0.77" stop-color="#A6837B"/>
<stop offset="0.88" stop-color="#AE8C85"/>
<stop offset="0.97" stop-color="#BC9A97"/>
<stop offset="1" stop-color="#C1A09D"/>
</linearGradient>
<linearGradient id="paint1_linear_384_3016" x1="81.5301" y1="71.9663" x2="122.018" y2="71.9663" gradientUnits="userSpaceOnUse">
<stop stop-color="white"/>
<stop offset="1" stop-color="#F4CAA6"/>
</linearGradient>
<linearGradient id="paint2_linear_384_3016" x1="63" y1="104.348" x2="141" y2="104.348" gradientUnits="userSpaceOnUse">
<stop stop-color="white"/>
<stop offset="1" stop-color="#F4CAA6"/>
</linearGradient>
<linearGradient id="paint3_linear_384_3016" x1="125.024" y1="62.123" x2="128.396" y2="85.4308" gradientUnits="userSpaceOnUse">
<stop stop-color="#B0DDD1"/>
<stop offset="0.19" stop-color="#9DCDC0"/>
<stop offset="0.49" stop-color="#85BAAB"/>
<stop offset="0.76" stop-color="#77AE9E"/>
<stop offset="1" stop-color="#72AA9A"/>
</linearGradient>
<linearGradient id="paint4_linear_384_3016" x1="105.691" y1="60.8328" x2="125.107" y2="73.8366" gradientUnits="userSpaceOnUse">
<stop stop-color="#B0DDD1"/>
<stop offset="0.19" stop-color="#9DCDC0"/>
<stop offset="0.49" stop-color="#85BAAB"/>
<stop offset="0.76" stop-color="#77AE9E"/>
<stop offset="1" stop-color="#72AA9A"/>
</linearGradient>
<clipPath id="clip0_384_3016">
<rect width="78" height="70" fill="white" transform="translate(63 54)"/>
</clipPath>
</defs>
</svg>
