<svg xmlns="http://www.w3.org/2000/svg" xmlns:xlink="http://www.w3.org/1999/xlink" width="390" height="360" viewBox="0 0 390 360"><defs><style>.cls-1,.cls-2{fill:none;}.cls-2{stroke:#333;stroke-linecap:round;stroke-miterlimit:10;stroke-width:4px;}.cls-3{clip-path:url(#clip-path);}.cls-4{fill:url(#radial-gradient);}.cls-5{fill:url(#radial-gradient-2);}.cls-6{fill:url(#linear-gradient);}.cls-7{opacity:0.34;}.cls-8{fill:url(#linear-gradient-2);}.cls-9{fill:url(#linear-gradient-3);}.cls-10{fill:url(#linear-gradient-4);}.cls-11{fill:url(#radial-gradient-3);}.cls-12{fill:#9d8079;}.cls-13{fill:url(#radial-gradient-4);}.cls-14{fill:url(#radial-gradient-5);}.cls-15{fill:url(#linear-gradient-5);}.cls-16{fill:#fffcf8;}.cls-17{fill:#444947;}.cls-18{fill:#ad0707;}.cls-19{fill:#fbf7f1;}.cls-20{fill:url(#linear-gradient-6);}.cls-21{fill:#ccc;}.cls-22{fill:#939393;}.cls-23{fill:#f5a4c6;}.cls-24{fill:url(#linear-gradient-7);}</style><clipPath id="clip-path"><rect class="cls-1" x="115.37" y="9.98" width="247.31" height="285.85"/></clipPath><radialGradient id="radial-gradient" cx="-2024.84" cy="-2344.31" r="1" gradientTransform="matrix(121.85, 0, 0, -122.34, 246961.89, -286640.2)" gradientUnits="userSpaceOnUse"><stop offset="0" stop-color="#f1dbc8"/><stop offset="0.29" stop-color="#dec3af"/><stop offset="0.65" stop-color="#caaa94"/><stop offset="0.76" stop-color="#ccad97"/><stop offset="0.85" stop-color="#d4b7a1"/><stop offset="0.93" stop-color="#e1c7b3"/><stop offset="1" stop-color="#f1dbc8"/></radialGradient><radialGradient id="radial-gradient-2" cx="-2010.84" cy="-2335.89" r="1" gradientTransform="matrix(93.52, 49.83, 47.93, -89.96, 300247.61, -109787.39)" xlink:href="#radial-gradient"/><linearGradient id="linear-gradient" x1="184.59" y1="-5456.94" x2="127.66" y2="-5532.74" gradientTransform="matrix(1, 0, 0, -1, 0, -5406)" gradientUnits="userSpaceOnUse"><stop offset="0" stop-color="#f1dbc8"/><stop offset="0.34" stop-color="#eccbaa"/><stop offset="0.75" stop-color="#b69888"/><stop offset="0.99" stop-color="#9d8079"/></linearGradient><linearGradient id="linear-gradient-2" x1="184.59" y1="-5457.77" x2="127.66" y2="-5533.57" xlink:href="#linear-gradient"/><linearGradient id="linear-gradient-3" x1="223.59" y1="-5447.15" x2="144.71" y2="-5499.48" xlink:href="#linear-gradient"/><linearGradient id="linear-gradient-4" x1="223.35" y1="-5448.1" x2="143.28" y2="-5498.52" xlink:href="#linear-gradient"/><radialGradient id="radial-gradient-3" cx="-2020.98" cy="-2349.85" r="1" gradientTransform="matrix(99.98, 0, 0, -100.38, 202310.89, -235735.1)" xlink:href="#radial-gradient"/><radialGradient id="radial-gradient-4" cx="-2018.28" cy="-2353.72" r="1" gradientTransform="matrix(88.85, 0, 0, -89.21, 179560.55, -209811.03)" gradientUnits="userSpaceOnUse"><stop offset="0" stop-color="#eccbaa"/><stop offset="0.04" stop-color="#e7c6a6"/><stop offset="0.3" stop-color="#c7a792"/><stop offset="0.56" stop-color="#af9284"/><stop offset="0.8" stop-color="#a1857d"/><stop offset="1" stop-color="#9d8079"/></radialGradient><radialGradient id="radial-gradient-5" cx="-1969.07" cy="-2391.1" r="1" gradientTransform="matrix(29.3, 0, 0, -42.95, 57980.92, -102440.08)" xlink:href="#radial-gradient-4"/><linearGradient id="linear-gradient-5" x1="116.75" y1="-5646.77" x2="375.99" y2="-5646.77" gradientTransform="matrix(1, 0, 0, -1, 0, -5406)" gradientUnits="userSpaceOnUse"><stop offset="0" stop-color="#faeaf2"/><stop offset="0.64" stop-color="#e8a7c4"/><stop offset="1" stop-color="#f5d8e6"/></linearGradient><linearGradient id="linear-gradient-6" x1="5.24" y1="196.02" x2="87.74" y2="196.02" gradientUnits="userSpaceOnUse"><stop offset="0" stop-color="#b0ddd1"/><stop offset="1" stop-color="#83b8aa"/></linearGradient><linearGradient id="linear-gradient-7" x1="158.88" y1="228.33" x2="232.15" y2="228.33" gradientTransform="translate(73.81 132.8) rotate(-12.09)" xlink:href="#linear-gradient-6"/></defs><g id="Layer_2" data-name="Layer 2"><path class="cls-2" d="M121.5,247c-1.81,2.06-12,13.17-27,13-16.31-.19-31.77-13.56-36-33"/><g class="cls-3"><path class="cls-4" d="M362.67,159.4c.21,26.1-10.58,46.67-17.81,57.91a12.72,12.72,0,0,1-1.14,8.27c-.93,1.72-1.65,1.89-5.77,5.79-4.66,4.41-4.88,5.27-6.59,5.79-1.24.38-4.28.9-9.06-2.48l-14.73,21.66a20,20,0,0,0-3.4,3.16c-2,2.35-2.32,3.85-3.3,5-1.34,1.52-4.31,2.74-11.53,1.09l-7.15,3.61a63.75,63.75,0,0,1-6.87,6.88c-4.63,4-7.73,6.62-11.53,7.45-8.14,1.71-15.77-5.87-17.31-7.45a36.7,36.7,0,0,1-7.41,0,37.86,37.86,0,0,1-16.48-5.79l-40.38-14.89c-5.51-3.7-10-6.44-13.18-8.27-4.57-2.66-7.85-4.35-9.89-8.27a14.91,14.91,0,0,1-1.58-5.62l-7.73-9.41a51.82,51.82,0,0,1-8-6.48c-3.39-3.36-10-9.89-11.54-19-.63-3.68,0-4.92.83-12.41a165,165,0,0,0,.82-22.34l-1.65-4.13a9.94,9.94,0,0,1-7.41,1.65,9.54,9.54,0,0,1-4.8-2.63,9.67,9.67,0,0,1-2.62-4.81c-.72-3.91,2.29-5,4.12-10.76,3-9.36-2.14-15.51,1.65-19,2.77-2.57,7.09-.76,8.24-3.31.87-1.92-1.44-3.31-1.65-6.62-.25-4,2.87-5.86,6.59-11.58,2.23-3.41,1.12-2.74,5.77-12.41,6-12.41,7.82-13.55,9.07-14.06s5.57-1.93,13.11,3.09c9.07-8.83,40.21-37,84.11-36.18C308.21,43.88,362.22,101.67,362.67,159.4Z"/><path class="cls-5" d="M331.9,202.45c-19,36.11-61.66,56.84-106.24,51.18a34,34,0,0,1-16.92-1.5c-7.14-2.63-11.34-7.2-14.5-10.53-18-18.87-19.47-15.78-27.05-25.64-5.18-6.74-14.94-21.79-17.3-47.24-3.13,4.38-6.85,6.8-9.4,5.9-2.25-.79-2.92-3.91-3.86-8.61-.76-3.81-1.72-11,.13-21.46a76.93,76.93,0,0,1,2.48-9.92c-2.35-5.49-1.77-8.78-.83-10.76,1.78-3.86,5.05-3.12,7.93-8,2.12-3.56,2.53-7.62,2.82-10.66a41.16,41.16,0,0,0,.14-5.55,45.78,45.78,0,0,1,2.95-16.21,14.41,14.41,0,0,0,6-4.3c2-2.48,1.93-4.34,3.08-5.85,1.56-2,5.51-3.64,16.43-1C180,71,234.92,37.94,286.82,66.12,332.76,91.08,357.5,153.77,331.9,202.45Z"/><path class="cls-6" d="M158.53,32.62l27.3,97.62a4.86,4.86,0,0,1-2.62,5.72l-24.09,11.23a4.9,4.9,0,0,1-2.06.45,5,5,0,0,1-2.05-.47,4.9,4.9,0,0,1-1.66-1.3,5,5,0,0,1-.95-1.89L127.49,45.86A4.86,4.86,0,0,1,130,40.3l21.7-10.71a4.82,4.82,0,0,1,4.11-.08,5.06,5.06,0,0,1,1.69,1.25,4.92,4.92,0,0,1,1,1.86Z"/><g class="cls-7"><path class="cls-8" d="M158.53,33.45l27.3,97.62a4.86,4.86,0,0,1-2.62,5.72L159.12,148a4.75,4.75,0,0,1-2.06.45A4.83,4.83,0,0,1,155,148a4.9,4.9,0,0,1-1.66-1.3,5,5,0,0,1-.95-1.89L127.49,46.69A4.85,4.85,0,0,1,130,41.13l21.7-10.72a5,5,0,0,1,2-.5,4.87,4.87,0,0,1,2.06.42,5,5,0,0,1,1.69,1.26,4.85,4.85,0,0,1,1,1.86Z"/></g><path class="cls-9" d="M205.15,15.16,198.36,116.3a4.87,4.87,0,0,1-1.36,3.06,4.76,4.76,0,0,1-3,1.44l-26.45,2.48a4.79,4.79,0,0,1-2.09-.26,4.87,4.87,0,0,1-1.77-1.13,4.7,4.7,0,0,1-1.13-1.78,4.85,4.85,0,0,1-.28-2.1l9.19-100.8a4.83,4.83,0,0,1,4.25-4.38l24-2.82a4.81,4.81,0,0,1,3.91,1.3,4.77,4.77,0,0,1,1.17,1.76,4.94,4.94,0,0,1,.33,2.09Z"/><g class="cls-7"><path class="cls-10" d="M205.53,15.68l-9.17,100.93a4.83,4.83,0,0,1-4.47,4.4l-26.5,1.86a4.76,4.76,0,0,1-2.08-.32,4.84,4.84,0,0,1-2.84-3,4.83,4.83,0,0,1-.22-2.1L171.83,16.92a4.85,4.85,0,0,1,4.36-4.28l24.08-2.23a4.79,4.79,0,0,1,2.09.27,4.85,4.85,0,0,1,2.9,2.91,4.79,4.79,0,0,1,.27,2.09Z"/></g><path class="cls-11" d="M335.43,209.31c-24,33.94-68.49,50.11-110.75,39.87a31.7,31.7,0,0,1-16.13-3.25c-6.49-3.35-9.84-8.33-12.36-12-14.41-20.64-16.37-17.72-22.15-28.27-3.95-7.23-11-23.22-9.31-48.75-3.72,4-7.69,6-10,4.89-2.05-1-2.21-4.19-2.38-9-.14-3.87.06-11.1,3.48-21.32a83.64,83.64,0,0,1,3.93-9.62c-1.42-5.7-.33-8.92.82-10.75,2.32-3.66,5.37-2.59,8.91-7.09,2.61-3.31,3.64-7.33,4.41-10.32a41.15,41.15,0,0,0,1-5.5,48.58,48.58,0,0,1,5.42-15.83,15.08,15.08,0,0,0,6.47-3.66c2.33-2.28,2.55-4.14,3.9-5.49,1.82-1.86,5.89-3.05,16,.72,2.39-1.17,60.67-28.31,106.45,5.08C353.69,98.67,367.8,163.56,335.43,209.31Z"/><path class="cls-12" d="M277,114.18a.42.42,0,0,0,.42-.42.42.42,0,0,0-.83,0A.42.42,0,0,0,277,114.18Z"/><path class="cls-12" d="M266.92,112.84a.41.41,0,1,0-.41-.41A.41.41,0,0,0,266.92,112.84Z"/><path class="cls-12" d="M250,121.08a.41.41,0,1,0-.41-.41A.41.41,0,0,0,250,121.08Z"/><path class="cls-12" d="M281.64,129.2a.42.42,0,0,0,0-.83.42.42,0,0,0,0,.83Z"/><path class="cls-12" d="M259.16,125.45s0-.09,0-.1-.07,0-.1,0,0,.09,0,.1A.07.07,0,0,0,259.16,125.45Z"/><path class="cls-12" d="M262.59,125.75a.08.08,0,0,0,0-.11.07.07,0,0,0-.1,0s0,.09,0,.11A.07.07,0,0,0,262.59,125.75Z"/><path class="cls-12" d="M259.41,122.68a.07.07,0,0,0,0-.11s-.07,0-.09,0a.08.08,0,0,0,0,.11A.07.07,0,0,0,259.41,122.68Z"/><path class="cls-12" d="M256.45,123.55s0-.08,0-.1-.07,0-.09,0a.08.08,0,0,0,0,.11A.08.08,0,0,0,256.45,123.55Z"/><path class="cls-12" d="M263.63,127.89s0-.09,0-.1a.08.08,0,0,0-.1,0s0,.09,0,.1A.08.08,0,0,0,263.63,127.89Z"/><path class="cls-12" d="M262.81,118.72a.08.08,0,0,0,0-.1.07.07,0,0,0-.1,0s0,.09,0,.1S262.78,118.76,262.81,118.72Z"/><path class="cls-12" d="M256.17,122.57a.09.09,0,0,0,0-.11.09.09,0,0,0-.08.15A.08.08,0,0,0,256.17,122.57Z"/><path class="cls-12" d="M259,117.44a.09.09,0,0,0,0-.11s-.07,0-.1,0a.09.09,0,0,0,0,.11A.08.08,0,0,0,259,117.44Z"/><path class="cls-12" d="M261.07,121.93s0-.09,0-.1a.08.08,0,0,0-.1,0s0,.09,0,.1A.08.08,0,0,0,261.07,121.93Z"/><path class="cls-12" d="M245.94,117a.08.08,0,0,0,0-.11.08.08,0,0,0-.1,0s0,.09,0,.11S245.92,117,245.94,117Z"/><path class="cls-12" d="M246.85,119.15a.09.09,0,0,0,0-.11.09.09,0,0,0-.08.15A.08.08,0,0,0,246.85,119.15Z"/><path class="cls-12" d="M248.88,116.93s0-.09,0-.1a.08.08,0,1,0,0,.1Z"/><path class="cls-12" d="M259.7,119.1a.09.09,0,0,0,0-.11.08.08,0,0,0-.1,0,.09.09,0,0,0,0,.11S259.67,119.14,259.7,119.1Z"/><path class="cls-12" d="M267.78,130.16a.09.09,0,0,0,0-.11.09.09,0,0,0-.1,0,.07.07,0,1,0,.12.06Z"/><path class="cls-12" d="M272,130a.09.09,0,0,0,0-.11.08.08,0,0,0-.1,0,.09.09,0,0,0,0,.11A.08.08,0,0,0,272,130Z"/><path class="cls-12" d="M263.16,122.85a.41.41,0,0,0,.41-.42.41.41,0,0,0-.82,0A.41.41,0,0,0,263.16,122.85Z"/><path class="cls-12" d="M236.69,112.72a.41.41,0,0,0,.41-.41.42.42,0,1,0-.83,0A.41.41,0,0,0,236.69,112.72Z"/><path class="cls-12" d="M268.45,106.11a.42.42,0,1,0-.41-.41A.41.41,0,0,0,268.45,106.11Z"/><path class="cls-12" d="M255.09,120.79a.42.42,0,0,0,.41-.42.42.42,0,0,0-.83,0A.42.42,0,0,0,255.09,120.79Z"/><path class="cls-12" d="M264.86,98.44a.41.41,0,0,0,.41-.41.41.41,0,1,0-.82,0A.41.41,0,0,0,264.86,98.44Z"/><path class="cls-12" d="M246.1,98.18a.42.42,0,0,0,.42-.42.42.42,0,0,0-.83,0A.42.42,0,0,0,246.1,98.18Z"/><path class="cls-12" d="M270.69,119.69a.41.41,0,1,0-.41-.41A.41.41,0,0,0,270.69,119.69Z"/><path class="cls-12" d="M251,111.65a.41.41,0,0,0,0-.82.41.41,0,0,0,0,.82Z"/><path class="cls-12" d="M241.77,112.83a.42.42,0,1,0-.41-.42A.41.41,0,0,0,241.77,112.83Z"/><path class="cls-12" d="M233.4,107.11a.41.41,0,0,0,.41-.41.41.41,0,1,0-.82,0A.41.41,0,0,0,233.4,107.11Z"/><path class="cls-12" d="M256.92,109.59a.09.09,0,0,0,0-.11.1.1,0,0,0-.1,0,.07.07,0,1,0,.12.06Z"/><path class="cls-12" d="M254,110.47a.09.09,0,0,0,0-.11.08.08,0,0,0-.1,0,.09.09,0,0,0,0,.11A.08.08,0,0,0,254,110.47Z"/><path class="cls-12" d="M253.67,109.48a.09.09,0,0,0,0-.11.08.08,0,0,0-.1,0,.09.09,0,0,0,0,.11A.08.08,0,0,0,253.67,109.48Z"/><path class="cls-12" d="M256.45,104.35a.09.09,0,0,0,0-.11s-.07,0-.1,0a.09.09,0,0,0,0,.11A.08.08,0,0,0,256.45,104.35Z"/><path class="cls-12" d="M257.84,106s0-.09,0-.11-.07,0-.09,0a.08.08,0,0,0,0,.11A.07.07,0,0,0,257.84,106Z"/><path class="cls-12" d="M250.06,105.43s0-.09,0-.1-.07,0-.1,0,0,.09,0,.1A.07.07,0,0,0,250.06,105.43Z"/><path class="cls-12" d="M247.11,106.31a.09.09,0,0,0,0-.11.08.08,0,0,0-.1,0,.07.07,0,1,0,.12.06Z"/><path class="cls-12" d="M246.81,105.31s0-.09,0-.1-.07,0-.1,0,0,.09,0,.1A.07.07,0,0,0,246.81,105.31Z"/><path class="cls-12" d="M249.59,100.19a.09.09,0,0,0,0-.11.09.09,0,0,0-.1,0,.09.09,0,0,0,0,.11A.08.08,0,0,0,249.59,100.19Z"/><path class="cls-12" d="M250.35,101.84a.07.07,0,0,0,0-.1.07.07,0,0,0-.1,0s0,.09,0,.11A.07.07,0,0,0,250.35,101.84Z"/><path class="cls-12" d="M256.91,109.78a.07.07,0,1,0-.12-.06s0,.09,0,.1A.08.08,0,0,0,256.91,109.78Z"/><path class="cls-12" d="M257.17,107s0-.09,0-.1a.08.08,0,0,0-.1,0s0,.09,0,.1A.08.08,0,0,0,257.17,107Z"/><path class="cls-12" d="M254.21,107.9a.09.09,0,0,0,0-.11.09.09,0,0,0-.1,0,.09.09,0,0,0,0,.11A.08.08,0,0,0,254.21,107.9Z"/><path class="cls-12" d="M260.55,103.05a.06.06,0,0,0,0-.1s-.07,0-.09,0a.07.07,0,1,0,.11.06Z"/><path class="cls-12" d="M253.92,106.91a.09.09,0,0,0,0-.11.09.09,0,0,0-.08.15A.08.08,0,0,0,253.92,106.91Z"/><path class="cls-12" d="M256.7,101.78a.09.09,0,0,0,0-.11.08.08,0,0,0-.1,0,.09.09,0,0,0,0,.11A.08.08,0,0,0,256.7,101.78Z"/><path class="cls-12" d="M258.82,106.27s0-.09,0-.1a.07.07,0,0,0-.1,0s0,.09,0,.1S258.79,106.31,258.82,106.27Z"/><path class="cls-12" d="M257.45,103.44a.08.08,0,0,0,0-.11.07.07,0,0,0-.1,0s0,.09,0,.11S257.43,103.48,257.45,103.44Z"/><path class="cls-12" d="M260.91,107.19a.41.41,0,0,0,.41-.42.41.41,0,1,0-.82,0A.41.41,0,0,0,260.91,107.19Z"/><path class="cls-12" d="M252.84,105.13a.42.42,0,0,0,.41-.42.42.42,0,0,0-.83,0A.42.42,0,0,0,252.84,105.13Z"/><path class="cls-12" d="M270.91,113.8a.09.09,0,0,0,0-.11s-.07,0-.1,0a.09.09,0,0,0,0,.11A.08.08,0,0,0,270.91,113.8Z"/><path class="cls-12" d="M271.16,111a.07.07,0,1,0-.11-.06.07.07,0,0,0,0,.1A.07.07,0,0,0,271.16,111Z"/><path class="cls-12" d="M268.21,111.91a.09.09,0,0,0,0-.11.08.08,0,0,0-.1,0,.09.09,0,0,0,0,.11A.08.08,0,0,0,268.21,111.91Z"/><path class="cls-12" d="M274.56,107.06a.09.09,0,0,0,0-.11.08.08,0,0,0-.1,0,.07.07,0,1,0,.12.06Z"/><path class="cls-12" d="M267.92,110.91s0-.09,0-.1a.08.08,0,0,0-.1,0s0,.09,0,.1A.08.08,0,0,0,267.92,110.91Z"/><path class="cls-12" d="M270.7,105.79a.09.09,0,0,0,0-.11.09.09,0,0,0-.1,0,.09.09,0,0,0,0,.11A.08.08,0,0,0,270.7,105.79Z"/><path class="cls-12" d="M272.83,110.27a.09.09,0,0,0,0-.11.08.08,0,0,0-.1,0,.09.09,0,0,0,0,.11A.08.08,0,0,0,272.83,110.27Z"/><path class="cls-12" d="M271.45,107.44s0-.09,0-.1a.07.07,0,0,0-.1,0s0,.08,0,.1S271.43,107.48,271.45,107.44Z"/><path class="cls-12" d="M266.84,109.13a.42.42,0,1,0-.42-.41A.42.42,0,0,0,266.84,109.13Z"/><path class="cls-12" d="M269.53,119.27s0-.09,0-.1a.08.08,0,0,0-.1,0s0,.09,0,.1A.08.08,0,0,0,269.53,119.27Z"/><path class="cls-12" d="M269.78,116.51a.09.09,0,0,0,0-.11s-.07,0-.1,0a.09.09,0,0,0,0,.11A.09.09,0,0,0,269.78,116.51Z"/><path class="cls-12" d="M266.83,117.38s0-.09,0-.1a.07.07,0,0,0-.1,0s0,.09,0,.1S266.8,117.42,266.83,117.38Z"/><path class="cls-12" d="M273.17,112.54a.08.08,0,0,0,0-.11.07.07,0,0,0-.1,0s0,.09,0,.11S273.15,112.58,273.17,112.54Z"/><path class="cls-12" d="M271.44,115.74a.09.09,0,0,0,0-.11.09.09,0,0,0-.1.05.07.07,0,1,0,.12.06Z"/><path class="cls-12" d="M270.07,112.92a.09.09,0,0,0,0-.11s-.07,0-.1,0a.09.09,0,0,0,0,.11A.07.07,0,0,0,270.07,112.92Z"/><path class="cls-12" d="M258.65,118.72a.08.08,0,0,0,0-.1.07.07,0,0,0-.1,0s0,.09,0,.11A.09.09,0,0,0,258.65,118.72Z"/><path class="cls-12" d="M258.9,116a.06.06,0,0,0,0-.1s-.07,0-.09,0,0,.09,0,.1S258.88,116,258.9,116Z"/><path class="cls-12" d="M256,116.84a.09.09,0,0,0,0-.11.1.1,0,0,0-.1,0,.07.07,0,1,0,.12.06Z"/><path class="cls-12" d="M262.3,112s0-.09,0-.1a.07.07,0,0,0-.1,0,.08.08,0,0,0,0,.1S262.27,112,262.3,112Z"/><path class="cls-12" d="M260.56,115.2a.07.07,0,1,0-.12-.06.09.09,0,0,0,0,.11A.08.08,0,0,0,260.56,115.2Z"/><path class="cls-12" d="M259.19,112.38s0-.09,0-.11a.07.07,0,0,0-.1,0s0,.09,0,.11A.07.07,0,0,0,259.19,112.38Z"/><path class="cls-12" d="M227.19,112.34a.42.42,0,1,0-.41-.41A.42.42,0,0,0,227.19,112.34Z"/><path class="cls-12" d="M217.16,111a.41.41,0,0,0,.41-.42.41.41,0,0,0-.82,0A.41.41,0,0,0,217.16,111Z"/><path class="cls-12" d="M200.28,119.25a.42.42,0,1,0-.41-.42A.42.42,0,0,0,200.28,119.25Z"/><path class="cls-12" d="M231.88,127.36a.41.41,0,1,0-.41-.41A.41.41,0,0,0,231.88,127.36Z"/><path class="cls-12" d="M209.39,123.62a.09.09,0,0,0,0-.11.09.09,0,0,0-.08.15A.08.08,0,0,0,209.39,123.62Z"/><path class="cls-12" d="M212.14,123.87s0-.09,0-.1-.07,0-.09,0,0,.09,0,.1S212.12,123.91,212.14,123.87Z"/><path class="cls-12" d="M209.65,120.85a.09.09,0,0,0,0-.11.09.09,0,0,0-.1.05.08.08,0,0,0,0,.1A.07.07,0,0,0,209.65,120.85Z"/><path class="cls-12" d="M206.7,121.73a.09.09,0,0,0,0-.11.08.08,0,0,0-.1,0,.09.09,0,0,0,0,.11A.08.08,0,0,0,206.7,121.73Z"/><path class="cls-12" d="M214.44,126.16s0-.08,0-.1-.07,0-.09,0,0,.09,0,.1A.07.07,0,0,0,214.44,126.16Z"/><path class="cls-12" d="M213,116.88a.07.07,0,1,0-.12-.06s0,.09,0,.1S213,116.92,213,116.88Z"/><path class="cls-12" d="M206.4,120.74a.09.09,0,0,0,0-.11.07.07,0,0,0-.1,0,.09.09,0,0,0,0,.11S206.37,120.78,206.4,120.74Z"/><path class="cls-12" d="M209.18,115.6a.08.08,0,0,0,0-.1s-.07,0-.1,0a.09.09,0,0,0,0,.11A.08.08,0,0,0,209.18,115.6Z"/><path class="cls-12" d="M211.31,120.09s0-.09,0-.1a.07.07,0,0,0-.1,0,.08.08,0,0,0,0,.1S211.28,120.13,211.31,120.09Z"/><path class="cls-12" d="M196.18,115.16s0-.09,0-.11-.07,0-.09,0a.08.08,0,0,0,0,.11A.07.07,0,0,0,196.18,115.16Z"/><path class="cls-12" d="M197.09,117.31a.09.09,0,0,0,0-.11.09.09,0,0,0-.08.15A.08.08,0,0,0,197.09,117.31Z"/><path class="cls-12" d="M199.12,115.09a.09.09,0,0,0,0-.11.09.09,0,0,0-.1,0,.08.08,0,0,0,0,.1S199.09,115.13,199.12,115.09Z"/><path class="cls-12" d="M209.94,117.27a.09.09,0,0,0,0-.11.09.09,0,0,0-.08.15A.08.08,0,0,0,209.94,117.27Z"/><path class="cls-12" d="M218,128.32a.09.09,0,0,0,0-.11.09.09,0,0,0-.1,0,.08.08,0,0,0,0,.1S218,128.36,218,128.32Z"/><path class="cls-12" d="M222.25,128.14s0-.09,0-.1a.07.07,0,0,0-.1,0s0,.09,0,.1S222.23,128.18,222.25,128.14Z"/><path class="cls-12" d="M213.39,121a.42.42,0,0,0,0-.83.42.42,0,0,0,0,.83Z"/><path class="cls-12" d="M186.93,110.88a.41.41,0,1,0-.42-.41A.41.41,0,0,0,186.93,110.88Z"/><path class="cls-12" d="M218.69,104.28a.41.41,0,0,0,.41-.41.41.41,0,1,0-.82,0A.41.41,0,0,0,218.69,104.28Z"/><path class="cls-12" d="M205.33,119a.42.42,0,1,0-.42-.41A.42.42,0,0,0,205.33,119Z"/><path class="cls-12" d="M215.1,96.6a.41.41,0,1,0-.41-.41A.41.41,0,0,0,215.1,96.6Z"/><path class="cls-12" d="M196.34,96.34a.42.42,0,1,0-.41-.41A.42.42,0,0,0,196.34,96.34Z"/><path class="cls-12" d="M220.93,117.86a.42.42,0,1,0-.41-.42A.41.41,0,0,0,220.93,117.86Z"/><path class="cls-12" d="M201.22,109.82a.42.42,0,0,0,.42-.42.42.42,0,0,0-.83,0A.42.42,0,0,0,201.22,109.82Z"/><path class="cls-12" d="M192,111a.41.41,0,0,0,.41-.41.41.41,0,1,0-.82,0A.41.41,0,0,0,192,111Z"/><path class="cls-12" d="M183.64,105.27a.41.41,0,1,0-.41-.41A.41.41,0,0,0,183.64,105.27Z"/><path class="cls-12" d="M207.16,107.76a.09.09,0,0,0,0-.11.08.08,0,0,0-.1,0,.09.09,0,0,0,0,.11A.08.08,0,0,0,207.16,107.76Z"/><path class="cls-12" d="M204.2,108.63a.09.09,0,0,0,0-.11.08.08,0,0,0-.1,0,.09.09,0,0,0,0,.11A.08.08,0,0,0,204.2,108.63Z"/><path class="cls-12" d="M203.91,107.64a.09.09,0,0,0,0-.11.07.07,0,0,0-.1,0,.09.09,0,0,0,0,.11S203.88,107.68,203.91,107.64Z"/><path class="cls-12" d="M206.68,102.51a.07.07,0,1,0-.12-.06s0,.09,0,.1A.08.08,0,0,0,206.68,102.51Z"/><path class="cls-12" d="M207.44,104.17a.09.09,0,0,0,0-.11.09.09,0,0,0-.1,0,.07.07,0,1,0,.12.06Z"/><path class="cls-12" d="M200.3,103.59s0-.09,0-.1-.07,0-.09,0,0,.09,0,.1A.07.07,0,0,0,200.3,103.59Z"/><path class="cls-12" d="M197.34,104.47a.09.09,0,0,0,0-.11.08.08,0,0,0-.1,0,.07.07,0,1,0,.12.06Z"/><path class="cls-12" d="M197.06,103.48a.09.09,0,0,0,0-.11.08.08,0,0,0-.1,0,.09.09,0,0,0,0,.11A.09.09,0,0,0,197.06,103.48Z"/><path class="cls-12" d="M199.83,98.35s0-.09,0-.11-.07,0-.1,0a.09.09,0,0,0,0,.11A.07.07,0,0,0,199.83,98.35Z"/><path class="cls-12" d="M200.59,100a.08.08,0,0,0,0-.1.07.07,0,0,0-.1,0s0,.09,0,.11A.09.09,0,0,0,200.59,100Z"/><path class="cls-12" d="M207.14,108a.09.09,0,0,0,0-.11.09.09,0,0,0-.08.15A.08.08,0,0,0,207.14,108Z"/><path class="cls-12" d="M207.41,105.18s0-.09,0-.1a.08.08,0,0,0-.1,0s0,.09,0,.1A.08.08,0,0,0,207.41,105.18Z"/><path class="cls-12" d="M204.45,106.06a.09.09,0,0,0,0-.11.09.09,0,0,0-.1,0,.09.09,0,0,0,0,.11S204.42,106.1,204.45,106.06Z"/><path class="cls-12" d="M210.78,101.22a.07.07,0,0,0,0-.1.07.07,0,0,0-.1,0s0,.09,0,.1S210.76,101.26,210.78,101.22Z"/><path class="cls-12" d="M204.15,105.08a.07.07,0,0,0,0-.11s-.07,0-.09,0a.07.07,0,0,0,0,.11S204.13,105.12,204.15,105.08Z"/><path class="cls-12" d="M206.93,99.94a.09.09,0,0,0,0-.11.08.08,0,0,0-.1,0,.09.09,0,0,0,0,.11A.08.08,0,0,0,206.93,99.94Z"/><path class="cls-12" d="M209.05,104.43s0-.09,0-.1a.07.07,0,0,0-.1,0s0,.09,0,.1S209,104.47,209.05,104.43Z"/><path class="cls-12" d="M207.69,101.61a.09.09,0,0,0,0-.11.09.09,0,0,0-.08.15S207.66,101.65,207.69,101.61Z"/><path class="cls-12" d="M211.14,105.35a.42.42,0,0,0,0-.83.42.42,0,0,0,0,.83Z"/><path class="cls-12" d="M203.08,103.29a.42.42,0,1,0-.42-.41A.42.42,0,0,0,203.08,103.29Z"/><path class="cls-12" d="M221.15,112a.07.07,0,1,0-.12-.06.09.09,0,0,0,0,.11A.08.08,0,0,0,221.15,112Z"/><path class="cls-12" d="M221.41,109.19s0-.09,0-.1a.08.08,0,0,0-.1,0s0,.09,0,.1A.08.08,0,0,0,221.41,109.19Z"/><path class="cls-12" d="M218.45,110.07a.09.09,0,0,0,0-.11.09.09,0,0,0-.1.05.08.08,0,0,0,0,.1S218.42,110.11,218.45,110.07Z"/><path class="cls-12" d="M224.8,105.22a.09.09,0,0,0,0-.11.08.08,0,0,0-.1,0,.07.07,0,1,0,.12.06Z"/><path class="cls-12" d="M218.16,109.07s0-.09,0-.1a.08.08,0,0,0-.1,0s0,.09,0,.1A.08.08,0,0,0,218.16,109.07Z"/><path class="cls-12" d="M220.94,104a.09.09,0,0,0,0-.11.09.09,0,0,0-.08.15A.08.08,0,0,0,220.94,104Z"/><path class="cls-12" d="M223.06,108.43a.09.09,0,0,0,0-.11.08.08,0,0,0-.1,0,.09.09,0,0,0,0,.11A.08.08,0,0,0,223.06,108.43Z"/><path class="cls-12" d="M221.69,105.61s0-.09,0-.11-.07,0-.09,0a.08.08,0,0,0,0,.11A.08.08,0,0,0,221.69,105.61Z"/><path class="cls-12" d="M217.08,107.29a.41.41,0,1,0-.42-.41A.41.41,0,0,0,217.08,107.29Z"/><path class="cls-12" d="M219.77,117.43s0-.09,0-.1a.08.08,0,0,0-.1,0s0,.09,0,.1S219.74,117.47,219.77,117.43Z"/><path class="cls-12" d="M220,114.67a.09.09,0,0,0,0-.11.08.08,0,0,0-.1,0,.09.09,0,0,0,0,.11A.09.09,0,0,0,220,114.67Z"/><path class="cls-12" d="M217.06,115.54s0-.09,0-.1a.08.08,0,0,0-.1,0s0,.09,0,.1A.08.08,0,0,0,217.06,115.54Z"/><path class="cls-12" d="M223.41,110.7a.08.08,0,0,0,0-.1s-.07,0-.1,0,0,.09,0,.1A.07.07,0,0,0,223.41,110.7Z"/><path class="cls-12" d="M221.68,113.9a.07.07,0,1,0-.12-.06.09.09,0,0,0,0,.11A.1.1,0,0,0,221.68,113.9Z"/><path class="cls-12" d="M220.3,111.08s0-.09,0-.11-.07,0-.1,0a.09.09,0,0,0,0,.11A.07.07,0,0,0,220.3,111.08Z"/><path class="cls-12" d="M208.89,116.9a.09.09,0,0,0,0-.11.08.08,0,0,0-.1,0,.09.09,0,0,0,0,.11A.09.09,0,0,0,208.89,116.9Z"/><path class="cls-12" d="M209.7,114.22a.09.09,0,0,0,0-.11.08.08,0,0,0-.1,0,.09.09,0,0,0,0,.11S209.67,114.26,209.7,114.22Z"/><path class="cls-12" d="M206.18,115a.09.09,0,0,0,0-.11.1.1,0,0,0-.1,0,.08.08,0,0,0,0,.1A.07.07,0,0,0,206.18,115Z"/><path class="cls-12" d="M212.53,110.16s0-.09,0-.1a.07.07,0,0,0-.1,0s0,.08,0,.1S212.51,110.2,212.53,110.16Z"/><path class="cls-12" d="M210.79,113.36a.07.07,0,1,0-.12-.06.09.09,0,0,0,0,.11A.08.08,0,0,0,210.79,113.36Z"/><path class="cls-12" d="M209.42,110.54s0-.09,0-.1-.07,0-.09,0,0,.09,0,.1A.07.07,0,0,0,209.42,110.54Z"/><path class="cls-12" d="M236.26,207.48a.42.42,0,1,0-.41-.42A.41.41,0,0,0,236.26,207.48Z"/><path class="cls-12" d="M226.22,206.15a.41.41,0,1,0-.41-.41A.41.41,0,0,0,226.22,206.15Z"/><path class="cls-12" d="M209.35,214.39a.41.41,0,0,0,.41-.42.41.41,0,0,0-.82,0A.41.41,0,0,0,209.35,214.39Z"/><path class="cls-12" d="M241,222.5a.41.41,0,1,0-.42-.41A.41.41,0,0,0,241,222.5Z"/><path class="cls-12" d="M218.45,218.76a.07.07,0,0,0,0-.1.07.07,0,0,0-.1,0s0,.09,0,.11A.07.07,0,0,0,218.45,218.76Z"/><path class="cls-12" d="M221.21,219a.09.09,0,0,0,0-.11.08.08,0,0,0-.1,0,.09.09,0,0,0,0,.11A.08.08,0,0,0,221.21,219Z"/><path class="cls-12" d="M218.72,216a.09.09,0,0,0,0-.11.08.08,0,0,0-.1,0,.09.09,0,0,0,0,.11A.08.08,0,0,0,218.72,216Z"/><path class="cls-12" d="M215.76,216.87a.07.07,0,1,0-.12-.06s0,.09,0,.1S215.73,216.91,215.76,216.87Z"/><path class="cls-12" d="M222.93,221.2a.09.09,0,0,0,0-.11.08.08,0,0,0-.1,0,.09.09,0,0,0,0,.11S222.9,221.24,222.93,221.2Z"/><path class="cls-12" d="M222.1,212s0-.09,0-.11a.08.08,0,0,0-.09.05.07.07,0,0,0,0,.1A.07.07,0,0,0,222.1,212Z"/><path class="cls-12" d="M215.46,215.88s0-.09,0-.1-.07,0-.1,0,0,.09,0,.1A.07.07,0,0,0,215.46,215.88Z"/><path class="cls-12" d="M218.25,210.75s0-.09,0-.1a.08.08,0,0,0-.1,0s0,.09,0,.1A.08.08,0,0,0,218.25,210.75Z"/><path class="cls-12" d="M220.36,215.24a.08.08,0,0,0,0-.11.07.07,0,0,0-.1,0s0,.09,0,.11S220.34,215.28,220.36,215.24Z"/><path class="cls-12" d="M205.24,210.29s0-.08,0-.1-.07,0-.1,0a.09.09,0,0,0,0,.11A.08.08,0,0,0,205.24,210.29Z"/><path class="cls-12" d="M206.15,212.45a.08.08,0,0,0,0-.1.07.07,0,0,0-.1,0,.09.09,0,0,0,0,.11A.09.09,0,0,0,206.15,212.45Z"/><path class="cls-12" d="M208.18,210.24a.09.09,0,0,0,0-.11.07.07,0,0,0-.1,0s0,.09,0,.11S208.15,210.28,208.18,210.24Z"/><path class="cls-12" d="M219,212.42a.09.09,0,0,0,0-.11.08.08,0,0,0-.1,0,.09.09,0,0,0,0,.11A.09.09,0,0,0,219,212.42Z"/><path class="cls-12" d="M227.08,223.47a.09.09,0,0,0,0-.11.07.07,0,0,0-.1,0s0,.09,0,.11S227.05,223.51,227.08,223.47Z"/><path class="cls-12" d="M231.31,223.29s0-.09,0-.11-.07,0-.1,0a.09.09,0,0,0,0,.11A.07.07,0,0,0,231.31,223.29Z"/><path class="cls-12" d="M222.46,216.15a.42.42,0,0,0,0-.83.42.42,0,0,0,0,.83Z"/><path class="cls-12" d="M196,206a.41.41,0,1,0-.41-.41A.41.41,0,0,0,196,206Z"/><path class="cls-12" d="M227.75,199.42a.41.41,0,0,0,.42-.41.42.42,0,1,0-.83,0A.41.41,0,0,0,227.75,199.42Z"/><path class="cls-12" d="M214.39,214.09a.42.42,0,1,0-.41-.41A.41.41,0,0,0,214.39,214.09Z"/><path class="cls-12" d="M224.16,191.74a.41.41,0,1,0-.41-.41A.41.41,0,0,0,224.16,191.74Z"/><path class="cls-12" d="M205.41,191.48a.42.42,0,1,0-.41-.42A.41.41,0,0,0,205.41,191.48Z"/><path class="cls-12" d="M230,213a.42.42,0,0,0,.41-.42.42.42,0,0,0-.83,0A.42.42,0,0,0,230,213Z"/><path class="cls-12" d="M210.29,205a.42.42,0,0,0,.41-.42.42.42,0,0,0-.83,0A.42.42,0,0,0,210.29,205Z"/><path class="cls-12" d="M201.07,206.13a.42.42,0,1,0-.41-.41A.42.42,0,0,0,201.07,206.13Z"/><path class="cls-12" d="M192.7,200.41a.41.41,0,1,0-.41-.41A.41.41,0,0,0,192.7,200.41Z"/><path class="cls-12" d="M216.21,202.9a.07.07,0,0,0,0-.1.07.07,0,0,0-.1,0,.07.07,0,0,0,0,.11A.08.08,0,0,0,216.21,202.9Z"/><path class="cls-12" d="M213.26,203.77a.07.07,0,1,0-.12-.06.09.09,0,0,0,0,.11A.1.1,0,0,0,213.26,203.77Z"/><path class="cls-12" d="M213,202.78a.07.07,0,0,0,0-.1.07.07,0,0,0-.1,0s0,.09,0,.1S212.94,202.82,213,202.78Z"/><path class="cls-12" d="M215.74,197.66a.07.07,0,1,0-.11-.06.07.07,0,0,0,0,.1A.07.07,0,0,0,215.74,197.66Z"/><path class="cls-12" d="M216.5,199.32a.09.09,0,0,0,0-.11.08.08,0,0,0-.1,0,.09.09,0,0,0,0,.11A.09.09,0,0,0,216.5,199.32Z"/><path class="cls-12" d="M209.36,198.74a.09.09,0,0,0,0-.11.09.09,0,0,0-.1,0,.09.09,0,0,0,0,.11A.08.08,0,0,0,209.36,198.74Z"/><path class="cls-12" d="M206.41,199.62a.09.09,0,0,0,0-.11.07.07,0,0,0-.1,0,.09.09,0,0,0,0,.11A.09.09,0,0,0,206.41,199.62Z"/><path class="cls-12" d="M206.12,198.62s0-.09,0-.1a.08.08,0,0,0-.1,0s0,.09,0,.1S206.09,198.66,206.12,198.62Z"/><path class="cls-12" d="M208.89,193.49a.07.07,0,1,0-.12-.06.09.09,0,0,0,0,.11A.09.09,0,0,0,208.89,193.49Z"/><path class="cls-12" d="M209.65,195.15s0-.09,0-.1-.07,0-.1,0a.08.08,0,0,0,0,.1A.07.07,0,0,0,209.65,195.15Z"/><path class="cls-12" d="M216.2,203.1a.08.08,0,0,0,0-.11.07.07,0,0,0-.1,0s0,.09,0,.11S216.18,203.14,216.2,203.1Z"/><path class="cls-12" d="M216.47,200.33a.09.09,0,0,0,0-.11.07.07,0,0,0-.1,0,.09.09,0,0,0,0,.11S216.44,200.37,216.47,200.33Z"/><path class="cls-12" d="M213.5,201.2a.07.07,0,0,0,0-.1.07.07,0,0,0-.1,0s0,.09,0,.11A.08.08,0,0,0,213.5,201.2Z"/><path class="cls-12" d="M219.85,196.36s0-.09,0-.1-.07,0-.1,0,0,.09,0,.1A.08.08,0,0,0,219.85,196.36Z"/><path class="cls-12" d="M213.21,200.22s0-.09,0-.1a.08.08,0,0,0-.1,0s0,.09,0,.1A.08.08,0,0,0,213.21,200.22Z"/><path class="cls-12" d="M216,195.08a.08.08,0,0,0,0-.1.07.07,0,0,0-.1,0s0,.09,0,.1S216,195.12,216,195.08Z"/><path class="cls-12" d="M218.11,199.58s0-.09,0-.11-.07,0-.09,0a.08.08,0,0,0,0,.11A.07.07,0,0,0,218.11,199.58Z"/><path class="cls-12" d="M216.75,196.76s0-.09,0-.11-.07,0-.09,0a.08.08,0,0,0,0,.11A.08.08,0,0,0,216.75,196.76Z"/><path class="cls-12" d="M220.21,200.49a.42.42,0,0,0,0-.83.42.42,0,0,0,0,.83Z"/><path class="cls-12" d="M212.14,198.43a.42.42,0,1,0-.41-.42A.41.41,0,0,0,212.14,198.43Z"/><path class="cls-12" d="M230.21,207.1s0-.09,0-.1a.08.08,0,0,0-.1,0s0,.09,0,.1A.08.08,0,0,0,230.21,207.1Z"/><path class="cls-12" d="M230.47,204.34a.09.09,0,0,0,0-.11.08.08,0,0,0-.1.05.08.08,0,0,0,0,.1S230.44,204.38,230.47,204.34Z"/><path class="cls-12" d="M227.51,205.22s0-.09,0-.11-.07,0-.09,0a.08.08,0,0,0,0,.11A.07.07,0,0,0,227.51,205.22Z"/><path class="cls-12" d="M233.85,200.37a.08.08,0,0,0,0-.11.07.07,0,0,0-.1,0s0,.09,0,.11S233.83,200.41,233.85,200.37Z"/><path class="cls-12" d="M227.22,204.22a.09.09,0,0,0,0-.11.08.08,0,0,0-.1,0,.09.09,0,0,0,0,.11S227.19,204.26,227.22,204.22Z"/><path class="cls-12" d="M230,199.1a.09.09,0,0,0,0-.11.07.07,0,0,0-.1,0s0,.09,0,.11A.09.09,0,0,0,230,199.1Z"/><path class="cls-12" d="M232.12,203.57a.07.07,0,0,0,0-.1.07.07,0,0,0-.1,0s0,.09,0,.11A.08.08,0,0,0,232.12,203.57Z"/><path class="cls-12" d="M230.76,200.75s0-.09,0-.1a.08.08,0,0,0-.1,0s0,.09,0,.1A.08.08,0,0,0,230.76,200.75Z"/><path class="cls-12" d="M226.14,202.43a.41.41,0,0,0,.41-.41.41.41,0,1,0-.82,0A.41.41,0,0,0,226.14,202.43Z"/><path class="cls-12" d="M228.83,212.58a.09.09,0,0,0,0-.11.07.07,0,0,0-.1,0s0,.09,0,.11S228.8,212.62,228.83,212.58Z"/><path class="cls-12" d="M229.08,209.81s0-.09,0-.1a.08.08,0,0,0-.1,0s0,.09,0,.1A.08.08,0,0,0,229.08,209.81Z"/><path class="cls-12" d="M226.11,210.69a.08.08,0,0,0,0-.11.08.08,0,0,0-.1,0s0,.09,0,.11S226.09,210.73,226.11,210.69Z"/><path class="cls-12" d="M232.47,205.85a.09.09,0,0,0,0-.11.08.08,0,0,0-.1,0,.07.07,0,1,0,.12.06Z"/><path class="cls-12" d="M230.73,209.05a.07.07,0,0,0,0-.11.08.08,0,0,0-.09.05.06.06,0,0,0,0,.1S230.71,209.09,230.73,209.05Z"/><path class="cls-12" d="M229.37,206.22a.07.07,0,1,0-.12-.06.09.09,0,0,0,0,.11A.09.09,0,0,0,229.37,206.22Z"/><path class="cls-12" d="M217.94,212s0-.09,0-.1a.07.07,0,0,0-.1,0s0,.09,0,.1S217.92,212.08,217.94,212Z"/><path class="cls-12" d="M218.92,209.55a.08.08,0,0,0,0-.11.07.07,0,0,0-.1,0s0,.09,0,.11S218.9,209.59,218.92,209.55Z"/><path class="cls-12" d="M215.25,210.15a.09.09,0,0,0,0-.11.08.08,0,0,0-.1,0,.09.09,0,0,0,0,.11A.08.08,0,0,0,215.25,210.15Z"/><path class="cls-12" d="M221.59,205.31s0-.09,0-.11-.07,0-.09,0a.08.08,0,0,0,0,.11A.07.07,0,0,0,221.59,205.31Z"/><path class="cls-12" d="M219.85,208.51s0-.09,0-.1a.08.08,0,0,0-.08.14S219.82,208.55,219.85,208.51Z"/><path class="cls-12" d="M218.49,205.69a.09.09,0,0,0,0-.11.09.09,0,0,0-.08.15A.08.08,0,0,0,218.49,205.69Z"/><path class="cls-12" d="M330.19,182.66a.42.42,0,1,0-.41-.41A.41.41,0,0,0,330.19,182.66Z"/><path class="cls-12" d="M320.15,181.34a.42.42,0,0,0,.42-.42.42.42,0,0,0-.83,0A.42.42,0,0,0,320.15,181.34Z"/><path class="cls-12" d="M303.28,189.57a.42.42,0,1,0-.41-.42A.41.41,0,0,0,303.28,189.57Z"/><path class="cls-12" d="M334.88,197.68a.41.41,0,1,0-.41-.41A.41.41,0,0,0,334.88,197.68Z"/><path class="cls-12" d="M312.39,193.94s0-.09,0-.1a.08.08,0,0,0-.1,0s0,.09,0,.1A.08.08,0,0,0,312.39,193.94Z"/><path class="cls-12" d="M315.14,194.2a.06.06,0,0,0,0-.1s-.07,0-.09,0,0,.09,0,.1S315.12,194.24,315.14,194.2Z"/><path class="cls-12" d="M312.65,191.17s0-.09,0-.1-.07,0-.1,0,0,.09,0,.1A.07.07,0,0,0,312.65,191.17Z"/><path class="cls-12" d="M309.7,192.05a.09.09,0,0,0,0-.11.09.09,0,0,0-.1.05.07.07,0,1,0,.12.06Z"/><path class="cls-12" d="M317.77,196.47a.07.07,0,1,0-.12-.06.09.09,0,0,0,0,.11A.08.08,0,0,0,317.77,196.47Z"/><path class="cls-12" d="M316,187.21a.09.09,0,0,0,0-.11.08.08,0,0,0-.1,0,.09.09,0,0,0,0,.11S316,187.25,316,187.21Z"/><path class="cls-12" d="M309.4,191.07a.09.09,0,0,0,0-.11.07.07,0,0,0-.1,0s0,.09,0,.11S309.37,191.11,309.4,191.07Z"/><path class="cls-12" d="M312.18,185.93a.09.09,0,0,0,0-.11s-.07,0-.1,0a.09.09,0,0,0,0,.11A.08.08,0,0,0,312.18,185.93Z"/><path class="cls-12" d="M314.31,190.42s0-.09,0-.1a.07.07,0,0,0-.1,0s0,.09,0,.1S314.28,190.46,314.31,190.42Z"/><path class="cls-12" d="M299.18,185.48s0-.09,0-.11a.08.08,0,0,0-.09,0,.07.07,0,0,0,0,.1A.07.07,0,0,0,299.18,185.48Z"/><path class="cls-12" d="M300.09,187.63s0-.09,0-.1a.08.08,0,0,0-.1,0s0,.09,0,.1S300.06,187.67,300.09,187.63Z"/><path class="cls-12" d="M302.12,185.42s0-.09,0-.1a.08.08,0,0,0-.1,0s0,.09,0,.1S302.09,185.46,302.12,185.42Z"/><path class="cls-12" d="M312.94,187.6a.09.09,0,0,0,0-.11.09.09,0,0,0-.1,0,.07.07,0,1,0,.12.06Z"/><path class="cls-12" d="M321,198.65s0-.09,0-.1a.08.08,0,0,0-.08.14S321,198.69,321,198.65Z"/><path class="cls-12" d="M325.25,198.47a.07.07,0,0,0,0-.1.07.07,0,0,0-.1,0s0,.09,0,.1S325.23,198.51,325.25,198.47Z"/><path class="cls-12" d="M316.39,191.33a.42.42,0,1,0-.41-.41A.41.41,0,0,0,316.39,191.33Z"/><path class="cls-12" d="M289.92,181.2a.41.41,0,1,0-.41-.41A.41.41,0,0,0,289.92,181.2Z"/><path class="cls-12" d="M321.69,174.6a.41.41,0,0,0,.41-.41.41.41,0,1,0-.82,0A.41.41,0,0,0,321.69,174.6Z"/><path class="cls-12" d="M308.32,189.27a.42.42,0,1,0-.41-.41A.41.41,0,0,0,308.32,189.27Z"/><path class="cls-12" d="M318.09,166.92a.41.41,0,1,0-.41-.41A.41.41,0,0,0,318.09,166.92Z"/><path class="cls-12" d="M299.34,166.66a.42.42,0,1,0-.41-.41A.41.41,0,0,0,299.34,166.66Z"/><path class="cls-12" d="M323.93,188.18a.42.42,0,1,0-.41-.42A.41.41,0,0,0,323.93,188.18Z"/><path class="cls-12" d="M304.22,180.14a.41.41,0,0,0,.41-.42.41.41,0,1,0-.82,0A.41.41,0,0,0,304.22,180.14Z"/><path class="cls-12" d="M295,181.31a.41.41,0,0,0,.41-.41.42.42,0,1,0-.83,0A.41.41,0,0,0,295,181.31Z"/><path class="cls-12" d="M286.64,175.59a.41.41,0,1,0-.42-.41A.41.41,0,0,0,286.64,175.59Z"/><path class="cls-12" d="M310.16,178.08a.09.09,0,0,0,0-.11.09.09,0,0,0-.1.05.07.07,0,1,0,.12.06Z"/><path class="cls-12" d="M307.2,179a.09.09,0,0,0,0-.11.09.09,0,0,0-.1,0,.07.07,0,1,0,.12.06Z"/><path class="cls-12" d="M306.91,178a.09.09,0,0,0,0-.11.07.07,0,0,0-.1,0s0,.09,0,.11S306.88,178,306.91,178Z"/><path class="cls-12" d="M309.68,172.84a.09.09,0,0,0,0-.11.08.08,0,0,0-.1,0,.09.09,0,0,0,0,.11A.09.09,0,0,0,309.68,172.84Z"/><path class="cls-12" d="M310.44,174.5s0-.09,0-.1-.07,0-.1,0a.07.07,0,1,0,.12.06Z"/><path class="cls-12" d="M303.3,173.92s0-.08,0-.1-.07,0-.1,0a.09.09,0,0,0,0,.11A.09.09,0,0,0,303.3,173.92Z"/><path class="cls-12" d="M300.34,174.8s0-.09,0-.1a.08.08,0,1,0,0,.1Z"/><path class="cls-12" d="M300.06,173.81a.09.09,0,0,0,0-.11.08.08,0,0,0-.1,0,.09.09,0,0,0,0,.11A.08.08,0,0,0,300.06,173.81Z"/><path class="cls-12" d="M302.83,168.68a.09.09,0,0,0,0-.11.09.09,0,0,0-.1.05.08.08,0,0,0,0,.1A.07.07,0,0,0,302.83,168.68Z"/><path class="cls-12" d="M303.58,170.34a.08.08,0,0,0,0-.11.07.07,0,0,0-.1,0s0,.09,0,.11A.07.07,0,0,0,303.58,170.34Z"/><path class="cls-12" d="M310.14,178.28s0-.09,0-.1a.08.08,0,0,0-.1,0s0,.09,0,.1A.08.08,0,0,0,310.14,178.28Z"/><path class="cls-12" d="M310.41,175.51s0-.09,0-.1a.08.08,0,0,0-.1,0s0,.09,0,.1A.08.08,0,0,0,310.41,175.51Z"/><path class="cls-12" d="M307.45,176.39a.09.09,0,0,0,0-.11.08.08,0,0,0-.1.05.08.08,0,0,0,0,.1S307.42,176.43,307.45,176.39Z"/><path class="cls-12" d="M313.79,171.55s0-.09,0-.11-.07,0-.1,0a.09.09,0,0,0,0,.11A.07.07,0,0,0,313.79,171.55Z"/><path class="cls-12" d="M307.15,175.41a.07.07,0,0,0,0-.11s-.07,0-.09,0a.07.07,0,0,0,0,.11S307.13,175.45,307.15,175.41Z"/><path class="cls-12" d="M309.94,170.27a.09.09,0,0,0,0-.11.08.08,0,0,0-.1,0,.09.09,0,0,0,0,.11S309.91,170.31,309.94,170.27Z"/><path class="cls-12" d="M312.05,174.75a.06.06,0,0,0,0-.1s-.07,0-.09,0a.07.07,0,0,0,0,.11A.08.08,0,0,0,312.05,174.75Z"/><path class="cls-12" d="M310.69,171.93s0-.09,0-.1a.08.08,0,0,0-.1,0s0,.09,0,.1S310.66,172,310.69,171.93Z"/><path class="cls-12" d="M314.14,175.67a.42.42,0,1,0-.41-.41A.41.41,0,0,0,314.14,175.67Z"/><path class="cls-12" d="M306.07,173.61a.42.42,0,1,0-.41-.41A.41.41,0,0,0,306.07,173.61Z"/><path class="cls-12" d="M324.15,182.29a.09.09,0,0,0,0-.11.08.08,0,0,0-.1,0,.09.09,0,0,0,0,.11A.08.08,0,0,0,324.15,182.29Z"/><path class="cls-12" d="M324.41,179.52a.07.07,0,1,0-.12-.06.09.09,0,0,0,0,.11A.09.09,0,0,0,324.41,179.52Z"/><path class="cls-12" d="M321.45,180.4s0-.09,0-.1a.08.08,0,0,0-.08.14S321.42,180.44,321.45,180.4Z"/><path class="cls-12" d="M327.8,175.55s0-.09,0-.1a.08.08,0,1,0,0,.1Z"/><path class="cls-12" d="M321.16,179.4a.07.07,0,1,0-.12-.06.09.09,0,0,0,0,.11A.09.09,0,0,0,321.16,179.4Z"/><path class="cls-12" d="M323.94,174.28a.09.09,0,0,0,0-.11.09.09,0,0,0-.1.05.07.07,0,1,0,.12.06Z"/><path class="cls-12" d="M326.06,178.76a.09.09,0,0,0,0-.11.09.09,0,0,0-.08.15A.08.08,0,0,0,326.06,178.76Z"/><path class="cls-12" d="M324.7,175.94a.09.09,0,0,0,0-.11s-.07,0-.1,0a.09.09,0,0,0,0,.11A.08.08,0,0,0,324.7,175.94Z"/><path class="cls-12" d="M320.07,177.61a.41.41,0,1,0-.41-.41A.41.41,0,0,0,320.07,177.61Z"/><path class="cls-12" d="M322.77,187.76s0-.09,0-.1a.08.08,0,0,0-.1,0s0,.09,0,.1S322.74,187.8,322.77,187.76Z"/><path class="cls-12" d="M323,185a.09.09,0,0,0,0-.11.09.09,0,0,0-.08.15A.08.08,0,0,0,323,185Z"/><path class="cls-12" d="M320.06,185.87a.09.09,0,0,0,0-.11.08.08,0,0,0-.1,0,.09.09,0,0,0,0,.11A.09.09,0,0,0,320.06,185.87Z"/><path class="cls-12" d="M326.41,181a.08.08,0,0,0,0-.1s-.07,0-.1,0a.09.09,0,0,0,0,.11A.08.08,0,0,0,326.41,181Z"/><path class="cls-12" d="M324.68,184.24a.09.09,0,0,0,0-.11.08.08,0,0,0-.1,0,.09.09,0,0,0,0,.11A.09.09,0,0,0,324.68,184.24Z"/><path class="cls-12" d="M323.3,181.41s0-.09,0-.11a.09.09,0,0,0-.1,0,.08.08,0,0,0,0,.1A.07.07,0,0,0,323.3,181.41Z"/><path class="cls-12" d="M311.89,187.23a.09.09,0,0,0,0-.11.08.08,0,0,0-.1,0,.09.09,0,0,0,0,.11A.08.08,0,0,0,311.89,187.23Z"/><path class="cls-12" d="M313,184.52s0-.09,0-.1-.07,0-.09,0a.07.07,0,0,0,0,.1A.07.07,0,0,0,313,184.52Z"/><path class="cls-12" d="M309.18,185.32a.08.08,0,0,0,0-.1s-.07,0-.1,0,0,.09,0,.1A.08.08,0,0,0,309.18,185.32Z"/><path class="cls-12" d="M315.53,180.49s0-.09,0-.1a.07.07,0,0,0-.1,0s0,.09,0,.1S315.51,180.53,315.53,180.49Z"/><path class="cls-12" d="M313.79,183.7a.09.09,0,0,0,0-.11.08.08,0,0,0-.1,0,.09.09,0,0,0,0,.11A.08.08,0,0,0,313.79,183.7Z"/><path class="cls-12" d="M312.42,180.87s0-.08,0-.1-.07,0-.09,0,0,.09,0,.1A.07.07,0,0,0,312.42,180.87Z"/><path class="cls-12" d="M347.41,142.3a.41.41,0,0,0,.41-.42.41.41,0,1,0-.82,0A.41.41,0,0,0,347.41,142.3Z"/><path class="cls-12" d="M337.38,141a.41.41,0,1,0-.42-.41A.41.41,0,0,0,337.38,141Z"/><path class="cls-12" d="M320.5,149.2a.41.41,0,1,0-.41-.41A.41.41,0,0,0,320.5,149.2Z"/><path class="cls-12" d="M352.1,157.32a.42.42,0,1,0-.41-.41A.41.41,0,0,0,352.1,157.32Z"/><path class="cls-12" d="M329.61,153.58s0-.09,0-.1-.07,0-.1,0a.07.07,0,1,0,.12.06Z"/><path class="cls-12" d="M332.37,153.83a.07.07,0,1,0-.12-.06.09.09,0,0,0,0,.11A.1.1,0,0,0,332.37,153.83Z"/><path class="cls-12" d="M329.87,150.81s0-.09,0-.1-.07,0-.1,0a.07.07,0,1,0,.12.06Z"/><path class="cls-12" d="M326.92,151.69a.09.09,0,0,0,0-.11.08.08,0,0,0-.1,0,.09.09,0,0,0,0,.11A.08.08,0,0,0,326.92,151.69Z"/><path class="cls-12" d="M334.08,156a.08.08,0,0,0,0-.1s-.07,0-.1,0,0,.09,0,.1A.07.07,0,0,0,334.08,156Z"/><path class="cls-12" d="M333.26,146.85a.09.09,0,0,0,0-.11.08.08,0,0,0-.1,0,.09.09,0,0,0,0,.11A.09.09,0,0,0,333.26,146.85Z"/><path class="cls-12" d="M326.62,150.7a.09.09,0,0,0,0-.11.08.08,0,0,0-.1,0,.09.09,0,0,0,0,.11A.08.08,0,0,0,326.62,150.7Z"/><path class="cls-12" d="M329.4,145.57a.09.09,0,0,0,0-.11.08.08,0,0,0-.1,0,.09.09,0,0,0,0,.11A.08.08,0,0,0,329.4,145.57Z"/><path class="cls-12" d="M331.53,150.05a.07.07,0,1,0-.12-.06s0,.09,0,.1A.08.08,0,0,0,331.53,150.05Z"/><path class="cls-12" d="M316.41,145.11s0-.09,0-.1a.07.07,0,0,0-.1,0s0,.08,0,.1S316.38,145.15,316.41,145.11Z"/><path class="cls-12" d="M317.31,147.27a.09.09,0,0,0,0-.11.09.09,0,0,0-.1.05.08.08,0,0,0,0,.1S317.28,147.31,317.31,147.27Z"/><path class="cls-12" d="M319.34,145.05s0-.09,0-.1a.08.08,0,0,0-.1,0s0,.09,0,.1A.08.08,0,0,0,319.34,145.05Z"/><path class="cls-12" d="M330.16,147.23s0-.09,0-.1-.07,0-.1,0,0,.09,0,.1A.07.07,0,0,0,330.16,147.23Z"/><path class="cls-12" d="M338.24,158.29a.09.09,0,0,0,0-.11.08.08,0,0,0-.1,0s0,.08,0,.1S338.21,158.33,338.24,158.29Z"/><path class="cls-12" d="M342.47,158.11s0-.09,0-.1-.07,0-.1,0a.08.08,0,0,0,0,.1A.07.07,0,0,0,342.47,158.11Z"/><path class="cls-12" d="M333.61,151a.41.41,0,0,0,.41-.42.41.41,0,1,0-.82,0A.41.41,0,0,0,333.61,151Z"/><path class="cls-12" d="M307.14,140.84a.42.42,0,1,0-.41-.41A.42.42,0,0,0,307.14,140.84Z"/><path class="cls-12" d="M338.9,134.24a.42.42,0,1,0-.41-.42A.41.41,0,0,0,338.9,134.24Z"/><path class="cls-12" d="M325.54,148.91a.42.42,0,0,0,.41-.42.42.42,0,0,0-.83,0A.42.42,0,0,0,325.54,148.91Z"/><path class="cls-12" d="M335.31,126.56a.41.41,0,0,0,.42-.41.42.42,0,1,0-.83,0A.41.41,0,0,0,335.31,126.56Z"/><path class="cls-12" d="M316.55,126.3a.41.41,0,0,0,.41-.42.41.41,0,0,0-.41-.41.41.41,0,0,0-.41.41A.42.42,0,0,0,316.55,126.3Z"/><path class="cls-12" d="M341.15,147.81a.41.41,0,1,0-.41-.41A.41.41,0,0,0,341.15,147.81Z"/><path class="cls-12" d="M321.44,139.77a.41.41,0,1,0-.41-.41A.41.41,0,0,0,321.44,139.77Z"/><path class="cls-12" d="M312.23,141a.42.42,0,1,0-.42-.42A.42.42,0,0,0,312.23,141Z"/><path class="cls-12" d="M303.86,135.23a.41.41,0,0,0,.41-.41.42.42,0,1,0-.83,0A.41.41,0,0,0,303.86,135.23Z"/><path class="cls-12" d="M327.38,137.72a.09.09,0,0,0,0-.11.09.09,0,0,0-.1,0,.07.07,0,1,0,.12.06Z"/><path class="cls-12" d="M324.42,138.6a.09.09,0,0,0,0-.11.08.08,0,0,0-.1,0,.09.09,0,0,0,0,.11A.08.08,0,0,0,324.42,138.6Z"/><path class="cls-12" d="M324.13,137.6a.09.09,0,0,0,0-.11.09.09,0,0,0-.08.15A.08.08,0,0,0,324.13,137.6Z"/><path class="cls-12" d="M326.9,132.47a.07.07,0,1,0-.12-.06.09.09,0,0,0,0,.11A.08.08,0,0,0,326.9,132.47Z"/><path class="cls-12" d="M327.66,134.13s0-.09,0-.1-.07,0-.1,0,0,.09,0,.1A.07.07,0,0,0,327.66,134.13Z"/><path class="cls-12" d="M320.52,133.55s0-.08,0-.1-.07,0-.09,0a.08.08,0,0,0,0,.11A.08.08,0,0,0,320.52,133.55Z"/><path class="cls-12" d="M317.56,134.43s0-.09,0-.1-.07,0-.1,0,0,.09,0,.1A.07.07,0,0,0,317.56,134.43Z"/><path class="cls-12" d="M317.27,133.45s0-.09,0-.11a.07.07,0,0,0-.1,0s0,.09,0,.11A.07.07,0,0,0,317.27,133.45Z"/><path class="cls-12" d="M320.06,128.31a.07.07,0,1,0-.12-.06.09.09,0,0,0,0,.11A.09.09,0,0,0,320.06,128.31Z"/><path class="cls-12" d="M320.8,130a.07.07,0,0,0,0-.1.07.07,0,0,0-.1,0,.07.07,0,0,0,0,.11A.08.08,0,0,0,320.8,130Z"/><path class="cls-12" d="M327.36,137.91a.07.07,0,1,0-.12-.06s0,.09,0,.1A.08.08,0,0,0,327.36,137.91Z"/><path class="cls-12" d="M327.63,135.15s0-.09,0-.1a.07.07,0,0,0-.1,0,.08.08,0,0,0,0,.1S327.6,135.19,327.63,135.15Z"/><path class="cls-12" d="M324.67,136a.09.09,0,0,0,0-.11.07.07,0,0,0-.1,0s0,.09,0,.11S324.64,136.07,324.67,136Z"/><path class="cls-12" d="M331,131.18a.09.09,0,0,0,0-.11.08.08,0,0,0-.1,0,.09.09,0,0,0,0,.11S331,131.22,331,131.18Z"/><path class="cls-12" d="M324.37,135a.08.08,0,0,0,0-.11.08.08,0,0,0-.1,0,.07.07,0,0,0,0,.11S324.35,135.08,324.37,135Z"/><path class="cls-12" d="M327.16,129.91a.09.09,0,0,0,0-.11.07.07,0,0,0-.1,0s0,.09,0,.11S327.13,130,327.16,129.91Z"/><path class="cls-12" d="M329.28,134.39a.07.07,0,1,0-.12-.06s0,.09,0,.1S329.25,134.43,329.28,134.39Z"/><path class="cls-12" d="M327.91,131.57s0-.09,0-.1a.08.08,0,1,0,0,.1Z"/><path class="cls-12" d="M331.36,135.31a.41.41,0,0,0,.41-.42.41.41,0,1,0-.82,0A.41.41,0,0,0,331.36,135.31Z"/><path class="cls-12" d="M323.29,133.25a.41.41,0,1,0-.42-.41A.41.41,0,0,0,323.29,133.25Z"/><path class="cls-12" d="M341.37,141.92s0-.09,0-.11-.07,0-.09,0a.08.08,0,0,0,0,.11A.07.07,0,0,0,341.37,141.92Z"/><path class="cls-12" d="M341.63,139.16a.09.09,0,0,0,0-.11.08.08,0,0,0-.1,0,.09.09,0,0,0,0,.11A.09.09,0,0,0,341.63,139.16Z"/><path class="cls-12" d="M338.67,140s0-.09,0-.1a.08.08,0,0,0-.1,0s0,.09,0,.1A.08.08,0,0,0,338.67,140Z"/><path class="cls-12" d="M345,135.19a.08.08,0,0,0,0-.11.08.08,0,0,0-.1,0s0,.09,0,.11S345,135.23,345,135.19Z"/><path class="cls-12" d="M338.38,139a.07.07,0,1,0-.12-.06.09.09,0,0,0,0,.11A.08.08,0,0,0,338.38,139Z"/><path class="cls-12" d="M341.16,133.91s0-.09,0-.1a.08.08,0,1,0,0,.1Z"/><path class="cls-12" d="M343.28,138.39a.09.09,0,0,0,0-.11.09.09,0,0,0-.1.05.07.07,0,1,0,.12.06Z"/><path class="cls-12" d="M341.92,135.57s0-.09,0-.11-.07,0-.09,0a.08.08,0,0,0,0,.11A.07.07,0,0,0,341.92,135.57Z"/><path class="cls-12" d="M337.29,137.25a.42.42,0,1,0-.41-.41A.42.42,0,0,0,337.29,137.25Z"/><path class="cls-12" d="M340,147.4s0-.09,0-.1a.07.07,0,0,0-.1,0s0,.08,0,.1S340,147.44,340,147.4Z"/><path class="cls-12" d="M340.24,144.63a.09.09,0,0,0,0-.11s-.07,0-.1,0a.09.09,0,0,0,0,.11A.07.07,0,0,0,340.24,144.63Z"/><path class="cls-12" d="M337.28,145.5a.07.07,0,1,0-.12-.06.09.09,0,0,0,0,.11A.08.08,0,0,0,337.28,145.5Z"/><path class="cls-12" d="M343.63,140.67s0-.09,0-.11a.07.07,0,0,0-.1,0,.07.07,0,0,0,0,.11A.07.07,0,0,0,343.63,140.67Z"/><path class="cls-12" d="M341.89,143.87a.06.06,0,0,0,0-.1s-.07,0-.09,0,0,.09,0,.1S341.87,143.91,341.89,143.87Z"/><path class="cls-12" d="M340.52,141.05a.09.09,0,0,0,0-.11s-.07,0-.1,0a.09.09,0,0,0,0,.11A.08.08,0,0,0,340.52,141.05Z"/><path class="cls-12" d="M329.11,146.86a.09.09,0,0,0,0-.11.09.09,0,0,0-.1,0,.09.09,0,0,0,0,.11A.08.08,0,0,0,329.11,146.86Z"/><path class="cls-12" d="M329.36,144.09s0-.09,0-.1-.07,0-.1,0,0,.09,0,.1A.08.08,0,0,0,329.36,144.09Z"/><path class="cls-12" d="M326.4,145a.09.09,0,0,0,0-.11.08.08,0,0,0-.1,0,.07.07,0,1,0,.12.06Z"/><path class="cls-12" d="M332.76,140.12a.07.07,0,1,0-.12-.06s0,.09,0,.1S332.73,140.16,332.76,140.12Z"/><path class="cls-12" d="M331,143.33a.09.09,0,0,0,0-.11s-.07,0-.1,0a.09.09,0,0,0,0,.11A.08.08,0,0,0,331,143.33Z"/><path class="cls-12" d="M329.64,140.5a.06.06,0,0,0,0-.1s-.07,0-.09,0a.07.07,0,0,0,0,.11A.08.08,0,0,0,329.64,140.5Z"/><path class="cls-12" d="M290.56,209.31a.42.42,0,0,0,.41-.42.42.42,0,0,0-.83,0A.42.42,0,0,0,290.56,209.31Z"/><path class="cls-12" d="M280.52,208a.41.41,0,1,0-.41-.41A.41.41,0,0,0,280.52,208Z"/><path class="cls-12" d="M263.65,216.21a.41.41,0,1,0-.42-.41A.41.41,0,0,0,263.65,216.21Z"/><path class="cls-12" d="M295.25,224.33a.41.41,0,0,0,.41-.41.42.42,0,1,0-.83,0A.41.41,0,0,0,295.25,224.33Z"/><path class="cls-12" d="M272.75,220.59a.08.08,0,0,0,0-.1s-.07,0-.1,0,0,.09,0,.1A.07.07,0,0,0,272.75,220.59Z"/><path class="cls-12" d="M275.51,220.85a.09.09,0,0,0,0-.11.08.08,0,0,0-.1,0,.09.09,0,0,0,0,.11S275.48,220.89,275.51,220.85Z"/><path class="cls-12" d="M273,217.83s0-.09,0-.1-.07,0-.1,0,0,.09,0,.1A.08.08,0,0,0,273,217.83Z"/><path class="cls-12" d="M270.06,218.71a.09.09,0,0,0,0-.11.09.09,0,0,0-.1,0,.09.09,0,0,0,0,.11A.08.08,0,0,0,270.06,218.71Z"/><path class="cls-12" d="M277.22,223a.07.07,0,0,0,0-.11s-.07,0-.09,0a.07.07,0,0,0,0,.11A.07.07,0,0,0,277.22,223Z"/><path class="cls-12" d="M276.4,213.86a.09.09,0,0,0,0-.11.08.08,0,0,0-.1,0,.09.09,0,0,0,0,.11A.08.08,0,0,0,276.4,213.86Z"/><path class="cls-12" d="M269.76,217.71a.09.09,0,0,0,0-.11.09.09,0,0,0-.1.05.07.07,0,1,0,.12.06Z"/><path class="cls-12" d="M272.54,212.59a.09.09,0,0,0,0-.11.08.08,0,0,0-.1,0,.09.09,0,0,0,0,.11A.08.08,0,0,0,272.54,212.59Z"/><path class="cls-12" d="M274.67,217.07a.09.09,0,0,0,0-.11.08.08,0,0,0-.1,0,.09.09,0,0,0,0,.11A.09.09,0,0,0,274.67,217.07Z"/><path class="cls-12" d="M259.54,212.13s0-.09,0-.1a.08.08,0,1,0,0,.1Z"/><path class="cls-12" d="M260.45,214.29a.09.09,0,0,0,0-.11.09.09,0,0,0-.1,0,.08.08,0,0,0,0,.1S260.42,214.33,260.45,214.29Z"/><path class="cls-12" d="M262.48,212.06a.07.07,0,1,0-.12-.06.09.09,0,0,0,0,.11A.08.08,0,0,0,262.48,212.06Z"/><path class="cls-12" d="M273.3,214.24s0-.08,0-.1-.07,0-.1,0,0,.09,0,.1A.07.07,0,0,0,273.3,214.24Z"/><path class="cls-12" d="M281.37,225.3s0-.09,0-.1a.08.08,0,0,0-.1,0s0,.09,0,.1A.08.08,0,0,0,281.37,225.3Z"/><path class="cls-12" d="M285.61,225.12s0-.08,0-.1-.07,0-.09,0,0,.09,0,.1A.07.07,0,0,0,285.61,225.12Z"/><path class="cls-12" d="M276.76,218a.42.42,0,1,0-.42-.42A.42.42,0,0,0,276.76,218Z"/><path class="cls-12" d="M250.29,207.85a.41.41,0,0,0,.41-.41.41.41,0,1,0-.82,0A.41.41,0,0,0,250.29,207.85Z"/><path class="cls-12" d="M282.05,201.25a.42.42,0,1,0-.42-.41A.42.42,0,0,0,282.05,201.25Z"/><path class="cls-12" d="M268.68,215.92a.42.42,0,1,0-.41-.42A.41.41,0,0,0,268.68,215.92Z"/><path class="cls-12" d="M278.46,193.57a.41.41,0,0,0,.41-.41.41.41,0,1,0-.82,0A.41.41,0,0,0,278.46,193.57Z"/><path class="cls-12" d="M259.7,193.31a.42.42,0,1,0-.41-.42A.41.41,0,0,0,259.7,193.31Z"/><path class="cls-12" d="M284.3,214.82a.41.41,0,1,0-.42-.41A.41.41,0,0,0,284.3,214.82Z"/><path class="cls-12" d="M264.59,206.78a.41.41,0,1,0-.42-.41A.41.41,0,0,0,264.59,206.78Z"/><path class="cls-12" d="M255.37,208a.42.42,0,1,0-.41-.42A.42.42,0,0,0,255.37,208Z"/><path class="cls-12" d="M247,202.24a.41.41,0,0,0,.41-.41.41.41,0,1,0-.82,0A.41.41,0,0,0,247,202.24Z"/><path class="cls-12" d="M270.51,204.73s0-.09,0-.1-.07,0-.1,0,0,.09,0,.1A.08.08,0,0,0,270.51,204.73Z"/><path class="cls-12" d="M267.56,205.61a.09.09,0,0,0,0-.11.09.09,0,0,0-.08.15A.08.08,0,0,0,267.56,205.61Z"/><path class="cls-12" d="M267.27,204.61s0-.09,0-.1a.08.08,0,1,0,0,.1Z"/><path class="cls-12" d="M270,199.49a.09.09,0,0,0,0-.11.08.08,0,0,0-.1,0,.09.09,0,0,0,0,.11A.08.08,0,0,0,270,199.49Z"/><path class="cls-12" d="M270.8,201.14a.06.06,0,0,0,0-.1s-.07,0-.09,0a.07.07,0,0,0,0,.11A.08.08,0,0,0,270.8,201.14Z"/><path class="cls-12" d="M263.67,200.57a.09.09,0,0,0,0-.11.07.07,0,0,0-.1,0s0,.09,0,.11S263.64,200.61,263.67,200.57Z"/><path class="cls-12" d="M260.7,201.44s0-.08,0-.1-.07,0-.09,0a.08.08,0,0,0,0,.11A.09.09,0,0,0,260.7,201.44Z"/><path class="cls-12" d="M260.42,200.46a.09.09,0,0,0,0-.11.08.08,0,0,0-.1,0,.09.09,0,0,0,0,.11A.08.08,0,0,0,260.42,200.46Z"/><path class="cls-12" d="M263.2,195.33a.09.09,0,0,0,0-.11s-.07,0-.1,0a.09.09,0,0,0,0,.11A.08.08,0,0,0,263.2,195.33Z"/><path class="cls-12" d="M263.94,197a.08.08,0,0,0,0-.11.07.07,0,0,0-.1,0s0,.09,0,.11S263.92,197,263.94,197Z"/><path class="cls-12" d="M270.5,204.93a.07.07,0,1,0-.12-.06s0,.09,0,.1A.08.08,0,0,0,270.5,204.93Z"/><path class="cls-12" d="M270.77,202.16a.07.07,0,1,0-.12-.06s0,.09,0,.1S270.74,202.2,270.77,202.16Z"/><path class="cls-12" d="M267.81,203a.09.09,0,0,0,0-.11.09.09,0,0,0-.1,0,.08.08,0,0,0,0,.1S267.78,203.08,267.81,203Z"/><path class="cls-12" d="M274.15,198.2a.09.09,0,0,0,0-.11.08.08,0,0,0-.1,0,.09.09,0,0,0,0,.11A.08.08,0,0,0,274.15,198.2Z"/><path class="cls-12" d="M267.52,202.05s0-.09,0-.1a.08.08,0,0,0-.08.14S267.49,202.09,267.52,202.05Z"/><path class="cls-12" d="M270.29,196.92a.09.09,0,0,0,0-.11.09.09,0,0,0-.1,0,.09.09,0,0,0,0,.11A.08.08,0,0,0,270.29,196.92Z"/><path class="cls-12" d="M272.42,201.41a.09.09,0,0,0,0-.11.08.08,0,0,0-.1,0,.09.09,0,0,0,0,.11A.09.09,0,0,0,272.42,201.41Z"/><path class="cls-12" d="M271.05,198.58a.07.07,0,1,0-.12-.06s0,.09,0,.1A.08.08,0,0,0,271.05,198.58Z"/><path class="cls-12" d="M274.51,202.32a.42.42,0,0,0,.41-.42.42.42,0,0,0-.83,0A.42.42,0,0,0,274.51,202.32Z"/><path class="cls-12" d="M266.43,200.26a.41.41,0,1,0-.41-.41A.41.41,0,0,0,266.43,200.26Z"/><path class="cls-12" d="M284.51,208.93s0-.09,0-.11a.07.07,0,0,0-.09.05.07.07,0,0,0,0,.1A.07.07,0,0,0,284.51,208.93Z"/><path class="cls-12" d="M284.77,206.17a.09.09,0,0,0,0-.11s-.07,0-.1,0a.09.09,0,0,0,0,.11A.08.08,0,0,0,284.77,206.17Z"/><path class="cls-12" d="M281.81,207a.07.07,0,1,0-.12-.06.09.09,0,0,0,0,.11A.09.09,0,0,0,281.81,207Z"/><path class="cls-12" d="M288.16,202.2s0-.09,0-.1a.07.07,0,0,0-.1,0s0,.08,0,.1S288.13,202.24,288.16,202.2Z"/><path class="cls-12" d="M281.52,206.05a.09.09,0,0,0,0-.11s-.07,0-.1,0a.09.09,0,0,0,0,.11A.08.08,0,0,0,281.52,206.05Z"/><path class="cls-12" d="M284.3,200.92s0-.09,0-.1a.08.08,0,0,0-.1,0s0,.09,0,.1A.08.08,0,0,0,284.3,200.92Z"/><path class="cls-12" d="M286.42,205.4s0-.09,0-.1-.07,0-.1,0,0,.09,0,.1A.08.08,0,0,0,286.42,205.4Z"/><path class="cls-12" d="M285.06,202.58a.09.09,0,0,0,0-.11.08.08,0,0,0-.1.05.08.08,0,0,0,0,.1S285,202.62,285.06,202.58Z"/><path class="cls-12" d="M280.44,204.26a.41.41,0,0,0,.41-.41.41.41,0,1,0-.82,0A.41.41,0,0,0,280.44,204.26Z"/><path class="cls-12" d="M283.12,214.41a.07.07,0,1,0-.12-.06s0,.09,0,.1A.08.08,0,0,0,283.12,214.41Z"/><path class="cls-12" d="M283.38,211.64s0-.09,0-.11a.1.1,0,0,0-.1.05.08.08,0,0,0,0,.1A.07.07,0,0,0,283.38,211.64Z"/><path class="cls-12" d="M280.42,212.52a.09.09,0,0,0,0-.11.08.08,0,0,0-.1,0,.09.09,0,0,0,0,.11A.08.08,0,0,0,280.42,212.52Z"/><path class="cls-12" d="M286.76,207.68a.08.08,0,0,0,0-.11.07.07,0,0,0-.1,0s0,.09,0,.11S286.74,207.72,286.76,207.68Z"/><path class="cls-12" d="M285,210.89s0-.09,0-.11a.07.07,0,0,0-.1,0s0,.09,0,.11A.07.07,0,0,0,285,210.89Z"/><path class="cls-12" d="M283.66,208.06a.09.09,0,0,0,0-.11.09.09,0,0,0-.1.05.08.08,0,0,0,0,.1A.07.07,0,0,0,283.66,208.06Z"/><path class="cls-12" d="M272.24,213.87s0-.09,0-.1-.07,0-.1,0a.08.08,0,0,0,0,.1A.07.07,0,0,0,272.24,213.87Z"/><path class="cls-12" d="M272.5,211.1a.08.08,0,0,0,0-.1s-.07,0-.1,0a.09.09,0,0,0,0,.11A.09.09,0,0,0,272.5,211.1Z"/><path class="cls-12" d="M269.54,212s0-.09,0-.1a.08.08,0,0,0-.1,0s0,.09,0,.1A.08.08,0,0,0,269.54,212Z"/><path class="cls-12" d="M275.9,207.14a.09.09,0,0,0,0-.11.08.08,0,0,0-.1,0,.09.09,0,0,0,0,.11A.09.09,0,0,0,275.9,207.14Z"/><path class="cls-12" d="M274.15,210.34a.09.09,0,0,0,0-.11.09.09,0,0,0-.1.05.08.08,0,0,0,0,.1A.07.07,0,0,0,274.15,210.34Z"/><path class="cls-12" d="M272.78,207.52a.08.08,0,0,0,0-.11.07.07,0,0,0-.1,0s0,.09,0,.11S272.76,207.56,272.78,207.52Z"/><path class="cls-13" d="M156.37,230.77c2.07-15.52,46.53-16.87,47.79-31.44.42-4.81-4.41-5.69-4.94-13.24-.82-11.67,9.35-21.35,12.36-24,14.73-12.91,28.31-6.47,33-14.89,7.56-13.69-21.2-43.74-18.13-46.33,1.88-1.58,11.33,10.82,19,8.27,5.77-1.92,4.67-10.46,10.71-21.51,2-3.65,11.23-19.73,28-24,19.88-5,38.34,9.52,37.9,10.76-.33.93-11.34-5.69-26.37-3.31-3,.47-21.1,3.9-28,17.37-6.59,12.87,1.84,29.26-1.65,30.61-2.88,1.12-8.11-10.26-12.36-9.1-3.35.92-4.46,9.17-4.12,15.72,1,19.91,15.66,29.33,12.36,34.75-3.43,5.61-18.9-4.88-35.43,2.48-8.55,3.81-17.15,12.29-18.95,22.34-1.65,9,3.34,13.06,5.77,27.3,2,11.84-4.84,19.2,0,25.64,2.42,3.23,5.77,4.28,5.77,7.45s-3.42,6.9-6.6,6.62c-3.6-.32-5.41-5.58-5.76-6.62-2.16-6.28,1.52-9.29.82-18.2,0-.55-.87-10.17-4.12-10.76-1.92-.34-3,2.75-7.42,7.45-2.66,2.85-10.76,11.58-17.3,9.93-2.59-.64-3-2.42-5.77-2.49a9.07,9.07,0,0,0-7.41,4.14c-2.47,3.78-.67,7.93-1.65,8.27C162.4,244.53,155.5,237.3,156.37,230.77Z"/><path class="cls-14" d="M320.5,225.51a88.82,88.82,0,0,0-4.12,15.71c-1.52,9.1-2.29,22.18-2.47,25.36-.4,6.79-.43,10.44-2.47,13.29-1.77,2.48-4.85,4.05-6.59,2.41-2.63-2.48-2.39-12.41-.83-19.32.66-2.92,1.5-5,.83-7.25-.76-2.52-3.13-4.35-5-3.62-.59.24-1.48.89-4.12,8.45-2,5.79-2,6.95-3.29,8.46-.16.18-2.65,3.07-5.77,2.41-3.49-.73-4.12-5.1-6.59-4.83-2.74.3-4.49,5.79-4.95,7.25a24.1,24.1,0,0,0-.82,10.87c.35,2,.82,2.73.82,4.83,0,.9,0,5-1.64,6-1.36.89-3.3-.51-4.12-2.42-.73-1.65-.36-2.95,0-8.45a61.66,61.66,0,0,0,0-10.87c-.29-2.77-.59-5.57-1.65-6s-1.72,2.15-4.12,3.62a5.47,5.47,0,0,1-7.42-1.23c-3.15-3.85-3.29-15.65-3.29-16.55A100.27,100.27,0,0,0,320.5,225.51Z"/></g><path class="cls-15" d="M376,167.35H116.75V314.18H376Z"/><rect class="cls-16" x="109.16" y="151.98" width="273" height="16.06"/><path class="cls-17" d="M225.64,255.64c-.63.32-7.43,3.82-7.3,9.49.12,5.23,6.12,10.08,14.61,11.2-1.88-.6-8.08-2.81-11-7.76a8.62,8.62,0,0,1-1.22-6.89A11.42,11.42,0,0,1,225.64,255.64Z"/><path class="cls-17" d="M252.07,200.61A20.17,20.17,0,0,0,238.64,196c-7.39.16-14.21,4.14-15.72,9.68.84-1.23,3.91-5.3,10.87-7.25a24.4,24.4,0,0,1,9.73-.89A18.75,18.75,0,0,1,252.07,200.61Z"/><path class="cls-17" d="M147.29,204a14.38,14.38,0,0,1,10.43-3.21c5.56.53,10.44,4.29,11.24,9.11a14.53,14.53,0,0,0-7.75-6.78,16.36,16.36,0,0,0-7.27-1.29A13.47,13.47,0,0,0,147.29,204Z"/><path class="cls-18" d="M170.57,266.66c.68-.48,2.6,2.1,5.84,3.89,4.24,2.35,8.48,2.12,11.68,1.95a47.48,47.48,0,0,0,19.47-5.84c2.09-1.16,4.74-2.85,5.84-2,.59.49.64,1.64,0,3.9-1.14,4-3.5,12.25-11.68,15.57-6.75,2.74-13.62.56-13.63,0,0-.39,3.33-.12,7.79-1.95s8.21-4.88,7.78-5.84c-.5-1.12-6.38,2.22-15.57,1.95-3.1-.09-11.44-.34-15.57-5.84C170.78,270.19,169.91,267.13,170.57,266.66Z"/><path class="cls-19" d="M214,237.69a69.48,69.48,0,0,0,5.84-7.39c3.57-5.2,3.7-6.94,5.84-9.23,4-4.24,10.66-5.94,15.57-5.54,9.47.77,18.28,9.82,19.47,22.16-2.95,2.48-10.7,8.36-21.41,9.23-3.79.31-9,.74-13.63-1.84-.69-.38-1.1-.68-5.84-3.7Z"/><path class="cls-17" d="M229.36,245.41c-4.06-3.29-3.76-8.69-3.68-10.06.41-7.16,6.82-12,9.91-13.64l.39-.19a19.39,19.39,0,0,1,10.29-2c7.86.91,12,9,12.57,10.16a18.73,18.73,0,0,1,1.84,9.6,42.53,42.53,0,0,1-4.26,2.93,47.9,47.9,0,0,1-6,3C249.06,245.75,236.12,250.87,229.36,245.41Z"/><ellipse class="cls-19" cx="156.64" cy="227.13" rx="9.73" ry="13.96" transform="translate(-84.69 93.4) rotate(-26.41)"/><path class="cls-17" d="M167.22,225.21c1.56,5.38.22,12.87-3.66,14.08-3,.92-6.88-2.08-8.66-5-3-5-1.49-12.5,3.8-18.77C160,216.15,165.44,219.07,167.22,225.21Z"/><path class="cls-17" d="M177.71,258.08c-1.71-1.17-8.19-5.86-8.67-13.15-.29-4.42,1.73-10.48,5.42-11.5,3.34-.91,5.67,3,14.67,7.61a66.73,66.73,0,0,0,8.52,3.65,27.89,27.89,0,0,1-9.74-2.44c-6.76-3.11-9.59-7.89-12.91-6.76-1.87.63-2.7,2.76-3.25,4.1-1.63,3.95-.24,7.48,1.09,10.68A28.73,28.73,0,0,0,177.71,258.08Z"/><path class="cls-20" d="M43.38,232a62.92,62.92,0,0,0-17.85-15.71c-10-5.77-19.43-7.24-20.24-13.1a6.43,6.43,0,0,1,1.91-5.54c2.69-2.27,7.46-.66,8.68-.26,2.56.86,2.42,1.6,5.19,2.52,2.08.69,5.46,1.82,7.81.15,1.75-1.25,2.11-3.47,2.29-4.54s.71-3.28-2-8.41c-1.35-2.59-3-5-4-7.8a22,22,0,0,1-1.07-8.22,7.31,7.31,0,0,1,.63-3.07,5,5,0,0,1,4.63-2.51,7.94,7.94,0,0,1,5,2.26c4.81,4.47,4.87,12.28,9.12,17.3a2.5,2.5,0,0,0,1.43,1c.93.14,1.71-.67,2.26-1.44a25,25,0,0,0,4.44-11c.42-3,.32-6.08,1.4-8.88s3.88-5.3,6.83-4.7c3.19.64,4.7,4.4,4.79,7.65.2,7.09-3.61,14.55-.6,21a2.85,2.85,0,0,0,1.06,1.35,2.94,2.94,0,0,0,1.34.32,12.64,12.64,0,0,0,5.67-1c1.67-.71,1.75-.87,4.55-2.23,4.29-2.08,5.22-2.14,5.83-2.12a5.8,5.8,0,0,1,4.22,1.8c1.77,2.15.8,5.37.6,6-.63,2.1-1.83,3.26-7.74,8.43-4.48,3.92-4.23,3.64-4.65,4.07-2.54,2.67-5.91,6.19-6.13,11.07a12.6,12.6,0,0,0,1.73,6.75Z"/><path class="cls-2" d="M316.5,234c3.94,1.64,16.79,7.56,22,20.85,6.71,17.2-2,40.12-23,53.15"/><circle class="cls-21" cx="254.71" cy="291.34" r="22.97"/><circle class="cls-22" cx="255.33" cy="291.12" r="18.58"/><rect class="cls-21" x="270.19" y="308.14" width="37.77" height="8.18" transform="translate(183.82 -100.05) rotate(28.47)"/><rect class="cls-23" x="285.75" y="319.06" width="61.92" height="13.22" transform="translate(179.34 -107.34) rotate(26.6)"/><path class="cls-24" d="M317.84,277.87l31,30.48c-7,2.4-14.92,6.5-17.28,13.83-2,6.27,1.72,9.75-.75,16.19-3.17,8.26-13.81,14.24-20.23,11.93-4-1.44-3.35-5-9.33-8.13-4.95-2.59-6.86-.93-10.09-3.74-3.45-3-2.27-5.79-6.1-8.82-3.11-2.46-4.89-1.41-6.69-3.63-2.33-2.88-1.41-7.2-.63-10.83.9-4.18,2.22-10.37,7.09-14.18,6-4.69,11.27-1,18.55-4C308,295.14,313.68,290.5,317.84,277.87Z"/></g></svg>