<svg width="118" height="37" viewBox="0 0 118 37" fill="none" xmlns="http://www.w3.org/2000/svg">
<path d="M82.2912 22V8.90909H84.6626V14.924H84.8224L89.9297 8.90909H92.8253L87.7628 14.7834L92.87 22H90.0192L86.1136 16.3878L84.6626 18.1009V22H82.2912ZM97.9325 22.1918C96.9737 22.1918 96.1428 21.9808 95.4396 21.5589C94.7365 21.1371 94.1911 20.5469 93.8033 19.7884C93.4197 19.0298 93.228 18.1435 93.228 17.1293C93.228 16.1151 93.4197 15.2266 93.8033 14.4638C94.1911 13.701 94.7365 13.1087 95.4396 12.6868C96.1428 12.2649 96.9737 12.054 97.9325 12.054C98.8913 12.054 99.7223 12.2649 100.425 12.6868C101.129 13.1087 101.672 13.701 102.055 14.4638C102.443 15.2266 102.637 16.1151 102.637 17.1293C102.637 18.1435 102.443 19.0298 102.055 19.7884C101.672 20.5469 101.129 21.1371 100.425 21.5589C99.7223 21.9808 98.8913 22.1918 97.9325 22.1918ZM97.9453 20.3381C98.4652 20.3381 98.8999 20.1953 99.2493 19.9098C99.5987 19.62 99.8587 19.2322 100.029 18.7464C100.204 18.2607 100.291 17.7195 100.291 17.1229C100.291 16.522 100.204 15.9787 100.029 15.4929C99.8587 15.0028 99.5987 14.6129 99.2493 14.3232C98.8999 14.0334 98.4652 13.8885 97.9453 13.8885C97.4126 13.8885 96.9695 14.0334 96.6158 14.3232C96.2663 14.6129 96.0043 15.0028 95.8295 15.4929C95.6591 15.9787 95.5739 16.522 95.5739 17.1229C95.5739 17.7195 95.6591 18.2607 95.8295 18.7464C96.0043 19.2322 96.2663 19.62 96.6158 19.9098C96.9695 20.1953 97.4126 20.3381 97.9453 20.3381ZM104.601 22V12.1818H106.845V13.8182H106.947C107.126 13.2514 107.433 12.8146 107.867 12.5078C108.306 12.1967 108.807 12.0412 109.369 12.0412C109.497 12.0412 109.64 12.0476 109.798 12.0604C109.96 12.0689 110.094 12.0838 110.2 12.1051V14.2337C110.102 14.1996 109.947 14.1697 109.734 14.1442C109.525 14.1143 109.323 14.0994 109.127 14.0994C108.705 14.0994 108.325 14.1911 107.989 14.3743C107.656 14.5533 107.394 14.8026 107.203 15.1222C107.011 15.4418 106.915 15.8104 106.915 16.228V22H104.601ZM117.168 12.1818V13.9716H111.524V12.1818H117.168ZM112.917 9.82955H115.231V19.0469C115.231 19.358 115.278 19.5966 115.372 19.7628C115.47 19.9247 115.597 20.0355 115.755 20.0952C115.913 20.1548 116.088 20.1847 116.279 20.1847C116.424 20.1847 116.556 20.174 116.676 20.1527C116.799 20.1314 116.893 20.1122 116.957 20.0952L117.347 21.9041C117.223 21.9467 117.046 21.9936 116.816 22.0447C116.59 22.0959 116.313 22.1257 115.985 22.1342C115.406 22.1513 114.884 22.0639 114.419 21.8722C113.955 21.6761 113.586 21.3736 113.313 20.9645C113.045 20.5554 112.913 20.044 112.917 19.4304V9.82955Z" fill="black"/>
<g filter="url(#filter0_d_133_11001)">
<rect x="4" y="5.25342" width="33" height="20" rx="1" transform="rotate(-9.16025 4 5.25342)" fill="#F8C7EA" fill-opacity="0.6" shape-rendering="crispEdges"/>
</g>
<g filter="url(#filter1_d_133_11001)">
<rect x="10.3809" y="8.75244" width="33" height="20" rx="1" transform="rotate(-9.16025 10.3809 8.75244)" fill="#F8C7EA"/>
</g>
<rect x="6.38086" y="13.2427" width="3.37645" height="2.8302" rx="0.5" transform="rotate(-9.16025 6.38086 13.2427)" fill="#F090D4" fill-opacity="0.6"/>
<rect x="13.3809" y="18.0366" width="3.37645" height="2.8302" rx="0.5" transform="rotate(-9.16025 13.3809 18.0366)" fill="#F090D4"/>
<defs>
<filter id="filter0_d_133_11001" x="0.146484" y="0.145996" width="43.4707" height="32.7061" filterUnits="userSpaceOnUse" color-interpolation-filters="sRGB">
<feFlood flood-opacity="0" result="BackgroundImageFix"/>
<feColorMatrix in="SourceAlpha" type="matrix" values="0 0 0 0 0 0 0 0 0 0 0 0 0 0 0 0 0 0 127 0" result="hardAlpha"/>
<feOffset dy="4"/>
<feGaussianBlur stdDeviation="2"/>
<feComposite in2="hardAlpha" operator="out"/>
<feColorMatrix type="matrix" values="0 0 0 0 0 0 0 0 0 0 0 0 0 0 0 0 0 0 0.25 0"/>
<feBlend mode="normal" in2="BackgroundImageFix" result="effect1_dropShadow_133_11001"/>
<feBlend mode="normal" in="SourceGraphic" in2="effect1_dropShadow_133_11001" result="shape"/>
</filter>
<filter id="filter1_d_133_11001" x="6.52734" y="3.64502" width="43.4707" height="32.7061" filterUnits="userSpaceOnUse" color-interpolation-filters="sRGB">
<feFlood flood-opacity="0" result="BackgroundImageFix"/>
<feColorMatrix in="SourceAlpha" type="matrix" values="0 0 0 0 0 0 0 0 0 0 0 0 0 0 0 0 0 0 127 0" result="hardAlpha"/>
<feOffset dy="4"/>
<feGaussianBlur stdDeviation="2"/>
<feComposite in2="hardAlpha" operator="out"/>
<feColorMatrix type="matrix" values="0 0 0 0 0 0 0 0 0 0 0 0 0 0 0 0 0 0 0.25 0"/>
<feBlend mode="normal" in2="BackgroundImageFix" result="effect1_dropShadow_133_11001"/>
<feBlend mode="normal" in="SourceGraphic" in2="effect1_dropShadow_133_11001" result="shape"/>
</filter>
</defs>
</svg>
