<svg width="40" height="40" viewBox="0 0 40 40" fill="none" xmlns="http://www.w3.org/2000/svg">
<path d="M12.5 12.7833V11.1667C12.5 7.41668 15.5167 3.73335 19.2667 3.38335C23.7333 2.95001 27.5 6.46668 27.5 10.85V13.15" stroke="#292D32" stroke-width="1.5" stroke-miterlimit="10" stroke-linecap="round" stroke-linejoin="round"/>
<path d="M14.9997 36.6666H24.9997C31.6997 36.6666 32.8997 33.9833 33.2497 30.7166L34.4997 20.7166C34.9497 16.6499 33.783 13.3333 26.6664 13.3333H13.333C6.21638 13.3333 5.04971 16.6499 5.49971 20.7166L6.74971 30.7166C7.09971 33.9833 8.29971 36.6666 14.9997 36.6666Z" stroke="#292D32" stroke-width="1.5" stroke-miterlimit="10" stroke-linecap="round" stroke-linejoin="round"/>
<path d="M12 19L13.0435 24.5L14.087 30M20.3478 19V30M28 19L25.913 30" stroke="#363636" stroke-linecap="round" stroke-linejoin="round"/>
</svg>
