<svg width="203" height="203" viewBox="0 0 203 203" fill="none" xmlns="http://www.w3.org/2000/svg">
<g filter="url(#filter0_d_384_3015)">
<rect x="19" y="17" width="165" height="164.75" fill="#FBF7F1"/>
</g>
<path d="M69.3375 156.209V144.573H71.4454V154.442H76.5704V156.209H69.3375ZM80.8204 156.385C80.2674 156.385 79.7693 156.287 79.3261 156.09C78.8867 155.889 78.5382 155.594 78.2806 155.203C78.0269 154.813 77.9 154.332 77.9 153.76C77.9 153.268 77.9909 152.861 78.1727 152.539C78.3545 152.217 78.6026 151.959 78.917 151.766C79.2314 151.573 79.5856 151.427 79.9795 151.328C80.3772 151.226 80.7882 151.152 81.2125 151.107C81.7238 151.054 82.1386 151.006 82.4568 150.965C82.775 150.919 83.006 150.851 83.15 150.76C83.2977 150.665 83.3716 150.52 83.3716 150.323V150.289C83.3716 149.861 83.2447 149.529 82.9909 149.294C82.7371 149.059 82.3716 148.942 81.8943 148.942C81.3905 148.942 80.9909 149.052 80.6954 149.272C80.4038 149.491 80.2068 149.751 80.1045 150.05L78.1841 149.777C78.3356 149.247 78.5856 148.804 78.9341 148.448C79.2825 148.088 79.7087 147.819 80.2125 147.641C80.7163 147.459 81.2731 147.368 81.8829 147.368C82.3034 147.368 82.7219 147.417 83.1386 147.516C83.5553 147.614 83.9359 147.777 84.2806 148.004C84.6253 148.228 84.9019 148.533 85.1102 148.919C85.3223 149.306 85.4284 149.789 85.4284 150.368V156.209H83.4511V155.01H83.3829C83.2579 155.253 83.0818 155.48 82.8545 155.692C82.631 155.9 82.3488 156.069 82.0079 156.198C81.6708 156.323 81.275 156.385 80.8204 156.385ZM81.3545 154.874C81.7674 154.874 82.1253 154.792 82.4284 154.629C82.7314 154.463 82.9644 154.243 83.1272 153.97C83.2939 153.698 83.3772 153.4 83.3772 153.078V152.05C83.3128 152.103 83.203 152.152 83.0477 152.198C82.8962 152.243 82.7257 152.283 82.5363 152.317C82.3469 152.351 82.1594 152.381 81.9738 152.408C81.7882 152.434 81.6272 152.457 81.4909 152.476C81.1841 152.518 80.9094 152.586 80.667 152.681C80.4246 152.775 80.2333 152.908 80.0931 153.078C79.953 153.245 79.8829 153.461 79.8829 153.726C79.8829 154.105 80.0212 154.391 80.2977 154.584C80.5742 154.777 80.9265 154.874 81.3545 154.874ZM91.292 159.664C90.5534 159.664 89.9189 159.563 89.3886 159.362C88.8583 159.165 88.4322 158.9 88.1102 158.567C87.7882 158.234 87.5647 157.864 87.4397 157.459L89.292 157.01C89.3753 157.181 89.4966 157.349 89.6556 157.516C89.8147 157.686 90.0288 157.826 90.2977 157.936C90.5704 158.05 90.9132 158.107 91.3261 158.107C91.9094 158.107 92.3924 157.965 92.775 157.681C93.1575 157.4 93.3488 156.938 93.3488 156.294V154.641H93.2466C93.1405 154.853 92.9852 155.071 92.7806 155.294C92.5799 155.518 92.3128 155.705 91.9795 155.857C91.65 156.008 91.2352 156.084 90.7352 156.084C90.0647 156.084 89.4568 155.927 88.9113 155.612C88.3697 155.294 87.9378 154.821 87.6159 154.192C87.2977 153.559 87.1386 152.768 87.1386 151.817C87.1386 150.859 87.2977 150.05 87.6159 149.391C87.9378 148.728 88.3716 148.226 88.917 147.885C89.4625 147.54 90.0704 147.368 90.7409 147.368C91.2522 147.368 91.6727 147.455 92.0022 147.629C92.3356 147.8 92.6007 148.006 92.7977 148.249C92.9947 148.487 93.1443 148.713 93.2466 148.925H93.3602V147.482H95.3886V156.351C95.3886 157.097 95.2106 157.715 94.8545 158.203C94.4984 158.692 94.0117 159.058 93.3943 159.3C92.7769 159.542 92.0761 159.664 91.292 159.664ZM91.3091 154.47C91.7447 154.47 92.1159 154.364 92.4227 154.152C92.7295 153.94 92.9625 153.635 93.1216 153.237C93.2806 152.84 93.3602 152.362 93.3602 151.806C93.3602 151.256 93.2806 150.775 93.1216 150.362C92.9663 149.95 92.7352 149.629 92.4284 149.402C92.1253 149.171 91.7522 149.056 91.3091 149.056C90.8507 149.056 90.4681 149.175 90.1613 149.414C89.8545 149.652 89.6234 149.98 89.4681 150.397C89.3128 150.809 89.2352 151.279 89.2352 151.806C89.2352 152.34 89.3128 152.808 89.4681 153.209C89.6272 153.607 89.8602 153.917 90.167 154.141C90.4776 154.361 90.8583 154.47 91.3091 154.47ZM99.3716 153.47L99.3659 150.987H99.6954L102.832 147.482H105.235L101.377 151.777H100.951L99.3716 153.47ZM97.4966 156.209V144.573H99.5534V156.209H97.4966ZM102.974 156.209L100.133 152.237L101.519 150.789L105.434 156.209H102.974ZM109.117 156.385C108.564 156.385 108.066 156.287 107.623 156.09C107.184 155.889 106.835 155.594 106.578 155.203C106.324 154.813 106.197 154.332 106.197 153.76C106.197 153.268 106.288 152.861 106.47 152.539C106.651 152.217 106.899 151.959 107.214 151.766C107.528 151.573 107.882 151.427 108.276 151.328C108.674 151.226 109.085 151.152 109.509 151.107C110.021 151.054 110.435 151.006 110.754 150.965C111.072 150.919 111.303 150.851 111.447 150.76C111.595 150.665 111.668 150.52 111.668 150.323V150.289C111.668 149.861 111.542 149.529 111.288 149.294C111.034 149.059 110.668 148.942 110.191 148.942C109.687 148.942 109.288 149.052 108.992 149.272C108.701 149.491 108.504 149.751 108.401 150.05L106.481 149.777C106.632 149.247 106.882 148.804 107.231 148.448C107.579 148.088 108.006 147.819 108.509 147.641C109.013 147.459 109.57 147.368 110.18 147.368C110.6 147.368 111.019 147.417 111.435 147.516C111.852 147.614 112.233 147.777 112.578 148.004C112.922 148.228 113.199 148.533 113.407 148.919C113.619 149.306 113.725 149.789 113.725 150.368V156.209H111.748V155.01H111.68C111.555 155.253 111.379 155.48 111.151 155.692C110.928 155.9 110.646 156.069 110.305 156.198C109.968 156.323 109.572 156.385 109.117 156.385ZM109.651 154.874C110.064 154.874 110.422 154.792 110.725 154.629C111.028 154.463 111.261 154.243 111.424 153.97C111.591 153.698 111.674 153.4 111.674 153.078V152.05C111.61 152.103 111.5 152.152 111.345 152.198C111.193 152.243 111.023 152.283 110.833 152.317C110.644 152.351 110.456 152.381 110.271 152.408C110.085 152.434 109.924 152.457 109.788 152.476C109.481 152.518 109.206 152.586 108.964 152.681C108.721 152.775 108.53 152.908 108.39 153.078C108.25 153.245 108.18 153.461 108.18 153.726C108.18 154.105 108.318 154.391 108.595 154.584C108.871 154.777 109.223 154.874 109.651 154.874ZM119.589 159.664C118.85 159.664 118.216 159.563 117.685 159.362C117.155 159.165 116.729 158.9 116.407 158.567C116.085 158.234 115.862 157.864 115.737 157.459L117.589 157.01C117.672 157.181 117.793 157.349 117.953 157.516C118.112 157.686 118.326 157.826 118.595 157.936C118.867 158.05 119.21 158.107 119.623 158.107C120.206 158.107 120.689 157.965 121.072 157.681C121.454 157.4 121.646 156.938 121.646 156.294V154.641H121.543C121.437 154.853 121.282 155.071 121.078 155.294C120.877 155.518 120.61 155.705 120.276 155.857C119.947 156.008 119.532 156.084 119.032 156.084C118.362 156.084 117.754 155.927 117.208 155.612C116.667 155.294 116.235 154.821 115.913 154.192C115.595 153.559 115.435 152.768 115.435 151.817C115.435 150.859 115.595 150.05 115.913 149.391C116.235 148.728 116.668 148.226 117.214 147.885C117.759 147.54 118.367 147.368 119.038 147.368C119.549 147.368 119.97 147.455 120.299 147.629C120.632 147.8 120.898 148.006 121.095 148.249C121.292 148.487 121.441 148.713 121.543 148.925H121.657V147.482H123.685V156.351C123.685 157.097 123.507 157.715 123.151 158.203C122.795 158.692 122.309 159.058 121.691 159.3C121.074 159.542 120.373 159.664 119.589 159.664ZM119.606 154.47C120.042 154.47 120.413 154.364 120.72 154.152C121.026 153.94 121.259 153.635 121.418 153.237C121.578 152.84 121.657 152.362 121.657 151.806C121.657 151.256 121.578 150.775 121.418 150.362C121.263 149.95 121.032 149.629 120.725 149.402C120.422 149.171 120.049 149.056 119.606 149.056C119.148 149.056 118.765 149.175 118.458 149.414C118.151 149.652 117.92 149.98 117.765 150.397C117.61 150.809 117.532 151.279 117.532 151.806C117.532 152.34 117.61 152.808 117.765 153.209C117.924 153.607 118.157 153.917 118.464 154.141C118.774 154.361 119.155 154.47 119.606 154.47ZM129.657 156.379C128.782 156.379 128.026 156.198 127.39 155.834C126.757 155.467 126.271 154.948 125.93 154.277C125.589 153.603 125.418 152.809 125.418 151.897C125.418 150.999 125.589 150.211 125.93 149.533C126.274 148.851 126.756 148.321 127.373 147.942C127.99 147.559 128.716 147.368 129.549 147.368C130.087 147.368 130.595 147.455 131.072 147.629C131.553 147.8 131.977 148.065 132.345 148.425C132.716 148.785 133.007 149.243 133.22 149.8C133.432 150.353 133.538 151.012 133.538 151.777V152.408H126.384V151.022H131.566C131.562 150.628 131.477 150.277 131.31 149.97C131.144 149.66 130.911 149.415 130.612 149.237C130.316 149.059 129.971 148.97 129.578 148.97C129.157 148.97 128.788 149.073 128.47 149.277C128.151 149.478 127.903 149.743 127.725 150.073C127.551 150.398 127.462 150.756 127.458 151.147V152.357C127.458 152.864 127.551 153.3 127.737 153.664C127.922 154.023 128.182 154.3 128.515 154.493C128.848 154.683 129.239 154.777 129.685 154.777C129.985 154.777 130.256 154.736 130.498 154.652C130.74 154.565 130.951 154.438 131.129 154.272C131.307 154.105 131.441 153.898 131.532 153.652L133.453 153.868C133.331 154.376 133.1 154.819 132.759 155.198C132.422 155.573 131.99 155.864 131.464 156.073C130.937 156.277 130.335 156.379 129.657 156.379Z" fill="#363636"/>
<g clip-path="url(#clip0_384_3015)">
<path d="M50.7776 102.1L152.594 87.51L152.548 115.826L50.6904 124L50.7776 102.1Z" fill="url(#paint0_linear_384_3015)"/>
<path d="M50.6904 102.014L111.71 77.3471L152.548 87.5899L50.6904 102.014Z" fill="url(#paint1_radial_384_3015)" stroke="#936A5A" stroke-width="0.3" stroke-miterlimit="10"/>
<path d="M50.7776 112.347V102.099L152.594 87.5083V104.628C151.049 101.836 148.42 98.135 144.574 97.5826C140.144 96.9452 138.575 101.126 132.719 101.925C124.92 102.988 119.913 96.6343 117.028 98.9722C114.357 101.136 117.028 107.898 114.587 108.873C113.794 109.191 112.833 108.743 112.321 108.352C109.934 106.53 112.417 102.203 110.403 100.362C108.694 98.7985 104.634 99.8407 102.209 101.578C99.9527 103.195 100.291 104.574 98.5475 105.225C95.772 106.267 93.91 103.141 90.0047 102.967C86.2825 102.807 85.6305 105.548 81.1132 107.136C75.1647 109.22 72.1398 106.068 65.248 106.441C61.7612 106.63 56.7453 107.772 50.7776 112.347Z" fill="url(#paint2_radial_384_3015)" stroke="#936A5A" stroke-width="0.3" stroke-miterlimit="10"/>
<path d="M50.6904 115.678V119.281L152.548 110.676V107.073L50.6904 115.678Z" fill="url(#paint3_linear_384_3015)"/>
<path d="M108.283 79.6125C109.357 79.2771 109.88 77.9011 109.452 76.539C109.024 75.1768 107.806 74.3445 106.731 74.6798C105.657 75.0152 105.134 76.3913 105.562 77.7534C105.991 79.1155 107.209 79.9478 108.283 79.6125Z" fill="url(#paint4_radial_384_3015)"/>
<path d="M105.868 81.3988C106.942 81.0635 107.465 79.6874 107.037 78.3253C106.609 76.9632 105.39 76.1308 104.316 76.4662C103.242 76.8015 102.719 78.1776 103.147 79.5397C103.576 80.9018 104.794 81.7341 105.868 81.3988Z" fill="url(#paint5_radial_384_3015)"/>
<path d="M111.068 79.002C112.142 78.6667 112.666 77.2906 112.237 75.9285C111.809 74.5664 110.591 73.734 109.517 74.0694C108.443 74.4047 107.919 75.7808 108.348 77.1429C108.776 78.505 109.994 79.3374 111.068 79.002Z" fill="url(#paint6_radial_384_3015)"/>
<path d="M106.084 84.5544C107.158 84.2191 107.681 82.843 107.253 81.4809C106.824 80.1188 105.606 79.2865 104.532 79.6218C103.458 79.9571 102.934 81.3332 103.363 82.6953C103.791 84.0574 105.009 84.8898 106.084 84.5544Z" fill="url(#paint7_radial_384_3015)"/>
<path d="M106.915 81.8444C107.989 81.509 108.512 80.1329 108.084 78.7708C107.655 77.4087 106.437 76.5764 105.363 76.9117C104.289 77.2471 103.766 78.6231 104.194 79.9852C104.622 81.3474 105.84 82.1797 106.915 81.8444Z" fill="url(#paint8_radial_384_3015)"/>
<path d="M109.905 80.6537C110.979 80.3184 111.503 78.9423 111.074 77.5802C110.646 76.2181 109.428 75.3858 108.354 75.7211C107.28 76.0565 106.756 77.4325 107.185 78.7946C107.613 80.1567 108.831 80.9891 109.905 80.6537Z" fill="url(#paint9_radial_384_3015)"/>
<path d="M113.426 80.3281C114.5 79.9927 115.024 78.6167 114.595 77.2545C114.167 75.8924 112.949 75.0601 111.875 75.3954C110.801 75.7308 110.277 77.1068 110.706 78.4689C111.134 79.8311 112.352 80.6634 113.426 80.3281Z" fill="url(#paint10_radial_384_3015)"/>
<path d="M109.03 83.6337C110.104 83.2983 110.628 81.9223 110.199 80.5601C109.771 79.198 108.553 78.3657 107.479 78.701C106.405 79.0364 105.881 80.4124 106.31 81.7745C106.738 83.1367 107.956 83.969 109.03 83.6337Z" fill="url(#paint11_radial_384_3015)"/>
<path d="M113.191 80.5594C113.217 79.1322 112.325 77.959 111.199 77.9391C110.074 77.9191 109.141 79.0599 109.116 80.4871C109.09 81.9143 109.982 83.0875 111.107 83.1074C112.232 83.1274 113.165 81.9866 113.191 80.5594Z" fill="url(#paint12_radial_384_3015)"/>
<path d="M116.074 80.7098C116.102 79.2823 115.213 78.107 114.087 78.0846C112.962 78.0621 112.026 79.2011 111.997 80.6285C111.969 82.056 112.858 83.2313 113.984 83.2537C115.109 83.2762 116.045 82.1372 116.074 80.7098Z" fill="url(#paint13_radial_384_3015)"/>
<path d="M109.135 84.5342C109.16 83.107 108.268 81.9338 107.143 81.9139C106.018 81.8939 105.085 83.0347 105.059 84.4619C105.034 85.8891 105.925 87.0623 107.051 87.0822C108.176 87.1022 109.109 85.9614 109.135 84.5342Z" fill="url(#paint14_radial_384_3015)"/>
<path d="M111.838 84.0766C111.863 82.6494 110.972 81.4762 109.846 81.4563C108.721 81.4363 107.788 82.5771 107.762 84.0043C107.737 85.4315 108.629 86.6047 109.754 86.6246C110.879 86.6446 111.812 85.5038 111.838 84.0766Z" fill="url(#paint15_radial_384_3015)"/>
<path d="M114.616 83.8543C114.641 82.4271 113.75 81.2539 112.624 81.2339C111.499 81.214 110.566 82.3548 110.54 83.782C110.515 85.2092 111.406 86.3823 112.532 86.4023C113.657 86.4223 114.59 85.2815 114.616 83.8543Z" fill="url(#paint16_radial_384_3015)"/>
<path d="M109.568 89.5306C110.659 89.254 111.257 87.9083 110.904 86.525C110.55 85.1417 109.379 84.2445 108.289 84.5211C107.198 84.7977 106.6 86.1434 106.953 87.5267C107.307 88.91 108.478 89.8072 109.568 89.5306Z" fill="url(#paint17_radial_384_3015)"/>
<path d="M112.574 89.2173C113.677 88.9955 114.342 87.6814 114.058 86.2821C113.775 84.8829 112.651 83.9285 111.547 84.1503C110.444 84.3722 109.779 85.6863 110.063 87.0855C110.346 88.4847 111.47 89.4392 112.574 89.2173Z" fill="url(#paint18_radial_384_3015)"/>
<path d="M111.293 91.5334C112.409 91.3911 113.167 90.1279 112.985 88.712C112.803 87.2961 111.751 86.2637 110.634 86.406C109.518 86.5483 108.76 87.8114 108.942 89.2273C109.124 90.6432 110.176 91.6757 111.293 91.5334Z" fill="url(#paint19_radial_384_3015)"/>
<path d="M105.661 88.3371C105.985 86.5286 104.125 84.6855 101.507 84.2204C98.8886 83.7553 96.5037 84.8443 96.1801 86.6529C95.8564 88.4614 97.7164 90.3045 100.335 90.7696C102.953 91.2347 105.338 90.1457 105.661 88.3371Z" fill="url(#paint20_radial_384_3015)"/>
<path d="M97.7964 86.2211C98.2082 85.1066 97.8293 83.9417 96.9501 83.6193C96.0709 83.2968 95.0244 83.9389 94.6126 85.0534C94.2008 86.1679 94.5797 87.3327 95.4589 87.6552C96.3381 87.9777 97.3846 87.3356 97.7964 86.2211Z" fill="url(#paint21_radial_384_3015)"/>
<path d="M99.5641 85.3775C100.542 84.6982 100.9 83.5268 100.364 82.7612C99.8283 81.9956 98.6012 81.9256 97.6234 82.605C96.6457 83.2843 96.2875 84.4556 96.8233 85.2212C97.3592 85.9869 98.5863 86.0568 99.5641 85.3775Z" fill="url(#paint22_radial_384_3015)"/>
<path d="M101.935 85.475C103.126 85.4418 104.071 84.6586 104.045 83.7256C104.019 82.7925 103.032 82.063 101.84 82.0962C100.649 82.1294 99.7038 82.9126 99.73 83.8456C99.7561 84.7787 100.743 85.5082 101.935 85.475Z" fill="url(#paint23_radial_384_3015)"/>
<path d="M106.114 86.4051C106.562 85.5851 106.075 84.4605 105.028 83.8933C103.981 83.326 102.769 83.531 102.322 84.3511C101.874 85.1711 102.36 86.2957 103.408 86.8629C104.455 87.4301 105.667 87.2252 106.114 86.4051Z" fill="url(#paint24_radial_384_3015)"/>
<path d="M106.061 89.6217C106.928 89.2681 107.265 88.0904 106.813 86.9913C106.361 85.8923 105.292 85.2879 104.425 85.6415C103.558 85.995 103.222 87.1727 103.673 88.2718C104.125 89.3709 105.194 89.9752 106.061 89.6217Z" fill="url(#paint25_radial_384_3015)"/>
<path d="M106.035 89.9053C106.366 88.7643 105.904 87.6295 105.004 87.3706C104.104 87.1118 103.106 87.827 102.776 88.968C102.445 90.109 102.907 91.2438 103.807 91.5027C104.707 91.7615 105.705 91.0464 106.035 89.9053Z" fill="url(#paint26_radial_384_3015)"/>
<path d="M102.214 92.6168C103.335 92.2128 103.986 91.1737 103.667 90.296C103.348 89.4183 102.181 89.0343 101.06 89.4383C99.9392 89.8424 99.2889 90.8814 99.6076 91.7592C99.9264 92.6369 101.093 93.0209 102.214 92.6168Z" fill="url(#paint27_radial_384_3015)"/>
<path d="M100.988 90.9078C101.152 89.9889 100.334 89.075 99.1606 88.8665C97.9871 88.6581 96.9024 89.234 96.738 90.1529C96.5735 91.0718 97.3915 91.9857 98.565 92.1942C99.7386 92.4027 100.823 91.8267 100.988 90.9078Z" fill="url(#paint28_radial_384_3015)"/>
<path d="M98.3553 90.1087C98.9589 89.3949 98.7091 88.1959 97.7975 87.4308C96.8858 86.6657 95.6574 86.6241 95.0538 87.338C94.4502 88.0519 94.7 89.2508 95.6117 90.0159C96.5233 90.7811 97.7517 90.8226 98.3553 90.1087Z" fill="url(#paint29_radial_384_3015)"/>
</g>
<defs>
<filter id="filter0_d_384_3015" x="0" y="0" width="203" height="202.75" filterUnits="userSpaceOnUse" color-interpolation-filters="sRGB">
<feFlood flood-opacity="0" result="BackgroundImageFix"/>
<feColorMatrix in="SourceAlpha" type="matrix" values="0 0 0 0 0 0 0 0 0 0 0 0 0 0 0 0 0 0 127 0" result="hardAlpha"/>
<feMorphology radius="2" operator="dilate" in="SourceAlpha" result="effect1_dropShadow_384_3015"/>
<feOffset dy="2"/>
<feGaussianBlur stdDeviation="8.5"/>
<feComposite in2="hardAlpha" operator="out"/>
<feColorMatrix type="matrix" values="0 0 0 0 0 0 0 0 0 0 0 0 0 0 0 0 0 0 0.09 0"/>
<feBlend mode="normal" in2="BackgroundImageFix" result="effect1_dropShadow_384_3015"/>
<feBlend mode="normal" in="SourceGraphic" in2="effect1_dropShadow_384_3015" result="shape"/>
</filter>
<linearGradient id="paint0_linear_384_3015" x1="50.6904" y1="105.755" x2="152.594" y2="105.755" gradientUnits="userSpaceOnUse">
<stop stop-color="#F7DBC6"/>
<stop offset="0.45" stop-color="#E5C3AD"/>
<stop offset="1" stop-color="#D1AA92"/>
</linearGradient>
<radialGradient id="paint1_radial_384_3015" cx="0" cy="0" r="1" gradientUnits="userSpaceOnUse" gradientTransform="translate(101.619 89.6795) scale(37.0601 36.9225)">
<stop stop-color="#BC9A95"/>
<stop offset="0.05" stop-color="#BA9893"/>
<stop offset="0.65" stop-color="#A38078"/>
<stop offset="0.77" stop-color="#A6837B"/>
<stop offset="0.88" stop-color="#AE8C85"/>
<stop offset="0.97" stop-color="#BC9A97"/>
<stop offset="1" stop-color="#C1A09D"/>
</radialGradient>
<radialGradient id="paint2_radial_384_3015" cx="0" cy="0" r="1" gradientUnits="userSpaceOnUse" gradientTransform="translate(101.686 99.9275) scale(37.0601 36.9225)">
<stop stop-color="#BC9A95"/>
<stop offset="0.05" stop-color="#BA9893"/>
<stop offset="0.65" stop-color="#A38078"/>
<stop offset="0.77" stop-color="#A6837B"/>
<stop offset="0.88" stop-color="#AE8C85"/>
<stop offset="0.97" stop-color="#BC9A97"/>
<stop offset="1" stop-color="#C1A09D"/>
</radialGradient>
<linearGradient id="paint3_linear_384_3015" x1="50.6904" y1="113.177" x2="152.548" y2="113.177" gradientUnits="userSpaceOnUse">
<stop stop-color="#F9D2E3"/>
<stop offset="1" stop-color="#EA5788"/>
</linearGradient>
<radialGradient id="paint4_radial_384_3015" cx="0" cy="0" r="1" gradientUnits="userSpaceOnUse" gradientTransform="translate(107.506 77.1467) rotate(-17.3393) scale(2.33193 2.32482)">
<stop stop-color="#F9D2E3"/>
<stop offset="1" stop-color="#EA5788"/>
</radialGradient>
<radialGradient id="paint5_radial_384_3015" cx="0" cy="0" r="1" gradientUnits="userSpaceOnUse" gradientTransform="translate(105.092 78.9308) rotate(-17.3393) scale(2.33193 2.32482)">
<stop stop-color="#F9D2E3"/>
<stop offset="1" stop-color="#EA5788"/>
</radialGradient>
<radialGradient id="paint6_radial_384_3015" cx="0" cy="0" r="1" gradientUnits="userSpaceOnUse" gradientTransform="translate(110.292 76.534) rotate(-17.3393) scale(2.33193 2.32482)">
<stop stop-color="#F9D2E3"/>
<stop offset="1" stop-color="#EA5788"/>
</radialGradient>
<radialGradient id="paint7_radial_384_3015" cx="0" cy="0" r="1" gradientUnits="userSpaceOnUse" gradientTransform="translate(105.307 82.0865) rotate(-17.3393) scale(2.33193 2.32482)">
<stop stop-color="#F9D2E3"/>
<stop offset="1" stop-color="#EA5788"/>
</radialGradient>
<radialGradient id="paint8_radial_384_3015" cx="0" cy="0" r="1" gradientUnits="userSpaceOnUse" gradientTransform="translate(106.138 79.3764) rotate(-17.3393) scale(2.33193 2.32482)">
<stop stop-color="#F9D2E3"/>
<stop offset="1" stop-color="#EA5788"/>
</radialGradient>
<radialGradient id="paint9_radial_384_3015" cx="0" cy="0" r="1" gradientUnits="userSpaceOnUse" gradientTransform="translate(109.13 78.1874) rotate(-17.3393) scale(2.33193 2.32482)">
<stop stop-color="#F9D2E3"/>
<stop offset="1" stop-color="#EA5788"/>
</radialGradient>
<radialGradient id="paint10_radial_384_3015" cx="0" cy="0" r="1" gradientUnits="userSpaceOnUse" gradientTransform="translate(112.649 77.8623) rotate(-17.3393) scale(2.33193 2.32482)">
<stop stop-color="#F9D2E3"/>
<stop offset="1" stop-color="#EA5788"/>
</radialGradient>
<radialGradient id="paint11_radial_384_3015" cx="0" cy="0" r="1" gradientUnits="userSpaceOnUse" gradientTransform="translate(108.255 81.1673) rotate(-17.3393) scale(2.33193 2.32482)">
<stop stop-color="#F9D2E3"/>
<stop offset="1" stop-color="#EA5788"/>
</radialGradient>
<radialGradient id="paint12_radial_384_3015" cx="0" cy="0" r="1" gradientUnits="userSpaceOnUse" gradientTransform="translate(111.153 80.5233) rotate(1.01621) scale(2.3327 2.32405)">
<stop stop-color="#F9D2E3"/>
<stop offset="1" stop-color="#EA5788"/>
</radialGradient>
<radialGradient id="paint13_radial_384_3015" cx="0" cy="0" r="1" gradientUnits="userSpaceOnUse" gradientTransform="translate(114.037 80.6692) rotate(1.14151) scale(2.33317 2.32452)">
<stop stop-color="#F9D2E3"/>
<stop offset="1" stop-color="#EA5788"/>
</radialGradient>
<radialGradient id="paint14_radial_384_3015" cx="0" cy="0" r="1" gradientUnits="userSpaceOnUse" gradientTransform="translate(107.097 84.4963) rotate(1.01621) scale(2.3327 2.32405)">
<stop stop-color="#F9D2E3"/>
<stop offset="1" stop-color="#EA5788"/>
</radialGradient>
<radialGradient id="paint15_radial_384_3015" cx="0" cy="0" r="1" gradientUnits="userSpaceOnUse" gradientTransform="translate(109.8 84.0422) rotate(1.01621) scale(2.3327 2.32405)">
<stop stop-color="#F9D2E3"/>
<stop offset="1" stop-color="#EA5788"/>
</radialGradient>
<radialGradient id="paint16_radial_384_3015" cx="0" cy="0" r="1" gradientUnits="userSpaceOnUse" gradientTransform="translate(112.576 83.8181) rotate(1.01621) scale(2.3327 2.32405)">
<stop stop-color="#F9D2E3"/>
<stop offset="1" stop-color="#EA5788"/>
</radialGradient>
<radialGradient id="paint17_radial_384_3015" cx="0" cy="0" r="1" gradientUnits="userSpaceOnUse" gradientTransform="translate(108.928 87.0242) rotate(-14.2291) scale(2.33218 2.32457)">
<stop stop-color="#F9D2E3"/>
<stop offset="1" stop-color="#EA5788"/>
</radialGradient>
<radialGradient id="paint18_radial_384_3015" cx="0" cy="0" r="1" gradientUnits="userSpaceOnUse" gradientTransform="translate(112.061 86.6838) rotate(-11.3687) scale(2.33237 2.32438)">
<stop stop-color="#F9D2E3"/>
<stop offset="1" stop-color="#EA5788"/>
</radialGradient>
<radialGradient id="paint19_radial_384_3015" cx="0" cy="0" r="1" gradientUnits="userSpaceOnUse" gradientTransform="translate(110.962 88.9682) rotate(-7.26322) scale(2.33256 2.32418)">
<stop stop-color="#F9D2E3"/>
<stop offset="1" stop-color="#EA5788"/>
</radialGradient>
<radialGradient id="paint20_radial_384_3015" cx="0" cy="0" r="1" gradientUnits="userSpaceOnUse" gradientTransform="translate(100.921 87.495) rotate(10.0732) scale(4.14191 4.12748)">
<stop stop-color="#A13B5D"/>
<stop offset="1" stop-color="#EA5788"/>
</radialGradient>
<radialGradient id="paint21_radial_384_3015" cx="0" cy="0" r="1" gradientUnits="userSpaceOnUse" gradientTransform="translate(96.2051 85.6356) rotate(20.141) scale(1.93958 1.93409)">
<stop stop-color="#F9D2E3"/>
<stop offset="1" stop-color="#EA5788"/>
</radialGradient>
<radialGradient id="paint22_radial_384_3015" cx="0" cy="0" r="1" gradientUnits="userSpaceOnUse" gradientTransform="translate(98.5942 83.9888) rotate(55.0099) scale(1.93559 1.93807)">
<stop stop-color="#F9D2E3"/>
<stop offset="1" stop-color="#EA5788"/>
</radialGradient>
<radialGradient id="paint23_radial_384_3015" cx="0" cy="0" r="1" gradientUnits="userSpaceOnUse" gradientTransform="translate(101.888 83.7856) rotate(88.394) scale(1.93324 1.94043)">
<stop stop-color="#F9D2E3"/>
<stop offset="1" stop-color="#EA5788"/>
</radialGradient>
<radialGradient id="paint24_radial_384_3015" cx="0" cy="0" r="1" gradientUnits="userSpaceOnUse" gradientTransform="translate(104.218 85.3781) rotate(118.62) scale(1.93487 1.93878)">
<stop stop-color="#F9D2E3"/>
<stop offset="1" stop-color="#EA5788"/>
</radialGradient>
<radialGradient id="paint25_radial_384_3015" cx="0" cy="0" r="1" gradientUnits="userSpaceOnUse" gradientTransform="translate(105.243 87.6316) rotate(157.815) scale(1.93941 1.93426)">
<stop stop-color="#F9D2E3"/>
<stop offset="1" stop-color="#EA5788"/>
</radialGradient>
<radialGradient id="paint26_radial_384_3015" cx="0" cy="0" r="1" gradientUnits="userSpaceOnUse" gradientTransform="translate(104.406 89.4367) rotate(-163.957) scale(1.93988 1.93378)">
<stop stop-color="#F9D2E3"/>
<stop offset="1" stop-color="#EA5788"/>
</radialGradient>
<radialGradient id="paint27_radial_384_3015" cx="0" cy="0" r="1" gradientUnits="userSpaceOnUse" gradientTransform="translate(101.637 91.0276) rotate(-109.958) scale(1.93407 1.93959)">
<stop stop-color="#F9D2E3"/>
<stop offset="1" stop-color="#EA5788"/>
</radialGradient>
<radialGradient id="paint28_radial_384_3015" cx="0" cy="0" r="1" gradientUnits="userSpaceOnUse" gradientTransform="translate(98.8628 90.5304) rotate(-79.8531) scale(1.93346 1.94021)">
<stop stop-color="#F9D2E3"/>
<stop offset="1" stop-color="#EA5788"/>
</radialGradient>
<radialGradient id="paint29_radial_384_3015" cx="0" cy="0" r="1" gradientUnits="userSpaceOnUse" gradientTransform="translate(96.7046 88.7234) rotate(-49.785) scale(1.93623 1.93743)">
<stop stop-color="#F9D2E3"/>
<stop offset="1" stop-color="#EA5788"/>
</radialGradient>
<clipPath id="clip0_384_3015">
<rect width="103" height="50" fill="white" transform="translate(50 74)"/>
</clipPath>
</defs>
</svg>
