<svg width="166" height="37" viewBox="0 0 166 37" fill="none" xmlns="http://www.w3.org/2000/svg">
<path d="M76.2912 6.90909H79.1932L83.0795 16.3949H83.233L87.1193 6.90909H90.0213V20H87.7457V11.0064H87.6243L84.0064 19.9616H82.3061L78.6882 10.9872H78.5668V20H76.2912V6.90909ZM96.7841 20.1918C95.8253 20.1918 94.9943 19.9808 94.2912 19.5589C93.5881 19.1371 93.0426 18.5469 92.6548 17.7884C92.2713 17.0298 92.0795 16.1435 92.0795 15.1293C92.0795 14.1151 92.2713 13.2266 92.6548 12.4638C93.0426 11.701 93.5881 11.1087 94.2912 10.6868C94.9943 10.2649 95.8253 10.054 96.7841 10.054C97.7429 10.054 98.5739 10.2649 99.277 10.6868C99.9801 11.1087 100.523 11.701 100.907 12.4638C101.295 13.2266 101.489 14.1151 101.489 15.1293C101.489 16.1435 101.295 17.0298 100.907 17.7884C100.523 18.5469 99.9801 19.1371 99.277 19.5589C98.5739 19.9808 97.7429 20.1918 96.7841 20.1918ZM96.7969 18.3381C97.3168 18.3381 97.7514 18.1953 98.1009 17.9098C98.4503 17.62 98.7102 17.2322 98.8807 16.7464C99.0554 16.2607 99.1428 15.7195 99.1428 15.1229C99.1428 14.522 99.0554 13.9787 98.8807 13.4929C98.7102 13.0028 98.4503 12.6129 98.1009 12.3232C97.7514 12.0334 97.3168 11.8885 96.7969 11.8885C96.2642 11.8885 95.821 12.0334 95.4673 12.3232C95.1179 12.6129 94.8558 13.0028 94.6811 13.4929C94.5107 13.9787 94.4254 14.522 94.4254 15.1229C94.4254 15.7195 94.5107 16.2607 94.6811 16.7464C94.8558 17.2322 95.1179 17.62 95.4673 17.9098C95.821 18.1953 96.2642 18.3381 96.7969 18.3381ZM103.555 20V6.90909H105.869V11.8054H105.965C106.084 11.5668 106.252 11.3132 106.47 11.0447C106.687 10.772 106.981 10.5398 107.352 10.348C107.722 10.152 108.195 10.054 108.771 10.054C109.529 10.054 110.213 10.2479 110.823 10.6357C111.436 11.0192 111.922 11.5881 112.28 12.3423C112.642 13.0923 112.823 14.0128 112.823 15.1037C112.823 16.1818 112.646 17.098 112.293 17.8523C111.939 18.6065 111.458 19.1818 110.848 19.5781C110.239 19.9744 109.548 20.1726 108.777 20.1726C108.215 20.1726 107.748 20.0788 107.377 19.8913C107.007 19.7038 106.708 19.478 106.482 19.2138C106.261 18.9453 106.088 18.6918 105.965 18.4531H105.83V20H103.555ZM105.824 15.0909C105.824 15.7259 105.914 16.282 106.093 16.7592C106.276 17.2365 106.538 17.6094 106.879 17.8778C107.224 18.142 107.642 18.2741 108.132 18.2741C108.643 18.2741 109.071 18.1378 109.416 17.8651C109.762 17.5881 110.021 17.2109 110.196 16.7337C110.375 16.2521 110.465 15.7045 110.465 15.0909C110.465 14.4815 110.377 13.9403 110.203 13.4673C110.028 12.9943 109.768 12.6236 109.423 12.3551C109.078 12.0866 108.647 11.9524 108.132 11.9524C107.637 11.9524 107.218 12.0824 106.872 12.3423C106.527 12.6023 106.265 12.9666 106.086 13.4354C105.911 13.9041 105.824 14.456 105.824 15.0909ZM114.79 20V10.1818H117.104V20H114.79ZM115.954 8.78835C115.587 8.78835 115.272 8.6669 115.008 8.42401C114.744 8.17685 114.612 7.88068 114.612 7.53551C114.612 7.18608 114.744 6.88991 115.008 6.64702C115.272 6.39986 115.587 6.27628 115.954 6.27628C116.325 6.27628 116.64 6.39986 116.9 6.64702C117.164 6.88991 117.296 7.18608 117.296 7.53551C117.296 7.88068 117.164 8.17685 116.9 8.42401C116.64 8.6669 116.325 8.78835 115.954 8.78835ZM121.798 6.90909V20H119.484V6.90909H121.798ZM128.524 20.1918C127.539 20.1918 126.689 19.9872 125.973 19.5781C125.262 19.1648 124.714 18.581 124.331 17.8267C123.947 17.0682 123.755 16.1754 123.755 15.1484C123.755 14.1385 123.947 13.2521 124.331 12.4893C124.718 11.7223 125.26 11.1257 125.954 10.6996C126.649 10.2692 127.465 10.054 128.402 10.054C129.007 10.054 129.578 10.152 130.115 10.348C130.657 10.5398 131.134 10.8381 131.547 11.2429C131.965 11.6477 132.293 12.1634 132.532 12.7898C132.77 13.4119 132.89 14.1534 132.89 15.0142V15.7237H124.842V14.1641H130.672C130.667 13.7209 130.571 13.3267 130.384 12.9815C130.196 12.6321 129.934 12.3572 129.598 12.157C129.265 11.9567 128.877 11.8565 128.434 11.8565C127.961 11.8565 127.546 11.9716 127.188 12.2017C126.83 12.4276 126.551 12.7259 126.35 13.0966C126.154 13.4631 126.054 13.8658 126.05 14.3047V15.6662C126.05 16.2372 126.154 16.7273 126.363 17.1364C126.572 17.5412 126.864 17.8523 127.239 18.0696C127.614 18.2827 128.053 18.3892 128.556 18.3892C128.892 18.3892 129.197 18.3423 129.47 18.2486C129.743 18.1506 129.979 18.0078 130.179 17.8203C130.38 17.6328 130.531 17.4006 130.633 17.1236L132.794 17.3665C132.657 17.9375 132.397 18.4361 132.014 18.8622C131.635 19.2841 131.149 19.6122 130.556 19.8466C129.964 20.0767 129.287 20.1918 128.524 20.1918ZM134.847 23.6818V10.1818H137.123V11.8054H137.257C137.376 11.5668 137.545 11.3132 137.762 11.0447C137.979 10.772 138.273 10.5398 138.644 10.348C139.015 10.152 139.488 10.054 140.063 10.054C140.822 10.054 141.506 10.2479 142.115 10.6357C142.729 11.0192 143.214 11.5881 143.572 12.3423C143.934 13.0923 144.116 14.0128 144.116 15.1037C144.116 16.1818 143.939 17.098 143.585 17.8523C143.231 18.6065 142.75 19.1818 142.14 19.5781C141.531 19.9744 140.841 20.1726 140.069 20.1726C139.507 20.1726 139.04 20.0788 138.67 19.8913C138.299 19.7038 138.001 19.478 137.775 19.2138C137.553 18.9453 137.381 18.6918 137.257 18.4531H137.161V23.6818H134.847ZM137.116 15.0909C137.116 15.7259 137.206 16.282 137.385 16.7592C137.568 17.2365 137.83 17.6094 138.171 17.8778C138.516 18.142 138.934 18.2741 139.424 18.2741C139.935 18.2741 140.363 18.1378 140.709 17.8651C141.054 17.5881 141.314 17.2109 141.488 16.7337C141.667 16.2521 141.757 15.7045 141.757 15.0909C141.757 14.4815 141.67 13.9403 141.495 13.4673C141.32 12.9943 141.06 12.6236 140.715 12.3551C140.37 12.0866 139.939 11.9524 139.424 11.9524C138.93 11.9524 138.51 12.0824 138.165 12.3423C137.819 12.6023 137.557 12.9666 137.378 13.4354C137.204 13.9041 137.116 14.456 137.116 15.0909ZM148.922 20.1982C148.3 20.1982 147.74 20.0874 147.241 19.8658C146.747 19.6399 146.355 19.3075 146.065 18.8686C145.78 18.4297 145.637 17.8885 145.637 17.245C145.637 16.6911 145.739 16.233 145.944 15.8707C146.148 15.5085 146.427 15.2188 146.781 15.0014C147.135 14.7841 147.533 14.62 147.976 14.5092C148.424 14.3942 148.886 14.3111 149.363 14.2599C149.939 14.2003 150.405 14.147 150.763 14.1001C151.121 14.049 151.381 13.9723 151.543 13.87C151.709 13.7635 151.792 13.5994 151.792 13.3778V13.3395C151.792 12.858 151.65 12.4851 151.364 12.2209C151.079 11.9567 150.667 11.8246 150.131 11.8246C149.564 11.8246 149.114 11.9482 148.782 12.1953C148.454 12.4425 148.232 12.7344 148.117 13.071L145.956 12.7642C146.127 12.1676 146.408 11.669 146.8 11.2685C147.192 10.8636 147.672 10.5611 148.238 10.3608C148.805 10.1562 149.432 10.054 150.118 10.054C150.591 10.054 151.062 10.1094 151.53 10.2202C151.999 10.331 152.427 10.5142 152.815 10.7699C153.203 11.0213 153.514 11.3643 153.748 11.799C153.987 12.2337 154.106 12.777 154.106 13.429V20H151.882V18.6513H151.805C151.665 18.924 151.466 19.1797 151.211 19.4183C150.959 19.6527 150.642 19.8423 150.258 19.9872C149.879 20.1278 149.434 20.1982 148.922 20.1982ZM149.523 18.4979C149.988 18.4979 150.39 18.4062 150.731 18.223C151.072 18.0355 151.334 17.7884 151.518 17.4815C151.705 17.1747 151.799 16.8402 151.799 16.478V15.321C151.726 15.3807 151.603 15.4361 151.428 15.4872C151.258 15.5384 151.066 15.5831 150.853 15.6214C150.64 15.6598 150.429 15.6939 150.22 15.7237C150.011 15.7536 149.83 15.7791 149.677 15.8004C149.331 15.8473 149.023 15.924 148.75 16.0305C148.477 16.1371 148.262 16.2862 148.104 16.478C147.947 16.6655 147.868 16.9084 147.868 17.2067C147.868 17.6328 148.023 17.9545 148.334 18.1719C148.645 18.3892 149.042 18.4979 149.523 18.4979ZM157.52 23.6818C157.204 23.6818 156.912 23.6563 156.644 23.6051C156.38 23.5582 156.169 23.5028 156.011 23.4389L156.548 21.6364C156.885 21.7344 157.185 21.7813 157.449 21.777C157.714 21.7727 157.946 21.6896 158.146 21.5277C158.351 21.37 158.523 21.1058 158.664 20.7351L158.862 20.2045L155.302 10.1818H157.756L160.019 17.5966H160.121L162.39 10.1818H164.851L160.92 21.1889C160.737 21.7088 160.494 22.1541 160.192 22.5249C159.889 22.8999 159.518 23.1854 159.079 23.3814C158.645 23.5817 158.125 23.6818 157.52 23.6818Z" fill="black"/>
<g filter="url(#filter0_d_133_11002)">
<rect x="4" y="5.33398" width="16" height="25" rx="1" transform="rotate(-19.473 4 5.33398)" fill="white"/>
<rect x="4.63808" y="5.6387" width="15" height="24" rx="0.5" transform="rotate(-19.473 4.63808 5.6387)" stroke="#636363"/>
</g>
<g filter="url(#filter1_d_133_11002)">
<path d="M15.209 15.9521L14.709 9.95215C14.709 9.95215 19.709 8.95214 21.209 8.95215C22.709 8.95215 26.209 9.11882 27.709 9.45215V15.9521C26.709 15.6188 24.109 14.9521 21.709 14.9521C19.309 14.9521 16.3757 15.6188 15.209 15.9521Z" fill="#DFE0FC"/>
<path d="M15.209 15.9521L14.709 9.95215C14.709 9.95215 19.709 8.95214 21.209 8.95215C22.709 8.95215 26.209 9.11882 27.709 9.45215V15.9521C26.709 15.6188 24.109 14.9521 21.709 14.9521C19.309 14.9521 16.3757 15.6188 15.209 15.9521Z" stroke="#636363" stroke-linejoin="round"/>
</g>
<defs>
<filter id="filter0_d_133_11002" x="0.275391" y="0.275879" width="30.8672" height="36.3521" filterUnits="userSpaceOnUse" color-interpolation-filters="sRGB">
<feFlood flood-opacity="0" result="BackgroundImageFix"/>
<feColorMatrix in="SourceAlpha" type="matrix" values="0 0 0 0 0 0 0 0 0 0 0 0 0 0 0 0 0 0 127 0" result="hardAlpha"/>
<feOffset dy="4"/>
<feGaussianBlur stdDeviation="2"/>
<feComposite in2="hardAlpha" operator="out"/>
<feColorMatrix type="matrix" values="0 0 0 0 0 0 0 0 0 0 0 0 0 0 0 0 0 0 0.25 0"/>
<feBlend mode="normal" in2="BackgroundImageFix" result="effect1_dropShadow_133_11002"/>
<feBlend mode="normal" in="SourceGraphic" in2="effect1_dropShadow_133_11002" result="shape"/>
</filter>
<filter id="filter1_d_133_11002" x="10.209" y="8.45215" width="22" height="16" filterUnits="userSpaceOnUse" color-interpolation-filters="sRGB">
<feFlood flood-opacity="0" result="BackgroundImageFix"/>
<feColorMatrix in="SourceAlpha" type="matrix" values="0 0 0 0 0 0 0 0 0 0 0 0 0 0 0 0 0 0 127 0" result="hardAlpha"/>
<feOffset dy="4"/>
<feGaussianBlur stdDeviation="2"/>
<feComposite in2="hardAlpha" operator="out"/>
<feColorMatrix type="matrix" values="0 0 0 0 0 0 0 0 0 0 0 0 0 0 0 0 0 0 0.25 0"/>
<feBlend mode="normal" in2="BackgroundImageFix" result="effect1_dropShadow_133_11002"/>
<feBlend mode="normal" in="SourceGraphic" in2="effect1_dropShadow_133_11002" result="shape"/>
</filter>
</defs>
</svg>
