<svg width="278" height="161" viewBox="0 0 278 161" fill="none" xmlns="http://www.w3.org/2000/svg">
<path d="M155.544 6.48535H139.457C133.75 6.48535 132.49 9.32702 131.757 12.8104L129.167 25.2083H165.834L163.244 12.8104C162.511 9.32702 161.25 6.48535 155.544 6.48535Z" stroke="#F291BA" stroke-width="1.5" stroke-linecap="round" stroke-linejoin="round"/>
<path d="M170.394 45.4205C170.646 48.1018 168.491 50.4163 165.741 50.4163H161.433C158.958 50.4163 158.614 49.3622 158.179 48.0559L157.721 46.6809C157.079 44.8018 156.666 43.5413 153.366 43.5413H141.633C138.333 43.5413 137.852 44.9622 137.279 46.6809L136.821 48.0559C136.385 49.3622 136.041 50.4163 133.566 50.4163H129.258C126.508 50.4163 124.354 48.1018 124.606 45.4205L125.889 31.4643C126.21 28.0268 126.875 25.208 132.879 25.208H162.121C168.125 25.208 168.789 28.0268 169.11 31.4643L170.394 45.4205Z" stroke="#F291BA" stroke-width="1.5" stroke-linecap="round" stroke-linejoin="round"/>
<path d="M129.167 18.333H126.875" stroke="#F291BA" stroke-width="1.5" stroke-linecap="round" stroke-linejoin="round"/>
<path d="M168.125 18.333H165.833" stroke="#F291BA" stroke-width="1.5" stroke-linecap="round" stroke-linejoin="round"/>
<path d="M147.5 6.875V11.4583" stroke="#F291BA" stroke-width="1.5" stroke-linecap="round" stroke-linejoin="round"/>
<path d="M144.062 11.458H150.938" stroke="#F291BA" stroke-width="1.5" stroke-linecap="round" stroke-linejoin="round"/>
<path d="M133.75 34.375H140.625" stroke="#F291BA" stroke-width="1.5" stroke-linecap="round" stroke-linejoin="round"/>
<path d="M154.375 34.375H161.25" stroke="#F291BA" stroke-width="1.5" stroke-linecap="round" stroke-linejoin="round"/>
<path d="M5.72727 100H1.29119V86.9091H5.81676C7.11648 86.9091 8.23296 87.1712 9.16619 87.6953C10.1037 88.2152 10.8239 88.9631 11.3267 89.9389C11.8295 90.9148 12.081 92.0824 12.081 93.4418C12.081 94.8054 11.8274 95.9773 11.3203 96.9574C10.8175 97.9375 10.0909 98.6896 9.14062 99.2138C8.1946 99.7379 7.05682 100 5.72727 100ZM3.66264 97.9482H5.61222C6.52415 97.9482 7.2848 97.782 7.89418 97.4496C8.50355 97.1129 8.96165 96.6122 9.26847 95.9474C9.57528 95.2784 9.72869 94.4432 9.72869 93.4418C9.72869 92.4403 9.57528 91.6094 9.26847 90.9489C8.96165 90.2841 8.50781 89.7876 7.90696 89.4595C7.31037 89.1271 6.56889 88.9609 5.68253 88.9609H3.66264V97.9482ZM18.5785 100.192C17.5941 100.192 16.744 99.9872 16.0281 99.5781C15.3164 99.1648 14.7688 98.581 14.3853 97.8267C14.0018 97.0682 13.81 96.1754 13.81 95.1484C13.81 94.1385 14.0018 93.2521 14.3853 92.4893C14.7731 91.7223 15.3143 91.1257 16.0089 90.6996C16.7035 90.2692 17.5195 90.054 18.457 90.054C19.0621 90.054 19.6332 90.152 20.1701 90.348C20.7113 90.5398 21.1886 90.8381 21.6019 91.2429C22.0195 91.6477 22.3477 92.1634 22.5863 92.7898C22.8249 93.4119 22.9442 94.1534 22.9442 95.0142V95.7237H14.8967V94.1641H20.7262C20.7219 93.7209 20.6261 93.3267 20.4386 92.9815C20.2511 92.6321 19.989 92.3572 19.6523 92.157C19.32 91.9567 18.9322 91.8565 18.489 91.8565C18.016 91.8565 17.6005 91.9716 17.2425 92.2017C16.8846 92.4276 16.6055 92.7259 16.4052 93.0966C16.2092 93.4631 16.109 93.8658 16.1048 94.3047V95.6662C16.1048 96.2372 16.2092 96.7273 16.418 97.1364C16.6268 97.5412 16.9187 97.8523 17.2937 98.0696C17.6687 98.2827 18.1076 98.3892 18.6104 98.3892C18.9471 98.3892 19.2518 98.3423 19.5245 98.2486C19.7972 98.1506 20.0337 98.0078 20.234 97.8203C20.4343 97.6328 20.5856 97.4006 20.6879 97.1236L22.8484 97.3665C22.712 97.9375 22.4521 98.4361 22.0685 98.8622C21.6893 99.2841 21.2035 99.6122 20.6112 99.8466C20.0188 100.077 19.3413 100.192 18.5785 100.192ZM24.9018 100V90.1818H27.1454V91.8182H27.2477C27.4267 91.2514 27.7335 90.8146 28.1681 90.5078C28.6071 90.1967 29.1078 90.0412 29.6703 90.0412C29.7981 90.0412 29.9409 90.0476 30.0985 90.0604C30.2605 90.0689 30.3947 90.0838 30.5012 90.1051V92.2337C30.4032 92.1996 30.2477 92.1697 30.0346 92.1442C29.8258 92.1143 29.6234 92.0994 29.4274 92.0994C29.0055 92.0994 28.6262 92.1911 28.2896 92.3743C27.9572 92.5533 27.6951 92.8026 27.5034 93.1222C27.3116 93.4418 27.2157 93.8104 27.2157 94.228V100H24.9018ZM40.85 100.192C39.8656 100.192 39.0154 99.9872 38.2995 99.5781C37.5879 99.1648 37.0403 98.581 36.6568 97.8267C36.2733 97.0682 36.0815 96.1754 36.0815 95.1484C36.0815 94.1385 36.2733 93.2521 36.6568 92.4893C37.0446 91.7223 37.5858 91.1257 38.2804 90.6996C38.975 90.2692 39.791 90.054 40.7285 90.054C41.3336 90.054 41.9047 90.152 42.4416 90.348C42.9828 90.5398 43.4601 90.8381 43.8734 91.2429C44.291 91.6477 44.6191 92.1634 44.8578 92.7898C45.0964 93.4119 45.2157 94.1534 45.2157 95.0142V95.7237H37.1681V94.1641H42.9977C42.9934 93.7209 42.8976 93.3267 42.7101 92.9815C42.5226 92.6321 42.2605 92.3572 41.9238 92.157C41.5914 91.9567 41.2037 91.8565 40.7605 91.8565C40.2875 91.8565 39.872 91.9716 39.514 92.2017C39.1561 92.4276 38.877 92.7259 38.6767 93.0966C38.4806 93.4631 38.3805 93.8658 38.3762 94.3047V95.6662C38.3762 96.2372 38.4806 96.7273 38.6895 97.1364C38.8983 97.5412 39.1902 97.8523 39.5652 98.0696C39.9402 98.2827 40.3791 98.3892 40.8819 98.3892C41.2186 98.3892 41.5233 98.3423 41.796 98.2486C42.0687 98.1506 42.3052 98.0078 42.5055 97.8203C42.7058 97.6328 42.8571 97.4006 42.9593 97.1236L45.1199 97.3665C44.9835 97.9375 44.7235 98.4361 44.34 98.8622C43.9608 99.2841 43.475 99.6122 42.8826 99.8466C42.2903 100.077 41.6127 100.192 40.85 100.192ZM47.1733 100V90.1818H49.4169V91.8182H49.5192C49.6982 91.2514 50.005 90.8146 50.4396 90.5078C50.8786 90.1967 51.3793 90.0412 51.9418 90.0412C52.0696 90.0412 52.2124 90.0476 52.37 90.0604C52.532 90.0689 52.6662 90.0838 52.7727 90.1051V92.2337C52.6747 92.1996 52.5192 92.1697 52.3061 92.1442C52.0973 92.1143 51.8949 92.0994 51.6989 92.0994C51.277 92.0994 50.8977 92.1911 50.5611 92.3743C50.2287 92.5533 49.9666 92.8026 49.7749 93.1222C49.5831 93.4418 49.4872 93.8104 49.4872 94.228V100H47.1733ZM58.7749 103.682V90.1818H61.0504V91.8054H61.1847C61.304 91.5668 61.4723 91.3132 61.6896 91.0447C61.907 90.772 62.201 90.5398 62.5717 90.348C62.9425 90.152 63.4155 90.054 63.9908 90.054C64.7493 90.054 65.4332 90.2479 66.0426 90.6357C66.6563 91.0192 67.142 91.5881 67.5 92.3423C67.8622 93.0923 68.0433 94.0128 68.0433 95.1037C68.0433 96.1818 67.8665 97.098 67.5128 97.8523C67.1591 98.6065 66.6776 99.1818 66.0682 99.5781C65.4588 99.9744 64.7685 100.173 63.9972 100.173C63.4347 100.173 62.968 100.079 62.5973 99.8913C62.2266 99.7038 61.9283 99.478 61.7024 99.2138C61.4808 98.9453 61.3082 98.6918 61.1847 98.4531H61.0888V103.682H58.7749ZM61.044 95.0909C61.044 95.7259 61.1335 96.282 61.3125 96.7592C61.4957 97.2365 61.7578 97.6094 62.0987 97.8778C62.4439 98.142 62.8615 98.2741 63.3516 98.2741C63.8629 98.2741 64.2912 98.1378 64.6364 97.8651C64.9815 97.5881 65.2415 97.2109 65.4162 96.7337C65.5952 96.2521 65.6847 95.7045 65.6847 95.0909C65.6847 94.4815 65.5973 93.9403 65.4226 93.4673C65.2479 92.9943 64.9879 92.6236 64.6428 92.3551C64.2976 92.0866 63.8672 91.9524 63.3516 91.9524C62.8572 91.9524 62.4375 92.0824 62.0923 92.3423C61.7472 92.6023 61.4851 92.9666 61.3061 93.4354C61.1314 93.9041 61.044 94.456 61.044 95.0909ZM75.9759 93.5952V95.5H70.0824V93.5952H75.9759ZM78.4096 103.682V90.1818H80.6852V91.8054H80.8194C80.9387 91.5668 81.1071 91.3132 81.3244 91.0447C81.5417 90.772 81.8358 90.5398 82.2065 90.348C82.5772 90.152 83.0502 90.054 83.6255 90.054C84.3841 90.054 85.068 90.2479 85.6774 90.6357C86.291 91.0192 86.7768 91.5881 87.1348 92.3423C87.497 93.0923 87.6781 94.0128 87.6781 95.1037C87.6781 96.1818 87.5012 97.098 87.1476 97.8523C86.7939 98.6065 86.3123 99.1818 85.7029 99.5781C85.0936 99.9744 84.4032 100.173 83.6319 100.173C83.0694 100.173 82.6028 100.079 82.2321 99.8913C81.8613 99.7038 81.563 99.478 81.3372 99.2138C81.1156 98.9453 80.943 98.6918 80.8194 98.4531H80.7235V103.682H78.4096ZM80.6788 95.0909C80.6788 95.7259 80.7683 96.282 80.9473 96.7592C81.1305 97.2365 81.3926 97.6094 81.7335 97.8778C82.0787 98.142 82.4963 98.2741 82.9863 98.2741C83.4977 98.2741 83.926 98.1378 84.2711 97.8651C84.6163 97.5881 84.8762 97.2109 85.051 96.7337C85.2299 96.2521 85.3194 95.7045 85.3194 95.0909C85.3194 94.4815 85.2321 93.9403 85.0574 93.4673C84.8826 92.9943 84.6227 92.6236 84.2775 92.3551C83.9324 92.0866 83.502 91.9524 82.9863 91.9524C82.492 91.9524 82.0723 92.0824 81.7271 92.3423C81.3819 92.6023 81.1199 92.9666 80.9409 93.4354C80.7662 93.9041 80.6788 94.456 80.6788 95.0909ZM91.9735 86.9091V100H89.6596V86.9091H91.9735ZM97.1783 100.198C96.5561 100.198 95.9957 100.087 95.4972 99.8658C95.0028 99.6399 94.6108 99.3075 94.321 98.8686C94.0355 98.4297 93.8928 97.8885 93.8928 97.245C93.8928 96.6911 93.995 96.233 94.1996 95.8707C94.4041 95.5085 94.6832 95.2188 95.0369 95.0014C95.3906 94.7841 95.7891 94.62 96.2322 94.5092C96.6797 94.3942 97.142 94.3111 97.6193 94.2599C98.1946 94.2003 98.6612 94.147 99.0192 94.1001C99.3771 94.049 99.6371 93.9723 99.799 93.87C99.9652 93.7635 100.048 93.5994 100.048 93.3778V93.3395C100.048 92.858 99.9055 92.4851 99.62 92.2209C99.3345 91.9567 98.9233 91.8246 98.3864 91.8246C97.8196 91.8246 97.37 91.9482 97.0376 92.1953C96.7095 92.4425 96.4879 92.7344 96.3729 93.071L94.2124 92.7642C94.3828 92.1676 94.6641 91.669 95.0561 91.2685C95.4482 90.8636 95.9276 90.5611 96.4943 90.3608C97.0611 90.1562 97.6875 90.054 98.3736 90.054C98.8466 90.054 99.3175 90.1094 99.7862 90.2202C100.255 90.331 100.683 90.5142 101.071 90.7699C101.459 91.0213 101.77 91.3643 102.004 91.799C102.243 92.2337 102.362 92.777 102.362 93.429V100H100.138V98.6513H100.061C99.9205 98.924 99.7223 99.1797 99.4666 99.4183C99.2152 99.6527 98.8977 99.8423 98.5142 99.9872C98.1349 100.128 97.6896 100.198 97.1783 100.198ZM97.7791 98.4979C98.2436 98.4979 98.6463 98.4062 98.9872 98.223C99.3281 98.0355 99.5902 97.7884 99.7734 97.4815C99.9609 97.1747 100.055 96.8402 100.055 96.478V95.321C99.9822 95.3807 99.8587 95.4361 99.6839 95.4872C99.5135 95.5384 99.3217 95.5831 99.1087 95.6214C98.8956 95.6598 98.6847 95.6939 98.4759 95.7237C98.267 95.7536 98.0859 95.7791 97.9325 95.8004C97.5874 95.8473 97.2784 95.924 97.0057 96.0305C96.733 96.1371 96.5178 96.2862 96.3601 96.478C96.2024 96.6655 96.1236 96.9084 96.1236 97.2067C96.1236 97.6328 96.2791 97.9545 96.5902 98.1719C96.9013 98.3892 97.2976 98.4979 97.7791 98.4979ZM108.332 100.173C107.561 100.173 106.871 99.9744 106.261 99.5781C105.652 99.1818 105.17 98.6065 104.817 97.8523C104.463 97.098 104.286 96.1818 104.286 95.1037C104.286 94.0128 104.465 93.0923 104.823 92.3423C105.185 91.5881 105.673 91.0192 106.287 90.6357C106.901 90.2479 107.585 90.054 108.339 90.054C108.914 90.054 109.387 90.152 109.758 90.348C110.129 90.5398 110.423 90.772 110.64 91.0447C110.857 91.3132 111.026 91.5668 111.145 91.8054H111.241V86.9091H113.561V100H111.286V98.4531H111.145C111.026 98.6918 110.853 98.9453 110.627 99.2138C110.401 99.478 110.103 99.7038 109.732 99.8913C109.362 100.079 108.895 100.173 108.332 100.173ZM108.978 98.2741C109.468 98.2741 109.886 98.142 110.231 97.8778C110.576 97.6094 110.838 97.2365 111.017 96.7592C111.196 96.282 111.286 95.7259 111.286 95.0909C111.286 94.456 111.196 93.9041 111.017 93.4354C110.842 92.9666 110.582 92.6023 110.237 92.3423C109.896 92.0824 109.477 91.9524 108.978 91.9524C108.462 91.9524 108.032 92.0866 107.687 92.3551C107.342 92.6236 107.082 92.9943 106.907 93.4673C106.732 93.9403 106.645 94.4815 106.645 95.0909C106.645 95.7045 106.732 96.2521 106.907 96.7337C107.086 97.2109 107.348 97.5881 107.693 97.8651C108.043 98.1378 108.471 98.2741 108.978 98.2741ZM123.787 92.777L121.677 93.0071C121.618 92.794 121.513 92.5938 121.364 92.4062C121.219 92.2188 121.023 92.0675 120.776 91.9524C120.529 91.8374 120.226 91.7798 119.868 91.7798C119.387 91.7798 118.982 91.8842 118.654 92.093C118.33 92.3018 118.17 92.5724 118.175 92.9048C118.17 93.1903 118.275 93.4226 118.488 93.6016C118.705 93.7805 119.063 93.9276 119.562 94.0426L121.236 94.4006C122.165 94.6009 122.856 94.9183 123.307 95.353C123.763 95.7876 123.993 96.3565 123.998 97.0597C123.993 97.6776 123.812 98.223 123.454 98.696C123.101 99.1648 122.608 99.5312 121.978 99.7955C121.347 100.06 120.623 100.192 119.805 100.192C118.603 100.192 117.635 99.9403 116.903 99.4375C116.17 98.9304 115.733 98.2251 115.592 97.3217L117.849 97.1044C117.951 97.5476 118.168 97.8821 118.501 98.108C118.833 98.3338 119.265 98.4467 119.798 98.4467C120.348 98.4467 120.789 98.3338 121.121 98.108C121.458 97.8821 121.626 97.603 121.626 97.2706C121.626 96.9893 121.518 96.7571 121.3 96.5739C121.087 96.3906 120.755 96.25 120.303 96.152L118.628 95.8004C117.687 95.6044 116.99 95.2741 116.538 94.8097C116.086 94.3409 115.863 93.7486 115.867 93.0327C115.863 92.4276 116.027 91.9034 116.359 91.4602C116.696 91.0128 117.162 90.6676 117.759 90.4247C118.36 90.1776 119.052 90.054 119.836 90.054C120.987 90.054 121.893 90.299 122.553 90.7891C123.218 91.2791 123.629 91.9418 123.787 92.777ZM130.252 100.192C129.268 100.192 128.418 99.9872 127.702 99.5781C126.99 99.1648 126.443 98.581 126.059 97.8267C125.676 97.0682 125.484 96.1754 125.484 95.1484C125.484 94.1385 125.676 93.2521 126.059 92.4893C126.447 91.7223 126.988 91.1257 127.683 90.6996C128.377 90.2692 129.193 90.054 130.131 90.054C130.736 90.054 131.307 90.152 131.844 90.348C132.385 90.5398 132.862 90.8381 133.276 91.2429C133.693 91.6477 134.021 92.1634 134.26 92.7898C134.499 93.4119 134.618 94.1534 134.618 95.0142V95.7237H126.57V94.1641H132.4C132.396 93.7209 132.3 93.3267 132.112 92.9815C131.925 92.6321 131.663 92.3572 131.326 92.157C130.994 91.9567 130.606 91.8565 130.163 91.8565C129.69 91.8565 129.274 91.9716 128.916 92.2017C128.558 92.4276 128.279 92.7259 128.079 93.0966C127.883 93.4631 127.783 93.8658 127.779 94.3047V95.6662C127.779 96.2372 127.883 96.7273 128.092 97.1364C128.301 97.5412 128.593 97.8523 128.968 98.0696C129.343 98.2827 129.781 98.3892 130.284 98.3892C130.621 98.3892 130.926 98.3423 131.198 98.2486C131.471 98.1506 131.708 98.0078 131.908 97.8203C132.108 97.6328 132.259 97.4006 132.362 97.1236L134.522 97.3665C134.386 97.9375 134.126 98.4361 133.742 98.8622C133.363 99.2841 132.877 99.6122 132.285 99.8466C131.693 100.077 131.015 100.192 130.252 100.192ZM136.576 100V90.1818H138.819V91.8182H138.922C139.1 91.2514 139.407 90.8146 139.842 90.5078C140.281 90.1967 140.782 90.0412 141.344 90.0412C141.472 90.0412 141.615 90.0476 141.772 90.0604C141.934 90.0689 142.069 90.0838 142.175 90.1051V92.2337C142.077 92.1996 141.922 92.1697 141.708 92.1442C141.5 92.1143 141.297 92.0994 141.101 92.0994C140.679 92.0994 140.3 92.1911 139.963 92.3743C139.631 92.5533 139.369 92.8026 139.177 93.1222C138.985 93.4418 138.89 93.8104 138.89 94.228V100H136.576ZM154.435 95.8707V90.1818H156.749V100H154.505V98.255H154.403C154.181 98.8047 153.817 99.2543 153.31 99.6037C152.807 99.9531 152.187 100.128 151.45 100.128C150.806 100.128 150.238 99.9851 149.743 99.6996C149.253 99.4098 148.87 98.9901 148.593 98.4403C148.316 97.8864 148.177 97.2173 148.177 96.4332V90.1818H150.491V96.0753C150.491 96.6974 150.662 97.1918 151.002 97.5582C151.343 97.9247 151.791 98.108 152.345 98.108C152.686 98.108 153.016 98.0249 153.336 97.8587C153.655 97.6925 153.917 97.4453 154.122 97.1172C154.331 96.7848 154.435 96.3693 154.435 95.8707ZM161.442 94.2472V100H159.128V90.1818H161.34V91.8501H161.455C161.681 91.3004 162.041 90.8636 162.535 90.5398C163.034 90.2159 163.65 90.054 164.383 90.054C165.06 90.054 165.65 90.1989 166.153 90.4886C166.66 90.7784 167.052 91.1982 167.329 91.7479C167.611 92.2976 167.749 92.9645 167.745 93.7486V100H165.431V94.1065C165.431 93.4503 165.26 92.9368 164.92 92.5661C164.583 92.1953 164.116 92.0099 163.52 92.0099C163.115 92.0099 162.755 92.0994 162.439 92.2784C162.128 92.4531 161.883 92.7067 161.704 93.0391C161.53 93.3714 161.442 93.7741 161.442 94.2472ZM173.741 100.173C172.969 100.173 172.279 99.9744 171.67 99.5781C171.06 99.1818 170.579 98.6065 170.225 97.8523C169.871 97.098 169.694 96.1818 169.694 95.1037C169.694 94.0128 169.873 93.0923 170.231 92.3423C170.594 91.5881 171.081 91.0192 171.695 90.6357C172.309 90.2479 172.993 90.054 173.747 90.054C174.322 90.054 174.795 90.152 175.166 90.348C175.537 90.5398 175.831 90.772 176.048 91.0447C176.265 91.3132 176.434 91.5668 176.553 91.8054H176.649V86.9091H178.969V100H176.694V98.4531H176.553C176.434 98.6918 176.261 98.9453 176.035 99.2138C175.809 99.478 175.511 99.7038 175.14 99.8913C174.77 100.079 174.303 100.173 173.741 100.173ZM174.386 98.2741C174.876 98.2741 175.294 98.142 175.639 97.8778C175.984 97.6094 176.246 97.2365 176.425 96.7592C176.604 96.282 176.694 95.7259 176.694 95.0909C176.694 94.456 176.604 93.9041 176.425 93.4354C176.251 92.9666 175.991 92.6023 175.645 92.3423C175.305 92.0824 174.885 91.9524 174.386 91.9524C173.871 91.9524 173.44 92.0866 173.095 92.3551C172.75 92.6236 172.49 92.9943 172.315 93.4673C172.14 93.9403 172.053 94.4815 172.053 95.0909C172.053 95.7045 172.14 96.2521 172.315 96.7337C172.494 97.2109 172.756 97.5881 173.101 97.8651C173.451 98.1378 173.879 98.2741 174.386 98.2741ZM185.782 100.192C184.797 100.192 183.947 99.9872 183.231 99.5781C182.52 99.1648 181.972 98.581 181.588 97.8267C181.205 97.0682 181.013 96.1754 181.013 95.1484C181.013 94.1385 181.205 93.2521 181.588 92.4893C181.976 91.7223 182.517 91.1257 183.212 90.6996C183.907 90.2692 184.723 90.054 185.66 90.054C186.265 90.054 186.836 90.152 187.373 90.348C187.914 90.5398 188.392 90.8381 188.805 91.2429C189.223 91.6477 189.551 92.1634 189.789 92.7898C190.028 93.4119 190.147 94.1534 190.147 95.0142V95.7237H182.1V94.1641H187.929C187.925 93.7209 187.829 93.3267 187.642 92.9815C187.454 92.6321 187.192 92.3572 186.855 92.157C186.523 91.9567 186.135 91.8565 185.692 91.8565C185.219 91.8565 184.804 91.9716 184.446 92.2017C184.088 92.4276 183.809 92.7259 183.608 93.0966C183.412 93.4631 183.312 93.8658 183.308 94.3047V95.6662C183.308 96.2372 183.412 96.7273 183.621 97.1364C183.83 97.5412 184.122 97.8523 184.497 98.0696C184.872 98.2827 185.311 98.3892 185.814 98.3892C186.15 98.3892 186.455 98.3423 186.728 98.2486C187 98.1506 187.237 98.0078 187.437 97.8203C187.637 97.6328 187.789 97.4006 187.891 97.1236L190.051 97.3665C189.915 97.9375 189.655 98.4361 189.272 98.8622C188.892 99.2841 188.407 99.6122 187.814 99.8466C187.222 100.077 186.544 100.192 185.782 100.192ZM192.105 100V90.1818H194.349V91.8182H194.451C194.63 91.2514 194.937 90.8146 195.371 90.5078C195.81 90.1967 196.311 90.0412 196.873 90.0412C197.001 90.0412 197.144 90.0476 197.302 90.0604C197.464 90.0689 197.598 90.0838 197.704 90.1051V92.2337C197.606 92.1996 197.451 92.1697 197.238 92.1442C197.029 92.1143 196.827 92.0994 196.631 92.0994C196.209 92.0994 195.829 92.1911 195.493 92.3743C195.16 92.5533 194.898 92.8026 194.706 93.1222C194.515 93.4418 194.419 93.8104 194.419 94.228V100H192.105ZM203.809 86.9091H206.711L210.597 96.3949H210.751L214.637 86.9091H217.539V100H215.263V91.0064H215.142L211.524 99.9616H209.824L206.206 90.9872H206.084V100H203.809V86.9091ZM220.019 100V90.1818H222.333V100H220.019ZM221.182 88.7884C220.816 88.7884 220.501 88.6669 220.236 88.424C219.972 88.1768 219.84 87.8807 219.84 87.5355C219.84 87.1861 219.972 86.8899 220.236 86.647C220.501 86.3999 220.816 86.2763 221.182 86.2763C221.553 86.2763 221.868 86.3999 222.128 86.647C222.393 86.8899 222.525 87.1861 222.525 87.5355C222.525 87.8807 222.393 88.1768 222.128 88.424C221.868 88.6669 221.553 88.7884 221.182 88.7884ZM226.822 96.919L226.815 94.1257H227.186L230.714 90.1818H233.418L229.078 95.0142H228.599L226.822 96.919ZM224.712 100V86.9091H227.026V100H224.712ZM230.874 100L227.678 95.532L229.238 93.902L233.642 100H230.874ZM237.786 100.198C237.164 100.198 236.603 100.087 236.105 99.8658C235.61 99.6399 235.218 99.3075 234.928 98.8686C234.643 98.4297 234.5 97.8885 234.5 97.245C234.5 96.6911 234.602 96.233 234.807 95.8707C235.012 95.5085 235.291 95.2188 235.644 95.0014C235.998 94.7841 236.396 94.62 236.84 94.5092C237.287 94.3942 237.749 94.3111 238.227 94.2599C238.802 94.2003 239.269 94.147 239.627 94.1001C239.985 94.049 240.244 93.9723 240.406 93.87C240.573 93.7635 240.656 93.5994 240.656 93.3778V93.3395C240.656 92.858 240.513 92.4851 240.227 92.2209C239.942 91.9567 239.531 91.8246 238.994 91.8246C238.427 91.8246 237.977 91.9482 237.645 92.1953C237.317 92.4425 237.095 92.7344 236.98 93.071L234.82 92.7642C234.99 92.1676 235.271 91.669 235.664 91.2685C236.056 90.8636 236.535 90.5611 237.102 90.3608C237.669 90.1562 238.295 90.054 238.981 90.054C239.454 90.054 239.925 90.1094 240.394 90.2202C240.862 90.331 241.291 90.5142 241.678 90.7699C242.066 91.0213 242.377 91.3643 242.612 91.799C242.85 92.2337 242.97 92.777 242.97 93.429V100H240.745V98.6513H240.669C240.528 98.924 240.33 99.1797 240.074 99.4183C239.823 99.6527 239.505 99.8423 239.122 99.9872C238.742 100.128 238.297 100.198 237.786 100.198ZM238.387 98.4979C238.851 98.4979 239.254 98.4062 239.595 98.223C239.936 98.0355 240.198 97.7884 240.381 97.4815C240.568 97.1747 240.662 96.8402 240.662 96.478V95.321C240.59 95.3807 240.466 95.4361 240.291 95.4872C240.121 95.5384 239.929 95.5831 239.716 95.6214C239.503 95.6598 239.292 95.6939 239.083 95.7237C238.874 95.7536 238.693 95.7791 238.54 95.8004C238.195 95.8473 237.886 95.924 237.613 96.0305C237.34 96.1371 237.125 96.2862 236.968 96.478C236.81 96.6655 236.731 96.9084 236.731 97.2067C236.731 97.6328 236.887 97.9545 237.198 98.1719C237.509 98.3892 237.905 98.4979 238.387 98.4979ZM248.94 100.173C248.169 100.173 247.478 99.9744 246.869 99.5781C246.259 99.1818 245.778 98.6065 245.424 97.8523C245.07 97.098 244.894 96.1818 244.894 95.1037C244.894 94.0128 245.073 93.0923 245.431 92.3423C245.793 91.5881 246.281 91.0192 246.894 90.6357C247.508 90.2479 248.192 90.054 248.946 90.054C249.521 90.054 249.994 90.152 250.365 90.348C250.736 90.5398 251.03 90.772 251.247 91.0447C251.465 91.3132 251.633 91.5668 251.752 91.8054H251.848V86.9091H254.169V100H251.893V98.4531H251.752C251.633 98.6918 251.46 98.9453 251.235 99.2138C251.009 99.478 250.71 99.7038 250.34 99.8913C249.969 100.079 249.502 100.173 248.94 100.173ZM249.585 98.2741C250.075 98.2741 250.493 98.142 250.838 97.8778C251.183 97.6094 251.445 97.2365 251.624 96.7592C251.803 96.282 251.893 95.7259 251.893 95.0909C251.893 94.456 251.803 93.9041 251.624 93.4354C251.45 92.9666 251.19 92.6023 250.845 92.3423C250.504 92.0824 250.084 91.9524 249.585 91.9524C249.07 91.9524 248.639 92.0866 248.294 92.3551C247.949 92.6236 247.689 92.9943 247.514 93.4673C247.34 93.9403 247.252 94.4815 247.252 95.0909C247.252 95.7045 247.34 96.2521 247.514 96.7337C247.693 97.2109 247.955 97.5881 248.301 97.8651C248.65 98.1378 249.078 98.2741 249.585 98.2741ZM260.917 100.192C259.958 100.192 259.127 99.9808 258.424 99.5589C257.721 99.1371 257.175 98.5469 256.788 97.7884C256.404 97.0298 256.212 96.1435 256.212 95.1293C256.212 94.1151 256.404 93.2266 256.788 92.4638C257.175 91.701 257.721 91.1087 258.424 90.6868C259.127 90.2649 259.958 90.054 260.917 90.054C261.876 90.054 262.707 90.2649 263.41 90.6868C264.113 91.1087 264.656 91.701 265.04 92.4638C265.428 93.2266 265.621 94.1151 265.621 95.1293C265.621 96.1435 265.428 97.0298 265.04 97.7884C264.656 98.5469 264.113 99.1371 263.41 99.5589C262.707 99.9808 261.876 100.192 260.917 100.192ZM260.93 98.3381C261.45 98.3381 261.884 98.1953 262.234 97.9098C262.583 97.62 262.843 97.2322 263.013 96.7464C263.188 96.2607 263.276 95.7195 263.276 95.1229C263.276 94.522 263.188 93.9787 263.013 93.4929C262.843 93.0028 262.583 92.6129 262.234 92.3232C261.884 92.0334 261.45 91.8885 260.93 91.8885C260.397 91.8885 259.954 92.0334 259.6 92.3232C259.251 92.6129 258.989 93.0028 258.814 93.4929C258.643 93.9787 258.558 94.522 258.558 95.1229C258.558 95.7195 258.643 96.2607 258.814 96.7464C258.989 97.2322 259.251 97.62 259.6 97.9098C259.954 98.1953 260.397 98.3381 260.93 98.3381ZM1.29119 127V113.909H3.66264V119.451H9.72869V113.909H12.1065V127H9.72869V121.439H3.66264V127H1.29119ZM20.8413 122.871V117.182H23.1552V127H20.9116V125.255H20.8093C20.5877 125.805 20.2234 126.254 19.7163 126.604C19.2134 126.953 18.5934 127.128 17.8562 127.128C17.2127 127.128 16.6438 126.985 16.1495 126.7C15.6594 126.41 15.2759 125.99 14.9989 125.44C14.7219 124.886 14.5835 124.217 14.5835 123.433V117.182H16.8974V123.075C16.8974 123.697 17.0678 124.192 17.4087 124.558C17.7496 124.925 18.1971 125.108 18.7511 125.108C19.092 125.108 19.4222 125.025 19.7418 124.859C20.0614 124.692 20.3235 124.445 20.5281 124.117C20.7369 123.785 20.8413 123.369 20.8413 122.871ZM33.2946 119.777L31.1852 120.007C31.1255 119.794 31.0211 119.594 30.872 119.406C30.7271 119.219 30.5311 119.067 30.2839 118.952C30.0368 118.837 29.7342 118.78 29.3762 118.78C28.8947 118.78 28.4899 118.884 28.1618 119.093C27.8379 119.302 27.6781 119.572 27.6824 119.905C27.6781 120.19 27.7825 120.423 27.9956 120.602C28.2129 120.781 28.5708 120.928 29.0694 121.043L30.7441 121.401C31.6731 121.601 32.3635 121.918 32.8152 122.353C33.2711 122.788 33.5012 123.357 33.5055 124.06C33.5012 124.678 33.3201 125.223 32.9622 125.696C32.6085 126.165 32.1163 126.531 31.4856 126.795C30.8549 127.06 30.1305 127.192 29.3123 127.192C28.1106 127.192 27.1433 126.94 26.4103 126.438C25.6774 125.93 25.2406 125.225 25.1 124.322L27.3564 124.104C27.4586 124.548 27.676 124.882 28.0083 125.108C28.3407 125.334 28.7733 125.447 29.3059 125.447C29.8556 125.447 30.2967 125.334 30.6291 125.108C30.9657 124.882 31.1341 124.603 31.1341 124.271C31.1341 123.989 31.0254 123.757 30.8081 123.574C30.595 123.391 30.2626 123.25 29.8109 123.152L28.1362 122.8C27.1944 122.604 26.4977 122.274 26.046 121.81C25.5943 121.341 25.3706 120.749 25.3748 120.033C25.3706 119.428 25.5346 118.903 25.867 118.46C26.2037 118.013 26.6703 117.668 27.2669 117.425C27.8677 117.178 28.5602 117.054 29.3443 117.054C30.4949 117.054 31.4004 117.299 32.0609 117.789C32.7257 118.279 33.1369 118.942 33.2946 119.777ZM39.7601 127.192C38.7757 127.192 37.9256 126.987 37.2097 126.578C36.498 126.165 35.9505 125.581 35.5669 124.827C35.1834 124.068 34.9917 123.175 34.9917 122.148C34.9917 121.138 35.1834 120.252 35.5669 119.489C35.9547 118.722 36.4959 118.126 37.1905 117.7C37.8851 117.269 38.7012 117.054 39.6387 117.054C40.2438 117.054 40.8148 117.152 41.3517 117.348C41.8929 117.54 42.3702 117.838 42.7836 118.243C43.2012 118.648 43.5293 119.163 43.7679 119.79C44.0066 120.412 44.1259 121.153 44.1259 122.014V122.724H36.0783V121.164H41.9078C41.9036 120.721 41.8077 120.327 41.6202 119.982C41.4327 119.632 41.1706 119.357 40.834 119.157C40.5016 118.957 40.1138 118.857 39.6706 118.857C39.1976 118.857 38.7821 118.972 38.4242 119.202C38.0662 119.428 37.7871 119.726 37.5868 120.097C37.3908 120.463 37.2907 120.866 37.2864 121.305V122.666C37.2864 123.237 37.3908 123.727 37.5996 124.136C37.8084 124.541 38.1003 124.852 38.4753 125.07C38.8503 125.283 39.2892 125.389 39.7921 125.389C40.1287 125.389 40.4334 125.342 40.7061 125.249C40.9789 125.151 41.2154 125.008 41.4157 124.82C41.6159 124.633 41.7672 124.401 41.8695 124.124L44.03 124.366C43.8936 124.937 43.6337 125.436 43.2502 125.862C42.8709 126.284 42.3851 126.612 41.7928 126.847C41.2005 127.077 40.5229 127.192 39.7601 127.192ZM50.9862 117.182V118.972H45.342V117.182H50.9862ZM46.7354 114.83H49.0494V124.047C49.0494 124.358 49.0962 124.597 49.19 124.763C49.288 124.925 49.4158 125.036 49.5735 125.095C49.7312 125.155 49.9059 125.185 50.0977 125.185C50.2425 125.185 50.3746 125.174 50.494 125.153C50.6175 125.131 50.7113 125.112 50.7752 125.095L51.1651 126.904C51.0415 126.947 50.8647 126.994 50.6346 127.045C50.4087 127.096 50.1317 127.126 49.8036 127.134C49.2241 127.151 48.7021 127.064 48.2376 126.872C47.7731 126.676 47.4045 126.374 47.1317 125.964C46.8633 125.555 46.7312 125.044 46.7354 124.43V114.83ZM54.3468 127.141C53.959 127.141 53.6266 127.004 53.3496 126.732C53.0726 126.459 52.9363 126.126 52.9405 125.734C52.9363 125.351 53.0726 125.023 53.3496 124.75C53.6266 124.477 53.959 124.341 54.3468 124.341C54.7218 124.341 55.0478 124.477 55.3248 124.75C55.606 125.023 55.7488 125.351 55.753 125.734C55.7488 125.994 55.6806 126.231 55.5485 126.444C55.4206 126.657 55.2502 126.827 55.0371 126.955C54.8283 127.079 54.5982 127.141 54.3468 127.141ZM62.3049 127V113.909H70.6912V115.897H64.6763V119.451H70.1159V121.439H64.6763V127H62.3049ZM72.7495 127V117.182H75.0634V127H72.7495ZM73.9128 115.788C73.5463 115.788 73.231 115.667 72.9668 115.424C72.7026 115.177 72.5705 114.881 72.5705 114.536C72.5705 114.186 72.7026 113.89 72.9668 113.647C73.231 113.4 73.5463 113.276 73.9128 113.276C74.2836 113.276 74.5989 113.4 74.8588 113.647C75.123 113.89 75.2551 114.186 75.2551 114.536C75.2551 114.881 75.123 115.177 74.8588 115.424C74.5989 115.667 74.2836 115.788 73.9128 115.788ZM79.7567 121.247V127H77.4428V117.182H79.6545V118.85H79.7695C79.9954 118.3 80.3555 117.864 80.8498 117.54C81.3484 117.216 81.9641 117.054 82.6971 117.054C83.3746 117.054 83.9648 117.199 84.4677 117.489C84.9748 117.778 85.3668 118.198 85.6438 118.748C85.9251 119.298 86.0636 119.964 86.0593 120.749V127H83.7454V121.107C83.7454 120.45 83.5749 119.937 83.234 119.566C82.8974 119.195 82.4308 119.01 81.8342 119.01C81.4293 119.01 81.0692 119.099 80.7539 119.278C80.4428 119.453 80.1978 119.707 80.0188 120.039C79.8441 120.371 79.7567 120.774 79.7567 121.247ZM92.055 127.173C91.2837 127.173 90.5934 126.974 89.984 126.578C89.3746 126.182 88.8931 125.607 88.5394 124.852C88.1857 124.098 88.0089 123.182 88.0089 122.104C88.0089 121.013 88.1879 120.092 88.5458 119.342C88.908 118.588 89.396 118.019 90.0096 117.636C90.6232 117.248 91.3072 117.054 92.0614 117.054C92.6367 117.054 93.1097 117.152 93.4805 117.348C93.8512 117.54 94.1452 117.772 94.3626 118.045C94.5799 118.313 94.7482 118.567 94.8675 118.805H94.9634V113.909H97.2837V127H95.0082V125.453H94.8675C94.7482 125.692 94.5756 125.945 94.3498 126.214C94.1239 126.478 93.8256 126.704 93.4549 126.891C93.0842 127.079 92.6175 127.173 92.055 127.173ZM92.7006 125.274C93.1907 125.274 93.6083 125.142 93.9535 124.878C94.2987 124.609 94.5607 124.237 94.7397 123.759C94.9187 123.282 95.0082 122.726 95.0082 122.091C95.0082 121.456 94.9187 120.904 94.7397 120.435C94.565 119.967 94.305 119.602 93.9599 119.342C93.619 119.082 93.1992 118.952 92.7006 118.952C92.185 118.952 91.7546 119.087 91.4094 119.355C91.0643 119.624 90.8043 119.994 90.6296 120.467C90.4549 120.94 90.3675 121.482 90.3675 122.091C90.3675 122.705 90.4549 123.252 90.6296 123.734C90.8086 124.211 91.0707 124.588 91.4158 124.865C91.7653 125.138 92.1935 125.274 92.7006 125.274ZM109.187 117.182V118.972H103.383V117.182H109.187ZM104.834 127V116.255C104.834 115.594 104.971 115.045 105.243 114.606C105.52 114.167 105.891 113.839 106.356 113.621C106.82 113.404 107.336 113.295 107.903 113.295C108.303 113.295 108.659 113.327 108.97 113.391C109.281 113.455 109.511 113.513 109.66 113.564L109.2 115.354C109.102 115.324 108.979 115.294 108.829 115.264C108.68 115.23 108.514 115.213 108.331 115.213C107.9 115.213 107.596 115.317 107.417 115.526C107.242 115.731 107.155 116.025 107.155 116.408V127H104.834ZM113.313 113.909V127H110.999V113.909H113.313ZM120.039 127.192C119.055 127.192 118.205 126.987 117.489 126.578C116.777 126.165 116.23 125.581 115.846 124.827C115.463 124.068 115.271 123.175 115.271 122.148C115.271 121.138 115.463 120.252 115.846 119.489C116.234 118.722 116.775 118.126 117.47 117.7C118.164 117.269 118.98 117.054 119.918 117.054C120.523 117.054 121.094 117.152 121.631 117.348C122.172 117.54 122.65 117.838 123.063 118.243C123.48 118.648 123.809 119.163 124.047 119.79C124.286 120.412 124.405 121.153 124.405 122.014V122.724H116.358V121.164H122.187C122.183 120.721 122.087 120.327 121.9 119.982C121.712 119.632 121.45 119.357 121.113 119.157C120.781 118.957 120.393 118.857 119.95 118.857C119.477 118.857 119.061 118.972 118.703 119.202C118.346 119.428 118.066 119.726 117.866 120.097C117.67 120.463 117.57 120.866 117.566 121.305V122.666C117.566 123.237 117.67 123.727 117.879 124.136C118.088 124.541 118.38 124.852 118.755 125.07C119.13 125.283 119.569 125.389 120.071 125.389C120.408 125.389 120.713 125.342 120.985 125.249C121.258 125.151 121.495 125.008 121.695 124.82C121.895 124.633 122.047 124.401 122.149 124.124L124.309 124.366C124.173 124.937 123.913 125.436 123.529 125.862C123.15 126.284 122.664 126.612 122.072 126.847C121.48 127.077 120.802 127.192 120.039 127.192ZM126.363 127V117.182H128.606V118.818H128.709C128.888 118.251 129.194 117.815 129.629 117.508C130.068 117.197 130.569 117.041 131.131 117.041C131.259 117.041 131.402 117.048 131.559 117.06C131.721 117.069 131.856 117.084 131.962 117.105V119.234C131.864 119.2 131.709 119.17 131.496 119.144C131.287 119.114 131.084 119.099 130.888 119.099C130.466 119.099 130.087 119.191 129.751 119.374C129.418 119.553 129.156 119.803 128.964 120.122C128.773 120.442 128.677 120.81 128.677 121.228V127H126.363ZM137.442 127.192C136.457 127.192 135.607 126.987 134.891 126.578C134.18 126.165 133.632 125.581 133.249 124.827C132.865 124.068 132.673 123.175 132.673 122.148C132.673 121.138 132.865 120.252 133.249 119.489C133.636 118.722 134.178 118.126 134.872 117.7C135.567 117.269 136.383 117.054 137.32 117.054C137.925 117.054 138.496 117.152 139.033 117.348C139.575 117.54 140.052 117.838 140.465 118.243C140.883 118.648 141.211 119.163 141.45 119.79C141.688 120.412 141.808 121.153 141.808 122.014V122.724H133.76V121.164H139.589C139.585 120.721 139.489 120.327 139.302 119.982C139.114 119.632 138.852 119.357 138.516 119.157C138.183 118.957 137.795 118.857 137.352 118.857C136.879 118.857 136.464 118.972 136.106 119.202C135.748 119.428 135.469 119.726 135.268 120.097C135.072 120.463 134.972 120.866 134.968 121.305V122.666C134.968 123.237 135.072 123.727 135.281 124.136C135.49 124.541 135.782 124.852 136.157 125.07C136.532 125.283 136.971 125.389 137.474 125.389C137.81 125.389 138.115 125.342 138.388 125.249C138.661 125.151 138.897 125.008 139.097 124.82C139.298 124.633 139.449 124.401 139.551 124.124L141.712 124.366C141.575 124.937 141.315 125.436 140.932 125.862C140.553 126.284 140.067 126.612 139.474 126.847C138.882 127.077 138.205 127.192 137.442 127.192ZM148.23 130.682V117.182H150.506V118.805H150.64C150.759 118.567 150.927 118.313 151.145 118.045C151.362 117.772 151.656 117.54 152.027 117.348C152.398 117.152 152.871 117.054 153.446 117.054C154.204 117.054 154.888 117.248 155.498 117.636C156.111 118.019 156.597 118.588 156.955 119.342C157.317 120.092 157.498 121.013 157.498 122.104C157.498 123.182 157.322 124.098 156.968 124.852C156.614 125.607 156.133 126.182 155.523 126.578C154.914 126.974 154.224 127.173 153.452 127.173C152.89 127.173 152.423 127.079 152.052 126.891C151.682 126.704 151.383 126.478 151.157 126.214C150.936 125.945 150.763 125.692 150.64 125.453H150.544V130.682H148.23ZM150.499 122.091C150.499 122.726 150.589 123.282 150.768 123.759C150.951 124.237 151.213 124.609 151.554 124.878C151.899 125.142 152.317 125.274 152.807 125.274C153.318 125.274 153.746 125.138 154.091 124.865C154.437 124.588 154.697 124.211 154.871 123.734C155.05 123.252 155.14 122.705 155.14 122.091C155.14 121.482 155.052 120.94 154.878 120.467C154.703 119.994 154.443 119.624 154.098 119.355C153.753 119.087 153.322 118.952 152.807 118.952C152.312 118.952 151.893 119.082 151.547 119.342C151.202 119.602 150.94 119.967 150.761 120.435C150.586 120.904 150.499 121.456 150.499 122.091ZM162.305 127.198C161.683 127.198 161.123 127.087 160.624 126.866C160.13 126.64 159.738 126.308 159.448 125.869C159.162 125.43 159.02 124.888 159.02 124.245C159.02 123.691 159.122 123.233 159.327 122.871C159.531 122.509 159.81 122.219 160.164 122.001C160.518 121.784 160.916 121.62 161.359 121.509C161.807 121.394 162.269 121.311 162.746 121.26C163.322 121.2 163.788 121.147 164.146 121.1C164.504 121.049 164.764 120.972 164.926 120.87C165.092 120.763 165.175 120.599 165.175 120.378V120.339C165.175 119.858 165.032 119.485 164.747 119.221C164.461 118.957 164.05 118.825 163.513 118.825C162.947 118.825 162.497 118.948 162.165 119.195C161.836 119.442 161.615 119.734 161.5 120.071L159.339 119.764C159.51 119.168 159.791 118.669 160.183 118.268C160.575 117.864 161.055 117.561 161.621 117.361C162.188 117.156 162.814 117.054 163.501 117.054C163.974 117.054 164.444 117.109 164.913 117.22C165.382 117.331 165.81 117.514 166.198 117.77C166.586 118.021 166.897 118.364 167.131 118.799C167.37 119.234 167.489 119.777 167.489 120.429V127H165.265V125.651H165.188C165.047 125.924 164.849 126.18 164.594 126.418C164.342 126.653 164.025 126.842 163.641 126.987C163.262 127.128 162.817 127.198 162.305 127.198ZM162.906 125.498C163.371 125.498 163.773 125.406 164.114 125.223C164.455 125.036 164.717 124.788 164.9 124.482C165.088 124.175 165.182 123.84 165.182 123.478V122.321C165.109 122.381 164.986 122.436 164.811 122.487C164.64 122.538 164.449 122.583 164.236 122.621C164.023 122.66 163.812 122.694 163.603 122.724C163.394 122.754 163.213 122.779 163.059 122.8C162.714 122.847 162.405 122.924 162.133 123.031C161.86 123.137 161.645 123.286 161.487 123.478C161.329 123.665 161.251 123.908 161.251 124.207C161.251 124.633 161.406 124.955 161.717 125.172C162.028 125.389 162.425 125.498 162.906 125.498ZM169.816 127V117.182H172.059V118.818H172.162C172.341 118.251 172.648 117.815 173.082 117.508C173.521 117.197 174.022 117.041 174.584 117.041C174.712 117.041 174.855 117.048 175.013 117.06C175.175 117.069 175.309 117.084 175.415 117.105V119.234C175.317 119.2 175.162 119.17 174.949 119.144C174.74 119.114 174.537 119.099 174.341 119.099C173.92 119.099 173.54 119.191 173.204 119.374C172.871 119.553 172.609 119.803 172.417 120.122C172.226 120.442 172.13 120.81 172.13 121.228V127H169.816ZM179.062 123.919L179.056 121.126H179.426L182.955 117.182H185.659L181.318 122.014H180.839L179.062 123.919ZM176.953 127V113.909H179.267V127H176.953ZM183.115 127L179.919 122.532L181.478 120.902L185.882 127H183.115ZM191.143 127.192C190.159 127.192 189.308 126.987 188.593 126.578C187.881 126.165 187.333 125.581 186.95 124.827C186.566 124.068 186.374 123.175 186.374 122.148C186.374 121.138 186.566 120.252 186.95 119.489C187.338 118.722 187.879 118.126 188.573 117.7C189.268 117.269 190.084 117.054 191.021 117.054C191.627 117.054 192.198 117.152 192.735 117.348C193.276 117.54 193.753 117.838 194.166 118.243C194.584 118.648 194.912 119.163 195.151 119.79C195.389 120.412 195.509 121.153 195.509 122.014V122.724H187.461V121.164H193.291C193.286 120.721 193.191 120.327 193.003 119.982C192.816 119.632 192.553 119.357 192.217 119.157C191.884 118.957 191.497 118.857 191.053 118.857C190.58 118.857 190.165 118.972 189.807 119.202C189.449 119.428 189.17 119.726 188.97 120.097C188.774 120.463 188.673 120.866 188.669 121.305V122.666C188.669 123.237 188.774 123.727 188.982 124.136C189.191 124.541 189.483 124.852 189.858 125.07C190.233 125.283 190.672 125.389 191.175 125.389C191.512 125.389 191.816 125.342 192.089 125.249C192.362 125.151 192.598 125.008 192.798 124.82C192.999 124.633 193.15 124.401 193.252 124.124L195.413 124.366C195.276 124.937 195.017 125.436 194.633 125.862C194.254 126.284 193.768 126.612 193.176 126.847C192.583 127.077 191.906 127.192 191.143 127.192ZM197.466 127V117.182H199.71V118.818H199.812C199.991 118.251 200.298 117.815 200.733 117.508C201.172 117.197 201.672 117.041 202.235 117.041C202.363 117.041 202.505 117.048 202.663 117.06C202.825 117.069 202.959 117.084 203.066 117.105V119.234C202.968 119.2 202.812 119.17 202.599 119.144C202.39 119.114 202.188 119.099 201.992 119.099C201.57 119.099 201.191 119.191 200.854 119.374C200.522 119.553 200.26 119.803 200.068 120.122C199.876 120.442 199.78 120.81 199.78 121.228V127H197.466ZM204.603 127V117.182H206.917V127H204.603ZM205.766 115.788C205.4 115.788 205.085 115.667 204.82 115.424C204.556 115.177 204.424 114.881 204.424 114.536C204.424 114.186 204.556 113.89 204.82 113.647C205.085 113.4 205.4 113.276 205.766 113.276C206.137 113.276 206.452 113.4 206.712 113.647C206.977 113.89 207.109 114.186 207.109 114.536C207.109 114.881 206.977 115.177 206.712 115.424C206.452 115.667 206.137 115.788 205.766 115.788ZM211.61 121.247V127H209.296V117.182H211.508V118.85H211.623C211.849 118.3 212.209 117.864 212.703 117.54C213.202 117.216 213.818 117.054 214.551 117.054C215.228 117.054 215.818 117.199 216.321 117.489C216.828 117.778 217.22 118.198 217.497 118.748C217.779 119.298 217.917 119.964 217.913 120.749V127H215.599V121.107C215.599 120.45 215.428 119.937 215.088 119.566C214.751 119.195 214.284 119.01 213.688 119.01C213.283 119.01 212.923 119.099 212.607 119.278C212.296 119.453 212.051 119.707 211.872 120.039C211.698 120.371 211.61 120.774 211.61 121.247ZM224.535 130.886C223.704 130.886 222.99 130.773 222.394 130.548C221.797 130.326 221.318 130.028 220.955 129.653C220.593 129.278 220.342 128.862 220.201 128.406L222.285 127.901C222.379 128.093 222.515 128.283 222.694 128.47C222.873 128.662 223.114 128.82 223.416 128.943C223.723 129.071 224.109 129.135 224.573 129.135C225.23 129.135 225.773 128.975 226.203 128.656C226.634 128.34 226.849 127.82 226.849 127.096V125.236H226.734C226.615 125.474 226.44 125.719 226.21 125.971C225.984 126.222 225.683 126.433 225.308 126.604C224.938 126.774 224.471 126.859 223.909 126.859C223.154 126.859 222.47 126.683 221.857 126.329C221.247 125.971 220.762 125.438 220.399 124.731C220.041 124.019 219.862 123.129 219.862 122.059C219.862 120.981 220.041 120.071 220.399 119.33C220.762 118.584 221.249 118.019 221.863 117.636C222.477 117.248 223.161 117.054 223.915 117.054C224.49 117.054 224.963 117.152 225.334 117.348C225.709 117.54 226.007 117.772 226.229 118.045C226.45 118.313 226.619 118.567 226.734 118.805H226.862V117.182H229.144V127.16C229.144 127.999 228.943 128.694 228.543 129.244C228.142 129.793 227.595 130.205 226.9 130.477C226.205 130.75 225.417 130.886 224.535 130.886ZM224.554 125.044C225.044 125.044 225.462 124.925 225.807 124.686C226.152 124.447 226.414 124.104 226.593 123.657C226.772 123.21 226.862 122.673 226.862 122.046C226.862 121.428 226.772 120.887 226.593 120.423C226.419 119.958 226.159 119.598 225.813 119.342C225.472 119.082 225.053 118.952 224.554 118.952C224.039 118.952 223.608 119.087 223.263 119.355C222.918 119.624 222.658 119.992 222.483 120.461C222.308 120.925 222.221 121.454 222.221 122.046C222.221 122.647 222.308 123.173 222.483 123.625C222.662 124.072 222.924 124.422 223.269 124.673C223.619 124.92 224.047 125.044 224.554 125.044ZM239.275 119.777L237.166 120.007C237.106 119.794 237.002 119.594 236.852 119.406C236.708 119.219 236.512 119.067 236.264 118.952C236.017 118.837 235.715 118.78 235.357 118.78C234.875 118.78 234.47 118.884 234.142 119.093C233.818 119.302 233.659 119.572 233.663 119.905C233.659 120.19 233.763 120.423 233.976 120.602C234.193 120.781 234.551 120.928 235.05 121.043L236.725 121.401C237.654 121.601 238.344 121.918 238.796 122.353C239.252 122.788 239.482 123.357 239.486 124.06C239.482 124.678 239.301 125.223 238.943 125.696C238.589 126.165 238.097 126.531 237.466 126.795C236.835 127.06 236.111 127.192 235.293 127.192C234.091 127.192 233.124 126.94 232.391 126.438C231.658 125.93 231.221 125.225 231.08 124.322L233.337 124.104C233.439 124.548 233.656 124.882 233.989 125.108C234.321 125.334 234.754 125.447 235.286 125.447C235.836 125.447 236.277 125.334 236.61 125.108C236.946 124.882 237.115 124.603 237.115 124.271C237.115 123.989 237.006 123.757 236.789 123.574C236.575 123.391 236.243 123.25 235.791 123.152L234.117 122.8C233.175 122.604 232.478 122.274 232.026 121.81C231.575 121.341 231.351 120.749 231.355 120.033C231.351 119.428 231.515 118.903 231.847 118.46C232.184 118.013 232.651 117.668 233.247 117.425C233.848 117.178 234.541 117.054 235.325 117.054C236.475 117.054 237.381 117.299 238.041 117.789C238.706 118.279 239.117 118.942 239.275 119.777ZM247.345 120.595V122.5H241.452V120.595H247.345ZM1.18892 157.682V144.182H3.46449V145.805H3.59872C3.71804 145.567 3.88636 145.313 4.10369 145.045C4.32102 144.772 4.61506 144.54 4.9858 144.348C5.35653 144.152 5.82955 144.054 6.40483 144.054C7.16335 144.054 7.8473 144.248 8.45668 144.636C9.07031 145.019 9.55611 145.588 9.91406 146.342C10.2763 147.092 10.4574 148.013 10.4574 149.104C10.4574 150.182 10.2805 151.098 9.92685 151.852C9.57315 152.607 9.09162 153.182 8.48224 153.578C7.87287 153.974 7.18253 154.173 6.41122 154.173C5.84872 154.173 5.3821 154.079 5.01136 153.891C4.64063 153.704 4.34233 153.478 4.11648 153.214C3.89489 152.945 3.7223 152.692 3.59872 152.453H3.50284V157.682H1.18892ZM3.4581 149.091C3.4581 149.726 3.54759 150.282 3.72656 150.759C3.9098 151.237 4.17188 151.609 4.51278 151.878C4.85795 152.142 5.27557 152.274 5.76562 152.274C6.27699 152.274 6.70526 152.138 7.05043 151.865C7.3956 151.588 7.65554 151.211 7.83026 150.734C8.00923 150.252 8.09872 149.705 8.09872 149.091C8.09872 148.482 8.01136 147.94 7.83665 147.467C7.66193 146.994 7.40199 146.624 7.05682 146.355C6.71165 146.087 6.28125 145.952 5.76562 145.952C5.27131 145.952 4.85156 146.082 4.50639 146.342C4.16122 146.602 3.89915 146.967 3.72017 147.435C3.54545 147.904 3.4581 148.456 3.4581 149.091ZM14.7528 140.909V154H12.4389V140.909H14.7528ZM19.9576 154.198C19.3354 154.198 18.775 154.087 18.2765 153.866C17.7821 153.64 17.3901 153.308 17.1003 152.869C16.8148 152.43 16.6721 151.888 16.6721 151.245C16.6721 150.691 16.7743 150.233 16.9789 149.871C17.1834 149.509 17.4625 149.219 17.8162 149.001C18.1699 148.784 18.5684 148.62 19.0115 148.509C19.459 148.394 19.9213 148.311 20.3986 148.26C20.9739 148.2 21.4405 148.147 21.7985 148.1C22.1564 148.049 22.4164 147.972 22.5783 147.87C22.7445 147.763 22.8276 147.599 22.8276 147.378V147.339C22.8276 146.858 22.6848 146.485 22.3993 146.221C22.1138 145.957 21.7026 145.825 21.1657 145.825C20.5989 145.825 20.1493 145.948 19.8169 146.195C19.4888 146.442 19.2672 146.734 19.1522 147.071L16.9917 146.764C17.1621 146.168 17.4434 145.669 17.8354 145.268C18.2275 144.864 18.7069 144.561 19.2736 144.361C19.8404 144.156 20.4668 144.054 21.1529 144.054C21.6259 144.054 22.0968 144.109 22.5655 144.22C23.0343 144.331 23.4625 144.514 23.8503 144.77C24.2381 145.021 24.5492 145.364 24.7836 145.799C25.0222 146.234 25.1415 146.777 25.1415 147.429V154H22.9171V152.651H22.8404C22.6998 152.924 22.5016 153.18 22.2459 153.418C21.9945 153.653 21.677 153.842 21.2935 153.987C20.9142 154.128 20.4689 154.198 19.9576 154.198ZM20.5584 152.498C21.0229 152.498 21.4256 152.406 21.7665 152.223C22.1074 152.036 22.3695 151.788 22.5527 151.482C22.7402 151.175 22.834 150.84 22.834 150.478V149.321C22.7615 149.381 22.638 149.436 22.4632 149.487C22.2928 149.538 22.101 149.583 21.888 149.621C21.6749 149.66 21.464 149.694 21.2551 149.724C21.0463 149.754 20.8652 149.779 20.7118 149.8C20.3667 149.847 20.0577 149.924 19.785 150.031C19.5123 150.137 19.2971 150.286 19.1394 150.478C18.9817 150.665 18.9029 150.908 18.9029 151.207C18.9029 151.633 19.0584 151.955 19.3695 152.172C19.6806 152.389 20.0769 152.498 20.5584 152.498ZM31.1117 154.173C30.3404 154.173 29.65 153.974 29.0407 153.578C28.4313 153.182 27.9498 152.607 27.5961 151.852C27.2424 151.098 27.0655 150.182 27.0655 149.104C27.0655 148.013 27.2445 147.092 27.6025 146.342C27.9647 145.588 28.4526 145.019 29.0662 144.636C29.6799 144.248 30.3638 144.054 31.1181 144.054C31.6934 144.054 32.1664 144.152 32.5371 144.348C32.9078 144.54 33.2019 144.772 33.4192 145.045C33.6365 145.313 33.8049 145.567 33.9242 145.805H34.0201V140.909H36.3404V154H34.0648V152.453H33.9242C33.8049 152.692 33.6323 152.945 33.4064 153.214C33.1806 153.478 32.8823 153.704 32.5115 153.891C32.1408 154.079 31.6742 154.173 31.1117 154.173ZM31.7573 152.274C32.2473 152.274 32.665 152.142 33.0101 151.878C33.3553 151.609 33.6174 151.237 33.7963 150.759C33.9753 150.282 34.0648 149.726 34.0648 149.091C34.0648 148.456 33.9753 147.904 33.7963 147.435C33.6216 146.967 33.3617 146.602 33.0165 146.342C32.6756 146.082 32.2559 145.952 31.7573 145.952C31.2417 145.952 30.8113 146.087 30.4661 146.355C30.1209 146.624 29.861 146.994 29.6863 147.467C29.5115 147.94 29.4242 148.482 29.4242 149.091C29.4242 149.705 29.5115 150.252 29.6863 150.734C29.8652 151.211 30.1273 151.588 30.4725 151.865C30.8219 152.138 31.2502 152.274 31.7573 152.274ZM46.5661 146.777L44.4567 147.007C44.397 146.794 44.2926 146.594 44.1435 146.406C43.9986 146.219 43.8026 146.067 43.5554 145.952C43.3082 145.837 43.0057 145.78 42.6477 145.78C42.1662 145.78 41.7614 145.884 41.4332 146.093C41.1094 146.302 40.9496 146.572 40.9538 146.905C40.9496 147.19 41.054 147.423 41.267 147.602C41.4844 147.781 41.8423 147.928 42.3409 148.043L44.0156 148.401C44.9446 148.601 45.6349 148.918 46.0866 149.353C46.5426 149.788 46.7727 150.357 46.777 151.06C46.7727 151.678 46.5916 152.223 46.2337 152.696C45.88 153.165 45.3878 153.531 44.7571 153.795C44.1264 154.06 43.402 154.192 42.5838 154.192C41.3821 154.192 40.4148 153.94 39.6818 153.438C38.9489 152.93 38.5121 152.225 38.3714 151.322L40.6278 151.104C40.7301 151.548 40.9474 151.882 41.2798 152.108C41.6122 152.334 42.0447 152.447 42.5774 152.447C43.1271 152.447 43.5682 152.334 43.9006 152.108C44.2372 151.882 44.4055 151.603 44.4055 151.271C44.4055 150.989 44.2969 150.757 44.0795 150.574C43.8665 150.391 43.5341 150.25 43.0824 150.152L41.4077 149.8C40.4659 149.604 39.7692 149.274 39.3175 148.81C38.8658 148.341 38.642 147.749 38.6463 147.033C38.642 146.428 38.8061 145.903 39.1385 145.46C39.4751 145.013 39.9418 144.668 40.5384 144.425C41.1392 144.178 41.8317 144.054 42.6158 144.054C43.7663 144.054 44.6719 144.299 45.3324 144.789C45.9972 145.279 46.4084 145.942 46.5661 146.777ZM53.0316 154.192C52.0472 154.192 51.1971 153.987 50.4812 153.578C49.7695 153.165 49.2219 152.581 48.8384 151.827C48.4549 151.068 48.2631 150.175 48.2631 149.148C48.2631 148.138 48.4549 147.252 48.8384 146.489C49.2262 145.722 49.7674 145.126 50.462 144.7C51.1566 144.269 51.9727 144.054 52.9102 144.054C53.5153 144.054 54.0863 144.152 54.6232 144.348C55.1644 144.54 55.6417 144.838 56.055 145.243C56.4727 145.648 56.8008 146.163 57.0394 146.79C57.2781 147.412 57.3974 148.153 57.3974 149.014V149.724H49.3498V148.164H55.1793C55.1751 147.721 55.0792 147.327 54.8917 146.982C54.7042 146.632 54.4421 146.357 54.1055 146.157C53.7731 145.957 53.3853 145.857 52.9421 145.857C52.4691 145.857 52.0536 145.972 51.6957 146.202C51.3377 146.428 51.0586 146.726 50.8583 147.097C50.6623 147.463 50.5621 147.866 50.5579 148.305V149.666C50.5579 150.237 50.6623 150.727 50.8711 151.136C51.0799 151.541 51.3718 151.852 51.7468 152.07C52.1218 152.283 52.5607 152.389 53.0636 152.389C53.4002 152.389 53.7049 152.342 53.9776 152.249C54.2504 152.151 54.4869 152.008 54.6871 151.82C54.8874 151.633 55.0387 151.401 55.141 151.124L57.3015 151.366C57.1651 151.937 56.9052 152.436 56.5217 152.862C56.1424 153.284 55.6566 153.612 55.0643 153.847C54.4719 154.077 53.7944 154.192 53.0316 154.192ZM59.3549 154V144.182H61.5985V145.818H61.7008C61.8798 145.251 62.1866 144.815 62.6213 144.508C63.0602 144.197 63.5609 144.041 64.1234 144.041C64.2512 144.041 64.394 144.048 64.5517 144.06C64.7136 144.069 64.8478 144.084 64.9544 144.105V146.234C64.8564 146.2 64.7008 146.17 64.4877 146.144C64.2789 146.114 64.0765 146.099 63.8805 146.099C63.4586 146.099 63.0794 146.191 62.7427 146.374C62.4103 146.553 62.1483 146.803 61.9565 147.122C61.7647 147.442 61.6689 147.81 61.6689 148.228V154H59.3549ZM73.2704 148.247V154H70.9565V140.909H73.2193V145.85H73.3343C73.5645 145.296 73.9203 144.859 74.4018 144.54C74.8876 144.216 75.5055 144.054 76.2555 144.054C76.9373 144.054 77.5318 144.197 78.0389 144.482C78.546 144.768 78.938 145.185 79.215 145.735C79.4963 146.285 79.6369 146.956 79.6369 147.749V154H77.323V148.107C77.323 147.446 77.1525 146.933 76.8116 146.566C76.475 146.195 76.002 146.01 75.3926 146.01C74.9835 146.01 74.617 146.099 74.2931 146.278C73.9735 146.453 73.7221 146.707 73.5389 147.039C73.3599 147.371 73.2704 147.774 73.2704 148.247ZM86.3422 154.192C85.3578 154.192 84.5076 153.987 83.7917 153.578C83.0801 153.165 82.5325 152.581 82.149 151.827C81.7654 151.068 81.5737 150.175 81.5737 149.148C81.5737 148.138 81.7654 147.252 82.149 146.489C82.5368 145.722 83.0779 145.126 83.7725 144.7C84.4672 144.269 85.2832 144.054 86.2207 144.054C86.8258 144.054 87.3968 144.152 87.9338 144.348C88.475 144.54 88.9522 144.838 89.3656 145.243C89.7832 145.648 90.1113 146.163 90.35 146.79C90.5886 147.412 90.7079 148.153 90.7079 149.014V149.724H82.6603V148.164H88.4899C88.4856 147.721 88.3897 147.327 88.2022 146.982C88.0147 146.632 87.7527 146.357 87.416 146.157C87.0836 145.957 86.6958 145.857 86.2527 145.857C85.7797 145.857 85.3642 145.972 85.0062 146.202C84.6483 146.428 84.3691 146.726 84.1689 147.097C83.9728 147.463 83.8727 147.866 83.8684 148.305V149.666C83.8684 150.237 83.9728 150.727 84.1816 151.136C84.3904 151.541 84.6824 151.852 85.0574 152.07C85.4324 152.283 85.8713 152.389 86.3741 152.389C86.7108 152.389 87.0154 152.342 87.2882 152.249C87.5609 152.151 87.7974 152.008 87.9977 151.82C88.198 151.633 88.3493 151.401 88.4515 151.124L90.612 151.366C90.4757 151.937 90.2157 152.436 89.8322 152.862C89.4529 153.284 88.9672 153.612 88.3748 153.847C87.7825 154.077 87.1049 154.192 86.3422 154.192ZM92.6655 154V144.182H94.9091V145.818H95.0114C95.1903 145.251 95.4972 144.815 95.9318 144.508C96.3707 144.197 96.8714 144.041 97.4339 144.041C97.5618 144.041 97.7045 144.048 97.8622 144.06C98.0241 144.069 98.1584 144.084 98.2649 144.105V146.234C98.1669 146.2 98.0114 146.17 97.7983 146.144C97.5895 146.114 97.3871 146.099 97.1911 146.099C96.7692 146.099 96.3899 146.191 96.0533 146.374C95.7209 146.553 95.4588 146.803 95.267 147.122C95.0753 147.442 94.9794 147.81 94.9794 148.228V154H92.6655Z" fill="#F291BA"/>
<path d="M69.7676 157.58H98.6165V158.807H69.7676V157.58Z" fill="#F291BA"/>
</svg>
