<svg width="278" height="161" viewBox="0 0 278 161" fill="none" xmlns="http://www.w3.org/2000/svg">
<path d="M147.544 6.48535H131.457C125.75 6.48535 124.49 9.32702 123.757 12.8104L121.167 25.2083H157.834L155.244 12.8104C154.511 9.32702 153.25 6.48535 147.544 6.48535Z" stroke="#72AA9A" stroke-width="1.5" stroke-linecap="round" stroke-linejoin="round"/>
<path d="M162.394 45.4205C162.646 48.1018 160.491 50.4163 157.741 50.4163H153.433C150.958 50.4163 150.614 49.3622 150.179 48.0559L149.721 46.6809C149.079 44.8018 148.666 43.5413 145.366 43.5413H133.633C130.333 43.5413 129.852 44.9622 129.279 46.6809L128.821 48.0559C128.385 49.3622 128.041 50.4163 125.566 50.4163H121.258C118.508 50.4163 116.354 48.1018 116.606 45.4205L117.889 31.4643C118.21 28.0268 118.875 25.208 124.879 25.208H154.121C160.125 25.208 160.789 28.0268 161.11 31.4643L162.394 45.4205Z" stroke="#72AA9A" stroke-width="1.5" stroke-linecap="round" stroke-linejoin="round"/>
<path d="M121.167 18.333H118.875" stroke="#72AA9A" stroke-width="1.5" stroke-linecap="round" stroke-linejoin="round"/>
<path d="M160.125 18.333H157.833" stroke="#72AA9A" stroke-width="1.5" stroke-linecap="round" stroke-linejoin="round"/>
<path d="M139.5 6.875V11.4583" stroke="#72AA9A" stroke-width="1.5" stroke-linecap="round" stroke-linejoin="round"/>
<path d="M136.062 11.458H142.938" stroke="#72AA9A" stroke-width="1.5" stroke-linecap="round" stroke-linejoin="round"/>
<path d="M125.75 34.375H132.625" stroke="#72AA9A" stroke-width="1.5" stroke-linecap="round" stroke-linejoin="round"/>
<path d="M146.375 34.375H153.25" stroke="#72AA9A" stroke-width="1.5" stroke-linecap="round" stroke-linejoin="round"/>
<path d="M3.04261 86.9091L6.44957 97.2131H6.58381L9.98438 86.9091H12.5923L7.97727 100H5.04972L0.441051 86.9091H3.04261ZM17.5062 100.192C16.5218 100.192 15.6717 99.9872 14.9558 99.5781C14.2441 99.1648 13.6966 98.581 13.313 97.8267C12.9295 97.0682 12.7377 96.1754 12.7377 95.1484C12.7377 94.1385 12.9295 93.2521 13.313 92.4893C13.7008 91.7223 14.242 91.1257 14.9366 90.6996C15.6312 90.2692 16.4473 90.054 17.3848 90.054C17.9899 90.054 18.5609 90.152 19.0978 90.348C19.639 90.5398 20.1163 90.8381 20.5297 91.2429C20.9473 91.6477 21.2754 92.1634 21.514 92.7898C21.7527 93.4119 21.872 94.1534 21.872 95.0142V95.7237H13.8244V94.1641H19.6539C19.6497 93.7209 19.5538 93.3267 19.3663 92.9815C19.1788 92.6321 18.9167 92.3572 18.5801 92.157C18.2477 91.9567 17.8599 91.8565 17.4167 91.8565C16.9437 91.8565 16.5282 91.9716 16.1703 92.2017C15.8123 92.4276 15.5332 92.7259 15.3329 93.0966C15.1369 93.4631 15.0368 93.8658 15.0325 94.3047V95.6662C15.0325 96.2372 15.1369 96.7273 15.3457 97.1364C15.5545 97.5412 15.8464 97.8523 16.2214 98.0696C16.5964 98.2827 17.0353 98.3892 17.5382 98.3892C17.8748 98.3892 18.1795 98.3423 18.4522 98.2486C18.725 98.1506 18.9615 98.0078 19.1618 97.8203C19.362 97.6328 19.5133 97.4006 19.6156 97.1236L21.7761 97.3665C21.6397 97.9375 21.3798 98.4361 20.9963 98.8622C20.617 99.2841 20.1312 99.6122 19.5389 99.8466C18.9466 100.077 18.269 100.192 17.5062 100.192ZM27.473 100.173C26.7017 100.173 26.0114 99.9744 25.402 99.5781C24.7926 99.1818 24.3111 98.6065 23.9574 97.8523C23.6037 97.098 23.4268 96.1818 23.4268 95.1037C23.4268 94.0128 23.6058 93.0923 23.9638 92.3423C24.326 91.5881 24.8139 91.0192 25.4276 90.6357C26.0412 90.2479 26.7251 90.054 27.4794 90.054C28.0547 90.054 28.5277 90.152 28.8984 90.348C29.2692 90.5398 29.5632 90.772 29.7805 91.0447C29.9979 91.3132 30.1662 91.5668 30.2855 91.8054H30.3814V86.9091H32.7017V100H30.4261V98.4531H30.2855C30.1662 98.6918 29.9936 98.9453 29.7678 99.2138C29.5419 99.478 29.2436 99.7038 28.8729 99.8913C28.5021 100.079 28.0355 100.173 27.473 100.173ZM28.1186 98.2741C28.6087 98.2741 29.0263 98.142 29.3714 97.8778C29.7166 97.6094 29.9787 97.2365 30.1577 96.7592C30.3366 96.282 30.4261 95.7259 30.4261 95.0909C30.4261 94.456 30.3366 93.9041 30.1577 93.4354C29.983 92.9666 29.723 92.6023 29.3778 92.3423C29.0369 92.0824 28.6172 91.9524 28.1186 91.9524C27.603 91.9524 27.1726 92.0866 26.8274 92.3551C26.4822 92.6236 26.2223 92.9943 26.0476 93.4673C25.8729 93.9403 25.7855 94.4815 25.7855 95.0909C25.7855 95.7045 25.8729 96.2521 26.0476 96.7337C26.2266 97.2109 26.4886 97.5881 26.8338 97.8651C27.1832 98.1378 27.6115 98.2741 28.1186 98.2741ZM39.7346 86.9091H42.6365L46.5229 96.3949H46.6763L50.5627 86.9091H53.4647V100H51.1891V91.0064H51.0676L47.4498 99.9616H45.7495L42.1316 90.9872H42.0101V100H39.7346V86.9091ZM62.2026 95.8707V90.1818H64.5165V100H62.2729V98.255H62.1706C61.949 98.8047 61.5847 99.2543 61.0776 99.6037C60.5748 99.9531 59.9547 100.128 59.2175 100.128C58.574 100.128 58.0051 99.9851 57.5108 99.6996C57.0208 99.4098 56.6373 98.9901 56.3603 98.4403C56.0833 97.8864 55.9448 97.2173 55.9448 96.4332V90.1818H58.2587V96.0753C58.2587 96.6974 58.4292 97.1918 58.7701 97.5582C59.111 97.9247 59.5584 98.108 60.1124 98.108C60.4533 98.108 60.7836 98.0249 61.1032 97.8587C61.4228 97.6925 61.6848 97.4453 61.8894 97.1172C62.0982 96.7848 62.2026 96.3693 62.2026 95.8707ZM69.2099 94.2472V100H66.896V90.1818H69.1076V91.8501H69.2227C69.4485 91.3004 69.8086 90.8636 70.3029 90.5398C70.8015 90.2159 71.4173 90.054 72.1502 90.054C72.8278 90.054 73.418 90.1989 73.9208 90.4886C74.4279 90.7784 74.82 91.1982 75.0969 91.7479C75.3782 92.2976 75.5167 92.9645 75.5124 93.7486V100H73.1985V94.1065C73.1985 93.4503 73.0281 92.9368 72.6871 92.5661C72.3505 92.1953 71.8839 92.0099 71.2873 92.0099C70.8825 92.0099 70.5224 92.0994 70.207 92.2784C69.896 92.4531 69.6509 92.7067 69.4719 93.0391C69.2972 93.3714 69.2099 93.7741 69.2099 94.2472ZM79.9741 96.919L79.9677 94.1257H80.3384L83.8668 90.1818H86.5707L82.2305 95.0142H81.7511L79.9741 96.919ZM77.8647 100V86.9091H80.1786V100H77.8647ZM84.0266 100L80.8306 95.532L82.3903 93.902L86.7944 100H84.0266ZM92.055 100.192C91.0707 100.192 90.2205 99.9872 89.5046 99.5781C88.793 99.1648 88.2454 98.581 87.8619 97.8267C87.4783 97.0682 87.2866 96.1754 87.2866 95.1484C87.2866 94.1385 87.4783 93.2521 87.8619 92.4893C88.2496 91.7223 88.7908 91.1257 89.4854 90.6996C90.18 90.2692 90.9961 90.054 91.9336 90.054C92.5387 90.054 93.1097 90.152 93.6467 90.348C94.1879 90.5398 94.6651 90.8381 95.0785 91.2429C95.4961 91.6477 95.8242 92.1634 96.0629 92.7898C96.3015 93.4119 96.4208 94.1534 96.4208 95.0142V95.7237H88.3732V94.1641H94.2028C94.1985 93.7209 94.1026 93.3267 93.9151 92.9815C93.7276 92.6321 93.4656 92.3572 93.1289 92.157C92.7965 91.9567 92.4087 91.8565 91.9656 91.8565C91.4925 91.8565 91.0771 91.9716 90.7191 92.2017C90.3612 92.4276 90.082 92.7259 89.8817 93.0966C89.6857 93.4631 89.5856 93.8658 89.5813 94.3047V95.6662C89.5813 96.2372 89.6857 96.7273 89.8945 97.1364C90.1033 97.5412 90.3952 97.8523 90.7702 98.0696C91.1452 98.2827 91.5842 98.3892 92.087 98.3892C92.4237 98.3892 92.7283 98.3423 93.0011 98.2486C93.2738 98.1506 93.5103 98.0078 93.7106 97.8203C93.9109 97.6328 94.0621 97.4006 94.1644 97.1236L96.3249 97.3665C96.1886 97.9375 95.9286 98.4361 95.5451 98.8622C95.1658 99.2841 94.68 99.6122 94.0877 99.8466C93.4954 100.077 92.8178 100.192 92.055 100.192ZM100.692 86.9091V100H98.3784V86.9091H100.692ZM104.51 103.682C104.195 103.682 103.903 103.656 103.634 103.605C103.37 103.558 103.159 103.503 103.001 103.439L103.538 101.636C103.875 101.734 104.175 101.781 104.44 101.777C104.704 101.773 104.936 101.69 105.136 101.528C105.341 101.37 105.513 101.106 105.654 100.735L105.852 100.205L102.292 90.1818H104.746L107.009 97.5966H107.112L109.381 90.1818H111.842L107.911 101.189C107.727 101.709 107.484 102.154 107.182 102.525C106.879 102.9 106.509 103.185 106.07 103.381C105.635 103.582 105.115 103.682 104.51 103.682ZM115.544 98.2102L115.461 98.9134C115.401 99.4503 115.295 99.9957 115.142 100.55C114.992 101.108 114.835 101.621 114.669 102.09C114.502 102.559 114.368 102.928 114.266 103.196H112.706C112.766 102.936 112.847 102.582 112.949 102.135C113.056 101.688 113.158 101.185 113.256 100.626C113.354 100.068 113.42 99.5014 113.454 98.9261L113.499 98.2102H115.544ZM122.197 103.682V90.1818H124.472V91.8054H124.607C124.726 91.5668 124.894 91.3132 125.112 91.0447C125.329 90.772 125.623 90.5398 125.994 90.348C126.364 90.152 126.837 90.054 127.413 90.054C128.171 90.054 128.855 90.2479 129.464 90.6357C130.078 91.0192 130.564 91.5881 130.922 92.3423C131.284 93.0923 131.465 94.0128 131.465 95.1037C131.465 96.1818 131.288 97.098 130.935 97.8523C130.581 98.6065 130.099 99.1818 129.49 99.5781C128.881 99.9744 128.19 100.173 127.419 100.173C126.857 100.173 126.39 100.079 126.019 99.8913C125.648 99.7038 125.35 99.478 125.124 99.2138C124.903 98.9453 124.73 98.6918 124.607 98.4531H124.511V103.682H122.197ZM124.466 95.0909C124.466 95.7259 124.555 96.282 124.734 96.7592C124.918 97.2365 125.18 97.6094 125.521 97.8778C125.866 98.142 126.283 98.2741 126.773 98.2741C127.285 98.2741 127.713 98.1378 128.058 97.8651C128.403 97.5881 128.663 97.2109 128.838 96.7337C129.017 96.2521 129.107 95.7045 129.107 95.0909C129.107 94.4815 129.019 93.9403 128.844 93.4673C128.67 92.9943 128.41 92.6236 128.065 92.3551C127.719 92.0866 127.289 91.9524 126.773 91.9524C126.279 91.9524 125.859 92.0824 125.514 92.3423C125.169 92.6023 124.907 92.9666 124.728 93.4354C124.553 93.9041 124.466 94.456 124.466 95.0909ZM136.272 100.198C135.65 100.198 135.089 100.087 134.591 99.8658C134.097 99.6399 133.705 99.3075 133.415 98.8686C133.129 98.4297 132.987 97.8885 132.987 97.245C132.987 96.6911 133.089 96.233 133.293 95.8707C133.498 95.5085 133.777 95.2188 134.131 95.0014C134.484 94.7841 134.883 94.62 135.326 94.5092C135.773 94.3942 136.236 94.3111 136.713 94.2599C137.288 94.2003 137.755 94.147 138.113 94.1001C138.471 94.049 138.731 93.9723 138.893 93.87C139.059 93.7635 139.142 93.5994 139.142 93.3778V93.3395C139.142 92.858 138.999 92.4851 138.714 92.2209C138.428 91.9567 138.017 91.8246 137.48 91.8246C136.913 91.8246 136.464 91.9482 136.131 92.1953C135.803 92.4425 135.582 92.7344 135.467 93.071L133.306 92.7642C133.477 92.1676 133.758 91.669 134.15 91.2685C134.542 90.8636 135.021 90.5611 135.588 90.3608C136.155 90.1562 136.781 90.054 137.467 90.054C137.94 90.054 138.411 90.1094 138.88 90.2202C139.349 90.331 139.777 90.5142 140.165 90.7699C140.553 91.0213 140.864 91.3643 141.098 91.799C141.337 92.2337 141.456 92.777 141.456 93.429V100H139.232V98.6513H139.155C139.014 98.924 138.816 99.1797 138.56 99.4183C138.309 99.6527 137.991 99.8423 137.608 99.9872C137.229 100.128 136.783 100.198 136.272 100.198ZM136.873 98.4979C137.337 98.4979 137.74 98.4062 138.081 98.223C138.422 98.0355 138.684 97.7884 138.867 97.4815C139.055 97.1747 139.148 96.8402 139.148 96.478V95.321C139.076 95.3807 138.952 95.4361 138.778 95.4872C138.607 95.5384 138.415 95.5831 138.202 95.6214C137.989 95.6598 137.778 95.6939 137.57 95.7237C137.361 95.7536 137.18 95.7791 137.026 95.8004C136.681 95.8473 136.372 95.924 136.099 96.0305C135.827 96.1371 135.612 96.2862 135.454 96.478C135.296 96.6655 135.217 96.9084 135.217 97.2067C135.217 97.6328 135.373 97.9545 135.684 98.1719C135.995 98.3892 136.391 98.4979 136.873 98.4979ZM137.57 89.1143C137.156 89.1143 136.779 89.0206 136.438 88.8331C136.102 88.6413 135.833 88.3857 135.633 88.0661C135.437 87.7464 135.339 87.3885 135.339 86.9922C135.339 86.5959 135.437 86.2337 135.633 85.9055C135.833 85.5774 136.102 85.3153 136.438 85.1193C136.779 84.9233 137.156 84.8253 137.57 84.8253C137.983 84.8253 138.358 84.9233 138.695 85.1193C139.031 85.3153 139.298 85.5774 139.494 85.9055C139.69 86.2337 139.788 86.5959 139.788 86.9922C139.788 87.3885 139.69 87.7464 139.494 88.0661C139.298 88.3857 139.031 88.6413 138.695 88.8331C138.358 89.0206 137.983 89.1143 137.57 89.1143ZM137.57 88.0277C137.881 88.0277 138.136 87.9233 138.337 87.7145C138.541 87.5014 138.643 87.2607 138.643 86.9922C138.643 86.7109 138.541 86.4616 138.337 86.2443C138.136 86.027 137.881 85.9205 137.57 85.9247C137.263 85.9247 137.007 86.0334 136.803 86.2507C136.598 86.4638 136.496 86.7109 136.496 86.9922C136.496 87.2607 136.598 87.5014 136.803 87.7145C137.007 87.9276 137.263 88.032 137.57 88.0277ZM155.464 90.5078C155.404 89.9496 155.153 89.5149 154.71 89.2038C154.271 88.8928 153.7 88.7372 152.997 88.7372C152.502 88.7372 152.078 88.8118 151.725 88.9609C151.371 89.1101 151.1 89.3125 150.913 89.5682C150.725 89.8239 150.63 90.1158 150.625 90.4439C150.625 90.7166 150.687 90.9531 150.811 91.1534C150.939 91.3537 151.111 91.5241 151.328 91.6648C151.546 91.8011 151.787 91.9162 152.051 92.0099C152.315 92.1037 152.581 92.1825 152.85 92.2464L154.077 92.5533C154.571 92.6683 155.047 92.8239 155.502 93.0199C155.963 93.2159 156.374 93.4631 156.736 93.7614C157.103 94.0597 157.392 94.4197 157.605 94.8416C157.819 95.2635 157.925 95.7578 157.925 96.3246C157.925 97.0916 157.729 97.767 157.337 98.3509C156.945 98.9304 156.378 99.3842 155.637 99.7124C154.9 100.036 154.007 100.198 152.958 100.198C151.94 100.198 151.056 100.04 150.306 99.7251C149.56 99.4098 148.976 98.9496 148.554 98.3445C148.137 97.7393 147.911 97.0021 147.877 96.1328H150.21C150.244 96.5888 150.385 96.968 150.632 97.2706C150.879 97.5732 151.201 97.799 151.597 97.9482C151.998 98.0973 152.445 98.1719 152.939 98.1719C153.455 98.1719 153.907 98.0952 154.294 97.9418C154.686 97.7841 154.993 97.5668 155.215 97.2898C155.436 97.0085 155.549 96.6804 155.554 96.3054C155.549 95.9645 155.449 95.6832 155.253 95.4616C155.057 95.2358 154.782 95.0483 154.429 94.8991C154.079 94.7457 153.67 94.6094 153.201 94.4901L151.712 94.1065C150.634 93.8295 149.782 93.4098 149.155 92.8473C148.533 92.2805 148.222 91.5284 148.222 90.5909C148.222 89.8196 148.431 89.1442 148.848 88.5646C149.27 87.9851 149.843 87.5355 150.568 87.2159C151.292 86.892 152.113 86.7301 153.029 86.7301C153.958 86.7301 154.772 86.892 155.471 87.2159C156.174 87.5355 156.725 87.9808 157.126 88.5518C157.527 89.1186 157.733 89.7706 157.746 90.5078H155.464ZM161.298 100.601L160.142 99.8082L167.128 89.6577L168.298 90.4503L161.298 100.601ZM164.22 100.205C163.261 100.205 162.43 99.9936 161.727 99.5717C161.024 99.1499 160.478 98.5597 160.09 97.8011C159.707 97.0384 159.515 96.152 159.515 95.142C159.515 94.1278 159.707 93.2393 160.09 92.4766C160.478 91.7138 161.024 91.1214 161.727 90.6996C162.43 90.2777 163.261 90.0668 164.22 90.0668C165.178 90.0668 166.009 90.2777 166.713 90.6996C167.416 91.1214 167.959 91.7138 168.343 92.4766C168.73 93.2393 168.924 94.1278 168.924 95.142C168.924 96.152 168.73 97.0384 168.343 97.8011C167.959 98.5597 167.416 99.1499 166.713 99.5717C166.009 99.9936 165.178 100.205 164.22 100.205ZM164.232 98.3509C164.752 98.3509 165.187 98.2081 165.536 97.9226C165.886 97.6328 166.146 97.245 166.316 96.7592C166.491 96.2734 166.578 95.7301 166.578 95.1293C166.578 94.5327 166.491 93.9915 166.316 93.5057C166.146 93.0156 165.886 92.6257 165.536 92.3359C165.187 92.0462 164.752 91.9013 164.232 91.9013C163.7 91.9013 163.257 92.0462 162.903 92.3359C162.553 92.6257 162.291 93.0156 162.117 93.5057C161.946 93.9915 161.861 94.5327 161.861 95.1293C161.861 95.7301 161.946 96.2734 162.117 96.7592C162.291 97.245 162.553 97.6328 162.903 97.9226C163.257 98.2081 163.7 98.3509 164.232 98.3509ZM170.99 100V86.9091H173.304V91.8054H173.4C173.52 91.5668 173.688 91.3132 173.905 91.0447C174.123 90.772 174.417 90.5398 174.787 90.348C175.158 90.152 175.631 90.054 176.206 90.054C176.965 90.054 177.649 90.2479 178.258 90.6357C178.872 91.0192 179.358 91.5881 179.716 92.3423C180.078 93.0923 180.259 94.0128 180.259 95.1037C180.259 96.1818 180.082 97.098 179.728 97.8523C179.375 98.6065 178.893 99.1818 178.284 99.5781C177.674 99.9744 176.984 100.173 176.213 100.173C175.65 100.173 175.184 100.079 174.813 99.8913C174.442 99.7038 174.144 99.478 173.918 99.2138C173.696 98.9453 173.524 98.6918 173.4 98.4531H173.266V100H170.99ZM173.26 95.0909C173.26 95.7259 173.349 96.282 173.528 96.7592C173.711 97.2365 173.973 97.6094 174.314 97.8778C174.659 98.142 175.077 98.2741 175.567 98.2741C176.078 98.2741 176.507 98.1378 176.852 97.8651C177.197 97.5881 177.457 97.2109 177.632 96.7337C177.811 96.2521 177.9 95.7045 177.9 95.0909C177.9 94.4815 177.813 93.9403 177.638 93.4673C177.463 92.9943 177.203 92.6236 176.858 92.3551C176.513 92.0866 176.083 91.9524 175.567 91.9524C175.073 91.9524 174.653 92.0824 174.308 92.3423C173.963 92.6023 173.701 92.9666 173.522 93.4354C173.347 93.9041 173.26 94.456 173.26 95.0909ZM186.509 100.192C185.55 100.192 184.719 99.9808 184.016 99.5589C183.313 99.1371 182.767 98.5469 182.379 97.7884C181.996 97.0298 181.804 96.1435 181.804 95.1293C181.804 94.1151 181.996 93.2266 182.379 92.4638C182.767 91.701 183.313 91.1087 184.016 90.6868C184.719 90.2649 185.55 90.054 186.509 90.054C187.468 90.054 188.298 90.2649 189.002 90.6868C189.705 91.1087 190.248 91.701 190.632 92.4638C191.019 93.2266 191.213 94.1151 191.213 95.1293C191.213 96.1435 191.019 97.0298 190.632 97.7884C190.248 98.5469 189.705 99.1371 189.002 99.5589C188.298 99.9808 187.468 100.192 186.509 100.192ZM186.521 98.3381C187.041 98.3381 187.476 98.1953 187.825 97.9098C188.175 97.62 188.435 97.2322 188.605 96.7464C188.78 96.2607 188.867 95.7195 188.867 95.1229C188.867 94.522 188.78 93.9787 188.605 93.4929C188.435 93.0028 188.175 92.6129 187.825 92.3232C187.476 92.0334 187.041 91.8885 186.521 91.8885C185.989 91.8885 185.546 92.0334 185.192 92.3232C184.843 92.6129 184.58 93.0028 184.406 93.4929C184.235 93.9787 184.15 94.522 184.15 95.1229C184.15 95.7195 184.235 96.2607 184.406 96.7464C184.58 97.2322 184.843 97.62 185.192 97.9098C185.546 98.1953 185.989 98.3381 186.521 98.3381ZM193.177 100V90.1818H195.421V91.8182H195.523C195.702 91.2514 196.009 90.8146 196.444 90.5078C196.882 90.1967 197.383 90.0412 197.946 90.0412C198.074 90.0412 198.216 90.0476 198.374 90.0604C198.536 90.0689 198.67 90.0838 198.777 90.1051V92.2337C198.679 92.1996 198.523 92.1697 198.31 92.1442C198.101 92.1143 197.899 92.0994 197.703 92.0994C197.281 92.0994 196.902 92.1911 196.565 92.3743C196.233 92.5533 195.971 92.8026 195.779 93.1222C195.587 93.4418 195.491 93.8104 195.491 94.228V100H193.177ZM204.18 103.886C203.349 103.886 202.635 103.773 202.038 103.548C201.442 103.326 200.962 103.028 200.6 102.653C200.238 102.278 199.986 101.862 199.846 101.406L201.93 100.901C202.023 101.093 202.16 101.283 202.339 101.47C202.518 101.662 202.758 101.82 203.061 101.943C203.368 102.071 203.753 102.135 204.218 102.135C204.874 102.135 205.417 101.975 205.848 101.656C206.278 101.34 206.493 100.82 206.493 100.096V98.2358H206.378C206.259 98.4744 206.084 98.7195 205.854 98.9709C205.628 99.2223 205.328 99.4332 204.953 99.6037C204.582 99.7741 204.116 99.8594 203.553 99.8594C202.799 99.8594 202.115 99.6825 201.501 99.3288C200.892 98.9709 200.406 98.4382 200.044 97.7308C199.686 97.0192 199.507 96.1286 199.507 95.0589C199.507 93.9808 199.686 93.071 200.044 92.3295C200.406 91.5838 200.894 91.0192 201.508 90.6357C202.121 90.2479 202.805 90.054 203.559 90.054C204.135 90.054 204.608 90.152 204.979 90.348C205.354 90.5398 205.652 90.772 205.873 91.0447C206.095 91.3132 206.263 91.5668 206.378 91.8054H206.506V90.1818H208.788V100.16C208.788 100.999 208.588 101.694 208.187 102.244C207.787 102.793 207.239 103.205 206.545 103.477C205.85 103.75 205.062 103.886 204.18 103.886ZM204.199 98.044C204.689 98.044 205.106 97.9247 205.452 97.6861C205.797 97.4474 206.059 97.1044 206.238 96.657C206.417 96.2095 206.506 95.6726 206.506 95.0462C206.506 94.4283 206.417 93.8871 206.238 93.4226C206.063 92.9581 205.803 92.598 205.458 92.3423C205.117 92.0824 204.697 91.9524 204.199 91.9524C203.683 91.9524 203.253 92.0866 202.907 92.3551C202.562 92.6236 202.302 92.9922 202.128 93.4609C201.953 93.9254 201.866 94.4538 201.866 95.0462C201.866 95.647 201.953 96.1733 202.128 96.625C202.307 97.0724 202.569 97.4219 202.914 97.6733C203.263 97.9205 203.692 98.044 204.199 98.044ZM1.29119 127V113.909H3.66264V119.451H9.72869V113.909H12.1065V127H9.72869V121.439H3.66264V127H1.29119ZM18.8661 127.192C17.9073 127.192 17.0763 126.981 16.3732 126.559C15.6701 126.137 15.1246 125.547 14.7369 124.788C14.3533 124.03 14.1616 123.143 14.1616 122.129C14.1616 121.115 14.3533 120.227 14.7369 119.464C15.1246 118.701 15.6701 118.109 16.3732 117.687C17.0763 117.265 17.9073 117.054 18.8661 117.054C19.8249 117.054 20.6559 117.265 21.359 117.687C22.0621 118.109 22.6055 118.701 22.989 119.464C23.3768 120.227 23.5707 121.115 23.5707 122.129C23.5707 123.143 23.3768 124.03 22.989 124.788C22.6055 125.547 22.0621 126.137 21.359 126.559C20.6559 126.981 19.8249 127.192 18.8661 127.192ZM18.8789 125.338C19.3988 125.338 19.8335 125.195 20.1829 124.91C20.5323 124.62 20.7923 124.232 20.9627 123.746C21.1374 123.261 21.2248 122.719 21.2248 122.123C21.2248 121.522 21.1374 120.979 20.9627 120.493C20.7923 120.003 20.5323 119.613 20.1829 119.323C19.8335 119.033 19.3988 118.888 18.8789 118.888C18.3462 118.888 17.9031 119.033 17.5494 119.323C17.1999 119.613 16.9379 120.003 16.7631 120.493C16.5927 120.979 16.5075 121.522 16.5075 122.123C16.5075 122.719 16.5927 123.261 16.7631 123.746C16.9379 124.232 17.1999 124.62 17.5494 124.91C17.9031 125.195 18.3462 125.338 18.8789 125.338ZM33.9705 117.182L30.4741 127H27.9173L24.4208 117.182H26.8881L29.1445 124.475H29.2468L31.5096 117.182H33.9705ZM39.5843 127.192C38.6 127.192 37.7498 126.987 37.0339 126.578C36.3223 126.165 35.7747 125.581 35.3912 124.827C35.0076 124.068 34.8159 123.175 34.8159 122.148C34.8159 121.138 35.0076 120.252 35.3912 119.489C35.7789 118.722 36.3201 118.126 37.0147 117.7C37.7093 117.269 38.5254 117.054 39.4629 117.054C40.068 117.054 40.639 117.152 41.176 117.348C41.7172 117.54 42.1944 117.838 42.6078 118.243C43.0254 118.648 43.3535 119.163 43.5922 119.79C43.8308 120.412 43.9501 121.153 43.9501 122.014V122.724H35.9025V121.164H41.7321C41.7278 120.721 41.6319 120.327 41.4444 119.982C41.2569 119.632 40.9949 119.357 40.6582 119.157C40.3258 118.957 39.938 118.857 39.4949 118.857C39.0218 118.857 38.6064 118.972 38.2484 119.202C37.8904 119.428 37.6113 119.726 37.411 120.097C37.215 120.463 37.1149 120.866 37.1106 121.305V122.666C37.1106 123.237 37.215 123.727 37.4238 124.136C37.6326 124.541 37.9245 124.852 38.2995 125.07C38.6745 125.283 39.1135 125.389 39.6163 125.389C39.9529 125.389 40.2576 125.342 40.5304 125.249C40.8031 125.151 41.0396 125.008 41.2399 124.82C41.4402 124.633 41.5914 124.401 41.6937 124.124L43.8542 124.366C43.7179 124.937 43.4579 125.436 43.0744 125.862C42.6951 126.284 42.2093 126.612 41.617 126.847C41.0247 127.077 40.3471 127.192 39.5843 127.192ZM49.5511 127.173C48.7798 127.173 48.0895 126.974 47.4801 126.578C46.8707 126.182 46.3892 125.607 46.0355 124.852C45.6818 124.098 45.505 123.182 45.505 122.104C45.505 121.013 45.6839 120.092 46.0419 119.342C46.4041 118.588 46.892 118.019 47.5057 117.636C48.1193 117.248 48.8033 117.054 49.5575 117.054C50.1328 117.054 50.6058 117.152 50.9766 117.348C51.3473 117.54 51.6413 117.772 51.8587 118.045C52.076 118.313 52.2443 118.567 52.3636 118.805H52.4595V113.909H54.7798V127H52.5043V125.453H52.3636C52.2443 125.692 52.0717 125.945 51.8459 126.214C51.62 126.478 51.3217 126.704 50.951 126.891C50.5803 127.079 50.1136 127.173 49.5511 127.173ZM50.1967 125.274C50.6868 125.274 51.1044 125.142 51.4496 124.878C51.7947 124.609 52.0568 124.237 52.2358 123.759C52.4148 123.282 52.5043 122.726 52.5043 122.091C52.5043 121.456 52.4148 120.904 52.2358 120.435C52.0611 119.967 51.8011 119.602 51.456 119.342C51.1151 119.082 50.6953 118.952 50.1967 118.952C49.6811 118.952 49.2507 119.087 48.9055 119.355C48.5604 119.624 48.3004 119.994 48.1257 120.467C47.951 120.94 47.8636 121.482 47.8636 122.091C47.8636 122.705 47.951 123.252 48.1257 123.734C48.3047 124.211 48.5668 124.588 48.9119 124.865C49.2614 125.138 49.6896 125.274 50.1967 125.274ZM61.5154 130.886C60.6845 130.886 59.9707 130.773 59.3741 130.548C58.7775 130.326 58.2981 130.028 57.9359 129.653C57.5737 129.278 57.3223 128.862 57.1816 128.406L59.2654 127.901C59.3592 128.093 59.4956 128.283 59.6745 128.47C59.8535 128.662 60.0943 128.82 60.3968 128.943C60.7037 129.071 61.0893 129.135 61.5538 129.135C62.2101 129.135 62.7534 128.975 63.1838 128.656C63.6142 128.34 63.8294 127.82 63.8294 127.096V125.236H63.7143C63.595 125.474 63.4203 125.719 63.1902 125.971C62.9643 126.222 62.6639 126.433 62.2889 126.604C61.9181 126.774 61.4515 126.859 60.889 126.859C60.1348 126.859 59.4508 126.683 58.8372 126.329C58.2278 125.971 57.742 125.438 57.3798 124.731C57.0218 124.019 56.8429 123.129 56.8429 122.059C56.8429 120.981 57.0218 120.071 57.3798 119.33C57.742 118.584 58.2299 118.019 58.8436 117.636C59.4572 117.248 60.1412 117.054 60.8954 117.054C61.4707 117.054 61.9437 117.152 62.3145 117.348C62.6895 117.54 62.9877 117.772 63.2093 118.045C63.4309 118.313 63.5993 118.567 63.7143 118.805H63.8422V117.182H66.1241V127.16C66.1241 127.999 65.9238 128.694 65.5233 129.244C65.1227 129.793 64.5751 130.205 63.8805 130.477C63.1859 130.75 62.3976 130.886 61.5154 130.886ZM61.5346 125.044C62.0247 125.044 62.4423 124.925 62.7875 124.686C63.1326 124.447 63.3947 124.104 63.5737 123.657C63.7527 123.21 63.8422 122.673 63.8422 122.046C63.8422 121.428 63.7527 120.887 63.5737 120.423C63.399 119.958 63.139 119.598 62.7939 119.342C62.4529 119.082 62.0332 118.952 61.5346 118.952C61.019 118.952 60.5886 119.087 60.2434 119.355C59.8983 119.624 59.6383 119.992 59.4636 120.461C59.2889 120.925 59.2015 121.454 59.2015 122.046C59.2015 122.647 59.2889 123.173 59.4636 123.625C59.6426 124.072 59.9047 124.422 60.2498 124.673C60.5993 124.92 61.0275 125.044 61.5346 125.044ZM71.3208 127.198C70.6987 127.198 70.1383 127.087 69.6397 126.866C69.1454 126.64 68.7534 126.308 68.4636 125.869C68.1781 125.43 68.0353 124.888 68.0353 124.245C68.0353 123.691 68.1376 123.233 68.3422 122.871C68.5467 122.509 68.8258 122.219 69.1795 122.001C69.5332 121.784 69.9316 121.62 70.3748 121.509C70.8223 121.394 71.2846 121.311 71.7619 121.26C72.3372 121.2 72.8038 121.147 73.1618 121.1C73.5197 121.049 73.7797 120.972 73.9416 120.87C74.1078 120.763 74.1909 120.599 74.1909 120.378V120.339C74.1909 119.858 74.0481 119.485 73.7626 119.221C73.4771 118.957 73.0659 118.825 72.5289 118.825C71.9622 118.825 71.5126 118.948 71.1802 119.195C70.8521 119.442 70.6305 119.734 70.5154 120.071L68.3549 119.764C68.5254 119.168 68.8066 118.669 69.1987 118.268C69.5907 117.864 70.0701 117.561 70.6369 117.361C71.2037 117.156 71.8301 117.054 72.5162 117.054C72.9892 117.054 73.4601 117.109 73.9288 117.22C74.3976 117.331 74.8258 117.514 75.2136 117.77C75.6014 118.021 75.9125 118.364 76.1468 118.799C76.3855 119.234 76.5048 119.777 76.5048 120.429V127H74.2804V125.651H74.2037C74.063 125.924 73.8649 126.18 73.6092 126.418C73.3578 126.653 73.0403 126.842 72.6568 126.987C72.2775 127.128 71.8322 127.198 71.3208 127.198ZM71.9217 125.498C72.3862 125.498 72.7889 125.406 73.1298 125.223C73.4707 125.036 73.7328 124.788 73.916 124.482C74.1035 124.175 74.1973 123.84 74.1973 123.478V122.321C74.1248 122.381 74.0012 122.436 73.8265 122.487C73.6561 122.538 73.4643 122.583 73.2512 122.621C73.0382 122.66 72.8272 122.694 72.6184 122.724C72.4096 122.754 72.2285 122.779 72.0751 122.8C71.7299 122.847 71.421 122.924 71.1483 123.031C70.8755 123.137 70.6603 123.286 70.5027 123.478C70.345 123.665 70.2662 123.908 70.2662 124.207C70.2662 124.633 70.4217 124.955 70.7328 125.172C71.0439 125.389 71.4402 125.498 71.9217 125.498ZM82.475 127.173C81.7037 127.173 81.0133 126.974 80.4039 126.578C79.7946 126.182 79.313 125.607 78.9593 124.852C78.6056 124.098 78.4288 123.182 78.4288 122.104C78.4288 121.013 78.6078 120.092 78.9657 119.342C79.3279 118.588 79.8159 118.019 80.4295 117.636C81.0431 117.248 81.7271 117.054 82.4814 117.054C83.0566 117.054 83.5297 117.152 83.9004 117.348C84.2711 117.54 84.5652 117.772 84.7825 118.045C84.9998 118.313 85.1681 118.567 85.2875 118.805H85.3833V113.909H87.7037V127H85.4281V125.453H85.2875C85.1681 125.692 84.9956 125.945 84.7697 126.214C84.5439 126.478 84.2456 126.704 83.8748 126.891C83.5041 127.079 83.0375 127.173 82.475 127.173ZM83.1206 125.274C83.6106 125.274 84.0282 125.142 84.3734 124.878C84.7186 124.609 84.9806 124.237 85.1596 123.759C85.3386 123.282 85.4281 122.726 85.4281 122.091C85.4281 121.456 85.3386 120.904 85.1596 120.435C84.9849 119.967 84.725 119.602 84.3798 119.342C84.0389 119.082 83.6191 118.952 83.1206 118.952C82.6049 118.952 82.1745 119.087 81.8294 119.355C81.4842 119.624 81.2243 119.994 81.0495 120.467C80.8748 120.94 80.7875 121.482 80.7875 122.091C80.7875 122.705 80.8748 123.252 81.0495 123.734C81.2285 124.211 81.4906 124.588 81.8358 124.865C82.1852 125.138 82.6135 125.274 83.1206 125.274ZM94.516 127.192C93.5316 127.192 92.6815 126.987 91.9656 126.578C91.2539 126.165 90.7063 125.581 90.3228 124.827C89.9393 124.068 89.7475 123.175 89.7475 122.148C89.7475 121.138 89.9393 120.252 90.3228 119.489C90.7106 118.722 91.2518 118.126 91.9464 117.7C92.641 117.269 93.457 117.054 94.3945 117.054C94.9996 117.054 95.5707 117.152 96.1076 117.348C96.6488 117.54 97.1261 117.838 97.5394 118.243C97.957 118.648 98.2852 119.163 98.5238 119.79C98.7624 120.412 98.8817 121.153 98.8817 122.014V122.724H90.8342V121.164H96.6637C96.6594 120.721 96.5636 120.327 96.3761 119.982C96.1886 119.632 95.9265 119.357 95.5898 119.157C95.2575 118.957 94.8697 118.857 94.4265 118.857C93.9535 118.857 93.538 118.972 93.18 119.202C92.8221 119.428 92.543 119.726 92.3427 120.097C92.1467 120.463 92.0465 120.866 92.0423 121.305V122.666C92.0423 123.237 92.1467 123.727 92.3555 124.136C92.5643 124.541 92.8562 124.852 93.2312 125.07C93.6062 125.283 94.0451 125.389 94.5479 125.389C94.8846 125.389 95.1893 125.342 95.462 125.249C95.7347 125.151 95.9712 125.008 96.1715 124.82C96.3718 124.633 96.5231 124.401 96.6254 124.124L98.7859 124.366C98.6495 124.937 98.3896 125.436 98.006 125.862C97.6268 126.284 97.141 126.612 96.5487 126.847C95.9563 127.077 95.2788 127.192 94.516 127.192ZM109.651 127.192C108.666 127.192 107.816 126.987 107.1 126.578C106.389 126.165 105.841 125.581 105.458 124.827C105.074 124.068 104.882 123.175 104.882 122.148C104.882 121.138 105.074 120.252 105.458 119.489C105.845 118.722 106.387 118.126 107.081 117.7C107.776 117.269 108.592 117.054 109.529 117.054C110.134 117.054 110.705 117.152 111.242 117.348C111.784 117.54 112.261 117.838 112.674 118.243C113.092 118.648 113.42 119.163 113.659 119.79C113.897 120.412 114.017 121.153 114.017 122.014V122.724H105.969V121.164H111.798C111.794 120.721 111.698 120.327 111.511 119.982C111.323 119.632 111.061 119.357 110.725 119.157C110.392 118.957 110.004 118.857 109.561 118.857C109.088 118.857 108.673 118.972 108.315 119.202C107.957 119.428 107.678 119.726 107.477 120.097C107.281 120.463 107.181 120.866 107.177 121.305V122.666C107.177 123.237 107.281 123.727 107.49 124.136C107.699 124.541 107.991 124.852 108.366 125.07C108.741 125.283 109.18 125.389 109.683 125.389C110.019 125.389 110.324 125.342 110.597 125.249C110.869 125.151 111.106 125.008 111.306 124.82C111.507 124.633 111.658 124.401 111.76 124.124L113.921 124.366C113.784 124.937 113.524 125.436 113.141 125.862C112.762 126.284 112.276 126.612 111.683 126.847C111.091 127.077 110.414 127.192 109.651 127.192ZM118.288 113.909V127H115.974V113.909H118.288ZM122.981 113.909V127H120.667V113.909H122.981ZM129.707 127.192C128.723 127.192 127.873 126.987 127.157 126.578C126.445 126.165 125.898 125.581 125.514 124.827C125.131 124.068 124.939 123.175 124.939 122.148C124.939 121.138 125.131 120.252 125.514 119.489C125.902 118.722 126.443 118.126 127.138 117.7C127.832 117.269 128.648 117.054 129.586 117.054C130.191 117.054 130.762 117.152 131.299 117.348C131.84 117.54 132.317 117.838 132.731 118.243C133.148 118.648 133.477 119.163 133.715 119.79C133.954 120.412 134.073 121.153 134.073 122.014V122.724H126.026V121.164H131.855C131.851 120.721 131.755 120.327 131.567 119.982C131.38 119.632 131.118 119.357 130.781 119.157C130.449 118.957 130.061 118.857 129.618 118.857C129.145 118.857 128.729 118.972 128.371 119.202C128.013 119.428 127.734 119.726 127.534 120.097C127.338 120.463 127.238 120.866 127.234 121.305V122.666C127.234 123.237 127.338 123.727 127.547 124.136C127.756 124.541 128.048 124.852 128.423 125.07C128.798 125.283 129.237 125.389 129.739 125.389C130.076 125.389 130.381 125.342 130.653 125.249C130.926 125.151 131.163 125.008 131.363 124.82C131.563 124.633 131.714 124.401 131.817 124.124L133.977 124.366C133.841 124.937 133.581 125.436 133.197 125.862C132.818 126.284 132.332 126.612 131.74 126.847C131.148 127.077 130.47 127.192 129.707 127.192ZM136.031 127V117.182H138.274V118.818H138.377C138.556 118.251 138.862 117.815 139.297 117.508C139.736 117.197 140.237 117.041 140.799 117.041C140.927 117.041 141.07 117.048 141.227 117.06C141.389 117.069 141.524 117.084 141.63 117.105V119.234C141.532 119.2 141.377 119.17 141.164 119.144C140.955 119.114 140.752 119.099 140.556 119.099C140.134 119.099 139.755 119.191 139.419 119.374C139.086 119.553 138.824 119.803 138.632 120.122C138.441 120.442 138.345 120.81 138.345 121.228V127H136.031ZM156.402 117.182L152.906 127H150.349L146.852 117.182H149.32L151.576 124.475H151.678L153.941 117.182H156.402ZM162.016 127.192C161.032 127.192 160.181 126.987 159.466 126.578C158.754 126.165 158.206 125.581 157.823 124.827C157.439 124.068 157.248 123.175 157.248 122.148C157.248 121.138 157.439 120.252 157.823 119.489C158.211 118.722 158.752 118.126 159.446 117.7C160.141 117.269 160.957 117.054 161.895 117.054C162.5 117.054 163.071 117.152 163.608 117.348C164.149 117.54 164.626 117.838 165.039 118.243C165.457 118.648 165.785 119.163 166.024 119.79C166.262 120.412 166.382 121.153 166.382 122.014V122.724H158.334V121.164H164.164C164.159 120.721 164.064 120.327 163.876 119.982C163.689 119.632 163.426 119.357 163.09 119.157C162.757 118.957 162.37 118.857 161.926 118.857C161.453 118.857 161.038 118.972 160.68 119.202C160.322 119.428 160.043 119.726 159.843 120.097C159.647 120.463 159.547 120.866 159.542 121.305V122.666C159.542 123.237 159.647 123.727 159.855 124.136C160.064 124.541 160.356 124.852 160.731 125.07C161.106 125.283 161.545 125.389 162.048 125.389C162.385 125.389 162.689 125.342 162.962 125.249C163.235 125.151 163.471 125.008 163.672 124.82C163.872 124.633 164.023 124.401 164.125 124.124L166.286 124.366C166.15 124.937 165.89 125.436 165.506 125.862C165.127 126.284 164.641 126.612 164.049 126.847C163.456 127.077 162.779 127.192 162.016 127.192ZM171.983 127.173C171.211 127.173 170.521 126.974 169.912 126.578C169.302 126.182 168.821 125.607 168.467 124.852C168.113 124.098 167.937 123.182 167.937 122.104C167.937 121.013 168.116 120.092 168.474 119.342C168.836 118.588 169.324 118.019 169.937 117.636C170.551 117.248 171.235 117.054 171.989 117.054C172.564 117.054 173.037 117.152 173.408 117.348C173.779 117.54 174.073 117.772 174.29 118.045C174.508 118.313 174.676 118.567 174.795 118.805H174.891V113.909H177.211V127H174.936V125.453H174.795C174.676 125.692 174.503 125.945 174.278 126.214C174.052 126.478 173.753 126.704 173.383 126.891C173.012 127.079 172.545 127.173 171.983 127.173ZM172.628 125.274C173.118 125.274 173.536 125.142 173.881 124.878C174.226 124.609 174.488 124.237 174.667 123.759C174.846 123.282 174.936 122.726 174.936 122.091C174.936 121.456 174.846 120.904 174.667 120.435C174.493 119.967 174.233 119.602 173.888 119.342C173.547 119.082 173.127 118.952 172.628 118.952C172.113 118.952 171.682 119.087 171.337 119.355C170.992 119.624 170.732 119.994 170.557 120.467C170.383 120.94 170.295 121.482 170.295 122.091C170.295 122.705 170.383 123.252 170.557 123.734C170.736 124.211 170.998 124.588 171.344 124.865C171.693 125.138 172.121 125.274 172.628 125.274ZM184.142 130.682V117.182H186.418V118.805H186.552C186.671 118.567 186.839 118.313 187.057 118.045C187.274 117.772 187.568 117.54 187.939 117.348C188.31 117.152 188.783 117.054 189.358 117.054C190.116 117.054 190.8 117.248 191.41 117.636C192.023 118.019 192.509 118.588 192.867 119.342C193.229 120.092 193.411 121.013 193.411 122.104C193.411 123.182 193.234 124.098 192.88 124.852C192.526 125.607 192.045 126.182 191.435 126.578C190.826 126.974 190.136 127.173 189.364 127.173C188.802 127.173 188.335 127.079 187.964 126.891C187.594 126.704 187.295 126.478 187.07 126.214C186.848 125.945 186.675 125.692 186.552 125.453H186.456V130.682H184.142ZM186.411 122.091C186.411 122.726 186.501 123.282 186.68 123.759C186.863 124.237 187.125 124.609 187.466 124.878C187.811 125.142 188.229 125.274 188.719 125.274C189.23 125.274 189.658 125.138 190.004 124.865C190.349 124.588 190.609 124.211 190.783 123.734C190.962 123.252 191.052 122.705 191.052 122.091C191.052 121.482 190.964 120.94 190.79 120.467C190.615 119.994 190.355 119.624 190.01 119.355C189.665 119.087 189.234 118.952 188.719 118.952C188.224 118.952 187.805 119.082 187.46 119.342C187.114 119.602 186.852 119.967 186.673 120.435C186.499 120.904 186.411 121.456 186.411 122.091ZM201.343 120.595V122.5H195.45V120.595H201.343ZM203.777 130.682V117.182H206.052V118.805H206.187C206.306 118.567 206.474 118.313 206.692 118.045C206.909 117.772 207.203 117.54 207.574 117.348C207.944 117.152 208.417 117.054 208.993 117.054C209.751 117.054 210.435 117.248 211.045 117.636C211.658 118.019 212.144 118.588 212.502 119.342C212.864 120.092 213.045 121.013 213.045 122.104C213.045 123.182 212.868 124.098 212.515 124.852C212.161 125.607 211.68 126.182 211.07 126.578C210.461 126.974 209.77 127.173 208.999 127.173C208.437 127.173 207.97 127.079 207.599 126.891C207.229 126.704 206.93 126.478 206.704 126.214C206.483 125.945 206.31 125.692 206.187 125.453H206.091V130.682H203.777ZM206.046 122.091C206.046 122.726 206.135 123.282 206.314 123.759C206.498 124.237 206.76 124.609 207.101 124.878C207.446 125.142 207.863 125.274 208.354 125.274C208.865 125.274 209.293 125.138 209.638 124.865C209.983 124.588 210.243 124.211 210.418 123.734C210.597 123.252 210.687 122.705 210.687 122.091C210.687 121.482 210.599 120.94 210.425 120.467C210.25 119.994 209.99 119.624 209.645 119.355C209.3 119.087 208.869 118.952 208.354 118.952C207.859 118.952 207.439 119.082 207.094 119.342C206.749 119.602 206.487 119.967 206.308 120.435C206.133 120.904 206.046 121.456 206.046 122.091ZM217.341 113.909V127H215.027V113.909H217.341ZM222.545 127.198C221.923 127.198 221.363 127.087 220.864 126.866C220.37 126.64 219.978 126.308 219.688 125.869C219.403 125.43 219.26 124.888 219.26 124.245C219.26 123.691 219.362 123.233 219.567 122.871C219.771 122.509 220.05 122.219 220.404 122.001C220.758 121.784 221.156 121.62 221.599 121.509C222.047 121.394 222.509 121.311 222.987 121.26C223.562 121.2 224.028 121.147 224.386 121.1C224.744 121.049 225.004 120.972 225.166 120.87C225.332 120.763 225.415 120.599 225.415 120.378V120.339C225.415 119.858 225.273 119.485 224.987 119.221C224.702 118.957 224.29 118.825 223.754 118.825C223.187 118.825 222.737 118.948 222.405 119.195C222.077 119.442 221.855 119.734 221.74 120.071L219.58 119.764C219.75 119.168 220.031 118.669 220.423 118.268C220.815 117.864 221.295 117.561 221.862 117.361C222.428 117.156 223.055 117.054 223.741 117.054C224.214 117.054 224.685 117.109 225.153 117.22C225.622 117.331 226.05 117.514 226.438 117.77C226.826 118.021 227.137 118.364 227.371 118.799C227.61 119.234 227.729 119.777 227.729 120.429V127H225.505V125.651H225.428C225.288 125.924 225.089 126.18 224.834 126.418C224.582 126.653 224.265 126.842 223.881 126.987C223.502 127.128 223.057 127.198 222.545 127.198ZM223.146 125.498C223.611 125.498 224.013 125.406 224.354 125.223C224.695 125.036 224.957 124.788 225.141 124.482C225.328 124.175 225.422 123.84 225.422 123.478V122.321C225.349 122.381 225.226 122.436 225.051 122.487C224.881 122.538 224.689 122.583 224.476 122.621C224.263 122.66 224.052 122.694 223.843 122.724C223.634 122.754 223.453 122.779 223.3 122.8C222.955 122.847 222.646 122.924 222.373 123.031C222.1 123.137 221.885 123.286 221.727 123.478C221.57 123.665 221.491 123.908 221.491 124.207C221.491 124.633 221.646 124.955 221.957 125.172C222.268 125.389 222.665 125.498 223.146 125.498ZM233.7 127.173C232.928 127.173 232.238 126.974 231.629 126.578C231.019 126.182 230.538 125.607 230.184 124.852C229.83 124.098 229.653 123.182 229.653 122.104C229.653 121.013 229.832 120.092 230.19 119.342C230.553 118.588 231.04 118.019 231.654 117.636C232.268 117.248 232.952 117.054 233.706 117.054C234.281 117.054 234.754 117.152 235.125 117.348C235.496 117.54 235.79 117.772 236.007 118.045C236.224 118.313 236.393 118.567 236.512 118.805H236.608V113.909H238.928V127H236.653V125.453H236.512C236.393 125.692 236.22 125.945 235.994 126.214C235.768 126.478 235.47 126.704 235.099 126.891C234.729 127.079 234.262 127.173 233.7 127.173ZM234.345 125.274C234.835 125.274 235.253 125.142 235.598 124.878C235.943 124.609 236.205 124.237 236.384 123.759C236.563 123.282 236.653 122.726 236.653 122.091C236.653 121.456 236.563 120.904 236.384 120.435C236.21 119.967 235.95 119.602 235.604 119.342C235.263 119.082 234.844 118.952 234.345 118.952C233.83 118.952 233.399 119.087 233.054 119.355C232.709 119.624 232.449 119.994 232.274 120.467C232.099 120.94 232.012 121.482 232.012 122.091C232.012 122.705 232.099 123.252 232.274 123.734C232.453 124.211 232.715 124.588 233.06 124.865C233.41 125.138 233.838 125.274 234.345 125.274ZM249.154 119.777L247.045 120.007C246.985 119.794 246.881 119.594 246.731 119.406C246.586 119.219 246.39 119.067 246.143 118.952C245.896 118.837 245.594 118.78 245.236 118.78C244.754 118.78 244.349 118.884 244.021 119.093C243.697 119.302 243.537 119.572 243.542 119.905C243.537 120.19 243.642 120.423 243.855 120.602C244.072 120.781 244.43 120.928 244.929 121.043L246.604 121.401C247.532 121.601 248.223 121.918 248.675 122.353C249.131 122.788 249.361 123.357 249.365 124.06C249.361 124.678 249.18 125.223 248.822 125.696C248.468 126.165 247.976 126.531 247.345 126.795C246.714 127.06 245.99 127.192 245.172 127.192C243.97 127.192 243.003 126.94 242.27 126.438C241.537 125.93 241.1 125.225 240.959 124.322L243.216 124.104C243.318 124.548 243.535 124.882 243.868 125.108C244.2 125.334 244.633 125.447 245.165 125.447C245.715 125.447 246.156 125.334 246.488 125.108C246.825 124.882 246.993 124.603 246.993 124.271C246.993 123.989 246.885 123.757 246.667 123.574C246.454 123.391 246.122 123.25 245.67 123.152L243.996 122.8C243.054 122.604 242.357 122.274 241.905 121.81C241.454 121.341 241.23 120.749 241.234 120.033C241.23 119.428 241.394 118.903 241.726 118.46C242.063 118.013 242.53 117.668 243.126 117.425C243.727 117.178 244.42 117.054 245.204 117.054C246.354 117.054 247.26 117.299 247.92 117.789C248.585 118.279 248.996 118.942 249.154 119.777ZM255.619 127.192C254.635 127.192 253.785 126.987 253.069 126.578C252.357 126.165 251.81 125.581 251.426 124.827C251.043 124.068 250.851 123.175 250.851 122.148C250.851 121.138 251.043 120.252 251.426 119.489C251.814 118.722 252.355 118.126 253.05 117.7C253.744 117.269 254.561 117.054 255.498 117.054C256.103 117.054 256.674 117.152 257.211 117.348C257.752 117.54 258.23 117.838 258.643 118.243C259.061 118.648 259.389 119.163 259.627 119.79C259.866 120.412 259.985 121.153 259.985 122.014V122.724H251.938V121.164H257.767C257.763 120.721 257.667 120.327 257.48 119.982C257.292 119.632 257.03 119.357 256.693 119.157C256.361 118.957 255.973 118.857 255.53 118.857C255.057 118.857 254.642 118.972 254.284 119.202C253.926 119.428 253.646 119.726 253.446 120.097C253.25 120.463 253.15 120.866 253.146 121.305V122.666C253.146 123.237 253.25 123.727 253.459 124.136C253.668 124.541 253.96 124.852 254.335 125.07C254.71 125.283 255.149 125.389 255.651 125.389C255.988 125.389 256.293 125.342 256.566 125.249C256.838 125.151 257.075 125.008 257.275 124.82C257.475 124.633 257.627 124.401 257.729 124.124L259.889 124.366C259.753 124.937 259.493 125.436 259.11 125.862C258.73 126.284 258.244 126.612 257.652 126.847C257.06 127.077 256.382 127.192 255.619 127.192ZM264.257 121.247V127H261.943V117.182H264.154V118.85H264.27C264.495 118.3 264.855 117.864 265.35 117.54C265.848 117.216 266.464 117.054 267.197 117.054C267.875 117.054 268.465 117.199 268.968 117.489C269.475 117.778 269.867 118.198 270.144 118.748C270.425 119.298 270.564 119.964 270.559 120.749V127H268.245V121.107C268.245 120.45 268.075 119.937 267.734 119.566C267.397 119.195 266.931 119.01 266.334 119.01C265.929 119.01 265.569 119.099 265.254 119.278C264.943 119.453 264.698 119.707 264.519 120.039C264.344 120.371 264.257 120.774 264.257 121.247ZM1.18892 157.682V144.182H3.46449V145.805H3.59872C3.71804 145.567 3.88636 145.313 4.10369 145.045C4.32102 144.772 4.61506 144.54 4.9858 144.348C5.35653 144.152 5.82955 144.054 6.40483 144.054C7.16335 144.054 7.8473 144.248 8.45668 144.636C9.07031 145.019 9.55611 145.588 9.91406 146.342C10.2763 147.092 10.4574 148.013 10.4574 149.104C10.4574 150.182 10.2805 151.098 9.92685 151.852C9.57315 152.607 9.09162 153.182 8.48224 153.578C7.87287 153.974 7.18253 154.173 6.41122 154.173C5.84872 154.173 5.3821 154.079 5.01136 153.891C4.64063 153.704 4.34233 153.478 4.11648 153.214C3.89489 152.945 3.7223 152.692 3.59872 152.453H3.50284V157.682H1.18892ZM3.4581 149.091C3.4581 149.726 3.54759 150.282 3.72656 150.759C3.9098 151.237 4.17188 151.609 4.51278 151.878C4.85795 152.142 5.27557 152.274 5.76562 152.274C6.27699 152.274 6.70526 152.138 7.05043 151.865C7.3956 151.588 7.65554 151.211 7.83026 150.734C8.00923 150.252 8.09872 149.705 8.09872 149.091C8.09872 148.482 8.01136 147.94 7.83665 147.467C7.66193 146.994 7.40199 146.624 7.05682 146.355C6.71165 146.087 6.28125 145.952 5.76562 145.952C5.27131 145.952 4.85156 146.082 4.50639 146.342C4.16122 146.602 3.89915 146.967 3.72017 147.435C3.54545 147.904 3.4581 148.456 3.4581 149.091ZM15.2642 154.198C14.642 154.198 14.0817 154.087 13.5831 153.866C13.0888 153.64 12.6967 153.308 12.407 152.869C12.1214 152.43 11.9787 151.888 11.9787 151.245C11.9787 150.691 12.081 150.233 12.2855 149.871C12.4901 149.509 12.7692 149.219 13.1229 149.001C13.4766 148.784 13.875 148.62 14.3182 148.509C14.7656 148.394 15.228 148.311 15.7053 148.26C16.2805 148.2 16.7472 148.147 17.1051 148.1C17.4631 148.049 17.723 147.972 17.8849 147.87C18.0511 147.763 18.1342 147.599 18.1342 147.378V147.339C18.1342 146.858 17.9915 146.485 17.706 146.221C17.4205 145.957 17.0092 145.825 16.4723 145.825C15.9055 145.825 15.456 145.948 15.1236 146.195C14.7955 146.442 14.5739 146.734 14.4588 147.071L12.2983 146.764C12.4688 146.168 12.75 145.669 13.142 145.268C13.5341 144.864 14.0135 144.561 14.5803 144.361C15.147 144.156 15.7734 144.054 16.4595 144.054C16.9325 144.054 17.4034 144.109 17.8722 144.22C18.3409 144.331 18.7692 144.514 19.157 144.77C19.5447 145.021 19.8558 145.364 20.0902 145.799C20.3288 146.234 20.4482 146.777 20.4482 147.429V154H18.2237V152.651H18.147C18.0064 152.924 17.8082 153.18 17.5526 153.418C17.3011 153.653 16.9837 153.842 16.6001 153.987C16.2209 154.128 15.7756 154.198 15.2642 154.198ZM15.8651 152.498C16.3295 152.498 16.7322 152.406 17.0732 152.223C17.4141 152.036 17.6761 151.788 17.8594 151.482C18.0469 151.175 18.1406 150.84 18.1406 150.478V149.321C18.0682 149.381 17.9446 149.436 17.7699 149.487C17.5994 149.538 17.4077 149.583 17.1946 149.621C16.9815 149.66 16.7706 149.694 16.5618 149.724C16.353 149.754 16.1719 149.779 16.0185 149.8C15.6733 149.847 15.3643 149.924 15.0916 150.031C14.8189 150.137 14.6037 150.286 14.446 150.478C14.2884 150.665 14.2095 150.908 14.2095 151.207C14.2095 151.633 14.3651 151.955 14.6761 152.172C14.9872 152.389 15.3835 152.498 15.8651 152.498ZM16.5618 143.114C16.1484 143.114 15.7713 143.021 15.4304 142.833C15.0938 142.641 14.8253 142.386 14.625 142.066C14.429 141.746 14.331 141.388 14.331 140.992C14.331 140.596 14.429 140.234 14.625 139.906C14.8253 139.577 15.0938 139.315 15.4304 139.119C15.7713 138.923 16.1484 138.825 16.5618 138.825C16.9751 138.825 17.3501 138.923 17.6868 139.119C18.0234 139.315 18.2898 139.577 18.4858 139.906C18.6818 140.234 18.7798 140.596 18.7798 140.992C18.7798 141.388 18.6818 141.746 18.4858 142.066C18.2898 142.386 18.0234 142.641 17.6868 142.833C17.3501 143.021 16.9751 143.114 16.5618 143.114ZM16.5618 142.028C16.8729 142.028 17.1286 141.923 17.3288 141.714C17.5334 141.501 17.6357 141.261 17.6357 140.992C17.6357 140.711 17.5334 140.462 17.3288 140.244C17.1286 140.027 16.8729 139.92 16.5618 139.925C16.255 139.925 15.9993 140.033 15.7947 140.251C15.5902 140.464 15.4879 140.711 15.4879 140.992C15.4879 141.261 15.5902 141.501 15.7947 141.714C15.9993 141.928 16.255 142.032 16.5618 142.028ZM34.4563 144.508C34.3967 143.95 34.1452 143.515 33.7021 143.204C33.2631 142.893 32.6921 142.737 31.989 142.737C31.4947 142.737 31.0707 142.812 30.717 142.961C30.3633 143.11 30.0927 143.312 29.9052 143.568C29.7177 143.824 29.6218 144.116 29.6175 144.444C29.6175 144.717 29.6793 144.953 29.8029 145.153C29.9308 145.354 30.1033 145.524 30.3207 145.665C30.538 145.801 30.7788 145.916 31.043 146.01C31.3072 146.104 31.5735 146.183 31.842 146.246L33.0692 146.553C33.5636 146.668 34.0387 146.824 34.4947 147.02C34.9549 147.216 35.3661 147.463 35.7283 147.761C36.0948 148.06 36.3846 148.42 36.5977 148.842C36.8107 149.263 36.9173 149.758 36.9173 150.325C36.9173 151.092 36.7212 151.767 36.3292 152.351C35.9371 152.93 35.3704 153.384 34.6289 153.712C33.8917 154.036 32.9989 154.198 31.9506 154.198C30.9322 154.198 30.0479 154.04 29.2979 153.725C28.5522 153.41 27.9684 152.95 27.5465 152.344C27.1289 151.739 26.9031 151.002 26.869 150.133H29.2021C29.2362 150.589 29.3768 150.968 29.6239 151.271C29.8711 151.573 30.1928 151.799 30.5891 151.948C30.9897 152.097 31.4371 152.172 31.9315 152.172C32.4471 152.172 32.8988 152.095 33.2866 151.942C33.6786 151.784 33.9854 151.567 34.207 151.29C34.4286 151.009 34.5415 150.68 34.5458 150.305C34.5415 149.964 34.4414 149.683 34.2454 149.462C34.0494 149.236 33.7745 149.048 33.4208 148.899C33.0714 148.746 32.6623 148.609 32.1935 148.49L30.7042 148.107C29.6261 147.83 28.7738 147.41 28.1474 146.847C27.5252 146.281 27.2141 145.528 27.2141 144.591C27.2141 143.82 27.4229 143.144 27.8406 142.565C28.2624 141.985 28.8356 141.536 29.56 141.216C30.2844 140.892 31.1048 140.73 32.021 140.73C32.9499 140.73 33.7638 140.892 34.4627 141.216C35.1658 141.536 35.7177 141.981 36.1183 142.552C36.5188 143.119 36.7255 143.771 36.7383 144.508H34.4563ZM40.2907 154.601L39.1337 153.808L46.1202 143.658L47.29 144.45L40.2907 154.601ZM43.2118 154.205C42.253 154.205 41.4221 153.994 40.7189 153.572C40.0158 153.15 39.4703 152.56 39.0826 151.801C38.699 151.038 38.5073 150.152 38.5073 149.142C38.5073 148.128 38.699 147.239 39.0826 146.477C39.4703 145.714 40.0158 145.121 40.7189 144.7C41.4221 144.278 42.253 144.067 43.2118 144.067C44.1706 144.067 45.0016 144.278 45.7047 144.7C46.4078 145.121 46.9512 145.714 47.3347 146.477C47.7225 147.239 47.9164 148.128 47.9164 149.142C47.9164 150.152 47.7225 151.038 47.3347 151.801C46.9512 152.56 46.4078 153.15 45.7047 153.572C45.0016 153.994 44.1706 154.205 43.2118 154.205ZM43.2246 152.351C43.7445 152.351 44.1792 152.208 44.5286 151.923C44.878 151.633 45.138 151.245 45.3084 150.759C45.4831 150.273 45.5705 149.73 45.5705 149.129C45.5705 148.533 45.4831 147.991 45.3084 147.506C45.138 147.016 44.878 146.626 44.5286 146.336C44.1792 146.046 43.7445 145.901 43.2246 145.901C42.6919 145.901 42.2488 146.046 41.8951 146.336C41.5456 146.626 41.2836 147.016 41.1088 147.506C40.9384 147.991 40.8532 148.533 40.8532 149.129C40.8532 149.73 40.9384 150.273 41.1088 150.759C41.2836 151.245 41.5456 151.633 41.8951 151.923C42.2488 152.208 42.6919 152.351 43.2246 152.351ZM49.9826 154V140.909H52.2965V145.805H52.3924C52.5117 145.567 52.68 145.313 52.8974 145.045C53.1147 144.772 53.4087 144.54 53.7795 144.348C54.1502 144.152 54.6232 144.054 55.1985 144.054C55.957 144.054 56.641 144.248 57.2504 144.636C57.864 145.019 58.3498 145.588 58.7077 146.342C59.07 147.092 59.2511 148.013 59.2511 149.104C59.2511 150.182 59.0742 151.098 58.7205 151.852C58.3668 152.607 57.8853 153.182 57.2759 153.578C56.6665 153.974 55.9762 154.173 55.2049 154.173C54.6424 154.173 54.1758 154.079 53.805 153.891C53.4343 153.704 53.136 153.478 52.9102 153.214C52.6886 152.945 52.516 152.692 52.3924 152.453H52.2582V154H49.9826ZM52.2518 149.091C52.2518 149.726 52.3413 150.282 52.5202 150.759C52.7035 151.237 52.9656 151.609 53.3065 151.878C53.6516 152.142 54.0692 152.274 54.5593 152.274C55.0707 152.274 55.4989 152.138 55.8441 151.865C56.1893 151.588 56.4492 151.211 56.6239 150.734C56.8029 150.252 56.8924 149.705 56.8924 149.091C56.8924 148.482 56.805 147.94 56.6303 147.467C56.4556 146.994 56.1957 146.624 55.8505 146.355C55.5053 146.087 55.0749 145.952 54.5593 145.952C54.065 145.952 53.6452 146.082 53.3001 146.342C52.9549 146.602 52.6928 146.967 52.5138 147.435C52.3391 147.904 52.2518 148.456 52.2518 149.091ZM65.5009 154.192C64.5421 154.192 63.7111 153.981 63.008 153.559C62.3049 153.137 61.7594 152.547 61.3716 151.788C60.9881 151.03 60.7963 150.143 60.7963 149.129C60.7963 148.115 60.9881 147.227 61.3716 146.464C61.7594 145.701 62.3049 145.109 63.008 144.687C63.7111 144.265 64.5421 144.054 65.5009 144.054C66.4597 144.054 67.2907 144.265 67.9938 144.687C68.6969 145.109 69.2402 145.701 69.6238 146.464C70.0115 147.227 70.2054 148.115 70.2054 149.129C70.2054 150.143 70.0115 151.03 69.6238 151.788C69.2402 152.547 68.6969 153.137 67.9938 153.559C67.2907 153.981 66.4597 154.192 65.5009 154.192ZM65.5137 152.338C66.0336 152.338 66.4682 152.195 66.8176 151.91C67.1671 151.62 67.427 151.232 67.5975 150.746C67.7722 150.261 67.8596 149.719 67.8596 149.123C67.8596 148.522 67.7722 147.979 67.5975 147.493C67.427 147.003 67.1671 146.613 66.8176 146.323C66.4682 146.033 66.0336 145.888 65.5137 145.888C64.981 145.888 64.5378 146.033 64.1841 146.323C63.8347 146.613 63.5726 147.003 63.3979 147.493C63.2275 147.979 63.1422 148.522 63.1422 149.123C63.1422 149.719 63.2275 150.261 63.3979 150.746C63.5726 151.232 63.8347 151.62 64.1841 151.91C64.5378 152.195 64.981 152.338 65.5137 152.338ZM72.1694 154V144.182H74.413V145.818H74.5153C74.6942 145.251 75.0011 144.815 75.4357 144.508C75.8746 144.197 76.3754 144.041 76.9379 144.041C77.0657 144.041 77.2085 144.048 77.3661 144.06C77.5281 144.069 77.6623 144.084 77.7688 144.105V146.234C77.6708 146.2 77.5153 146.17 77.3022 146.144C77.0934 146.114 76.891 146.099 76.695 146.099C76.2731 146.099 75.8938 146.191 75.5572 146.374C75.2248 146.553 74.9627 146.803 74.771 147.122C74.5792 147.442 74.4833 147.81 74.4833 148.228V154H72.1694ZM83.1717 157.886C82.3407 157.886 81.627 157.773 81.0304 157.548C80.4338 157.326 79.9544 157.028 79.5922 156.653C79.2299 156.278 78.9785 155.862 78.8379 155.406L80.9217 154.901C81.0154 155.093 81.1518 155.283 81.3308 155.47C81.5098 155.662 81.7505 155.82 82.0531 155.943C82.3599 156.071 82.7456 156.135 83.2101 156.135C83.8663 156.135 84.4096 155.975 84.84 155.656C85.2704 155.34 85.4856 154.82 85.4856 154.096V152.236H85.3706C85.2512 152.474 85.0765 152.719 84.8464 152.971C84.6206 153.222 84.3201 153.433 83.9451 153.604C83.5744 153.774 83.1078 153.859 82.5453 153.859C81.791 153.859 81.1071 153.683 80.4934 153.329C79.8841 152.971 79.3983 152.438 79.036 151.731C78.6781 151.019 78.4991 150.129 78.4991 149.059C78.4991 147.981 78.6781 147.071 79.036 146.33C79.3983 145.584 79.8862 145.019 80.4998 144.636C81.1135 144.248 81.7974 144.054 82.5517 144.054C83.127 144.054 83.6 144.152 83.9707 144.348C84.3457 144.54 84.644 144.772 84.8656 145.045C85.0872 145.313 85.2555 145.567 85.3706 145.805H85.4984V144.182H87.7804V154.16C87.7804 154.999 87.5801 155.694 87.1795 156.244C86.7789 156.793 86.2314 157.205 85.5368 157.477C84.8422 157.75 84.0538 157.886 83.1717 157.886ZM83.1909 152.044C83.6809 152.044 84.0985 151.925 84.4437 151.686C84.7889 151.447 85.051 151.104 85.2299 150.657C85.4089 150.21 85.4984 149.673 85.4984 149.046C85.4984 148.428 85.4089 147.887 85.2299 147.423C85.0552 146.958 84.7953 146.598 84.4501 146.342C84.1092 146.082 83.6895 145.952 83.1909 145.952C82.6752 145.952 82.2449 146.087 81.8997 146.355C81.5545 146.624 81.2946 146.992 81.1199 147.461C80.9451 147.925 80.8578 148.454 80.8578 149.046C80.8578 149.647 80.9451 150.173 81.1199 150.625C81.2988 151.072 81.5609 151.422 81.9061 151.673C82.2555 151.92 82.6838 152.044 83.1909 152.044ZM94.7189 154V140.909H97.0904V146.451H103.156V140.909H105.534V154H103.156V148.439H97.0904V154H94.7189ZM112.294 154.192C111.335 154.192 110.504 153.981 109.801 153.559C109.098 153.137 108.552 152.547 108.165 151.788C107.781 151.03 107.589 150.143 107.589 149.129C107.589 148.115 107.781 147.227 108.165 146.464C108.552 145.701 109.098 145.109 109.801 144.687C110.504 144.265 111.335 144.054 112.294 144.054C113.253 144.054 114.084 144.265 114.787 144.687C115.49 145.109 116.033 145.701 116.417 146.464C116.805 147.227 116.998 148.115 116.998 149.129C116.998 150.143 116.805 151.03 116.417 151.788C116.033 152.547 115.49 153.137 114.787 153.559C114.084 153.981 113.253 154.192 112.294 154.192ZM112.307 152.338C112.827 152.338 113.261 152.195 113.611 151.91C113.96 151.62 114.22 151.232 114.39 150.746C114.565 150.261 114.653 149.719 114.653 149.123C114.653 148.522 114.565 147.979 114.39 147.493C114.22 147.003 113.96 146.613 113.611 146.323C113.261 146.033 112.827 145.888 112.307 145.888C111.774 145.888 111.331 146.033 110.977 146.323C110.628 146.613 110.366 147.003 110.191 147.493C110.02 147.979 109.935 148.522 109.935 149.123C109.935 149.719 110.02 150.261 110.191 150.746C110.366 151.232 110.628 151.62 110.977 151.91C111.331 152.195 111.774 152.338 112.307 152.338ZM127.398 144.182L123.902 154H121.345L117.849 144.182H120.316L122.572 151.475H122.675L124.937 144.182H127.398ZM133.012 154.192C132.028 154.192 131.178 153.987 130.462 153.578C129.75 153.165 129.202 152.581 128.819 151.827C128.435 151.068 128.244 150.175 128.244 149.148C128.244 148.138 128.435 147.252 128.819 146.489C129.207 145.722 129.748 145.126 130.442 144.7C131.137 144.269 131.953 144.054 132.891 144.054C133.496 144.054 134.067 144.152 134.604 144.348C135.145 144.54 135.622 144.838 136.036 145.243C136.453 145.648 136.781 146.163 137.02 146.79C137.259 147.412 137.378 148.153 137.378 149.014V149.724H129.33V148.164H135.16C135.156 147.721 135.06 147.327 134.872 146.982C134.685 146.632 134.423 146.357 134.086 146.157C133.754 145.957 133.366 145.857 132.923 145.857C132.45 145.857 132.034 145.972 131.676 146.202C131.318 146.428 131.039 146.726 130.839 147.097C130.643 147.463 130.543 147.866 130.538 148.305V149.666C130.538 150.237 130.643 150.727 130.852 151.136C131.06 151.541 131.352 151.852 131.727 152.07C132.102 152.283 132.541 152.389 133.044 152.389C133.381 152.389 133.685 152.342 133.958 152.249C134.231 152.151 134.467 152.008 134.668 151.82C134.868 151.633 135.019 151.401 135.121 151.124L137.282 151.366C137.146 151.937 136.886 152.436 136.502 152.862C136.123 153.284 135.637 153.612 135.045 153.847C134.452 154.077 133.775 154.192 133.012 154.192ZM142.979 154.173C142.208 154.173 141.517 153.974 140.908 153.578C140.298 153.182 139.817 152.607 139.463 151.852C139.11 151.098 138.933 150.182 138.933 149.104C138.933 148.013 139.112 147.092 139.47 146.342C139.832 145.588 140.32 145.019 140.933 144.636C141.547 144.248 142.231 144.054 142.985 144.054C143.561 144.054 144.034 144.152 144.404 144.348C144.775 144.54 145.069 144.772 145.286 145.045C145.504 145.313 145.672 145.567 145.791 145.805H145.887V140.909H148.208V154H145.932V152.453H145.791C145.672 152.692 145.499 152.945 145.274 153.214C145.048 153.478 144.749 153.704 144.379 153.891C144.008 154.079 143.541 154.173 142.979 154.173ZM143.624 152.274C144.115 152.274 144.532 152.142 144.877 151.878C145.222 151.609 145.485 151.237 145.664 150.759C145.843 150.282 145.932 149.726 145.932 149.091C145.932 148.456 145.843 147.904 145.664 147.435C145.489 146.967 145.229 146.602 144.884 146.342C144.543 146.082 144.123 145.952 143.624 145.952C143.109 145.952 142.678 146.087 142.333 146.355C141.988 146.624 141.728 146.994 141.553 147.467C141.379 147.94 141.291 148.482 141.291 149.091C141.291 149.705 141.379 150.252 141.553 150.734C141.732 151.211 141.994 151.588 142.34 151.865C142.689 152.138 143.117 152.274 143.624 152.274ZM154.943 157.886C154.112 157.886 153.398 157.773 152.802 157.548C152.205 157.326 151.726 157.028 151.364 156.653C151.001 156.278 150.75 155.862 150.609 155.406L152.693 154.901C152.787 155.093 152.923 155.283 153.102 155.47C153.281 155.662 153.522 155.82 153.825 155.943C154.131 156.071 154.517 156.135 154.982 156.135C155.638 156.135 156.181 155.975 156.612 155.656C157.042 155.34 157.257 154.82 157.257 154.096V152.236H157.142C157.023 152.474 156.848 152.719 156.618 152.971C156.392 153.222 156.092 153.433 155.717 153.604C155.346 153.774 154.879 153.859 154.317 153.859C153.562 153.859 152.879 153.683 152.265 153.329C151.656 152.971 151.17 152.438 150.808 151.731C150.45 151.019 150.271 150.129 150.271 149.059C150.271 147.981 150.45 147.071 150.808 146.33C151.17 145.584 151.658 145.019 152.271 144.636C152.885 144.248 153.569 144.054 154.323 144.054C154.898 144.054 155.371 144.152 155.742 144.348C156.117 144.54 156.415 144.772 156.637 145.045C156.859 145.313 157.027 145.567 157.142 145.805H157.27V144.182H159.552V154.16C159.552 154.999 159.352 155.694 158.951 156.244C158.55 156.793 158.003 157.205 157.308 157.477C156.614 157.75 155.825 157.886 154.943 157.886ZM154.962 152.044C155.452 152.044 155.87 151.925 156.215 151.686C156.56 151.447 156.822 151.104 157.001 150.657C157.18 150.21 157.27 149.673 157.27 149.046C157.27 148.428 157.18 147.887 157.001 147.423C156.827 146.958 156.567 146.598 156.222 146.342C155.881 146.082 155.461 145.952 154.962 145.952C154.447 145.952 154.016 146.087 153.671 146.355C153.326 146.624 153.066 146.992 152.891 147.461C152.717 147.925 152.629 148.454 152.629 149.046C152.629 149.647 152.717 150.173 152.891 150.625C153.07 151.072 153.332 151.422 153.678 151.673C154.027 151.92 154.455 152.044 154.962 152.044ZM164.749 154.198C164.126 154.198 163.566 154.087 163.067 153.866C162.573 153.64 162.181 153.308 161.891 152.869C161.606 152.43 161.463 151.888 161.463 151.245C161.463 150.691 161.565 150.233 161.77 149.871C161.974 149.509 162.254 149.219 162.607 149.001C162.961 148.784 163.359 148.62 163.803 148.509C164.25 148.394 164.712 148.311 165.19 148.26C165.765 148.2 166.232 148.147 166.589 148.1C166.947 148.049 167.207 147.972 167.369 147.87C167.536 147.763 167.619 147.599 167.619 147.378V147.339C167.619 146.858 167.476 146.485 167.19 146.221C166.905 145.957 166.494 145.825 165.957 145.825C165.39 145.825 164.94 145.948 164.608 146.195C164.28 146.442 164.058 146.734 163.943 147.071L161.783 146.764C161.953 146.168 162.234 145.669 162.626 145.268C163.018 144.864 163.498 144.561 164.065 144.361C164.631 144.156 165.258 144.054 165.944 144.054C166.417 144.054 166.888 144.109 167.357 144.22C167.825 144.331 168.254 144.514 168.641 144.77C169.029 145.021 169.34 145.364 169.575 145.799C169.813 146.234 169.933 146.777 169.933 147.429V154H167.708V152.651H167.631C167.491 152.924 167.293 153.18 167.037 153.418C166.786 153.653 166.468 153.842 166.085 153.987C165.705 154.128 165.26 154.198 164.749 154.198ZM165.349 152.498C165.814 152.498 166.217 152.406 166.558 152.223C166.898 152.036 167.161 151.788 167.344 151.482C167.531 151.175 167.625 150.84 167.625 150.478V149.321C167.553 149.381 167.429 149.436 167.254 149.487C167.084 149.538 166.892 149.583 166.679 149.621C166.466 149.66 166.255 149.694 166.046 149.724C165.837 149.754 165.656 149.779 165.503 149.8C165.158 149.847 164.849 149.924 164.576 150.031C164.303 150.137 164.088 150.286 163.93 150.478C163.773 150.665 163.694 150.908 163.694 151.207C163.694 151.633 163.849 151.955 164.161 152.172C164.472 152.389 164.868 152.498 165.349 152.498ZM175.903 154.173C175.131 154.173 174.441 153.974 173.832 153.578C173.222 153.182 172.741 152.607 172.387 151.852C172.033 151.098 171.857 150.182 171.857 149.104C171.857 148.013 172.036 147.092 172.393 146.342C172.756 145.588 173.244 145.019 173.857 144.636C174.471 144.248 175.155 144.054 175.909 144.054C176.484 144.054 176.957 144.152 177.328 144.348C177.699 144.54 177.993 144.772 178.21 145.045C178.428 145.313 178.596 145.567 178.715 145.805H178.811V140.909H181.131V154H178.856V152.453H178.715C178.596 152.692 178.423 152.945 178.197 153.214C177.972 153.478 177.673 153.704 177.303 153.891C176.932 154.079 176.465 154.173 175.903 154.173ZM176.548 152.274C177.038 152.274 177.456 152.142 177.801 151.878C178.146 151.609 178.408 151.237 178.587 150.759C178.766 150.282 178.856 149.726 178.856 149.091C178.856 148.456 178.766 147.904 178.587 147.435C178.413 146.967 178.153 146.602 177.808 146.342C177.467 146.082 177.047 145.952 176.548 145.952C176.033 145.952 175.602 146.087 175.257 146.355C174.912 146.624 174.652 146.994 174.477 147.467C174.303 147.94 174.215 148.482 174.215 149.091C174.215 149.705 174.303 150.252 174.477 150.734C174.656 151.211 174.918 151.588 175.263 151.865C175.613 152.138 176.041 152.274 176.548 152.274ZM187.944 154.192C186.959 154.192 186.109 153.987 185.393 153.578C184.682 153.165 184.134 152.581 183.751 151.827C183.367 151.068 183.175 150.175 183.175 149.148C183.175 148.138 183.367 147.252 183.751 146.489C184.138 145.722 184.68 145.126 185.374 144.7C186.069 144.269 186.885 144.054 187.822 144.054C188.427 144.054 188.998 144.152 189.535 144.348C190.077 144.54 190.554 144.838 190.967 145.243C191.385 145.648 191.713 146.163 191.952 146.79C192.19 147.412 192.309 148.153 192.309 149.014V149.724H184.262V148.164H190.091C190.087 147.721 189.991 147.327 189.804 146.982C189.616 146.632 189.354 146.357 189.018 146.157C188.685 145.957 188.297 145.857 187.854 145.857C187.381 145.857 186.966 145.972 186.608 146.202C186.25 146.428 185.971 146.726 185.77 147.097C185.574 147.463 185.474 147.866 185.47 148.305V149.666C185.47 150.237 185.574 150.727 185.783 151.136C185.992 151.541 186.284 151.852 186.659 152.07C187.034 152.283 187.473 152.389 187.976 152.389C188.312 152.389 188.617 152.342 188.89 152.249C189.162 152.151 189.399 152.008 189.599 151.82C189.8 151.633 189.951 151.401 190.053 151.124L192.214 151.366C192.077 151.937 191.817 152.436 191.434 152.862C191.055 153.284 190.569 153.612 189.976 153.847C189.384 154.077 188.706 154.192 187.944 154.192ZM198.706 154V152.287L203.251 147.832C203.686 147.393 204.048 147.003 204.338 146.662C204.627 146.321 204.845 145.991 204.99 145.671C205.135 145.352 205.207 145.011 205.207 144.648C205.207 144.235 205.113 143.881 204.926 143.587C204.738 143.289 204.48 143.059 204.152 142.897C203.824 142.735 203.451 142.654 203.034 142.654C202.603 142.654 202.226 142.744 201.902 142.923C201.578 143.097 201.327 143.347 201.148 143.67C200.973 143.994 200.886 144.38 200.886 144.827H198.63C198.63 143.996 198.819 143.274 199.199 142.661C199.578 142.047 200.1 141.572 200.765 141.235C201.434 140.898 202.201 140.73 203.066 140.73C203.944 140.73 204.715 140.894 205.38 141.222C206.044 141.55 206.56 142 206.926 142.571C207.297 143.142 207.483 143.794 207.483 144.527C207.483 145.017 207.389 145.499 207.201 145.972C207.014 146.445 206.684 146.969 206.211 147.544C205.742 148.119 205.083 148.816 204.235 149.634L201.979 151.929V152.018H207.681V154H198.706ZM210.365 154L215.933 142.98V142.891H209.471V140.909H218.387V142.935L212.826 154H210.365Z" fill="#72AA9A"/>
</svg>
