<svg width="272" height="153" viewBox="0 0 272 153" fill="none" xmlns="http://www.w3.org/2000/svg">
<path d="M0.715909 80.897V78.9091H11.1605V80.897H7.11435V92H4.76207V80.897H0.715909ZM14.5611 92.1982C13.9389 92.1982 13.3786 92.0874 12.88 91.8658C12.3857 91.6399 11.9936 91.3075 11.7038 90.8686C11.4183 90.4297 11.2756 89.8885 11.2756 89.245C11.2756 88.6911 11.3778 88.233 11.5824 87.8707C11.7869 87.5085 12.0661 87.2188 12.4197 87.0014C12.7734 86.7841 13.1719 86.62 13.6151 86.5092C14.0625 86.3942 14.5249 86.3111 15.0021 86.2599C15.5774 86.2003 16.044 86.147 16.402 86.1001C16.7599 86.049 17.0199 85.9723 17.1818 85.87C17.348 85.7635 17.4311 85.5994 17.4311 85.3778V85.3395C17.4311 84.858 17.2884 84.4851 17.0028 84.2209C16.7173 83.9567 16.3061 83.8246 15.7692 83.8246C15.2024 83.8246 14.7528 83.9482 14.4205 84.1953C14.0923 84.4425 13.8707 84.7344 13.7557 85.071L11.5952 84.7642C11.7656 84.1676 12.0469 83.669 12.4389 83.2685C12.831 82.8636 13.3104 82.5611 13.8771 82.3608C14.4439 82.1562 15.0703 82.054 15.7564 82.054C16.2294 82.054 16.7003 82.1094 17.169 82.2202C17.6378 82.331 18.0661 82.5142 18.4538 82.7699C18.8416 83.0213 19.1527 83.3643 19.3871 83.799C19.6257 84.2337 19.745 84.777 19.745 85.429V92H17.5206V90.6513H17.4439C17.3033 90.924 17.1051 91.1797 16.8494 91.4183C16.598 91.6527 16.2805 91.8423 15.897 91.9872C15.5178 92.1278 15.0724 92.1982 14.5611 92.1982ZM15.1619 90.4979C15.6264 90.4979 16.0291 90.4062 16.37 90.223C16.7109 90.0355 16.973 89.7884 17.1562 89.4815C17.3438 89.1747 17.4375 88.8402 17.4375 88.478V87.321C17.3651 87.3807 17.2415 87.4361 17.0668 87.4872C16.8963 87.5384 16.7045 87.5831 16.4915 87.6214C16.2784 87.6598 16.0675 87.6939 15.8587 87.7237C15.6499 87.7536 15.4688 87.7791 15.3153 87.8004C14.9702 87.8473 14.6612 87.924 14.3885 88.0305C14.1158 88.1371 13.9006 88.2862 13.7429 88.478C13.5852 88.6655 13.5064 88.9084 13.5064 89.2067C13.5064 89.6328 13.6619 89.9545 13.973 90.1719C14.2841 90.3892 14.6804 90.4979 15.1619 90.4979ZM26.3416 95.8864C25.5107 95.8864 24.7969 95.7734 24.2003 95.5476C23.6037 95.326 23.1243 95.0277 22.7621 94.6527C22.3999 94.2777 22.1484 93.8622 22.0078 93.4062L24.0916 92.9013C24.1854 93.093 24.3217 93.2827 24.5007 93.4702C24.6797 93.6619 24.9205 93.8196 25.223 93.9432C25.5298 94.071 25.9155 94.1349 26.38 94.1349C27.0362 94.1349 27.5795 93.9751 28.0099 93.6555C28.4403 93.3402 28.6555 92.8203 28.6555 92.0959V90.2358H28.5405C28.4212 90.4744 28.2464 90.7195 28.0163 90.9709C27.7905 91.2223 27.4901 91.4332 27.1151 91.6037C26.7443 91.7741 26.2777 91.8594 25.7152 91.8594C24.9609 91.8594 24.277 91.6825 23.6634 91.3288C23.054 90.9709 22.5682 90.4382 22.206 89.7308C21.848 89.0192 21.669 88.1286 21.669 87.0589C21.669 85.9808 21.848 85.071 22.206 84.3295C22.5682 83.5838 23.0561 83.0192 23.6697 82.6357C24.2834 82.2479 24.9673 82.054 25.7216 82.054C26.2969 82.054 26.7699 82.152 27.1406 82.348C27.5156 82.5398 27.8139 82.772 28.0355 83.0447C28.2571 83.3132 28.4254 83.5668 28.5405 83.8054H28.6683V82.1818H30.9503V92.1598C30.9503 92.9993 30.75 93.6939 30.3494 94.2436C29.9489 94.7933 29.4013 95.2045 28.7067 95.4773C28.0121 95.75 27.2237 95.8864 26.3416 95.8864ZM26.3608 90.044C26.8509 90.044 27.2685 89.9247 27.6136 89.6861C27.9588 89.4474 28.2209 89.1044 28.3999 88.657C28.5788 88.2095 28.6683 87.6726 28.6683 87.0462C28.6683 86.4283 28.5788 85.8871 28.3999 85.4226C28.2251 84.9581 27.9652 84.598 27.62 84.3423C27.2791 84.0824 26.8594 83.9524 26.3608 83.9524C25.8452 83.9524 25.4148 84.0866 25.0696 84.3551C24.7244 84.6236 24.4645 84.9922 24.2898 85.4609C24.1151 85.9254 24.0277 86.4538 24.0277 87.0462C24.0277 87.647 24.1151 88.1733 24.2898 88.625C24.4688 89.0724 24.7308 89.4219 25.076 89.6733C25.4254 89.9205 25.8537 90.044 26.3608 90.044ZM42.555 92.179C41.9286 92.1747 41.3171 92.0661 40.7205 91.853C40.1239 91.6357 39.587 91.2841 39.1097 90.7983C38.6325 90.3082 38.2532 89.6584 37.9719 88.8487C37.6907 88.0348 37.5522 87.027 37.5565 85.8253C37.5565 84.7045 37.6758 83.7053 37.9144 82.8274C38.1531 81.9496 38.4961 81.2081 38.9435 80.603C39.391 79.9936 39.93 79.5291 40.5607 79.2095C41.1957 78.8899 41.9052 78.7301 42.6893 78.7301C43.5117 78.7301 44.2404 78.892 44.8754 79.2159C45.5146 79.5398 46.0302 79.983 46.4222 80.5455C46.8143 81.1037 47.0572 81.7344 47.1509 82.4375H44.8178C44.6985 81.9347 44.4535 81.5341 44.0827 81.2358C43.7163 80.9332 43.2518 80.782 42.6893 80.782C41.7816 80.782 41.0827 81.1761 40.5927 81.9645C40.1069 82.7528 39.8619 83.8352 39.8576 85.2116H39.9471C40.1559 84.8366 40.4265 84.5149 40.7589 84.2464C41.0913 83.978 41.4663 83.7713 41.8839 83.6264C42.3058 83.4773 42.7511 83.4027 43.2198 83.4027C43.9869 83.4027 44.6751 83.5859 45.2844 83.9524C45.8981 84.3189 46.3839 84.8239 46.7418 85.4673C47.0998 86.1065 47.2766 86.8395 47.2724 87.6662C47.2766 88.527 47.0806 89.3004 46.6843 89.9865C46.288 90.6683 45.7362 91.2053 45.0288 91.5973C44.3214 91.9893 43.4968 92.1832 42.555 92.179ZM42.5423 90.2614C43.0067 90.2614 43.4222 90.1484 43.7887 89.9226C44.1552 89.6967 44.445 89.392 44.658 89.0085C44.8711 88.625 44.9755 88.1946 44.9712 87.7173C44.9755 87.2486 44.8732 86.8246 44.6644 86.4453C44.4599 86.0661 44.1765 85.7656 43.8143 85.544C43.4521 85.3224 43.0387 85.2116 42.5742 85.2116C42.229 85.2116 41.9073 85.2777 41.609 85.4098C41.3107 85.5419 41.0508 85.7251 40.8292 85.9595C40.6076 86.1896 40.4329 86.4581 40.305 86.7649C40.1815 87.0675 40.1175 87.3913 40.1133 87.7365C40.1175 88.1925 40.2241 88.6122 40.4329 88.9957C40.6417 89.3793 40.9293 89.6861 41.2958 89.9162C41.6623 90.1463 42.0778 90.2614 42.5423 90.2614ZM51.2418 92H48.7106L53.3192 78.9091H56.2468L60.8619 92H58.3306L54.8342 81.5938H54.7319L51.2418 92ZM51.3249 86.8672H58.2283V88.772H51.3249V86.8672ZM67.051 92V78.9091H69.3649V83.8054H69.4608C69.5801 83.5668 69.7484 83.3132 69.9657 83.0447C70.1831 82.772 70.4771 82.5398 70.8478 82.348C71.2186 82.152 71.6916 82.054 72.2669 82.054C73.0254 82.054 73.7093 82.2479 74.3187 82.6357C74.9324 83.0192 75.4181 83.5881 75.7761 84.3423C76.1383 85.0923 76.3194 86.0128 76.3194 87.1037C76.3194 88.1818 76.1426 89.098 75.7889 89.8523C75.4352 90.6065 74.9537 91.1818 74.3443 91.5781C73.7349 91.9744 73.0446 92.1726 72.2733 92.1726C71.7108 92.1726 71.2441 92.0788 70.8734 91.8913C70.5027 91.7038 70.2044 91.478 69.9785 91.2138C69.7569 90.9453 69.5843 90.6918 69.4608 90.4531H69.3265V92H67.051ZM69.3201 87.0909C69.3201 87.7259 69.4096 88.282 69.5886 88.7592C69.7718 89.2365 70.0339 89.6094 70.3748 89.8778C70.72 90.142 71.1376 90.2741 71.6277 90.2741C72.139 90.2741 72.5673 90.1378 72.9125 89.8651C73.2576 89.5881 73.5176 89.2109 73.6923 88.7337C73.8713 88.2521 73.9608 87.7045 73.9608 87.0909C73.9608 86.4815 73.8734 85.9403 73.6987 85.4673C73.524 84.9943 73.264 84.6236 72.9189 84.3551C72.5737 84.0866 72.1433 83.9524 71.6277 83.9524C71.1333 83.9524 70.7136 84.0824 70.3684 84.3423C70.0233 84.6023 69.7612 84.9666 69.5822 85.4354C69.4075 85.9041 69.3201 86.456 69.3201 87.0909ZM84.5444 87.8707V82.1818H86.8583V92H84.6147V90.255H84.5124C84.2908 90.8047 83.9265 91.2543 83.4194 91.6037C82.9165 91.9531 82.2965 92.1278 81.5593 92.1278C80.9158 92.1278 80.3469 91.9851 79.8526 91.6996C79.3626 91.4098 78.979 90.9901 78.7021 90.4403C78.4251 89.8864 78.2866 89.2173 78.2866 88.4332V82.1818H80.6005V88.0753C80.6005 88.6974 80.771 89.1918 81.1119 89.5582C81.4528 89.9247 81.9002 90.108 82.4542 90.108C82.7951 90.108 83.1254 90.0249 83.445 89.8587C83.7646 89.6925 84.0266 89.4453 84.2312 89.1172C84.44 88.7848 84.5444 88.3693 84.5444 87.8707ZM96.9977 84.777L94.8883 85.0071C94.8287 84.794 94.7243 84.5938 94.5751 84.4062C94.4302 84.2188 94.2342 84.0675 93.987 83.9524C93.7399 83.8374 93.4373 83.7798 93.0794 83.7798C92.5978 83.7798 92.193 83.8842 91.8649 84.093C91.541 84.3018 91.3812 84.5724 91.3855 84.9048C91.3812 85.1903 91.4856 85.4226 91.6987 85.6016C91.916 85.7805 92.274 85.9276 92.7726 86.0426L94.4473 86.4006C95.3762 86.6009 96.0666 86.9183 96.5183 87.353C96.9743 87.7876 97.2044 88.3565 97.2086 89.0597C97.2044 89.6776 97.0233 90.223 96.6653 90.696C96.3116 91.1648 95.8194 91.5312 95.1887 91.7955C94.5581 92.0597 93.8336 92.1918 93.0154 92.1918C91.8137 92.1918 90.8464 91.9403 90.1135 91.4375C89.3805 90.9304 88.9437 90.2251 88.8031 89.3217L91.0595 89.1044C91.1618 89.5476 91.3791 89.8821 91.7115 90.108C92.0439 90.3338 92.4764 90.4467 93.0091 90.4467C93.5588 90.4467 93.9998 90.3338 94.3322 90.108C94.6689 89.8821 94.8372 89.603 94.8372 89.2706C94.8372 88.9893 94.7285 88.7571 94.5112 88.5739C94.2981 88.3906 93.9657 88.25 93.514 88.152L91.8393 87.8004C90.8975 87.6044 90.2008 87.2741 89.7491 86.8097C89.2974 86.3409 89.0737 85.7486 89.0779 85.0327C89.0737 84.4276 89.2377 83.9034 89.5701 83.4602C89.9068 83.0128 90.3734 82.6676 90.97 82.4247C91.5708 82.1776 92.2633 82.054 93.0474 82.054C94.198 82.054 95.1035 82.299 95.764 82.7891C96.4288 83.2791 96.84 83.9418 96.9977 84.777ZM106.877 84.777L104.767 85.0071C104.708 84.794 104.603 84.5938 104.454 84.4062C104.309 84.2188 104.113 84.0675 103.866 83.9524C103.619 83.8374 103.316 83.7798 102.958 83.7798C102.477 83.7798 102.072 83.8842 101.744 84.093C101.42 84.3018 101.26 84.5724 101.264 84.9048C101.26 85.1903 101.365 85.4226 101.578 85.6016C101.795 85.7805 102.153 85.9276 102.651 86.0426L104.326 86.4006C105.255 86.6009 105.945 86.9183 106.397 87.353C106.853 87.7876 107.083 88.3565 107.088 89.0597C107.083 89.6776 106.902 90.223 106.544 90.696C106.191 91.1648 105.698 91.5312 105.068 91.7955C104.437 92.0597 103.713 92.1918 102.894 92.1918C101.693 92.1918 100.725 91.9403 99.9924 91.4375C99.2594 90.9304 98.8226 90.2251 98.682 89.3217L100.938 89.1044C101.041 89.5476 101.258 89.8821 101.59 90.108C101.923 90.3338 102.355 90.4467 102.888 90.4467C103.438 90.4467 103.879 90.3338 104.211 90.108C104.548 89.8821 104.716 89.603 104.716 89.2706C104.716 88.9893 104.607 88.7571 104.39 88.5739C104.177 88.3906 103.845 88.25 103.393 88.152L101.718 87.8004C100.776 87.6044 100.08 87.2741 99.628 86.8097C99.1763 86.3409 98.9526 85.7486 98.9569 85.0327C98.9526 84.4276 99.1167 83.9034 99.449 83.4602C99.7857 83.0128 100.252 82.6676 100.849 82.4247C101.45 82.1776 102.142 82.054 102.926 82.054C104.077 82.054 104.982 82.299 105.643 82.7891C106.308 83.2791 106.719 83.9418 106.877 84.777ZM113.342 92.1918C112.358 92.1918 111.508 91.9872 110.792 91.5781C110.08 91.1648 109.532 90.581 109.149 89.8267C108.765 89.0682 108.574 88.1754 108.574 87.1484C108.574 86.1385 108.765 85.2521 109.149 84.4893C109.537 83.7223 110.078 83.1257 110.773 82.6996C111.467 82.2692 112.283 82.054 113.221 82.054C113.826 82.054 114.397 82.152 114.934 82.348C115.475 82.5398 115.952 82.8381 116.366 83.2429C116.783 83.6477 117.111 84.1634 117.35 84.7898C117.589 85.4119 117.708 86.1534 117.708 87.0142V87.7237H109.66V86.1641H115.49C115.486 85.7209 115.39 85.3267 115.202 84.9815C115.015 84.6321 114.753 84.3572 114.416 84.157C114.084 83.9567 113.696 83.8565 113.253 83.8565C112.78 83.8565 112.364 83.9716 112.006 84.2017C111.648 84.4276 111.369 84.7259 111.169 85.0966C110.973 85.4631 110.873 85.8658 110.868 86.3047V87.6662C110.868 88.2372 110.973 88.7273 111.182 89.1364C111.39 89.5412 111.682 89.8523 112.057 90.0696C112.432 90.2827 112.871 90.3892 113.374 90.3892C113.711 90.3892 114.015 90.3423 114.288 90.2486C114.561 90.1506 114.797 90.0078 114.998 89.8203C115.198 89.6328 115.349 89.4006 115.452 89.1236L117.612 89.3665C117.476 89.9375 117.216 90.4361 116.832 90.8622C116.453 91.2841 115.967 91.6122 115.375 91.8466C114.782 92.0767 114.105 92.1918 113.342 92.1918ZM121.979 86.2472V92H119.665V82.1818H121.877V83.8501H121.992C122.218 83.3004 122.578 82.8636 123.072 82.5398C123.571 82.2159 124.187 82.054 124.92 82.054C125.597 82.054 126.188 82.1989 126.69 82.4886C127.197 82.7784 127.589 83.1982 127.866 83.7479C128.148 84.2976 128.286 84.9645 128.282 85.7486V92H125.968V86.1065C125.968 85.4503 125.798 84.9368 125.457 84.5661C125.12 84.1953 124.653 84.0099 124.057 84.0099C123.652 84.0099 123.292 84.0994 122.977 84.2784C122.665 84.4531 122.42 84.7067 122.241 85.0391C122.067 85.3714 121.979 85.7741 121.979 86.2472ZM139.382 92.1918C138.423 92.1918 137.592 91.9808 136.889 91.5589C136.186 91.1371 135.64 90.5469 135.252 89.7884C134.869 89.0298 134.677 88.1435 134.677 87.1293C134.677 86.1151 134.869 85.2266 135.252 84.4638C135.64 83.701 136.186 83.1087 136.889 82.6868C137.592 82.2649 138.423 82.054 139.382 82.054C140.341 82.054 141.172 82.2649 141.875 82.6868C142.578 83.1087 143.121 83.701 143.505 84.4638C143.892 85.2266 144.086 86.1151 144.086 87.1293C144.086 88.1435 143.892 89.0298 143.505 89.7884C143.121 90.5469 142.578 91.1371 141.875 91.5589C141.172 91.9808 140.341 92.1918 139.382 92.1918ZM139.395 90.3381C139.914 90.3381 140.349 90.1953 140.699 89.9098C141.048 89.62 141.308 89.2322 141.478 88.7464C141.653 88.2607 141.74 87.7195 141.74 87.1229C141.74 86.522 141.653 85.9787 141.478 85.4929C141.308 85.0028 141.048 84.6129 140.699 84.3232C140.349 84.0334 139.914 83.8885 139.395 83.8885C138.862 83.8885 138.419 84.0334 138.065 84.3232C137.716 84.6129 137.453 85.0028 137.279 85.4929C137.108 85.9787 137.023 86.522 137.023 87.1229C137.023 87.7195 137.108 88.2607 137.279 88.7464C137.453 89.2322 137.716 89.62 138.065 89.9098C138.419 90.1953 138.862 90.3381 139.395 90.3381ZM150.32 95.8864C149.489 95.8864 148.775 95.7734 148.179 95.5476C147.582 95.326 147.103 95.0277 146.741 94.6527C146.378 94.2777 146.127 93.8622 145.986 93.4062L148.07 92.9013C148.164 93.093 148.3 93.2827 148.479 93.4702C148.658 93.6619 148.899 93.8196 149.202 93.9432C149.508 94.071 149.894 94.1349 150.358 94.1349C151.015 94.1349 151.558 93.9751 151.988 93.6555C152.419 93.3402 152.634 92.8203 152.634 92.0959V90.2358H152.519C152.4 90.4744 152.225 90.7195 151.995 90.9709C151.769 91.2223 151.469 91.4332 151.094 91.6037C150.723 91.7741 150.256 91.8594 149.694 91.8594C148.939 91.8594 148.256 91.6825 147.642 91.3288C147.032 90.9709 146.547 90.4382 146.184 89.7308C145.827 89.0192 145.648 88.1286 145.648 87.0589C145.648 85.9808 145.827 85.071 146.184 84.3295C146.547 83.5838 147.035 83.0192 147.648 82.6357C148.262 82.2479 148.946 82.054 149.7 82.054C150.275 82.054 150.748 82.152 151.119 82.348C151.494 82.5398 151.792 82.772 152.014 83.0447C152.236 83.3132 152.404 83.5668 152.519 83.8054H152.647V82.1818H154.929V92.1598C154.929 92.9993 154.729 93.6939 154.328 94.2436C153.927 94.7933 153.38 95.2045 152.685 95.4773C151.991 95.75 151.202 95.8864 150.32 95.8864ZM150.339 90.044C150.829 90.044 151.247 89.9247 151.592 89.6861C151.937 89.4474 152.199 89.1044 152.378 88.657C152.557 88.2095 152.647 87.6726 152.647 87.0462C152.647 86.4283 152.557 85.8871 152.378 85.4226C152.204 84.9581 151.944 84.598 151.599 84.3423C151.258 84.0824 150.838 83.9524 150.339 83.9524C149.824 83.9524 149.393 84.0866 149.048 84.3551C148.703 84.6236 148.443 84.9922 148.268 85.4609C148.094 85.9254 148.006 86.4538 148.006 87.0462C148.006 87.647 148.094 88.1733 148.268 88.625C148.447 89.0724 148.709 89.4219 149.055 89.6733C149.404 89.9205 149.832 90.044 150.339 90.044ZM169.525 84.777L167.416 85.0071C167.356 84.794 167.252 84.5938 167.102 84.4062C166.958 84.2188 166.762 84.0675 166.514 83.9524C166.267 83.8374 165.965 83.7798 165.607 83.7798C165.125 83.7798 164.72 83.8842 164.392 84.093C164.068 84.3018 163.909 84.5724 163.913 84.9048C163.909 85.1903 164.013 85.4226 164.226 85.6016C164.443 85.7805 164.801 85.9276 165.3 86.0426L166.975 86.4006C167.904 86.6009 168.594 86.9183 169.046 87.353C169.502 87.7876 169.732 88.3565 169.736 89.0597C169.732 89.6776 169.551 90.223 169.193 90.696C168.839 91.1648 168.347 91.5312 167.716 91.7955C167.085 92.0597 166.361 92.1918 165.543 92.1918C164.341 92.1918 163.374 91.9403 162.641 91.4375C161.908 90.9304 161.471 90.2251 161.33 89.3217L163.587 89.1044C163.689 89.5476 163.906 89.8821 164.239 90.108C164.571 90.3338 165.004 90.4467 165.536 90.4467C166.086 90.4467 166.527 90.3338 166.86 90.108C167.196 89.8821 167.365 89.603 167.365 89.2706C167.365 88.9893 167.256 88.7571 167.039 88.5739C166.825 88.3906 166.493 88.25 166.041 88.152L164.367 87.8004C163.425 87.6044 162.728 87.2741 162.276 86.8097C161.825 86.3409 161.601 85.7486 161.605 85.0327C161.601 84.4276 161.765 83.9034 162.097 83.4602C162.434 83.0128 162.901 82.6676 163.497 82.4247C164.098 82.1776 164.791 82.054 165.575 82.054C166.725 82.054 167.631 82.299 168.291 82.7891C168.956 83.2791 169.367 83.9418 169.525 84.777ZM176.547 82.1818V83.9716H170.903V82.1818H176.547ZM172.296 79.8295H174.61V89.0469C174.61 89.358 174.657 89.5966 174.751 89.7628C174.849 89.9247 174.976 90.0355 175.134 90.0952C175.292 90.1548 175.466 90.1847 175.658 90.1847C175.803 90.1847 175.935 90.174 176.055 90.1527C176.178 90.1314 176.272 90.1122 176.336 90.0952L176.726 91.9041C176.602 91.9467 176.425 91.9936 176.195 92.0447C175.969 92.0959 175.692 92.1257 175.364 92.1342C174.785 92.1513 174.263 92.0639 173.798 91.8722C173.334 91.6761 172.965 91.3736 172.692 90.9645C172.424 90.5554 172.292 90.044 172.296 89.4304V79.8295ZM181.307 92.1982C180.685 92.1982 180.125 92.0874 179.626 91.8658C179.132 91.6399 178.74 91.3075 178.45 90.8686C178.164 90.4297 178.022 89.8885 178.022 89.245C178.022 88.6911 178.124 88.233 178.328 87.8707C178.533 87.5085 178.812 87.2188 179.166 87.0014C179.52 86.7841 179.918 86.62 180.361 86.5092C180.809 86.3942 181.271 86.3111 181.748 86.2599C182.324 86.2003 182.79 86.147 183.148 86.1001C183.506 86.049 183.766 85.9723 183.928 85.87C184.094 85.7635 184.177 85.5994 184.177 85.3778V85.3395C184.177 84.858 184.034 84.4851 183.749 84.2209C183.463 83.9567 183.052 83.8246 182.515 83.8246C181.949 83.8246 181.499 83.9482 181.167 84.1953C180.838 84.4425 180.617 84.7344 180.502 85.071L178.341 84.7642C178.512 84.1676 178.793 83.669 179.185 83.2685C179.577 82.8636 180.056 82.5611 180.623 82.3608C181.19 82.1562 181.816 82.054 182.502 82.054C182.975 82.054 183.446 82.1094 183.915 82.2202C184.384 82.331 184.812 82.5142 185.2 82.7699C185.588 83.0213 185.899 83.3643 186.133 83.799C186.372 84.2337 186.491 84.777 186.491 85.429V92H184.267V90.6513H184.19C184.049 90.924 183.851 91.1797 183.596 91.4183C183.344 91.6527 183.027 91.8423 182.643 91.9872C182.264 92.1278 181.819 92.1982 181.307 92.1982ZM181.908 90.4979C182.373 90.4979 182.775 90.4062 183.116 90.223C183.457 90.0355 183.719 89.7884 183.902 89.4815C184.09 89.1747 184.184 88.8402 184.184 88.478V87.321C184.111 87.3807 183.988 87.4361 183.813 87.4872C183.642 87.5384 183.451 87.5831 183.238 87.6214C183.025 87.6598 182.814 87.6939 182.605 87.7237C182.396 87.7536 182.215 87.7791 182.061 87.8004C181.716 87.8473 181.407 87.924 181.135 88.0305C180.862 88.1371 180.647 88.2862 180.489 88.478C180.331 88.6655 180.252 88.9084 180.252 89.2067C180.252 89.6328 180.408 89.9545 180.719 90.1719C181.03 90.3892 181.426 90.4979 181.908 90.4979ZM182.605 81.1143C182.191 81.1143 181.814 81.0206 181.473 80.8331C181.137 80.6413 180.868 80.3857 180.668 80.0661C180.472 79.7464 180.374 79.3885 180.374 78.9922C180.374 78.5959 180.472 78.2337 180.668 77.9055C180.868 77.5774 181.137 77.3153 181.473 77.1193C181.814 76.9233 182.191 76.8253 182.605 76.8253C183.018 76.8253 183.393 76.9233 183.73 77.1193C184.066 77.3153 184.333 77.5774 184.529 77.9055C184.725 78.2337 184.823 78.5959 184.823 78.9922C184.823 79.3885 184.725 79.7464 184.529 80.0661C184.333 80.3857 184.066 80.6413 183.73 80.8331C183.393 81.0206 183.018 81.1143 182.605 81.1143ZM182.605 80.0277C182.916 80.0277 183.172 79.9233 183.372 79.7145C183.576 79.5014 183.679 79.2607 183.679 78.9922C183.679 78.7109 183.576 78.4616 183.372 78.2443C183.172 78.027 182.916 77.9205 182.605 77.9247C182.298 77.9247 182.042 78.0334 181.838 78.2507C181.633 78.4638 181.531 78.7109 181.531 78.9922C181.531 79.2607 181.633 79.5014 181.838 79.7145C182.042 79.9276 182.298 80.032 182.605 80.0277ZM196.108 92.1982C195.486 92.1982 194.925 92.0874 194.427 91.8658C193.933 91.6399 193.54 91.3075 193.251 90.8686C192.965 90.4297 192.822 89.8885 192.822 89.245C192.822 88.6911 192.925 88.233 193.129 87.8707C193.334 87.5085 193.613 87.2188 193.967 87.0014C194.32 86.7841 194.719 86.62 195.162 86.5092C195.609 86.3942 196.072 86.3111 196.549 86.2599C197.124 86.2003 197.591 86.147 197.949 86.1001C198.307 86.049 198.567 85.9723 198.729 85.87C198.895 85.7635 198.978 85.5994 198.978 85.3778V85.3395C198.978 84.858 198.835 84.4851 198.55 84.2209C198.264 83.9567 197.853 83.8246 197.316 83.8246C196.749 83.8246 196.3 83.9482 195.967 84.1953C195.639 84.4425 195.418 84.7344 195.303 85.071L193.142 84.7642C193.313 84.1676 193.594 83.669 193.986 83.2685C194.378 82.8636 194.857 82.5611 195.424 82.3608C195.991 82.1562 196.617 82.054 197.303 82.054C197.776 82.054 198.247 82.1094 198.716 82.2202C199.185 82.331 199.613 82.5142 200.001 82.7699C200.388 83.0213 200.7 83.3643 200.934 83.799C201.173 84.2337 201.292 84.777 201.292 85.429V92H199.067V90.6513H198.991C198.85 90.924 198.652 91.1797 198.396 91.4183C198.145 91.6527 197.827 91.8423 197.444 91.9872C197.065 92.1278 196.619 92.1982 196.108 92.1982ZM196.709 90.4979C197.173 90.4979 197.576 90.4062 197.917 90.223C198.258 90.0355 198.52 89.7884 198.703 89.4815C198.891 89.1747 198.984 88.8402 198.984 88.478V87.321C198.912 87.3807 198.788 87.4361 198.614 87.4872C198.443 87.5384 198.251 87.5831 198.038 87.6214C197.825 87.6598 197.614 87.6939 197.406 87.7237C197.197 87.7536 197.016 87.7791 196.862 87.8004C196.517 87.8473 196.208 87.924 195.935 88.0305C195.663 88.1371 195.447 88.2862 195.29 88.478C195.132 88.6655 195.053 88.9084 195.053 89.2067C195.053 89.6328 195.209 89.9545 195.52 90.1719C195.831 90.3892 196.227 90.4979 196.709 90.4979ZM208.592 82.1818V83.9716H202.788V82.1818H208.592ZM204.239 92V81.255C204.239 80.5945 204.375 80.0447 204.648 79.6058C204.925 79.1669 205.295 78.8388 205.76 78.6214C206.224 78.4041 206.74 78.2955 207.307 78.2955C207.707 78.2955 208.063 78.3274 208.374 78.3913C208.685 78.4553 208.915 78.5128 209.065 78.5639L208.604 80.3537C208.506 80.3239 208.383 80.294 208.234 80.2642C208.085 80.2301 207.918 80.2131 207.735 80.2131C207.305 80.2131 207 80.3175 206.821 80.5263C206.646 80.7308 206.559 81.0249 206.559 81.4084V92H204.239ZM223.638 82.1818L220.142 92H217.585L214.089 82.1818H216.556L218.812 89.4751H218.915L221.178 82.1818H223.638ZM229.252 92.1918C228.268 92.1918 227.418 91.9872 226.702 91.5781C225.99 91.1648 225.443 90.581 225.059 89.8267C224.676 89.0682 224.484 88.1754 224.484 87.1484C224.484 86.1385 224.676 85.2521 225.059 84.4893C225.447 83.7223 225.988 83.1257 226.683 82.6996C227.377 82.2692 228.193 82.054 229.131 82.054C229.736 82.054 230.307 82.152 230.844 82.348C231.385 82.5398 231.862 82.8381 232.276 83.2429C232.693 83.6477 233.021 84.1634 233.26 84.7898C233.499 85.4119 233.618 86.1534 233.618 87.0142V87.7237H225.57V86.1641H231.4C231.396 85.7209 231.3 85.3267 231.112 84.9815C230.925 84.6321 230.663 84.3572 230.326 84.157C229.994 83.9567 229.606 83.8565 229.163 83.8565C228.69 83.8565 228.274 83.9716 227.916 84.2017C227.558 84.4276 227.279 84.7259 227.079 85.0966C226.883 85.4631 226.783 85.8658 226.779 86.3047V87.6662C226.779 88.2372 226.883 88.7273 227.092 89.1364C227.301 89.5412 227.593 89.8523 227.968 90.0696C228.343 90.2827 228.781 90.3892 229.284 90.3892C229.621 90.3892 229.926 90.3423 230.198 90.2486C230.471 90.1506 230.708 90.0078 230.908 89.8203C231.108 89.6328 231.259 89.4006 231.362 89.1236L233.522 89.3665C233.386 89.9375 233.126 90.4361 232.742 90.8622C232.363 91.2841 231.877 91.6122 231.285 91.8466C230.693 92.0767 230.015 92.1918 229.252 92.1918ZM239.219 92.1726C238.448 92.1726 237.757 91.9744 237.148 91.5781C236.539 91.1818 236.057 90.6065 235.703 89.8523C235.35 89.098 235.173 88.1818 235.173 87.1037C235.173 86.0128 235.352 85.0923 235.71 84.3423C236.072 83.5881 236.56 83.0192 237.174 82.6357C237.787 82.2479 238.471 82.054 239.225 82.054C239.801 82.054 240.274 82.152 240.645 82.348C241.015 82.5398 241.309 82.772 241.527 83.0447C241.744 83.3132 241.912 83.5668 242.032 83.8054H242.127V78.9091H244.448V92H242.172V90.4531H242.032C241.912 90.6918 241.74 90.9453 241.514 91.2138C241.288 91.478 240.99 91.7038 240.619 91.8913C240.248 92.0788 239.782 92.1726 239.219 92.1726ZM239.865 90.2741C240.355 90.2741 240.772 90.142 241.118 89.8778C241.463 89.6094 241.725 89.2365 241.904 88.7592C242.083 88.282 242.172 87.7259 242.172 87.0909C242.172 86.456 242.083 85.9041 241.904 85.4354C241.729 84.9666 241.469 84.6023 241.124 84.3423C240.783 84.0824 240.363 83.9524 239.865 83.9524C239.349 83.9524 238.919 84.0866 238.574 84.3551C238.228 84.6236 237.968 84.9943 237.794 85.4673C237.619 85.9403 237.532 86.4815 237.532 87.0909C237.532 87.7045 237.619 88.2521 237.794 88.7337C237.973 89.2109 238.235 89.5881 238.58 89.8651C238.929 90.1378 239.358 90.2741 239.865 90.2741ZM8.94886 111.777L6.83949 112.007C6.77983 111.794 6.67543 111.594 6.52628 111.406C6.38139 111.219 6.18537 111.067 5.93821 110.952C5.69105 110.837 5.38849 110.78 5.03054 110.78C4.54901 110.78 4.14418 110.884 3.81605 111.093C3.49219 111.302 3.33239 111.572 3.33665 111.905C3.33239 112.19 3.43679 112.423 3.64986 112.602C3.86719 112.781 4.22514 112.928 4.72372 113.043L6.39844 113.401C7.32741 113.601 8.01776 113.918 8.46946 114.353C8.92543 114.788 9.15554 115.357 9.1598 116.06C9.15554 116.678 8.97443 117.223 8.61648 117.696C8.26278 118.165 7.7706 118.531 7.13991 118.795C6.50923 119.06 5.7848 119.192 4.96662 119.192C3.76491 119.192 2.79759 118.94 2.06463 118.438C1.33168 117.93 0.894886 117.225 0.754261 116.322L3.01065 116.104C3.11293 116.548 3.33026 116.882 3.66264 117.108C3.99503 117.334 4.42756 117.447 4.96023 117.447C5.50994 117.447 5.95099 117.334 6.28338 117.108C6.62003 116.882 6.78835 116.603 6.78835 116.271C6.78835 115.989 6.67969 115.757 6.46236 115.574C6.24929 115.391 5.9169 115.25 5.4652 115.152L3.79048 114.8C2.84872 114.604 2.15199 114.274 1.70028 113.81C1.24858 113.341 1.02486 112.749 1.02912 112.033C1.02486 111.428 1.18892 110.903 1.52131 110.46C1.85795 110.013 2.32457 109.668 2.92116 109.425C3.52202 109.178 4.21449 109.054 4.99858 109.054C6.14915 109.054 7.05469 109.299 7.7152 109.789C8.37997 110.279 8.79119 110.942 8.94886 111.777ZM15.9705 109.182V110.972H10.3263V109.182H15.9705ZM11.7198 106.83H14.0337V116.047C14.0337 116.358 14.0806 116.597 14.1744 116.763C14.2724 116.925 14.4002 117.036 14.5579 117.095C14.7156 117.155 14.8903 117.185 15.082 117.185C15.2269 117.185 15.359 117.174 15.4783 117.153C15.6019 117.131 15.6957 117.112 15.7596 117.095L16.1495 118.904C16.0259 118.947 15.8491 118.994 15.619 119.045C15.3931 119.096 15.1161 119.126 14.788 119.134C14.2085 119.151 13.6864 119.064 13.2219 118.872C12.7575 118.676 12.3888 118.374 12.1161 117.964C11.8477 117.555 11.7156 117.044 11.7198 116.43V106.83ZM22.0829 119.192C21.1241 119.192 20.2931 118.981 19.59 118.559C18.8869 118.137 18.3414 117.547 17.9537 116.788C17.5701 116.03 17.3784 115.143 17.3784 114.129C17.3784 113.115 17.5701 112.227 17.9537 111.464C18.3414 110.701 18.8869 110.109 19.59 109.687C20.2931 109.265 21.1241 109.054 22.0829 109.054C23.0417 109.054 23.8727 109.265 24.5758 109.687C25.2789 110.109 25.8223 110.701 26.2058 111.464C26.5936 112.227 26.7875 113.115 26.7875 114.129C26.7875 115.143 26.5936 116.03 26.2058 116.788C25.8223 117.547 25.2789 118.137 24.5758 118.559C23.8727 118.981 23.0417 119.192 22.0829 119.192ZM22.0957 117.338C22.6156 117.338 23.0502 117.195 23.3997 116.91C23.7491 116.62 24.0091 116.232 24.1795 115.746C24.3542 115.261 24.4416 114.719 24.4416 114.123C24.4416 113.522 24.3542 112.979 24.1795 112.493C24.0091 112.003 23.7491 111.613 23.3997 111.323C23.0502 111.033 22.6156 110.888 22.0957 110.888C21.563 110.888 21.1199 111.033 20.7662 111.323C20.4167 111.613 20.1547 112.003 19.9799 112.493C19.8095 112.979 19.7243 113.522 19.7243 114.123C19.7243 114.719 19.8095 115.261 19.9799 115.746C20.1547 116.232 20.4167 116.62 20.7662 116.91C21.1199 117.195 21.563 117.338 22.0957 117.338ZM28.7514 122.682V109.182H31.027V110.805H31.1612C31.2805 110.567 31.4489 110.313 31.6662 110.045C31.8835 109.772 32.1776 109.54 32.5483 109.348C32.919 109.152 33.392 109.054 33.9673 109.054C34.7259 109.054 35.4098 109.248 36.0192 109.636C36.6328 110.019 37.1186 110.588 37.4766 111.342C37.8388 112.092 38.0199 113.013 38.0199 114.104C38.0199 115.182 37.843 116.098 37.4893 116.852C37.1357 117.607 36.6541 118.182 36.0447 118.578C35.4354 118.974 34.745 119.173 33.9737 119.173C33.4112 119.173 32.9446 119.079 32.5739 118.891C32.2031 118.704 31.9048 118.478 31.679 118.214C31.4574 117.945 31.2848 117.692 31.1612 117.453H31.0653V122.682H28.7514ZM31.0206 114.091C31.0206 114.726 31.1101 115.282 31.2891 115.759C31.4723 116.237 31.7344 116.609 32.0753 116.878C32.4205 117.142 32.8381 117.274 33.3281 117.274C33.8395 117.274 34.2678 117.138 34.6129 116.865C34.9581 116.588 35.218 116.211 35.3928 115.734C35.5717 115.252 35.6612 114.705 35.6612 114.091C35.6612 113.482 35.5739 112.94 35.3991 112.467C35.2244 111.994 34.9645 111.624 34.6193 111.355C34.2741 111.087 33.8438 110.952 33.3281 110.952C32.8338 110.952 32.4141 111.082 32.0689 111.342C31.7237 111.602 31.4616 111.967 31.2827 112.435C31.108 112.904 31.0206 113.456 31.0206 114.091ZM40.0014 122.682V109.182H42.277V110.805H42.4112C42.5305 110.567 42.6989 110.313 42.9162 110.045C43.1335 109.772 43.4276 109.54 43.7983 109.348C44.169 109.152 44.642 109.054 45.2173 109.054C45.9759 109.054 46.6598 109.248 47.2692 109.636C47.8828 110.019 48.3686 110.588 48.7266 111.342C49.0888 112.092 49.2699 113.013 49.2699 114.104C49.2699 115.182 49.093 116.098 48.7393 116.852C48.3857 117.607 47.9041 118.182 47.2947 118.578C46.6854 118.974 45.995 119.173 45.2237 119.173C44.6612 119.173 44.1946 119.079 43.8239 118.891C43.4531 118.704 43.1548 118.478 42.929 118.214C42.7074 117.945 42.5348 117.692 42.4112 117.453H42.3153V122.682H40.0014ZM42.2706 114.091C42.2706 114.726 42.3601 115.282 42.5391 115.759C42.7223 116.237 42.9844 116.609 43.3253 116.878C43.6705 117.142 44.0881 117.274 44.5781 117.274C45.0895 117.274 45.5178 117.138 45.8629 116.865C46.2081 116.588 46.468 116.211 46.6428 115.734C46.8217 115.252 46.9112 114.705 46.9112 114.091C46.9112 113.482 46.8239 112.94 46.6491 112.467C46.4744 111.994 46.2145 111.624 45.8693 111.355C45.5241 111.087 45.0938 110.952 44.5781 110.952C44.0838 110.952 43.6641 111.082 43.3189 111.342C42.9737 111.602 42.7116 111.967 42.5327 112.435C42.358 112.904 42.2706 113.456 42.2706 114.091ZM55.598 119.192C54.6136 119.192 53.7635 118.987 53.0476 118.578C52.3359 118.165 51.7884 117.581 51.4048 116.827C51.0213 116.068 50.8295 115.175 50.8295 114.148C50.8295 113.138 51.0213 112.252 51.4048 111.489C51.7926 110.722 52.3338 110.126 53.0284 109.7C53.723 109.269 54.5391 109.054 55.4766 109.054C56.0817 109.054 56.6527 109.152 57.1896 109.348C57.7308 109.54 58.2081 109.838 58.6214 110.243C59.0391 110.648 59.3672 111.163 59.6058 111.79C59.8445 112.412 59.9638 113.153 59.9638 114.014V114.724H51.9162V113.164H57.7457C57.7415 112.721 57.6456 112.327 57.4581 111.982C57.2706 111.632 57.0085 111.357 56.6719 111.157C56.3395 110.957 55.9517 110.857 55.5085 110.857C55.0355 110.857 54.62 110.972 54.2621 111.202C53.9041 111.428 53.625 111.726 53.4247 112.097C53.2287 112.463 53.1286 112.866 53.1243 113.305V114.666C53.1243 115.237 53.2287 115.727 53.4375 116.136C53.6463 116.541 53.9382 116.852 54.3132 117.07C54.6882 117.283 55.1271 117.389 55.63 117.389C55.9666 117.389 56.2713 117.342 56.544 117.249C56.8168 117.151 57.0533 117.008 57.2536 116.82C57.4538 116.633 57.6051 116.401 57.7074 116.124L59.8679 116.366C59.7315 116.937 59.4716 117.436 59.0881 117.862C58.7088 118.284 58.223 118.612 57.6307 118.847C57.0384 119.077 56.3608 119.192 55.598 119.192ZM69.6813 111.777L67.5719 112.007C67.5123 111.794 67.4078 111.594 67.2587 111.406C67.1138 111.219 66.9178 111.067 66.6706 110.952C66.4235 110.837 66.1209 110.78 65.763 110.78C65.2814 110.78 64.8766 110.884 64.5485 111.093C64.2246 111.302 64.0648 111.572 64.0691 111.905C64.0648 112.19 64.1692 112.423 64.3823 112.602C64.5996 112.781 64.9576 112.928 65.4561 113.043L67.1309 113.401C68.0598 113.601 68.7502 113.918 69.2019 114.353C69.6578 114.788 69.888 115.357 69.8922 116.06C69.888 116.678 69.7069 117.223 69.3489 117.696C68.9952 118.165 68.503 118.531 67.8723 118.795C67.2417 119.06 66.5172 119.192 65.699 119.192C64.4973 119.192 63.53 118.94 62.7971 118.438C62.0641 117.93 61.6273 117.225 61.4867 116.322L63.7431 116.104C63.8453 116.548 64.0627 116.882 64.3951 117.108C64.7275 117.334 65.16 117.447 65.6926 117.447C66.2424 117.447 66.6834 117.334 67.0158 117.108C67.3525 116.882 67.5208 116.603 67.5208 116.271C67.5208 115.989 67.4121 115.757 67.1948 115.574C66.9817 115.391 66.6493 115.25 66.1976 115.152L64.5229 114.8C63.5811 114.604 62.8844 114.274 62.4327 113.81C61.981 113.341 61.7573 112.749 61.7615 112.033C61.7573 111.428 61.9213 110.903 62.2537 110.46C62.5904 110.013 63.057 109.668 63.6536 109.425C64.2544 109.178 64.9469 109.054 65.731 109.054C66.8816 109.054 67.7871 109.299 68.4476 109.789C69.1124 110.279 69.5236 110.942 69.6813 111.777ZM76.7029 109.182V110.972H71.0588V109.182H76.7029ZM72.4522 106.83H74.7662V116.047C74.7662 116.358 74.813 116.597 74.9068 116.763C75.0048 116.925 75.1326 117.036 75.2903 117.095C75.448 117.155 75.6227 117.185 75.8145 117.185C75.9593 117.185 76.0914 117.174 76.2108 117.153C76.3343 117.131 76.4281 117.112 76.492 117.095L76.8819 118.904C76.7583 118.947 76.5815 118.994 76.3514 119.045C76.1255 119.096 75.8485 119.126 75.5204 119.134C74.9409 119.151 74.4189 119.064 73.9544 118.872C73.4899 118.676 73.1213 118.374 72.8485 117.964C72.5801 117.555 72.448 117.044 72.4522 116.43V106.83ZM82.8793 119.192C81.8949 119.192 81.0447 118.987 80.3288 118.578C79.6172 118.165 79.0696 117.581 78.6861 116.827C78.3026 116.068 78.1108 115.175 78.1108 114.148C78.1108 113.138 78.3026 112.252 78.6861 111.489C79.0739 110.722 79.6151 110.126 80.3097 109.7C81.0043 109.269 81.8203 109.054 82.7578 109.054C83.3629 109.054 83.9339 109.152 84.4709 109.348C85.0121 109.54 85.4893 109.838 85.9027 110.243C86.3203 110.648 86.6484 111.163 86.8871 111.79C87.1257 112.412 87.245 113.153 87.245 114.014V114.724H79.1974V113.164H85.027C85.0227 112.721 84.9268 112.327 84.7393 111.982C84.5518 111.632 84.2898 111.357 83.9531 111.157C83.6207 110.957 83.233 110.857 82.7898 110.857C82.3168 110.857 81.9013 110.972 81.5433 111.202C81.1854 111.428 80.9063 111.726 80.706 112.097C80.5099 112.463 80.4098 112.866 80.4055 113.305V114.666C80.4055 115.237 80.5099 115.727 80.7188 116.136C80.9276 116.541 81.2195 116.852 81.5945 117.07C81.9695 117.283 82.4084 117.389 82.9112 117.389C83.2479 117.389 83.5526 117.342 83.8253 117.249C84.098 117.151 84.3345 117.008 84.5348 116.82C84.7351 116.633 84.8864 116.401 84.9886 116.124L87.1491 116.366C87.0128 116.937 86.7528 117.436 86.3693 117.862C85.9901 118.284 85.5043 118.612 84.9119 118.847C84.3196 119.077 83.642 119.192 82.8793 119.192ZM92.8461 119.173C92.0748 119.173 91.3844 118.974 90.775 118.578C90.1657 118.182 89.6841 117.607 89.3304 116.852C88.9767 116.098 88.7999 115.182 88.7999 114.104C88.7999 113.013 88.9789 112.092 89.3368 111.342C89.699 110.588 90.187 110.019 90.8006 109.636C91.4142 109.248 92.0982 109.054 92.8525 109.054C93.4277 109.054 93.9007 109.152 94.2715 109.348C94.6422 109.54 94.9363 109.772 95.1536 110.045C95.3709 110.313 95.5392 110.567 95.6586 110.805H95.7544V105.909H98.0748V119H95.7992V117.453H95.6586C95.5392 117.692 95.3667 117.945 95.1408 118.214C94.915 118.478 94.6167 118.704 94.2459 118.891C93.8752 119.079 93.4086 119.173 92.8461 119.173ZM93.4917 117.274C93.9817 117.274 94.3993 117.142 94.7445 116.878C95.0897 116.609 95.3517 116.237 95.5307 115.759C95.7097 115.282 95.7992 114.726 95.7992 114.091C95.7992 113.456 95.7097 112.904 95.5307 112.435C95.356 111.967 95.0961 111.602 94.7509 111.342C94.41 111.082 93.9902 110.952 93.4917 110.952C92.976 110.952 92.5456 111.087 92.2005 111.355C91.8553 111.624 91.5953 111.994 91.4206 112.467C91.2459 112.94 91.1586 113.482 91.1586 114.091C91.1586 114.705 91.2459 115.252 91.4206 115.734C91.5996 116.211 91.8617 116.588 92.2069 116.865C92.5563 117.138 92.9846 117.274 93.4917 117.274ZM104.887 119.192C103.903 119.192 103.053 118.987 102.337 118.578C101.625 118.165 101.077 117.581 100.694 116.827C100.31 116.068 100.119 115.175 100.119 114.148C100.119 113.138 100.31 112.252 100.694 111.489C101.082 110.722 101.623 110.126 102.317 109.7C103.012 109.269 103.828 109.054 104.766 109.054C105.371 109.054 105.942 109.152 106.479 109.348C107.02 109.54 107.497 109.838 107.911 110.243C108.328 110.648 108.656 111.163 108.895 111.79C109.134 112.412 109.253 113.153 109.253 114.014V114.724H101.205V113.164H107.035C107.031 112.721 106.935 112.327 106.747 111.982C106.56 111.632 106.298 111.357 105.961 111.157C105.629 110.957 105.241 110.857 104.798 110.857C104.325 110.857 103.909 110.972 103.551 111.202C103.193 111.428 102.914 111.726 102.714 112.097C102.518 112.463 102.418 112.866 102.413 113.305V114.666C102.413 115.237 102.518 115.727 102.727 116.136C102.935 116.541 103.227 116.852 103.602 117.07C103.977 117.283 104.416 117.389 104.919 117.389C105.256 117.389 105.56 117.342 105.833 117.249C106.106 117.151 106.342 117.008 106.543 116.82C106.743 116.633 106.894 116.401 106.996 116.124L109.157 116.366C109.021 116.937 108.761 117.436 108.377 117.862C107.998 118.284 107.512 118.612 106.92 118.847C106.327 119.077 105.65 119.192 104.887 119.192ZM116.113 109.182V110.972H110.469V109.182H116.113ZM111.862 106.83H114.176V116.047C114.176 116.358 114.223 116.597 114.317 116.763C114.415 116.925 114.543 117.036 114.7 117.095C114.858 117.155 115.033 117.185 115.225 117.185C115.369 117.185 115.502 117.174 115.621 117.153C115.744 117.131 115.838 117.112 115.902 117.095L116.292 118.904C116.169 118.947 115.992 118.994 115.762 119.045C115.536 119.096 115.259 119.126 114.931 119.134C114.351 119.151 113.829 119.064 113.365 118.872C112.9 118.676 112.531 118.374 112.259 117.964C111.99 117.555 111.858 117.044 111.862 116.43V106.83ZM127.051 119H122.615V105.909H127.141C128.441 105.909 129.557 106.171 130.49 106.695C131.428 107.215 132.148 107.963 132.651 108.939C133.154 109.915 133.405 111.082 133.405 112.442C133.405 113.805 133.152 114.977 132.645 115.957C132.142 116.937 131.415 117.69 130.465 118.214C129.519 118.738 128.381 119 127.051 119ZM124.987 116.948H126.936C127.848 116.948 128.609 116.782 129.218 116.45C129.828 116.113 130.286 115.612 130.593 114.947C130.9 114.278 131.053 113.443 131.053 112.442C131.053 111.44 130.9 110.609 130.593 109.949C130.286 109.284 129.832 108.788 129.231 108.46C128.635 108.127 127.893 107.961 127.007 107.961H124.987V116.948ZM136.994 122.682C136.679 122.682 136.387 122.656 136.119 122.605C135.854 122.558 135.643 122.503 135.486 122.439L136.023 120.636C136.359 120.734 136.66 120.781 136.924 120.777C137.188 120.773 137.42 120.69 137.621 120.528C137.825 120.37 137.998 120.106 138.138 119.735L138.337 119.205L134.776 109.182H137.231L139.494 116.597H139.596L141.865 109.182H144.326L140.395 120.189C140.212 120.709 139.969 121.154 139.666 121.525C139.364 121.9 138.993 122.185 138.554 122.381C138.119 122.582 137.599 122.682 136.994 122.682ZM153.687 111.777L151.578 112.007C151.518 111.794 151.414 111.594 151.265 111.406C151.12 111.219 150.924 111.067 150.676 110.952C150.429 110.837 150.127 110.78 149.769 110.78C149.287 110.78 148.882 110.884 148.554 111.093C148.23 111.302 148.071 111.572 148.075 111.905C148.071 112.19 148.175 112.423 148.388 112.602C148.605 112.781 148.963 112.928 149.462 113.043L151.137 113.401C152.066 113.601 152.756 113.918 153.208 114.353C153.664 114.788 153.894 115.357 153.898 116.06C153.894 116.678 153.713 117.223 153.355 117.696C153.001 118.165 152.509 118.531 151.878 118.795C151.248 119.06 150.523 119.192 149.705 119.192C148.503 119.192 147.536 118.94 146.803 118.438C146.07 117.93 145.633 117.225 145.493 116.322L147.749 116.104C147.851 116.548 148.069 116.882 148.401 117.108C148.733 117.334 149.166 117.447 149.699 117.447C150.248 117.447 150.689 117.334 151.022 117.108C151.358 116.882 151.527 116.603 151.527 116.271C151.527 115.989 151.418 115.757 151.201 115.574C150.988 115.391 150.655 115.25 150.203 115.152L148.529 114.8C147.587 114.604 146.89 114.274 146.439 113.81C145.987 113.341 145.763 112.749 145.767 112.033C145.763 111.428 145.927 110.903 146.26 110.46C146.596 110.013 147.063 109.668 147.659 109.425C148.26 109.178 148.953 109.054 149.737 109.054C150.887 109.054 151.793 109.299 152.453 109.789C153.118 110.279 153.529 110.942 153.687 111.777ZM163.566 111.777L161.457 112.007C161.397 111.794 161.293 111.594 161.143 111.406C160.999 111.219 160.803 111.067 160.555 110.952C160.308 110.837 160.006 110.78 159.648 110.78C159.166 110.78 158.761 110.884 158.433 111.093C158.109 111.302 157.95 111.572 157.954 111.905C157.95 112.19 158.054 112.423 158.267 112.602C158.484 112.781 158.842 112.928 159.341 113.043L161.016 113.401C161.945 113.601 162.635 113.918 163.087 114.353C163.543 114.788 163.773 115.357 163.777 116.06C163.773 116.678 163.592 117.223 163.234 117.696C162.88 118.165 162.388 118.531 161.757 118.795C161.126 119.06 160.402 119.192 159.584 119.192C158.382 119.192 157.415 118.94 156.682 118.438C155.949 117.93 155.512 117.225 155.371 116.322L157.628 116.104C157.73 116.548 157.947 116.882 158.28 117.108C158.612 117.334 159.045 117.447 159.577 117.447C160.127 117.447 160.568 117.334 160.901 117.108C161.237 116.882 161.406 116.603 161.406 116.271C161.406 115.989 161.297 115.757 161.08 115.574C160.866 115.391 160.534 115.25 160.082 115.152L158.408 114.8C157.466 114.604 156.769 114.274 156.317 113.81C155.866 113.341 155.642 112.749 155.646 112.033C155.642 111.428 155.806 110.903 156.138 110.46C156.475 110.013 156.942 109.668 157.538 109.425C158.139 109.178 158.832 109.054 159.616 109.054C160.766 109.054 161.672 109.299 162.332 109.789C162.997 110.279 163.408 110.942 163.566 111.777ZM170.032 119.192C169.047 119.192 168.197 118.987 167.481 118.578C166.77 118.165 166.222 117.581 165.838 116.827C165.455 116.068 165.263 115.175 165.263 114.148C165.263 113.138 165.455 112.252 165.838 111.489C166.226 110.722 166.767 110.126 167.462 109.7C168.157 109.269 168.973 109.054 169.91 109.054C170.515 109.054 171.086 109.152 171.623 109.348C172.164 109.54 172.642 109.838 173.055 110.243C173.473 110.648 173.801 111.163 174.039 111.79C174.278 112.412 174.397 113.153 174.397 114.014V114.724H166.35V113.164H172.179C172.175 112.721 172.079 112.327 171.892 111.982C171.704 111.632 171.442 111.357 171.105 111.157C170.773 110.957 170.385 110.857 169.942 110.857C169.469 110.857 169.054 110.972 168.696 111.202C168.338 111.428 168.059 111.726 167.858 112.097C167.662 112.463 167.562 112.866 167.558 113.305V114.666C167.558 115.237 167.662 115.727 167.871 116.136C168.08 116.541 168.372 116.852 168.747 117.07C169.122 117.283 169.561 117.389 170.064 117.389C170.4 117.389 170.705 117.342 170.978 117.249C171.25 117.151 171.487 117.008 171.687 116.82C171.887 116.633 172.039 116.401 172.141 116.124L174.301 116.366C174.165 116.937 173.905 117.436 173.522 117.862C173.142 118.284 172.657 118.612 172.064 118.847C171.472 119.077 170.794 119.192 170.032 119.192ZM180.625 122.886C179.794 122.886 179.08 122.773 178.483 122.548C177.887 122.326 177.407 122.028 177.045 121.653C176.683 121.278 176.432 120.862 176.291 120.406L178.375 119.901C178.469 120.093 178.605 120.283 178.784 120.47C178.963 120.662 179.204 120.82 179.506 120.943C179.813 121.071 180.199 121.135 180.663 121.135C181.319 121.135 181.863 120.975 182.293 120.656C182.724 120.34 182.939 119.82 182.939 119.096V117.236H182.824C182.704 117.474 182.53 117.719 182.3 117.971C182.074 118.222 181.773 118.433 181.398 118.604C181.028 118.774 180.561 118.859 179.998 118.859C179.244 118.859 178.56 118.683 177.947 118.329C177.337 117.971 176.851 117.438 176.489 116.731C176.131 116.019 175.952 115.129 175.952 114.059C175.952 112.981 176.131 112.071 176.489 111.33C176.851 110.584 177.339 110.019 177.953 109.636C178.567 109.248 179.251 109.054 180.005 109.054C180.58 109.054 181.053 109.152 181.424 109.348C181.799 109.54 182.097 109.772 182.319 110.045C182.54 110.313 182.709 110.567 182.824 110.805H182.952V109.182H185.233V119.16C185.233 119.999 185.033 120.694 184.633 121.244C184.232 121.793 183.684 122.205 182.99 122.477C182.295 122.75 181.507 122.886 180.625 122.886ZM180.644 117.044C181.134 117.044 181.552 116.925 181.897 116.686C182.242 116.447 182.504 116.104 182.683 115.657C182.862 115.21 182.952 114.673 182.952 114.046C182.952 113.428 182.862 112.887 182.683 112.423C182.508 111.958 182.248 111.598 181.903 111.342C181.562 111.082 181.143 110.952 180.644 110.952C180.128 110.952 179.698 111.087 179.353 111.355C179.008 111.624 178.748 111.992 178.573 112.461C178.398 112.925 178.311 113.454 178.311 114.046C178.311 114.647 178.398 115.173 178.573 115.625C178.752 116.072 179.014 116.422 179.359 116.673C179.709 116.92 180.137 117.044 180.644 117.044ZM190.43 119.198C189.808 119.198 189.248 119.087 188.749 118.866C188.255 118.64 187.863 118.308 187.573 117.869C187.287 117.43 187.145 116.888 187.145 116.245C187.145 115.691 187.247 115.233 187.452 114.871C187.656 114.509 187.935 114.219 188.289 114.001C188.643 113.784 189.041 113.62 189.484 113.509C189.932 113.394 190.394 113.311 190.871 113.26C191.447 113.2 191.913 113.147 192.271 113.1C192.629 113.049 192.889 112.972 193.051 112.87C193.217 112.763 193.3 112.599 193.3 112.378V112.339C193.3 111.858 193.157 111.485 192.872 111.221C192.586 110.957 192.175 110.825 191.638 110.825C191.072 110.825 190.622 110.948 190.29 111.195C189.961 111.442 189.74 111.734 189.625 112.071L187.464 111.764C187.635 111.168 187.916 110.669 188.308 110.268C188.7 109.864 189.18 109.561 189.746 109.361C190.313 109.156 190.939 109.054 191.626 109.054C192.099 109.054 192.569 109.109 193.038 109.22C193.507 109.331 193.935 109.514 194.323 109.77C194.711 110.021 195.022 110.364 195.256 110.799C195.495 111.234 195.614 111.777 195.614 112.429V119H193.39V117.651H193.313C193.172 117.924 192.974 118.18 192.719 118.418C192.467 118.653 192.15 118.842 191.766 118.987C191.387 119.128 190.942 119.198 190.43 119.198ZM191.031 117.498C191.496 117.498 191.898 117.406 192.239 117.223C192.58 117.036 192.842 116.788 193.025 116.482C193.213 116.175 193.307 115.84 193.307 115.478V114.321C193.234 114.381 193.111 114.436 192.936 114.487C192.765 114.538 192.574 114.583 192.361 114.621C192.148 114.66 191.937 114.694 191.728 114.724C191.519 114.754 191.338 114.779 191.184 114.8C190.839 114.847 190.53 114.924 190.258 115.031C189.985 115.137 189.77 115.286 189.612 115.478C189.454 115.665 189.376 115.908 189.376 116.207C189.376 116.633 189.531 116.955 189.842 117.172C190.153 117.389 190.55 117.498 191.031 117.498ZM191.728 108.114C191.314 108.114 190.937 108.021 190.596 107.833C190.26 107.641 189.991 107.386 189.791 107.066C189.595 106.746 189.497 106.388 189.497 105.992C189.497 105.596 189.595 105.234 189.791 104.906C189.991 104.577 190.26 104.315 190.596 104.119C190.937 103.923 191.314 103.825 191.728 103.825C192.141 103.825 192.516 103.923 192.853 104.119C193.189 104.315 193.456 104.577 193.652 104.906C193.848 105.234 193.946 105.596 193.946 105.992C193.946 106.388 193.848 106.746 193.652 107.066C193.456 107.386 193.189 107.641 192.853 107.833C192.516 108.021 192.141 108.114 191.728 108.114ZM191.728 107.028C192.039 107.028 192.295 106.923 192.495 106.714C192.699 106.501 192.802 106.261 192.802 105.992C192.802 105.711 192.699 105.462 192.495 105.244C192.295 105.027 192.039 104.92 191.728 104.925C191.421 104.925 191.165 105.033 190.961 105.251C190.756 105.464 190.654 105.711 190.654 105.992C190.654 106.261 190.756 106.501 190.961 106.714C191.165 106.928 191.421 107.032 191.728 107.028ZM197.941 119V109.182H200.184V110.818H200.287C200.466 110.251 200.773 109.815 201.207 109.508C201.646 109.197 202.147 109.041 202.709 109.041C202.837 109.041 202.98 109.048 203.138 109.06C203.3 109.069 203.434 109.084 203.54 109.105V111.234C203.442 111.2 203.287 111.17 203.074 111.144C202.865 111.114 202.662 111.099 202.466 111.099C202.045 111.099 201.665 111.191 201.329 111.374C200.996 111.553 200.734 111.803 200.542 112.122C200.351 112.442 200.255 112.81 200.255 113.228V119H197.941ZM208.317 119.173C207.545 119.173 206.855 118.974 206.246 118.578C205.636 118.182 205.155 117.607 204.801 116.852C204.447 116.098 204.271 115.182 204.271 114.104C204.271 113.013 204.45 112.092 204.808 111.342C205.17 110.588 205.658 110.019 206.271 109.636C206.885 109.248 207.569 109.054 208.323 109.054C208.898 109.054 209.371 109.152 209.742 109.348C210.113 109.54 210.407 109.772 210.624 110.045C210.842 110.313 211.01 110.567 211.129 110.805H211.225V105.909H213.545V119H211.27V117.453H211.129C211.01 117.692 210.837 117.945 210.612 118.214C210.386 118.478 210.087 118.704 209.717 118.891C209.346 119.079 208.879 119.173 208.317 119.173ZM208.962 117.274C209.452 117.274 209.87 117.142 210.215 116.878C210.56 116.609 210.822 116.237 211.001 115.759C211.18 115.282 211.27 114.726 211.27 114.091C211.27 113.456 211.18 112.904 211.001 112.435C210.827 111.967 210.567 111.602 210.222 111.342C209.881 111.082 209.461 110.952 208.962 110.952C208.447 110.952 208.016 111.087 207.671 111.355C207.326 111.624 207.066 111.994 206.891 112.467C206.717 112.94 206.629 113.482 206.629 114.091C206.629 114.705 206.717 115.252 206.891 115.734C207.07 116.211 207.332 116.588 207.678 116.865C208.027 117.138 208.455 117.274 208.962 117.274ZM224.781 109.182L221.285 119H218.728L215.231 109.182H217.699L219.955 116.475H220.057L222.32 109.182H224.781ZM230.395 119.192C229.411 119.192 228.56 118.987 227.844 118.578C227.133 118.165 226.585 117.581 226.202 116.827C225.818 116.068 225.626 115.175 225.626 114.148C225.626 113.138 225.818 112.252 226.202 111.489C226.589 110.722 227.131 110.126 227.825 109.7C228.52 109.269 229.336 109.054 230.273 109.054C230.879 109.054 231.45 109.152 231.987 109.348C232.528 109.54 233.005 109.838 233.418 110.243C233.836 110.648 234.164 111.163 234.403 111.79C234.641 112.412 234.761 113.153 234.761 114.014V114.724H226.713V113.164H232.543C232.538 112.721 232.442 112.327 232.255 111.982C232.067 111.632 231.805 111.357 231.469 111.157C231.136 110.957 230.749 110.857 230.305 110.857C229.832 110.857 229.417 110.972 229.059 111.202C228.701 111.428 228.422 111.726 228.222 112.097C228.026 112.463 227.925 112.866 227.921 113.305V114.666C227.921 115.237 228.026 115.727 228.234 116.136C228.443 116.541 228.735 116.852 229.11 117.07C229.485 117.283 229.924 117.389 230.427 117.389C230.763 117.389 231.068 117.342 231.341 117.249C231.614 117.151 231.85 117.008 232.05 116.82C232.251 116.633 232.402 116.401 232.504 116.124L234.665 116.366C234.528 116.937 234.268 117.436 233.885 117.862C233.506 118.284 233.02 118.612 232.428 118.847C231.835 119.077 231.158 119.192 230.395 119.192ZM236.718 109.182H239.032V119.562C239.032 120.27 238.898 120.854 238.629 121.314C238.361 121.774 237.973 122.117 237.466 122.343C236.959 122.569 236.343 122.682 235.619 122.682C235.534 122.682 235.455 122.68 235.382 122.675C235.31 122.675 235.231 122.673 235.146 122.669V120.783C235.21 120.788 235.267 120.79 235.318 120.79C235.369 120.794 235.423 120.796 235.478 120.796C235.921 120.796 236.239 120.688 236.431 120.47C236.622 120.257 236.718 119.944 236.718 119.531V109.182ZM237.869 107.788C237.498 107.788 237.181 107.667 236.916 107.424C236.656 107.177 236.526 106.881 236.526 106.536C236.526 106.186 236.656 105.89 236.916 105.647C237.181 105.4 237.498 105.276 237.869 105.276C238.235 105.276 238.548 105.4 238.808 105.647C239.073 105.89 239.205 106.186 239.205 106.536C239.205 106.881 239.073 107.177 238.808 107.424C238.548 107.667 238.235 107.788 237.869 107.788ZM1.7642 139.455C1.7642 137.857 1.97514 136.388 2.39702 135.05C2.82315 133.708 3.45597 132.468 4.29545 131.33H6.47514C6.15128 131.752 5.84872 132.27 5.56747 132.884C5.28622 133.493 5.04119 134.162 4.83239 134.891C4.62784 135.615 4.46591 136.367 4.34659 137.147C4.23153 137.927 4.17401 138.696 4.17401 139.455C4.17401 140.464 4.27415 141.487 4.47443 142.523C4.67898 143.558 4.95384 144.519 5.29901 145.406C5.64844 146.288 6.04048 147.01 6.47514 147.572H4.29545C3.45597 146.435 2.82315 145.197 2.39702 143.859C1.97514 142.516 1.7642 141.048 1.7642 139.455ZM15.4895 136.508C15.4299 135.95 15.1784 135.515 14.7353 135.204C14.2963 134.893 13.7253 134.737 13.0222 134.737C12.5279 134.737 12.1039 134.812 11.7502 134.961C11.3965 135.11 11.1259 135.312 10.9384 135.568C10.7509 135.824 10.655 136.116 10.6507 136.444C10.6507 136.717 10.7125 136.953 10.8361 137.153C10.964 137.354 11.1365 137.524 11.3539 137.665C11.5712 137.801 11.812 137.916 12.0762 138.01C12.3404 138.104 12.6067 138.183 12.8752 138.246L14.1025 138.553C14.5968 138.668 15.0719 138.824 15.5279 139.02C15.9881 139.216 16.3993 139.463 16.7615 139.761C17.128 140.06 17.4178 140.42 17.6309 140.842C17.8439 141.263 17.9505 141.758 17.9505 142.325C17.9505 143.092 17.7544 143.767 17.3624 144.351C16.9703 144.93 16.4036 145.384 15.6621 145.712C14.9249 146.036 14.0321 146.198 12.9838 146.198C11.9654 146.198 11.0811 146.04 10.3311 145.725C9.5854 145.41 9.0016 144.95 8.57972 144.344C8.16211 143.739 7.93626 143.002 7.90217 142.133H10.2353C10.2694 142.589 10.41 142.968 10.6571 143.271C10.9043 143.573 11.226 143.799 11.6223 143.948C12.0229 144.097 12.4703 144.172 12.9647 144.172C13.4803 144.172 13.932 144.095 14.3198 143.942C14.7118 143.784 15.0186 143.567 15.2402 143.29C15.4618 143.009 15.5748 142.68 15.579 142.305C15.5748 141.964 15.4746 141.683 15.2786 141.462C15.0826 141.236 14.8077 141.048 14.454 140.899C14.1046 140.746 13.6955 140.609 13.2267 140.49L11.7374 140.107C10.6593 139.83 9.807 139.41 9.18058 138.847C8.55842 138.281 8.24734 137.528 8.24734 136.591C8.24734 135.82 8.45614 135.144 8.87376 134.565C9.29563 133.985 9.86879 133.536 10.5932 133.216C11.3176 132.892 12.138 132.73 13.0542 132.73C13.9831 132.73 14.7971 132.892 15.4959 133.216C16.199 133.536 16.7509 133.981 17.1515 134.552C17.552 135.119 17.7587 135.771 17.7715 136.508H15.4895ZM21.3239 146.601L20.1669 145.808L27.1534 135.658L28.3232 136.45L21.3239 146.601ZM24.245 146.205C23.2862 146.205 22.4553 145.994 21.7521 145.572C21.049 145.15 20.5036 144.56 20.1158 143.801C19.7322 143.038 19.5405 142.152 19.5405 141.142C19.5405 140.128 19.7322 139.239 20.1158 138.477C20.5036 137.714 21.049 137.121 21.7521 136.7C22.4553 136.278 23.2862 136.067 24.245 136.067C25.2038 136.067 26.0348 136.278 26.7379 136.7C27.4411 137.121 27.9844 137.714 28.3679 138.477C28.7557 139.239 28.9496 140.128 28.9496 141.142C28.9496 142.152 28.7557 143.038 28.3679 143.801C27.9844 144.56 27.4411 145.15 26.7379 145.572C26.0348 145.994 25.2038 146.205 24.245 146.205ZM24.2578 144.351C24.7777 144.351 25.2124 144.208 25.5618 143.923C25.9112 143.633 26.1712 143.245 26.3416 142.759C26.5163 142.273 26.6037 141.73 26.6037 141.129C26.6037 140.533 26.5163 139.991 26.3416 139.506C26.1712 139.016 25.9112 138.626 25.5618 138.336C25.2124 138.046 24.7777 137.901 24.2578 137.901C23.7251 137.901 23.282 138.046 22.9283 138.336C22.5788 138.626 22.3168 139.016 22.142 139.506C21.9716 139.991 21.8864 140.533 21.8864 141.129C21.8864 141.73 21.9716 142.273 22.142 142.759C22.3168 143.245 22.5788 143.633 22.9283 143.923C23.282 144.208 23.7251 144.351 24.2578 144.351ZM31.0158 146V132.909H33.3297V137.805H33.4256C33.5449 137.567 33.7132 137.313 33.9306 137.045C34.1479 136.772 34.4419 136.54 34.8127 136.348C35.1834 136.152 35.6564 136.054 36.2317 136.054C36.9902 136.054 37.6742 136.248 38.2836 136.636C38.8972 137.019 39.383 137.588 39.7409 138.342C40.1032 139.092 40.2843 140.013 40.2843 141.104C40.2843 142.182 40.1074 143.098 39.7537 143.852C39.4 144.607 38.9185 145.182 38.3091 145.578C37.6998 145.974 37.0094 146.173 36.2381 146.173C35.6756 146.173 35.209 146.079 34.8382 145.891C34.4675 145.704 34.1692 145.478 33.9434 145.214C33.7218 144.945 33.5492 144.692 33.4256 144.453H33.2914V146H31.0158ZM33.285 141.091C33.285 141.726 33.3745 142.282 33.5534 142.759C33.7367 143.237 33.9988 143.609 34.3397 143.878C34.6848 144.142 35.1025 144.274 35.5925 144.274C36.1039 144.274 36.5321 144.138 36.8773 143.865C37.2225 143.588 37.4824 143.211 37.6571 142.734C37.8361 142.252 37.9256 141.705 37.9256 141.091C37.9256 140.482 37.8382 139.94 37.6635 139.467C37.4888 138.994 37.2289 138.624 36.8837 138.355C36.5385 138.087 36.1081 137.952 35.5925 137.952C35.0982 137.952 34.6784 138.082 34.3333 138.342C33.9881 138.602 33.726 138.967 33.5471 139.435C33.3723 139.904 33.285 140.456 33.285 141.091ZM46.5341 146.192C45.5753 146.192 44.7443 145.981 44.0412 145.559C43.3381 145.137 42.7926 144.547 42.4048 143.788C42.0213 143.03 41.8295 142.143 41.8295 141.129C41.8295 140.115 42.0213 139.227 42.4048 138.464C42.7926 137.701 43.3381 137.109 44.0412 136.687C44.7443 136.265 45.5753 136.054 46.5341 136.054C47.4929 136.054 48.3239 136.265 49.027 136.687C49.7301 137.109 50.2734 137.701 50.657 138.464C51.0447 139.227 51.2386 140.115 51.2386 141.129C51.2386 142.143 51.0447 143.03 50.657 143.788C50.2734 144.547 49.7301 145.137 49.027 145.559C48.3239 145.981 47.4929 146.192 46.5341 146.192ZM46.5469 144.338C47.0668 144.338 47.5014 144.195 47.8509 143.91C48.2003 143.62 48.4602 143.232 48.6307 142.746C48.8054 142.261 48.8928 141.719 48.8928 141.123C48.8928 140.522 48.8054 139.979 48.6307 139.493C48.4602 139.003 48.2003 138.613 47.8509 138.323C47.5014 138.033 47.0668 137.888 46.5469 137.888C46.0142 137.888 45.571 138.033 45.2173 138.323C44.8679 138.613 44.6058 139.003 44.4311 139.493C44.2607 139.979 44.1754 140.522 44.1754 141.123C44.1754 141.719 44.2607 142.261 44.4311 142.746C44.6058 143.232 44.8679 143.62 45.2173 143.91C45.571 144.195 46.0142 144.338 46.5469 144.338ZM53.2026 146V136.182H55.4462V137.818H55.5485C55.7275 137.251 56.0343 136.815 56.4689 136.508C56.9078 136.197 57.4086 136.041 57.9711 136.041C58.0989 136.041 58.2417 136.048 58.3993 136.06C58.5613 136.069 58.6955 136.084 58.802 136.105V138.234C58.704 138.2 58.5485 138.17 58.3354 138.144C58.1266 138.114 57.9242 138.099 57.7282 138.099C57.3063 138.099 56.927 138.191 56.5904 138.374C56.258 138.553 55.9959 138.803 55.8042 139.122C55.6124 139.442 55.5165 139.81 55.5165 140.228V146H53.2026ZM64.2049 149.886C63.3739 149.886 62.6602 149.773 62.0636 149.548C61.467 149.326 60.9876 149.028 60.6254 148.653C60.2631 148.278 60.0117 147.862 59.8711 147.406L61.9549 146.901C62.0487 147.093 62.185 147.283 62.364 147.47C62.543 147.662 62.7837 147.82 63.0863 147.943C63.3931 148.071 63.7788 148.135 64.2433 148.135C64.8995 148.135 65.4428 147.975 65.8732 147.656C66.3036 147.34 66.5188 146.82 66.5188 146.096V144.236H66.4038C66.2844 144.474 66.1097 144.719 65.8796 144.971C65.6538 145.222 65.3533 145.433 64.9783 145.604C64.6076 145.774 64.141 145.859 63.5785 145.859C62.8242 145.859 62.1403 145.683 61.5266 145.329C60.9173 144.971 60.4315 144.438 60.0692 143.731C59.7113 143.019 59.5323 142.129 59.5323 141.059C59.5323 139.981 59.7113 139.071 60.0692 138.33C60.4315 137.584 60.9194 137.019 61.533 136.636C62.1467 136.248 62.8306 136.054 63.5849 136.054C64.1602 136.054 64.6332 136.152 65.0039 136.348C65.3789 136.54 65.6772 136.772 65.8988 137.045C66.1204 137.313 66.2887 137.567 66.4038 137.805H66.5316V136.182H68.8136V146.16C68.8136 146.999 68.6133 147.694 68.2127 148.244C67.8121 148.793 67.2646 149.205 66.57 149.477C65.8754 149.75 65.087 149.886 64.2049 149.886ZM64.2241 144.044C64.7141 144.044 65.1317 143.925 65.4769 143.686C65.8221 143.447 66.0842 143.104 66.2631 142.657C66.4421 142.21 66.5316 141.673 66.5316 141.046C66.5316 140.428 66.4421 139.887 66.2631 139.423C66.0884 138.958 65.8285 138.598 65.4833 138.342C65.1424 138.082 64.7227 137.952 64.2241 137.952C63.7085 137.952 63.2781 138.087 62.9329 138.355C62.5877 138.624 62.3278 138.992 62.1531 139.461C61.9783 139.925 61.891 140.454 61.891 141.046C61.891 141.647 61.9783 142.173 62.1531 142.625C62.332 143.072 62.5941 143.422 62.9393 143.673C63.2887 143.92 63.717 144.044 64.2241 144.044ZM75.7521 146V132.909H78.1236V138.451H84.1896V132.909H86.5675V146H84.1896V140.439H78.1236V146H75.7521ZM93.3271 146.192C92.3683 146.192 91.5373 145.981 90.8342 145.559C90.131 145.137 89.5856 144.547 89.1978 143.788C88.8143 143.03 88.6225 142.143 88.6225 141.129C88.6225 140.115 88.8143 139.227 89.1978 138.464C89.5856 137.701 90.131 137.109 90.8342 136.687C91.5373 136.265 92.3683 136.054 93.3271 136.054C94.2859 136.054 95.1168 136.265 95.82 136.687C96.5231 137.109 97.0664 137.701 97.4499 138.464C97.8377 139.227 98.0316 140.115 98.0316 141.129C98.0316 142.143 97.8377 143.03 97.4499 143.788C97.0664 144.547 96.5231 145.137 95.82 145.559C95.1168 145.981 94.2859 146.192 93.3271 146.192ZM93.3398 144.338C93.8597 144.338 94.2944 144.195 94.6438 143.91C94.9933 143.62 95.2532 143.232 95.4237 142.746C95.5984 142.261 95.6857 141.719 95.6857 141.123C95.6857 140.522 95.5984 139.979 95.4237 139.493C95.2532 139.003 94.9933 138.613 94.6438 138.323C94.2944 138.033 93.8597 137.888 93.3398 137.888C92.8072 137.888 92.364 138.033 92.0103 138.323C91.6609 138.613 91.3988 139.003 91.2241 139.493C91.0536 139.979 90.9684 140.522 90.9684 141.123C90.9684 141.719 91.0536 142.261 91.2241 142.746C91.3988 143.232 91.6609 143.62 92.0103 143.91C92.364 144.195 92.8072 144.338 93.3398 144.338ZM108.431 136.182L104.935 146H102.378L98.8817 136.182H101.349L103.605 143.475H103.708L105.971 136.182H108.431ZM114.045 146.192C113.061 146.192 112.211 145.987 111.495 145.578C110.783 145.165 110.236 144.581 109.852 143.827C109.469 143.068 109.277 142.175 109.277 141.148C109.277 140.138 109.469 139.252 109.852 138.489C110.24 137.722 110.781 137.126 111.476 136.7C112.17 136.269 112.986 136.054 113.924 136.054C114.529 136.054 115.1 136.152 115.637 136.348C116.178 136.54 116.655 136.838 117.069 137.243C117.486 137.648 117.814 138.163 118.053 138.79C118.292 139.412 118.411 140.153 118.411 141.014V141.724H110.363V140.164H116.193C116.189 139.721 116.093 139.327 115.905 138.982C115.718 138.632 115.456 138.357 115.119 138.157C114.787 137.957 114.399 137.857 113.956 137.857C113.483 137.857 113.067 137.972 112.709 138.202C112.351 138.428 112.072 138.726 111.872 139.097C111.676 139.463 111.576 139.866 111.572 140.305V141.666C111.572 142.237 111.676 142.727 111.885 143.136C112.094 143.541 112.385 143.852 112.76 144.07C113.135 144.283 113.574 144.389 114.077 144.389C114.414 144.389 114.719 144.342 114.991 144.249C115.264 144.151 115.501 144.008 115.701 143.82C115.901 143.633 116.052 143.401 116.155 143.124L118.315 143.366C118.179 143.937 117.919 144.436 117.535 144.862C117.156 145.284 116.67 145.612 116.078 145.847C115.486 146.077 114.808 146.192 114.045 146.192ZM124.012 146.173C123.241 146.173 122.55 145.974 121.941 145.578C121.332 145.182 120.85 144.607 120.496 143.852C120.143 143.098 119.966 142.182 119.966 141.104C119.966 140.013 120.145 139.092 120.503 138.342C120.865 137.588 121.353 137.019 121.967 136.636C122.58 136.248 123.264 136.054 124.018 136.054C124.594 136.054 125.067 136.152 125.438 136.348C125.808 136.54 126.102 136.772 126.32 137.045C126.537 137.313 126.705 137.567 126.825 137.805H126.92V132.909H129.241V146H126.965V144.453H126.825C126.705 144.692 126.533 144.945 126.307 145.214C126.081 145.478 125.783 145.704 125.412 145.891C125.041 146.079 124.575 146.173 124.012 146.173ZM124.658 144.274C125.148 144.274 125.565 144.142 125.911 143.878C126.256 143.609 126.518 143.237 126.697 142.759C126.876 142.282 126.965 141.726 126.965 141.091C126.965 140.456 126.876 139.904 126.697 139.435C126.522 138.967 126.262 138.602 125.917 138.342C125.576 138.082 125.156 137.952 124.658 137.952C124.142 137.952 123.712 138.087 123.366 138.355C123.021 138.624 122.761 138.994 122.587 139.467C122.412 139.94 122.325 140.482 122.325 141.091C122.325 141.705 122.412 142.252 122.587 142.734C122.766 143.211 123.028 143.588 123.373 143.865C123.722 144.138 124.151 144.274 124.658 144.274ZM135.976 149.886C135.145 149.886 134.432 149.773 133.835 149.548C133.238 149.326 132.759 149.028 132.397 148.653C132.035 148.278 131.783 147.862 131.643 147.406L133.726 146.901C133.82 147.093 133.956 147.283 134.135 147.47C134.314 147.662 134.555 147.82 134.858 147.943C135.165 148.071 135.55 148.135 136.015 148.135C136.671 148.135 137.214 147.975 137.645 147.656C138.075 147.34 138.29 146.82 138.29 146.096V144.236H138.175C138.056 144.474 137.881 144.719 137.651 144.971C137.425 145.222 137.125 145.433 136.75 145.604C136.379 145.774 135.912 145.859 135.35 145.859C134.596 145.859 133.912 145.683 133.298 145.329C132.689 144.971 132.203 144.438 131.841 143.731C131.483 143.019 131.304 142.129 131.304 141.059C131.304 139.981 131.483 139.071 131.841 138.33C132.203 137.584 132.691 137.019 133.305 136.636C133.918 136.248 134.602 136.054 135.356 136.054C135.932 136.054 136.405 136.152 136.775 136.348C137.15 136.54 137.449 136.772 137.67 137.045C137.892 137.313 138.06 137.567 138.175 137.805H138.303V136.182H140.585V146.16C140.585 146.999 140.385 147.694 139.984 148.244C139.584 148.793 139.036 149.205 138.341 149.477C137.647 149.75 136.858 149.886 135.976 149.886ZM135.996 144.044C136.486 144.044 136.903 143.925 137.248 143.686C137.594 143.447 137.856 143.104 138.035 142.657C138.214 142.21 138.303 141.673 138.303 141.046C138.303 140.428 138.214 139.887 138.035 139.423C137.86 138.958 137.6 138.598 137.255 138.342C136.914 138.082 136.494 137.952 135.996 137.952C135.48 137.952 135.05 138.087 134.704 138.355C134.359 138.624 134.099 138.992 133.925 139.461C133.75 139.925 133.662 140.454 133.662 141.046C133.662 141.647 133.75 142.173 133.925 142.625C134.104 143.072 134.366 143.422 134.711 143.673C135.06 143.92 135.488 144.044 135.996 144.044ZM145.782 146.198C145.16 146.198 144.599 146.087 144.101 145.866C143.606 145.64 143.214 145.308 142.925 144.869C142.639 144.43 142.496 143.888 142.496 143.245C142.496 142.691 142.599 142.233 142.803 141.871C143.008 141.509 143.287 141.219 143.64 141.001C143.994 140.784 144.393 140.62 144.836 140.509C145.283 140.394 145.746 140.311 146.223 140.26C146.798 140.2 147.265 140.147 147.623 140.1C147.981 140.049 148.241 139.972 148.403 139.87C148.569 139.763 148.652 139.599 148.652 139.378V139.339C148.652 138.858 148.509 138.485 148.224 138.221C147.938 137.957 147.527 137.825 146.99 137.825C146.423 137.825 145.974 137.948 145.641 138.195C145.313 138.442 145.091 138.734 144.976 139.071L142.816 138.764C142.986 138.168 143.268 137.669 143.66 137.268C144.052 136.864 144.531 136.561 145.098 136.361C145.665 136.156 146.291 136.054 146.977 136.054C147.45 136.054 147.921 136.109 148.39 136.22C148.858 136.331 149.287 136.514 149.675 136.77C150.062 137.021 150.373 137.364 150.608 137.799C150.846 138.234 150.966 138.777 150.966 139.429V146H148.741V144.651H148.665C148.524 144.924 148.326 145.18 148.07 145.418C147.819 145.653 147.501 145.842 147.118 145.987C146.738 146.128 146.293 146.198 145.782 146.198ZM146.383 144.498C146.847 144.498 147.25 144.406 147.591 144.223C147.932 144.036 148.194 143.788 148.377 143.482C148.564 143.175 148.658 142.84 148.658 142.478V141.321C148.586 141.381 148.462 141.436 148.287 141.487C148.117 141.538 147.925 141.583 147.712 141.621C147.499 141.66 147.288 141.694 147.079 141.724C146.871 141.754 146.689 141.779 146.536 141.8C146.191 141.847 145.882 141.924 145.609 142.031C145.336 142.137 145.121 142.286 144.964 142.478C144.806 142.665 144.727 142.908 144.727 143.207C144.727 143.633 144.883 143.955 145.194 144.172C145.505 144.389 145.901 144.498 146.383 144.498ZM156.936 146.173C156.165 146.173 155.474 145.974 154.865 145.578C154.256 145.182 153.774 144.607 153.42 143.852C153.067 143.098 152.89 142.182 152.89 141.104C152.89 140.013 153.069 139.092 153.427 138.342C153.789 137.588 154.277 137.019 154.89 136.636C155.504 136.248 156.188 136.054 156.942 136.054C157.518 136.054 157.991 136.152 158.361 136.348C158.732 136.54 159.026 136.772 159.243 137.045C159.461 137.313 159.629 137.567 159.748 137.805H159.844V132.909H162.165V146H159.889V144.453H159.748C159.629 144.692 159.456 144.945 159.231 145.214C159.005 145.478 158.706 145.704 158.336 145.891C157.965 146.079 157.498 146.173 156.936 146.173ZM157.581 144.274C158.072 144.274 158.489 144.142 158.834 143.878C159.18 143.609 159.442 143.237 159.621 142.759C159.8 142.282 159.889 141.726 159.889 141.091C159.889 140.456 159.8 139.904 159.621 139.435C159.446 138.967 159.186 138.602 158.841 138.342C158.5 138.082 158.08 137.952 157.581 137.952C157.066 137.952 156.635 138.087 156.29 138.355C155.945 138.624 155.685 138.994 155.51 139.467C155.336 139.94 155.248 140.482 155.248 141.091C155.248 141.705 155.336 142.252 155.51 142.734C155.689 143.211 155.952 143.588 156.297 143.865C156.646 144.138 157.074 144.274 157.581 144.274ZM168.977 146.192C167.993 146.192 167.142 145.987 166.426 145.578C165.715 145.165 165.167 144.581 164.784 143.827C164.4 143.068 164.208 142.175 164.208 141.148C164.208 140.138 164.4 139.252 164.784 138.489C165.172 137.722 165.713 137.126 166.407 136.7C167.102 136.269 167.918 136.054 168.855 136.054C169.461 136.054 170.032 136.152 170.569 136.348C171.11 136.54 171.587 136.838 172 137.243C172.418 137.648 172.746 138.163 172.985 138.79C173.223 139.412 173.343 140.153 173.343 141.014V141.724H165.295V140.164H171.125C171.12 139.721 171.025 139.327 170.837 138.982C170.65 138.632 170.387 138.357 170.051 138.157C169.718 137.957 169.331 137.857 168.887 137.857C168.414 137.857 167.999 137.972 167.641 138.202C167.283 138.428 167.004 138.726 166.804 139.097C166.608 139.463 166.507 139.866 166.503 140.305V141.666C166.503 142.237 166.608 142.727 166.816 143.136C167.025 143.541 167.317 143.852 167.692 144.07C168.067 144.283 168.506 144.389 169.009 144.389C169.346 144.389 169.65 144.342 169.923 144.249C170.196 144.151 170.432 144.008 170.632 143.82C170.833 143.633 170.984 143.401 171.086 143.124L173.247 143.366C173.11 143.937 172.85 144.436 172.467 144.862C172.088 145.284 171.602 145.612 171.01 145.847C170.417 146.077 169.74 146.192 168.977 146.192ZM179.43 140.663C179.43 142.256 179.216 143.724 178.79 145.067C178.368 146.405 177.738 147.643 176.898 148.781H174.719C175.047 148.359 175.349 147.843 175.626 147.234C175.907 146.624 176.15 145.955 176.355 145.227C176.564 144.498 176.726 143.744 176.841 142.964C176.96 142.184 177.02 141.417 177.02 140.663C177.02 139.653 176.917 138.63 176.713 137.594C176.513 136.559 176.238 135.598 175.888 134.712C175.543 133.825 175.153 133.101 174.719 132.538H176.898C177.738 133.676 178.368 134.916 178.79 136.259C179.216 137.597 179.43 139.065 179.43 140.663Z" fill="#72AA9A"/>
<path d="M147.729 50.4163H125.271C121.375 50.4163 118.167 47.2309 118.167 43.3122V11.6872C118.167 7.79136 121.352 4.58301 125.271 4.58301H147.729C151.625 4.58301 154.834 7.76844 154.834 11.6872V43.3122C154.834 47.2309 151.648 50.4163 147.729 50.4163Z" stroke="#72AA9A" stroke-width="1.5" stroke-linecap="round" stroke-linejoin="round"/>
<path d="M151.396 29.7913H121.604C119.702 29.7913 118.167 28.2559 118.167 26.3538V21.7705C118.167 19.8684 119.702 18.333 121.604 18.333H151.396C153.298 18.333 154.834 19.8684 154.834 21.7705V26.3538C154.834 28.2559 153.298 29.7913 151.396 29.7913Z" stroke="#72AA9A" stroke-width="1.5" stroke-linecap="round" stroke-linejoin="round"/>
<path d="M128.466 40.5628H128.487" stroke="#72AA9A" stroke-width="2.5" stroke-linecap="round" stroke-linejoin="round"/>
<path d="M144.508 40.5628H144.529" stroke="#72AA9A" stroke-width="2.5" stroke-linecap="round" stroke-linejoin="round"/>
<path d="M130.771 11.458H142.229" stroke="#72AA9A" stroke-width="1.5" stroke-linecap="round" stroke-linejoin="round"/>
<path d="M122.469 50C122.469 50 121.414 53.0941 122.469 54.5C123.875 56.3745 127.063 56.3745 128.469 54.5C129.523 53.0941 128.469 50 128.469 50" stroke="#72AA9A"/>
<path d="M144.469 50C144.469 50 143.414 53.0941 144.469 54.5C145.875 56.3745 149.063 56.3745 150.469 54.5C151.523 53.0941 150.469 50 150.469 50" stroke="#72AA9A"/>
</svg>
