<svg width="370" height="370" viewBox="0 0 370 370" fill="none" xmlns="http://www.w3.org/2000/svg">
<g opacity="0.5" clip-path="url(#clip0_199_54591)">
<path d="M369.988 179.146C370.296 219.209 354.159 250.789 343.348 268.034C344.182 272.344 343.578 276.819 341.634 280.732C340.241 283.373 339.169 283.64 333.005 289.62C326.028 296.389 325.695 297.709 323.143 298.509C321.281 299.093 316.745 299.881 309.583 294.7L287.553 327.944C285.678 329.35 283.969 330.978 282.462 332.794C279.466 336.413 278.998 338.712 277.531 340.413C275.521 342.75 271.083 344.616 260.272 342.089L249.572 347.626C246.419 351.416 242.986 354.948 239.303 358.191C232.375 364.311 227.74 368.349 222.044 369.619C209.865 372.248 198.449 360.616 196.156 358.191C192.467 358.573 188.751 358.573 185.062 358.191C176.286 357.235 167.846 354.192 160.406 349.302L100.001 326.445C91.7542 320.756 84.9863 316.566 80.2772 313.747C73.4354 309.658 68.529 307.068 65.4841 301.049C64.1457 298.366 63.341 295.434 63.1172 292.427L51.5539 277.989C47.2546 275.091 43.2487 271.756 39.5962 268.034C34.5296 262.878 24.7045 252.872 22.3376 238.828C21.3884 233.177 22.3376 231.285 23.5703 219.78C24.7354 208.394 25.1472 196.939 24.8031 185.495L22.3376 179.146C19.1107 181.47 15.1216 182.383 11.2428 181.686C8.52185 181.083 6.02769 179.684 4.05968 177.656C2.09166 175.629 0.733418 173.06 0.147944 170.257C-0.936883 164.277 3.57501 162.639 6.31173 153.75C10.7373 139.388 3.10656 129.941 8.77725 124.544C12.9193 120.595 19.379 123.376 21.1048 119.465C22.4116 116.506 18.9475 114.385 18.6393 109.306C18.2695 103.198 22.9293 100.303 28.5014 91.5286C31.8298 86.2843 30.1656 87.3128 37.1307 72.4813C46.0682 53.434 48.8296 51.6817 50.691 50.8944C52.5525 50.1071 59.0368 47.9357 70.3165 55.6308C83.8768 42.0945 130.475 -1.13012 196.156 0.101601C288.515 1.84125 369.31 90.5381 369.988 179.146Z" fill="url(#paint0_radial_199_54591)"/>
<path d="M323.956 245.24C295.603 300.655 231.734 332.477 165.005 323.753C156.515 325.211 147.806 324.438 139.684 321.506C129.008 317.468 122.721 310.458 118 305.366C91.1255 276.376 88.8572 281.138 77.5281 266.002C69.7741 255.665 55.1782 232.555 51.6402 193.495C46.9557 200.212 41.396 203.933 37.5745 202.549C34.209 201.343 33.2105 196.555 31.8052 189.355C30.6587 183.489 29.2287 172.492 32.0024 156.404C32.9051 151.245 34.1406 146.155 35.7007 141.166C32.1873 132.734 33.0625 127.68 34.4679 124.658C37.1306 118.728 42.0247 119.858 46.327 112.443C49.5075 106.97 50.1116 100.735 50.5554 96.0746C50.8083 93.2465 50.8742 90.404 50.7527 87.5668C50.7477 79.0626 52.2474 70.6287 55.1782 62.6783C58.6397 61.3138 61.7011 59.0526 64.0664 56.1133C67.062 52.3039 66.9511 49.4468 68.6769 47.1357C71.0068 44.0374 76.9117 41.5612 93.2458 45.6246C96.6235 43.4659 178.775 -7.19984 256.426 36.0502C325.239 74.2845 362.258 170.511 323.956 245.24Z" fill="url(#paint1_radial_199_54591)"/>
<path d="M329.233 255.767C293.31 307.83 226.741 332.718 163.538 316.96C155.206 317.502 146.883 315.781 139.4 311.969C129.698 306.89 124.681 299.195 120.909 293.62C99.3479 261.951 96.4263 266.433 87.7723 250.231C81.8551 239.132 71.2657 214.676 73.8422 175.4C68.2824 181.584 62.3406 184.683 58.8519 182.917C55.7823 181.356 55.5481 176.492 55.2892 169.178C55.0796 163.223 55.3754 152.137 60.5037 136.442C62.1529 131.396 64.1129 126.463 66.3717 121.674C64.2513 112.925 65.8786 107.985 67.6044 105.166C71.0808 99.5538 75.642 101.192 80.9305 94.2841C84.8384 89.2048 86.3794 83.0462 87.5258 78.4621C88.198 75.6795 88.6921 72.8544 89.0051 70.0051C90.3162 61.4968 93.0482 53.2867 97.0797 45.7389C100.714 44.7313 104.045 42.8017 106.769 40.1263C110.246 36.6343 110.578 33.7772 112.6 31.6947C115.324 28.8503 121.414 27.0218 136.59 32.7994C140.177 31.009 227.37 -10.6411 295.862 40.6088C356.551 85.9414 377.668 185.533 329.233 255.767Z" fill="url(#paint2_radial_199_54591)"/>
<path opacity="0.09" d="M335.002 86.6525L232.227 123.172C231.561 119.363 230.883 115.554 230.218 111.744C230.883 103.372 231.553 95.0037 232.227 86.6398L316.868 56.9514L335.002 77.4971V86.6525Z" fill="black"/>
<path opacity="0.09" d="M270.701 92.392L174.004 41.2056L180.624 31.8089L199.621 15.9362L278.973 58.3735L277.099 86.081L270.701 92.392Z" fill="black"/>
<path d="M344.05 83.262L234.409 118.69L232.264 107.617L234.409 83.262L324.709 54.4752L344.05 74.3987V83.262Z" fill="#96716B"/>
<path d="M344.05 74.3987L232.264 107.617V69.967L322.551 41.1802L344.05 74.3987Z" fill="#A38078"/>
<path d="M332.647 73.7003L240.856 100.976V70.0813L314.994 46.4373L332.647 73.7003Z" fill="#96716B"/>
<path d="M272.587 91.6682L171.378 35.6184L177.542 26.2979L195.972 10.8696L279.047 57.2942L278.727 85.4842L272.587 91.6682Z" fill="#96716B"/>
<path d="M278.739 85.4842L177.566 26.2979L203.713 0L286.789 46.4246C284.101 59.4529 281.418 72.4728 278.739 85.4842Z" fill="#A38078"/>
<path d="M271.256 76.5828L188.193 27.9995L209.655 6.4126L277.864 44.5072C275.661 55.2075 273.459 65.8994 271.256 76.5828Z" fill="#96716B"/>
</g>
<defs>
<radialGradient id="paint0_radial_199_54591" cx="0" cy="0" r="1" gradientUnits="userSpaceOnUse" gradientTransform="translate(184.988 185.038) scale(182.3 187.781)">
<stop stop-color="#BC9A95"/>
<stop offset="0.05" stop-color="#BA9893"/>
<stop offset="0.65" stop-color="#A38078"/>
<stop offset="0.77" stop-color="#A6837B"/>
<stop offset="0.88" stop-color="#AE8C85"/>
<stop offset="0.97" stop-color="#BC9A97"/>
<stop offset="1" stop-color="#C1A09D"/>
</radialGradient>
<radialGradient id="paint1_radial_199_54591" cx="0" cy="0" r="1" gradientUnits="userSpaceOnUse" gradientTransform="translate(186.434 166.914) rotate(28.6595) scale(159.458 155.547)">
<stop stop-color="#BC9A95"/>
<stop offset="0.05" stop-color="#BA9893"/>
<stop offset="0.65" stop-color="#A38078"/>
<stop offset="0.77" stop-color="#A6837B"/>
<stop offset="0.88" stop-color="#AE8C85"/>
<stop offset="0.97" stop-color="#BC9A97"/>
<stop offset="1" stop-color="#C1A09D"/>
</radialGradient>
<radialGradient id="paint2_radial_199_54591" cx="0" cy="0" r="1" gradientUnits="userSpaceOnUse" gradientTransform="translate(205.587 168.378) scale(149.583 154.08)">
<stop stop-color="#BC9A95"/>
<stop offset="0.05" stop-color="#BA9893"/>
<stop offset="0.65" stop-color="#A38078"/>
<stop offset="0.77" stop-color="#A6837B"/>
<stop offset="0.88" stop-color="#AE8C85"/>
<stop offset="0.97" stop-color="#BC9A97"/>
<stop offset="1" stop-color="#C1A09D"/>
</radialGradient>
<clipPath id="clip0_199_54591">
<rect width="370" height="370" fill="white"/>
</clipPath>
</defs>
</svg>
