<svg width="272" height="161" viewBox="0 0 272 161" fill="none" xmlns="http://www.w3.org/2000/svg">
<path d="M118.792 19.542C117.969 19.7928 117.065 19.5653 116.458 18.9587C115.852 18.352 115.624 17.4478 115.875 16.6253C118.401 16.4328 120.932 16.2345 123.458 16.042V18.3753C121.125 24.9845 118.792 31.5995 116.458 38.2087" stroke="#F291BA" stroke-width="2" stroke-miterlimit="10"/>
<path d="M146.792 20.708H122" stroke="#F291BA" stroke-width="2" stroke-miterlimit="10"/>
<path d="M149.708 16.625C145.433 23.7242 141.151 30.8175 136.875 37.9167L122.875 21.2917" stroke="#F291BA" stroke-width="2" stroke-miterlimit="10"/>
<path d="M145.042 15.458C146.389 15.7788 148.18 16.0705 150.292 16.0413C152.141 16.018 153.722 15.7555 154.959 15.458" stroke="#F291BA" stroke-width="3" stroke-miterlimit="10" stroke-linecap="round"/>
<path d="M116.458 50.458C123.223 50.458 128.708 44.9735 128.708 38.208C128.708 31.4425 123.223 25.958 116.458 25.958C109.693 25.958 104.208 31.4425 104.208 38.208C104.208 44.9735 109.693 50.458 116.458 50.458Z" stroke="#F291BA" stroke-width="2" stroke-miterlimit="10" stroke-linecap="round"/>
<path d="M155.542 50.458C162.307 50.458 167.792 44.9735 167.792 38.208C167.792 31.4425 162.307 25.958 155.542 25.958C148.777 25.958 143.292 31.4425 143.292 38.208C143.292 44.9735 148.777 50.458 155.542 50.458Z" stroke="#F291BA" stroke-width="2" stroke-miterlimit="10" stroke-linecap="round"/>
<path d="M137.75 38.5003H156.125C153.255 32.7662 150.385 27.0262 147.509 21.292" stroke="#F291BA" stroke-width="2" stroke-miterlimit="10" stroke-linecap="square"/>
<path d="M3.04261 86.9091L6.44957 97.2131H6.58381L9.98438 86.9091H12.5923L7.97727 100H5.04972L0.441051 86.9091H3.04261ZM14.2143 100V90.1818H16.5282V100H14.2143ZM15.3777 88.7884C15.0112 88.7884 14.6958 88.6669 14.4316 88.424C14.1674 88.1768 14.0353 87.8807 14.0353 87.5355C14.0353 87.1861 14.1674 86.8899 14.4316 86.647C14.6958 86.3999 15.0112 86.2763 15.3777 86.2763C15.7484 86.2763 16.0637 86.3999 16.3237 86.647C16.5879 86.8899 16.72 87.1861 16.72 87.5355C16.72 87.8807 16.5879 88.1768 16.3237 88.424C16.0637 88.6669 15.7484 88.7884 15.3777 88.7884ZM25.6864 94.2472V100H23.3725V86.9091H25.6353V91.8501H25.7504C25.9805 91.2962 26.3363 90.8594 26.8178 90.5398C27.3036 90.2159 27.9215 90.054 28.6715 90.054C29.3533 90.054 29.9478 90.1967 30.4549 90.4822C30.962 90.7678 31.354 91.1854 31.631 91.7351C31.9123 92.2848 32.0529 92.956 32.0529 93.7486V100H29.739V94.1065C29.739 93.446 29.5685 92.9325 29.2276 92.5661C28.891 92.1953 28.418 92.0099 27.8086 92.0099C27.3995 92.0099 27.033 92.0994 26.7092 92.2784C26.3896 92.4531 26.1381 92.7067 25.9549 93.0391C25.7759 93.3714 25.6864 93.7741 25.6864 94.2472ZM37.2369 100.198C36.6147 100.198 36.0543 100.087 35.5558 99.8658C35.0614 99.6399 34.6694 99.3075 34.3796 98.8686C34.0941 98.4297 33.9513 97.8885 33.9513 97.245C33.9513 96.6911 34.0536 96.233 34.2582 95.8707C34.4627 95.5085 34.7418 95.2188 35.0955 95.0014C35.4492 94.7841 35.8477 94.62 36.2908 94.5092C36.7383 94.3942 37.2006 94.3111 37.6779 94.2599C38.2532 94.2003 38.7198 94.147 39.0778 94.1001C39.4357 94.049 39.6957 93.9723 39.8576 93.87C40.0238 93.7635 40.1069 93.5994 40.1069 93.3778V93.3395C40.1069 92.858 39.9641 92.4851 39.6786 92.2209C39.3931 91.9567 38.9819 91.8246 38.445 91.8246C37.8782 91.8246 37.4286 91.9482 37.0962 92.1953C36.7681 92.4425 36.5465 92.7344 36.4315 93.071L34.271 92.7642C34.4414 92.1676 34.7227 91.669 35.1147 91.2685C35.5067 90.8636 35.9862 90.5611 36.5529 90.3608C37.1197 90.1562 37.7461 90.054 38.4322 90.054C38.9052 90.054 39.3761 90.1094 39.8448 90.2202C40.3136 90.331 40.7418 90.5142 41.1296 90.7699C41.5174 91.0213 41.8285 91.3643 42.0629 91.799C42.3015 92.2337 42.4208 92.777 42.4208 93.429V100H40.1964V98.6513H40.1197C39.979 98.924 39.7809 99.1797 39.5252 99.4183C39.2738 99.6527 38.9563 99.8423 38.5728 99.9872C38.1935 100.128 37.7482 100.198 37.2369 100.198ZM37.8377 98.4979C38.3022 98.4979 38.7049 98.4062 39.0458 98.223C39.3867 98.0355 39.6488 97.7884 39.832 97.4815C40.0195 97.1747 40.1133 96.8402 40.1133 96.478V95.321C40.0408 95.3807 39.9173 95.4361 39.7425 95.4872C39.5721 95.5384 39.3803 95.5831 39.1673 95.6214C38.9542 95.6598 38.7433 95.6939 38.5344 95.7237C38.3256 95.7536 38.1445 95.7791 37.9911 95.8004C37.646 95.8473 37.337 95.924 37.0643 96.0305C36.7915 96.1371 36.5763 96.2862 36.4187 96.478C36.261 96.6655 36.1822 96.9084 36.1822 97.2067C36.1822 97.6328 36.3377 97.9545 36.6488 98.1719C36.9599 98.3892 37.3562 98.4979 37.8377 98.4979ZM44.7475 100V90.1818H46.9911V91.8182H47.0934C47.2724 91.2514 47.5792 90.8146 48.0138 90.5078C48.4528 90.1967 48.9535 90.0412 49.516 90.0412C49.6438 90.0412 49.7866 90.0476 49.9442 90.0604C50.1062 90.0689 50.2404 90.0838 50.3469 90.1051V92.2337C50.2489 92.1996 50.0934 92.1697 49.8803 92.1442C49.6715 92.1143 49.4691 92.0994 49.2731 92.0994C48.8512 92.0994 48.4719 92.1911 48.1353 92.3743C47.8029 92.5533 47.5408 92.8026 47.3491 93.1222C47.1573 93.4418 47.0614 93.8104 47.0614 94.228V100H44.7475ZM60.6317 100.192C59.6516 100.192 58.81 99.9766 58.1069 99.5462C57.408 99.1158 56.869 98.5213 56.4897 97.7628C56.1147 97 55.9272 96.1222 55.9272 95.1293C55.9272 94.1321 56.119 93.2521 56.5025 92.4893C56.886 91.7223 57.4272 91.1257 58.1261 90.6996C58.8292 90.2692 59.6602 90.054 60.619 90.054C61.4158 90.054 62.1211 90.201 62.7347 90.495C63.3526 90.7848 63.8448 91.196 64.2113 91.7287C64.5778 92.2571 64.7866 92.875 64.8377 93.5824H62.6261C62.5366 93.1094 62.3235 92.7152 61.9869 92.3999C61.6545 92.0803 61.2092 91.9205 60.6509 91.9205C60.1779 91.9205 59.7624 92.0483 59.4045 92.304C59.0465 92.5554 58.7674 92.9176 58.5671 93.3906C58.3711 93.8636 58.2731 94.4304 58.2731 95.0909C58.2731 95.7599 58.3711 96.3352 58.5671 96.8168C58.7631 97.294 59.038 97.6626 59.3917 97.9226C59.7496 98.1783 60.1694 98.3061 60.6509 98.3061C60.9918 98.3061 61.2965 98.2422 61.565 98.1143C61.8377 97.9822 62.0657 97.7926 62.2489 97.5455C62.4322 97.2983 62.5579 96.9979 62.6261 96.6442H64.8377C64.7823 97.3388 64.5778 97.9545 64.2241 98.4915C63.8704 99.0241 63.3888 99.4418 62.7795 99.7443C62.1701 100.043 61.4542 100.192 60.6317 100.192ZM68.176 103.682C67.8606 103.682 67.5687 103.656 67.3002 103.605C67.036 103.558 66.8251 103.503 66.6674 103.439L67.2044 101.636C67.541 101.734 67.8414 101.781 68.1056 101.777C68.3699 101.773 68.6021 101.69 68.8024 101.528C69.0069 101.37 69.1795 101.106 69.3201 100.735L69.5183 100.205L65.9579 90.1818H68.4125L70.6752 97.5966H70.7775L73.0467 90.1818H75.5076L71.5765 101.189C71.3933 101.709 71.1504 102.154 70.8478 102.525C70.5453 102.9 70.1745 103.185 69.7356 103.381C69.301 103.582 68.7811 103.682 68.176 103.682ZM79.2182 96.919L79.2118 94.1257H79.5826L83.111 90.1818H85.8148L81.4746 95.0142H80.9952L79.2182 96.919ZM77.1088 100V86.9091H79.4228V100H77.1088ZM83.2708 100L80.0748 95.532L81.6344 93.902L86.0385 100H83.2708ZM91.2992 100.192C90.3148 100.192 89.4647 99.9872 88.7488 99.5781C88.0371 99.1648 87.4895 98.581 87.106 97.8267C86.7225 97.0682 86.5307 96.1754 86.5307 95.1484C86.5307 94.1385 86.7225 93.2521 87.106 92.4893C87.4938 91.7223 88.035 91.1257 88.7296 90.6996C89.4242 90.2692 90.2402 90.054 91.1777 90.054C91.7828 90.054 92.3539 90.152 92.8908 90.348C93.432 90.5398 93.9093 90.8381 94.3226 91.2429C94.7402 91.6477 95.0684 92.1634 95.307 92.7898C95.5456 93.4119 95.665 94.1534 95.665 95.0142V95.7237H87.6174V94.1641H93.4469C93.4426 93.7209 93.3468 93.3267 93.1593 92.9815C92.9718 92.6321 92.7097 92.3572 92.373 92.157C92.0407 91.9567 91.6529 91.8565 91.2097 91.8565C90.7367 91.8565 90.3212 91.9716 89.9632 92.2017C89.6053 92.4276 89.3262 92.7259 89.1259 93.0966C88.9299 93.4631 88.8297 93.8658 88.8255 94.3047V95.6662C88.8255 96.2372 88.9299 96.7273 89.1387 97.1364C89.3475 97.5412 89.6394 97.8523 90.0144 98.0696C90.3894 98.2827 90.8283 98.3892 91.3311 98.3892C91.6678 98.3892 91.9725 98.3423 92.2452 98.2486C92.5179 98.1506 92.7544 98.0078 92.9547 97.8203C93.155 97.6328 93.3063 97.4006 93.4086 97.1236L95.5691 97.3665C95.4327 97.9375 95.1728 98.4361 94.7892 98.8622C94.41 99.2841 93.9242 99.6122 93.3319 99.8466C92.7395 100.077 92.062 100.192 91.2992 100.192ZM99.9364 86.9091V100H97.6225V86.9091H99.9364ZM110.076 92.777L107.966 93.0071C107.907 92.794 107.802 92.5938 107.653 92.4062C107.508 92.2188 107.312 92.0675 107.065 91.9524C106.818 91.8374 106.515 91.7798 106.157 91.7798C105.676 91.7798 105.271 91.8842 104.943 92.093C104.619 92.3018 104.459 92.5724 104.464 92.9048C104.459 93.1903 104.564 93.4226 104.777 93.6016C104.994 93.7805 105.352 93.9276 105.851 94.0426L107.525 94.4006C108.454 94.6009 109.145 94.9183 109.596 95.353C110.052 95.7876 110.282 96.3565 110.287 97.0597C110.282 97.6776 110.101 98.223 109.743 98.696C109.39 99.1648 108.898 99.5312 108.267 99.7955C107.636 100.06 106.912 100.192 106.094 100.192C104.892 100.192 103.925 99.9403 103.192 99.4375C102.459 98.9304 102.022 98.2251 101.881 97.3217L104.138 97.1044C104.24 97.5476 104.457 97.8821 104.79 98.108C105.122 98.3338 105.555 98.4467 106.087 98.4467C106.637 98.4467 107.078 98.3338 107.41 98.108C107.747 97.8821 107.915 97.603 107.915 97.2706C107.915 96.9893 107.807 96.7571 107.589 96.5739C107.376 96.3906 107.044 96.25 106.592 96.152L104.917 95.8004C103.976 95.6044 103.279 95.2741 102.827 94.8097C102.376 94.3409 102.152 93.7486 102.156 93.0327C102.152 92.4276 102.316 91.9034 102.648 91.4602C102.985 91.0128 103.452 90.6676 104.048 90.4247C104.649 90.1776 105.341 90.054 106.126 90.054C107.276 90.054 108.182 90.299 108.842 90.7891C109.507 91.2791 109.918 91.9418 110.076 92.777ZM117.097 90.1818V91.9716H111.453V90.1818H117.097ZM112.847 87.8295H115.161V97.0469C115.161 97.358 115.208 97.5966 115.301 97.7628C115.399 97.9247 115.527 98.0355 115.685 98.0952C115.843 98.1548 116.017 98.1847 116.209 98.1847C116.354 98.1847 116.486 98.174 116.605 98.1527C116.729 98.1314 116.823 98.1122 116.887 98.0952L117.276 99.9041C117.153 99.9467 116.976 99.9936 116.746 100.045C116.52 100.096 116.243 100.126 115.915 100.134C115.335 100.151 114.813 100.064 114.349 99.8722C113.884 99.6761 113.516 99.3736 113.243 98.9645C112.975 98.5554 112.843 98.044 112.847 97.4304V87.8295ZM121.858 100.198C121.236 100.198 120.675 100.087 120.177 99.8658C119.683 99.6399 119.29 99.3075 119.001 98.8686C118.715 98.4297 118.572 97.8885 118.572 97.245C118.572 96.6911 118.675 96.233 118.879 95.8707C119.084 95.5085 119.363 95.2188 119.717 95.0014C120.07 94.7841 120.469 94.62 120.912 94.5092C121.359 94.3942 121.822 94.3111 122.299 94.2599C122.874 94.2003 123.341 94.147 123.699 94.1001C124.057 94.049 124.317 93.9723 124.479 93.87C124.645 93.7635 124.728 93.5994 124.728 93.3778V93.3395C124.728 92.858 124.585 92.4851 124.3 92.2209C124.014 91.9567 123.603 91.8246 123.066 91.8246C122.499 91.8246 122.05 91.9482 121.717 92.1953C121.389 92.4425 121.168 92.7344 121.053 93.071L118.892 92.7642C119.063 92.1676 119.344 91.669 119.736 91.2685C120.128 90.8636 120.607 90.5611 121.174 90.3608C121.741 90.1562 122.367 90.054 123.053 90.054C123.526 90.054 123.997 90.1094 124.466 90.2202C124.935 90.331 125.363 90.5142 125.751 90.7699C126.138 91.0213 126.45 91.3643 126.684 91.799C126.923 92.2337 127.042 92.777 127.042 93.429V100H124.817V98.6513H124.741C124.6 98.924 124.402 99.1797 124.146 99.4183C123.895 99.6527 123.577 99.8423 123.194 99.9872C122.815 100.128 122.369 100.198 121.858 100.198ZM122.459 98.4979C122.923 98.4979 123.326 98.4062 123.667 98.223C124.008 98.0355 124.27 97.7884 124.453 97.4815C124.641 97.1747 124.734 96.8402 124.734 96.478V95.321C124.662 95.3807 124.538 95.4361 124.364 95.4872C124.193 95.5384 124.001 95.5831 123.788 95.6214C123.575 95.6598 123.364 95.6939 123.156 95.7237C122.947 95.7536 122.766 95.7791 122.612 95.8004C122.267 95.8473 121.958 95.924 121.685 96.0305C121.413 96.1371 121.197 96.2862 121.04 96.478C120.882 96.6655 120.803 96.9084 120.803 97.2067C120.803 97.6328 120.959 97.9545 121.27 98.1719C121.581 98.3892 121.977 98.4979 122.459 98.4979ZM134.271 90.1818V91.9716H128.627V90.1818H134.271ZM130.021 87.8295H132.335V97.0469C132.335 97.358 132.381 97.5966 132.475 97.7628C132.573 97.9247 132.701 98.0355 132.859 98.0952C133.016 98.1548 133.191 98.1847 133.383 98.1847C133.528 98.1847 133.66 98.174 133.779 98.1527C133.903 98.1314 133.996 98.1122 134.06 98.0952L134.45 99.9041C134.327 99.9467 134.15 99.9936 133.92 100.045C133.694 100.096 133.417 100.126 133.089 100.134C132.509 100.151 131.987 100.064 131.523 99.8722C131.058 99.6761 130.69 99.3736 130.417 98.9645C130.148 98.5554 130.016 98.044 130.021 97.4304V87.8295ZM136.206 100V90.1818H138.52V100H136.206ZM137.37 88.7884C137.003 88.7884 136.688 88.6669 136.424 88.424C136.16 88.1768 136.028 87.8807 136.028 87.5355C136.028 87.1861 136.16 86.8899 136.424 86.647C136.688 86.3999 137.003 86.2763 137.37 86.2763C137.741 86.2763 138.056 86.3999 138.316 86.647C138.58 86.8899 138.712 87.1861 138.712 87.5355C138.712 87.8807 138.58 88.1768 138.316 88.424C138.056 88.6669 137.741 88.7884 137.37 88.7884ZM149.67 90.1818L146.173 100H143.616L140.12 90.1818H142.587L144.844 97.4751H144.946L147.209 90.1818H149.67ZM161.994 95.8707V90.1818H164.308V100H162.064V98.255H161.962C161.74 98.8047 161.376 99.2543 160.869 99.6037C160.366 99.9531 159.746 100.128 159.009 100.128C158.365 100.128 157.796 99.9851 157.302 99.6996C156.812 99.4098 156.428 98.9901 156.151 98.4403C155.874 97.8864 155.736 97.2173 155.736 96.4332V90.1818H158.05V96.0753C158.05 96.6974 158.22 97.1918 158.561 97.5582C158.902 97.9247 159.349 98.108 159.903 98.108C160.244 98.108 160.575 98.0249 160.894 97.8587C161.214 97.6925 161.476 97.4453 161.68 97.1172C161.889 96.7848 161.994 96.3693 161.994 95.8707ZM170.33 100.173C169.559 100.173 168.869 99.9744 168.259 99.5781C167.65 99.1818 167.169 98.6065 166.815 97.8523C166.461 97.098 166.284 96.1818 166.284 95.1037C166.284 94.0128 166.463 93.0923 166.821 92.3423C167.183 91.5881 167.671 91.0192 168.285 90.6357C168.899 90.2479 169.583 90.054 170.337 90.054C170.912 90.054 171.385 90.152 171.756 90.348C172.127 90.5398 172.421 90.772 172.638 91.0447C172.855 91.3132 173.024 91.5668 173.143 91.8054H173.239V86.9091H175.559V100H173.284V98.4531H173.143C173.024 98.6918 172.851 98.9453 172.625 99.2138C172.399 99.478 172.101 99.7038 171.73 99.8913C171.36 100.079 170.893 100.173 170.33 100.173ZM170.976 98.2741C171.466 98.2741 171.884 98.142 172.229 97.8778C172.574 97.6094 172.836 97.2365 173.015 96.7592C173.194 96.282 173.284 95.7259 173.284 95.0909C173.284 94.456 173.194 93.9041 173.015 93.4354C172.84 92.9666 172.58 92.6023 172.235 92.3423C171.894 92.0824 171.475 91.9524 170.976 91.9524C170.46 91.9524 170.03 92.0866 169.685 92.3551C169.34 92.6236 169.08 92.9943 168.905 93.4673C168.73 93.9403 168.643 94.4815 168.643 95.0909C168.643 95.7045 168.73 96.2521 168.905 96.7337C169.084 97.2109 169.346 97.5881 169.691 97.8651C170.041 98.1378 170.469 98.2741 170.976 98.2741ZM182.371 100.192C181.387 100.192 180.537 99.9872 179.821 99.5781C179.109 99.1648 178.562 98.581 178.178 97.8267C177.795 97.0682 177.603 96.1754 177.603 95.1484C177.603 94.1385 177.795 93.2521 178.178 92.4893C178.566 91.7223 179.107 91.1257 179.802 90.6996C180.496 90.2692 181.312 90.054 182.25 90.054C182.855 90.054 183.426 90.152 183.963 90.348C184.504 90.5398 184.982 90.8381 185.395 91.2429C185.813 91.6477 186.141 92.1634 186.379 92.7898C186.618 93.4119 186.737 94.1534 186.737 95.0142V95.7237H178.69V94.1641H184.519C184.515 93.7209 184.419 93.3267 184.232 92.9815C184.044 92.6321 183.782 92.3572 183.445 92.157C183.113 91.9567 182.725 91.8565 182.282 91.8565C181.809 91.8565 181.393 91.9716 181.036 92.2017C180.678 92.4276 180.398 92.7259 180.198 93.0966C180.002 93.4631 179.902 93.8658 179.898 94.3047V95.6662C179.898 96.2372 180.002 96.7273 180.211 97.1364C180.42 97.5412 180.712 97.8523 181.087 98.0696C181.462 98.2827 181.901 98.3892 182.403 98.3892C182.74 98.3892 183.045 98.3423 183.317 98.2486C183.59 98.1506 183.827 98.0078 184.027 97.8203C184.227 97.6328 184.379 97.4006 184.481 97.1236L186.641 97.3665C186.505 97.9375 186.245 98.4361 185.862 98.8622C185.482 99.2841 184.996 99.6122 184.404 99.8466C183.812 100.077 183.134 100.192 182.371 100.192ZM191.009 94.2472V100H188.695V90.1818H190.906V91.8501H191.021C191.247 91.3004 191.607 90.8636 192.102 90.5398C192.6 90.2159 193.216 90.054 193.949 90.054C194.627 90.054 195.217 90.1989 195.72 90.4886C196.227 90.7784 196.619 91.1982 196.896 91.7479C197.177 92.2976 197.316 92.9645 197.311 93.7486V100H194.997V94.1065C194.997 93.4503 194.827 92.9368 194.486 92.5661C194.149 92.1953 193.683 92.0099 193.086 92.0099C192.681 92.0099 192.321 92.0994 192.006 92.2784C191.695 92.4531 191.45 92.7067 191.271 93.0391C191.096 93.3714 191.009 93.7741 191.009 94.2472ZM204.637 90.1818V91.9716H198.833V90.1818H204.637ZM200.284 100V89.255C200.284 88.5945 200.42 88.0447 200.693 87.6058C200.97 87.1669 201.34 86.8388 201.805 86.6214C202.269 86.4041 202.785 86.2955 203.352 86.2955C203.752 86.2955 204.108 86.3274 204.419 86.3913C204.73 86.4553 204.96 86.5128 205.11 86.5639L204.649 88.3537C204.551 88.3239 204.428 88.294 204.279 88.2642C204.129 88.2301 203.963 88.2131 203.78 88.2131C203.35 88.2131 203.045 88.3175 202.866 88.5263C202.691 88.7308 202.604 89.0249 202.604 89.4084V100H200.284ZM210.362 100.192C209.403 100.192 208.572 99.9808 207.869 99.5589C207.166 99.1371 206.621 98.5469 206.233 97.7884C205.849 97.0298 205.658 96.1435 205.658 95.1293C205.658 94.1151 205.849 93.2266 206.233 92.4638C206.621 91.701 207.166 91.1087 207.869 90.6868C208.572 90.2649 209.403 90.054 210.362 90.054C211.321 90.054 212.152 90.2649 212.855 90.6868C213.558 91.1087 214.102 91.701 214.485 92.4638C214.873 93.2266 215.067 94.1151 215.067 95.1293C215.067 96.1435 214.873 97.0298 214.485 97.7884C214.102 98.5469 213.558 99.1371 212.855 99.5589C212.152 99.9808 211.321 100.192 210.362 100.192ZM210.375 98.3381C210.895 98.3381 211.33 98.1953 211.679 97.9098C212.028 97.62 212.288 97.2322 212.459 96.7464C212.634 96.2607 212.721 95.7195 212.721 95.1229C212.721 94.522 212.634 93.9787 212.459 93.4929C212.288 93.0028 212.028 92.6129 211.679 92.3232C211.33 92.0334 210.895 91.8885 210.375 91.8885C209.842 91.8885 209.399 92.0334 209.045 92.3232C208.696 92.6129 208.434 93.0028 208.259 93.4929C208.089 93.9787 208.004 94.522 208.004 95.1229C208.004 95.7195 208.089 96.2607 208.259 96.7464C208.434 97.2322 208.696 97.62 209.045 97.9098C209.399 98.1953 209.842 98.3381 210.375 98.3381ZM217.031 100V90.1818H219.274V91.8182H219.377C219.556 91.2514 219.862 90.8146 220.297 90.5078C220.736 90.1967 221.237 90.0412 221.799 90.0412C221.927 90.0412 222.07 90.0476 222.227 90.0604C222.389 90.0689 222.524 90.0838 222.63 90.1051V92.2337C222.532 92.1996 222.377 92.1697 222.164 92.1442C221.955 92.1143 221.752 92.0994 221.556 92.0994C221.134 92.0994 220.755 92.1911 220.419 92.3743C220.086 92.5533 219.824 92.8026 219.632 93.1222C219.441 93.4418 219.345 93.8104 219.345 94.228V100H217.031ZM1.29119 127V113.909H3.60511V118.805H3.70099C3.82031 118.567 3.98864 118.313 4.20597 118.045C4.4233 117.772 4.71733 117.54 5.08807 117.348C5.45881 117.152 5.93182 117.054 6.5071 117.054C7.26563 117.054 7.94957 117.248 8.55895 117.636C9.17259 118.019 9.65838 118.588 10.0163 119.342C10.3786 120.092 10.5597 121.013 10.5597 122.104C10.5597 123.182 10.3828 124.098 10.0291 124.852C9.67543 125.607 9.19389 126.182 8.58452 126.578C7.97514 126.974 7.2848 127.173 6.51349 127.173C5.95099 127.173 5.48438 127.079 5.11364 126.891C4.7429 126.704 4.4446 126.478 4.21875 126.214C3.99716 125.945 3.82457 125.692 3.70099 125.453H3.56676V127H1.29119ZM3.56037 122.091C3.56037 122.726 3.64986 123.282 3.82884 123.759C4.01207 124.237 4.27415 124.609 4.61506 124.878C4.96023 125.142 5.37784 125.274 5.8679 125.274C6.37926 125.274 6.80753 125.138 7.1527 124.865C7.49787 124.588 7.75781 124.211 7.93253 123.734C8.11151 123.252 8.20099 122.705 8.20099 122.091C8.20099 121.482 8.11364 120.94 7.93892 120.467C7.7642 119.994 7.50426 119.624 7.15909 119.355C6.81392 119.087 6.38352 118.952 5.8679 118.952C5.37358 118.952 4.95384 119.082 4.60866 119.342C4.26349 119.602 4.00142 119.967 3.82244 120.435C3.64773 120.904 3.56037 121.456 3.56037 122.091ZM18.7846 122.871V117.182H21.0985V127H18.8549V125.255H18.7527C18.5311 125.805 18.1667 126.254 17.6596 126.604C17.1568 126.953 16.5368 127.128 15.7995 127.128C15.1561 127.128 14.5872 126.985 14.0929 126.7C13.6028 126.41 13.2193 125.99 12.9423 125.44C12.6653 124.886 12.5268 124.217 12.5268 123.433V117.182H14.8407V123.075C14.8407 123.697 15.0112 124.192 15.3521 124.558C15.693 124.925 16.1404 125.108 16.6944 125.108C17.0353 125.108 17.3656 125.025 17.6852 124.859C18.0048 124.692 18.2669 124.445 18.4714 124.117C18.6802 123.785 18.7846 123.369 18.7846 122.871ZM28.3807 117.182V118.972H22.7365V117.182H28.3807ZM24.13 114.83H26.4439V124.047C26.4439 124.358 26.4908 124.597 26.5845 124.763C26.6825 124.925 26.8104 125.036 26.968 125.095C27.1257 125.155 27.3004 125.185 27.4922 125.185C27.6371 125.185 27.7692 125.174 27.8885 125.153C28.0121 125.131 28.1058 125.112 28.1697 125.095L28.5597 126.904C28.4361 126.947 28.2592 126.994 28.0291 127.045C27.8033 127.096 27.5263 127.126 27.1982 127.134C26.6186 127.151 26.0966 127.064 25.6321 126.872C25.1676 126.676 24.799 126.374 24.5263 125.964C24.2578 125.555 24.1257 125.044 24.13 124.43V114.83ZM30.3159 127V117.182H32.6298V127H30.3159ZM31.4792 115.788C31.1127 115.788 30.7974 115.667 30.5332 115.424C30.269 115.177 30.1369 114.881 30.1369 114.536C30.1369 114.186 30.269 113.89 30.5332 113.647C30.7974 113.4 31.1127 113.276 31.4792 113.276C31.85 113.276 32.1653 113.4 32.4252 113.647C32.6895 113.89 32.8216 114.186 32.8216 114.536C32.8216 114.881 32.6895 115.177 32.4252 115.424C32.1653 115.667 31.85 115.788 31.4792 115.788ZM37.1186 123.919L37.1122 121.126H37.483L41.0114 117.182H43.7152L39.375 122.014H38.8956L37.1186 123.919ZM35.0092 127V113.909H37.3232V127H35.0092ZM41.1712 127L37.9751 122.532L39.5348 120.902L43.9389 127H41.1712ZM47.3667 123.919L47.3603 121.126H47.731L51.2594 117.182H53.9632L49.623 122.014H49.1436L47.3667 123.919ZM45.2573 127V113.909H47.5712V127H45.2573ZM51.4192 127L48.2232 122.532L49.7828 120.902L54.187 127H51.4192ZM59.4476 127.192C58.4632 127.192 57.6131 126.987 56.8972 126.578C56.1855 126.165 55.638 125.581 55.2544 124.827C54.8709 124.068 54.6792 123.175 54.6792 122.148C54.6792 121.138 54.8709 120.252 55.2544 119.489C55.6422 118.722 56.1834 118.126 56.878 117.7C57.5726 117.269 58.3887 117.054 59.3262 117.054C59.9313 117.054 60.5023 117.152 61.0392 117.348C61.5804 117.54 62.0577 117.838 62.4711 118.243C62.8887 118.648 63.2168 119.163 63.4554 119.79C63.6941 120.412 63.8134 121.153 63.8134 122.014V122.724H55.7658V121.164H61.5953C61.5911 120.721 61.4952 120.327 61.3077 119.982C61.1202 119.632 60.8581 119.357 60.5215 119.157C60.1891 118.957 59.8013 118.857 59.3581 118.857C58.8851 118.857 58.4696 118.972 58.1117 119.202C57.7537 119.428 57.4746 119.726 57.2743 120.097C57.0783 120.463 56.9782 120.866 56.9739 121.305V122.666C56.9739 123.237 57.0783 123.727 57.2871 124.136C57.4959 124.541 57.7878 124.852 58.1628 125.07C58.5378 125.283 58.9767 125.389 59.4796 125.389C59.8162 125.389 60.1209 125.342 60.3936 125.249C60.6664 125.151 60.9029 125.008 61.1032 124.82C61.3034 124.633 61.4547 124.401 61.557 124.124L63.7175 124.366C63.5811 124.937 63.3212 125.436 62.9377 125.862C62.5584 126.284 62.0726 126.612 61.4803 126.847C60.888 127.077 60.2104 127.192 59.4476 127.192ZM68.0849 121.247V127H65.771V117.182H67.9826V118.85H68.0977C68.3235 118.3 68.6836 117.864 69.1779 117.54C69.6765 117.216 70.2923 117.054 71.0252 117.054C71.7028 117.054 72.293 117.199 72.7958 117.489C73.3029 117.778 73.695 118.198 73.9719 118.748C74.2532 119.298 74.3917 119.964 74.3874 120.749V127H72.0735V121.107C72.0735 120.45 71.9031 119.937 71.5621 119.566C71.2255 119.195 70.7589 119.01 70.1623 119.01C69.7575 119.01 69.3974 119.099 69.082 119.278C68.771 119.453 68.5259 119.707 68.3469 120.039C68.1722 120.371 68.0849 120.774 68.0849 121.247ZM85.4872 127.192C84.5284 127.192 83.6974 126.981 82.9943 126.559C82.2912 126.137 81.7457 125.547 81.358 124.788C80.9744 124.03 80.7827 123.143 80.7827 122.129C80.7827 121.115 80.9744 120.227 81.358 119.464C81.7457 118.701 82.2912 118.109 82.9943 117.687C83.6974 117.265 84.5284 117.054 85.4872 117.054C86.446 117.054 87.277 117.265 87.9801 117.687C88.6832 118.109 89.2266 118.701 89.6101 119.464C89.9979 120.227 90.1918 121.115 90.1918 122.129C90.1918 123.143 89.9979 124.03 89.6101 124.788C89.2266 125.547 88.6832 126.137 87.9801 126.559C87.277 126.981 86.446 127.192 85.4872 127.192ZM85.5 125.338C86.0199 125.338 86.4545 125.195 86.804 124.91C87.1534 124.62 87.4134 124.232 87.5838 123.746C87.7585 123.261 87.8459 122.719 87.8459 122.123C87.8459 121.522 87.7585 120.979 87.5838 120.493C87.4134 120.003 87.1534 119.613 86.804 119.323C86.4545 119.033 86.0199 118.888 85.5 118.888C84.9673 118.888 84.5241 119.033 84.1705 119.323C83.821 119.613 83.5589 120.003 83.3842 120.493C83.2138 120.979 83.1286 121.522 83.1286 122.123C83.1286 122.719 83.2138 123.261 83.3842 123.746C83.5589 124.232 83.821 124.62 84.1705 124.91C84.5241 125.195 84.9673 125.338 85.5 125.338ZM96.4256 130.886C95.5946 130.886 94.8809 130.773 94.2843 130.548C93.6877 130.326 93.2083 130.028 92.8461 129.653C92.4838 129.278 92.2324 128.862 92.0918 128.406L94.1756 127.901C94.2694 128.093 94.4057 128.283 94.5847 128.47C94.7637 128.662 95.0044 128.82 95.307 128.943C95.6138 129.071 95.9995 129.135 96.464 129.135C97.1202 129.135 97.6635 128.975 98.0939 128.656C98.5243 128.34 98.7395 127.82 98.7395 127.096V125.236H98.6245C98.5051 125.474 98.3304 125.719 98.1003 125.971C97.8745 126.222 97.574 126.433 97.199 126.604C96.8283 126.774 96.3617 126.859 95.7992 126.859C95.0449 126.859 94.361 126.683 93.7473 126.329C93.138 125.971 92.6522 125.438 92.29 124.731C91.932 124.019 91.753 123.129 91.753 122.059C91.753 120.981 91.932 120.071 92.29 119.33C92.6522 118.584 93.1401 118.019 93.7537 117.636C94.3674 117.248 95.0513 117.054 95.8056 117.054C96.3809 117.054 96.8539 117.152 97.2246 117.348C97.5996 117.54 97.8979 117.772 98.1195 118.045C98.3411 118.313 98.5094 118.567 98.6245 118.805H98.7523V117.182H101.034V127.16C101.034 127.999 100.834 128.694 100.433 129.244C100.033 129.793 99.4853 130.205 98.7907 130.477C98.0961 130.75 97.3077 130.886 96.4256 130.886ZM96.4448 125.044C96.9348 125.044 97.3525 124.925 97.6976 124.686C98.0428 124.447 98.3049 124.104 98.4838 123.657C98.6628 123.21 98.7523 122.673 98.7523 122.046C98.7523 121.428 98.6628 120.887 98.4838 120.423C98.3091 119.958 98.0492 119.598 97.704 119.342C97.3631 119.082 96.9434 118.952 96.4448 118.952C95.9292 118.952 95.4988 119.087 95.1536 119.355C94.8084 119.624 94.5485 119.992 94.3738 120.461C94.199 120.925 94.1117 121.454 94.1117 122.046C94.1117 122.647 94.199 123.173 94.3738 123.625C94.5527 124.072 94.8148 124.422 95.16 124.673C95.5094 124.92 95.9377 125.044 96.4448 125.044ZM107.871 130.682V117.182H110.146V118.805H110.28C110.4 118.567 110.568 118.313 110.785 118.045C111.003 117.772 111.297 117.54 111.667 117.348C112.038 117.152 112.511 117.054 113.086 117.054C113.845 117.054 114.529 117.248 115.138 117.636C115.752 118.019 116.238 118.588 116.596 119.342C116.958 120.092 117.139 121.013 117.139 122.104C117.139 123.182 116.962 124.098 116.608 124.852C116.255 125.607 115.773 126.182 115.164 126.578C114.555 126.974 113.864 127.173 113.093 127.173C112.53 127.173 112.064 127.079 111.693 126.891C111.322 126.704 111.024 126.478 110.798 126.214C110.577 125.945 110.404 125.692 110.28 125.453H110.184V130.682H107.871ZM110.14 122.091C110.14 122.726 110.229 123.282 110.408 123.759C110.591 124.237 110.854 124.609 111.194 124.878C111.54 125.142 111.957 125.274 112.447 125.274C112.959 125.274 113.387 125.138 113.732 124.865C114.077 124.588 114.337 124.211 114.512 123.734C114.691 123.252 114.78 122.705 114.78 122.091C114.78 121.482 114.693 120.94 114.518 120.467C114.344 119.994 114.084 119.624 113.738 119.355C113.393 119.087 112.963 118.952 112.447 118.952C111.953 118.952 111.533 119.082 111.188 119.342C110.843 119.602 110.581 119.967 110.402 120.435C110.227 120.904 110.14 121.456 110.14 122.091ZM121.946 127.198C121.324 127.198 120.763 127.087 120.265 126.866C119.77 126.64 119.378 126.308 119.089 125.869C118.803 125.43 118.66 124.888 118.66 124.245C118.66 123.691 118.763 123.233 118.967 122.871C119.172 122.509 119.451 122.219 119.805 122.001C120.158 121.784 120.557 121.62 121 121.509C121.447 121.394 121.91 121.311 122.387 121.26C122.962 121.2 123.429 121.147 123.787 121.1C124.145 121.049 124.405 120.972 124.567 120.87C124.733 120.763 124.816 120.599 124.816 120.378V120.339C124.816 119.858 124.673 119.485 124.388 119.221C124.102 118.957 123.691 118.825 123.154 118.825C122.587 118.825 122.138 118.948 121.805 119.195C121.477 119.442 121.256 119.734 121.14 120.071L118.98 119.764C119.15 119.168 119.432 118.669 119.824 118.268C120.216 117.864 120.695 117.561 121.262 117.361C121.829 117.156 122.455 117.054 123.141 117.054C123.614 117.054 124.085 117.109 124.554 117.22C125.023 117.331 125.451 117.514 125.839 117.77C126.226 118.021 126.537 118.364 126.772 118.799C127.01 119.234 127.13 119.777 127.13 120.429V127H124.905V125.651H124.829C124.688 125.924 124.49 126.18 124.234 126.418C123.983 126.653 123.665 126.842 123.282 126.987C122.903 127.128 122.457 127.198 121.946 127.198ZM122.547 125.498C123.011 125.498 123.414 125.406 123.755 125.223C124.096 125.036 124.358 124.788 124.541 124.482C124.729 124.175 124.822 123.84 124.822 123.478V122.321C124.75 122.381 124.626 122.436 124.452 122.487C124.281 122.538 124.089 122.583 123.876 122.621C123.663 122.66 123.452 122.694 123.243 122.724C123.035 122.754 122.854 122.779 122.7 122.8C122.355 122.847 122.046 122.924 121.773 123.031C121.501 123.137 121.285 123.286 121.128 123.478C120.97 123.665 120.891 123.908 120.891 124.207C120.891 124.633 121.047 124.955 121.358 125.172C121.669 125.389 122.065 125.498 122.547 125.498ZM123.243 116.114C122.83 116.114 122.453 116.021 122.112 115.833C121.775 115.641 121.507 115.386 121.307 115.066C121.111 114.746 121.013 114.388 121.013 113.992C121.013 113.596 121.111 113.234 121.307 112.906C121.507 112.577 121.775 112.315 122.112 112.119C122.453 111.923 122.83 111.825 123.243 111.825C123.657 111.825 124.032 111.923 124.368 112.119C124.705 112.315 124.971 112.577 125.167 112.906C125.363 113.234 125.461 113.596 125.461 113.992C125.461 114.388 125.363 114.746 125.167 115.066C124.971 115.386 124.705 115.641 124.368 115.833C124.032 116.021 123.657 116.114 123.243 116.114ZM123.243 115.028C123.555 115.028 123.81 114.923 124.01 114.714C124.215 114.501 124.317 114.261 124.317 113.992C124.317 113.711 124.215 113.462 124.01 113.244C123.81 113.027 123.555 112.92 123.243 112.925C122.937 112.925 122.681 113.033 122.476 113.251C122.272 113.464 122.17 113.711 122.17 113.992C122.17 114.261 122.272 114.501 122.476 114.714C122.681 114.928 122.937 115.032 123.243 115.028ZM134.024 127V113.909H136.338V118.805H136.433C136.553 118.567 136.721 118.313 136.938 118.045C137.156 117.772 137.45 117.54 137.82 117.348C138.191 117.152 138.664 117.054 139.24 117.054C139.998 117.054 140.682 117.248 141.291 117.636C141.905 118.019 142.391 118.588 142.749 119.342C143.111 120.092 143.292 121.013 143.292 122.104C143.292 123.182 143.115 124.098 142.762 124.852C142.408 125.607 141.926 126.182 141.317 126.578C140.708 126.974 140.017 127.173 139.246 127.173C138.683 127.173 138.217 127.079 137.846 126.891C137.475 126.704 137.177 126.478 136.951 126.214C136.73 125.945 136.557 125.692 136.433 125.453H136.299V127H134.024ZM136.293 122.091C136.293 122.726 136.382 123.282 136.561 123.759C136.744 124.237 137.007 124.609 137.347 124.878C137.693 125.142 138.11 125.274 138.6 125.274C139.112 125.274 139.54 125.138 139.885 124.865C140.23 124.588 140.49 124.211 140.665 123.734C140.844 123.252 140.933 122.705 140.933 122.091C140.933 121.482 140.846 120.94 140.671 120.467C140.497 119.994 140.237 119.624 139.892 119.355C139.546 119.087 139.116 118.952 138.6 118.952C138.106 118.952 137.686 119.082 137.341 119.342C136.996 119.602 136.734 119.967 136.555 120.435C136.38 120.904 136.293 121.456 136.293 122.091ZM149.606 127.192C148.621 127.192 147.771 126.987 147.055 126.578C146.344 126.165 145.796 125.581 145.413 124.827C145.029 124.068 144.837 123.175 144.837 122.148C144.837 121.138 145.029 120.252 145.413 119.489C145.8 118.722 146.342 118.126 147.036 117.7C147.731 117.269 148.547 117.054 149.484 117.054C150.089 117.054 150.661 117.152 151.197 117.348C151.739 117.54 152.216 117.838 152.629 118.243C153.047 118.648 153.375 119.163 153.614 119.79C153.852 120.412 153.972 121.153 153.972 122.014V122.724H145.924V121.164H151.754C151.749 120.721 151.653 120.327 151.466 119.982C151.278 119.632 151.016 119.357 150.68 119.157C150.347 118.957 149.96 118.857 149.516 118.857C149.043 118.857 148.628 118.972 148.27 119.202C147.912 119.428 147.633 119.726 147.433 120.097C147.237 120.463 147.136 120.866 147.132 121.305V122.666C147.132 123.237 147.237 123.727 147.445 124.136C147.654 124.541 147.946 124.852 148.321 125.07C148.696 125.283 149.135 125.389 149.638 125.389C149.974 125.389 150.279 125.342 150.552 125.249C150.825 125.151 151.061 125.008 151.261 124.82C151.462 124.633 151.613 124.401 151.715 124.124L153.876 124.366C153.739 124.937 153.479 125.436 153.096 125.862C152.717 126.284 152.231 126.612 151.638 126.847C151.046 127.077 150.369 127.192 149.606 127.192ZM160.199 130.886C159.368 130.886 158.654 130.773 158.058 130.548C157.461 130.326 156.982 130.028 156.619 129.653C156.257 129.278 156.006 128.862 155.865 128.406L157.949 127.901C158.043 128.093 158.179 128.283 158.358 128.47C158.537 128.662 158.778 128.82 159.08 128.943C159.387 129.071 159.773 129.135 160.237 129.135C160.894 129.135 161.437 128.975 161.867 128.656C162.298 128.34 162.513 127.82 162.513 127.096V125.236H162.398C162.279 125.474 162.104 125.719 161.874 125.971C161.648 126.222 161.347 126.433 160.972 126.604C160.602 126.774 160.135 126.859 159.573 126.859C158.818 126.859 158.134 126.683 157.521 126.329C156.911 125.971 156.426 125.438 156.063 124.731C155.705 124.019 155.526 123.129 155.526 122.059C155.526 120.981 155.705 120.071 156.063 119.33C156.426 118.584 156.914 118.019 157.527 117.636C158.141 117.248 158.825 117.054 159.579 117.054C160.154 117.054 160.627 117.152 160.998 117.348C161.373 117.54 161.671 117.772 161.893 118.045C162.115 118.313 162.283 118.567 162.398 118.805H162.526V117.182H164.808V127.16C164.808 127.999 164.607 128.694 164.207 129.244C163.806 129.793 163.259 130.205 162.564 130.477C161.869 130.75 161.081 130.886 160.199 130.886ZM160.218 125.044C160.708 125.044 161.126 124.925 161.471 124.686C161.816 124.447 162.078 124.104 162.257 123.657C162.436 123.21 162.526 122.673 162.526 122.046C162.526 121.428 162.436 120.887 162.257 120.423C162.083 119.958 161.823 119.598 161.477 119.342C161.137 119.082 160.717 118.952 160.218 118.952C159.703 118.952 159.272 119.087 158.927 119.355C158.582 119.624 158.322 119.992 158.147 120.461C157.972 120.925 157.885 121.454 157.885 122.046C157.885 122.647 157.972 123.173 158.147 123.625C158.326 124.072 158.588 124.422 158.933 124.673C159.283 124.92 159.711 125.044 160.218 125.044ZM171.449 130.886C170.618 130.886 169.904 130.773 169.308 130.548C168.711 130.326 168.232 130.028 167.869 129.653C167.507 129.278 167.256 128.862 167.115 128.406L169.199 127.901C169.293 128.093 169.429 128.283 169.608 128.47C169.787 128.662 170.028 128.82 170.33 128.943C170.637 129.071 171.023 129.135 171.487 129.135C172.144 129.135 172.687 128.975 173.117 128.656C173.548 128.34 173.763 127.82 173.763 127.096V125.236H173.648C173.529 125.474 173.354 125.719 173.124 125.971C172.898 126.222 172.597 126.433 172.222 126.604C171.852 126.774 171.385 126.859 170.823 126.859C170.068 126.859 169.384 126.683 168.771 126.329C168.161 125.971 167.676 125.438 167.313 124.731C166.955 124.019 166.776 123.129 166.776 122.059C166.776 120.981 166.955 120.071 167.313 119.33C167.676 118.584 168.164 118.019 168.777 117.636C169.391 117.248 170.075 117.054 170.829 117.054C171.404 117.054 171.877 117.152 172.248 117.348C172.623 117.54 172.921 117.772 173.143 118.045C173.365 118.313 173.533 118.567 173.648 118.805H173.776V117.182H176.058V127.16C176.058 127.999 175.857 128.694 175.457 129.244C175.056 129.793 174.509 130.205 173.814 130.477C173.119 130.75 172.331 130.886 171.449 130.886ZM171.468 125.044C171.958 125.044 172.376 124.925 172.721 124.686C173.066 124.447 173.328 124.104 173.507 123.657C173.686 123.21 173.776 122.673 173.776 122.046C173.776 121.428 173.686 120.887 173.507 120.423C173.333 119.958 173.073 119.598 172.727 119.342C172.387 119.082 171.967 118.952 171.468 118.952C170.953 118.952 170.522 119.087 170.177 119.355C169.832 119.624 169.572 119.992 169.397 120.461C169.222 120.925 169.135 121.454 169.135 122.046C169.135 122.647 169.222 123.173 169.397 123.625C169.576 124.072 169.838 124.422 170.183 124.673C170.533 124.92 170.961 125.044 171.468 125.044ZM182.776 127.192C181.791 127.192 180.941 126.987 180.225 126.578C179.514 126.165 178.966 125.581 178.583 124.827C178.199 124.068 178.007 123.175 178.007 122.148C178.007 121.138 178.199 120.252 178.583 119.489C178.97 118.722 179.512 118.126 180.206 117.7C180.901 117.269 181.717 117.054 182.654 117.054C183.259 117.054 183.83 117.152 184.367 117.348C184.909 117.54 185.386 117.838 185.799 118.243C186.217 118.648 186.545 119.163 186.784 119.79C187.022 120.412 187.142 121.153 187.142 122.014V122.724H179.094V121.164H184.923C184.919 120.721 184.823 120.327 184.636 119.982C184.448 119.632 184.186 119.357 183.85 119.157C183.517 118.957 183.129 118.857 182.686 118.857C182.213 118.857 181.798 118.972 181.44 119.202C181.082 119.428 180.803 119.726 180.602 120.097C180.406 120.463 180.306 120.866 180.302 121.305V122.666C180.302 123.237 180.406 123.727 180.615 124.136C180.824 124.541 181.116 124.852 181.491 125.07C181.866 125.283 182.305 125.389 182.808 125.389C183.144 125.389 183.449 125.342 183.722 125.249C183.994 125.151 184.231 125.008 184.431 124.82C184.632 124.633 184.783 124.401 184.885 124.124L187.046 124.366C186.909 124.937 186.649 125.436 186.266 125.862C185.887 126.284 185.401 126.612 184.808 126.847C184.216 127.077 183.539 127.192 182.776 127.192ZM201.324 119.777L199.214 120.007C199.155 119.794 199.05 119.594 198.901 119.406C198.756 119.219 198.56 119.067 198.313 118.952C198.066 118.837 197.763 118.78 197.406 118.78C196.924 118.78 196.519 118.884 196.191 119.093C195.867 119.302 195.707 119.572 195.712 119.905C195.707 120.19 195.812 120.423 196.025 120.602C196.242 120.781 196.6 120.928 197.099 121.043L198.773 121.401C199.702 121.601 200.393 121.918 200.844 122.353C201.3 122.788 201.531 123.357 201.535 124.06C201.531 124.678 201.349 125.223 200.991 125.696C200.638 126.165 200.146 126.531 199.515 126.795C198.884 127.06 198.16 127.192 197.342 127.192C196.14 127.192 195.173 126.94 194.44 126.438C193.707 125.93 193.27 125.225 193.129 124.322L195.386 124.104C195.488 124.548 195.705 124.882 196.038 125.108C196.37 125.334 196.803 125.447 197.335 125.447C197.885 125.447 198.326 125.334 198.658 125.108C198.995 124.882 199.163 124.603 199.163 124.271C199.163 123.989 199.055 123.757 198.837 123.574C198.624 123.391 198.292 123.25 197.84 123.152L196.165 122.8C195.224 122.604 194.527 122.274 194.075 121.81C193.624 121.341 193.4 120.749 193.404 120.033C193.4 119.428 193.564 118.903 193.896 118.46C194.233 118.013 194.7 117.668 195.296 117.425C195.897 117.178 196.589 117.054 197.374 117.054C198.524 117.054 199.43 117.299 200.09 117.789C200.755 118.279 201.166 118.942 201.324 119.777ZM203.443 127V117.182H205.757V127H203.443ZM204.606 115.788C204.24 115.788 203.924 115.667 203.66 115.424C203.396 115.177 203.264 114.881 203.264 114.536C203.264 114.186 203.396 113.89 203.66 113.647C203.924 113.4 204.24 113.276 204.606 113.276C204.977 113.276 205.292 113.4 205.552 113.647C205.816 113.89 205.949 114.186 205.949 114.536C205.949 114.881 205.816 115.177 205.552 115.424C205.292 115.667 204.977 115.788 204.606 115.788ZM211.78 127.173C211.008 127.173 210.318 126.974 209.709 126.578C209.099 126.182 208.618 125.607 208.264 124.852C207.91 124.098 207.733 123.182 207.733 122.104C207.733 121.013 207.912 120.092 208.27 119.342C208.633 118.588 209.121 118.019 209.734 117.636C210.348 117.248 211.032 117.054 211.786 117.054C212.361 117.054 212.834 117.152 213.205 117.348C213.576 117.54 213.87 117.772 214.087 118.045C214.305 118.313 214.473 118.567 214.592 118.805H214.688V113.909H217.008V127H214.733V125.453H214.592C214.473 125.692 214.3 125.945 214.074 126.214C213.849 126.478 213.55 126.704 213.18 126.891C212.809 127.079 212.342 127.173 211.78 127.173ZM212.425 125.274C212.915 125.274 213.333 125.142 213.678 124.878C214.023 124.609 214.285 124.237 214.464 123.759C214.643 123.282 214.733 122.726 214.733 122.091C214.733 121.456 214.643 120.904 214.464 120.435C214.29 119.967 214.03 119.602 213.684 119.342C213.344 119.082 212.924 118.952 212.425 118.952C211.91 118.952 211.479 119.087 211.134 119.355C210.789 119.624 210.529 119.994 210.354 120.467C210.18 120.94 210.092 121.482 210.092 122.091C210.092 122.705 210.18 123.252 210.354 123.734C210.533 124.211 210.795 124.588 211.14 124.865C211.49 125.138 211.918 125.274 212.425 125.274ZM223.821 127.192C222.836 127.192 221.986 126.987 221.27 126.578C220.559 126.165 220.011 125.581 219.627 124.827C219.244 124.068 219.052 123.175 219.052 122.148C219.052 121.138 219.244 120.252 219.627 119.489C220.015 118.722 220.556 118.126 221.251 117.7C221.946 117.269 222.762 117.054 223.699 117.054C224.304 117.054 224.875 117.152 225.412 117.348C225.953 117.54 226.431 117.838 226.844 118.243C227.262 118.648 227.59 119.163 227.828 119.79C228.067 120.412 228.186 121.153 228.186 122.014V122.724H220.139V121.164H225.968C225.964 120.721 225.868 120.327 225.681 119.982C225.493 119.632 225.231 119.357 224.895 119.157C224.562 118.957 224.174 118.857 223.731 118.857C223.258 118.857 222.843 118.972 222.485 119.202C222.127 119.428 221.848 119.726 221.647 120.097C221.451 120.463 221.351 120.866 221.347 121.305V122.666C221.347 123.237 221.451 123.727 221.66 124.136C221.869 124.541 222.161 124.852 222.536 125.07C222.911 125.283 223.35 125.389 223.853 125.389C224.189 125.389 224.494 125.342 224.767 125.249C225.039 125.151 225.276 125.008 225.476 124.82C225.676 124.633 225.828 124.401 225.93 124.124L228.091 124.366C227.954 124.937 227.694 125.436 227.311 125.862C226.931 126.284 226.446 126.612 225.853 126.847C225.261 127.077 224.583 127.192 223.821 127.192ZM230.144 127V117.182H232.388V118.818H232.49C232.669 118.251 232.976 117.815 233.41 117.508C233.849 117.197 234.35 117.041 234.912 117.041C235.04 117.041 235.183 117.048 235.341 117.06C235.503 117.069 235.637 117.084 235.743 117.105V119.234C235.645 119.2 235.49 119.17 235.277 119.144C235.068 119.114 234.866 119.099 234.67 119.099C234.248 119.099 233.868 119.191 233.532 119.374C233.199 119.553 232.937 119.803 232.746 120.122C232.554 120.442 232.458 120.81 232.458 121.228V127H230.144ZM244.571 127.198C243.949 127.198 243.388 127.087 242.89 126.866C242.395 126.64 242.003 126.308 241.714 125.869C241.428 125.43 241.285 124.888 241.285 124.245C241.285 123.691 241.388 123.233 241.592 122.871C241.797 122.509 242.076 122.219 242.43 122.001C242.783 121.784 243.182 121.62 243.625 121.509C244.072 121.394 244.535 121.311 245.012 121.26C245.587 121.2 246.054 121.147 246.412 121.1C246.77 121.049 247.03 120.972 247.192 120.87C247.358 120.763 247.441 120.599 247.441 120.378V120.339C247.441 119.858 247.298 119.485 247.013 119.221C246.727 118.957 246.316 118.825 245.779 118.825C245.212 118.825 244.763 118.948 244.43 119.195C244.102 119.442 243.881 119.734 243.765 120.071L241.605 119.764C241.775 119.168 242.057 118.669 242.449 118.268C242.841 117.864 243.32 117.561 243.887 117.361C244.454 117.156 245.08 117.054 245.766 117.054C246.239 117.054 246.71 117.109 247.179 117.22C247.648 117.331 248.076 117.514 248.464 117.77C248.851 118.021 249.162 118.364 249.397 118.799C249.635 119.234 249.755 119.777 249.755 120.429V127H247.53V125.651H247.454C247.313 125.924 247.115 126.18 246.859 126.418C246.608 126.653 246.29 126.842 245.907 126.987C245.528 127.128 245.082 127.198 244.571 127.198ZM245.172 125.498C245.636 125.498 246.039 125.406 246.38 125.223C246.721 125.036 246.983 124.788 247.166 124.482C247.354 124.175 247.447 123.84 247.447 123.478V122.321C247.375 122.381 247.251 122.436 247.077 122.487C246.906 122.538 246.714 122.583 246.501 122.621C246.288 122.66 246.077 122.694 245.868 122.724C245.66 122.754 245.479 122.779 245.325 122.8C244.98 122.847 244.671 122.924 244.398 123.031C244.126 123.137 243.91 123.286 243.753 123.478C243.595 123.665 243.516 123.908 243.516 124.207C243.516 124.633 243.672 124.955 243.983 125.172C244.294 125.389 244.69 125.498 245.172 125.498ZM257.055 117.182V118.972H251.251V117.182H257.055ZM252.702 127V116.255C252.702 115.594 252.838 115.045 253.111 114.606C253.388 114.167 253.758 113.839 254.223 113.621C254.687 113.404 255.203 113.295 255.77 113.295C256.17 113.295 256.526 113.327 256.837 113.391C257.148 113.455 257.378 113.513 257.528 113.564L257.067 115.354C256.969 115.324 256.846 115.294 256.697 115.264C256.547 115.23 256.381 115.213 256.198 115.213C255.768 115.213 255.463 115.317 255.284 115.526C255.109 115.731 255.022 116.025 255.022 116.408V127H252.702ZM1.29119 140.909H4.19318L8.07955 150.395H8.23295L12.1193 140.909H15.0213V154H12.7457V145.006H12.6243L9.00639 153.962H7.30611L3.68821 144.987H3.56676V154H1.29119V140.909ZM17.5014 154V144.182H19.8153V154H17.5014ZM18.6648 142.788C18.2983 142.788 17.983 142.667 17.7188 142.424C17.4545 142.177 17.3224 141.881 17.3224 141.536C17.3224 141.186 17.4545 140.89 17.7188 140.647C17.983 140.4 18.2983 140.276 18.6648 140.276C19.0355 140.276 19.3509 140.4 19.6108 140.647C19.875 140.89 20.0071 141.186 20.0071 141.536C20.0071 141.881 19.875 142.177 19.6108 142.424C19.3509 142.667 19.0355 142.788 18.6648 142.788ZM24.3042 150.919L24.2978 148.126H24.6685L28.1969 144.182H30.9007L26.5605 149.014H26.0811L24.3042 150.919ZM22.1948 154V140.909H24.5087V154H22.1948ZM28.3567 154L25.1607 149.532L26.7203 147.902L31.1245 154H28.3567ZM35.2681 154.198C34.646 154.198 34.0856 154.087 33.587 153.866C33.0927 153.64 32.7006 153.308 32.4109 152.869C32.1254 152.43 31.9826 151.888 31.9826 151.245C31.9826 150.691 32.0849 150.233 32.2894 149.871C32.494 149.509 32.7731 149.219 33.1268 149.001C33.4805 148.784 33.8789 148.62 34.3221 148.509C34.7695 148.394 35.2319 148.311 35.7092 148.26C36.2844 148.2 36.7511 148.147 37.109 148.1C37.467 148.049 37.7269 147.972 37.8888 147.87C38.055 147.763 38.1381 147.599 38.1381 147.378V147.339C38.1381 146.858 37.9954 146.485 37.7099 146.221C37.4244 145.957 37.0131 145.825 36.4762 145.825C35.9094 145.825 35.4599 145.948 35.1275 146.195C34.7994 146.442 34.5778 146.734 34.4627 147.071L32.3022 146.764C32.4727 146.168 32.7539 145.669 33.146 145.268C33.538 144.864 34.0174 144.561 34.5842 144.361C35.1509 144.156 35.7773 144.054 36.4634 144.054C36.9364 144.054 37.4073 144.109 37.8761 144.22C38.3448 144.331 38.7731 144.514 39.1609 144.77C39.5487 145.021 39.8597 145.364 40.0941 145.799C40.3327 146.234 40.4521 146.777 40.4521 147.429V154H38.2276V152.651H38.1509C38.0103 152.924 37.8121 153.18 37.5565 153.418C37.305 153.653 36.9876 153.842 36.604 153.987C36.2248 154.128 35.7795 154.198 35.2681 154.198ZM35.869 152.498C36.3335 152.498 36.7362 152.406 37.0771 152.223C37.418 152.036 37.68 151.788 37.8633 151.482C38.0508 151.175 38.1445 150.84 38.1445 150.478V149.321C38.0721 149.381 37.9485 149.436 37.7738 149.487C37.6033 149.538 37.4116 149.583 37.1985 149.621C36.9854 149.66 36.7745 149.694 36.5657 149.724C36.3569 149.754 36.1758 149.779 36.0224 149.8C35.6772 149.847 35.3683 149.924 35.0955 150.031C34.8228 150.137 34.6076 150.286 34.4499 150.478C34.2923 150.665 34.2134 150.908 34.2134 151.207C34.2134 151.633 34.369 151.955 34.68 152.172C34.9911 152.389 35.3874 152.498 35.869 152.498ZM46.4222 154.173C45.6509 154.173 44.9606 153.974 44.3512 153.578C43.7418 153.182 43.2603 152.607 42.9066 151.852C42.5529 151.098 42.3761 150.182 42.3761 149.104C42.3761 148.013 42.555 147.092 42.913 146.342C43.2752 145.588 43.7631 145.019 44.3768 144.636C44.9904 144.248 45.6744 144.054 46.4286 144.054C47.0039 144.054 47.4769 144.152 47.8477 144.348C48.2184 144.54 48.5124 144.772 48.7298 145.045C48.9471 145.313 49.1154 145.567 49.2347 145.805H49.3306V140.909H51.6509V154H49.3754V152.453H49.2347C49.1154 152.692 48.9428 152.945 48.717 153.214C48.4911 153.478 48.1928 153.704 47.8221 153.891C47.4513 154.079 46.9847 154.173 46.4222 154.173ZM47.0678 152.274C47.5579 152.274 47.9755 152.142 48.3207 151.878C48.6658 151.609 48.9279 151.237 49.1069 150.759C49.2859 150.282 49.3754 149.726 49.3754 149.091C49.3754 148.456 49.2859 147.904 49.1069 147.435C48.9322 146.967 48.6722 146.602 48.3271 146.342C47.9862 146.082 47.5664 145.952 47.0678 145.952C46.5522 145.952 46.1218 146.087 45.7766 146.355C45.4315 146.624 45.1715 146.994 44.9968 147.467C44.8221 147.94 44.7347 148.482 44.7347 149.091C44.7347 149.705 44.8221 150.252 44.9968 150.734C45.1758 151.211 45.4379 151.588 45.783 151.865C46.1325 152.138 46.5607 152.274 47.0678 152.274ZM58.3993 154.192C57.4405 154.192 56.6096 153.981 55.9064 153.559C55.2033 153.137 54.6578 152.547 54.2701 151.788C53.8865 151.03 53.6948 150.143 53.6948 149.129C53.6948 148.115 53.8865 147.227 54.2701 146.464C54.6578 145.701 55.2033 145.109 55.9064 144.687C56.6096 144.265 57.4405 144.054 58.3993 144.054C59.3581 144.054 60.1891 144.265 60.8922 144.687C61.5953 145.109 62.1387 145.701 62.5222 146.464C62.91 147.227 63.1039 148.115 63.1039 149.129C63.1039 150.143 62.91 151.03 62.5222 151.788C62.1387 152.547 61.5953 153.137 60.8922 153.559C60.1891 153.981 59.3581 154.192 58.3993 154.192ZM58.4121 152.338C58.932 152.338 59.3667 152.195 59.7161 151.91C60.0655 151.62 60.3255 151.232 60.4959 150.746C60.6706 150.261 60.758 149.719 60.758 149.123C60.758 148.522 60.6706 147.979 60.4959 147.493C60.3255 147.003 60.0655 146.613 59.7161 146.323C59.3667 146.033 58.932 145.888 58.4121 145.888C57.8794 145.888 57.4363 146.033 57.0826 146.323C56.7331 146.613 56.4711 147.003 56.2963 147.493C56.1259 147.979 56.0407 148.522 56.0407 149.123C56.0407 149.719 56.1259 150.261 56.2963 150.746C56.4711 151.232 56.7331 151.62 57.0826 151.91C57.4363 152.195 57.8794 152.338 58.4121 152.338ZM69.6349 154V140.909H72.0064V146.451H78.0724V140.909H80.4503V154H78.0724V148.439H72.0064V154H69.6349ZM89.185 149.871V144.182H91.4989V154H89.2553V152.255H89.1531C88.9315 152.805 88.5671 153.254 88.06 153.604C87.5572 153.953 86.9371 154.128 86.1999 154.128C85.5565 154.128 84.9876 153.985 84.4933 153.7C84.0032 153.41 83.6197 152.99 83.3427 152.44C83.0657 151.886 82.9272 151.217 82.9272 150.433V144.182H85.2411V150.075C85.2411 150.697 85.4116 151.192 85.7525 151.558C86.0934 151.925 86.5408 152.108 87.0948 152.108C87.4357 152.108 87.766 152.025 88.0856 151.859C88.4052 151.692 88.6673 151.445 88.8718 151.117C89.0806 150.785 89.185 150.369 89.185 149.871ZM101.638 146.777L99.5289 147.007C99.4693 146.794 99.3649 146.594 99.2157 146.406C99.0708 146.219 98.8748 146.067 98.6277 145.952C98.3805 145.837 98.0779 145.78 97.72 145.78C97.2385 145.78 96.8336 145.884 96.5055 146.093C96.1816 146.302 96.0218 146.572 96.0261 146.905C96.0218 147.19 96.1262 147.423 96.3393 147.602C96.5566 147.781 96.9146 147.928 97.4132 148.043L99.0879 148.401C100.017 148.601 100.707 148.918 101.159 149.353C101.615 149.788 101.845 150.357 101.849 151.06C101.845 151.678 101.664 152.223 101.306 152.696C100.952 153.165 100.46 153.531 99.8294 153.795C99.1987 154.06 98.4743 154.192 97.6561 154.192C96.4544 154.192 95.487 153.94 94.7541 153.438C94.0211 152.93 93.5843 152.225 93.4437 151.322L95.7001 151.104C95.8024 151.548 96.0197 151.882 96.3521 152.108C96.6845 152.334 97.117 152.447 97.6497 152.447C98.1994 152.447 98.6404 152.334 98.9728 152.108C99.3095 151.882 99.4778 151.603 99.4778 151.271C99.4778 150.989 99.3691 150.757 99.1518 150.574C98.9387 150.391 98.6064 150.25 98.1547 150.152L96.4799 149.8C95.5382 149.604 94.8414 149.274 94.3897 148.81C93.938 148.341 93.7143 147.749 93.7186 147.033C93.7143 146.428 93.8784 145.903 94.2108 145.46C94.5474 145.013 95.014 144.668 95.6106 144.425C96.2115 144.178 96.9039 144.054 97.688 144.054C98.8386 144.054 99.7441 144.299 100.405 144.789C101.069 145.279 101.481 145.942 101.638 146.777ZM108.104 154.192C107.119 154.192 106.269 153.987 105.553 153.578C104.842 153.165 104.294 152.581 103.911 151.827C103.527 151.068 103.335 150.175 103.335 149.148C103.335 148.138 103.527 147.252 103.911 146.489C104.298 145.722 104.84 145.126 105.534 144.7C106.229 144.269 107.045 144.054 107.982 144.054C108.588 144.054 109.159 144.152 109.695 144.348C110.237 144.54 110.714 144.838 111.127 145.243C111.545 145.648 111.873 146.163 112.112 146.79C112.35 147.412 112.47 148.153 112.47 149.014V149.724H104.422V148.164H110.252C110.247 147.721 110.151 147.327 109.964 146.982C109.776 146.632 109.514 146.357 109.178 146.157C108.845 145.957 108.458 145.857 108.014 145.857C107.541 145.857 107.126 145.972 106.768 146.202C106.41 146.428 106.131 146.726 105.931 147.097C105.735 147.463 105.634 147.866 105.63 148.305V149.666C105.63 150.237 105.735 150.727 105.943 151.136C106.152 151.541 106.444 151.852 106.819 152.07C107.194 152.283 107.633 152.389 108.136 152.389C108.472 152.389 108.777 152.342 109.05 152.249C109.323 152.151 109.559 152.008 109.759 151.82C109.96 151.633 110.111 151.401 110.213 151.124L112.374 151.366C112.237 151.937 111.977 152.436 111.594 152.862C111.215 153.284 110.729 153.612 110.137 153.847C109.544 154.077 108.867 154.192 108.104 154.192ZM119.33 144.182V145.972H113.686V144.182H119.33ZM115.079 141.83H117.393V151.047C117.393 151.358 117.44 151.597 117.534 151.763C117.632 151.925 117.76 152.036 117.917 152.095C118.075 152.155 118.25 152.185 118.441 152.185C118.586 152.185 118.718 152.174 118.838 152.153C118.961 152.131 119.055 152.112 119.119 152.095L119.509 153.904C119.385 153.947 119.208 153.994 118.978 154.045C118.752 154.096 118.475 154.126 118.147 154.134C117.568 154.151 117.046 154.064 116.581 153.872C116.117 153.676 115.748 153.374 115.475 152.964C115.207 152.555 115.075 152.044 115.079 151.43V141.83Z" fill="#F291BA"/>
</svg>
