<svg xmlns="http://www.w3.org/2000/svg" xmlns:xlink="http://www.w3.org/1999/xlink" width="1366" height="671" viewBox="0 0 1366 671"><defs><style>.cls-1{fill:#fff2f8;}.cls-2{opacity:0.19;filter:url(#AI_GaussianBlur_7);}.cls-3{fill:#fffdf9;}</style><filter id="AI_GaussianBlur_7" name="AI_GaussianBlur_7"><feGaussianBlur stdDeviation="7"/></filter></defs><g id="Layer_9" data-name="Layer 9"><rect class="cls-1" y="27" width="1366" height="644"/><g class="cls-2"><path d="M1366,195.94c-127-84.44-219.2-86.35-281-71.19-99.93,24.5-162.37,103.92-247,71.19-11-4.23-55.57-23.22-115-24.13-41.36-.63-51.39,8.08-56,13.27-28,31.57-3.21,99.56-29,117-7.18,4.88-18.36,5.89-26,0-25.44-19.59,12.12-97.45-20-146a66.76,66.76,0,0,0-39-27.75c-39.65-10.42-64.72,29.42-104,50.68-88.76,48-142.7-57-236-14.48-57.71,26.3-63.85,78.69-116,82.05C57,249.2,22.85,220.8,0,195.94V27H1366Z"/></g><path class="cls-3" d="M1366,190.81c-127-88.37-219.2-90.37-281-74.51-99.93,25.64-162.37,108.76-247,74.51-11-4.43-55.57-24.31-115-25.26-41.36-.66-51.39,8.46-56,13.89-28,33.05-3.21,104.19-29,122.51-7.18,5.1-18.36,6.15-26,0-25.44-20.51,12.12-102-20-152.82a66.65,66.65,0,0,0-39-29c-39.65-10.91-64.72,30.79-104,53C360.24,223.39,306.3,113.47,213,158c-57.71,27.53-63.85,82.36-116,85.88-40,2.7-74.15-27-97-53V14H1366Z"/></g></svg>