<svg xmlns="http://www.w3.org/2000/svg" xmlns:xlink="http://www.w3.org/1999/xlink" width="1615" height="3492.64" viewBox="0 0 1615 3492.64"><defs><style>.cls-1{fill:#fff2f8;}.cls-2{opacity:0.19;filter:url(#AI_GaussianBlur_7);}.cls-3{fill:#fffdf9;}</style><filter id="AI_GaussianBlur_7" name="AI_GaussianBlur_7"><feGaussianBlur stdDeviation="7"/></filter></defs><g id="Layer_3" data-name="Layer 3"><rect class="cls-1" x="0.5" y="16.25" width="1615" height="3476.39"/></g><g id="Layer_9" data-name="Layer 9"><g class="cls-2"><path d="M1615.5,441c-153-166.78-255.67-191.4-324-176.35-125.18,27.56-196,201.61-300.25,176.35-23.48-5.7-84.48-34.5-136-35.48-48.89-.93-60.76,11.88-66.21,19.51C756,471.43,785.29,571.37,754.8,597.09c-8.49,7.16-21.71,8.65-30.74,0C694,568.28,738.39,453.83,700.41,382.45c-16.57-31.16-40.85-39.09-46.11-40.8-46.88-15.32-76.51,43.26-122.95,74.5-6.6,4.44-26.53,14-46.84,18.34-102.29,21.93-170.73-118.14-242-99.85-69.75,17.89-60.26,166.41-127.32,180.85C76.74,523.77,34.26,483.43.5,441V16.64h1615Z"/></g><path class="cls-3" d="M1615.5,436.29c-153-171.62-255.67-196.94-324-181.46-125.18,28.36-196,207.45-300.25,181.46-23.48-5.86-84.48-35.5-136-36.51-48.89-1-60.76,12.23-66.21,20.08C756,467.62,785.29,570.45,754.8,596.92c-8.49,7.37-21.71,8.89-30.74,0C694,567.27,738.39,449.5,700.41,376.05c-16.57-32.05-40.85-40.21-46.11-42-46.88-15.76-76.51,44.51-122.95,76.66-6.6,4.57-26.53,14.39-46.84,18.87C382.22,452.17,313.78,308,242.5,326.86,172.75,345.27,182.24,498.09,115.18,513,76.74,521.47,34.26,480,.5,436.29V-.36h1615Z"/></g></svg>