<svg xmlns="http://www.w3.org/2000/svg" width="1620" height="2040" viewBox="0 0 1620 2040"><defs><style>.cls-1{fill:#fff2f8;}</style></defs><g id="Layer_3" data-name="Layer 3"><path class="cls-1" d="M1620,981.32c-70.61,18.91-175.75,34.54-275.73-11-163.62-74.53-152.67-239.14-299.47-298.49-162.59-65.73-262,103.93-406.39,37.17-91.53-42.32-150-178.22-266.91-450-40.58-94.34-63.65-160.9-133.45-199.89C157.64,14.16,62.71,32.35.23,52.05q.95,642.87,1.88,1285.74c7.46-9,44.54-52.07,95.76-43.59,10.82,1.79,52.21,8.63,73.21,54.43,22.92,50,2.73,133.88-7.51,179.63-7.75,34.62-16.07,56.8-9.41,84.38,4.94,20.45,18.74,46.38,37.54,46.27,19.39-.12,33.1-27.86,37.54-49,5.54-26.35-1.76-49.82-5.6-65.33-17.45-70.49-14.06-179.75,20.65-215,26-26.37,71.21-21.2,93.86,13.61,23.21,35.68,16.57,99.73,13.86,120-.21,1.55-.32,2.35-.72,5.15-21.68,150.85-18.23,183.31-7.88,210.94,5.5,14.71,16.26,42.33,39.13,48.22,13.6,3.5,29.41-1.22,39.13-9,36.64-29.49-6.63-108.23-4.68-242,.78-53.81,2.41-116.8,35.66-133.34,35.36-17.59,93.07,26.38,97.61,29.92a420.88,420.88,0,0,1,39.88,36.59c4.05,4.2,7.62,8.11,11.1,12,13.33,15,37.62,41.36,63.53,60.25,24.41,17.81,48.63,27.53,58.19,30.34,101.62,29.89,230.33-225.89,326.62-197.31,22,6.53,32.89,24.74,52.56,58.26,88.73,151.17,34.33,378.06,16.91,450.7-9.93,41.45-28.26,106.76,4,138.62,11,10.85,32.88,22.79,49.17,17.08,88.71-31.11-32.18-570.55,36.9-589.49,17.41-4.77,29.74,28.21,61.95,24.43,45.1-5.3,47.51-73.11,112.87-96.91,6.77-2.46,42.94-15.63,65.45,1,9,6.61,5.48,10.77,17.55,21.19,16.64,14.36,36.57,19.39,57.54,25.08,20,5.42,53.76,10.64,95.73-2.72Q1620.13,1171.78,1620,981.32Z"/></g></svg>