<svg xmlns="http://www.w3.org/2000/svg" xmlns:xlink="http://www.w3.org/1999/xlink" width="600" height="640" viewBox="0 0 600 640"><defs><style>.cls-1{opacity:0.29;filter:url(#AI_GaussianBlur_7);}.cls-2{fill:#e6f6f2;}.cls-3{fill:none;stroke:#d3ede6;stroke-miterlimit:10;stroke-width:4px;}.cls-4{fill:#b0ddd1;}.cls-5{fill:#3f3f3f;}</style><filter id="AI_GaussianBlur_7" name="AI_GaussianBlur_7"><feGaussianBlur stdDeviation="7"/></filter></defs><g id="Layer_2" data-name="Layer 2"><g class="cls-1"><path d="M104.27,384.61C95.41,379.37,91.17,310,100,96.89c1.13-27.25,18.8-48.78,41.61-50.78,38.46-3.37,78.89-5.56,121.16-6.19a1685.12,1685.12,0,0,1,196.49,8.61c23,2.35,41.63,24.44,43.78,51.85,15,190.55,15.78,246.34,13.11,258.5,0,0-4.56,25.5-.33,42.21,1,4.11,1.53,4.52,2.49,8.81,2.44,11,4.7,33-3.11,39.45-8.6,7.12-21.24-11.41-32.3-4.07-7.69,5.11-6,17-17.15,23.67-2.9,1.73-6,3.56-9.82,2.91C444.5,469.91,444,449,431.54,444c-10-4-19.92,5.35-20.47,5.89-10.8,10.5-9.68,30.07-9.39,35,.84,14.67,6.2,19.68,3.84,32.78-.33,1.87-2.34,13.06-7.14,13.71-4.19.57-8.27-7.2-9.25-9.19-5.56-11.35-.81-19.07-3.84-32.79-2.57-11.62-9.9-23.77-13.86-22.83-6.07,1.45-8.58,34.65-1.75,63.43,1.69,7.08,3.62,12.57,4.6,22.67.78,7.92,3.06,31.27-5.13,35.62-5.79,3.08-15.85-3.88-20.54-13.18-5.29-10.5-1.87-21.28.14-35.16,4.84-33.43,2-74.55-8.05-78.59-3.83-1.54-8,2.58-8.15,2.75-7.54,7.69.61,25.29-6.33,31.72-3.17,2.92-8.63,2.76-11.76.07-6-5.17-1.92-18.42-7-21.45-3-1.8-7.46,1.1-9.72,3.9-3.28,4.05-2.63,8.59-3.82,13.41-2.58,10.48-12.2,15.5-18.44,18.76-2.45,1.28-23.67,12-36.1.3-7.8-7.33-7-18.58-15.44-21.68a12.42,12.42,0,0,0-10,.92c-1.45.82-5.72,3.64-8.72,14.86-.89,3.35-4.14,16.67.23,39.14,2.82,14.48,5.76,17.12,5,26.66-.23,2.8-1.35,16.23-8.36,18.84-4.68,1.74-10.76-1.82-14.06-6.74-6.57-9.82-.48-22.59,1.91-43.36,3.4-29.56-2.05-63.63-12.05-67.18-5.59-2-8.23,7.13-23.34,11.18-6.67,1.79-15,4-21.1-1.08-6.83-5.72-7.39-17.81-8.11-33.4-1-21.67,3.1-24.54-3.93-46.81C119,394.79,116.49,391.84,104.27,384.61Z"/></g><path class="cls-2" d="M104.27,376.61C95.41,371.37,91.17,302,100,88.89c1.13-27.25,18.8-48.78,41.61-50.78,38.46-3.37,78.89-5.56,121.16-6.19a1685.12,1685.12,0,0,1,196.49,8.61c23,2.35,41.63,24.44,43.78,51.85,15,190.55,15.78,246.34,13.11,258.5,0,0-4.56,25.5-.33,42.21,1,4.11,1.53,4.52,2.49,8.81,2.44,11,4.7,33-3.11,39.45-8.6,7.12-21.24-11.41-32.3-4.07-7.69,5.11-6,17-17.15,23.67-2.94,1.75-6.18,3.74-9.82,2.91-8-1.85-7.31-15-16.54-18.39-4.44-1.65-5.41,1.09-14,0-9.22-1.17-10.74-4.65-14.33-3.61-7.53,2.19-10.24,20.33-9.39,35s6.2,19.68,3.84,32.78c-.33,1.87-2.34,13.06-7.14,13.71-4.19.57-8.27-7.2-9.25-9.19-5.56-11.35-.81-19.07-3.84-32.79-2.57-11.62-9.9-23.77-13.86-22.83-6.07,1.45-8.58,34.65-1.75,63.43,1.69,7.08,3.62,12.57,4.6,22.67.78,7.92,3.06,31.27-5.13,35.62-5.79,3.08-15.85-3.88-20.54-13.18-4.88-9.69-2.21-17.77.14-35.16,4.11-30.48,1.66-55.78-2.35-56.46-2.1-.36-3.24,6.33-11,10a30.8,30.8,0,0,1-9.18,2.34c-6.35.92-9.8,1.76-11.76.07-6-5.17-1.92-18.42-7-21.45-3-1.8-7.46,1.11-9.72,3.9-3.28,4.05-2.63,8.59-3.82,13.41-2.58,10.48-12.2,15.5-18.44,18.76-2.45,1.28-23.67,12-36.1.3-7.8-7.33-7-18.58-15.44-21.68a12.42,12.42,0,0,0-10,.92c-1.45.82-5.72,3.64-8.72,14.86-.89,3.35-4.14,16.67.23,39.14,2.82,14.48,5.76,17.12,5,26.66-.23,2.8-1.35,16.23-8.36,18.84-4.68,1.74-10.76-1.82-14.06-6.74-7.26-10.84.12-22.81,1.91-43.36,2.74-31.48-11-62.33-21.5-63-4.12-.25-5,4.3-13.89,7-2,.61-14.13,4.78-21.1-1.08S126,456.55,125.3,441c-1-21.67,3.1-24.54-3.93-46.81C119,386.79,116.49,383.84,104.27,376.61Z"/><rect class="cls-3" x="129.9" y="65.47" width="345.5" height="330" rx="41.01"/><rect class="cls-4" x="136.9" y="71.84" width="331.5" height="316.63" rx="39.35"/><circle class="cls-2" cx="303.4" cy="229.47" r="70.5"/><circle class="cls-2" cx="427.9" cy="112.97" r="17.5"/><path class="cls-5" d="M157.36,392.41a18.82,18.82,0,0,0-8.31,8,21,21,0,0,0-2.09,12,11.3,11.3,0,0,0,1,4.4,7.49,7.49,0,0,1,.73,1.37c-3.11.29-5.5-.14-7.15-1.3s-2.61-3.24-2.89-6.25q-.51-5.53,3.56-11.2A36.22,36.22,0,0,1,167,385.32c.8-.08,2-.12,3.48-.15l-7.83,66.07-12.48,1.14Z"/><path class="cls-5" d="M197.33,445.75a10.23,10.23,0,0,1-3.11-6.75,22.51,22.51,0,0,1,.05-4.16c.15-1.55.32-3.07.5-4.54s.32-2.42.4-2.83q.42-3.11.75-6.1a25.34,25.34,0,0,0,.17-4.82q-.41-4.43-3.52-4.13a5,5,0,0,0-3.79,2.57,17.13,17.13,0,0,0-2.24,6l-3.34,28.35-12.48,1.14,5.21-44.16,12.48-1.14-.54,4.59a13.24,13.24,0,0,1,9.69-5.78,9.9,9.9,0,0,1,7.24,1.78q2.82,2.19,3.28,7.12a29.33,29.33,0,0,1-.1,5.65q-.31,3.13-1,7.65-.45,2.75-.78,5.36a19.92,19.92,0,0,0-.19,4.08,4.14,4.14,0,0,0,1,2.61,3.31,3.31,0,0,0,2.78.71,5.15,5.15,0,0,0,4-2.25,22,22,0,0,0,2.6-6l3.63-.34q-2.32,9.82-6.23,13.46a14.21,14.21,0,0,1-8.41,4.05Q200.06,448.33,197.33,445.75Z"/><path class="cls-5" d="M220,444.89a10.58,10.58,0,0,1-4.63-3.77,11.09,11.09,0,0,1-1.88-5.2,9.26,9.26,0,0,1,.89-5.11,8.35,8.35,0,0,1,3-3.37,110.42,110.42,0,0,0,4.76-12.8q1.95-6.42,3.54-13.82l12.66-2.91Q239.77,409,242,421.77q.92,5.16,1.12,7.5a13.26,13.26,0,0,1,0,3.32,35.8,35.8,0,0,0,5.84-4.9l3.64-.34a50.89,50.89,0,0,1-12.26,12,15,15,0,0,1-5.84,4.51,23.07,23.07,0,0,1-7.29,1.94A14.29,14.29,0,0,1,220,444.89Zm9-8c1.32-1.4,1.86-3.52,1.6-6.35a72.18,72.18,0,0,0-1.19-7.23q-1.77-9.79-2.34-13.15a100.69,100.69,0,0,1-5.52,17,3.31,3.31,0,0,1,2.27,2.85A4.46,4.46,0,0,1,223,433a3.42,3.42,0,0,1-2.61,1.55,2.31,2.31,0,0,1-2.44-.91,7,7,0,0,0,1.68,4.47,5,5,0,0,0,4.16,1.11A7.91,7.91,0,0,0,229,436.86Z"/><path class="cls-5" d="M251.49,441q-2.79-2.37-3.27-7.57a30.39,30.39,0,0,1,.18-5.69l3-24.82-2.86.26.38-3.53,2.86-.26,1.5-12.2,12.66-2.91-1.69,14,5.2-.48-.37,3.53-5.2.48-3.16,26.5a10.82,10.82,0,0,0-.09,2.8,3.16,3.16,0,0,0,1.05,2.4,4,4,0,0,0,2.79.48,6.61,6.61,0,0,0,4.49-2.55,12.17,12.17,0,0,0,2.61-5.79l3.64-.33q-2.35,9.66-7.07,13.45a18,18,0,0,1-9.66,4.25A9.08,9.08,0,0,1,251.49,441Z"/><path class="cls-5" d="M274.34,438.11q-3.6-3.08-4.27-10.26a39.61,39.61,0,0,1,1.33-13.71,31.2,31.2,0,0,1,6.52-12.66,16.88,16.88,0,0,1,11.64-6,9.28,9.28,0,0,1,5.39.73,3.75,3.75,0,0,1,2,3.05l.06.6.53-4.68L310,394l-3.53,30a10.8,10.8,0,0,0-.09,2.8c.22,2.48,1.52,3.62,3.89,3.4a5.27,5.27,0,0,0,4-2.64,17.14,17.14,0,0,0,2.27-6.15l3.64-.33q-2.36,9.64-6.76,13.42a16.45,16.45,0,0,1-9.18,4.2,8.27,8.27,0,0,1-6-1.5,9.15,9.15,0,0,1-3.19-5.69,24.26,24.26,0,0,1-5.05,6.28,12.29,12.29,0,0,1-7.12,2.88A11.07,11.07,0,0,1,274.34,438.11Zm17.5-8.72a10.73,10.73,0,0,0,2.39-5.86l2.36-20a3.51,3.51,0,0,0-1.07-2.13,3.2,3.2,0,0,0-2.78-.83q-3.47.31-5.87,4.6a32,32,0,0,0-3.44,10.1,38,38,0,0,0-.64,10.15c.26,2.89.85,4.69,1.76,5.43a4.29,4.29,0,0,0,3.19.93A6.35,6.35,0,0,0,291.84,429.39Z"/><path class="cls-5" d="M327.67,455.76a7.47,7.47,0,0,1-3.34-6,9.47,9.47,0,0,1,3.26-8.3,34.92,34.92,0,0,1,9.68-5.91l.62-4.68a13.82,13.82,0,0,1-10,5.71,11,11,0,0,1-8.54-2.62q-3.6-3.08-4.27-10.27a39.8,39.8,0,0,1,1.32-13.7A31.27,31.27,0,0,1,323,397.35a16.88,16.88,0,0,1,11.64-6,9.21,9.21,0,0,1,5.39.73,3.74,3.74,0,0,1,2,3l.05.52.54-4.59,12.47-1.14-4.89,41a15.37,15.37,0,0,0,6.29-4.77A22.22,22.22,0,0,0,360,417.5l3.64-.33c-1.08,5.28-2.85,9.24-5.28,11.88a21.37,21.37,0,0,1-8.56,5.72l-.73,6.36q-1,8.56-4.92,12.12a15.83,15.83,0,0,1-9.33,4A11,11,0,0,1,327.67,455.76Zm9-30.27a9.38,9.38,0,0,0,2.41-5.2l2.53-20.94a3.39,3.39,0,0,0-1.06-2,3.24,3.24,0,0,0-2.78-.84c-2.31.21-4.27,1.75-5.87,4.6a32.12,32.12,0,0,0-3.44,10.1,38,38,0,0,0-.64,10.15q.39,4.33,1.76,5.43a4.2,4.2,0,0,0,3.19.93A6.28,6.28,0,0,0,336.69,425.49Zm-1.82,23a15.85,15.85,0,0,0,1.64-5.92l.29-2.56q-8.21,3.9-7.82,8.15a2.89,2.89,0,0,0,1,1.92,2.78,2.78,0,0,0,2.24.67C333.17,450.63,334.07,449.87,334.87,448.46Z"/><path class="cls-5" d="M362.8,389.2l12.48-1.15-.63,5.48a34.53,34.53,0,0,1,5-4.48,10.1,10.1,0,0,1,5-1.85,5.46,5.46,0,0,1,4.55,1.5,6.93,6.93,0,0,1,2,4.44,6.6,6.6,0,0,1-1.24,4.57,5.74,5.74,0,0,1-4.42,2.33,3,3,0,0,1-2.64-.67,6.86,6.86,0,0,1-1.23-2.56,8.07,8.07,0,0,0-.68-1.59,1,1,0,0,0-1-.44,6.12,6.12,0,0,0-3,1,21.48,21.48,0,0,0-3,2.86l-3.91,33.55-12.48,1.15Z"/><path class="cls-5" d="M394.84,427.06q-3.6-3.07-4.26-10.27a39.88,39.88,0,0,1,1.32-13.71,31.11,31.11,0,0,1,6.53-12.65,16.84,16.84,0,0,1,11.64-6,9.3,9.3,0,0,1,5.39.72,3.77,3.77,0,0,1,2,3.05l.06.61.53-4.68L430.55,383,427,413a10.45,10.45,0,0,0-.09,2.81q.33,3.72,3.89,3.4a5.24,5.24,0,0,0,4-2.64,17,17,0,0,0,2.28-6.15l3.64-.34q-2.36,9.66-6.76,13.42a16.4,16.4,0,0,1-9.19,4.21,8.34,8.34,0,0,1-6-1.5,9.15,9.15,0,0,1-3.19-5.69,24,24,0,0,1-5.06,6.27,12.26,12.26,0,0,1-7.11,2.88A11.1,11.1,0,0,1,394.84,427.06Zm17.51-8.73a10.7,10.7,0,0,0,2.39-5.85l2.36-20a3.56,3.56,0,0,0-1.07-2.13,3.24,3.24,0,0,0-2.78-.84c-2.31.21-4.27,1.75-5.87,4.6a32,32,0,0,0-3.44,10.1,38.48,38.48,0,0,0-.65,10.15q.4,4.34,1.77,5.43a4.29,4.29,0,0,0,3.19.93A6.26,6.26,0,0,0,412.35,418.33Z"/><path class="cls-5" d="M482.32,419.65a11.41,11.41,0,0,1-2.73-6.83,22.59,22.59,0,0,1,.06-4.16c.15-1.55.31-3.07.5-4.54s.31-2.42.39-2.83q.42-3.1.75-6.1a23.77,23.77,0,0,0,.17-4.82c-.27-2.95-1.44-4.32-3.52-4.13a5,5,0,0,0-3.78,2.57,17.2,17.2,0,0,0-2.25,6l-3.34,28.35-12.47,1.14,3.58-30.47a8.87,8.87,0,0,0,.06-2.19q-.35-3.81-2.95-3.57a5.3,5.3,0,0,0-4,2.59,16.42,16.42,0,0,0-2.27,6.11l-3.35,28.35-12.47,1.15,5.21-44.16L452.38,381l-.54,4.59a13.77,13.77,0,0,1,10.12-5.9q7.62-.71,9.61,6.63,4.08-7.8,11.37-8.47a9.93,9.93,0,0,1,7.24,1.78c1.88,1.46,3,3.83,3.27,7.13a30,30,0,0,1-.09,5.64q-.33,3.14-1.05,7.65c-.3,1.84-.56,3.62-.78,5.36a20.67,20.67,0,0,0-.19,4.08,4.12,4.12,0,0,0,1,2.61,3.29,3.29,0,0,0,2.77.71A5.63,5.63,0,0,0,498,412a9.86,9.86,0,0,1-2.55,7,9.55,9.55,0,0,1-6.16,2.84Q484.65,422.23,482.32,419.65Z"/></g></svg>