<svg width="80" height="72" viewBox="0 0 80 72" fill="none" xmlns="http://www.w3.org/2000/svg">
<g clip-path="url(#clip0_186_16561)">
<g opacity="0.64">
<path d="M47.0266 11.1956C47.0266 11.2204 46.9805 11.2842 47.0053 11.2842L47.0726 11.1885L47.0266 11.1956Z" fill="white"/>
<path d="M47.0584 11.4615C47.1327 11.4092 47.1904 11.3366 47.2248 11.2523C47.1469 11.3374 47.161 11.2913 47.0725 11.3942C47.0478 11.3942 47.0725 11.3445 47.0725 11.3091C47.0513 11.3303 47.0549 11.2665 47.0088 11.3091C46.9628 11.3516 47.0088 11.4225 47.0902 11.3764C47.0796 11.4225 47.0796 11.4438 47.0584 11.4615Z" fill="white"/>
<path d="M47.9929 13.1787C47.9929 13.1787 47.9984 13.1733 47.9929 13.1787V13.1787Z" fill="white"/>
<path d="M47.6744 14.3238C47.6744 14.3238 47.6744 14.3238 47.6744 14.2987C47.6744 14.2735 47.6636 14.3202 47.6744 14.3238Z" fill="white"/>
<path d="M47.4659 14.4444C47.4659 14.4444 47.4578 14.4363 47.4659 14.4444V14.4444Z" fill="white"/>
<path d="M47.9929 13.1779L47.9575 13.2134C47.9965 13.2134 47.9858 13.1956 47.9929 13.1779Z" fill="white"/>
<path d="M47.4726 11.3942C47.467 11.3918 47.4609 11.3906 47.4549 11.3906C47.4488 11.3906 47.4428 11.3918 47.4372 11.3942H47.4584H47.4726Z" fill="white"/>
<path d="M47.6035 12.3623C47.6035 12.3623 47.692 12.3233 47.7274 12.302C47.7068 12.3139 47.6839 12.3212 47.6602 12.3233L47.6035 12.3623Z" fill="white"/>
<path d="M47.8478 12.9651H47.8124C47.8241 12.9672 47.8361 12.9672 47.8478 12.9651Z" fill="white"/>
<path d="M40.5628 22.5507L40.5558 22.5472L40.5027 22.5614L40.5628 22.5507Z" fill="white"/>
<path d="M47.1613 14.6891C47.1613 14.6891 47.1572 14.681 47.1613 14.6891V14.6891Z" fill="white"/>
<path d="M44.6832 17.32C44.7717 17.3626 44.7044 17.4512 44.8177 17.4867C44.7858 17.4583 44.761 17.3306 44.6832 17.32Z" fill="white"/>
<path d="M46.6548 15.4121L46.6938 15.4334L46.6548 15.4121Z" fill="white"/>
<path d="M46.5177 15.7668H46.4956C46.4956 15.7668 46.4993 15.7631 46.5177 15.7668Z" fill="white"/>
<path d="M41.2637 21.2103L41.1823 21.1713C41.2425 21.2067 41.2354 21.2635 41.2637 21.2103Z" fill="white"/>
<path d="M47.4336 11.4367C47.4513 11.4367 47.4619 11.4119 47.469 11.4119L47.4336 11.4367Z" fill="white"/>
<path d="M47.0796 16.3235L47.0266 16.3589C47.0472 16.3523 47.0656 16.34 47.0796 16.3235Z" fill="white"/>
<path d="M46.9026 16.4972C46.8807 16.4847 46.8567 16.4763 46.8318 16.4724V16.4972H46.9026Z" fill="white"/>
<path d="M41.2212 21.5755C41.2425 21.5365 41.115 21.5011 41.0513 21.4585C41.0513 21.3876 41.1504 21.4585 41.2177 21.4904C41.2177 21.4479 41.1115 21.3628 41.1292 21.3415C41.1469 21.3202 41.1575 21.3415 41.1788 21.3699C41.1115 21.2847 41.2319 21.2706 41.1504 21.1606H41.1788C41.1257 21.1339 41.0748 21.1031 41.0265 21.0684C41.0265 21.0471 40.9841 20.9833 41.0584 21.0259C41.0584 21.0259 41.0584 21.0578 41.0938 21.0755V21.0365C41.2071 21.0861 41.0938 21.0861 41.1823 21.1393C41.1823 21.0791 41.1257 20.9727 41.1823 20.962C41.2814 21.0259 41.1823 21.0542 41.2779 21.0791H41.2071C41.3876 21.1535 41.1788 21.1003 41.3664 21.1854C41.4336 21.15 41.3664 21.0861 41.4336 21.0507C41.3911 20.9975 41.3522 20.9939 41.3097 20.9372C41.2849 20.7776 41.5929 21.0684 41.5221 20.9088C41.4726 20.8415 41.3664 20.7315 41.4619 20.7457L41.5504 20.8521C41.6071 20.806 41.4336 20.689 41.5504 20.6925C41.5788 20.7422 41.5504 20.767 41.5504 20.7705C41.6602 20.8095 41.5186 20.6925 41.5504 20.6641L41.6425 20.7422C41.6814 20.6748 41.6849 20.5507 41.7345 20.4726C41.7557 20.5046 41.7699 20.54 41.8088 20.5542C41.8478 20.4372 41.9965 20.4088 42.1239 20.3946L42.0885 20.2882C42.0885 20.2882 42.131 20.3131 42.138 20.3343C42.1451 20.3556 42.0956 20.2847 42.0849 20.2386C42.0743 20.1925 42.1487 20.267 42.1557 20.2989C42.1557 20.1854 42.2053 20.0152 42.3363 20.0577V20.0896C42.4106 20.0896 42.2655 19.8769 42.3681 19.9194V19.9407C42.5026 19.8946 42.5699 19.7279 42.7469 19.7953C42.6761 19.6605 42.8956 19.7705 42.7823 19.5967C42.9062 19.6322 42.9097 19.6783 43.0407 19.6712C43.069 19.6712 43.0018 19.5364 43.0195 19.4974L43.0832 19.5861L43.0549 19.4655L43.154 19.5542V19.5116C43.154 19.5116 43.1044 19.4903 43.0867 19.462C43.069 19.4336 43.2389 19.462 43.2708 19.4939L43.3239 19.3414C43.3317 19.3728 43.3317 19.4057 43.3239 19.4371C43.3239 19.3059 43.3982 19.5258 43.3911 19.4052C43.372 19.3829 43.3565 19.3578 43.3451 19.3307C43.3587 19.3377 43.3735 19.3416 43.3887 19.3422C43.4039 19.3429 43.4191 19.3403 43.4332 19.3346C43.4473 19.3289 43.46 19.3202 43.4704 19.3091C43.4809 19.298 43.4889 19.2849 43.4938 19.2705L43.5327 19.3378C43.6212 19.2953 43.6743 19.1889 43.7628 19.1251C43.7097 19.1251 43.6389 19.008 43.6566 18.9797L43.738 19.0648C43.7097 18.9938 43.6849 19.0648 43.6672 18.9548C43.7062 18.9548 43.7664 19.0435 43.7699 19.0861V19.0258C43.7947 19.0506 43.7947 19.0719 43.8195 19.1109C43.7911 19.0399 43.9575 19.1534 43.9044 19.0364L43.9292 19.0612C44.0142 18.9974 44.0319 18.9336 44.0956 18.8768C44.0389 18.7953 44.0956 18.7917 44.0496 18.7137C44.1203 18.7137 44.2265 18.7137 44.2832 18.6605C44.3398 18.6073 44.2442 18.586 44.2265 18.5257C44.2832 18.5931 44.3398 18.5257 44.3504 18.6144C44.4121 18.5541 44.4561 18.478 44.4779 18.3945C44.446 18.3732 44.4248 18.3697 44.4106 18.3413C44.3965 18.313 44.4708 18.3413 44.4956 18.3768C44.4956 18.1888 44.8991 18.3768 44.8495 18.1747L44.8708 18.0293C44.9203 18.008 44.892 18.1002 44.9557 18.1215C44.9557 17.9264 45.1115 18.0151 45.1221 17.8768C45.3522 18.0293 45.3133 17.6888 45.5009 17.7491L45.4549 17.7066C45.4336 17.6427 45.5044 17.7066 45.5257 17.7066C45.4938 17.6711 45.469 17.6817 45.4584 17.6463C45.5752 17.4406 45.8619 17.4087 46.0708 17.2916C46.1451 17.2491 45.8832 17.0221 46.0708 17.0576L46.1274 17.164C46.1557 16.9476 46.3823 16.9299 46.4212 16.7278C46.4212 16.7561 46.4566 16.781 46.4425 16.7916C46.5274 16.8271 46.538 16.703 46.492 16.6533C46.5133 16.6533 46.538 16.6959 46.577 16.71C46.6159 16.7242 46.577 16.5682 46.6336 16.6178C46.6336 16.6178 46.6336 16.6427 46.6336 16.6533C46.6336 16.6072 46.715 16.5824 46.6336 16.5292C46.7115 16.5292 46.6867 16.4157 46.7646 16.4193C46.708 16.32 46.8743 16.3802 46.7646 16.2668C46.8779 16.3802 46.9345 16.2668 46.9062 16.1958C46.9345 16.2384 46.9664 16.1958 47.0053 16.2632C47.0336 16.2278 47.0407 16.1781 46.977 16.1285C47.1752 16.1994 46.977 15.8979 47.1894 16.0327C47.2138 15.8915 47.2542 15.7534 47.3097 15.6213C47.4265 15.7313 47.2319 15.7348 47.3628 15.8412C47.3911 15.71 47.3274 15.5717 47.4301 15.4866C47.4655 15.4866 47.4726 15.5433 47.4867 15.5717C47.5115 15.4405 47.6425 15.4015 47.6354 15.2632C47.6479 15.2754 47.6555 15.2918 47.6566 15.3093C47.6566 15.288 47.7062 15.2844 47.6566 15.2419V15.2703C47.554 15.2312 47.5292 15.0717 47.4832 15.0398C47.6319 15.1887 47.5858 14.9866 47.7664 15.1851C47.7628 15.1684 47.7556 15.1528 47.7452 15.1393C47.7348 15.1257 47.7214 15.1148 47.7062 15.1071C47.7274 15.1071 47.7557 15.1071 47.7876 15.1568C47.7876 15.0717 47.7203 15.0504 47.7593 14.9972C47.7876 15.0149 47.7911 15.0362 47.823 15.0646C47.7841 14.9972 47.7487 14.9298 47.8018 14.8979C47.8549 14.866 47.8442 14.9227 47.8336 14.9369C47.8796 14.8483 47.7699 14.7029 47.8761 14.6426C47.9929 14.7454 47.9398 14.6426 48.0566 14.6958V14.6248H47.9894C48.0177 14.5823 47.9504 14.4972 48.0106 14.4794L48.0425 14.5362L48.0602 14.4404L47.9929 14.4653C47.954 14.3908 47.8407 14.3979 47.9009 14.3553C47.9009 14.3553 47.9221 14.3128 48.0071 14.3199C47.9788 14.2808 47.9469 14.2418 48.0071 14.2206C48.0672 14.1993 48.138 14.2844 48.1664 14.2879C48.0743 14.2241 48.1664 14.1638 48.0814 14.0964C48.113 14.1163 48.1477 14.1307 48.1841 14.139L48.1062 14.0893C48.1222 14.0818 48.1398 14.0778 48.1575 14.0778C48.1753 14.0778 48.1928 14.0818 48.2088 14.0893C48.2442 14.0291 48.0425 14.0574 48.1345 14.0007C48.1345 14.0007 48.1557 14.0007 48.1628 14.0291C48.2265 13.9581 48.1628 13.8553 48.2195 13.795C48.354 13.795 48.2195 13.8695 48.3469 13.8695C48.3469 13.7489 48.2442 13.6 48.2867 13.5149V13.5361C48.0991 13.5007 48.3858 13.4652 48.3044 13.3978C48.3044 13.3978 48.4035 13.4227 48.3858 13.4191C48.4142 13.3411 48.3469 13.256 48.2796 13.146H48.3292C48.3681 13.0999 48.3292 13.0255 48.3611 12.9758C48.3115 12.9758 48.315 12.9368 48.2478 12.9758C48.3752 12.8836 48.3257 12.8127 48.2655 12.756C48.2053 12.6992 48.1451 12.6531 48.2336 12.5538C48.2336 12.5538 48.2867 12.5786 48.2832 12.5538L48.2018 12.4581C48.131 12.4971 48.1628 12.49 48.1097 12.5325C48.0566 12.5751 48.0142 12.5325 48.0035 12.5006C48.0743 12.5254 48.1274 12.451 48.1593 12.4155L48.0885 12.4403C48.1982 12.3304 47.9327 12.4971 47.9929 12.3871H48.0319C48.0035 12.3694 47.9398 12.3871 47.9363 12.341C48.0142 12.2878 47.9894 12.341 48.0602 12.3162C48.0354 12.2772 47.8619 12.3162 47.9257 12.2453C47.9575 12.2453 47.9717 12.2701 48.0035 12.2737C48.0814 12.185 48.0531 12.1921 48.0531 12.1531V12.0609V12.0928C47.8124 12.1779 47.9575 12.0183 47.777 12.0502C47.9469 12.0183 47.8584 12.0112 47.9469 11.9509C47.9469 11.919 47.9681 11.8729 47.9965 11.8623C47.908 11.8836 48.0142 11.7701 47.8832 11.8055C47.908 11.7807 47.8584 11.7736 47.9292 11.724C47.8761 11.7027 47.8938 11.7701 47.8549 11.7949C47.7203 11.8233 47.8549 11.5644 47.6495 11.607C47.5398 11.607 47.4513 11.6672 47.3557 11.6672C47.3557 11.607 47.4513 11.5821 47.4513 11.5821C47.4513 11.5148 47.4159 11.5006 47.3628 11.5077C47.3876 11.5077 47.3947 11.4616 47.4088 11.4226C47.423 11.3835 47.3168 11.5112 47.3097 11.4438C47.3431 11.4095 47.3799 11.3786 47.4195 11.3516C47.3664 11.3516 47.2956 11.3835 47.246 11.3871C47.2672 11.3339 47.3168 11.3268 47.3522 11.302C47.3183 11.2925 47.2824 11.2921 47.2483 11.3008C47.2141 11.3095 47.1828 11.327 47.1575 11.3516V11.3977C47.1575 11.3977 47.1929 11.3233 47.2106 11.3162C47.2849 11.2736 47.2425 11.3765 47.2106 11.4048H47.1752C47.0867 11.5928 47.2885 11.4367 47.3274 11.4864L47.2212 11.5892L47.3416 11.5254C47.3416 11.5644 47.2849 11.6353 47.2495 11.6353C47.2495 11.7169 47.3097 11.6353 47.2849 11.6992C47.2849 11.6992 47.2849 11.7169 47.2672 11.7204H47.3239C47.2991 11.7382 47.2637 11.802 47.2566 11.7736C47.2566 11.8765 47.4088 11.7736 47.3557 11.8587C47.4549 11.8836 47.4336 11.7843 47.5752 11.7417L47.4195 11.9651L47.5044 11.8942C47.5044 11.8942 47.5044 11.9261 47.4796 11.9509C47.5575 11.9297 47.5115 11.9155 47.5752 11.8836C47.5327 11.9829 47.6991 11.9509 47.5752 12.068C47.6495 12.0325 47.5965 11.9935 47.6708 11.997C47.5327 12.1247 47.731 12.0254 47.6708 12.1105C47.6106 12.1956 47.6035 12.1105 47.5611 12.1779C47.7062 12.1034 47.5788 12.263 47.6177 12.2737C47.7274 12.2027 47.7062 12.3056 47.7699 12.3339C47.7274 12.3339 47.7699 12.4616 47.7345 12.529H47.7168C47.8372 12.4864 47.8372 12.5467 47.8761 12.5751C47.8304 12.595 47.7806 12.6035 47.731 12.5999V12.6318C47.7447 12.625 47.7599 12.6214 47.7752 12.6214C47.7906 12.6214 47.8057 12.625 47.8195 12.6318L47.7274 12.6567C47.7274 12.6957 47.8655 12.7098 47.8195 12.7879C47.908 12.7879 48.0496 12.6708 48.1274 12.7276C48.0814 12.7276 48 12.7666 47.9752 12.7524C47.9504 12.7382 48.0212 12.7524 48.0035 12.7808H47.915C47.8867 12.8198 47.9858 12.7808 47.9858 12.8056C47.915 12.8056 47.9398 12.834 47.8832 12.8446C47.8265 12.8552 47.908 12.8162 47.8832 12.8127C47.8767 12.8335 47.8653 12.8525 47.8498 12.868C47.8344 12.8834 47.8155 12.8949 47.7947 12.9013C47.8336 12.9013 47.8867 12.9013 47.9009 12.9013C47.915 12.9013 47.8195 12.9333 47.7876 12.9652C47.8372 12.9652 47.7876 13.0042 47.8973 12.99C47.8973 12.99 47.8513 13.0148 47.823 13.0255C47.8726 13.0432 47.8478 13.1354 47.9575 13.0999C48.0672 13.1815 47.9044 13.2773 47.9575 13.3624H47.9221C47.9611 13.4156 47.9221 13.4723 48.0071 13.5184C48.0071 13.5184 47.9398 13.5468 47.9009 13.5184C47.9186 13.561 47.9575 13.5716 47.9009 13.6177C47.8478 13.568 47.8442 13.6177 47.8655 13.5716C47.823 13.6141 47.7699 13.6071 47.8655 13.6815C47.7841 13.6425 47.7451 13.6815 47.7664 13.717H47.8372C47.8392 13.7297 47.8383 13.7426 47.8346 13.7549C47.831 13.7672 47.8246 13.7785 47.8159 13.7879L47.7062 13.7454C47.5469 13.7879 47.8867 13.9901 47.6318 13.9794C47.6991 14.0326 47.7062 13.951 47.7876 14.0042C47.7557 14.0468 47.5823 14.0255 47.5752 14.0362C47.4938 14.0681 47.7097 14.1603 47.6425 14.2028C47.6849 14.2028 47.7911 14.2525 47.8018 14.3163C47.8124 14.3801 47.6177 14.2915 47.6 14.2525C47.5823 14.2135 47.6 14.2525 47.6318 14.2525C47.6279 14.2388 47.6195 14.2268 47.6079 14.2184C47.5964 14.2101 47.5824 14.2058 47.5681 14.2064L47.6035 14.2277C47.554 14.2277 47.5292 14.2879 47.4726 14.2277C47.476 14.2358 47.481 14.2432 47.4874 14.2493C47.4938 14.2554 47.5015 14.2601 47.5098 14.2631C47.5181 14.2662 47.527 14.2674 47.5358 14.2668C47.5446 14.2662 47.5532 14.2637 47.5611 14.2596C47.4761 14.2844 47.515 14.3411 47.4478 14.3731C47.4726 14.3731 47.5221 14.3943 47.515 14.4014C47.4265 14.4546 47.5646 14.4759 47.5504 14.5397C47.4761 14.5397 47.4265 14.4511 47.4372 14.5397C47.3805 14.5397 47.338 14.4865 47.3168 14.4582C47.3557 14.5468 47.2177 14.5184 47.1894 14.5362V14.4901C47.1937 14.4976 47.196 14.5062 47.196 14.5149C47.196 14.5236 47.1937 14.5322 47.1894 14.5397L47.2672 14.5716C47.246 14.5716 47.2389 14.5929 47.2071 14.5716C47.246 14.6177 47.3345 14.639 47.3734 14.7099C47.3274 14.7099 47.3734 14.7951 47.2743 14.7383C47.3487 14.6993 47.1788 14.6816 47.2 14.6213C47.2 14.6213 47.2 14.6497 47.1717 14.6568C47.1671 14.6542 47.1631 14.6506 47.16 14.6463C47.157 14.6421 47.1549 14.6371 47.154 14.6319C47.0301 14.6319 47.2389 14.7312 47.1929 14.788C47.1469 14.7454 47.0867 14.7348 47.0903 14.749C47.0938 14.7631 47.1823 14.8022 47.2071 14.8518C47.1398 14.8518 47.2071 14.9156 47.1858 14.9334H47.2212C47.2637 14.9795 47.246 14.9937 47.2389 15.0327C47.1965 15.0043 47.2389 14.9866 47.2071 14.983C47.2708 15.0823 47.0655 14.983 47.0903 15.0681C47.0442 15.0681 46.9982 14.9972 46.9628 14.9936C46.9876 15.0894 46.8566 14.9936 46.8708 15.0788C46.9451 15.1178 46.931 15.1036 46.9664 15.1887L46.9841 15.0717L47.0407 15.1993C47.0584 15.1781 47.0407 15.1178 47.0619 15.1107C47.0973 15.1781 47.0832 15.1639 47.1469 15.1958C47.0195 15.1497 47.1469 15.3093 47.0513 15.2915L46.892 15.1568C46.7752 15.1568 46.892 15.3235 46.7894 15.3625H46.8354C46.8885 15.4263 46.8035 15.4157 46.8106 15.4582C46.7742 15.4268 46.7322 15.4028 46.6867 15.3873C46.7257 15.4227 46.6372 15.4369 46.7327 15.5362L46.6372 15.5079C46.5557 15.5362 46.7221 15.7065 46.6372 15.7455C46.5982 15.6781 46.538 15.6674 46.531 15.593C46.5133 15.6107 46.4885 15.6178 46.531 15.6533C46.492 15.632 46.5522 15.7667 46.4885 15.7384C46.4885 15.7667 46.5557 15.8199 46.531 15.8377C46.5208 15.8315 46.5124 15.823 46.5062 15.8128C46.531 15.8377 46.5062 15.8767 46.5805 15.9121C46.3717 15.8164 46.4425 16.0824 46.2584 15.9972C46.2385 16.0527 46.2111 16.1052 46.177 16.1533C46.177 16.1355 46.1522 16.1285 46.177 16.1285C46.0814 16.1285 46.2867 16.2987 46.177 16.3022C46.0672 16.3058 46.177 16.2313 46.1168 16.2171C45.9469 16.0611 46.0708 16.3058 45.9398 16.2455C45.8549 16.2171 45.9398 16.3767 45.869 16.4122L45.8478 16.3838C45.8658 16.427 45.8751 16.4735 45.8751 16.5203C45.8751 16.5672 45.8658 16.6136 45.8478 16.6569C45.8018 16.5753 45.8478 16.6001 45.7628 16.5434C45.7628 16.5717 45.8726 16.6462 45.8478 16.703C45.7828 16.6837 45.7225 16.6511 45.6708 16.6072L45.7062 16.5682C45.6 16.4937 45.6566 16.6178 45.6212 16.6214L45.5858 16.5788C45.5398 16.6462 45.6354 16.7491 45.5611 16.8022L45.5965 16.8271C45.6566 16.9618 45.515 16.7987 45.5504 16.9051L45.4442 16.8129C45.4503 16.8902 45.4443 16.9679 45.4265 17.0434C45.3986 16.9612 45.3843 16.8749 45.3841 16.7881C45.3635 16.8046 45.3488 16.8274 45.3425 16.853C45.3361 16.8786 45.3382 16.9057 45.3487 16.9299C45.3487 16.9122 45.3487 16.8767 45.3487 16.8838C45.3947 16.9902 45.3911 17.0647 45.3487 17.1072C45.1752 16.898 45.1788 17.164 44.9947 17.0363C44.9947 17.1852 44.8035 17.1462 44.7186 17.242C44.8885 17.3732 44.6938 17.2739 44.8389 17.4335C44.8389 17.4619 44.8142 17.4654 44.8035 17.4583L44.6513 17.4193C44.5911 17.3838 44.6513 17.3626 44.6088 17.3271C44.5451 17.359 44.5274 17.2739 44.4566 17.2597C44.5133 17.3129 44.5097 17.359 44.4566 17.359L44.5593 17.4016C44.5593 17.5505 44.3858 17.3165 44.3858 17.4619L44.3646 17.3909C44.3646 17.4512 44.2301 17.5009 44.3044 17.664C44.2832 17.664 44.2372 17.6108 44.2442 17.586C44.138 17.6356 44.1628 17.8874 44.0283 17.859L44 17.8129C44 17.8378 44.0354 17.9158 43.9823 17.8874C43.9292 17.859 43.954 17.8413 43.9434 17.8449C43.9327 17.8484 43.9434 17.9548 43.9186 17.9477V17.8839C43.7876 17.8839 43.8726 18.1037 43.823 18.1888C43.7975 18.1489 43.7604 18.1177 43.7168 18.0994C43.6732 18.081 43.6251 18.0764 43.5788 18.086C43.4655 18.1463 43.4832 18.3201 43.4265 18.4406C43.2637 18.3484 43.1823 18.5328 43.0301 18.5257C43.0494 18.5408 43.065 18.5602 43.0754 18.5824C43.0859 18.6045 43.0909 18.6289 43.0903 18.6534C43.0513 18.6534 43.0903 18.7846 43.0124 18.6534C42.9133 18.5506 42.8885 18.6144 42.8496 18.6534L42.9522 18.813C42.6973 18.6569 42.7575 19.0719 42.5628 18.9123C42.5628 18.9655 42.538 18.9868 42.5416 19.0399L42.4849 18.9584C42.4105 18.9737 42.3439 19.0152 42.2973 19.0754L42.2726 19.0045C42.223 19.0329 42.3858 19.2811 42.3469 19.3166L42.2442 19.2031C42.1664 19.2634 42.0106 19.2031 42.0106 19.3839C42.0106 19.3839 41.9752 19.3272 41.9858 19.313C41.9965 19.2988 41.7805 19.3414 41.9186 19.4939C41.8336 19.391 41.8265 19.5471 41.823 19.6286L41.7664 19.5435C41.8088 19.6712 41.8301 19.6996 41.8018 19.7669C41.7841 19.7669 41.7416 19.7137 41.7734 19.7208C41.7026 19.7208 41.8018 19.8166 41.7239 19.813L41.6991 19.7527C41.6566 19.7776 41.6814 19.8024 41.6991 19.8769C41.7168 19.9513 41.6071 19.9194 41.5434 19.8556C41.5752 19.9017 41.6 19.9762 41.5611 19.9762C41.544 19.9611 41.5317 19.9414 41.5257 19.9194C41.4159 19.9194 41.508 20.0896 41.3982 20.0577C41.3845 20.0415 41.3677 20.0282 41.3487 20.0187C41.4053 19.9762 41.4478 19.9407 41.4513 19.9513C41.3911 19.884 41.338 19.9088 41.2885 19.7847C41.2885 19.8662 41.3416 20.0294 41.2885 20.0365H41.2637C41.246 20.0365 41.246 20.0365 41.246 20.0719C41.246 20.1074 41.2071 20.0719 41.1965 20.0719C41.1363 20.0223 41.1186 20.0719 41.0973 20.1074C41.1681 20.1783 41.1292 20.1925 41.2141 20.228C41.2141 20.228 41.2141 20.228 41.2141 20.1996C41.2141 20.1712 41.2141 20.1996 41.2141 20.1996L41.2602 20.1464C41.2602 20.1996 41.292 20.2457 41.2318 20.228C41.2637 20.2847 41.2991 20.3414 41.3168 20.3698C41.1929 20.2953 41.0867 20.2989 41.0159 20.2457C40.9947 20.3485 40.8991 20.4265 41.0159 20.6003C41.0159 20.6358 40.9593 20.6003 40.931 20.5755C40.9026 20.5507 40.931 20.54 40.931 20.5187C40.931 20.5861 40.8496 20.6464 40.931 20.7351C40.846 20.7351 40.8566 20.6322 40.8212 20.7138L40.7965 20.6819C40.5203 20.7032 40.9133 21.0897 40.5947 21.111C40.6025 21.1074 40.6109 21.1056 40.6195 21.1056C40.628 21.1056 40.6365 21.1074 40.6442 21.111C40.4319 21.2493 40.5522 21.5436 40.3221 21.7032C40.269 21.7564 40.3504 21.7812 40.4071 21.8309H40.3009L40.4106 21.916C40.492 22.0082 40.131 22.0578 40.3009 22.1855H40.3752C40.3752 22.228 40.4248 22.3132 40.3398 22.3132C40.3398 22.3132 40.4177 22.3132 40.3788 22.3415H40.3257C40.3606 22.373 40.3973 22.4026 40.4354 22.4302C40.4106 22.5153 40.2088 22.455 40.2301 22.5827C40.2619 22.6288 40.4212 22.6678 40.4496 22.6394C40.4779 22.611 40.4708 22.5862 40.5274 22.5685L40.5628 22.5969C40.7149 22.575 40.8594 22.5166 40.9841 22.4266H40.8743L40.9487 22.3947V22.4302C41.0159 22.3912 40.9487 22.3947 40.8991 22.3876C40.929 22.382 40.9578 22.3712 40.9841 22.3557C40.931 22.3557 40.8743 22.3557 40.8212 22.3344C40.885 22.3344 40.9522 22.3344 40.9805 22.3061C40.9062 22.3061 40.8389 22.3451 40.7894 22.3061C40.8602 22.2742 40.9239 22.2777 40.8566 22.2564C40.8856 22.2486 40.9161 22.2486 40.9451 22.2564C40.8956 22.2564 40.9203 22.2032 40.8319 22.1926C40.9274 22.1678 40.8106 22.111 40.9664 22.1181C40.9274 22.1181 40.846 22.072 40.8425 22.0472C41.023 22.1039 40.8425 21.9692 41.0619 22.0082C40.8991 21.955 41.0053 21.8982 40.9274 21.8238C40.9274 21.8238 40.9664 21.8415 40.9557 21.8451C40.9451 21.8486 41.0265 21.845 41.0655 21.8167C40.931 21.7741 40.9168 21.7174 40.846 21.6642C40.9841 21.6642 40.9911 21.7387 41.115 21.7706C41.0088 21.7351 41.0336 21.6748 40.9416 21.65C40.9956 21.6462 41.0498 21.6535 41.1009 21.6713C40.9416 21.6004 41.1009 21.6358 40.9947 21.572C41.0938 21.572 41.1469 21.6287 41.1186 21.572C41.1521 21.5606 41.1886 21.5619 41.2212 21.5755ZM41.7062 20.4797V20.501V20.4797ZM41.7841 20.4053C41.7688 20.4111 41.7554 20.4209 41.7451 20.4336C41.7203 20.4088 41.6991 20.3804 41.7097 20.3733C41.7203 20.3663 41.7699 20.3946 41.7699 20.4053H41.7841ZM41.1363 20.0506C41.1363 20.0294 41.1611 20.0506 41.1752 20.0506C41.174 20.0612 41.174 20.0719 41.1752 20.0826C41.1613 20.0772 41.1483 20.0701 41.1363 20.0613V20.0506Z" fill="white"/>
<path d="M41.2035 20.1822H41.2287L41.2107 20.1534L41.2035 20.1822Z" fill="white"/>
<path d="M43.1011 19.636L43.0867 19.6144L43.0903 19.6396L43.1011 19.636Z" fill="white"/>
<path d="M48.1911 12.4802C48.1994 12.4738 48.2068 12.4663 48.2132 12.4581L48.1911 12.4802Z" fill="white"/>
<path d="M48.0849 12.2027V12.1495C48.0823 12.1672 48.0823 12.1851 48.0849 12.2027Z" fill="white"/>
<path d="M48.0035 11.9828L47.9646 12.0041L48.0035 11.9828Z" fill="white"/>
<path d="M47.731 15.3802C47.7346 15.4161 47.7382 15.4017 47.731 15.3802V15.3802Z" fill="white"/>
<path d="M48.0672 14.3801L48.0955 14.4298C48.0955 14.4298 48.1168 14.405 48.0672 14.3801Z" fill="white"/>
<path d="M47.0807 16.3164L47.0761 16.321L47.0807 16.3164Z" fill="white"/>
<path d="M48.0743 14.4723C48.079 14.4718 48.0835 14.4701 48.0874 14.4674C48.0912 14.4647 48.0944 14.461 48.0965 14.4568C48.0986 14.4526 48.0996 14.4479 48.0994 14.4432C48.0993 14.4384 48.0979 14.4338 48.0956 14.4297C48.0956 14.4297 48.0672 14.451 48.0743 14.4723Z" fill="white"/>
<path d="M47.2889 11.2736C47.2889 11.2736 47.2808 11.2817 47.2889 11.2736V11.2736Z" fill="white"/>
<path d="M47.2389 11.2842H47.2743C47.2743 11.2842 47.2566 11.263 47.2389 11.2842Z" fill="white"/>
<path d="M47.5257 11.4832L47.5509 11.458C47.5415 11.4654 47.5331 11.4738 47.5257 11.4832Z" fill="white"/>
<path d="M47.6071 11.5325C47.6071 11.5112 47.6071 11.4403 47.5717 11.4367L47.5504 11.458C47.5965 11.4261 47.5504 11.5679 47.6071 11.5325Z" fill="white"/>
<path d="M47.5398 12.0963L47.5186 12.0325C47.4973 12.0644 47.469 12.1105 47.4407 12.0963C47.4088 12.2311 47.4938 12.0254 47.5398 12.0963Z" fill="white"/>
<path d="M47.6142 12.2843C47.5788 12.2843 47.5681 12.3162 47.5504 12.3269C47.5894 12.3269 47.6 12.3269 47.6142 12.2843Z" fill="white"/>
<path d="M47.915 13.5999H47.8265C47.8336 13.607 47.8619 13.5893 47.915 13.5999Z" fill="white"/>
<path d="M48.308 13.99L48.3681 13.9723L48.2938 13.9368L48.308 13.99Z" fill="white"/>
<path d="M47.6425 13.951L47.6318 13.9368L47.6495 13.9865L47.6425 13.951Z" fill="white"/>
<path d="M46.2442 15.9227L46.3292 15.9972C46.3292 15.9688 46.2407 15.8766 46.2442 15.9227Z" fill="white"/>
<path d="M45.5221 16.7774C45.4761 16.7455 45.4301 16.7384 45.4513 16.7774C45.4761 16.7809 45.5221 16.7987 45.5221 16.7774Z" fill="white"/>
<path d="M42.8248 18.7314L42.8212 18.6888L42.8035 18.7385L42.8248 18.7314Z" fill="white"/>
</g>
<g opacity="0.64">
<path d="M40.9734 15.1816C40.9487 15.1816 40.8849 15.1355 40.8885 15.1604L40.9841 15.2242L40.9734 15.1816Z" fill="white"/>
<path d="M40.7079 15.1958C40.765 15.2652 40.8379 15.3199 40.9203 15.3554C40.8354 15.2809 40.8779 15.2986 40.7717 15.21C40.7717 15.1887 40.8212 15.21 40.8566 15.21C40.8354 15.1887 40.8956 15.21 40.8354 15.1532C40.7752 15.0965 40.7256 15.1532 40.7752 15.2206C40.7519 15.215 40.7293 15.2067 40.7079 15.1958Z" fill="white"/>
<path d="M38.3858 16.7029C38.3858 16.7029 38.3858 16.7029 38.3858 16.6746C38.3858 16.6462 38.3788 16.6959 38.3858 16.7029Z" fill="white"/>
<path d="M38.1704 16.6583C38.1704 16.6583 38.1658 16.6445 38.1704 16.6583V16.6583Z" fill="white"/>
<path d="M39.3628 16.2668H39.3168C39.338 16.2845 39.3451 16.2668 39.3628 16.2668Z" fill="white"/>
<path d="M40.8212 15.565C40.8236 15.5544 40.8236 15.5434 40.8212 15.5327C40.8229 15.5398 40.8229 15.5472 40.8212 15.5543V15.565Z" fill="white"/>
<path d="M39.6885 15.9263L39.6637 15.8838L39.6885 15.9263Z" fill="white"/>
<path d="M39.9434 15.6887C39.9434 15.6887 40 15.7667 40.0248 15.8022C40.0088 15.7841 39.9978 15.7621 39.9929 15.7384L39.9434 15.6887Z" fill="white"/>
<path d="M39.4729 16.0543L39.4513 16.0292L39.4729 16.0543Z" fill="white"/>
<path d="M30.9557 21.5685L30.9522 21.5649L30.8956 21.5756L30.9557 21.5685Z" fill="white"/>
<path d="M34.8672 17.6428C34.9274 17.7172 34.846 17.7704 34.9274 17.8484C34.9097 17.813 34.9274 17.6853 34.8672 17.6428Z" fill="white"/>
<path d="M37.115 16.9689L37.1363 17.0079C37.1305 16.9943 37.1234 16.9812 37.115 16.9689Z" fill="white"/>
<path d="M36.8718 17.1926C36.8718 17.1926 36.8718 17.1926 36.846 17.1926C36.846 17.1926 36.8571 17.1778 36.8718 17.1926Z" fill="white"/>
<path d="M31.6142 20.462L31.5327 20.423C31.5929 20.4585 31.5965 20.5046 31.6142 20.462Z" fill="white"/>
<path d="M40.7752 15.5327C40.7929 15.5327 40.8035 15.5611 40.8035 15.5682C40.8035 15.5753 40.8035 15.5682 40.8035 15.5682L40.7752 15.5327Z" fill="white"/>
<path d="M37.0867 17.9477H37.0336C37.0509 17.9529 37.0694 17.9529 37.0867 17.9477Z" fill="white"/>
<path d="M36.892 18.0044C36.8802 17.9829 36.8646 17.9637 36.846 17.9477V17.9761L36.892 18.0044Z" fill="white"/>
<path d="M31.6106 20.7705C31.6106 20.7386 31.5009 20.6996 31.4372 20.6641C31.3734 20.6287 31.5363 20.6854 31.6035 20.6996C31.5823 20.6606 31.4867 20.5861 31.5009 20.5684C31.519 20.573 31.5359 20.5815 31.5504 20.5932C31.469 20.5152 31.5929 20.5116 31.5009 20.4123H31.5327C31.479 20.3861 31.427 20.3565 31.377 20.3237C31.377 20.3237 31.3274 20.2457 31.4018 20.2847C31.4018 20.2847 31.423 20.3166 31.4407 20.3343V20.2953C31.5504 20.3485 31.4407 20.345 31.5363 20.3911C31.5363 20.3379 31.4619 20.2386 31.5115 20.235C31.6141 20.2989 31.5115 20.3166 31.6142 20.345H31.5504C31.7274 20.423 31.5257 20.345 31.7133 20.4478C31.7699 20.4194 31.7133 20.3627 31.7593 20.3343C31.7168 20.2847 31.6779 20.2811 31.6319 20.2279C31.5929 20.0861 31.908 20.3627 31.823 20.2279C31.7734 20.1641 31.6637 20.0613 31.7557 20.079L31.8478 20.1783C31.8938 20.1464 31.7239 20.0258 31.8478 20.04C31.8832 20.0825 31.8478 20.1038 31.869 20.1074C31.9752 20.1499 31.8301 20.0364 31.8513 20.0116L31.9434 20.0896C31.9752 20.0329 31.9646 19.9194 32 19.852C32.0212 19.8804 32.0389 19.9194 32.0743 19.9336C32.0991 19.8272 32.2265 19.8166 32.3363 19.8166L32.2973 19.7173C32.2973 19.7173 32.3398 19.7421 32.3469 19.7634C32.354 19.7847 32.3044 19.7102 32.2938 19.6712C32.2832 19.6322 32.3504 19.6995 32.3611 19.7315C32.3611 19.6286 32.3823 19.4726 32.4991 19.5293V19.5612C32.5628 19.5612 32.4212 19.352 32.5168 19.4052V19.4265C32.6301 19.4017 32.6867 19.2563 32.8354 19.3449C32.7752 19.2102 32.9628 19.3449 32.8672 19.1676C32.9734 19.2243 32.9734 19.2669 33.0832 19.2846C33.108 19.2846 33.0513 19.1534 33.0832 19.1215L33.1327 19.2173V19.0967L33.2142 19.2031V19.1676C33.2142 19.1676 33.1717 19.1321 33.1575 19.1038C33.1434 19.0754 33.2849 19.1251 33.3097 19.1747C33.3097 19.1321 33.3451 19.0896 33.3628 19.047C33.3694 19.0774 33.3694 19.1089 33.3628 19.1392C33.3628 19.0187 33.4195 19.2421 33.423 19.1392C33.4083 19.1134 33.3964 19.0861 33.3876 19.0577C33.3947 19.0687 33.4043 19.0777 33.4158 19.0839C33.4272 19.0902 33.4401 19.0935 33.4531 19.0935C33.4661 19.0935 33.4789 19.0902 33.4904 19.0839C33.5018 19.0777 33.5115 19.0687 33.5186 19.0577L33.5398 19.1286C33.6177 19.1286 33.6743 19.0328 33.7522 19.0009C33.7097 18.9797 33.6672 18.8591 33.6849 18.8378L33.738 18.9371C33.738 18.8662 33.6956 18.9087 33.6956 18.8165C33.731 18.8165 33.7628 18.9265 33.7628 18.969L33.7841 18.9194C33.7941 18.9496 33.8024 18.9804 33.8088 19.0116C33.8088 18.9371 33.915 19.0931 33.8903 18.969V19.0009C33.9717 18.969 33.9929 18.9194 34.0566 18.8875C34.0212 18.7952 34.0566 18.8059 34.0566 18.7208C34.1168 18.7208 34.1982 18.7882 34.2549 18.7598C34.3115 18.7314 34.2372 18.6747 34.2372 18.6108C34.269 18.696 34.3257 18.6676 34.3186 18.7385C34.3831 18.7065 34.4353 18.6542 34.4672 18.5896C34.4479 18.5681 34.4334 18.5427 34.4248 18.5151C34.4248 18.4938 34.4779 18.5399 34.4885 18.5789C34.5487 18.4158 34.8071 18.7527 34.8425 18.547L34.8991 18.4264C34.9416 18.4264 34.8991 18.5009 34.9416 18.5435C34.9876 18.3697 35.0938 18.5186 35.1398 18.3981C35.2743 18.6392 35.3416 18.32 35.4726 18.4584L35.4513 18.4016C35.4513 18.3342 35.4832 18.4264 35.5044 18.4371C35.5044 18.391 35.4655 18.3874 35.469 18.352C35.6248 18.2278 35.8584 18.352 36.0531 18.352C36.1239 18.352 36.0035 18.0293 36.1274 18.1498V18.2669C36.223 18.0966 36.4035 18.1959 36.5026 18.0434C36.5026 18.0718 36.5026 18.1037 36.5026 18.1073C36.5557 18.1817 36.6088 18.0824 36.5911 18.0151C36.6124 18.0151 36.6124 18.0718 36.6336 18.1037C36.6549 18.1356 36.6761 17.9796 36.7115 18.0541C36.7143 18.0602 36.7158 18.0668 36.7158 18.0736C36.7158 18.0803 36.7143 18.087 36.7115 18.0931C36.7115 18.047 36.8 18.0931 36.7575 17.9902C36.8177 18.0186 36.8389 17.9193 36.8956 17.9619C36.8956 17.8484 36.9947 17.9867 36.9593 17.8378C37.0018 17.9902 37.0832 17.9335 37.0938 17.8378C37.0938 17.8874 37.1363 17.8768 37.1434 17.9441C37.1788 17.9441 37.2035 17.8945 37.1717 17.8165C37.2956 17.9796 37.2566 17.6285 37.3699 17.8519C37.4385 17.7501 37.5206 17.6583 37.6141 17.5789C37.6602 17.7314 37.515 17.6321 37.5681 17.7881C37.6425 17.6959 37.6495 17.547 37.7522 17.5541C37.7841 17.5541 37.7522 17.6214 37.7522 17.6533C37.8195 17.5576 37.9327 17.6037 37.9823 17.4902C37.9877 17.5063 37.9877 17.5238 37.9823 17.5399C37.9823 17.5399 38.0248 17.5399 38 17.4796V17.5044C37.9398 17.4157 38 17.2739 37.9717 17.2207C38.0177 17.4264 38.0672 17.242 38.1168 17.5044C38.1281 17.4723 38.1281 17.4372 38.1168 17.4051C38.1345 17.4051 38.1522 17.437 38.1557 17.4938C38.1982 17.437 38.1557 17.3696 38.2018 17.3519C38.2478 17.3342 38.2018 17.4016 38.2195 17.4441C38.2195 17.3696 38.2195 17.2952 38.2726 17.3058C38.3257 17.3165 38.2938 17.3519 38.2726 17.3555C38.3434 17.3165 38.3292 17.1356 38.4354 17.164C38.4708 17.3129 38.4814 17.1994 38.538 17.32L38.5664 17.2633L38.5239 17.2136C38.5628 17.2136 38.5557 17.0966 38.6053 17.1214V17.1852L38.6655 17.1285L38.6053 17.1001C38.6053 17.0221 38.5345 16.9512 38.6053 16.9618C38.6053 16.9618 38.6407 16.9618 38.6938 17.0079C38.6938 16.9618 38.6938 16.9122 38.7363 16.9299C38.7788 16.9476 38.7894 17.0647 38.8071 17.0895C38.7788 16.9796 38.8814 17.0221 38.8531 16.9051C38.8625 16.9411 38.8768 16.9758 38.8956 17.0079L38.8708 16.9193C38.9026 16.9193 38.9097 16.9476 38.931 16.9973C38.9911 16.9973 38.8425 16.8554 38.931 16.8909C38.931 16.8909 38.931 16.9122 38.931 16.9264C39.0088 16.9264 39.023 16.82 39.0973 16.8306C39.1752 16.9405 39.0619 16.8838 39.1327 16.976C39.2035 16.9122 39.2248 16.7455 39.3168 16.7313H39.2956C39.2141 16.5611 39.3982 16.781 39.3911 16.6781C39.3991 16.7051 39.4098 16.7313 39.423 16.7561C39.4903 16.7561 39.508 16.6533 39.554 16.5576V16.6037C39.6071 16.6249 39.646 16.5753 39.6885 16.5717C39.6885 16.5256 39.6885 16.5221 39.646 16.4689C39.9009 16.6356 39.7487 16.2242 39.9646 16.3483C39.9646 16.3483 39.9646 16.4015 39.9646 16.3944L40.0106 16.3058C39.954 16.2455 39.9717 16.2738 39.9186 16.2313C39.8655 16.1887 39.8938 16.1426 39.9186 16.1284C39.9186 16.1958 39.9965 16.2348 40.0389 16.2597C40.0389 16.2597 40.0106 16.2136 39.9929 16.1958C40.1203 16.2809 39.8973 16.0611 39.9929 16.1001L40.0177 16.1355C40.0177 16.1036 40 16.0433 40.0177 16.0398C40.0885 16.1036 40.0177 16.0894 40.0743 16.1497C40.0991 16.1214 40.0142 15.9689 40.0991 16.0185C40.0991 16.0504 40.0991 16.0646 40.0991 16.093C40.1982 16.1568 40.1841 16.132 40.2159 16.1249H40.2903H40.2584C40.1274 15.9086 40.2973 16.0256 40.2301 15.8696C40.2938 16.0185 40.2867 15.9405 40.3575 16.0185C40.3894 16.0185 40.4318 16.0185 40.446 16.0646C40.4071 15.9795 40.531 16.0646 40.4708 15.9547C40.4956 15.9795 40.4956 15.9334 40.5522 16.0008C40.5522 15.9511 40.5026 15.9653 40.4743 15.9334C40.4283 15.8093 40.6796 15.9334 40.6124 15.749C40.6124 15.6497 40.5239 15.5681 40.5203 15.483C40.577 15.483 40.6088 15.5717 40.6088 15.5717C40.6726 15.5717 40.6796 15.5433 40.669 15.4937C40.6915 15.5161 40.7197 15.532 40.7504 15.5398C40.7504 15.5079 40.6584 15.4511 40.7221 15.4511C40.7575 15.4806 40.7895 15.5139 40.8177 15.5504C40.8177 15.5043 40.7788 15.4405 40.7717 15.3979C40.8248 15.4227 40.8354 15.4618 40.8602 15.4937C40.8666 15.4613 40.8637 15.4278 40.8518 15.397C40.8399 15.3662 40.8194 15.3395 40.7929 15.3199H40.754C40.754 15.3199 40.8283 15.3554 40.8354 15.3731C40.8849 15.444 40.7823 15.3979 40.754 15.3731V15.3412C40.5699 15.2525 40.7292 15.4369 40.6903 15.4724L40.5805 15.3731L40.6549 15.483C40.6159 15.483 40.5451 15.4263 40.5416 15.3944C40.4637 15.3944 40.5664 15.4511 40.4849 15.4227H40.4673V15.4724C40.446 15.4511 40.3823 15.4156 40.4106 15.4121C40.308 15.4121 40.4389 15.5504 40.3398 15.4972C40.3398 15.5894 40.4177 15.5717 40.4779 15.7029L40.2513 15.5575L40.3257 15.6355C40.3257 15.6355 40.3009 15.6355 40.269 15.6142C40.3044 15.6852 40.308 15.6426 40.3469 15.6993C40.2478 15.6639 40.3044 15.8128 40.177 15.6993C40.223 15.7667 40.2478 15.6993 40.2584 15.788C40.1168 15.6639 40.2584 15.8447 40.1628 15.8093C40.0673 15.7738 40.1628 15.7455 40.0779 15.71C40.1734 15.8412 40.0035 15.7313 40.0035 15.7703C40.0885 15.866 40.0035 15.8554 39.9823 15.9192C39.9575 15.8873 39.8655 15.9192 39.7982 15.9192C39.8726 16.0256 39.8195 16.0362 39.7982 16.0788C39.7649 16.043 39.7417 15.9989 39.731 15.9511L39.7062 15.9724C39.7152 15.9844 39.7214 15.9983 39.7245 16.013C39.7275 16.0277 39.7273 16.0429 39.7239 16.0575L39.6708 15.9724C39.6389 16.0043 39.6708 16.1178 39.5858 16.0965C39.6354 16.1746 39.7699 16.2774 39.7522 16.3625C39.719 16.3235 39.6926 16.2791 39.6743 16.2313C39.6743 16.2313 39.6743 16.2738 39.6743 16.2632L39.6495 16.1816C39.6071 16.1816 39.6779 16.2455 39.6495 16.2526C39.6071 16.1958 39.6071 16.2207 39.5788 16.171C39.5504 16.1214 39.6106 16.171 39.6 16.171C39.5579 16.1656 39.519 16.1455 39.4903 16.1143C39.515 16.1462 39.5434 16.1923 39.5327 16.21C39.5221 16.2277 39.4761 16.1497 39.4336 16.132C39.4513 16.1781 39.4018 16.132 39.4584 16.2384C39.4584 16.2384 39.4195 16.2065 39.3982 16.1852C39.3982 16.2348 39.3168 16.2526 39.3982 16.3341C39.3982 16.4653 39.2354 16.3661 39.1929 16.4405L39.1752 16.4122C39.1752 16.4689 39.1044 16.4831 39.1115 16.5611C39.1115 16.5611 39.0513 16.5221 39.0372 16.4831C39.0195 16.5221 39.0372 16.5575 38.9664 16.5292C38.9664 16.4618 38.931 16.4866 38.9664 16.4724C38.9133 16.4724 38.8814 16.4228 38.8849 16.5292C38.8566 16.4441 38.8035 16.4441 38.7965 16.4795L38.8531 16.5221C38.8462 16.5313 38.837 16.5384 38.8264 16.5428C38.8158 16.5471 38.8042 16.5486 38.7929 16.5469L38.7504 16.437C38.6088 16.3483 38.715 16.7278 38.5487 16.5434C38.5487 16.6285 38.6159 16.5753 38.6407 16.671C38.5947 16.671 38.4849 16.5363 38.4743 16.5434C38.3965 16.5044 38.4956 16.7207 38.4248 16.7029C38.446 16.7384 38.4991 16.8377 38.4743 16.8944C38.4496 16.9512 38.3575 16.7526 38.3681 16.7136C38.3788 16.6746 38.3858 16.7136 38.3894 16.7136C38.3951 16.7004 38.3965 16.6857 38.3933 16.6717C38.3901 16.6576 38.3826 16.645 38.3717 16.6356V16.6781C38.3363 16.6462 38.2867 16.6781 38.2726 16.6037C38.2726 16.6533 38.2726 16.671 38.3186 16.6852C38.2442 16.6498 38.2407 16.7136 38.1734 16.6852C38.1734 16.7065 38.2159 16.749 38.2088 16.749C38.1168 16.749 38.2088 16.8377 38.1628 16.8767C38.1097 16.8306 38.1168 16.7313 38.0849 16.8022C38.0389 16.7739 38.0389 16.6994 38.0354 16.6639C38.0354 16.7561 37.9327 16.6639 37.9009 16.6427V16.6037C37.9009 16.6285 37.8832 16.632 37.869 16.6356L37.915 16.71C37.8938 16.71 37.8832 16.71 37.869 16.671C37.869 16.7313 37.9327 16.7987 37.9292 16.8803C37.8938 16.8483 37.8867 16.9476 37.8407 16.8448C37.915 16.8448 37.7947 16.742 37.8407 16.7065C37.8867 16.671 37.8407 16.7065 37.8053 16.7065C37.8028 16.7022 37.8015 16.6973 37.8015 16.6923C37.8015 16.6873 37.8028 16.6824 37.8053 16.6781C37.7133 16.6072 37.8053 16.8058 37.7628 16.8271C37.7628 16.7632 37.7062 16.7171 37.7026 16.7349C37.6991 16.7526 37.7487 16.8306 37.7451 16.8838C37.6885 16.8519 37.7133 16.9335 37.692 16.9335H37.7239C37.7239 16.9937 37.7239 16.9937 37.6956 17.0221C37.6743 16.9796 37.6956 16.9831 37.6956 16.9654C37.6956 17.0824 37.5858 16.8838 37.5717 16.9654C37.5363 16.9299 37.5292 16.8519 37.5044 16.8306C37.4832 16.9264 37.423 16.7668 37.3982 16.8306C37.4372 16.9051 37.4336 16.8838 37.4265 16.976L37.4867 16.8909V17.0257C37.5115 17.0257 37.5221 16.9583 37.5398 16.9654C37.5398 17.0398 37.5398 17.0186 37.5681 17.0824C37.4938 16.9725 37.5257 17.1746 37.4584 17.1072L37.3911 16.9086C37.3026 16.8377 37.3239 17.0469 37.2283 17.0186L37.2637 17.0469C37.2814 17.1285 37.2212 17.0718 37.2071 17.1143C37.1932 17.0688 37.1703 17.0266 37.1398 16.9902C37.1398 17.0363 37.0832 16.9902 37.115 17.1391L37.0549 17.0611C36.9805 17.0611 37.0549 17.2739 36.9734 17.2703C36.9734 17.1923 36.9274 17.1533 36.9522 17.0895C36.931 17.0895 36.9097 17.0895 36.9239 17.132C36.8991 17.0966 36.8956 17.242 36.8566 17.1817C36.8566 17.2136 36.8779 17.2845 36.8566 17.2881C36.8553 17.2763 36.8553 17.2644 36.8566 17.2526C36.8566 17.2881 36.8354 17.3094 36.8779 17.3767C36.7504 17.1888 36.7044 17.4441 36.5982 17.281C36.558 17.3235 36.5114 17.3594 36.4602 17.3874C36.4602 17.3661 36.4602 17.3519 36.4602 17.359C36.3858 17.3129 36.4814 17.5611 36.3965 17.5079C36.3115 17.4548 36.3965 17.4406 36.3965 17.4051C36.3257 17.1852 36.3292 17.4583 36.2478 17.3413C36.1947 17.2774 36.1911 17.4477 36.1345 17.4477C36.1356 17.4371 36.1356 17.4264 36.1345 17.4157C36.1339 17.4586 36.1244 17.5009 36.1068 17.5399C36.0891 17.579 36.0636 17.614 36.0319 17.6427C36.0319 17.5505 36.0319 17.5895 36.0071 17.5044C35.9858 17.5044 36.0531 17.6427 36.0071 17.6817C35.9617 17.6332 35.9257 17.5767 35.9009 17.515H35.9434C35.8867 17.398 35.8903 17.515 35.8584 17.515V17.4618C35.7947 17.4973 35.8336 17.6321 35.7593 17.6427V17.6817C35.7593 17.8271 35.7062 17.6179 35.6956 17.7278L35.646 17.5966C35.6229 17.6656 35.5907 17.7311 35.5504 17.7917C35.5559 17.7075 35.5751 17.6249 35.6071 17.547C35.583 17.552 35.5616 17.5655 35.5467 17.585C35.5317 17.6046 35.5243 17.6288 35.5257 17.6533C35.5257 17.6533 35.5257 17.6002 35.554 17.6179C35.554 17.7314 35.5257 17.7952 35.4726 17.8094C35.4088 17.5434 35.3203 17.781 35.2248 17.5895C35.1646 17.7136 35.0336 17.5895 34.931 17.6498C35.0301 17.8413 34.9026 17.6498 34.9699 17.8697C34.9487 17.8909 34.9416 17.8909 34.9345 17.8697L34.8212 17.7704C34.7858 17.7136 34.8212 17.7172 34.8212 17.6711C34.8212 17.625 34.7717 17.5895 34.7186 17.547C34.7504 17.6179 34.7186 17.6569 34.6938 17.6392L34.7646 17.7207C34.7257 17.8555 34.6478 17.5682 34.6053 17.6994V17.6285C34.577 17.6782 34.4566 17.6711 34.4743 17.8519C34.4743 17.8307 34.4319 17.7775 34.4425 17.7562C34.3398 17.7562 34.2938 18.0009 34.1876 17.9229V17.8697C34.1876 17.8909 34.1876 17.9761 34.1487 17.9335C34.1097 17.8909 34.1487 17.8803 34.1487 17.8803C34.1487 17.8803 34.1487 17.9832 34.0991 17.9619V17.9016C33.9858 17.8661 34.0071 18.086 33.9469 18.1498C33.9352 18.1047 33.911 18.0639 33.8772 18.0319C33.8434 17.9999 33.8013 17.9781 33.7557 17.969V17.9477C33.6389 17.9725 33.6212 18.1427 33.5469 18.2349C33.423 18.1037 33.3168 18.2562 33.1929 18.2101C33.208 18.2288 33.2193 18.2504 33.226 18.2736C33.2326 18.2967 33.2346 18.3209 33.2318 18.3449C33.1965 18.3449 33.2318 18.4725 33.1575 18.3449C33.0796 18.2278 33.0478 18.281 33.0124 18.2952L33.0832 18.469C32.8708 18.2633 32.8849 18.6782 32.7292 18.469C32.7292 18.5222 32.7009 18.5364 32.7009 18.5896L32.6549 18.5009C32.5865 18.5067 32.5224 18.5369 32.4743 18.586V18.5151C32.4248 18.5364 32.5628 18.7952 32.531 18.8236L32.4425 18.703C32.3717 18.7527 32.223 18.703 32.2265 18.8484C32.2265 18.8484 32.1911 18.7917 32.2018 18.7811C32.2124 18.7704 32.0106 18.7811 32.1416 18.9477C32.0637 18.8414 32.0602 18.9903 32.0566 19.0648L32.0035 18.9797C32.046 19.1073 32.0672 19.1357 32.046 19.196C32.046 19.196 31.9894 19.1392 32.0177 19.1499C31.954 19.1499 32.0496 19.2421 31.9752 19.235L31.954 19.1712C31.9115 19.196 31.954 19.2173 31.954 19.2917C31.954 19.3662 31.8726 19.3236 31.8088 19.2598C31.8407 19.3059 31.869 19.3768 31.8336 19.3733C31.8158 19.3589 31.8034 19.3389 31.7982 19.3166C31.6991 19.3166 31.7982 19.4761 31.6885 19.4371C31.6758 19.4222 31.6601 19.4102 31.6425 19.4017C31.6885 19.3627 31.731 19.3343 31.731 19.3449C31.6708 19.274 31.6248 19.2953 31.5681 19.1747C31.5681 19.2563 31.6354 19.4052 31.5681 19.4088H31.5434C31.5434 19.4088 31.5434 19.4088 31.5434 19.4407C31.5434 19.4726 31.508 19.4407 31.4973 19.4407C31.4407 19.391 31.4265 19.4407 31.4088 19.4655C31.4796 19.5364 31.4478 19.5471 31.5257 19.5825C31.5257 19.5825 31.5257 19.5825 31.5257 19.5577C31.5257 19.5329 31.5257 19.5577 31.5257 19.5577L31.5646 19.5081C31.5858 19.5577 31.6035 19.6038 31.5646 19.5825L31.6531 19.7173C31.5327 19.6428 31.4336 19.6393 31.3628 19.5896C31.3628 19.6818 31.2708 19.7492 31.3876 19.9017C31.3876 19.9336 31.331 19.9017 31.3026 19.8769C31.2743 19.852 31.3026 19.8449 31.3026 19.8237C31.3026 19.8875 31.2389 19.9371 31.338 20.0223C31.2602 20.0223 31.2602 19.9265 31.2319 19.9974L31.2071 19.9655C31.0761 19.9655 31.1115 20.0648 31.1434 20.157C31.1752 20.2492 31.2 20.3308 31.0478 20.3414C31.0639 20.336 31.0813 20.336 31.0973 20.3414C31.058 20.3706 31.0261 20.4085 31.004 20.4522C30.9818 20.496 30.9702 20.5442 30.9699 20.5932C30.9679 20.6443 30.9537 20.6942 30.9284 20.7386C30.9032 20.783 30.8676 20.8207 30.8248 20.8485C30.7752 20.8946 30.8566 20.9159 30.9133 20.9585H30.8035L30.9203 21.0329C31.0053 21.111 30.6372 21.1464 30.8142 21.2599H30.8849C30.8849 21.2954 30.931 21.3698 30.846 21.3698C30.846 21.3698 30.9203 21.3698 30.8849 21.3911H30.8283L30.9345 21.4656C30.9026 21.5365 30.7115 21.4656 30.7186 21.5897C30.7481 21.6134 30.7823 21.6304 30.819 21.6396C30.8556 21.6488 30.8938 21.6499 30.931 21.6429C30.931 21.6429 30.9593 21.6003 31.0124 21.5862L31.0442 21.611C31.1972 21.5974 31.3456 21.5515 31.4796 21.4762L31.3734 21.4585L31.4513 21.4337V21.462C31.5221 21.4337 31.4513 21.4337 31.4053 21.4266C31.4353 21.4234 31.4643 21.4137 31.4903 21.3982L31.3274 21.3805C31.3911 21.3805 31.4584 21.3805 31.4903 21.3557C31.4159 21.3557 31.3451 21.3876 31.2991 21.3557C31.3734 21.3308 31.4336 21.3344 31.3699 21.3166C31.3989 21.309 31.4294 21.309 31.4584 21.3166C31.4053 21.3166 31.4336 21.2705 31.3487 21.2599C31.4372 21.2599 31.3203 21.1925 31.4796 21.2032C31.4407 21.2032 31.3593 21.1606 31.3557 21.1393C31.5398 21.1925 31.377 21.072 31.5717 21.111C31.4053 21.0649 31.515 21.0188 31.4336 20.9549C31.4336 20.9549 31.4726 20.9549 31.4619 20.9549C31.4513 20.9549 31.5327 20.9549 31.5646 20.9549C31.48 20.928 31.4034 20.8804 31.3416 20.8166C31.4796 20.8166 31.4867 20.8875 31.6142 20.9195C31.508 20.8875 31.5257 20.8344 31.4336 20.8131C31.4879 20.809 31.5424 20.8175 31.5929 20.8379C31.4301 20.7705 31.5717 20.806 31.4796 20.7457C31.5717 20.7457 31.6283 20.8024 31.6 20.7457C31.6042 20.7537 31.6077 20.762 31.6106 20.7705ZM32.0071 19.774C31.9945 19.7793 31.9835 19.7879 31.9752 19.7988C31.9469 19.774 31.9257 19.7456 31.9363 19.7421C31.9469 19.7386 31.9752 19.7634 32.0071 19.774ZM31.3841 19.4194C31.3841 19.3981 31.3841 19.4194 31.4195 19.4194V19.4478L31.3841 19.4194Z" fill="white"/>
<path d="M31.4549 19.5155H31.4801L31.4585 19.4904L31.4549 19.5155Z" fill="white"/>
<path d="M33.1118 19.246L33.0974 19.2208L33.101 19.246H33.1118Z" fill="white"/>
<path d="M40 16.2562H40.0221C40.0148 16.2547 40.0073 16.2547 40 16.2562Z" fill="white"/>
<path d="M40.3544 16.0367L40.3292 16.0008L40.3544 16.0367Z" fill="white"/>
<path d="M37.9437 17.5399C37.9289 17.5694 37.9363 17.5583 37.9437 17.5399V17.5399Z" fill="white"/>
<path d="M38.6301 17.0079C38.6323 17.0256 38.6323 17.0435 38.6301 17.0611C38.6301 17.0611 38.6513 17.0611 38.6301 17.0079Z" fill="white"/>
<path d="M38.5841 17.0789C38.6053 17.0789 38.6159 17.0789 38.6195 17.0789C38.623 17.0789 38.5841 17.0576 38.5841 17.0789Z" fill="white"/>
<path d="M40.9212 15.4127C40.9212 15.4127 40.9086 15.4043 40.9212 15.4127V15.4127Z" fill="white"/>
<path d="M40.9026 15.366V15.3984C40.9026 15.3984 40.9243 15.384 40.9026 15.366Z" fill="white"/>
<path d="M40.7433 15.6143L40.7717 15.6355L40.7433 15.6143Z" fill="white"/>
<path d="M40.708 15.6781C40.708 15.6781 40.8 15.6781 40.7965 15.6568L40.7752 15.6356C40.8071 15.6781 40.6655 15.6143 40.708 15.6781Z" fill="white"/>
<path d="M40.1734 15.6143L40.2336 15.593C40.1982 15.5753 40.1522 15.5469 40.1628 15.5256C40.0318 15.4902 40.2336 15.5682 40.1734 15.6143Z" fill="white"/>
<path d="M40 15.6923C40 15.6568 39.9611 15.6498 39.9469 15.632C39.9717 15.671 39.9752 15.6817 40 15.6923Z" fill="white"/>
<path d="M38.9982 16.4051L38.9593 16.3235C38.938 16.3448 38.977 16.3555 38.9982 16.4051Z" fill="white"/>
<path d="M38.9947 16.9335L39.0442 16.9725L39.0159 16.8945L38.9947 16.9335Z" fill="white"/>
<path d="M38.5805 16.4193L38.5841 16.4016L38.5628 16.4477L38.5805 16.4193Z" fill="white"/>
<path d="M36.5982 17.1817L36.6372 17.2881C36.6478 17.2633 36.6124 17.1427 36.5982 17.1817Z" fill="white"/>
<path d="M35.7239 17.5541C35.6991 17.5009 35.6637 17.4725 35.6637 17.5328C35.6849 17.5328 35.7203 17.5682 35.7239 17.5541Z" fill="white"/>
<path d="M32.9345 18.3307V18.2881L32.9133 18.3342L32.9345 18.3307Z" fill="white"/>
</g>
<g opacity="0.64">
<path d="M51.7699 13.1567C51.7699 13.1815 51.7274 13.2453 51.7381 13.2347L51.7947 13.1318L51.7699 13.1567Z" fill="white"/>
<path d="M51.7204 13.3731C51.7678 13.2985 51.8093 13.2202 51.8443 13.139C51.7876 13.2383 51.8053 13.1922 51.7416 13.3128C51.7416 13.3128 51.7416 13.2738 51.7664 13.2348C51.7664 13.2596 51.7664 13.2064 51.7345 13.2703C51.7027 13.3341 51.7133 13.366 51.7558 13.3022L51.7204 13.3731Z" fill="white"/>
<path d="M52.489 14.2489C52.489 14.2489 52.4809 14.257 52.489 14.2489V14.2489Z" fill="white"/>
<path d="M52.2089 13.8411V13.8801C52.2195 13.8411 52.2089 13.8411 52.2089 13.8411Z" fill="white"/>
<path d="M51.926 13.1567L51.908 13.1854L51.926 13.1567Z" fill="white"/>
<path d="M52.0106 13.8411L51.9858 13.8801L52.0106 13.8411Z" fill="white"/>
<path d="M51.8867 13.7879C51.8867 13.7879 51.9363 13.7063 51.9575 13.6673C51.9466 13.6876 51.9336 13.7066 51.9186 13.724C51.9186 13.724 51.9009 13.7595 51.8867 13.7879Z" fill="white"/>
<path d="M54.5876 16.7278L54.5805 16.7242L54.5274 16.7349L54.5876 16.7278Z" fill="white"/>
<path d="M52.5106 14.4227C52.5106 14.4227 52.5052 14.4281 52.5106 14.4227V14.4227Z" fill="white"/>
<path d="M53.3522 15.0858C53.4089 15.0184 53.4513 15.0255 53.5115 14.9475C53.4532 14.9872 53.3998 15.0336 53.3522 15.0858Z" fill="white"/>
<path d="M51.9221 13.1717C51.9221 13.1717 51.9276 13.1662 51.9221 13.1717V13.1717Z" fill="white"/>
<path d="M53.5115 14.9447L53.5194 14.9369L53.5115 14.9447Z" fill="white"/>
<path d="M52.7611 14.5508L52.7863 14.5149L52.7611 14.5508Z" fill="white"/>
<path d="M52.9315 14.5007C52.9315 14.5007 52.9233 14.517 52.9315 14.5007V14.5007Z" fill="white"/>
<path d="M54.8885 16.0894L54.8036 16.1213C54.8673 16.1001 54.8991 16.1107 54.8885 16.0894Z" fill="white"/>
<path d="M51.9009 13.2098C51.906 13.1958 51.9131 13.1827 51.9221 13.1708L51.9009 13.2098Z" fill="white"/>
<path d="M53.4513 13.9049V13.9301C53.4532 13.9261 53.4542 13.9218 53.4542 13.9175C53.4542 13.9131 53.4532 13.9088 53.4513 13.9049Z" fill="white"/>
<path d="M54.4779 15.2604C54.4779 15.2604 54.4895 15.2373 54.4779 15.2604V15.2604Z" fill="white"/>
<path d="M53.5044 13.9581C53.4901 13.9753 53.4782 13.9944 53.469 14.0149L53.5044 13.9581Z" fill="white"/>
<path d="M55.069 16.1887C55.069 16.1675 54.9416 16.2136 54.8673 16.2313C54.7929 16.249 54.9593 16.1923 55.0195 16.1675C54.9841 16.1675 54.8637 16.1675 54.8673 16.1675C54.8848 16.1644 54.9028 16.1644 54.9204 16.1675C54.8177 16.1675 54.9027 16.1214 54.7717 16.1462H54.8036L54.6336 16.2029C54.6336 16.2029 54.5487 16.2029 54.6336 16.2029C54.6525 16.2042 54.6714 16.2042 54.6903 16.2029H54.6549C54.7682 16.1568 54.6974 16.2029 54.7859 16.171C54.7398 16.171 54.6372 16.171 54.6655 16.171C54.7788 16.1285 54.7151 16.171 54.8106 16.1355L54.7717 16.171C54.9487 16.0965 54.7717 16.171 54.9522 16.1072C54.9735 16.0682 54.8814 16.1072 54.9062 16.0575C54.8425 16.0575 54.8142 16.093 54.7469 16.1107C54.623 16.1107 55.023 15.9795 54.8602 16.0043C54.7823 16.0256 54.6407 16.0753 54.708 16.0292L54.839 15.9866C54.839 15.9547 54.6513 16.0433 54.7257 15.9866C54.8 15.9299 54.7752 15.9866 54.7894 15.9866C54.8814 15.9299 54.7115 16.0043 54.708 15.9866L54.8177 15.9405C54.7894 15.9192 54.6974 15.9405 54.6655 15.9015C54.7005 15.8925 54.7339 15.8781 54.7646 15.8589C54.6938 15.8589 54.7434 15.7738 54.7929 15.7064L54.6903 15.7384C54.7077 15.7233 54.7282 15.7124 54.7505 15.7064C54.7788 15.6745 54.6903 15.7348 54.6513 15.7455C54.6124 15.7561 54.7009 15.71 54.7292 15.6994C54.6407 15.6994 54.5274 15.6994 54.6159 15.6391H54.6443C54.6726 15.6001 54.4425 15.7135 54.5204 15.6391H54.5381C54.5558 15.5752 54.4496 15.5752 54.5699 15.4688C54.4354 15.5362 54.6053 15.3944 54.4213 15.4937C54.4991 15.4192 54.5345 15.4086 54.577 15.3376C54.577 15.3376 54.4567 15.3908 54.4319 15.3908L54.5133 15.2596L54.4071 15.3057L54.5133 15.2312H54.4814C54.4643 15.2525 54.4425 15.2695 54.4177 15.2809C54.3682 15.2809 54.4602 15.2029 54.5062 15.1745H54.4071C54.4319 15.1603 54.458 15.1484 54.485 15.139C54.3788 15.1781 54.5805 15.0752 54.485 15.1107C54.4613 15.1278 54.4365 15.1432 54.4106 15.1568C54.4602 15.1107 54.446 15.0894 54.4106 15.0894L54.4743 15.0539C54.4743 15.0149 54.4071 15.0149 54.3894 14.983C54.3462 15.0249 54.2959 15.0585 54.2407 15.0823L54.3328 15.0114C54.269 15.0468 54.3044 15.0468 54.223 15.0859C54.223 15.0646 54.3257 15.0043 54.3611 14.9866H54.3186L54.4 14.9334C54.3398 14.9688 54.4779 14.8447 54.3717 14.9085L54.4 14.8873C54.3788 14.8553 54.3363 14.866 54.3151 14.8447C54.2705 14.8752 54.2231 14.9014 54.1735 14.9227C54.1735 14.8873 54.2336 14.8199 54.2124 14.8021C54.1692 14.823 54.1288 14.8492 54.092 14.8802C54.1628 14.8234 54.1416 14.8057 54.1982 14.7773C54.1699 14.7773 54.1628 14.756 54.0779 14.7773C54.0596 14.7981 54.0395 14.8171 54.0177 14.8341C54.0177 14.8341 54.0354 14.7986 54.0708 14.7702C53.9363 14.8234 54.2089 14.5255 54.039 14.6177L53.9398 14.6532C53.9398 14.6319 53.9965 14.6177 54.0319 14.5716C53.8938 14.639 54.0106 14.5078 53.9115 14.5504C54.0956 14.3553 53.8372 14.4972 53.9398 14.3589L53.8974 14.4014C53.8443 14.4369 53.9151 14.3695 53.9221 14.3553C53.9292 14.3411 53.8867 14.4014 53.8584 14.4191C53.7522 14.4191 53.823 14.2418 53.8018 14.1496C53.8018 14.1177 53.5646 14.3695 53.6425 14.2383L53.731 14.1603C53.5929 14.2241 53.6531 14.0752 53.5292 14.1248C53.5505 14.1248 53.5752 14.0823 53.5788 14.0858C53.6283 14.0149 53.5505 14.0539 53.5044 14.1035C53.5044 14.1035 53.5434 14.0574 53.5646 14.0255C53.5859 13.9936 53.469 14.0893 53.5221 14.0255C53.5293 14.0173 53.5377 14.0101 53.5469 14.0042C53.5151 14.0291 53.5292 13.9723 53.469 14.0503C53.469 14.0007 53.4089 14.0503 53.4372 14.0007C53.3558 14.0787 53.4372 13.9404 53.3416 14.0539C53.4478 13.9333 53.3982 13.9333 53.3416 13.983C53.377 13.9475 53.3664 13.9369 53.4124 13.8872C53.4124 13.8872 53.3699 13.8872 53.3204 13.9581C53.423 13.795 53.1788 14.0432 53.3204 13.8447C53.2535 13.8741 53.1834 13.8955 53.1115 13.9085C53.2106 13.7844 53.154 13.9085 53.2566 13.7879C53.1859 13.8163 53.0867 13.912 53.0797 13.8588C53.0726 13.8056 53.1257 13.8092 53.1469 13.7879C53.0761 13.8198 53.0974 13.7347 53.0195 13.7879C53.0282 13.7756 53.039 13.7648 53.0513 13.756C53.0513 13.756 53.0513 13.7276 53.0089 13.7879C52.9542 13.8622 52.8926 13.9311 52.8248 13.9936C52.9558 13.834 52.8248 13.9333 52.9982 13.7312C52.9741 13.7533 52.9527 13.7783 52.9345 13.8056C52.9463 13.7742 52.9658 13.7461 52.9912 13.7241C52.9487 13.7241 52.9097 13.8092 52.8956 13.795L52.9522 13.7276C52.9062 13.7737 52.8567 13.8269 52.8602 13.7915C52.8637 13.756 52.885 13.7525 52.892 13.756C52.8991 13.7595 52.7434 13.873 52.754 13.8021C52.8496 13.6815 52.7752 13.7525 52.8496 13.6461L52.8106 13.6673L52.7788 13.7241C52.7788 13.7241 52.7009 13.7844 52.7151 13.7241L52.7575 13.6851H52.7186V13.7347C52.6655 13.7844 52.623 13.8766 52.6301 13.834C52.6372 13.7915 52.6301 13.834 52.6549 13.756C52.623 13.7844 52.5947 13.8163 52.6018 13.7844L52.7009 13.639C52.6336 13.7276 52.6549 13.639 52.5805 13.7383C52.5982 13.717 52.6372 13.6567 52.6443 13.6461L52.5876 13.717C52.5998 13.6863 52.6165 13.6576 52.6372 13.6319C52.6372 13.6035 52.5522 13.7737 52.5699 13.6993C52.5699 13.6993 52.5699 13.6993 52.5912 13.6744C52.6124 13.6496 52.5204 13.6957 52.5239 13.6461C52.5912 13.5326 52.5593 13.6461 52.6124 13.5326C52.5699 13.5326 52.4673 13.6283 52.4567 13.5858C52.354 13.7454 52.485 13.4936 52.4248 13.561C52.4248 13.561 52.485 13.4758 52.4744 13.4936C52.4744 13.4546 52.4106 13.4936 52.3505 13.5397L52.3788 13.5007C52.3788 13.4581 52.3611 13.4617 52.3611 13.4368C52.3351 13.464 52.3136 13.4951 52.2974 13.529C52.3965 13.2666 52.1522 13.6141 52.2336 13.3978C52.2336 13.3978 52.262 13.3659 52.2584 13.3624L52.2089 13.3872C52.1903 13.4199 52.1748 13.4543 52.1628 13.49C52.1345 13.5326 52.1097 13.561 52.1027 13.5574C52.1381 13.5089 52.1656 13.455 52.1841 13.3978L52.1451 13.4652C52.1982 13.3304 52.0637 13.6106 52.0885 13.5113L52.1098 13.4758C52.0921 13.4758 52.0602 13.5361 52.0566 13.5219C52.0991 13.4368 52.085 13.4865 52.1239 13.4191C52.1239 13.4191 52.0142 13.5645 52.0496 13.4758C52.0673 13.4546 52.0744 13.4758 52.092 13.4368C52.1345 13.334 52.1168 13.3553 52.1168 13.3375V13.2843V13.3127C51.9859 13.5219 52.0637 13.3375 51.9717 13.4687C52.0103 13.4161 52.0424 13.3589 52.0673 13.2985C52.0725 13.2673 52.0833 13.2373 52.0991 13.2099C52.0496 13.2808 52.0991 13.1389 52.0425 13.2453C52.0425 13.2134 52.0425 13.2453 52.0743 13.1602C52.0496 13.1602 52.0496 13.217 52.0283 13.256C51.9575 13.3517 52.0496 13.1035 51.9469 13.2347C51.8938 13.2843 51.8372 13.3872 51.7912 13.4262C51.8062 13.387 51.8265 13.35 51.8513 13.3163C51.8513 13.2666 51.8513 13.2702 51.823 13.3163C51.8367 13.2887 51.8485 13.2603 51.8584 13.2311C51.8584 13.2311 51.7982 13.3411 51.8089 13.2914C51.8304 13.25 51.854 13.2098 51.8797 13.1709C51.8549 13.1921 51.8159 13.2453 51.7912 13.2666C51.8087 13.2272 51.8313 13.1902 51.8584 13.1567C51.8132 13.1844 51.7774 13.2252 51.7558 13.2737V13.3092C51.7682 13.2771 51.7836 13.2462 51.8018 13.217C51.8443 13.1567 51.8018 13.256 51.8018 13.2879H51.7841C51.7062 13.4723 51.8301 13.2879 51.8407 13.2879L51.7699 13.4156L51.8407 13.3127C51.825 13.3585 51.8023 13.4016 51.7735 13.4404C51.7558 13.5113 51.8089 13.3978 51.7735 13.4758C51.7747 13.4841 51.7747 13.4924 51.7735 13.5007L51.8018 13.4652C51.8018 13.4936 51.7593 13.561 51.7628 13.5361C51.7451 13.6248 51.8407 13.4546 51.7982 13.5574C51.8478 13.5255 51.8478 13.4617 51.9257 13.3588L51.8195 13.6035L51.869 13.5078C51.869 13.5078 51.869 13.5078 51.8513 13.561C51.8974 13.5007 51.8726 13.5184 51.908 13.4581C51.8797 13.5539 51.9682 13.4368 51.908 13.5893C51.9505 13.5184 51.908 13.529 51.9646 13.4829C51.8867 13.6496 51.9965 13.4829 51.9646 13.5468C51.9328 13.6106 51.9292 13.5787 51.9044 13.6602C51.9859 13.5219 51.9044 13.7028 51.9328 13.6815C51.9929 13.568 51.9788 13.6461 52.0177 13.6177C51.9965 13.6532 52.0177 13.6957 52.0177 13.7454V13.7631C52.0814 13.6532 52.085 13.6815 52.1098 13.6638C52.0911 13.7083 52.0647 13.7491 52.0319 13.7844C52.045 13.7607 52.0631 13.7401 52.085 13.7241L52.0354 13.8056C52.0354 13.8056 52.1204 13.7205 52.1062 13.7879C52.1501 13.6929 52.2034 13.6026 52.2655 13.5184C52.2419 13.5635 52.2159 13.6073 52.1876 13.6496C52.1876 13.6496 52.2124 13.6177 52.1876 13.6496L52.1381 13.717C52.1381 13.7525 52.177 13.6602 52.1805 13.6673C52.1451 13.7312 52.1593 13.7134 52.131 13.7631C52.1027 13.8127 52.131 13.7347 52.131 13.7631C52.1278 13.7992 52.1169 13.8343 52.0991 13.8659C52.1138 13.835 52.1329 13.8063 52.1558 13.7808C52.1558 13.7808 52.1168 13.8553 52.1098 13.8908C52.1345 13.8517 52.1097 13.8908 52.1735 13.8092C52.1648 13.8343 52.1529 13.8581 52.1381 13.8801C52.1699 13.8447 52.1805 13.8801 52.2266 13.7915C52.3044 13.717 52.2266 13.873 52.2903 13.8482V13.8766C52.3257 13.8517 52.3363 13.8766 52.3859 13.8198C52.375 13.8533 52.3582 13.8845 52.3363 13.912C52.3611 13.912 52.3823 13.8659 52.3682 13.912C52.354 13.9581 52.3434 13.9617 52.3328 13.944C52.3328 13.9794 52.3044 14.0291 52.3717 13.944C52.3186 14.0184 52.3186 14.0468 52.3398 14.0291L52.3646 13.9688C52.3646 13.9688 52.3646 13.9688 52.3859 13.9688L52.3186 14.0645C52.2655 14.2028 52.4991 13.8943 52.3894 14.1071C52.4425 14.0432 52.3894 14.0503 52.4673 13.9723C52.4463 14.033 52.4215 14.0922 52.3929 14.1496C52.3717 14.2135 52.5062 14.0149 52.4991 14.0645C52.53 14.008 52.5694 13.9565 52.6159 13.912C52.5899 13.9771 52.5528 14.0371 52.5062 14.0893C52.5062 14.0893 52.5062 14.0893 52.5062 14.0681C52.4858 14.0846 52.4689 14.1051 52.4567 14.1284L52.485 14.0964C52.4637 14.1354 52.485 14.1425 52.4425 14.1993C52.466 14.1785 52.4832 14.1514 52.492 14.1213C52.4708 14.1816 52.5133 14.1213 52.492 14.1851C52.503 14.1637 52.516 14.1435 52.531 14.1248C52.531 14.1816 52.5876 14.0645 52.6159 14.061C52.5876 14.1213 52.5239 14.1851 52.5699 14.1532C52.5499 14.1976 52.521 14.2375 52.485 14.2702C52.5451 14.2135 52.485 14.3305 52.485 14.3482L52.4567 14.373C52.4744 14.373 52.4779 14.373 52.4814 14.373L52.5239 14.3021C52.5222 14.3194 52.5147 14.3357 52.5027 14.3482C52.5416 14.3057 52.5841 14.2312 52.6372 14.178C52.6159 14.217 52.6797 14.1532 52.6159 14.2454C52.6159 14.1993 52.5522 14.3376 52.5274 14.3411C52.5027 14.3447 52.5274 14.3411 52.5274 14.3411L52.5062 14.366C52.4637 14.4582 52.5912 14.2702 52.6053 14.2844C52.5664 14.334 52.5381 14.3837 52.5487 14.3766C52.5742 14.3317 52.6064 14.2911 52.6443 14.256C52.6443 14.3021 52.6797 14.2347 52.6832 14.256V14.2312C52.7221 14.1851 52.7221 14.1957 52.7434 14.1851C52.7646 14.1745 52.7151 14.2064 52.7044 14.2277C52.7823 14.1461 52.6584 14.334 52.7044 14.2844C52.6832 14.3234 52.6336 14.3801 52.6195 14.405C52.6832 14.3518 52.5841 14.4865 52.6407 14.444C52.6632 14.4002 52.6945 14.3615 52.7328 14.3305L52.6726 14.3589L52.7646 14.2738C52.7646 14.2738 52.7151 14.3057 52.7221 14.2915C52.7519 14.2651 52.777 14.234 52.7965 14.1993C52.7292 14.3057 52.8602 14.1567 52.8213 14.2347L52.6903 14.3979C52.6513 14.483 52.7894 14.3376 52.7788 14.3979L52.7965 14.3624C52.8496 14.2986 52.8177 14.3624 52.846 14.3624C52.8161 14.3981 52.7888 14.4361 52.7646 14.4759C52.7965 14.4333 52.7646 14.4759 52.8673 14.3872L52.8213 14.4653C52.8213 14.5114 52.9664 14.3305 52.9699 14.3624C52.9321 14.4094 52.8907 14.4532 52.846 14.4936C52.846 14.4936 52.846 14.5149 52.8779 14.4936C52.8531 14.5291 52.9558 14.4369 52.9168 14.4936C52.9416 14.4723 52.9876 14.4192 52.9912 14.4298L52.9699 14.4546C53.0005 14.426 53.0289 14.3952 53.0549 14.3624C52.931 14.5433 53.1151 14.3943 53.0089 14.5504C53.032 14.5435 53.0566 14.5435 53.0797 14.5504C53.0797 14.5504 53.0584 14.5752 53.0584 14.5504C53.0301 14.6106 53.2036 14.4085 53.1717 14.4794C53.1398 14.5504 53.1221 14.5149 53.1009 14.5539C52.9451 14.7241 53.1398 14.5539 53.062 14.6603C53.0195 14.7241 53.1434 14.6142 53.1469 14.6603L53.1221 14.6851C53.1706 14.6385 53.2304 14.6055 53.2956 14.5894C53.2592 14.6176 53.2259 14.6497 53.1965 14.6851C53.1965 14.6851 53.2956 14.5787 53.3274 14.5716C53.2904 14.6237 53.2502 14.6734 53.2071 14.7206C53.1257 14.8163 53.2248 14.7206 53.2071 14.7525L53.1682 14.7915C53.2 14.7915 53.2956 14.6993 53.3097 14.7241L53.3381 14.6922C53.4443 14.6036 53.292 14.756 53.3735 14.6922L53.2779 14.7951C53.3248 14.7653 53.3746 14.7404 53.4266 14.7206C53.3675 14.7642 53.3061 14.8045 53.2425 14.8412C53.2425 14.8412 53.2708 14.8412 53.3239 14.8128C53.3239 14.8128 53.285 14.8376 53.2991 14.8128C53.3841 14.7454 53.4336 14.7206 53.4443 14.7348C53.246 14.9192 53.4443 14.8199 53.285 14.9724C53.3805 14.9298 53.285 15.0504 53.3345 15.0646C53.4832 14.9156 53.3345 15.0646 53.508 14.9227L53.4301 15.0291C53.3876 15.0752 53.3876 15.0539 53.3522 15.0859C53.3168 15.1178 53.2885 15.1532 53.2531 15.1993C53.3097 15.1461 53.3416 15.132 53.3239 15.1603L53.3912 15.0823C53.4938 15.0291 53.2673 15.2171 53.3699 15.1639L53.3133 15.2029C53.3522 15.2029 53.3451 15.2419 53.4867 15.139C53.4645 15.1645 53.4381 15.186 53.4089 15.2029C53.4089 15.2454 53.6 15.1426 53.5328 15.2312L53.4903 15.2596C53.4903 15.2596 53.5752 15.2064 53.5363 15.2596L53.4938 15.2951C53.5115 15.2951 53.5752 15.2525 53.5575 15.2951L53.5044 15.327C53.469 15.3944 53.6496 15.2774 53.6956 15.2774C53.5717 15.3731 53.5434 15.4227 53.5328 15.4476H53.5115C53.5115 15.4901 53.6531 15.4227 53.7239 15.4157C53.6 15.5291 53.7062 15.5185 53.646 15.5965C53.6834 15.5695 53.7238 15.5468 53.7664 15.5291C53.7416 15.554 53.869 15.4901 53.7451 15.5646C53.6283 15.6462 53.6708 15.6391 53.6744 15.6533L53.8336 15.554C53.6177 15.7242 53.9646 15.5788 53.7664 15.7206C53.8124 15.7206 53.8159 15.7206 53.8584 15.6958L53.7735 15.7455C53.7735 15.7774 53.7558 15.7916 53.7735 15.8057L53.7097 15.8341C53.7097 15.8341 53.9717 15.71 53.9823 15.7206L53.8549 15.7987C53.8549 15.8199 53.7664 15.905 53.9009 15.866L53.8336 15.8944C53.8336 15.8944 53.7664 15.9831 53.9469 15.8944C53.8301 15.9547 53.9469 15.9228 54.0071 15.8944L53.9186 15.937C53.9772 15.9062 54.0407 15.8858 54.1062 15.8767C54.1062 15.8767 54.0354 15.9157 54.0567 15.8979C54.0177 15.9334 54.1451 15.8696 54.1062 15.8979L54.046 15.9192C54.046 15.9192 54.0744 15.9192 54.1451 15.8944C54.2159 15.8696 54.1451 15.9334 54.0531 15.9689C54.1062 15.9689 54.1735 15.9263 54.1558 15.944C54.1365 15.9542 54.1164 15.9625 54.0956 15.9689C54.0425 16.0185 54.2124 15.9689 54.131 16.0114L54.0779 16.0363V16.0008C54.0111 16.0386 53.9413 16.0707 53.869 16.0965C53.9363 16.0965 54.0814 16.0398 54.046 16.0682H54.0213C54.0213 16.0682 54.0213 16.0682 54.039 16.0682L54.0177 16.0894C53.9469 16.1178 53.9859 16.1214 53.9859 16.1285C54.0387 16.1126 54.0897 16.0912 54.1381 16.0646H54.1204C54.1699 16.0646 54.2124 16.0398 54.1628 16.0646L54.3151 16.015C54.1912 16.0753 54.1274 16.1249 54.0496 16.1568C54.1255 16.1817 54.2073 16.1817 54.2832 16.1568C54.308 16.1568 54.2336 16.1816 54.2089 16.1958C54.1841 16.21 54.2089 16.1958 54.1628 16.1958C54.2124 16.1958 54.1947 16.2278 54.3186 16.1958C54.269 16.2313 54.2018 16.2277 54.2301 16.2419H54.1912C54.0106 16.3483 54.5451 16.21 54.2938 16.3412C54.3072 16.3327 54.3215 16.3256 54.3363 16.32C54.2372 16.4086 54.4779 16.4086 54.3115 16.5115C54.2761 16.5363 54.3575 16.5115 54.4213 16.5115L54.3186 16.5398H54.4425C54.5345 16.5398 54.1947 16.6356 54.3682 16.6285L54.4389 16.6107C54.4389 16.6107 54.485 16.6391 54.4036 16.6533C54.4036 16.6533 54.4779 16.6533 54.4425 16.6533H54.3894H54.4885C54.4531 16.6817 54.269 16.6888 54.2655 16.7207C54.3326 16.7275 54.4002 16.7275 54.4673 16.7207C54.4673 16.7207 54.4991 16.7207 54.5558 16.6923H54.5841C54.7336 16.6794 54.881 16.6484 55.023 16.6001H54.9204L54.9982 16.5788C55.069 16.5576 54.9982 16.5788 54.9558 16.5788C54.9851 16.5746 55.0137 16.5662 55.0407 16.554H54.8814C54.9358 16.5491 54.9894 16.5372 55.0407 16.5185C54.9776 16.5314 54.9137 16.5409 54.8496 16.5469C54.9204 16.5221 54.9841 16.515 54.9168 16.515C54.9462 16.5109 54.976 16.5109 55.0053 16.515C54.9522 16.515 54.977 16.4902 54.8921 16.515C54.9805 16.4831 54.8602 16.4831 55.0124 16.4512C54.969 16.4584 54.9248 16.4584 54.8814 16.4512C55.069 16.4299 54.8814 16.4122 55.0797 16.3731C54.9133 16.398 54.9982 16.3412 54.9027 16.3412C54.9027 16.3412 54.9416 16.3412 54.9345 16.3412C54.9274 16.3412 54.9912 16.3093 55.0195 16.2916C54.9356 16.3098 54.8504 16.3205 54.7646 16.3235C54.8577 16.2949 54.9522 16.2712 55.0478 16.2526C54.9381 16.2845 54.931 16.2526 54.8425 16.2845C54.8896 16.2626 54.9381 16.2436 54.9876 16.2278C54.8177 16.2739 54.9558 16.2278 54.8496 16.2278C54.9274 16.1852 55.0053 16.1781 54.9487 16.1746C54.9894 16.1709 55.0303 16.1757 55.069 16.1887ZM54.6124 15.7987L54.5487 15.8235C54.5701 15.8214 54.5914 15.8178 54.6124 15.8128V15.7987ZM54.0071 16.1533C54.0071 16.1533 54.0071 16.1533 54.0283 16.1355H54.0567L54.0071 16.1533Z" fill="white"/>
<path d="M54.5425 15.2525L54.5204 15.2672L54.5425 15.2599V15.2525Z" fill="white"/>
<path d="M52.1487 13.3695V13.3304C52.1522 13.3517 52.1487 13.3624 52.1487 13.3695Z" fill="white"/>
<path d="M52.1133 13.2914L52.0956 13.3305L52.1133 13.2914Z" fill="white"/>
<path d="M52.6903 13.7737L52.7257 13.7383C52.7257 13.7383 52.7221 13.7241 52.6903 13.7737Z" fill="white"/>
<path d="M52.7438 13.7493C52.7438 13.7272 52.7438 13.7493 52.7438 13.7493C52.7438 13.7493 52.7217 13.7603 52.7438 13.7493Z" fill="white"/>
<path d="M51.8407 13.1607H51.8592C51.8592 13.1607 51.8555 13.1312 51.8407 13.1607Z" fill="white"/>
<path d="M51.9646 13.2063C51.9646 13.2063 51.9646 13.1318 51.9646 13.146V13.1708C51.9788 13.1318 51.9328 13.2595 51.9646 13.2063Z" fill="white"/>
<path d="M51.862 13.6531V13.6177C51.862 13.6531 51.8301 13.7028 51.816 13.7063C51.7806 13.8198 51.8443 13.6283 51.862 13.6531Z" fill="white"/>
<path d="M51.8938 13.7347C51.8938 13.7347 51.8655 13.7808 51.8549 13.8021C51.8737 13.7836 51.8872 13.7603 51.8938 13.7347Z" fill="white"/>
<path d="M52.2974 13.9688L52.2478 14.0432C52.2478 14.0432 52.2655 14.0149 52.2974 13.9688Z" fill="white"/>
<path d="M52.6266 13.6177L52.6513 13.5681L52.6018 13.6354L52.6266 13.6177Z" fill="white"/>
<path d="M52.3221 14.1886L52.3115 14.1993L52.3398 14.178L52.3221 14.1886Z" fill="white"/>
<path d="M52.9452 14.6248L53.016 14.5397C52.9983 14.5504 52.9133 14.6461 52.9452 14.6248Z" fill="white"/>
<path d="M53.2637 14.7702C53.2248 14.8128 53.2071 14.8411 53.2637 14.8092C53.3204 14.7773 53.2744 14.7631 53.2637 14.7702Z" fill="white"/>
<path d="M53.7274 15.639L53.692 15.6568L53.7274 15.6497V15.639Z" fill="white"/>
</g>
<path d="M80 30.154H0V72H80V30.154Z" fill="url(#paint0_linear_186_16561)"/>
<path d="M57.6991 28.1362C56.6796 29.0724 54.3894 30.7427 40.9062 31.8597C28.5168 32.8846 22.3186 33.3988 20.1558 31.115C17.1681 27.9624 20.269 20.962 26.085 17.7137C32.131 14.3376 38.7681 16.3306 40.9062 13.2489C43.1858 9.97569 37.4832 5.13857 38.9381 4.31584C39.646 3.91511 41.4761 4.77685 47.8301 8.78059C58.4743 15.4901 59.2708 16.8165 59.6885 17.7137C61.1009 20.7989 60.9345 25.1892 57.6991 28.1362Z" fill="url(#paint1_linear_186_16561)"/>
<path d="M80 48.9492H0V54.6233H80V48.9492Z" fill="url(#paint2_linear_186_16561)"/>
<path d="M52.0814 30.0618C52.3138 25.509 53.4498 21.0484 55.423 16.9406L56.4389 19.6286C57.3381 18.1061 58.236 16.5859 59.1327 15.0681C59.3027 16.0138 59.4714 16.9536 59.6389 17.8874L62.6903 13.5858L63.6531 16.171L66.131 12.5645V15.2171L69.2071 12.5645V14.4759L72.9062 12.5645V14.3376L76.9274 12.5645L75.3982 15.6142L79.292 15.327L76.2832 18.0966L77.7876 19.4832L74.0142 21.2174L76.5841 22.26L73.3451 23.6324L72.2442 24.1005H74.5522L72.3752 25.5864L73.8797 26.1431L70.269 27.5297L71.1717 28.0829L66.9593 28.6397L68.4637 29.4695L64.4248 29.7993L65.9681 31.3455C63.9998 31.4771 62.025 31.4771 60.0566 31.3455C57.3646 31.1631 54.695 30.7333 52.0814 30.0618Z" fill="url(#paint3_linear_186_16561)"/>
<path d="M52.092 29.9483C48.8968 26.7533 46.3696 22.9521 44.6584 18.7669L47.3097 19.7988C46.7906 18.1297 46.269 16.4582 45.7451 14.7844L48.1522 16.2809L47.0159 11.1743L49.5575 12.1814L48.5381 7.97201L50.4885 9.74514L50.5699 5.68466L51.9858 6.95423L53.0478 2.95403L54.3434 4.1243L55.6956 0.0106201L56.9239 3.1668L59.3168 0.0957306L59.3593 4.15621L61.377 3.96826L60.1487 7.90463L62.6266 6.69889L61.4867 10.0005L61.1009 11.1211L62.6301 9.41888L62.2761 12.0148L63.692 11.2736L62.3009 14.8482L63.3062 14.5503L60.9204 18.0257L62.531 17.4689L60.085 20.6606L62.2478 20.5506C61.0374 22.0903 59.7259 23.5475 58.3221 24.9126C56.4042 26.7792 54.3187 28.4649 52.092 29.9483Z" fill="url(#paint4_linear_186_16561)"/>
<path d="M63.7416 29.0901L43.9398 35.3138C43.8089 34.6648 43.6814 34.0159 43.5504 33.3669C43.6826 31.9484 43.8124 30.5228 43.9398 29.0901L60.2478 24.0473L63.7416 27.5475V29.0901Z" fill="#8E6862"/>
<path d="M63.7416 27.5474L43.5398 33.381V26.7672L59.8584 21.7138L63.7416 27.5474Z" fill="#A38078"/>
<path d="M61.6814 27.4233L45.1044 32.2144V26.785L58.492 22.6323C59.554 24.2329 60.6171 25.8299 61.6814 27.4233Z" fill="#8E6862"/>
</g>
<defs>
<linearGradient id="paint0_linear_186_16561" x1="0" y1="51.077" x2="80" y2="51.077" gradientUnits="userSpaceOnUse">
<stop stop-color="#BC9A95"/>
<stop offset="0.05" stop-color="#BA9893"/>
<stop offset="0.65" stop-color="#A38078"/>
<stop offset="0.77" stop-color="#A6837B"/>
<stop offset="0.88" stop-color="#AE8C85"/>
<stop offset="0.97" stop-color="#BC9A97"/>
<stop offset="1" stop-color="#C1A09D"/>
</linearGradient>
<linearGradient id="paint1_linear_186_16561" x1="19.0053" y1="18.4797" x2="60.531" y2="18.4797" gradientUnits="userSpaceOnUse">
<stop stop-color="white"/>
<stop offset="1" stop-color="#F4CAA6"/>
</linearGradient>
<linearGradient id="paint2_linear_186_16561" x1="0" y1="51.7862" x2="80" y2="51.7862" gradientUnits="userSpaceOnUse">
<stop stop-color="white"/>
<stop offset="1" stop-color="#F4CAA6"/>
</linearGradient>
<linearGradient id="paint3_linear_186_16561" x1="63.6142" y1="8.35503" x2="67.092" y2="32.326" gradientUnits="userSpaceOnUse">
<stop stop-color="#B0DDD1"/>
<stop offset="0.19" stop-color="#9DCDC0"/>
<stop offset="0.49" stop-color="#85BAAB"/>
<stop offset="0.76" stop-color="#77AE9E"/>
<stop offset="1" stop-color="#72AA9A"/>
</linearGradient>
<linearGradient id="paint4_linear_186_16561" x1="43.7861" y1="7.02803" x2="63.7343" y2="20.3508" gradientUnits="userSpaceOnUse">
<stop stop-color="#B0DDD1"/>
<stop offset="0.19" stop-color="#9DCDC0"/>
<stop offset="0.49" stop-color="#85BAAB"/>
<stop offset="0.76" stop-color="#77AE9E"/>
<stop offset="1" stop-color="#72AA9A"/>
</linearGradient>
<clipPath id="clip0_186_16561">
<rect width="80" height="72" fill="white"/>
</clipPath>
</defs>
</svg>
