<svg width="98" height="48" viewBox="0 0 98 48" fill="none" xmlns="http://www.w3.org/2000/svg">
<g clip-path="url(#clip0_186_16523)">
<path d="M0.739831 26.9764L97.6135 12.9696L97.5704 40.1529L0.656891 48L0.739831 26.9764Z" fill="url(#paint0_linear_186_16523)"/>
<path d="M0.656891 26.8931L58.7147 3.21323L97.5704 13.0463L0.656891 26.8931Z" fill="url(#paint1_radial_186_16523)" stroke="#936A5A" stroke-width="0.3" stroke-miterlimit="10"/>
<path d="M0.739838 36.8129V26.9748L97.6135 12.968V29.4026C96.1438 26.723 93.6424 23.1696 89.9831 22.6393C85.7681 22.0274 84.2751 26.041 78.7032 26.808C71.2835 27.8285 66.5194 21.7289 63.7741 23.9733C61.2328 26.051 63.7741 32.5425 61.4518 33.4779C60.697 33.7831 59.783 33.3529 59.2953 32.9777C57.0244 31.2285 59.3866 27.0748 57.4707 25.3073C55.845 23.8066 51.9817 24.807 49.6743 26.4745C47.5278 28.0269 47.8496 29.3509 46.1908 29.9762C43.55 30.9767 41.7785 27.9753 38.0627 27.8085C34.5212 27.6551 33.9008 30.2864 29.6029 31.8104C23.9431 33.8114 21.0651 30.785 14.5078 31.1435C11.1903 31.3252 6.4179 32.4207 0.739838 36.8129Z" fill="url(#paint2_radial_186_16523)" stroke="#936A5A" stroke-width="0.3" stroke-miterlimit="10"/>
<path d="M0.656891 40.0111V43.4695L97.5704 35.2088V31.7504L0.656891 40.0111Z" fill="url(#paint3_linear_186_16523)"/>
<path d="M55.4536 5.38798C56.4756 5.06605 56.9736 3.74503 56.5659 2.4374C56.1582 1.12977 54.9993 0.330716 53.9774 0.65265C52.9554 0.974585 52.4575 2.2956 52.8651 3.60323C53.2728 4.91086 54.4317 5.70992 55.4536 5.38798Z" fill="url(#paint4_radial_186_16523)"/>
<path d="M53.1559 7.10286C54.1779 6.78092 54.6758 5.45991 54.2682 4.15228C53.8605 2.84465 52.7016 2.04559 51.6797 2.36752C50.6577 2.68946 50.1598 4.01048 50.5674 5.31811C50.9751 6.62573 52.134 7.42479 53.1559 7.10286Z" fill="url(#paint5_radial_186_16523)"/>
<path d="M58.1038 4.80192C59.1257 4.47999 59.6237 3.15897 59.2161 1.85134C58.8084 0.543718 57.6495 -0.255344 56.6276 0.0665909C55.6056 0.388526 55.1076 1.70955 55.5153 3.01717C55.9229 4.3248 57.0819 5.12386 58.1038 4.80192Z" fill="url(#paint6_radial_186_16523)"/>
<path d="M53.3611 10.1323C54.383 9.81034 54.881 8.48932 54.4734 7.1817C54.0657 5.87407 52.9068 5.07501 51.8849 5.39694C50.8629 5.71888 50.3649 7.0399 50.7726 8.34753C51.1802 9.65515 52.3391 10.4542 53.3611 10.1323Z" fill="url(#paint7_radial_186_16523)"/>
<path d="M54.1518 7.53059C55.1737 7.20866 55.6717 5.88764 55.2641 4.58001C54.8564 3.27239 53.6975 2.47332 52.6755 2.79526C51.6536 3.11719 51.1556 4.43822 51.5633 5.74584C51.9709 7.05347 53.1298 7.85253 54.1518 7.53059Z" fill="url(#paint8_radial_186_16523)"/>
<path d="M56.9973 6.38759C58.0192 6.06565 58.5172 4.74463 58.1095 3.43701C57.7019 2.12938 56.543 1.33032 55.521 1.65225C54.4991 1.97419 54.0011 3.29521 54.4087 4.60284C54.8164 5.91046 55.9753 6.70952 56.9973 6.38759Z" fill="url(#paint9_radial_186_16523)"/>
<path d="M60.3474 6.07493C61.3694 5.753 61.8674 4.43198 61.4597 3.12435C61.052 1.81673 59.8931 1.01767 58.8712 1.3396C57.8492 1.66154 57.3512 2.98256 57.7589 4.29018C58.1666 5.59781 59.3255 6.39687 60.3474 6.07493Z" fill="url(#paint10_radial_186_16523)"/>
<path d="M56.1647 9.24831C57.1867 8.92637 57.6847 7.60535 57.277 6.29772C56.8694 4.9901 55.7104 4.19104 54.6885 4.51297C53.6666 4.83491 53.1686 6.15593 53.5762 7.46355C53.9839 8.77118 55.1428 9.57024 56.1647 9.24831Z" fill="url(#paint11_radial_186_16523)"/>
<path d="M60.1236 6.29705C60.1478 4.92694 59.2994 3.8007 58.2287 3.78154C57.1579 3.76237 56.2702 4.85754 56.2459 6.22765C56.2216 7.59777 57.07 8.724 58.1408 8.74317C59.2116 8.76233 60.0993 7.66717 60.1236 6.29705Z" fill="url(#paint12_radial_186_16523)"/>
<path d="M62.8661 6.44137C62.8934 5.07104 62.0473 3.94271 60.9763 3.92118C59.9054 3.89964 59.0151 4.99306 58.9878 6.3634C58.9606 7.73373 59.8067 8.86206 60.8776 8.88359C61.9486 8.90512 62.8388 7.8117 62.8661 6.44137Z" fill="url(#paint13_radial_186_16523)"/>
<path d="M56.2639 10.1128C56.2882 8.74273 55.4398 7.6165 54.369 7.59733C53.2982 7.57817 52.4105 8.67333 52.3863 10.0434C52.362 11.4136 53.2104 12.5398 54.2811 12.559C55.3519 12.5781 56.2396 11.483 56.2639 10.1128Z" fill="url(#paint14_radial_186_16523)"/>
<path d="M58.8361 9.67358C58.8604 8.30346 58.012 7.17723 56.9412 7.15806C55.8704 7.1389 54.9827 8.23406 54.9585 9.60418C54.9342 10.9743 55.7826 12.1005 56.8533 12.1197C57.9241 12.1389 58.8118 11.0437 58.8361 9.67358Z" fill="url(#paint15_radial_186_16523)"/>
<path d="M61.4792 9.46008C61.5035 8.08996 60.6551 6.96373 59.5843 6.94456C58.5135 6.9254 57.6258 8.02056 57.6016 9.39068C57.5773 10.7608 58.4257 11.887 59.4964 11.9062C60.5672 11.9254 61.4549 10.8302 61.4792 9.46008Z" fill="url(#paint16_radial_186_16523)"/>
<path d="M56.6766 14.9093C57.7145 14.6438 58.2833 13.352 57.947 12.024C57.6108 10.696 56.4968 9.8347 55.459 10.1002C54.4211 10.3658 53.8523 11.6576 54.1886 12.9856C54.5248 14.3136 55.6388 15.1749 56.6766 14.9093Z" fill="url(#paint17_radial_186_16523)"/>
<path d="M59.5361 14.6087C60.5859 14.3957 61.2183 13.1341 60.9486 11.7909C60.679 10.4476 59.6093 9.53135 58.5595 9.74432C57.5097 9.95729 56.8773 11.2189 57.147 12.5621C57.4167 13.9054 58.4863 14.8216 59.5361 14.6087Z" fill="url(#paint18_radial_186_16523)"/>
<path d="M58.3173 16.832C59.3796 16.6954 60.1005 15.4828 59.9275 14.1235C59.7546 12.7643 58.7532 11.7731 57.6909 11.9097C56.6286 12.0463 55.9077 13.259 56.0806 14.6182C56.2536 15.9775 57.255 16.9686 58.3173 16.832Z" fill="url(#paint19_radial_186_16523)"/>
<path d="M52.9591 13.7636C53.2671 12.0275 51.4974 10.2581 49.0063 9.81156C46.5152 9.36506 44.2462 10.4106 43.9382 12.1467C43.6303 13.8829 45.4 15.6523 47.8911 16.0988C50.3821 16.5453 52.6512 15.4998 52.9591 13.7636Z" fill="url(#paint20_radial_186_16523)"/>
<path d="M45.4762 11.7322C45.868 10.6623 45.5075 9.54406 44.671 9.23451C43.8345 8.92495 42.8387 9.54134 42.4469 10.6113C42.0551 11.6812 42.4156 12.7994 43.2521 13.109C44.0886 13.4185 45.0844 12.8022 45.4762 11.7322Z" fill="url(#paint21_radial_186_16523)"/>
<path d="M47.1582 10.9224C48.0885 10.2703 48.4293 9.14579 47.9194 8.4108C47.4095 7.67581 46.242 7.60864 45.3117 8.26078C44.3814 8.91292 44.0406 10.0374 44.5505 10.7724C45.0604 11.5074 46.2279 11.5746 47.1582 10.9224Z" fill="url(#paint22_radial_186_16523)"/>
<path d="M49.4137 11.016C50.5474 10.9842 51.4463 10.2322 51.4214 9.33653C51.3965 8.44082 50.4573 7.74051 49.3236 7.77235C48.1898 7.80418 47.291 8.5561 47.3158 9.45181C47.3407 10.3475 48.28 11.0478 49.4137 11.016Z" fill="url(#paint23_radial_186_16523)"/>
<path d="M53.3901 11.909C53.8159 11.1217 53.3532 10.0421 52.3568 9.49756C51.3604 8.95302 50.2075 9.14978 49.7817 9.93702C49.356 10.7243 49.8186 11.8039 50.815 12.3484C51.8115 12.893 52.9644 12.6962 53.3901 11.909Z" fill="url(#paint24_radial_186_16523)"/>
<path d="M53.3393 14.9968C54.1643 14.6573 54.4847 13.5268 54.0551 12.4717C53.6255 11.4165 52.6084 10.8363 51.7835 11.1758C50.9585 11.5152 50.638 12.6457 51.0677 13.7009C51.4973 14.756 52.5143 15.3362 53.3393 14.9968Z" fill="url(#paint25_radial_186_16523)"/>
<path d="M53.3152 15.2691C53.6298 14.1738 53.1905 13.0843 52.334 12.8358C51.4776 12.5874 50.5284 13.2739 50.2138 14.3693C49.8993 15.4647 50.3386 16.5541 51.1951 16.8026C52.0515 17.0511 53.0007 16.3645 53.3152 15.2691Z" fill="url(#paint26_radial_186_16523)"/>
<path d="M49.6796 17.8722C50.7461 17.4843 51.3648 16.4868 51.0616 15.6442C50.7583 14.8016 49.6479 14.4329 48.5814 14.8208C47.5149 15.2087 46.8961 16.2062 47.1994 17.0488C47.5027 17.8914 48.6131 18.26 49.6796 17.8722Z" fill="url(#paint27_radial_186_16523)"/>
<path d="M48.5126 16.2315C48.669 15.3494 47.8907 14.472 46.7742 14.2719C45.6576 14.0717 44.6256 14.6246 44.4691 15.5068C44.3127 16.3889 45.091 17.2663 46.2075 17.4664C47.3241 17.6665 48.3561 17.1137 48.5126 16.2315Z" fill="url(#paint28_radial_186_16523)"/>
<path d="M46.0079 15.4644C46.5821 14.7791 46.3445 13.6281 45.4771 12.8935C44.6097 12.159 43.4409 12.1191 42.8666 12.8045C42.2924 13.4898 42.53 14.6408 43.3974 15.3753C44.2648 16.1098 45.4336 16.1497 46.0079 15.4644Z" fill="url(#paint29_radial_186_16523)"/>
</g>
<defs>
<linearGradient id="paint0_linear_186_16523" x1="0.656891" y1="30.4848" x2="97.6135" y2="30.4848" gradientUnits="userSpaceOnUse">
<stop stop-color="#F7DBC6"/>
<stop offset="0.45" stop-color="#E5C3AD"/>
<stop offset="1" stop-color="#D1AA92"/>
</linearGradient>
<radialGradient id="paint1_radial_186_16523" cx="0" cy="0" r="1" gradientUnits="userSpaceOnUse" gradientTransform="translate(49.1136 15.0523) scale(35.261 35.4456)">
<stop stop-color="#BC9A95"/>
<stop offset="0.05" stop-color="#BA9893"/>
<stop offset="0.65" stop-color="#A38078"/>
<stop offset="0.77" stop-color="#A6837B"/>
<stop offset="0.88" stop-color="#AE8C85"/>
<stop offset="0.97" stop-color="#BC9A97"/>
<stop offset="1" stop-color="#C1A09D"/>
</radialGradient>
<radialGradient id="paint2_radial_186_16523" cx="0" cy="0" r="1" gradientUnits="userSpaceOnUse" gradientTransform="translate(49.1767 24.8904) scale(35.261 35.4456)">
<stop stop-color="#BC9A95"/>
<stop offset="0.05" stop-color="#BA9893"/>
<stop offset="0.65" stop-color="#A38078"/>
<stop offset="0.77" stop-color="#A6837B"/>
<stop offset="0.88" stop-color="#AE8C85"/>
<stop offset="0.97" stop-color="#BC9A97"/>
<stop offset="1" stop-color="#C1A09D"/>
</radialGradient>
<linearGradient id="paint3_linear_186_16523" x1="0.656891" y1="37.6099" x2="97.5704" y2="37.6099" gradientUnits="userSpaceOnUse">
<stop stop-color="#F9D2E3"/>
<stop offset="1" stop-color="#EA5788"/>
</linearGradient>
<radialGradient id="paint4_radial_186_16523" cx="0" cy="0" r="1" gradientUnits="userSpaceOnUse" gradientTransform="translate(54.7139 3.02082) rotate(-17.4855) scale(2.22051 2.23004)">
<stop stop-color="#F9D2E3"/>
<stop offset="1" stop-color="#EA5788"/>
</radialGradient>
<radialGradient id="paint5_radial_186_16523" cx="0" cy="0" r="1" gradientUnits="userSpaceOnUse" gradientTransform="translate(52.4173 4.7336) rotate(-17.4855) scale(2.2205 2.23004)">
<stop stop-color="#F9D2E3"/>
<stop offset="1" stop-color="#EA5788"/>
</radialGradient>
<radialGradient id="paint6_radial_186_16523" cx="0" cy="0" r="1" gradientUnits="userSpaceOnUse" gradientTransform="translate(57.3652 2.43267) rotate(-17.4855) scale(2.22051 2.23004)">
<stop stop-color="#F9D2E3"/>
<stop offset="1" stop-color="#EA5788"/>
</radialGradient>
<radialGradient id="paint7_radial_186_16523" cx="0" cy="0" r="1" gradientUnits="userSpaceOnUse" gradientTransform="translate(52.6225 7.76302) rotate(-17.4855) scale(2.22051 2.23004)">
<stop stop-color="#F9D2E3"/>
<stop offset="1" stop-color="#EA5788"/>
</radialGradient>
<radialGradient id="paint8_radial_186_16523" cx="0" cy="0" r="1" gradientUnits="userSpaceOnUse" gradientTransform="translate(53.4132 5.16134) rotate(-17.4855) scale(2.22051 2.23004)">
<stop stop-color="#F9D2E3"/>
<stop offset="1" stop-color="#EA5788"/>
</radialGradient>
<radialGradient id="paint9_radial_186_16523" cx="0" cy="0" r="1" gradientUnits="userSpaceOnUse" gradientTransform="translate(56.2591 4.01992) rotate(-17.4855) scale(2.22051 2.23004)">
<stop stop-color="#F9D2E3"/>
<stop offset="1" stop-color="#EA5788"/>
</radialGradient>
<radialGradient id="paint10_radial_186_16523" cx="0" cy="0" r="1" gradientUnits="userSpaceOnUse" gradientTransform="translate(59.6077 3.70777) rotate(-17.4855) scale(2.22051 2.23004)">
<stop stop-color="#F9D2E3"/>
<stop offset="1" stop-color="#EA5788"/>
</radialGradient>
<radialGradient id="paint11_radial_186_16523" cx="0" cy="0" r="1" gradientUnits="userSpaceOnUse" gradientTransform="translate(55.4266 6.88064) rotate(-17.4855) scale(2.22051 2.23004)">
<stop stop-color="#F9D2E3"/>
<stop offset="1" stop-color="#EA5788"/>
</radialGradient>
<radialGradient id="paint12_radial_186_16523" cx="0" cy="0" r="1" gradientUnits="userSpaceOnUse" gradientTransform="translate(58.1847 6.26235) rotate(1.02534) scale(2.21947 2.23108)">
<stop stop-color="#F9D2E3"/>
<stop offset="1" stop-color="#EA5788"/>
</radialGradient>
<radialGradient id="paint13_radial_186_16523" cx="0" cy="0" r="1" gradientUnits="userSpaceOnUse" gradientTransform="translate(60.9286 6.40242) rotate(1.15176) scale(2.21992 2.23153)">
<stop stop-color="#F9D2E3"/>
<stop offset="1" stop-color="#EA5788"/>
</radialGradient>
<radialGradient id="paint14_radial_186_16523" cx="0" cy="0" r="1" gradientUnits="userSpaceOnUse" gradientTransform="translate(54.3251 10.0765) rotate(1.02534) scale(2.21947 2.23108)">
<stop stop-color="#F9D2E3"/>
<stop offset="1" stop-color="#EA5788"/>
</radialGradient>
<radialGradient id="paint15_radial_186_16523" cx="0" cy="0" r="1" gradientUnits="userSpaceOnUse" gradientTransform="translate(56.8973 9.64054) rotate(1.02534) scale(2.21947 2.23108)">
<stop stop-color="#F9D2E3"/>
<stop offset="1" stop-color="#EA5788"/>
</radialGradient>
<radialGradient id="paint16_radial_186_16523" cx="0" cy="0" r="1" gradientUnits="userSpaceOnUse" gradientTransform="translate(59.5387 9.42535) rotate(1.02534) scale(2.21947 2.23108)">
<stop stop-color="#F9D2E3"/>
<stop offset="1" stop-color="#EA5788"/>
</radialGradient>
<radialGradient id="paint17_radial_186_16523" cx="0" cy="0" r="1" gradientUnits="userSpaceOnUse" gradientTransform="translate(56.0674 12.5032) rotate(-14.3517) scale(2.22018 2.23037)">
<stop stop-color="#F9D2E3"/>
<stop offset="1" stop-color="#EA5788"/>
</radialGradient>
<radialGradient id="paint18_radial_186_16523" cx="0" cy="0" r="1" gradientUnits="userSpaceOnUse" gradientTransform="translate(59.0478 12.1765) rotate(-11.4681) scale(2.21993 2.23063)">
<stop stop-color="#F9D2E3"/>
<stop offset="1" stop-color="#EA5788"/>
</radialGradient>
<radialGradient id="paint19_radial_186_16523" cx="0" cy="0" r="1" gradientUnits="userSpaceOnUse" gradientTransform="translate(58.0022 14.3694) rotate(-7.32774) scale(2.21965 2.2309)">
<stop stop-color="#F9D2E3"/>
<stop offset="1" stop-color="#EA5788"/>
</radialGradient>
<radialGradient id="paint20_radial_186_16523" cx="0" cy="0" r="1" gradientUnits="userSpaceOnUse" gradientTransform="translate(48.4487 12.9552) rotate(10.1618) scale(3.94194 3.96128)">
<stop stop-color="#A13B5D"/>
<stop offset="1" stop-color="#EA5788"/>
</radialGradient>
<radialGradient id="paint21_radial_186_16523" cx="0" cy="0" r="1" gradientUnits="userSpaceOnUse" gradientTransform="translate(43.9621 11.1702) rotate(20.3072) scale(1.8474 1.85474)">
<stop stop-color="#F9D2E3"/>
<stop offset="1" stop-color="#EA5788"/>
</radialGradient>
<radialGradient id="paint22_radial_186_16523" cx="0" cy="0" r="1" gradientUnits="userSpaceOnUse" gradientTransform="translate(46.2353 9.58928) rotate(55.2502) scale(1.85275 1.84939)">
<stop stop-color="#F9D2E3"/>
<stop offset="1" stop-color="#EA5788"/>
</radialGradient>
<radialGradient id="paint23_radial_186_16523" cx="0" cy="0" r="1" gradientUnits="userSpaceOnUse" gradientTransform="translate(49.3686 9.39417) rotate(88.4083) scale(1.8559 1.84625)">
<stop stop-color="#F9D2E3"/>
<stop offset="1" stop-color="#EA5788"/>
</radialGradient>
<radialGradient id="paint24_radial_186_16523" cx="0" cy="0" r="1" gradientUnits="userSpaceOnUse" gradientTransform="translate(51.5859 10.923) rotate(118.405) scale(1.8537 1.84843)">
<stop stop-color="#F9D2E3"/>
<stop offset="1" stop-color="#EA5788"/>
</radialGradient>
<radialGradient id="paint25_radial_186_16523" cx="0" cy="0" r="1" gradientUnits="userSpaceOnUse" gradientTransform="translate(52.5614 13.0863) rotate(157.635) scale(1.84763 1.85451)">
<stop stop-color="#F9D2E3"/>
<stop offset="1" stop-color="#EA5788"/>
</radialGradient>
<radialGradient id="paint26_radial_186_16523" cx="0" cy="0" r="1" gradientUnits="userSpaceOnUse" gradientTransform="translate(51.7645 14.8192) rotate(-163.82) scale(1.84698 1.85515)">
<stop stop-color="#F9D2E3"/>
<stop offset="1" stop-color="#EA5788"/>
</radialGradient>
<radialGradient id="paint27_radial_186_16523" cx="0" cy="0" r="1" gradientUnits="userSpaceOnUse" gradientTransform="translate(49.1305 16.3465) rotate(-109.795) scale(1.85479 1.84735)">
<stop stop-color="#F9D2E3"/>
<stop offset="1" stop-color="#EA5788"/>
</radialGradient>
<radialGradient id="paint28_radial_186_16523" cx="0" cy="0" r="1" gradientUnits="userSpaceOnUse" gradientTransform="translate(46.4908 15.8691) rotate(-79.9416) scale(1.85561 1.84654)">
<stop stop-color="#F9D2E3"/>
<stop offset="1" stop-color="#EA5788"/>
</radialGradient>
<radialGradient id="paint29_radial_186_16523" cx="0" cy="0" r="1" gradientUnits="userSpaceOnUse" gradientTransform="translate(44.4373 14.1344) rotate(-50.0373) scale(1.8519 1.85023)">
<stop stop-color="#F9D2E3"/>
<stop offset="1" stop-color="#EA5788"/>
</radialGradient>
<clipPath id="clip0_186_16523">
<rect width="98" height="48" fill="white"/>
</clipPath>
</defs>
</svg>
