<svg xmlns="http://www.w3.org/2000/svg" xmlns:xlink="http://www.w3.org/1999/xlink" width="1366" height="768" viewBox="0 0 1366 768"><defs><style>.cls-1{fill:#d8efe8;}.cls-2{fill:#b0ddd1;}.cls-3{fill:url(#linear-gradient);}.cls-4{fill:#df9d4c;}.cls-5{fill:url(#radial-gradient);}.cls-6{fill:url(#radial-gradient-2);}.cls-7{fill:url(#radial-gradient-3);}.cls-8{fill:url(#radial-gradient-4);}.cls-9{fill:url(#radial-gradient-5);}.cls-10{fill:#ad0707;}.cls-11{fill:#ebb74e;}.cls-12{fill:#444948;}.cls-13{fill:#434947;}.cls-14{fill:#e6f6f2;}.cls-15{fill:#444a47;}.cls-16{fill:url(#radial-gradient-6);}.cls-17{fill:#444947;}.cls-18{fill:#fbf7f1;}</style><linearGradient id="linear-gradient" x1="899.72" y1="344.76" x2="980.05" y2="344.76" gradientUnits="userSpaceOnUse"><stop offset="0" stop-color="#eedea1"/><stop offset="1" stop-color="#df9d4c"/></linearGradient><radialGradient id="radial-gradient" cx="971.94" cy="249.98" r="20.29" gradientTransform="translate(326.37 -518.4) rotate(35.54)" gradientUnits="userSpaceOnUse"><stop offset="0" stop-color="#fff"/><stop offset="1" stop-color="#e6f6f2"/></radialGradient><radialGradient id="radial-gradient-2" cx="939.58" cy="252.23" r="20.29" gradientTransform="translate(321.66 -499.17) rotate(35.54)" gradientUnits="userSpaceOnUse"><stop offset="0" stop-color="#fff"/><stop offset="1" stop-color="#fbf7f1"/></radialGradient><radialGradient id="radial-gradient-3" cx="909.47" cy="255.24" r="20.29" gradientTransform="translate(489.91 -591.07) rotate(47.95)" gradientUnits="userSpaceOnUse"><stop offset="0" stop-color="#fff"/><stop offset="1" stop-color="#f9d2e3"/></radialGradient><radialGradient id="radial-gradient-4" cx="925.28" cy="226.64" r="20.29" gradientTransform="translate(473.89 -612.26) rotate(47.95)" xlink:href="#radial-gradient"/><radialGradient id="radial-gradient-5" cx="953.87" cy="225.14" r="20.29" gradientTransform="translate(271.49 -478.37) rotate(32.59)" xlink:href="#radial-gradient-3"/><radialGradient id="radial-gradient-6" cx="1063.84" cy="244.28" fx="1032.9854215978676" fy="254.66888357280416" r="42.53" gradientUnits="userSpaceOnUse"><stop offset="0" stop-color="#eedc8e"/><stop offset="1" stop-color="#ebb74e"/></radialGradient></defs><g id="Layer_9" data-name="Layer 9"><path class="cls-1" d="M94,405c-3.07-24.56-21.79-25.18-22-44-.29-25.75,34.51-44.29,64-60,13.51-7.2,20.58-9,25-6,10.81,7.38-2.23,38.36,8,44,4.88,2.69,8.57-4,22-5,13.12-1,14.92,4.92,30,5,13.81.07,14.55-4.89,25-3,11.82,2.14,14.09,9.07,23,8,8.55-1,9.24-7.74,17-8,9.34-.31,11.27,9.33,21,10s12-8.65,23-10,12.7,7.61,27,11c19.5,4.62,26.6-9.68,47-4,8.82,2.46,10.61,6,19,6,10.08,0,12.5-5.1,23-5,9.24.09,10.12,4.07,20,5,11.24,1.05,12.06-3.92,25-5,16.51-1.38,19.1,6.38,36,4,6.68-.94,8.6-2.48,17-3,6.82-.42,9,.38,19,1,12.09.76,18.22,1.14,26,0,12.75-1.87,13.2-5.38,22-5,10,.43,10.33,5,21,6,11.39,1.11,12.06-4,24-3,11,.88,12.77,5.37,22,4,5.66-.84,6.34-2.73,14-4,9.82-1.63,11.61,1,15-1,7.57-4.47.22-18.45,8-31,5.12-8.26,16-14.69,26-13,12.41,2.11,20.32,16.36,22,27,1.53,9.71-2.31,15.3,1,18,4.84,3.95,13.66-7.57,28-7,15.22.61,20.71,14.19,30,12,8.34-2,3.21-17,15-27,5.62-4.76,12-6.11,21-8,9.34-2,17.21-3.62,20,0,4.42,5.73-8.46,18.69-3,27,2.15,3.27,4.73,2.15,7,6,4.41,7.47-1.49,18.1-2,19-3,5.19-4.93,4.46-8,9-4,6-2.49,10-4,25-1.48,14.73-3.41,15.25-3,24,.46,9.72,5,11.57,4,19-.92,7.15-4.85,9.31-8,16-2.2,4.66-3.28,9.95-1,30,3.57,31.5,8.47,37,4,48-.6,1.49-6.56,15.73-16,16-8.52.25-16.41-11-18-21s4-13.49,7-27c2.57-11.51,4.15-34.22-7-42-10.92-7.62-29.94,1.95-38,6-20.93,10.53-21.6,22-34,23-18.09,1.44-27.77-25.16-41-21-7.45,2.34-10.88,12.63-12,16-3.29,9.87-.79,19.19,0,22,2.32,8.25,5.6,9.68,5,15s-4.47,11.43-11,13c-7.47,1.79-15.07-3.35-17-9-1.61-4.71,1.71-6.89,5-19,2.08-7.66,3.8-14.3,2-22-.76-3.25-2.16-9.23-7-13-9.94-7.73-26.6-.1-29,1-16,7.36-14.18,18.55-27,23-14.81,5.15-33.71-4.1-44-13-8.85-7.65-9-13-15-14-10.61-1.71-15.27,14.3-33,25-15.49,9.35-40.45,14.37-55,4s-7.53-27.94-22-36c-12.65-7.05-32.93-1.92-42,10-4,5.25-4.72,12.24-6,26-1.75,18.72-2.84,30.46,1,45,4.81,18.21,12.88,23.78,11,39-1.15,9.33-4.9,13-6,14-8.31,7.52-24.74,5.93-30-2-1.95-2.93-2-6.25-1-14,2-15.17,5.46-25.42,7-31,5.77-20.9,2.13-38.16-1-53-3.68-17.47-8.08-20.74-11-22-5.84-2.53-13.53-.38-18,4-5.72,5.61-5.33,14.05-5,21,.62,13.13,5.66,15.85,4,25-1.12,6.14-5.24,15.1-12,16s-14.1-6.56-16-14c-2.16-8.45,4-11.85,5-25,.4-5.12,1.31-16.83-5-23-7.51-7.34-17.33.91-37-2-15-2.22-18.81-7.61-28.55-11.25A53,53,0,0,0,255,464c-4.82-.73-22.13-3.36-38,5-11,5.78-8.21,9.93-18,14-10.21,4.25-25.56,4.88-34-3-4.34-4.05-3-6.73-10-14-3.75-3.88-8.54-7.67-14.55-8l-.45,0c-13.55-.45-16.58,11.48-28,11-8.76-.37-17-7-21-14C82.32,439.76,96.85,427.78,94,405Z"/><path class="cls-2" d="M128.85,320.89a41.25,41.25,0,0,0-19.67,15.68q-6.93,10.55-6.93,25.74,0,7,1.33,9.79a17.29,17.29,0,0,1,1.33,3.13q-10.26,0-15.3-4.27t-5-14.16q0-12.15,10-23.65a74,74,0,0,1,25.56-18.62,74.35,74.35,0,0,1,31.16-7.13q2.65,0,7.6.38L128.66,449.9H101.3Z"/><path class="cls-2" d="M159.82,447.53a23,23,0,0,1-9.31-9.12,24.16,24.16,0,0,1-3-11.69,20,20,0,0,1,2.94-10.92,18.17,18.17,0,0,1,7.13-6.75,242.78,242.78,0,0,0,12.92-26.88q5.5-13.59,10.45-29.36L209,349q.94,24.33,3.23,52.63.94,11.4,1,16.53a28.91,28.91,0,0,1-.76,7.22,77.87,77.87,0,0,0,13.68-9.5h8A111,111,0,0,1,205,439.64a32.82,32.82,0,0,1-13.59,8.65A50.22,50.22,0,0,1,175.21,451Q166.09,451,159.82,447.53Zm21.09-15.68q4.74-4.17,4.75-13.49a154.41,154.41,0,0,0-1.14-16q-1.91-21.66-2.47-29.07-4.56,15-15.39,35.91,4.36,2.28,4.37,6.65a9.83,9.83,0,0,1-2.38,6.46,7.47,7.47,0,0,1-6,2.85q-4,0-5.13-2.47,0,6.84,2.75,10.07t8.84,3.23A17.19,17.19,0,0,0,180.91,431.85Z"/><path class="cls-2" d="M323.5,444.87a22.39,22.39,0,0,1-5.42-15.3,49.47,49.47,0,0,1,.95-9c.64-3.36,1.3-6.62,2-9.79s1.17-5.19,1.42-6.08Q324,398,325.3,391.57a54,54,0,0,0,1.33-10.45q0-9.69-6.84-9.69-4.94,0-8.74,4.85A37.35,37.35,0,0,0,305,388.91l-12.92,61H264.69l13.87-65.55a19.49,19.49,0,0,0,.57-4.75q0-8.36-5.7-8.36c-3.54,0-6.62,1.62-9.21,4.85A36.06,36.06,0,0,0,258,388.91l-12.92,61H217.76l20.14-95h27.36l-2.09,9.88Q272.86,354,286.35,354q16.72,0,19.57,16.34,10.45-16.14,26.41-16.15,9.69,0,15.39,5.32t5.7,16.15a63.61,63.61,0,0,1-1.33,12.26q-1.32,6.75-3.8,16.43-1.52,5.9-2.75,11.5a43.34,43.34,0,0,0-1.24,8.83,9,9,0,0,0,1.71,5.89c1.14,1.4,3.11,2.09,5.89,2.09a11.3,11.3,0,0,0,9.12-4.08q3.42-4.08,6.84-12.64h8q-7,20.91-16.24,28T340.5,451Q328.92,451,323.5,444.87Z"/><path class="cls-2" d="M371.47,443.63q-7.22-7.41-7.22-23.18a86.69,86.69,0,0,1,5.61-29.54,68,68,0,0,1,16.72-26.22A36.81,36.81,0,0,1,413.08,354q7.8,0,11.59,2.66a8.2,8.2,0,0,1,3.8,7V365l2.09-10.07h27.36l-13.68,64.6a23.83,23.83,0,0,0-.76,6.08q0,8.18,7.79,8.17,5.33,0,9.22-4.94a37.29,37.29,0,0,0,6.17-12.92h8q-7,20.52-17.38,27.84T436.45,451q-8,0-12.82-4.46t-5.8-13a53,53,0,0,1-12.25,12.64A26.8,26.8,0,0,1,389.52,451,24.18,24.18,0,0,1,371.47,443.63Zm39.81-15.48q4.65-4.47,6.36-12.26L426.76,373a7.69,7.69,0,0,0-1.9-4.84c-1.26-1.58-3.23-2.38-5.89-2.38q-7.59,0-13.68,8.84a70,70,0,0,0-9.5,21.28,84.17,84.17,0,0,0-3.42,21.94q0,9.51,2.76,12.16a9.29,9.29,0,0,0,6.74,2.66Q406.63,432.61,411.28,428.15Z"/><path class="cls-2" d="M484,492.65q-6.07-4.74-6.08-13.68a20.66,20.66,0,0,1,8.74-17.38q8.75-6.55,22.23-10.93l2.28-10.07Q501.43,451,488.32,451a24.16,24.16,0,0,1-18.05-7.41q-7.22-7.41-7.22-23.18a86.69,86.69,0,0,1,5.61-29.54,68,68,0,0,1,16.72-26.22A36.81,36.81,0,0,1,511.88,354q7.79,0,11.59,2.66a8.22,8.22,0,0,1,3.8,7v1.14l2.09-9.88h27.36l-18.81,88.16a33.46,33.46,0,0,0,14.63-9.12q5.51-6.07,9.31-18.05h8q-5.13,16.92-13.87,24.8a46.51,46.51,0,0,1-19.76,10.73l-2.85,13.68q-3.79,18.43-13.11,25.37a34.44,34.44,0,0,1-21.09,6.93Q490,497.4,484,492.65Zm17.1-14.44q3-4.36,4.75-12.54l1.14-5.51q-18.62,6.84-18.62,16.15a6.32,6.32,0,0,0,1.71,4.37,6,6,0,0,0,4.75,1.9C496.93,482.58,499,481.13,501.05,478.21Zm8.55-49.59a20.56,20.56,0,0,0,6.27-10.83l9.69-45a7.47,7.47,0,0,0-1.9-4.65c-1.27-1.58-3.23-2.38-5.89-2.38q-7.6,0-13.68,8.84a70,70,0,0,0-9.5,21.28,84.17,84.17,0,0,0-3.42,21.94q0,9.51,2.76,12.16a9.29,9.29,0,0,0,6.74,2.66Q505,432.61,509.6,428.62Z"/><path class="cls-2" d="M566,443.73q-7.8-7.32-7.79-22.9,0-13.11,5.13-28.88a67,67,0,0,1,16.72-27.26q11.58-11.49,29.45-11.5,20.9,0,20.9,18.24A34,34,0,0,1,624.36,391a44.89,44.89,0,0,1-16.15,14.35,52.07,52.07,0,0,1-21.47,6.17c-.26,3.8-.38,6.34-.38,7.6q0,9.31,3.23,12.64T600,435.08q10.26,0,17.57-4.75t16.06-14.44h6.46Q619,451.05,587.88,451,573.81,451,566,443.73Zm35.62-46.27a34.62,34.62,0,0,0,10.26-11.59,30.07,30.07,0,0,0,3.9-14.82q0-7.79-4.75-7.79-6.84,0-13.4,12a91.19,91.19,0,0,0-9.4,27.17A25,25,0,0,0,601.65,397.46Z"/><path class="cls-2" d="M645.45,354.9h27.36l-2.47,11.78A76.19,76.19,0,0,1,682,357.94a22.15,22.15,0,0,1,11.31-3,11.88,11.88,0,0,1,9.59,4.18,15.17,15.17,0,0,1,3.52,10.07,14.39,14.39,0,0,1-3.61,9.69Q699.21,383,692.76,383q-4.18,0-5.61-2a15.06,15.06,0,0,1-2.18-5.8,17.58,17.58,0,0,0-1.14-3.61,2.13,2.13,0,0,0-2.09-1.14A13.13,13.13,0,0,0,675,372.1a46.17,46.17,0,0,0-7.12,5.6l-15.2,72.2H625.31Z"/><path class="cls-2" d="M706.91,445.34q-5.61-5.7-5.61-17.1a66.26,66.26,0,0,1,1.52-12.35l12.92-61H743.1l-13.68,64.6a23.83,23.83,0,0,0-.76,6.08c0,2.54.6,4.34,1.81,5.42s3.2,1.61,6,1.61q5.52,0,10.26-4.65a26.55,26.55,0,0,0,6.84-12.07h8q-7,20.52-18,27.84T721.63,451Q712.51,451,706.91,445.34Zm17-105.07a14.49,14.49,0,0,1-4.37-10.64,14.8,14.8,0,0,1,4.37-10.73,14.33,14.33,0,0,1,10.64-4.47,15.24,15.24,0,0,1,15.2,15.2,14.34,14.34,0,0,1-4.46,10.64,14.79,14.79,0,0,1-10.74,4.37A14.47,14.47,0,0,1,723.91,340.27Z"/><path class="cls-2" d="M757.73,443.73q-7.79-7.32-7.79-22.9,0-13.11,5.13-28.88a67.09,67.09,0,0,1,16.72-27.26q11.6-11.49,29.45-11.5,20.91,0,20.9,18.24A34,34,0,0,1,816.06,391a44.81,44.81,0,0,1-16.15,14.35,52,52,0,0,1-21.47,6.17c-.25,3.8-.38,6.34-.38,7.6q0,9.31,3.23,12.64t10.45,3.32q10.26,0,17.58-4.75t16-14.44h6.46Q810.74,451.05,779.58,451,765.53,451,757.73,443.73Zm35.63-46.27a34.83,34.83,0,0,0,10.26-11.59,30.17,30.17,0,0,0,3.89-14.82q0-7.79-4.75-7.79-6.84,0-13.39,12A91.2,91.2,0,0,0,780,402.4,25,25,0,0,0,793.36,397.46Z"/><path class="cls-2" d="M827.75,445.15q-4.66-5.88-4.66-15.58a46.36,46.36,0,0,1,1.14-10.07l12.16-57h-6.27l1.52-7.6h6.27l5.7-26.22,28.12-3.8q-1.71,7.23-1.9,8.55-1.33,5.32-4.56,21.47h11.4l-1.52,7.6h-11.4l-12.16,57a32.1,32.1,0,0,0-1,6.65q0,6.84,6.65,6.84a15.33,15.33,0,0,0,4.94-.57q-3.79,11-8.93,14.82a18.39,18.39,0,0,1-11.21,3.8Q832.4,451,827.75,445.15Z"/><polygon class="cls-3" points="899.72 270 980.05 260.97 961.23 428.55 899.72 270"/><path class="cls-4" d="M921,283.92a455.48,455.48,0,0,1,41.77,22.44c1.66,1,3.17-1.59,1.52-2.6a458,458,0,0,0-41.78-22.43c-1.74-.82-3.26,1.76-1.51,2.59Z"/><path class="cls-4" d="M920,298.26a336.24,336.24,0,0,1,41.66,24.29c1.6,1.1,3.1-1.5,1.52-2.59a337,337,0,0,0-41.66-24.29c-1.73-.85-3.25,1.74-1.52,2.59Z"/><path class="cls-4" d="M928,322.53a270.2,270.2,0,0,1,37.12,23.7c1.53,1.17,3-1.43,1.51-2.59a268.66,268.66,0,0,0-37.12-23.7c-1.7-.9-3.22,1.69-1.51,2.59Z"/><path class="cls-4" d="M939.9,347.26c1.77-.43,3.78,1.24,5.23,2.07l5.43,3.13q5.41,3.14,10.79,6.34a1.51,1.51,0,0,0,2.26-1.3,3,3,0,0,0-.71-1.74c-1.19-1.52-3.3.62-2.12,2.12l-.17-.38,2.26-1.29q-6-3.54-12-7c-1.93-1.12-3.87-2.24-5.81-3.34s-3.79-2-6-1.49c-1.88.45-1.08,3.34.8,2.89Z"/><path class="cls-4" d="M960.11,281.73c2.51,23.67-1.6,47.27-4.41,70.71-.8,6.73-1.5,13.48-1.91,20.25-.12,1.93,2.88,1.92,3,0,1.45-23.68,6.43-47,7.05-70.77a152.89,152.89,0,0,0-.73-20.19c-.2-1.9-3.21-1.92-3,0Z"/><path class="cls-4" d="M947.87,278.45a593,593,0,0,1-1.56,71.91q-.82,10.06-2,20.11c-.22,1.91,2.78,1.9,3,0a594.26,594.26,0,0,0,4-71.82q0-10.11-.44-20.2c-.08-1.93-3.08-1.94-3,0Z"/><path class="cls-4" d="M938.12,277.35a309.37,309.37,0,0,1-3.23,61.57c-.3,1.88,2.6,2.7,2.89.79a312.8,312.8,0,0,0,3.34-62.36c-.09-1.92-3.09-1.93-3,0Z"/><ellipse class="cls-5" cx="971.94" cy="249.98" rx="22.95" ry="17.22" transform="matrix(0.81, -0.58, 0.58, 0.81, 35.76, 611.54)"/><ellipse class="cls-6" cx="939.58" cy="252.23" rx="22.95" ry="17.22" transform="translate(28.42 593.15) rotate(-35.54)"/><ellipse class="cls-7" cx="909.47" cy="255.24" rx="22.95" ry="17.22" transform="translate(110.82 759.67) rotate(-47.95)"/><ellipse class="cls-8" cx="925.28" cy="226.64" rx="22.95" ry="17.22" transform="translate(137.28 761.96) rotate(-47.95)"/><ellipse class="cls-9" cx="953.87" cy="225.14" rx="22.95" ry="17.22" transform="translate(28.94 549.28) rotate(-32.59)"/><ellipse class="cls-10" cx="939.27" cy="204.43" rx="13.59" ry="10.2" transform="translate(37.8 538.15) rotate(-32.59)"/><path class="cls-11" d="M981.66,351.75c-3.39-5.07-4.25-5.13-6.55-9.35-1.89-3.47-3.1-6.73-3.74-6.55s1,4.91-.94,6.55-7.32.12-11.22-.94a4,4,0,0,0-2.81,0c-1.6.76-2.6,3.19-1.87,4.68.39.8,1.23,1.25,4.68,1.87,6.4,1.16,8.37.5,9.35,1.87.77,1.07.05,2.14-.93,6.55-1.16,5.2-1.74,7.8-.94,9.36,1.92,3.74,9.3,4,14,2.8,2.51-.63,5.51-1.38,6.54-3.74C988.52,362,986.2,358.55,981.66,351.75Z"/><path class="cls-12" d="M996.63,526.72a24,24,0,0,1-20.58-10.29,9.09,9.09,0,0,1-5.62,3.74c-1.6.23-3.25-.16-9.35-3.74-6.5-3.82-7.6-5.13-9.36-4.68-2.84.71-4.41,5.22-4.68,8.42-.7,8.27,6.43,17.66,15,19.65A22.57,22.57,0,0,0,977,538c2.73-1.47,5.09-3.66,6.55-2.81,1.17.68,1.14,2.93.94,4.68l6.55,1.87Z"/><path class="cls-13" d="M1119.46,502.16a24,24,0,0,1-14.22,18.1c1.18,1.37,2.71,3.6,2.54,6.25-.1,1.61-.81,3.16-5.55,8.41-5,5.6-6.54,6.41-6.46,8.23.13,2.92,4.23,5.36,7.31,6.27,8,2.36,18.59-2.74,22.26-10.71a22.56,22.56,0,0,0,1.17-15c-.89-3-2.56-5.72-1.43-7,.9-1,3.1-.52,4.77,0l3.15-6Z"/><path class="cls-14" d="M1015.68,374.91l29-8.71q21-6.3,42.1-12.58a22.32,22.32,0,0,1,6.55,4.84c12.63,13.62,3.4,39.08,2.81,40.64a107.66,107.66,0,0,1,4.68,12.58c3.34,11.06,3.31,17.39,4.68,28.06,2.8,21.89,4.24,33.11,12.16,42.58,6.25,7.46,11.16,7.42,12.16,12.58,1.84,9.41-12.39,20.48-26.19,29-20.81-9.38-29.6-20.84-33.69-30a244.92,244.92,0,0,1-10.29-31c-3.09-11.58-4.06-18.2-6.55-18.39-2.74-.21-4.89,7.53-9.36,20.32-13.1,37.52-21.1,46.87-24.32,50.32-5.13,5.49-11.28,12.08-20.59,12.58-13.25.71-22.75-11.47-24.32-13.55a251.77,251.77,0,0,1,20.58-43.54c9.19-15.34,16.09-32.07,25.26-47.42,1.92-3.2,5.93-9.79,4.68-17.41-.78-4.78-3.08-6.58-5.61-12.58A49.54,49.54,0,0,1,1015.68,374.91Z"/><path class="cls-11" d="M1067.91,373.36c-2.15,1-9.07,4.37-9.67,8.94-.73,5.54,8.15,10.4,16.18,10.62,13.32.35,27.85-12,26.35-17.93S1080.7,367.2,1067.91,373.36Z"/><path class="cls-15" d="M1044.35,286.05a49.92,49.92,0,0,0,16.37,2.89,51.94,51.94,0,0,0,29.86-9.64l-1,23.12c3.22.94,24.3,7.42,32.75,27.93a44.89,44.89,0,0,1,2.89,23.12c-2.87,20.35-19,30.72-22.15,32.75-5.09,3.27-10.24,6.58-15.42,4.82-8.4-2.87-12.21-17.52-7.7-23.12,3.09-3.85,8-.86,15.41-5.78,1.83-1.22,7.28-4.86,8.67-11.56,1.45-7-2.58-12.66-3.85-14.45-2.1-2.92-6.84-8-9.64-6.74s-2.52,7.94-1.92,11.56c.91,5.54,3.19,6.83,2.89,9.63-.57,5.22-9.36,8.35-16.38,10.6-30.31,9.69-39.84,6.72-59.72,14.44a37.27,37.27,0,0,1-10.59,2.89c-10.66,1.14-19.86-3-26-6.74a27,27,0,0,1-1.92-14.45,26.49,26.49,0,0,1,2.88-8.67,36.76,36.76,0,0,0,9.64,5.78c4.76,1.94,10.07,4.11,15.41,1.93a15.45,15.45,0,0,0,7.7-7.71,47.71,47.71,0,0,1,4.82-21.19c4.25-8.54,10.48-14.1,17.34-20.22a112.51,112.51,0,0,1,9.63-7.71Z"/><path class="cls-16" d="M1102.46,243.55c0-5.73,3.75-10.35,8.42-11.23,3.53-.66,7.89.74,9.36,3.74,1.92,3.9-.9,10.77-8.42,14a3.56,3.56,0,0,0,4.68,1.87,62.86,62.86,0,0,1-10.29,15.91c-16.86,18.93-39.89,21.18-46.79,21.52-3.36.16-7.67,1.08-12.16-.94-2.56-1.15-4.78-3-9.46-9.69-7.2-10.35-11.14-16-12.16-24.33-.47-3.82.18-4.07.93-13.1,1.53-18.32.15-33,5.72-39.89a8.19,8.19,0,0,1,3.74-2.81c3.18-1,6.56.52,9.36,1.87a33.32,33.32,0,0,1,4.68,2.81c4,2.54,8.62,2,19.65,0,16-2.85,18.47-3.8,21.52-1.87,3.56,2.25,5.34,6.82,5.61,10.29.59,7.43-5.64,10.68-3.74,15.9,1.14,3.14,3.73,2.9,6.55,7.49A20.32,20.32,0,0,1,1102.46,243.55Z"/><path class="cls-17" d="M1067,258.66c-.3.15-3.57,1.84-3.51,4.56.06,2.52,2.94,4.85,7,5.39-.9-.29-3.88-1.35-5.26-3.73a4.13,4.13,0,0,1-.59-3.32A5.53,5.53,0,0,1,1067,258.66Z"/><path class="cls-17" d="M1079.75,232.22a9.7,9.7,0,0,0-6.46-2.22c-3.56.08-6.83,2-7.56,4.65a9.11,9.11,0,0,1,5.23-3.48,11.51,11.51,0,0,1,4.67-.43A9,9,0,0,1,1079.75,232.22Z"/><path class="cls-17" d="M1029.38,233.85a6.92,6.92,0,0,1,5-1.55c2.68.26,5,2.07,5.41,4.38a7,7,0,0,0-3.73-3.26,7.79,7.79,0,0,0-3.49-.61A6.37,6.37,0,0,0,1029.38,233.85Z"/><path class="cls-14" d="M1115.18,234.93c-1.85-.54-3.75,1-4.81,1.9-3.55,2.92-2.74,5.49-5.76,7.59-2.16,1.51-5.43,2.19-6.72,1s.56-3.29,0-6.64c-.8-4.75-5.26-4.9-6.73-9.5-1-3.1.73-4,1.92-11.4,1.09-6.69,1.63-10,0-12.34-2.79-4-10.52-3.15-21.13-1.9-14.86,1.75-19.23,5.14-25,1.9-3.7-2.1-4.84-5.66-8.64-5.7-4.22,0-6.47,4.14-8,3.19-1.86-1.13-.74-8.36,2.26-9.84a37.35,37.35,0,0,0,3.64-2,8.86,8.86,0,0,0,1.17-.89c2.48-2.24,2.22-4.13,3.84-6.65,3.07-4.78,9.23-6.14,11.52-6.64,5.3-1.17,6.55.62,11.53-.95,2.73-.87,7.75-3.11,7.68-5.7-.08-3.25-8.09-5-7.68-6.65.21-.8,2.34-.89,3.84-.95,4-.17,8.52-.36,11.53,2.85,1.43,1.52,3.35,4.7,2.88,7.6a3.66,3.66,0,0,0,0,1.9c.62,1.88,3.11,2.63,3.84,2.85,2.69.8,3.8-.06,6.72,0,4.92.08,8.81,2.64,10.57,3.79,2.64,1.74,2.33,2.32,4.8,3.8,3.84,2.31,6,1.75,8.65,2.85,6.49,2.72,10.23,13.11,8.64,20.9-.91,4.47-2.81,4.3-3.84,9.49-1.09,5.47.5,7.48,1,14.25.34,5.08,1,15.11-4.8,20.89-3.73,3.7-9.53,5.08-10.57,3.8s1.79-5.32,3.84-7.6c2.2-2.44,3.19-2.35,4.81-4.75.88-1.31,2.55-3.8,1.92-6.64C1118,238.41,1117.3,235.54,1115.18,234.93Z"/><path class="cls-10" d="M1040.57,264c.33-.23,1.25,1,2.81,1.87a9.84,9.84,0,0,0,5.61.94,22.91,22.91,0,0,0,9.36-2.81c1-.56,2.28-1.37,2.81-.94.28.24.3.79,0,1.88-.55,1.91-1.69,5.89-5.62,7.48-3.24,1.32-6.54.27-6.55,0s1.6-.06,3.74-.93,4-2.35,3.75-2.81-3.07,1.06-7.49.93c-1.49,0-5.5-.16-7.48-2.8C1040.67,265.66,1040.26,264.18,1040.57,264Z"/><path class="cls-18" d="M1061.43,250a34.17,34.17,0,0,0,2.8-3.55c1.72-2.51,1.78-3.34,2.81-4.44a9.71,9.71,0,0,1,7.48-2.66c4.55.36,8.79,4.71,9.36,10.65a18.74,18.74,0,0,1-10.29,4.43c-1.82.15-4.31.36-6.55-.88-.33-.19-.53-.33-2.81-1.78Z"/><path class="cls-17" d="M1068.83,253.75a5.71,5.71,0,0,1-1.77-4.84c.19-3.44,3.28-5.78,4.76-6.55l.19-.1a9.38,9.38,0,0,1,5-.95c3.77.44,5.77,4.35,6,4.88a9,9,0,0,1,.88,4.62,20.83,20.83,0,0,1-2.05,1.41,22.68,22.68,0,0,1-2.9,1.44C1078.3,253.91,1072.08,256.37,1068.83,253.75Z"/><ellipse class="cls-18" cx="1033.88" cy="244.96" rx="4.68" ry="6.71" transform="translate(-1.03 485.51) rotate(-26.41)"/><path class="cls-17" d="M1039,244c.75,2.58.11,6.18-1.76,6.76-1.43.45-3.31-1-4.16-2.42-1.44-2.41-.72-6,1.83-9A8,8,0,0,1,1039,244Z"/><path class="cls-17" d="M1044,259.83c-.83-.56-3.94-2.81-4.17-6.31-.14-2.13.83-5,2.6-5.53,1.6-.44,2.73,1.42,7,3.65a31.31,31.31,0,0,0,4.1,1.76,13.33,13.33,0,0,1-4.68-1.17c-3.25-1.5-4.61-3.79-6.21-3.25-.9.3-1.3,1.33-1.56,2-.78,1.9-.11,3.6.52,5.13A13.81,13.81,0,0,0,1044,259.83Z"/></g></svg>