<svg width="278" height="161" viewBox="0 0 278 161" fill="none" xmlns="http://www.w3.org/2000/svg">
<path d="M121.4 38.4998C122.319 28.5998 123.232 18.6998 124.15 8.7998H135.7C136.8 14.4813 137.9 20.1683 139 25.8498C140.282 20.1683 141.569 14.4813 142.85 8.7998H153.85C154.769 18.6998 155.682 28.5998 156.6 38.4998H148.9C148.889 21.6203 148.064 17.6658 147.25 17.5998C146.431 17.5338 144.979 21.3838 142.3 38.4998H135.7C133.022 21.3838 131.57 17.5338 130.75 17.5998C129.936 17.6658 129.111 21.6203 129.1 38.4998H121.4Z" stroke="#F291BA" stroke-width="1.5" stroke-miterlimit="10" stroke-linecap="round"/>
<path d="M167.963 39.0498H110.037C108.719 39.0498 107.65 40.1185 107.65 41.4368V49.8628C107.65 51.1811 108.719 52.2498 110.037 52.2498H167.963C169.282 52.2498 170.35 51.1811 170.35 49.8628V41.4368C170.35 40.1185 169.282 39.0498 167.963 39.0498Z" stroke="#F291BA" stroke-width="1.5" stroke-miterlimit="10" stroke-linecap="round"/>
<path d="M1.29119 86.9091H4.19318L8.07955 96.3949H8.23295L12.1193 86.9091H15.0213V100H12.7457V91.0064H12.6243L9.00639 99.9616H7.30611L3.68821 90.9872H3.56676V100H1.29119V86.9091ZM22.8004 86.9091V100H20.429V89.2166H20.3523L17.2905 91.1726V88.9993L20.544 86.9091H22.8004ZM32.9286 86.9091V100H30.6147V86.9091H32.9286ZM35.3081 100V90.1818H37.622V100H35.3081ZM36.4714 88.7884C36.1049 88.7884 35.7896 88.6669 35.5254 88.424C35.2612 88.1768 35.1291 87.8807 35.1291 87.5355C35.1291 87.1861 35.2612 86.8899 35.5254 86.647C35.7896 86.3999 36.1049 86.2763 36.4714 86.2763C36.8422 86.2763 37.1575 86.3999 37.4174 86.647C37.6816 86.8899 37.8137 87.1861 37.8137 87.5355C37.8137 87.8807 37.6816 88.1768 37.4174 88.424C37.1575 88.6669 36.8422 88.7884 36.4714 88.7884ZM42.3153 94.2472V100H40.0014V90.1818H42.2131V91.8501H42.3281C42.554 91.3004 42.9141 90.8636 43.4084 90.5398C43.907 90.2159 44.5227 90.054 45.2557 90.054C45.9332 90.054 46.5234 90.1989 47.0263 90.4886C47.5334 90.7784 47.9254 91.1982 48.2024 91.7479C48.4837 92.2976 48.6222 92.9645 48.6179 93.7486V100H46.304V94.1065C46.304 93.4503 46.1335 92.9368 45.7926 92.5661C45.456 92.1953 44.9893 92.0099 44.3928 92.0099C43.9879 92.0099 43.6278 92.0994 43.3125 92.2784C43.0014 92.4531 42.7564 92.7067 42.5774 93.0391C42.4027 93.3714 42.3153 93.7741 42.3153 94.2472ZM50.9702 90.1818H53.2841V100.562C53.2841 101.27 53.1499 101.854 52.8814 102.314C52.6129 102.774 52.2251 103.117 51.718 103.343C51.2109 103.569 50.5952 103.682 49.8707 103.682C49.7855 103.682 49.7067 103.68 49.6342 103.675C49.5618 103.675 49.483 103.673 49.3977 103.669V101.783C49.4616 101.788 49.5192 101.79 49.5703 101.79C49.6214 101.794 49.6747 101.796 49.7301 101.796C50.1733 101.796 50.4908 101.688 50.6825 101.47C50.8743 101.257 50.9702 100.944 50.9702 100.531V90.1818ZM52.1207 88.7884C51.75 88.7884 51.4325 88.6669 51.1683 88.424C50.9084 88.1768 50.7784 87.8807 50.7784 87.5355C50.7784 87.1861 50.9084 86.8899 51.1683 86.647C51.4325 86.3999 51.75 86.2763 52.1207 86.2763C52.4872 86.2763 52.8004 86.3999 53.0604 86.647C53.3246 86.8899 53.4567 87.1861 53.4567 87.5355C53.4567 87.8807 53.3246 88.1768 53.0604 88.424C52.8004 88.6669 52.4872 88.7884 52.1207 88.7884ZM60.0101 100.192C59.0257 100.192 58.1756 99.9872 57.4597 99.5781C56.748 99.1648 56.2005 98.581 55.8169 97.8267C55.4334 97.0682 55.2417 96.1754 55.2417 95.1484C55.2417 94.1385 55.4334 93.2521 55.8169 92.4893C56.2047 91.7223 56.7459 91.1257 57.4405 90.6996C58.1351 90.2692 58.9512 90.054 59.8887 90.054C60.4938 90.054 61.0648 90.152 61.6017 90.348C62.1429 90.5398 62.6202 90.8381 63.0336 91.2429C63.4512 91.6477 63.7793 92.1634 64.0179 92.7898C64.2566 93.4119 64.3759 94.1534 64.3759 95.0142V95.7237H56.3283V94.1641H62.1578C62.1536 93.7209 62.0577 93.3267 61.8702 92.9815C61.6827 92.6321 61.4206 92.3572 61.084 92.157C60.7516 91.9567 60.3638 91.8565 59.9206 91.8565C59.4476 91.8565 59.0321 91.9716 58.6742 92.2017C58.3162 92.4276 58.0371 92.7259 57.8368 93.0966C57.6408 93.4631 57.5407 93.8658 57.5364 94.3047V95.6662C57.5364 96.2372 57.6408 96.7273 57.8496 97.1364C58.0584 97.5412 58.3503 97.8523 58.7253 98.0696C59.1003 98.2827 59.5392 98.3892 60.0421 98.3892C60.3787 98.3892 60.6834 98.3423 60.9561 98.2486C61.2289 98.1506 61.4654 98.0078 61.6657 97.8203C61.8659 97.6328 62.0172 97.4006 62.1195 97.1236L64.28 97.3665C64.1436 97.9375 63.8837 98.4361 63.5002 98.8622C63.1209 99.2841 62.6351 99.6122 62.0428 99.8466C61.4505 100.077 60.7729 100.192 60.0101 100.192ZM68.6474 94.2472V100H66.3335V90.1818H68.5451V91.8501H68.6602C68.886 91.3004 69.2461 90.8636 69.7404 90.5398C70.239 90.2159 70.8548 90.054 71.5877 90.054C72.2653 90.054 72.8555 90.1989 73.3583 90.4886C73.8654 90.7784 74.2575 91.1982 74.5344 91.7479C74.8157 92.2976 74.9542 92.9645 74.9499 93.7486V100H72.636V94.1065C72.636 93.4503 72.4656 92.9368 72.1246 92.5661C71.788 92.1953 71.3214 92.0099 70.7248 92.0099C70.32 92.0099 69.9599 92.0994 69.6445 92.2784C69.3335 92.4531 69.0884 92.7067 68.9094 93.0391C68.7347 93.3714 68.6474 93.7741 68.6474 94.2472ZM81.767 100V90.1818H83.9787V91.8501H84.0938C84.2983 91.2876 84.6371 90.8487 85.1101 90.5334C85.5831 90.2138 86.1477 90.054 86.804 90.054C87.4688 90.054 88.0291 90.2159 88.4851 90.5398C88.9453 90.8594 89.2692 91.2962 89.4567 91.8501H89.5589C89.7763 91.3047 90.1428 90.87 90.6584 90.5462C91.1783 90.218 91.794 90.054 92.5057 90.054C93.4091 90.054 94.1463 90.3395 94.7173 90.9105C95.2884 91.4815 95.5739 92.3146 95.5739 93.4098V100H93.2536V93.7678C93.2536 93.1584 93.0916 92.7131 92.7678 92.4318C92.4439 92.1463 92.0476 92.0036 91.5788 92.0036C91.0206 92.0036 90.5838 92.1783 90.2685 92.5277C89.9574 92.8729 89.8018 93.3224 89.8018 93.8764V100H87.5327V93.6719C87.5327 93.1648 87.3793 92.7599 87.0724 92.4574C86.7699 92.1548 86.3736 92.0036 85.8835 92.0036C85.5511 92.0036 85.2486 92.0888 84.9759 92.2592C84.7031 92.4254 84.4858 92.6619 84.3239 92.9688C84.1619 93.2713 84.081 93.625 84.081 94.0298V100H81.767ZM102.268 100.192C101.284 100.192 100.433 99.9872 99.7175 99.5781C99.0059 99.1648 98.4583 98.581 98.0748 97.8267C97.6912 97.0682 97.4995 96.1754 97.4995 95.1484C97.4995 94.1385 97.6912 93.2521 98.0748 92.4893C98.4625 91.7223 99.0037 91.1257 99.6983 90.6996C100.393 90.2692 101.209 90.054 102.146 90.054C102.752 90.054 103.323 90.152 103.86 90.348C104.401 90.5398 104.878 90.8381 105.291 91.2429C105.709 91.6477 106.037 92.1634 106.276 92.7898C106.514 93.4119 106.634 94.1534 106.634 95.0142V95.7237H98.5861V94.1641H104.416C104.411 93.7209 104.316 93.3267 104.128 92.9815C103.941 92.6321 103.678 92.3572 103.342 92.157C103.009 91.9567 102.622 91.8565 102.178 91.8565C101.705 91.8565 101.29 91.9716 100.932 92.2017C100.574 92.4276 100.295 92.7259 100.095 93.0966C99.8986 93.4631 99.7985 93.8658 99.7942 94.3047V95.6662C99.7942 96.2372 99.8986 96.7273 100.107 97.1364C100.316 97.5412 100.608 97.8523 100.983 98.0696C101.358 98.2827 101.797 98.3892 102.3 98.3892C102.637 98.3892 102.941 98.3423 103.214 98.2486C103.487 98.1506 103.723 98.0078 103.923 97.8203C104.124 97.6328 104.275 97.4006 104.377 97.1236L106.538 97.3665C106.401 97.9375 106.142 98.4361 105.758 98.8622C105.379 99.2841 104.893 99.6122 104.301 99.8466C103.708 100.077 103.031 100.192 102.268 100.192ZM110.905 86.9091V100H108.591V86.9091H110.905ZM115.599 86.9091V100H113.285V86.9091H115.599ZM122.325 100.192C121.34 100.192 120.49 99.9872 119.774 99.5781C119.063 99.1648 118.515 98.581 118.131 97.8267C117.748 97.0682 117.556 96.1754 117.556 95.1484C117.556 94.1385 117.748 93.2521 118.131 92.4893C118.519 91.7223 119.06 91.1257 119.755 90.6996C120.45 90.2692 121.266 90.054 122.203 90.054C122.808 90.054 123.379 90.152 123.916 90.348C124.457 90.5398 124.935 90.8381 125.348 91.2429C125.766 91.6477 126.094 92.1634 126.332 92.7898C126.571 93.4119 126.69 94.1534 126.69 95.0142V95.7237H118.643V94.1641H124.472C124.468 93.7209 124.372 93.3267 124.185 92.9815C123.997 92.6321 123.735 92.3572 123.398 92.157C123.066 91.9567 122.678 91.8565 122.235 91.8565C121.762 91.8565 121.347 91.9716 120.989 92.2017C120.631 92.4276 120.352 92.7259 120.151 93.0966C119.955 93.4631 119.855 93.8658 119.851 94.3047V95.6662C119.851 96.2372 119.955 96.7273 120.164 97.1364C120.373 97.5412 120.665 97.8523 121.04 98.0696C121.415 98.2827 121.854 98.3892 122.357 98.3892C122.693 98.3892 122.998 98.3423 123.271 98.2486C123.543 98.1506 123.78 98.0078 123.98 97.8203C124.18 97.6328 124.332 97.4006 124.434 97.1236L126.594 97.3665C126.458 97.9375 126.198 98.4361 125.815 98.8622C125.435 99.2841 124.95 99.6122 124.357 99.8466C123.765 100.077 123.087 100.192 122.325 100.192ZM128.648 100V90.1818H130.86V91.8501H130.975C131.179 91.2876 131.518 90.8487 131.991 90.5334C132.464 90.2138 133.029 90.054 133.685 90.054C134.35 90.054 134.91 90.2159 135.366 90.5398C135.826 90.8594 136.15 91.2962 136.338 91.8501H136.44C136.657 91.3047 137.024 90.87 137.539 90.5462C138.059 90.218 138.675 90.054 139.387 90.054C140.29 90.054 141.027 90.3395 141.598 90.9105C142.169 91.4815 142.455 92.3146 142.455 93.4098V100H140.134V93.7678C140.134 93.1584 139.972 92.7131 139.649 92.4318C139.325 92.1463 138.928 92.0036 138.46 92.0036C137.901 92.0036 137.465 92.1783 137.149 92.5277C136.838 92.8729 136.683 93.3224 136.683 93.8764V100H134.414V93.6719C134.414 93.1648 134.26 92.7599 133.953 92.4574C133.651 92.1548 133.254 92.0036 132.764 92.0036C132.432 92.0036 132.129 92.0888 131.857 92.2592C131.584 92.4254 131.367 92.6619 131.205 92.9688C131.043 93.2713 130.962 93.625 130.962 94.0298V100H128.648ZM151.121 86.9091L154.528 97.2131H154.662L158.062 86.9091H160.67L156.055 100H153.128L148.519 86.9091H151.121ZM164.098 100.198C163.476 100.198 162.916 100.087 162.417 99.8658C161.923 99.6399 161.531 99.3075 161.241 98.8686C160.955 98.4297 160.813 97.8885 160.813 97.245C160.813 96.6911 160.915 96.233 161.119 95.8707C161.324 95.5085 161.603 95.2188 161.957 95.0014C162.311 94.7841 162.709 94.62 163.152 94.5092C163.6 94.3942 164.062 94.3111 164.539 94.2599C165.115 94.2003 165.581 94.147 165.939 94.1001C166.297 94.049 166.557 93.9723 166.719 93.87C166.885 93.7635 166.968 93.5994 166.968 93.3778V93.3395C166.968 92.858 166.825 92.4851 166.54 92.2209C166.254 91.9567 165.843 91.8246 165.306 91.8246C164.74 91.8246 164.29 91.9482 163.958 92.1953C163.629 92.4425 163.408 92.7344 163.293 93.071L161.132 92.7642C161.303 92.1676 161.584 91.669 161.976 91.2685C162.368 90.8636 162.847 90.5611 163.414 90.3608C163.981 90.1562 164.607 90.054 165.294 90.054C165.767 90.054 166.237 90.1094 166.706 90.2202C167.175 90.331 167.603 90.5142 167.991 90.7699C168.379 91.0213 168.69 91.3643 168.924 91.799C169.163 92.2337 169.282 92.777 169.282 93.429V100H167.058V98.6513H166.981C166.84 98.924 166.642 99.1797 166.387 99.4183C166.135 99.6527 165.818 99.8423 165.434 99.9872C165.055 100.128 164.61 100.198 164.098 100.198ZM164.699 98.4979C165.164 98.4979 165.566 98.4062 165.907 98.223C166.248 98.0355 166.51 97.7884 166.693 97.4815C166.881 97.1747 166.975 96.8402 166.975 96.478V95.321C166.902 95.3807 166.779 95.4361 166.604 95.4872C166.433 95.5384 166.242 95.5831 166.029 95.6214C165.816 95.6598 165.605 95.6939 165.396 95.7237C165.187 95.7536 165.006 95.7791 164.852 95.8004C164.507 95.8473 164.198 95.924 163.926 96.0305C163.653 96.1371 163.438 96.2862 163.28 96.478C163.122 96.6655 163.044 96.9084 163.044 97.2067C163.044 97.6328 163.199 97.9545 163.51 98.1719C163.821 98.3892 164.218 98.4979 164.699 98.4979ZM173.923 94.2472V100H171.609V90.1818H173.82V91.8501H173.936C174.161 91.3004 174.521 90.8636 175.016 90.5398C175.514 90.2159 176.13 90.054 176.863 90.054C177.541 90.054 178.131 90.1989 178.634 90.4886C179.141 90.7784 179.533 91.1982 179.81 91.7479C180.091 92.2976 180.23 92.9645 180.225 93.7486V100H177.911V94.1065C177.911 93.4503 177.741 92.9368 177.4 92.5661C177.063 92.1953 176.597 92.0099 176 92.0099C175.595 92.0099 175.235 92.0994 174.92 92.2784C174.609 92.4531 174.364 92.7067 174.185 93.0391C174.01 93.3714 173.923 93.7741 173.923 94.2472ZM184.892 86.9091V100H182.578V86.9091H184.892ZM188.632 100.601L187.475 99.8082L194.462 89.6577L195.632 90.4503L188.632 100.601ZM191.554 100.205C190.595 100.205 189.764 99.9936 189.061 99.5717C188.358 99.1499 187.812 98.5597 187.424 97.8011C187.041 97.0384 186.849 96.152 186.849 95.142C186.849 94.1278 187.041 93.2393 187.424 92.4766C187.812 91.7138 188.358 91.1214 189.061 90.6996C189.764 90.2777 190.595 90.0668 191.554 90.0668C192.512 90.0668 193.343 90.2777 194.047 90.6996C194.75 91.1214 195.293 91.7138 195.676 92.4766C196.064 93.2393 196.258 94.1278 196.258 95.142C196.258 96.152 196.064 97.0384 195.676 97.8011C195.293 98.5597 194.75 99.1499 194.047 99.5717C193.343 99.9936 192.512 100.205 191.554 100.205ZM191.566 98.3509C192.086 98.3509 192.521 98.2081 192.87 97.9226C193.22 97.6328 193.48 97.245 193.65 96.7592C193.825 96.2734 193.912 95.7301 193.912 95.1293C193.912 94.5327 193.825 93.9915 193.65 93.5057C193.48 93.0156 193.22 92.6257 192.87 92.3359C192.521 92.0462 192.086 91.9013 191.566 91.9013C191.034 91.9013 190.591 92.0462 190.237 92.3359C189.887 92.6257 189.625 93.0156 189.451 93.5057C189.28 93.9915 189.195 94.5327 189.195 95.1293C189.195 95.7301 189.28 96.2734 189.451 96.7592C189.625 97.245 189.887 97.6328 190.237 97.9226C190.591 98.2081 191.034 98.3509 191.566 98.3509ZM205.982 92.777L203.873 93.0071C203.813 92.794 203.709 92.5938 203.559 92.4062C203.415 92.2188 203.219 92.0675 202.971 91.9524C202.724 91.8374 202.422 91.7798 202.064 91.7798C201.582 91.7798 201.177 91.8842 200.849 92.093C200.525 92.3018 200.366 92.5724 200.37 92.9048C200.366 93.1903 200.47 93.4226 200.683 93.6016C200.9 93.7805 201.258 93.9276 201.757 94.0426L203.432 94.4006C204.361 94.6009 205.051 94.9183 205.503 95.353C205.959 95.7876 206.189 96.3565 206.193 97.0597C206.189 97.6776 206.008 98.223 205.65 98.696C205.296 99.1648 204.804 99.5312 204.173 99.7955C203.542 100.06 202.818 100.192 202 100.192C200.798 100.192 199.831 99.9403 199.098 99.4375C198.365 98.9304 197.928 98.2251 197.787 97.3217L200.044 97.1044C200.146 97.5476 200.363 97.8821 200.696 98.108C201.028 98.3338 201.461 98.4467 201.993 98.4467C202.543 98.4467 202.984 98.3338 203.317 98.108C203.653 97.8821 203.822 97.603 203.822 97.2706C203.822 96.9893 203.713 96.7571 203.496 96.5739C203.282 96.3906 202.95 96.25 202.498 96.152L200.824 95.8004C199.882 95.6044 199.185 95.2741 198.733 94.8097C198.282 94.3409 198.058 93.7486 198.062 93.0327C198.058 92.4276 198.222 91.9034 198.555 91.4602C198.891 91.0128 199.358 90.6676 199.954 90.4247C200.555 90.1776 201.248 90.054 202.032 90.054C203.182 90.054 204.088 90.299 204.748 90.7891C205.413 91.2791 205.824 91.9418 205.982 92.777ZM212.448 100.192C211.463 100.192 210.613 99.9872 209.897 99.5781C209.186 99.1648 208.638 98.581 208.254 97.8267C207.871 97.0682 207.679 96.1754 207.679 95.1484C207.679 94.1385 207.871 93.2521 208.254 92.4893C208.642 91.7223 209.183 91.1257 209.878 90.6996C210.573 90.2692 211.389 90.054 212.326 90.054C212.931 90.054 213.502 90.152 214.039 90.348C214.58 90.5398 215.058 90.8381 215.471 91.2429C215.889 91.6477 216.217 92.1634 216.455 92.7898C216.694 93.4119 216.813 94.1534 216.813 95.0142V95.7237H208.766V94.1641H214.595C214.591 93.7209 214.495 93.3267 214.308 92.9815C214.12 92.6321 213.858 92.3572 213.521 92.157C213.189 91.9567 212.801 91.8565 212.358 91.8565C211.885 91.8565 211.47 91.9716 211.112 92.2017C210.754 92.4276 210.475 92.7259 210.274 93.0966C210.078 93.4631 209.978 93.8658 209.974 94.3047V95.6662C209.974 96.2372 210.078 96.7273 210.287 97.1364C210.496 97.5412 210.788 97.8523 211.163 98.0696C211.538 98.2827 211.977 98.3892 212.48 98.3892C212.816 98.3892 213.121 98.3423 213.394 98.2486C213.666 98.1506 213.903 98.0078 214.103 97.8203C214.303 97.6328 214.455 97.4006 214.557 97.1236L216.718 97.3665C216.581 97.9375 216.321 98.4361 215.938 98.8622C215.558 99.2841 215.073 99.6122 214.48 99.8466C213.888 100.077 213.21 100.192 212.448 100.192ZM227.518 100.192C226.56 100.192 225.729 99.9808 225.026 99.5589C224.322 99.1371 223.777 98.5469 223.389 97.7884C223.006 97.0298 222.814 96.1435 222.814 95.1293C222.814 94.1151 223.006 93.2266 223.389 92.4638C223.777 91.701 224.322 91.1087 225.026 90.6868C225.729 90.2649 226.56 90.054 227.518 90.054C228.477 90.054 229.308 90.2649 230.011 90.6868C230.714 91.1087 231.258 91.701 231.641 92.4638C232.029 93.2266 232.223 94.1151 232.223 95.1293C232.223 96.1435 232.029 97.0298 231.641 97.7884C231.258 98.5469 230.714 99.1371 230.011 99.5589C229.308 99.9808 228.477 100.192 227.518 100.192ZM227.531 98.3381C228.051 98.3381 228.486 98.1953 228.835 97.9098C229.185 97.62 229.445 97.2322 229.615 96.7464C229.79 96.2607 229.877 95.7195 229.877 95.1229C229.877 94.522 229.79 93.9787 229.615 93.4929C229.445 93.0028 229.185 92.6129 228.835 92.3232C228.486 92.0334 228.051 91.8885 227.531 91.8885C226.999 91.8885 226.555 92.0334 226.202 92.3232C225.852 92.6129 225.59 93.0028 225.415 93.4929C225.245 93.9787 225.16 94.522 225.16 95.1229C225.16 95.7195 225.245 96.2607 225.415 96.7464C225.59 97.2322 225.852 97.62 226.202 97.9098C226.555 98.1953 226.999 98.3381 227.531 98.3381ZM238.457 103.886C237.626 103.886 236.912 103.773 236.316 103.548C235.719 103.326 235.24 103.028 234.877 102.653C234.515 102.278 234.264 101.862 234.123 101.406L236.207 100.901C236.301 101.093 236.437 101.283 236.616 101.47C236.795 101.662 237.036 101.82 237.338 101.943C237.645 102.071 238.031 102.135 238.495 102.135C239.151 102.135 239.695 101.975 240.125 101.656C240.556 101.34 240.771 100.82 240.771 100.096V98.2358H240.656C240.536 98.4744 240.362 98.7195 240.132 98.9709C239.906 99.2223 239.605 99.4332 239.23 99.6037C238.86 99.7741 238.393 99.8594 237.83 99.8594C237.076 99.8594 236.392 99.6825 235.779 99.3288C235.169 98.9709 234.683 98.4382 234.321 97.7308C233.963 97.0192 233.784 96.1286 233.784 95.0589C233.784 93.9808 233.963 93.071 234.321 92.3295C234.683 91.5838 235.171 91.0192 235.785 90.6357C236.399 90.2479 237.083 90.054 237.837 90.054C238.412 90.054 238.885 90.152 239.256 90.348C239.631 90.5398 239.929 90.772 240.151 91.0447C240.372 91.3132 240.541 91.5668 240.656 91.8054H240.784V90.1818H243.066V100.16C243.066 100.999 242.865 101.694 242.465 102.244C242.064 102.793 241.517 103.205 240.822 103.477C240.127 103.75 239.339 103.886 238.457 103.886ZM238.476 98.044C238.966 98.044 239.384 97.9247 239.729 97.6861C240.074 97.4474 240.336 97.1044 240.515 96.657C240.694 96.2095 240.784 95.6726 240.784 95.0462C240.784 94.4283 240.694 93.8871 240.515 93.4226C240.34 92.9581 240.08 92.598 239.735 92.3423C239.394 92.0824 238.975 91.9524 238.476 91.9524C237.96 91.9524 237.53 92.0866 237.185 92.3551C236.84 92.6236 236.58 92.9922 236.405 93.4609C236.23 93.9254 236.143 94.4538 236.143 95.0462C236.143 95.647 236.23 96.1733 236.405 96.625C236.584 97.0724 236.846 97.4219 237.191 97.6733C237.541 97.9205 237.969 98.044 238.476 98.044ZM3.04261 113.909L6.44957 124.213H6.58381L9.98438 113.909H12.5923L7.97727 127H5.04972L0.441051 113.909H3.04261ZM17.5062 127.192C16.5218 127.192 15.6717 126.987 14.9558 126.578C14.2441 126.165 13.6966 125.581 13.313 124.827C12.9295 124.068 12.7377 123.175 12.7377 122.148C12.7377 121.138 12.9295 120.252 13.313 119.489C13.7008 118.722 14.242 118.126 14.9366 117.7C15.6312 117.269 16.4473 117.054 17.3848 117.054C17.9899 117.054 18.5609 117.152 19.0978 117.348C19.639 117.54 20.1163 117.838 20.5297 118.243C20.9473 118.648 21.2754 119.163 21.514 119.79C21.7527 120.412 21.872 121.153 21.872 122.014V122.724H13.8244V121.164H19.6539C19.6497 120.721 19.5538 120.327 19.3663 119.982C19.1788 119.632 18.9167 119.357 18.5801 119.157C18.2477 118.957 17.8599 118.857 17.4167 118.857C16.9437 118.857 16.5282 118.972 16.1703 119.202C15.8123 119.428 15.5332 119.726 15.3329 120.097C15.1369 120.463 15.0368 120.866 15.0325 121.305V122.666C15.0325 123.237 15.1369 123.727 15.3457 124.136C15.5545 124.541 15.8464 124.852 16.2214 125.07C16.5964 125.283 17.0353 125.389 17.5382 125.389C17.8748 125.389 18.1795 125.342 18.4522 125.249C18.725 125.151 18.9615 125.008 19.1618 124.82C19.362 124.633 19.5133 124.401 19.6156 124.124L21.7761 124.366C21.6397 124.937 21.3798 125.436 20.9963 125.862C20.617 126.284 20.1312 126.612 19.5389 126.847C18.9466 127.077 18.269 127.192 17.5062 127.192ZM31.5895 119.777L29.4801 120.007C29.4205 119.794 29.3161 119.594 29.1669 119.406C29.022 119.219 28.826 119.067 28.5788 118.952C28.3317 118.837 28.0291 118.78 27.6712 118.78C27.1896 118.78 26.7848 118.884 26.4567 119.093C26.1328 119.302 25.973 119.572 25.9773 119.905C25.973 120.19 26.0774 120.423 26.2905 120.602C26.5078 120.781 26.8658 120.928 27.3643 121.043L29.0391 121.401C29.968 121.601 30.6584 121.918 31.1101 122.353C31.5661 122.788 31.7962 123.357 31.8004 124.06C31.7962 124.678 31.6151 125.223 31.2571 125.696C30.9034 126.165 30.4112 126.531 29.7805 126.795C29.1499 127.06 28.4254 127.192 27.6072 127.192C26.4055 127.192 25.4382 126.94 24.7053 126.438C23.9723 125.93 23.5355 125.225 23.3949 124.322L25.6513 124.104C25.7536 124.548 25.9709 124.882 26.3033 125.108C26.6357 125.334 27.0682 125.447 27.6009 125.447C28.1506 125.447 28.5916 125.334 28.924 125.108C29.2607 124.882 29.429 124.603 29.429 124.271C29.429 123.989 29.3203 123.757 29.103 123.574C28.8899 123.391 28.5575 123.25 28.1058 123.152L26.4311 122.8C25.4893 122.604 24.7926 122.274 24.3409 121.81C23.8892 121.341 23.6655 120.749 23.6697 120.033C23.6655 119.428 23.8295 118.903 24.1619 118.46C24.4986 118.013 24.9652 117.668 25.5618 117.425C26.1626 117.178 26.8551 117.054 27.6392 117.054C28.7898 117.054 29.6953 117.299 30.3558 117.789C31.0206 118.279 31.4318 118.942 31.5895 119.777ZM38.6112 117.182V118.972H32.967V117.182H38.6112ZM34.3604 114.83H36.6744V124.047C36.6744 124.358 36.7212 124.597 36.815 124.763C36.913 124.925 37.0408 125.036 37.1985 125.095C37.3562 125.155 37.5309 125.185 37.7227 125.185C37.8675 125.185 37.9996 125.174 38.119 125.153C38.2425 125.131 38.3363 125.112 38.4002 125.095L38.7901 126.904C38.6665 126.947 38.4897 126.994 38.2596 127.045C38.0337 127.096 37.7567 127.126 37.4286 127.134C36.8491 127.151 36.3271 127.064 35.8626 126.872C35.3981 126.676 35.0295 126.374 34.7567 125.964C34.4883 125.555 34.3562 125.044 34.3604 124.43V114.83ZM43.3716 127.198C42.7495 127.198 42.1891 127.087 41.6905 126.866C41.1962 126.64 40.8042 126.308 40.5144 125.869C40.2289 125.43 40.0861 124.888 40.0861 124.245C40.0861 123.691 40.1884 123.233 40.3929 122.871C40.5975 122.509 40.8766 122.219 41.2303 122.001C41.584 121.784 41.9824 121.62 42.4256 121.509C42.873 121.394 43.3354 121.311 43.8127 121.26C44.388 121.2 44.8546 121.147 45.2125 121.1C45.5705 121.049 45.8304 120.972 45.9924 120.87C46.1586 120.763 46.2417 120.599 46.2417 120.378V120.339C46.2417 119.858 46.0989 119.485 45.8134 119.221C45.5279 118.957 45.1167 118.825 44.5797 118.825C44.013 118.825 43.5634 118.948 43.231 119.195C42.9029 119.442 42.6813 119.734 42.5662 120.071L40.4057 119.764C40.5762 119.168 40.8574 118.669 41.2495 118.268C41.6415 117.864 42.1209 117.561 42.6877 117.361C43.2544 117.156 43.8809 117.054 44.5669 117.054C45.04 117.054 45.5108 117.109 45.9796 117.22C46.4483 117.331 46.8766 117.514 47.2644 117.77C47.6522 118.021 47.9632 118.364 48.1976 118.799C48.4363 119.234 48.5556 119.777 48.5556 120.429V127H46.3311V125.651H46.2544C46.1138 125.924 45.9157 126.18 45.66 126.418C45.4086 126.653 45.0911 126.842 44.7076 126.987C44.3283 127.128 43.883 127.198 43.3716 127.198ZM43.9725 125.498C44.437 125.498 44.8397 125.406 45.1806 125.223C45.5215 125.036 45.7836 124.788 45.9668 124.482C46.1543 124.175 46.248 123.84 46.248 123.478V122.321C46.1756 122.381 46.052 122.436 45.8773 122.487C45.7069 122.538 45.5151 122.583 45.302 122.621C45.089 122.66 44.878 122.694 44.6692 122.724C44.4604 122.754 44.2793 122.779 44.1259 122.8C43.7807 122.847 43.4718 122.924 43.199 123.031C42.9263 123.137 42.7111 123.286 42.5534 123.478C42.3958 123.665 42.3169 123.908 42.3169 124.207C42.3169 124.633 42.4725 124.955 42.7836 125.172C43.0946 125.389 43.4909 125.498 43.9725 125.498ZM50.8823 127V117.182H53.0939V118.85H53.209C53.4135 118.288 53.7523 117.849 54.2253 117.533C54.6983 117.214 55.263 117.054 55.9192 117.054C56.584 117.054 57.1444 117.216 57.6003 117.54C58.0605 117.859 58.3844 118.296 58.5719 118.85H58.6742C58.8915 118.305 59.258 117.87 59.7736 117.546C60.2935 117.218 60.9093 117.054 61.6209 117.054C62.5243 117.054 63.2615 117.339 63.8326 117.911C64.4036 118.482 64.6891 119.315 64.6891 120.41V127H62.3688V120.768C62.3688 120.158 62.2069 119.713 61.883 119.432C61.5591 119.146 61.1628 119.004 60.6941 119.004C60.1358 119.004 59.699 119.178 59.3837 119.528C59.0726 119.873 58.9171 120.322 58.9171 120.876V127H56.6479V120.672C56.6479 120.165 56.4945 119.76 56.1877 119.457C55.8851 119.155 55.4888 119.004 54.9988 119.004C54.6664 119.004 54.3638 119.089 54.0911 119.259C53.8184 119.425 53.601 119.662 53.4391 119.969C53.2772 120.271 53.1962 120.625 53.1962 121.03V127H50.8823ZM69.8619 127.198C69.2397 127.198 68.6793 127.087 68.1808 126.866C67.6864 126.64 67.2944 126.308 67.0046 125.869C66.7191 125.43 66.5763 124.888 66.5763 124.245C66.5763 123.691 66.6786 123.233 66.8832 122.871C67.0877 122.509 67.3668 122.219 67.7205 122.001C68.0742 121.784 68.4727 121.62 68.9158 121.509C69.3633 121.394 69.8256 121.311 70.3029 121.26C70.8782 121.2 71.3448 121.147 71.7028 121.1C72.0607 121.049 72.3207 120.972 72.4826 120.87C72.6488 120.763 72.7319 120.599 72.7319 120.378V120.339C72.7319 119.858 72.5891 119.485 72.3036 119.221C72.0181 118.957 71.6069 118.825 71.07 118.825C70.5032 118.825 70.0536 118.948 69.7212 119.195C69.3931 119.442 69.1715 119.734 69.0565 120.071L66.896 119.764C67.0664 119.168 67.3477 118.669 67.7397 118.268C68.1317 117.864 68.6112 117.561 69.1779 117.361C69.7447 117.156 70.3711 117.054 71.0572 117.054C71.5302 117.054 72.0011 117.109 72.4698 117.22C72.9386 117.331 73.3668 117.514 73.7546 117.77C74.1424 118.021 74.4535 118.364 74.6879 118.799C74.9265 119.234 75.0458 119.777 75.0458 120.429V127H72.8214V125.651H72.7447C72.604 125.924 72.4059 126.18 72.1502 126.418C71.8988 126.653 71.5813 126.842 71.1978 126.987C70.8185 127.128 70.3732 127.198 69.8619 127.198ZM70.4627 125.498C70.9272 125.498 71.3299 125.406 71.6708 125.223C72.0117 125.036 72.2738 124.788 72.457 124.482C72.6445 124.175 72.7383 123.84 72.7383 123.478V122.321C72.6658 122.381 72.5423 122.436 72.3675 122.487C72.1971 122.538 72.0053 122.583 71.7923 122.621C71.5792 122.66 71.3683 122.694 71.1594 122.724C70.9506 122.754 70.7695 122.779 70.6161 122.8C70.271 122.847 69.962 122.924 69.6893 123.031C69.4165 123.137 69.2013 123.286 69.0437 123.478C68.886 123.665 68.8072 123.908 68.8072 124.207C68.8072 124.633 68.9627 124.955 69.2738 125.172C69.5849 125.389 69.9812 125.498 70.4627 125.498ZM81.6424 130.886C80.8114 130.886 80.0977 130.773 79.5011 130.548C78.9045 130.326 78.4251 130.028 78.0629 129.653C77.7006 129.278 77.4492 128.862 77.3086 128.406L79.3924 127.901C79.4862 128.093 79.6225 128.283 79.8015 128.47C79.9805 128.662 80.2212 128.82 80.5238 128.943C80.8306 129.071 81.2163 129.135 81.6808 129.135C82.337 129.135 82.8803 128.975 83.3107 128.656C83.7411 128.34 83.9563 127.82 83.9563 127.096V125.236H83.8413C83.7219 125.474 83.5472 125.719 83.3171 125.971C83.0913 126.222 82.7908 126.433 82.4158 126.604C82.0451 126.774 81.5785 126.859 81.016 126.859C80.2617 126.859 79.5778 126.683 78.9641 126.329C78.3548 125.971 77.869 125.438 77.5067 124.731C77.1488 124.019 76.9698 123.129 76.9698 122.059C76.9698 120.981 77.1488 120.071 77.5067 119.33C77.869 118.584 78.3569 118.019 78.9705 117.636C79.5842 117.248 80.2681 117.054 81.0224 117.054C81.5977 117.054 82.0707 117.152 82.4414 117.348C82.8164 117.54 83.1147 117.772 83.3363 118.045C83.5579 118.313 83.7262 118.567 83.8413 118.805H83.9691V117.182H86.2511V127.16C86.2511 127.999 86.0508 128.694 85.6502 129.244C85.2496 129.793 84.7021 130.205 84.0075 130.477C83.3129 130.75 82.5245 130.886 81.6424 130.886ZM81.6616 125.044C82.1516 125.044 82.5692 124.925 82.9144 124.686C83.2596 124.447 83.5217 124.104 83.7006 123.657C83.8796 123.21 83.9691 122.673 83.9691 122.046C83.9691 121.428 83.8796 120.887 83.7006 120.423C83.5259 119.958 83.266 119.598 82.9208 119.342C82.5799 119.082 82.1602 118.952 81.6616 118.952C81.146 118.952 80.7156 119.087 80.3704 119.355C80.0252 119.624 79.7653 119.992 79.5906 120.461C79.4158 120.925 79.3285 121.454 79.3285 122.046C79.3285 122.647 79.4158 123.173 79.5906 123.625C79.7695 124.072 80.0316 124.422 80.3768 124.673C80.7262 124.92 81.1545 125.044 81.6616 125.044ZM92.9691 127.192C91.9847 127.192 91.1346 126.987 90.4187 126.578C89.707 126.165 89.1594 125.581 88.7759 124.827C88.3924 124.068 88.2006 123.175 88.2006 122.148C88.2006 121.138 88.3924 120.252 88.7759 119.489C89.1637 118.722 89.7049 118.126 90.3995 117.7C91.0941 117.269 91.9102 117.054 92.8477 117.054C93.4528 117.054 94.0238 117.152 94.5607 117.348C95.1019 117.54 95.5792 117.838 95.9925 118.243C96.4102 118.648 96.7383 119.163 96.9769 119.79C97.2156 120.412 97.3349 121.153 97.3349 122.014V122.724H89.2873V121.164H95.1168C95.1126 120.721 95.0167 120.327 94.8292 119.982C94.6417 119.632 94.3796 119.357 94.043 119.157C93.7106 118.957 93.3228 118.857 92.8796 118.857C92.4066 118.857 91.9911 118.972 91.6332 119.202C91.2752 119.428 90.9961 119.726 90.7958 120.097C90.5998 120.463 90.4996 120.866 90.4954 121.305V122.666C90.4954 123.237 90.5998 123.727 90.8086 124.136C91.0174 124.541 91.3093 124.852 91.6843 125.07C92.0593 125.283 92.4982 125.389 93.0011 125.389C93.3377 125.389 93.6424 125.342 93.9151 125.249C94.1879 125.151 94.4244 125.008 94.6246 124.82C94.8249 124.633 94.9762 124.401 95.0785 124.124L97.239 124.366C97.1026 124.937 96.8427 125.436 96.4592 125.862C96.0799 126.284 95.5941 126.612 95.0018 126.847C94.4094 127.077 93.7319 127.192 92.9691 127.192ZM99.2924 127V117.182H101.536V118.818H101.638C101.817 118.251 102.124 117.815 102.559 117.508C102.998 117.197 103.498 117.041 104.061 117.041C104.189 117.041 104.331 117.048 104.489 117.06C104.651 117.069 104.785 117.084 104.892 117.105V119.234C104.794 119.2 104.638 119.17 104.425 119.144C104.216 119.114 104.014 119.099 103.818 119.099C103.396 119.099 103.017 119.191 102.68 119.374C102.348 119.553 102.086 119.803 101.894 120.122C101.702 120.442 101.606 120.81 101.606 121.228V127H99.2924ZM106.73 127.141C106.342 127.141 106.009 127.004 105.732 126.732C105.455 126.459 105.319 126.126 105.323 125.734C105.319 125.351 105.455 125.023 105.732 124.75C106.009 124.477 106.342 124.341 106.73 124.341C107.105 124.341 107.431 124.477 107.708 124.75C107.989 125.023 108.132 125.351 108.136 125.734C108.132 125.994 108.063 126.231 107.931 126.444C107.803 126.657 107.633 126.827 107.42 126.955C107.211 127.079 106.981 127.141 106.73 127.141ZM121.802 117.508C121.742 116.95 121.491 116.515 121.048 116.204C120.609 115.893 120.038 115.737 119.335 115.737C118.84 115.737 118.416 115.812 118.063 115.961C117.709 116.11 117.438 116.312 117.251 116.568C117.063 116.824 116.968 117.116 116.963 117.444C116.963 117.717 117.025 117.953 117.149 118.153C117.276 118.354 117.449 118.524 117.666 118.665C117.884 118.801 118.124 118.916 118.389 119.01C118.653 119.104 118.919 119.183 119.188 119.246L120.415 119.553C120.909 119.668 121.384 119.824 121.84 120.02C122.301 120.216 122.712 120.463 123.074 120.761C123.441 121.06 123.73 121.42 123.943 121.842C124.156 122.263 124.263 122.758 124.263 123.325C124.263 124.092 124.067 124.767 123.675 125.351C123.283 125.93 122.716 126.384 121.975 126.712C121.237 127.036 120.345 127.198 119.296 127.198C118.278 127.198 117.394 127.04 116.644 126.725C115.898 126.41 115.314 125.95 114.892 125.344C114.475 124.739 114.249 124.002 114.215 123.133H116.548C116.582 123.589 116.722 123.968 116.97 124.271C117.217 124.573 117.539 124.799 117.935 124.948C118.335 125.097 118.783 125.172 119.277 125.172C119.793 125.172 120.244 125.095 120.632 124.942C121.024 124.784 121.331 124.567 121.553 124.29C121.774 124.009 121.887 123.68 121.892 123.305C121.887 122.964 121.787 122.683 121.591 122.462C121.395 122.236 121.12 122.048 120.767 121.899C120.417 121.746 120.008 121.609 119.539 121.49L118.05 121.107C116.972 120.83 116.119 120.41 115.493 119.847C114.871 119.281 114.56 118.528 114.56 117.591C114.56 116.82 114.769 116.144 115.186 115.565C115.608 114.985 116.181 114.536 116.906 114.216C117.63 113.892 118.45 113.73 119.367 113.73C120.296 113.73 121.11 113.892 121.808 114.216C122.512 114.536 123.063 114.981 123.464 115.552C123.865 116.119 124.071 116.771 124.084 117.508H121.802ZM131.178 117.182V118.972H125.533V117.182H131.178ZM126.927 114.83H129.241V124.047C129.241 124.358 129.288 124.597 129.381 124.763C129.479 124.925 129.607 125.036 129.765 125.095C129.923 125.155 130.097 125.185 130.289 125.185C130.434 125.185 130.566 125.174 130.685 125.153C130.809 125.131 130.903 125.112 130.967 125.095L131.357 126.904C131.233 126.947 131.056 126.994 130.826 127.045C130.6 127.096 130.323 127.126 129.995 127.134C129.415 127.151 128.893 127.064 128.429 126.872C127.964 126.676 127.596 126.374 127.323 125.964C127.055 125.555 126.923 125.044 126.927 124.43V114.83ZM135.938 127.198C135.316 127.198 134.756 127.087 134.257 126.866C133.763 126.64 133.371 126.308 133.081 125.869C132.795 125.43 132.653 124.888 132.653 124.245C132.653 123.691 132.755 123.233 132.959 122.871C133.164 122.509 133.443 122.219 133.797 122.001C134.15 121.784 134.549 121.62 134.992 121.509C135.439 121.394 135.902 121.311 136.379 121.26C136.954 121.2 137.421 121.147 137.779 121.1C138.137 121.049 138.397 120.972 138.559 120.87C138.725 120.763 138.808 120.599 138.808 120.378V120.339C138.808 119.858 138.665 119.485 138.38 119.221C138.094 118.957 137.683 118.825 137.146 118.825C136.579 118.825 136.13 118.948 135.797 119.195C135.469 119.442 135.248 119.734 135.133 120.071L132.972 119.764C133.143 119.168 133.424 118.669 133.816 118.268C134.208 117.864 134.687 117.561 135.254 117.361C135.821 117.156 136.447 117.054 137.133 117.054C137.606 117.054 138.077 117.109 138.546 117.22C139.015 117.331 139.443 117.514 139.831 117.77C140.219 118.021 140.53 118.364 140.764 118.799C141.003 119.234 141.122 119.777 141.122 120.429V127H138.898V125.651H138.821C138.68 125.924 138.482 126.18 138.226 126.418C137.975 126.653 137.657 126.842 137.274 126.987C136.895 127.128 136.449 127.198 135.938 127.198ZM136.539 125.498C137.003 125.498 137.406 125.406 137.747 125.223C138.088 125.036 138.35 124.788 138.533 124.482C138.721 124.175 138.814 123.84 138.814 123.478V122.321C138.742 122.381 138.618 122.436 138.444 122.487C138.273 122.538 138.081 122.583 137.868 122.621C137.655 122.66 137.444 122.694 137.236 122.724C137.027 122.754 136.846 122.779 136.692 122.8C136.347 122.847 136.038 122.924 135.765 123.031C135.493 123.137 135.278 123.286 135.12 123.478C134.962 123.665 134.883 123.908 134.883 124.207C134.883 124.633 135.039 124.955 135.35 125.172C135.661 125.389 136.057 125.498 136.539 125.498ZM137.236 116.114C136.822 116.114 136.445 116.021 136.104 115.833C135.768 115.641 135.499 115.386 135.299 115.066C135.103 114.746 135.005 114.388 135.005 113.992C135.005 113.596 135.103 113.234 135.299 112.906C135.499 112.577 135.768 112.315 136.104 112.119C136.445 111.923 136.822 111.825 137.236 111.825C137.649 111.825 138.024 111.923 138.361 112.119C138.697 112.315 138.964 112.577 139.16 112.906C139.356 113.234 139.454 113.596 139.454 113.992C139.454 114.388 139.356 114.746 139.16 115.066C138.964 115.386 138.697 115.641 138.361 115.833C138.024 116.021 137.649 116.114 137.236 116.114ZM137.236 115.028C137.547 115.028 137.802 114.923 138.003 114.714C138.207 114.501 138.309 114.261 138.309 113.992C138.309 113.711 138.207 113.462 138.003 113.244C137.802 113.027 137.547 112.92 137.236 112.925C136.929 112.925 136.673 113.033 136.469 113.251C136.264 113.464 136.162 113.711 136.162 113.992C136.162 114.261 136.264 114.501 136.469 114.714C136.673 114.928 136.929 115.032 137.236 115.028ZM150.739 127.198C150.117 127.198 149.556 127.087 149.058 126.866C148.563 126.64 148.171 126.308 147.882 125.869C147.596 125.43 147.453 124.888 147.453 124.245C147.453 123.691 147.556 123.233 147.76 122.871C147.965 122.509 148.244 122.219 148.597 122.001C148.951 121.784 149.35 121.62 149.793 121.509C150.24 121.394 150.703 121.311 151.18 121.26C151.755 121.2 152.222 121.147 152.58 121.1C152.938 121.049 153.198 120.972 153.36 120.87C153.526 120.763 153.609 120.599 153.609 120.378V120.339C153.609 119.858 153.466 119.485 153.181 119.221C152.895 118.957 152.484 118.825 151.947 118.825C151.38 118.825 150.931 118.948 150.598 119.195C150.27 119.442 150.048 119.734 149.933 120.071L147.773 119.764C147.943 119.168 148.225 118.669 148.617 118.268C149.009 117.864 149.488 117.561 150.055 117.361C150.622 117.156 151.248 117.054 151.934 117.054C152.407 117.054 152.878 117.109 153.347 117.22C153.816 117.331 154.244 117.514 154.632 117.77C155.019 118.021 155.33 118.364 155.565 118.799C155.803 119.234 155.923 119.777 155.923 120.429V127H153.698V125.651H153.622C153.481 125.924 153.283 126.18 153.027 126.418C152.776 126.653 152.458 126.842 152.075 126.987C151.695 127.128 151.25 127.198 150.739 127.198ZM151.34 125.498C151.804 125.498 152.207 125.406 152.548 125.223C152.889 125.036 153.151 124.788 153.334 124.482C153.521 124.175 153.615 123.84 153.615 123.478V122.321C153.543 122.381 153.419 122.436 153.244 122.487C153.074 122.538 152.882 122.583 152.669 122.621C152.456 122.66 152.245 122.694 152.036 122.724C151.828 122.754 151.646 122.779 151.493 122.8C151.148 122.847 150.839 122.924 150.566 123.031C150.294 123.137 150.078 123.286 149.921 123.478C149.763 123.665 149.684 123.908 149.684 124.207C149.684 124.633 149.84 124.955 150.151 125.172C150.462 125.389 150.858 125.498 151.34 125.498ZM163.222 117.182V118.972H157.419V117.182H163.222ZM158.869 127V116.255C158.869 115.594 159.006 115.045 159.279 114.606C159.556 114.167 159.926 113.839 160.391 113.621C160.855 113.404 161.371 113.295 161.938 113.295C162.338 113.295 162.694 113.327 163.005 113.391C163.316 113.455 163.546 113.513 163.695 113.564L163.235 115.354C163.137 115.324 163.014 115.294 162.865 115.264C162.715 115.23 162.549 115.213 162.366 115.213C161.936 115.213 161.631 115.317 161.452 115.526C161.277 115.731 161.19 116.025 161.19 116.408V127H158.869ZM173.846 127.192C172.862 127.192 172.012 126.987 171.296 126.578C170.584 126.165 170.036 125.581 169.653 124.827C169.269 124.068 169.078 123.175 169.078 122.148C169.078 121.138 169.269 120.252 169.653 119.489C170.041 118.722 170.582 118.126 171.276 117.7C171.971 117.269 172.787 117.054 173.725 117.054C174.33 117.054 174.901 117.152 175.438 117.348C175.979 117.54 176.456 117.838 176.869 118.243C177.287 118.648 177.615 119.163 177.854 119.79C178.093 120.412 178.212 121.153 178.212 122.014V122.724H170.164V121.164H175.994C175.99 120.721 175.894 120.327 175.706 119.982C175.519 119.632 175.257 119.357 174.92 119.157C174.588 118.957 174.2 118.857 173.757 118.857C173.284 118.857 172.868 118.972 172.51 119.202C172.152 119.428 171.873 119.726 171.673 120.097C171.477 120.463 171.377 120.866 171.372 121.305V122.666C171.372 123.237 171.477 123.727 171.686 124.136C171.894 124.541 172.186 124.852 172.561 125.07C172.936 125.283 173.375 125.389 173.878 125.389C174.215 125.389 174.519 125.342 174.792 125.249C175.065 125.151 175.301 125.008 175.502 124.82C175.702 124.633 175.853 124.401 175.955 124.124L178.116 124.366C177.98 124.937 177.72 125.436 177.336 125.862C176.957 126.284 176.471 126.612 175.879 126.847C175.286 127.077 174.609 127.192 173.846 127.192ZM182.483 121.247V127H180.169V117.182H182.381V118.85H182.496C182.722 118.3 183.082 117.864 183.576 117.54C184.075 117.216 184.691 117.054 185.424 117.054C186.101 117.054 186.691 117.199 187.194 117.489C187.701 117.778 188.093 118.198 188.37 118.748C188.652 119.298 188.79 119.964 188.786 120.749V127H186.472V121.107C186.472 120.45 186.301 119.937 185.961 119.566C185.624 119.195 185.157 119.01 184.561 119.01C184.156 119.01 183.796 119.099 183.48 119.278C183.169 119.453 182.924 119.707 182.745 120.039C182.571 120.371 182.483 120.774 182.483 121.247ZM196.041 117.182V118.972H190.397V117.182H196.041ZM191.79 114.83H194.104V124.047C194.104 124.358 194.151 124.597 194.245 124.763C194.343 124.925 194.471 125.036 194.628 125.095C194.786 125.155 194.961 125.185 195.152 125.185C195.297 125.185 195.429 125.174 195.549 125.153C195.672 125.131 195.766 125.112 195.83 125.095L196.22 126.904C196.096 126.947 195.919 126.994 195.689 127.045C195.463 127.096 195.186 127.126 194.858 127.134C194.279 127.151 193.757 127.064 193.292 126.872C192.828 126.676 192.459 126.374 192.186 125.964C191.918 125.555 191.786 125.044 191.79 124.43V114.83ZM202.217 127.192C201.233 127.192 200.383 126.987 199.667 126.578C198.955 126.165 198.407 125.581 198.024 124.827C197.64 124.068 197.449 123.175 197.449 122.148C197.449 121.138 197.64 120.252 198.024 119.489C198.412 118.722 198.953 118.126 199.648 117.7C200.342 117.269 201.158 117.054 202.096 117.054C202.701 117.054 203.272 117.152 203.809 117.348C204.35 117.54 204.827 117.838 205.241 118.243C205.658 118.648 205.986 119.163 206.225 119.79C206.464 120.412 206.583 121.153 206.583 122.014V122.724H198.535V121.164H204.365C204.361 120.721 204.265 120.327 204.077 119.982C203.89 119.632 203.628 119.357 203.291 119.157C202.959 118.957 202.571 118.857 202.128 118.857C201.655 118.857 201.239 118.972 200.881 119.202C200.523 119.428 200.244 119.726 200.044 120.097C199.848 120.463 199.748 120.866 199.743 121.305V122.666C199.743 123.237 199.848 123.727 200.057 124.136C200.265 124.541 200.557 124.852 200.932 125.07C201.307 125.283 201.746 125.389 202.249 125.389C202.586 125.389 202.89 125.342 203.163 125.249C203.436 125.151 203.672 125.008 203.873 124.82C204.073 124.633 204.224 124.401 204.327 124.124L206.487 124.366C206.351 124.937 206.091 125.436 205.707 125.862C205.328 126.284 204.842 126.612 204.25 126.847C203.657 127.077 202.98 127.192 202.217 127.192ZM210.854 121.247V127H208.54V117.182H210.752V118.85H210.867C211.093 118.3 211.453 117.864 211.947 117.54C212.446 117.216 213.062 117.054 213.795 117.054C214.472 117.054 215.063 117.199 215.565 117.489C216.072 117.778 216.464 118.198 216.741 118.748C217.023 119.298 217.161 119.964 217.157 120.749V127H214.843V121.107C214.843 120.45 214.673 119.937 214.332 119.566C213.995 119.195 213.528 119.01 212.932 119.01C212.527 119.01 212.167 119.099 211.852 119.278C211.54 119.453 211.295 119.707 211.116 120.039C210.942 120.371 210.854 120.774 210.854 121.247ZM232.744 117.182L229.248 127H226.691L223.194 117.182H225.662L227.918 124.475H228.02L230.283 117.182H232.744ZM238.358 127.192C237.373 127.192 236.523 126.987 235.807 126.578C235.096 126.165 234.548 125.581 234.165 124.827C233.781 124.068 233.589 123.175 233.589 122.148C233.589 121.138 233.781 120.252 234.165 119.489C234.552 118.722 235.094 118.126 235.788 117.7C236.483 117.269 237.299 117.054 238.236 117.054C238.841 117.054 239.412 117.152 239.949 117.348C240.491 117.54 240.968 117.838 241.381 118.243C241.799 118.648 242.127 119.163 242.366 119.79C242.604 120.412 242.724 121.153 242.724 122.014V122.724H234.676V121.164H240.506C240.501 120.721 240.405 120.327 240.218 119.982C240.03 119.632 239.768 119.357 239.432 119.157C239.099 118.957 238.711 118.857 238.268 118.857C237.795 118.857 237.38 118.972 237.022 119.202C236.664 119.428 236.385 119.726 236.184 120.097C235.988 120.463 235.888 120.866 235.884 121.305V122.666C235.884 123.237 235.988 123.727 236.197 124.136C236.406 124.541 236.698 124.852 237.073 125.07C237.448 125.283 237.887 125.389 238.39 125.389C238.726 125.389 239.031 125.342 239.304 125.249C239.577 125.151 239.813 125.008 240.013 124.82C240.214 124.633 240.365 124.401 240.467 124.124L242.628 124.366C242.491 124.937 242.231 125.436 241.848 125.862C241.469 126.284 240.983 126.612 240.39 126.847C239.798 127.077 239.121 127.192 238.358 127.192ZM248.325 127.173C247.553 127.173 246.863 126.974 246.254 126.578C245.644 126.182 245.163 125.607 244.809 124.852C244.455 124.098 244.278 123.182 244.278 122.104C244.278 121.013 244.457 120.092 244.815 119.342C245.178 118.588 245.665 118.019 246.279 117.636C246.893 117.248 247.577 117.054 248.331 117.054C248.906 117.054 249.379 117.152 249.75 117.348C250.121 117.54 250.415 117.772 250.632 118.045C250.849 118.313 251.018 118.567 251.137 118.805H251.233V113.909H253.553V127H251.278V125.453H251.137C251.018 125.692 250.845 125.945 250.619 126.214C250.393 126.478 250.095 126.704 249.724 126.891C249.354 127.079 248.887 127.173 248.325 127.173ZM248.97 125.274C249.46 125.274 249.878 125.142 250.223 124.878C250.568 124.609 250.83 124.237 251.009 123.759C251.188 123.282 251.278 122.726 251.278 122.091C251.278 121.456 251.188 120.904 251.009 120.435C250.835 119.967 250.575 119.602 250.229 119.342C249.888 119.082 249.469 118.952 248.97 118.952C248.455 118.952 248.024 119.087 247.679 119.355C247.334 119.624 247.074 119.994 246.899 120.467C246.724 120.94 246.637 121.482 246.637 122.091C246.637 122.705 246.724 123.252 246.899 123.734C247.078 124.211 247.34 124.588 247.685 124.865C248.035 125.138 248.463 125.274 248.97 125.274ZM3.66264 140.909V154H1.29119V140.909H3.66264ZM13.8883 146.777L11.7789 147.007C11.7193 146.794 11.6149 146.594 11.4657 146.406C11.3208 146.219 11.1248 146.067 10.8777 145.952C10.6305 145.837 10.3279 145.78 9.96999 145.78C9.48846 145.78 9.08363 145.884 8.7555 146.093C8.43164 146.302 8.27184 146.572 8.2761 146.905C8.27184 147.19 8.37624 147.423 8.58931 147.602C8.80664 147.781 9.1646 147.928 9.66318 148.043L11.3379 148.401C12.2669 148.601 12.9572 148.918 13.4089 149.353C13.8649 149.788 14.095 150.357 14.0993 151.06C14.095 151.678 13.9139 152.223 13.5559 152.696C13.2022 153.165 12.71 153.531 12.0794 153.795C11.4487 154.06 10.7243 154.192 9.90607 154.192C8.70437 154.192 7.73704 153.94 7.00408 153.438C6.27113 152.93 5.83434 152.225 5.69371 151.322L7.95011 151.104C8.05238 151.548 8.26971 151.882 8.6021 152.108C8.93448 152.334 9.36701 152.447 9.89968 152.447C10.4494 152.447 10.8904 152.334 11.2228 152.108C11.5595 151.882 11.7278 151.603 11.7278 151.271C11.7278 150.989 11.6191 150.757 11.4018 150.574C11.1887 150.391 10.8564 150.25 10.4047 150.152L8.72994 149.8C7.78817 149.604 7.09144 149.274 6.63974 148.81C6.18803 148.341 5.96431 147.749 5.96857 147.033C5.96431 146.428 6.12837 145.903 6.46076 145.46C6.79741 145.013 7.26403 144.668 7.86062 144.425C8.46147 144.178 9.15394 144.054 9.93803 144.054C11.0886 144.054 11.9941 144.299 12.6547 144.789C13.3194 145.279 13.7306 145.942 13.8883 146.777ZM18.3212 140.909V154H16.0073V140.909H18.3212ZM23.5259 154.198C22.9038 154.198 22.3434 154.087 21.8448 153.866C21.3505 153.64 20.9585 153.308 20.6687 152.869C20.3832 152.43 20.2404 151.888 20.2404 151.245C20.2404 150.691 20.3427 150.233 20.5472 149.871C20.7518 149.509 21.0309 149.219 21.3846 149.001C21.7383 148.784 22.1367 148.62 22.5799 148.509C23.0273 148.394 23.4897 148.311 23.967 148.26C24.5423 148.2 25.0089 148.147 25.3668 148.1C25.7248 148.049 25.9847 147.972 26.1467 147.87C26.3129 147.763 26.396 147.599 26.396 147.378V147.339C26.396 146.858 26.2532 146.485 25.9677 146.221C25.6822 145.957 25.271 145.825 24.734 145.825C24.1673 145.825 23.7177 145.948 23.3853 146.195C23.0572 146.442 22.8356 146.734 22.7205 147.071L20.56 146.764C20.7305 146.168 21.0117 145.669 21.4038 145.268C21.7958 144.864 22.2752 144.561 22.842 144.361C23.4087 144.156 24.0352 144.054 24.7212 144.054C25.1942 144.054 25.6651 144.109 26.1339 144.22C26.6026 144.331 27.0309 144.514 27.4187 144.77C27.8065 145.021 28.1175 145.364 28.3519 145.799C28.5906 146.234 28.7099 146.777 28.7099 147.429V154H26.4854V152.651H26.4087C26.2681 152.924 26.07 153.18 25.8143 153.418C25.5629 153.653 25.2454 153.842 24.8619 153.987C24.4826 154.128 24.0373 154.198 23.5259 154.198ZM24.1268 152.498C24.5913 152.498 24.994 152.406 25.3349 152.223C25.6758 152.036 25.9379 151.788 26.1211 151.482C26.3086 151.175 26.4023 150.84 26.4023 150.478V149.321C26.3299 149.381 26.2063 149.436 26.0316 149.487C25.8612 149.538 25.6694 149.583 25.4563 149.621C25.2433 149.66 25.0323 149.694 24.8235 149.724C24.6147 149.754 24.4336 149.779 24.2802 149.8C23.935 149.847 23.6261 149.924 23.3533 150.031C23.0806 150.137 22.8654 150.286 22.7077 150.478C22.5501 150.665 22.4712 150.908 22.4712 151.207C22.4712 151.633 22.6268 151.955 22.9379 152.172C23.2489 152.389 23.6452 152.498 24.1268 152.498ZM33.3505 148.247V154H31.0366V144.182H33.2482V145.85H33.3633C33.5891 145.3 33.9492 144.864 34.4435 144.54C34.9421 144.216 35.5579 144.054 36.2908 144.054C36.9684 144.054 37.5586 144.199 38.0614 144.489C38.5685 144.778 38.9606 145.198 39.2376 145.748C39.5188 146.298 39.6573 146.964 39.6531 147.749V154H37.3391V148.107C37.3391 147.45 37.1687 146.937 36.8278 146.566C36.4911 146.195 36.0245 146.01 35.4279 146.01C35.0231 146.01 34.663 146.099 34.3477 146.278C34.0366 146.453 33.7915 146.707 33.6126 147.039C33.4379 147.371 33.3505 147.774 33.3505 148.247ZM45.6488 154.173C44.8775 154.173 44.1871 153.974 43.5778 153.578C42.9684 153.182 42.4869 152.607 42.1332 151.852C41.7795 151.098 41.6026 150.182 41.6026 149.104C41.6026 148.013 41.7816 147.092 42.1396 146.342C42.5018 145.588 42.9897 145.019 43.6033 144.636C44.217 144.248 44.9009 144.054 45.6552 144.054C46.2305 144.054 46.7035 144.152 47.0742 144.348C47.445 144.54 47.739 144.772 47.9563 145.045C48.1737 145.313 48.342 145.567 48.4613 145.805H48.5572V140.909H50.8775V154H48.6019V152.453H48.4613C48.342 152.692 48.1694 152.945 47.9435 153.214C47.7177 153.478 47.4194 153.704 47.0487 153.891C46.6779 154.079 46.2113 154.173 45.6488 154.173ZM46.2944 152.274C46.7844 152.274 47.2021 152.142 47.5472 151.878C47.8924 151.609 48.1545 151.237 48.3335 150.759C48.5124 150.282 48.6019 149.726 48.6019 149.091C48.6019 148.456 48.5124 147.904 48.3335 147.435C48.1587 146.967 47.8988 146.602 47.5536 146.342C47.2127 146.082 46.793 145.952 46.2944 145.952C45.7788 145.952 45.3484 146.087 45.0032 146.355C44.658 146.624 44.3981 146.994 44.2234 147.467C44.0487 147.94 43.9613 148.482 43.9613 149.091C43.9613 149.705 44.0487 150.252 44.2234 150.734C44.4023 151.211 44.6644 151.588 45.0096 151.865C45.359 152.138 45.7873 152.274 46.2944 152.274ZM61.1032 146.777L58.9938 147.007C58.9341 146.794 58.8297 146.594 58.6806 146.406C58.5357 146.219 58.3397 146.067 58.0925 145.952C57.8453 145.837 57.5428 145.78 57.1848 145.78C56.7033 145.78 56.2985 145.884 55.9703 146.093C55.6465 146.302 55.4867 146.572 55.4909 146.905C55.4867 147.19 55.5911 147.423 55.8042 147.602C56.0215 147.781 56.3794 147.928 56.878 148.043L58.5527 148.401C59.4817 148.601 60.1721 148.918 60.6238 149.353C61.0797 149.788 61.3098 150.357 61.3141 151.06C61.3098 151.678 61.1287 152.223 60.7708 152.696C60.4171 153.165 59.9249 153.531 59.2942 153.795C58.6635 154.06 57.9391 154.192 57.1209 154.192C55.9192 154.192 54.9519 153.94 54.2189 153.438C53.486 152.93 53.0492 152.225 52.9086 151.322L55.165 151.104C55.2672 151.548 55.4846 151.882 55.8169 152.108C56.1493 152.334 56.5819 152.447 57.1145 152.447C57.6642 152.447 58.1053 152.334 58.4377 152.108C58.7743 151.882 58.9426 151.603 58.9426 151.271C58.9426 150.989 58.834 150.757 58.6167 150.574C58.4036 150.391 58.0712 150.25 57.6195 150.152L55.9448 149.8C55.003 149.604 54.3063 149.274 53.8546 148.81C53.4029 148.341 53.1792 147.749 53.1834 147.033C53.1792 146.428 53.3432 145.903 53.6756 145.46C54.0123 145.013 54.4789 144.668 55.0755 144.425C55.6763 144.178 56.3688 144.054 57.1529 144.054C58.3034 144.054 59.209 144.299 59.8695 144.789C60.5343 145.279 60.9455 145.942 61.1032 146.777ZM63.3244 154V140.909H65.6383V145.805H65.7342C65.8535 145.567 66.0218 145.313 66.2392 145.045C66.4565 144.772 66.7505 144.54 67.1213 144.348C67.492 144.152 67.965 144.054 68.5403 144.054C69.2988 144.054 69.9828 144.248 70.5922 144.636C71.2058 145.019 71.6916 145.588 72.0495 146.342C72.4118 147.092 72.5929 148.013 72.5929 149.104C72.5929 150.182 72.416 151.098 72.0623 151.852C71.7086 152.607 71.2271 153.182 70.6177 153.578C70.0083 153.974 69.318 154.173 68.5467 154.173C67.9842 154.173 67.5176 154.079 67.1468 153.891C66.7761 153.704 66.4778 153.478 66.252 153.214C66.0304 152.945 65.8578 152.692 65.7342 152.453H65.6V154H63.3244ZM65.5936 149.091C65.5936 149.726 65.6831 150.282 65.862 150.759C66.0453 151.237 66.3074 151.609 66.6483 151.878C66.9934 152.142 67.411 152.274 67.9011 152.274C68.4125 152.274 68.8407 152.138 69.1859 151.865C69.5311 151.588 69.791 151.211 69.9657 150.734C70.1447 150.252 70.2342 149.705 70.2342 149.091C70.2342 148.482 70.1468 147.94 69.9721 147.467C69.7974 146.994 69.5375 146.624 69.1923 146.355C68.8471 146.087 68.4167 145.952 67.9011 145.952C67.4068 145.952 66.987 146.082 66.6419 146.342C66.2967 146.602 66.0346 146.967 65.8556 147.435C65.6809 147.904 65.5936 148.456 65.5936 149.091ZM74.56 154V144.182H76.8036V145.818H76.9059C77.0849 145.251 77.3917 144.815 77.8263 144.508C78.2653 144.197 78.766 144.041 79.3285 144.041C79.4563 144.041 79.5991 144.048 79.7567 144.06C79.9187 144.069 80.0529 144.084 80.1594 144.105V146.234C80.0614 146.2 79.9059 146.17 79.6928 146.144C79.484 146.114 79.2816 146.099 79.0856 146.099C78.6637 146.099 78.2844 146.191 77.9478 146.374C77.6154 146.553 77.3533 146.803 77.1616 147.122C76.9698 147.442 76.8739 147.81 76.8739 148.228V154H74.56ZM83.4338 157.682C83.1184 157.682 82.8265 157.656 82.5581 157.605C82.2939 157.558 82.0829 157.503 81.9252 157.439L82.4622 155.636C82.7988 155.734 83.0993 155.781 83.3635 155.777C83.6277 155.773 83.8599 155.69 84.0602 155.528C84.2647 155.37 84.4373 155.106 84.5779 154.735L84.7761 154.205L81.2157 144.182H83.6703L85.9331 151.597H86.0353L88.3045 144.182H90.7654L86.8343 155.189C86.6511 155.709 86.4082 156.154 86.1056 156.525C85.8031 156.9 85.4324 157.185 84.9934 157.381C84.5588 157.582 84.0389 157.682 83.4338 157.682ZM96.3026 157.886C95.4716 157.886 94.7578 157.773 94.1612 157.548C93.5646 157.326 93.0852 157.028 92.723 156.653C92.3608 156.278 92.1094 155.862 91.9688 155.406L94.0526 154.901C94.1463 155.093 94.2827 155.283 94.4616 155.47C94.6406 155.662 94.8814 155.82 95.1839 155.943C95.4908 156.071 95.8764 156.135 96.3409 156.135C96.9972 156.135 97.5405 155.975 97.9709 155.656C98.4013 155.34 98.6165 154.82 98.6165 154.096V152.236H98.5014C98.3821 152.474 98.2074 152.719 97.9773 152.971C97.7514 153.222 97.451 153.433 97.076 153.604C96.7053 153.774 96.2386 153.859 95.6761 153.859C94.9219 153.859 94.2379 153.683 93.6243 153.329C93.0149 152.971 92.5291 152.438 92.1669 151.731C91.8089 151.019 91.63 150.129 91.63 149.059C91.63 147.981 91.8089 147.071 92.1669 146.33C92.5291 145.584 93.017 145.019 93.6307 144.636C94.2443 144.248 94.9283 144.054 95.6825 144.054C96.2578 144.054 96.7308 144.152 97.1016 144.348C97.4766 144.54 97.7749 144.772 97.9964 145.045C98.218 145.313 98.3864 145.567 98.5014 145.805H98.6293V144.182H100.911V154.16C100.911 154.999 100.711 155.694 100.31 156.244C99.9098 156.793 99.3622 157.205 98.6676 157.477C97.973 157.75 97.1847 157.886 96.3026 157.886ZM96.3217 152.044C96.8118 152.044 97.2294 151.925 97.5746 151.686C97.9197 151.447 98.1818 151.104 98.3608 150.657C98.5398 150.21 98.6293 149.673 98.6293 149.046C98.6293 148.428 98.5398 147.887 98.3608 147.423C98.1861 146.958 97.9261 146.598 97.581 146.342C97.2401 146.082 96.8203 145.952 96.3217 145.952C95.8061 145.952 95.3757 146.087 95.0305 146.355C94.6854 146.624 94.4254 146.992 94.2507 147.461C94.076 147.925 93.9886 148.454 93.9886 149.046C93.9886 149.647 94.076 150.173 94.2507 150.625C94.4297 151.072 94.6918 151.422 95.0369 151.673C95.3864 151.92 95.8146 152.044 96.3217 152.044ZM107.553 157.886C106.722 157.886 106.008 157.773 105.411 157.548C104.815 157.326 104.335 157.028 103.973 156.653C103.611 156.278 103.359 155.862 103.219 155.406L105.303 154.901C105.396 155.093 105.533 155.283 105.712 155.47C105.891 155.662 106.131 155.82 106.434 155.943C106.741 156.071 107.126 156.135 107.591 156.135C108.247 156.135 108.79 155.975 109.221 155.656C109.651 155.34 109.866 154.82 109.866 154.096V152.236H109.751C109.632 152.474 109.457 152.719 109.227 152.971C109.001 153.222 108.701 153.433 108.326 153.604C107.955 153.774 107.489 153.859 106.926 153.859C106.172 153.859 105.488 153.683 104.874 153.329C104.265 152.971 103.779 152.438 103.417 151.731C103.059 151.019 102.88 150.129 102.88 149.059C102.88 147.981 103.059 147.071 103.417 146.33C103.779 145.584 104.267 145.019 104.881 144.636C105.494 144.248 106.178 144.054 106.933 144.054C107.508 144.054 107.981 144.152 108.352 144.348C108.727 144.54 109.025 144.772 109.246 145.045C109.468 145.313 109.636 145.567 109.751 145.805H109.879V144.182H112.161V154.16C112.161 154.999 111.961 155.694 111.56 156.244C111.16 156.793 110.612 157.205 109.918 157.477C109.223 157.75 108.435 157.886 107.553 157.886ZM107.572 152.044C108.062 152.044 108.479 151.925 108.825 151.686C109.17 151.447 109.432 151.104 109.611 150.657C109.79 150.21 109.879 149.673 109.879 149.046C109.879 148.428 109.79 147.887 109.611 147.423C109.436 146.958 109.176 146.598 108.831 146.342C108.49 146.082 108.07 145.952 107.572 145.952C107.056 145.952 106.626 146.087 106.281 146.355C105.935 146.624 105.675 146.992 105.501 147.461C105.326 147.925 105.239 148.454 105.239 149.046C105.239 149.647 105.326 150.173 105.501 150.625C105.68 151.072 105.942 151.422 106.287 151.673C106.636 151.92 107.065 152.044 107.572 152.044ZM118.879 154.192C117.895 154.192 117.045 153.987 116.329 153.578C115.617 153.165 115.07 152.581 114.686 151.827C114.303 151.068 114.111 150.175 114.111 149.148C114.111 148.138 114.303 147.252 114.686 146.489C115.074 145.722 115.615 145.126 116.31 144.7C117.004 144.269 117.82 144.054 118.758 144.054C119.363 144.054 119.934 144.152 120.471 144.348C121.012 144.54 121.489 144.838 121.903 145.243C122.32 145.648 122.648 146.163 122.887 146.79C123.126 147.412 123.245 148.153 123.245 149.014V149.724H115.197V148.164H121.027C121.023 147.721 120.927 147.327 120.739 146.982C120.552 146.632 120.29 146.357 119.953 146.157C119.621 145.957 119.233 145.857 118.79 145.857C118.317 145.857 117.901 145.972 117.543 146.202C117.185 146.428 116.906 146.726 116.706 147.097C116.51 147.463 116.41 147.866 116.406 148.305V149.666C116.406 150.237 116.51 150.727 116.719 151.136C116.928 151.541 117.219 151.852 117.594 152.07C117.969 152.283 118.408 152.389 118.911 152.389C119.248 152.389 119.553 152.342 119.825 152.249C120.098 152.151 120.335 152.008 120.535 151.82C120.735 151.633 120.886 151.401 120.989 151.124L123.149 151.366C123.013 151.937 122.753 152.436 122.369 152.862C121.99 153.284 121.504 153.612 120.912 153.847C120.32 154.077 119.642 154.192 118.879 154.192ZM137.427 146.777L135.318 147.007C135.258 146.794 135.154 146.594 135.005 146.406C134.86 146.219 134.664 146.067 134.417 145.952C134.17 145.837 133.867 145.78 133.509 145.78C133.028 145.78 132.623 145.884 132.295 146.093C131.971 146.302 131.811 146.572 131.815 146.905C131.811 147.19 131.915 147.423 132.128 147.602C132.346 147.781 132.704 147.928 133.202 148.043L134.877 148.401C135.806 148.601 136.496 148.918 136.948 149.353C137.404 149.788 137.634 150.357 137.638 151.06C137.634 151.678 137.453 152.223 137.095 152.696C136.741 153.165 136.249 153.531 135.618 153.795C134.988 154.06 134.263 154.192 133.445 154.192C132.243 154.192 131.276 153.94 130.543 153.438C129.81 152.93 129.373 152.225 129.233 151.322L131.489 151.104C131.591 151.548 131.809 151.882 132.141 152.108C132.474 152.334 132.906 152.447 133.439 152.447C133.988 152.447 134.43 152.334 134.762 152.108C135.099 151.882 135.267 151.603 135.267 151.271C135.267 150.989 135.158 150.757 134.941 150.574C134.728 150.391 134.395 150.25 133.944 150.152L132.269 149.8C131.327 149.604 130.631 149.274 130.179 148.81C129.727 148.341 129.503 147.749 129.508 147.033C129.503 146.428 129.667 145.903 130 145.46C130.336 145.013 130.803 144.668 131.4 144.425C132.001 144.178 132.693 144.054 133.477 144.054C134.628 144.054 135.533 144.299 136.194 144.789C136.858 145.279 137.27 145.942 137.427 146.777ZM144.449 144.182V145.972H138.805V144.182H144.449ZM140.198 141.83H142.512V151.047C142.512 151.358 142.559 151.597 142.653 151.763C142.751 151.925 142.879 152.036 143.036 152.095C143.194 152.155 143.369 152.185 143.561 152.185C143.705 152.185 143.838 152.174 143.957 152.153C144.08 152.131 144.174 152.112 144.238 152.095L144.628 153.904C144.504 153.947 144.328 153.994 144.097 154.045C143.872 154.096 143.595 154.126 143.267 154.134C142.687 154.151 142.165 154.064 141.7 153.872C141.236 153.676 140.867 153.374 140.595 152.964C140.326 152.555 140.194 152.044 140.198 151.43V141.83ZM147.81 154.141C147.422 154.141 147.089 154.004 146.812 153.732C146.536 153.459 146.399 153.126 146.403 152.734C146.399 152.351 146.536 152.023 146.812 151.75C147.089 151.477 147.422 151.341 147.81 151.341C148.185 151.341 148.511 151.477 148.788 151.75C149.069 152.023 149.212 152.351 149.216 152.734C149.212 152.994 149.143 153.231 149.011 153.444C148.884 153.657 148.713 153.827 148.5 153.955C148.291 154.079 148.061 154.141 147.81 154.141ZM160.012 154.192C159.028 154.192 158.178 153.987 157.462 153.578C156.75 153.165 156.202 152.581 155.819 151.827C155.435 151.068 155.244 150.175 155.244 149.148C155.244 148.138 155.435 147.252 155.819 146.489C156.207 145.722 156.748 145.126 157.442 144.7C158.137 144.269 158.953 144.054 159.891 144.054C160.496 144.054 161.067 144.152 161.604 144.348C162.145 144.54 162.622 144.838 163.036 145.243C163.453 145.648 163.781 146.163 164.02 146.79C164.259 147.412 164.378 148.153 164.378 149.014V149.724H156.33V148.164H162.16C162.156 147.721 162.06 147.327 161.872 146.982C161.685 146.632 161.423 146.357 161.086 146.157C160.754 145.957 160.366 145.857 159.923 145.857C159.45 145.857 159.034 145.972 158.676 146.202C158.318 146.428 158.039 146.726 157.839 147.097C157.643 147.463 157.543 147.866 157.538 148.305V149.666C157.538 150.237 157.643 150.727 157.852 151.136C158.06 151.541 158.352 151.852 158.727 152.07C159.102 152.283 159.541 152.389 160.044 152.389C160.381 152.389 160.685 152.342 160.958 152.249C161.231 152.151 161.467 152.008 161.668 151.82C161.868 151.633 162.019 151.401 162.121 151.124L164.282 151.366C164.146 151.937 163.886 152.436 163.502 152.862C163.123 153.284 162.637 153.612 162.045 153.847C161.452 154.077 160.775 154.192 160.012 154.192ZM168.649 140.909V154H166.335V140.909H168.649ZM173.343 140.909V154H171.029V140.909H173.343ZM180.069 154.192C179.084 154.192 178.234 153.987 177.518 153.578C176.807 153.165 176.259 152.581 175.876 151.827C175.492 151.068 175.3 150.175 175.3 149.148C175.3 148.138 175.492 147.252 175.876 146.489C176.263 145.722 176.805 145.126 177.499 144.7C178.194 144.269 179.01 144.054 179.947 144.054C180.552 144.054 181.123 144.152 181.66 144.348C182.202 144.54 182.679 144.838 183.092 145.243C183.51 145.648 183.838 146.163 184.077 146.79C184.315 147.412 184.434 148.153 184.434 149.014V149.724H176.387V148.164H182.216C182.212 147.721 182.116 147.327 181.929 146.982C181.741 146.632 181.479 146.357 181.143 146.157C180.81 145.957 180.422 145.857 179.979 145.857C179.506 145.857 179.091 145.972 178.733 146.202C178.375 146.428 178.096 146.726 177.895 147.097C177.699 147.463 177.599 147.866 177.595 148.305V149.666C177.595 150.237 177.699 150.727 177.908 151.136C178.117 151.541 178.409 151.852 178.784 152.07C179.159 152.283 179.598 152.389 180.101 152.389C180.437 152.389 180.742 152.342 181.015 152.249C181.287 152.151 181.524 152.008 181.724 151.82C181.925 151.633 182.076 151.401 182.178 151.124L184.339 151.366C184.202 151.937 183.942 152.436 183.559 152.862C183.18 153.284 182.694 153.612 182.101 153.847C181.509 154.077 180.831 154.192 180.069 154.192ZM186.392 154V144.182H188.636V145.818H188.738C188.917 145.251 189.224 144.815 189.658 144.508C190.097 144.197 190.598 144.041 191.161 144.041C191.288 144.041 191.431 144.048 191.589 144.06C191.751 144.069 191.885 144.084 191.991 144.105V146.234C191.893 146.2 191.738 146.17 191.525 146.144C191.316 146.114 191.114 146.099 190.918 146.099C190.496 146.099 190.116 146.191 189.78 146.374C189.447 146.553 189.185 146.803 188.994 147.122C188.802 147.442 188.706 147.81 188.706 148.228V154H186.392ZM202.532 154H198.096V140.909H202.621C203.921 140.909 205.038 141.171 205.971 141.695C206.908 142.215 207.629 142.963 208.131 143.939C208.634 144.915 208.886 146.082 208.886 147.442C208.886 148.805 208.632 149.977 208.125 150.957C207.622 151.937 206.896 152.69 205.945 153.214C204.999 153.738 203.862 154 202.532 154ZM200.467 151.948H202.417C203.329 151.948 204.089 151.782 204.699 151.45C205.308 151.113 205.766 150.612 206.073 149.947C206.38 149.278 206.533 148.443 206.533 147.442C206.533 146.44 206.38 145.609 206.073 144.949C205.766 144.284 205.313 143.788 204.712 143.46C204.115 143.127 203.374 142.961 202.487 142.961H200.467V151.948ZM211.139 154V140.909H216.048C217.054 140.909 217.897 141.084 218.579 141.433C219.265 141.783 219.783 142.273 220.132 142.903C220.486 143.53 220.663 144.261 220.663 145.096C220.663 145.935 220.484 146.664 220.126 147.282C219.772 147.896 219.25 148.371 218.56 148.707C217.87 149.04 217.022 149.206 216.016 149.206H212.52V147.237H215.696C216.284 147.237 216.766 147.156 217.141 146.994C217.516 146.828 217.793 146.587 217.972 146.272C218.155 145.952 218.247 145.56 218.247 145.096C218.247 144.631 218.155 144.235 217.972 143.907C217.789 143.575 217.51 143.323 217.135 143.153C216.76 142.978 216.276 142.891 215.684 142.891H213.51V154H211.139ZM217.902 148.068L221.142 154H218.496L215.313 148.068H217.902ZM228.695 147.595V149.5H222.801V147.595H228.695ZM231.231 154V140.909H233.545V145.805H233.64C233.76 145.567 233.928 145.313 234.145 145.045C234.363 144.772 234.657 144.54 235.028 144.348C235.398 144.152 235.871 144.054 236.447 144.054C237.205 144.054 237.889 144.248 238.498 144.636C239.112 145.019 239.598 145.588 239.956 146.342C240.318 147.092 240.499 148.013 240.499 149.104C240.499 150.182 240.322 151.098 239.969 151.852C239.615 152.607 239.133 153.182 238.524 153.578C237.915 153.974 237.224 154.173 236.453 154.173C235.89 154.173 235.424 154.079 235.053 153.891C234.682 153.704 234.384 153.478 234.158 153.214C233.937 152.945 233.764 152.692 233.64 152.453H233.506V154H231.231ZM233.5 149.091C233.5 149.726 233.589 150.282 233.768 150.759C233.952 151.237 234.214 151.609 234.555 151.878C234.9 152.142 235.317 152.274 235.807 152.274C236.319 152.274 236.747 152.138 237.092 151.865C237.437 151.588 237.697 151.211 237.872 150.734C238.051 150.252 238.14 149.705 238.14 149.091C238.14 148.482 238.053 147.94 237.878 147.467C237.704 146.994 237.444 146.624 237.099 146.355C236.753 146.087 236.323 145.952 235.807 145.952C235.313 145.952 234.893 146.082 234.548 146.342C234.203 146.602 233.941 146.967 233.762 147.435C233.587 147.904 233.5 148.456 233.5 149.091ZM243.57 157.682C243.255 157.682 242.963 157.656 242.695 157.605C242.431 157.558 242.22 157.503 242.062 157.439L242.599 155.636C242.936 155.734 243.236 155.781 243.5 155.777C243.764 155.773 243.997 155.69 244.197 155.528C244.401 155.37 244.574 155.106 244.715 154.735L244.913 154.205L241.352 144.182H243.807L246.07 151.597H246.172L248.441 144.182H250.902L246.971 155.189C246.788 155.709 246.545 156.154 246.242 156.525C245.94 156.9 245.569 157.185 245.13 157.381C244.695 157.582 244.176 157.682 243.57 157.682ZM256.516 154.192C255.532 154.192 254.681 153.987 253.966 153.578C253.254 153.165 252.706 152.581 252.323 151.827C251.939 151.068 251.748 150.175 251.748 149.148C251.748 148.138 251.939 147.252 252.323 146.489C252.711 145.722 253.252 145.126 253.946 144.7C254.641 144.269 255.457 144.054 256.395 144.054C257 144.054 257.571 144.152 258.108 144.348C258.649 144.54 259.126 144.838 259.539 145.243C259.957 145.648 260.285 146.163 260.524 146.79C260.762 147.412 260.882 148.153 260.882 149.014V149.724H252.834V148.164H258.664C258.659 147.721 258.564 147.327 258.376 146.982C258.189 146.632 257.926 146.357 257.59 146.157C257.257 145.957 256.87 145.857 256.426 145.857C255.953 145.857 255.538 145.972 255.18 146.202C254.822 146.428 254.543 146.726 254.343 147.097C254.147 147.463 254.047 147.866 254.042 148.305V149.666C254.042 150.237 254.147 150.727 254.355 151.136C254.564 151.541 254.856 151.852 255.231 152.07C255.606 152.283 256.045 152.389 256.548 152.389C256.885 152.389 257.189 152.342 257.462 152.249C257.735 152.151 257.971 152.008 258.172 151.82C258.372 151.633 258.523 151.401 258.625 151.124L260.786 151.366C260.65 151.937 260.39 152.436 260.006 152.862C259.627 153.284 259.141 153.612 258.549 153.847C257.956 154.077 257.279 154.192 256.516 154.192ZM265.153 148.247V154H262.839V144.182H265.051V145.85H265.166C265.392 145.3 265.752 144.864 266.246 144.54C266.745 144.216 267.361 144.054 268.094 144.054C268.771 144.054 269.361 144.199 269.864 144.489C270.371 144.778 270.763 145.198 271.04 145.748C271.322 146.298 271.46 146.964 271.456 147.749V154H269.142V148.107C269.142 147.45 268.971 146.937 268.631 146.566C268.294 146.195 267.827 146.01 267.231 146.01C266.826 146.01 266.466 146.099 266.15 146.278C265.839 146.453 265.594 146.707 265.415 147.039C265.241 147.371 265.153 147.774 265.153 148.247Z" fill="#F291BA"/>
</svg>
