<svg xmlns="http://www.w3.org/2000/svg" xmlns:xlink="http://www.w3.org/1999/xlink" width="600" height="640" viewBox="0 0 600 640"><defs><style>.cls-1{fill:url(#radial-gradient);}.cls-2{fill:url(#radial-gradient-2);}.cls-3{fill:url(#radial-gradient-3);}.cls-4{fill:url(#radial-gradient-4);}.cls-5{fill:url(#radial-gradient-5);}.cls-6{fill:url(#radial-gradient-6);}.cls-7{fill:url(#radial-gradient-7);}.cls-8{fill:#a38078;}.cls-9{opacity:0.29;filter:url(#AI_GaussianBlur_7);}.cls-10{fill:#e6f6f2;}.cls-11{fill:#b0ddd1;}</style><radialGradient id="radial-gradient" cx="250.02" cy="183.52" r="183.81" gradientUnits="userSpaceOnUse"><stop offset="0" stop-color="#fffdf9"/><stop offset="0.16" stop-color="#fefaf4"/><stop offset="0.35" stop-color="#fcf1e5"/><stop offset="0.56" stop-color="#f9e1cc"/><stop offset="0.78" stop-color="#f4ccaa"/><stop offset="0.8" stop-color="#f4caa6"/><stop offset="1" stop-color="#fbf7f1"/></radialGradient><radialGradient id="radial-gradient-2" cx="424.17" cy="-1572.47" r="143.96" gradientTransform="matrix(0.98, 0.52, -0.5, 0.94, -951.53, 1423.78)" gradientUnits="userSpaceOnUse"><stop offset="0" stop-color="#fffdf9"/><stop offset="0.15" stop-color="#fefaf4"/><stop offset="0.33" stop-color="#fcf1e5"/><stop offset="0.53" stop-color="#f9e1cc"/><stop offset="0.73" stop-color="#f4ccaa"/><stop offset="0.75" stop-color="#f4caa6"/><stop offset="0.81" stop-color="#f4cdab"/><stop offset="0.87" stop-color="#f6d6bb"/><stop offset="0.94" stop-color="#f8e6d4"/><stop offset="1" stop-color="#fbf7f1"/></radialGradient><radialGradient id="radial-gradient-3" cx="-4978.08" cy="-5704.63" r="87.87" gradientTransform="matrix(0.1, -1.03, -1.01, -0.1, -4980.15, -5388.3)" gradientUnits="userSpaceOnUse"><stop offset="0" stop-color="#f7eed2"/><stop offset="0.09" stop-color="#f6e6c5"/><stop offset="0.34" stop-color="#f4d2a4"/><stop offset="0.58" stop-color="#f3c48c"/><stop offset="0.81" stop-color="#f2bb7e"/><stop offset="1" stop-color="#f2b879"/></radialGradient><radialGradient id="radial-gradient-4" cx="-4852.69" cy="-5569.92" r="87.87" xlink:href="#radial-gradient-3"/><radialGradient id="radial-gradient-5" cx="279.85" cy="-2043.64" r="132.01" gradientTransform="matrix(0.95, 0.67, -0.69, 0.96, -1396.65, 1941.18)" gradientUnits="userSpaceOnUse"><stop offset="0" stop-color="#fae7d5"/><stop offset="0.63" stop-color="#f4caa6"/><stop offset="0.71" stop-color="#f5d1b2"/><stop offset="0.87" stop-color="#f8e4d1"/><stop offset="1" stop-color="#fbf7f1"/></radialGradient><radialGradient id="radial-gradient-6" cx="-6944.58" cy="67.33" r="87.87" gradientTransform="matrix(-1.03, 0, 0, 1.02, -6820.56, 35.27)" xlink:href="#radial-gradient-3"/><radialGradient id="radial-gradient-7" cx="246.94" cy="172" r="134.03" gradientUnits="userSpaceOnUse"><stop offset="0" stop-color="#f4caa6"/><stop offset="0.04" stop-color="#efc5a3"/><stop offset="0.3" stop-color="#cea790"/><stop offset="0.56" stop-color="#b69283"/><stop offset="0.8" stop-color="#a8857b"/><stop offset="1" stop-color="#a38078"/></radialGradient><filter id="AI_GaussianBlur_7" name="AI_GaussianBlur_7"><feGaussianBlur stdDeviation="7"/></filter></defs><g id="Layer_2" data-name="Layer 2"><path class="cls-1" d="M436.55,177.76c.31,39.21-16,70.13-26.86,87,.92,6-.42,10-1.73,12.39-1.4,2.59-2.49,2.85-8.7,8.71-7,6.62-7.37,7.91-9.94,8.7-1.88.57-6.46,1.33-13.68-3.73l-22.21,32.54a29.33,29.33,0,0,0-5.13,4.75c-3,3.53-3.49,5.78-5,7.45-2,2.29-6.49,4.12-17.39,1.64l-10.79,5.43A94.93,94.93,0,0,1,304.79,353c-7,6-11.65,10-17.4,11.18-12.28,2.57-23.79-8.82-26.1-11.18a56.33,56.33,0,0,1-11.19,0,57.72,57.72,0,0,1-24.86-8.7l-60.9-22.38c-8.32-5.57-15.15-9.68-19.89-12.43-6.9-4-11.84-6.54-14.92-12.43a22.26,22.26,0,0,1-2.39-8.43L115.49,274.5a77.44,77.44,0,0,1-12.06-9.74c-5.1-5-15-14.84-17.4-28.58-1-5.53,0-7.39,1.24-18.65A246.18,246.18,0,0,0,88.51,184q-1.23-3.1-2.48-6.21a15.08,15.08,0,0,1-11.19,2.48,14.61,14.61,0,0,1-11.19-11.19c-1.09-5.86,3.47-7.49,6.22-16.15,4.47-14.07-3.23-23.31,2.49-28.59,4.17-3.87,10.69-1.14,12.43-5,1.31-2.9-2.18-5-2.49-10-.37-6,4.32-8.81,9.94-17.4,3.36-5.13,1.69-4.13,8.7-18.64,9-18.66,11.8-20.37,13.68-21.14s8.41-2.89,19.79,4.64C148,43.59,195.06,1.28,261.29,2.5,354.4,4.2,435.86,91,436.55,177.76Z"/><path class="cls-2" d="M390.14,242.45c-28.65,54.25-93,85.4-160.28,76.86A51.55,51.55,0,0,1,204.34,317c-10.76-4-17.1-10.81-21.87-15.8-27.09-28.38-29.38-23.72-40.8-38.49-7.82-10.12-22.54-32.74-26-71-4.73,6.59-10.34,10.22-14.2,8.87-3.39-1.18-4.39-5.87-5.81-12.92-1.15-5.74-2.59-16.51.2-32.25a115.88,115.88,0,0,1,3.69-14.92c-3.54-8.25-2.66-13.2-1.29-16.16,2.69-5.8,7.62-4.7,12-12,3.2-5.36,3.81-11.47,4.26-16a61.57,61.57,0,0,0,.2-8.34c-.09-5.61.66-13.73,4.46-24.36a21.78,21.78,0,0,0,9-6.46c3-3.76,2.91-6.53,4.65-8.79,2.35-3,8.3-5.46,24.78-1.48,3.4-2.11,86.23-51.7,164.53-9.37C391.43,75.11,428.75,169.3,390.14,242.45Z"/><path class="cls-3" d="M234.83,348.74c15.69-.63,21.32-45.65,36-45.57,4.84,0,5.25,5,12.73,6.28,11.58,1.92,22.21-7.48,25.14-10.29,14.31-13.74,9.18-28.14,18-32.07,14.4-6.38,41.62,25.67,44.49,22.79,1.77-1.76-9.7-12.53-6.43-20,2.48-5.67,10.9-3.76,22.5-8.84,3.84-1.69,20.77-9.54,26.64-26.19,6.95-19.72-5.8-39.84-7.09-39.51-1,.25,4.59,12.06.77,27.09-.76,3-5.92,21.07-20,26.81-13.48,5.5-29-4.63-30.71-1.22-1.39,2.82,9.46,9.21,7.9,13.42-1.24,3.31-9.58,3.66-16.09,2.7-19.76-2.93-27.76-18.69-33.49-15.84-5.93,2.95,3,19.66-5.88,35.75-4.63,8.33-13.91,16.25-24.12,17.13-9.15.8-12.71-4.62-26.69-8.43-11.63-3.18-19.63,3.09-25.6-2.43-3-2.76-3.71-6.25-6.87-6.56s-7.21,2.81-7.24,6.07c0,3.69,5.05,6,6.05,6.48,6.06,2.79,9.42-.67,18.24.89.55.09,10.07,1.84,10.34,5.2.16,2-3,2.82-8.15,6.83-3.1,2.43-12.56,9.83-11.57,16.63.39,2.7,2.13,3.23,1.92,6.09a9.23,9.23,0,0,1-4.84,7.14c-4,2.11-8-.07-8.41.9C221.72,341.33,228.23,349,234.83,348.74Z"/><path class="cls-4" d="M110.54,207c15.69-.63,21.31-45.65,36-45.57,4.84,0,5.26,5,12.74,6.28,11.57,1.93,22.21-7.48,25.13-10.29,14.31-13.74,9.18-28.14,18-32.07,14.4-6.38,41.62,25.67,44.5,22.79,1.76-1.75-9.71-12.53-6.44-20,2.48-5.67,10.9-3.76,22.5-8.84,3.84-1.69,20.77-9.54,26.64-26.19,6.95-19.72-5.8-39.84-7.09-39.51-1,.25,4.59,12.06.77,27.09-.76,3-5.92,21.07-20,26.82-13.49,5.49-29-4.64-30.71-1.22-1.39,2.82,9.46,9.2,7.89,13.41-1.23,3.31-9.57,3.66-16.08,2.7-19.77-2.93-27.77-18.69-33.49-15.84-5.93,3,3,19.66-5.89,35.75-4.62,8.33-13.91,16.25-24.12,17.14-9.15.79-12.71-4.63-26.69-8.44-11.63-3.18-19.63,3.09-25.6-2.43-3-2.76-3.71-6.25-6.87-6.56s-7.21,2.81-7.24,6.07c0,3.69,5.05,6,6.05,6.48,6.06,2.79,9.42-.67,18.24.89.55.09,10.07,1.84,10.34,5.2.16,2-3,2.82-8.14,6.83-3.11,2.43-12.57,9.83-11.58,16.63.4,2.7,2.13,3.23,1.93,6.09a9.26,9.26,0,0,1-4.85,7.14c-4,2.11-8-.07-8.41.9C97.42,199.63,103.93,207.3,110.54,207Z"/><path class="cls-5" d="M395.46,252.75c-36.23,51-103.34,75.33-167.08,59.91a48.12,48.12,0,0,1-24.33-4.89c-9.78-5-14.84-12.51-18.66-18-21.75-31-24.69-26.61-33.42-42.47-6-10.87-16.65-34.87-14-73.25-5.61,6-11.6,9.09-15.12,7.35-3.1-1.53-3.33-6.29-3.59-13.45-.21-5.82.08-16.68,5.26-32a122.46,122.46,0,0,1,5.91-14.46c-2.13-8.56-.5-13.39,1.29-16.19,3.51-5.49,8.1-3.89,13.44-10.65,3.94-5,5.49-11,6.64-15.49a63.1,63.1,0,0,0,1.5-8.27c.8-5.58,2.8-13.58,8.15-23.76a22.65,22.65,0,0,0,9.76-5.49c3.51-3.43,3.84-6.19,5.88-8.26,2.75-2.78,8.89-4.57,24.19,1.08,3.62-1.75,91.53-42.52,160.6,7.64C423,86.52,444.3,184,395.46,252.75Z"/><path class="cls-6" d="M427.77,177.31c-2.11-15.56-47.46-16.92-48.75-31.52-.43-4.82,4.5-5.71,5-13.27.83-11.71-9.54-21.41-12.61-24.05-15-13-28.88-6.49-33.62-14.93-7.72-13.73,21.62-43.85,18.49-46.44-1.92-1.59-11.56,10.84-19.33,8.29-5.88-1.93-4.78-10.49-10.93-21.56-2-3.67-11.46-19.78-28.58-24.06-20.29-5.06-39.12,9.54-38.67,10.79.34.93,11.57-5.71,26.9-3.32,3,.47,21.53,3.9,28.58,17.41C321,47.56,312.41,64,316,65.34c2.94,1.12,8.27-10.28,12.61-9.12,3.42.91,4.55,9.18,4.2,15.76-1,20-16,29.4-12.61,34.83,3.5,5.63,19.29-4.89,36.15,2.49,8.73,3.82,17.49,12.32,19.33,22.39,1.66,9-3.4,13.1-5.88,27.37-2.06,11.88,4.93,19.25,0,25.71-2.47,3.24-5.88,4.29-5.89,7.47s3.49,6.91,6.73,6.63c3.67-.31,5.52-5.59,5.88-6.63,2.21-6.3-1.55-9.32-.84-18.25.05-.55.89-10.2,4.21-10.78,1.95-.34,3.09,2.75,7.56,7.46,2.71,2.86,11,11.58,17.65,10,2.65-.65,3-2.43,5.89-2.49a9.27,9.27,0,0,1,7.56,4.14c2.48,3.79.68,7.95,1.69,8.3C421.63,191.07,428.66,183.86,427.77,177.31Z"/><path class="cls-7" d="M122.07,282.17c3.12-23.32,70.18-25.35,72.1-47.24.63-7.22-6.67-8.55-7.46-19.88C185.48,197.5,200.81,183,205.35,179c22.23-19.41,42.71-9.73,49.72-22.37,11.41-20.58-32-65.73-27.34-69.61,2.83-2.38,17.09,16.26,28.59,12.43,8.69-2.9,7.05-15.73,16.16-32.32,3-5.5,16.94-29.64,42.26-36,30-7.58,57.84,14.29,57.17,16.16-.5,1.41-17.11-8.54-39.77-5-4.49.71-31.83,5.86-42.26,26.1-10,19.34,2.77,44-2.49,46C283.05,116,275.16,99,268.75,100.69c-5.06,1.37-6.73,13.77-6.22,23.62,1.55,29.9,23.64,44.06,18.65,52.2-5.18,8.43-28.52-7.33-53.45,3.73-12.91,5.72-25.87,18.46-28.59,33.56-2.44,13.54,5,19.63,8.7,41,3,17.8-7.3,28.85,0,38.53,3.65,4.85,8.69,6.43,8.7,11.19s-5.14,10.36-9.94,9.94c-5.44-.47-8.17-8.38-8.7-9.94-3.26-9.43,2.29-14,1.24-27.35-.07-.82-1.3-15.28-6.22-16.15-2.89-.52-4.58,4.12-11.18,11.18-4,4.29-16.23,17.35-26.11,14.92-3.91-1-4.46-3.63-8.7-3.73a13.66,13.66,0,0,0-11.18,6.21c-3.67,5.68-1,11.92-2.49,12.43C131.16,302.79,120.76,292,122.07,282.17Z"/><circle class="cls-8" cx="152.36" cy="119.99" r="2.2"/><circle class="cls-8" cx="268.71" cy="189.62" r="0.99"/><circle class="cls-8" cx="229.16" cy="175.55" r="0.99"/><circle class="cls-8" cx="262.56" cy="91.17" r="0.99"/><circle class="cls-8" cx="270.47" cy="150.06" r="0.99"/><circle class="cls-8" cx="253.77" cy="173.8" r="0.99"/><circle class="cls-8" cx="211.58" cy="188.74" r="0.99"/><circle class="cls-8" cx="239.7" cy="99.96" r="0.99"/><circle class="cls-8" cx="213.33" cy="136.88" r="0.99"/><circle class="cls-8" cx="289.8" cy="117.54" r="0.99"/><ellipse class="cls-8" cx="238.88" cy="158.41" rx="0.17" ry="0.19"/><ellipse class="cls-8" cx="238" cy="136.44" rx="0.17" ry="0.19"/><ellipse class="cls-8" cx="238" cy="143.47" rx="0.17" ry="0.19"/><ellipse class="cls-8" cx="244.15" cy="133.8" rx="0.17" ry="0.19"/><ellipse class="cls-8" cx="235.36" cy="130.29" rx="0.17" ry="0.19"/><ellipse class="cls-8" cx="230.09" cy="135.56" rx="0.17" ry="0.19"/><ellipse class="cls-8" cx="238" cy="150.5" rx="0.17" ry="0.19"/><ellipse class="cls-8" cx="250.31" cy="136.44" rx="0.17" ry="0.19"/><ellipse class="cls-8" cx="238" cy="117.98" rx="0.17" ry="0.19"/><ellipse class="cls-8" cx="228.33" cy="133.8" rx="0.17" ry="0.19"/><ellipse class="cls-8" cx="210.75" cy="154.02" rx="0.17" ry="0.19"/><ellipse class="cls-8" cx="228.33" cy="119.74" rx="0.17" ry="0.19"/><ellipse class="cls-8" cx="238" cy="126.77" rx="0.17" ry="0.19"/><ellipse class="cls-8" cx="200.2" cy="133.8" rx="0.17" ry="0.19"/><ellipse class="cls-8" cx="204.6" cy="137.32" rx="0.17" ry="0.19"/><ellipse class="cls-8" cx="206.36" cy="130.29" rx="0.17" ry="0.19"/><ellipse class="cls-8" cx="231.85" cy="122.38" rx="0.17" ry="0.19"/><ellipse class="cls-8" cx="216.91" cy="144.35" rx="0.17" ry="0.19"/><ellipse class="cls-8" cx="261.73" cy="136.44" rx="0.17" ry="0.19"/><ellipse class="cls-8" cx="253.82" cy="161.05" rx="0.17" ry="0.19"/><ellipse class="cls-8" cx="270.52" cy="131.17" rx="0.17" ry="0.19"/><ellipse class="cls-8" cx="249.43" cy="140.83" rx="0.17" ry="0.19"/><circle class="cls-8" cx="230.91" cy="143.91" r="0.99"/><circle class="cls-8" cx="243.22" cy="125.45" r="0.99"/><circle class="cls-8" cx="216.52" cy="118.23" r="2.2"/><circle class="cls-8" cx="262.23" cy="122.62" r="2.2"/><circle class="cls-8" cx="220.92" cy="158.66" r="2.2"/><circle class="cls-8" cx="204.35" cy="164.98" r="0.99"/><circle class="cls-8" cx="175.34" cy="134.63" r="0.99"/><circle class="cls-8" cx="235.21" cy="83.94" r="0.99"/><circle class="cls-8" cx="223.7" cy="130.44" r="0.99"/><circle class="cls-8" cx="198.12" cy="144.12" r="0.99"/><circle class="cls-8" cx="153.71" cy="138.5" r="0.99"/><circle class="cls-8" cx="218.75" cy="71.85" r="0.99"/><circle class="cls-8" cx="178.6" cy="92.97" r="0.99"/><circle class="cls-8" cx="255.6" cy="110.08" r="0.99"/><circle class="cls-8" cx="204.48" cy="115.84" r="0.99"/><circle class="cls-8" cx="189.83" cy="77.74" r="2.2"/><circle class="cls-8" cx="228.68" cy="102.22" r="2.2"/><circle class="cls-8" cx="175.58" cy="115.84" r="2.2"/><circle class="cls-8" cx="205.71" cy="145.87" r="0.99"/><circle class="cls-8" cx="182.85" cy="154.66" r="0.99"/><circle class="cls-8" cx="186.27" cy="128.97" r="0.99"/><circle class="cls-8" cx="161.9" cy="126.55" r="0.99"/><circle class="cls-8" cx="198.75" cy="164.78" r="0.99"/><circle class="cls-8" cx="171.83" cy="156.92" r="2.2"/><ellipse class="cls-8" cx="299.83" cy="157.16" rx="0.17" ry="0.19"/><ellipse class="cls-8" cx="214.98" cy="105.47" rx="0.17" ry="0.19"/><ellipse class="cls-8" cx="209.71" cy="110.74" rx="0.17" ry="0.19"/><ellipse class="cls-8" cx="207.95" cy="108.99" rx="0.17" ry="0.19"/><ellipse class="cls-8" cx="207.95" cy="94.92" rx="0.17" ry="0.19"/><ellipse class="cls-8" cx="211.47" cy="97.56" rx="0.17" ry="0.19"/><ellipse class="cls-8" cx="195.65" cy="104.59" rx="0.17" ry="0.19"/><ellipse class="cls-8" cx="190.37" cy="109.86" rx="0.17" ry="0.19"/><ellipse class="cls-8" cx="188.62" cy="108.11" rx="0.17" ry="0.19"/><ellipse class="cls-8" cx="188.62" cy="94.04" rx="0.17" ry="0.19"/><ellipse class="cls-8" cx="192.13" cy="96.68" rx="0.17" ry="0.19"/><ellipse class="cls-8" cx="215.2" cy="105.91" rx="0.17" ry="0.19"/><ellipse class="cls-8" cx="212.56" cy="99.76" rx="0.17" ry="0.19"/><ellipse class="cls-8" cx="207.29" cy="105.03" rx="0.17" ry="0.19"/><ellipse class="cls-8" cx="215.2" cy="87.45" rx="0.17" ry="0.19"/><ellipse class="cls-8" cx="205.53" cy="103.27" rx="0.17" ry="0.19"/><ellipse class="cls-8" cx="205.53" cy="89.21" rx="0.17" ry="0.19"/><ellipse class="cls-8" cx="215.2" cy="96.24" rx="0.17" ry="0.19"/><ellipse class="cls-8" cx="209.05" cy="91.85" rx="0.17" ry="0.19"/><circle class="cls-8" cx="220.42" cy="94.92" r="0.99"/><circle class="cls-8" cx="200.9" cy="99.9" r="0.99"/><ellipse class="cls-8" cx="249.55" cy="98.2" rx="0.17" ry="0.19"/><ellipse class="cls-8" cx="246.91" cy="92.04" rx="0.17" ry="0.19"/><ellipse class="cls-8" cx="241.64" cy="97.32" rx="0.17" ry="0.19"/><ellipse class="cls-8" cx="249.55" cy="79.74" rx="0.17" ry="0.19"/><ellipse class="cls-8" cx="239.88" cy="95.56" rx="0.17" ry="0.19"/><ellipse class="cls-8" cx="239.88" cy="81.5" rx="0.17" ry="0.19"/><ellipse class="cls-8" cx="249.55" cy="88.53" rx="0.17" ry="0.19"/><ellipse class="cls-8" cx="243.4" cy="84.13" rx="0.17" ry="0.19"/><circle class="cls-8" cx="235.26" cy="92.19" r="0.99"/><ellipse class="cls-8" cx="252.91" cy="111.38" rx="0.17" ry="0.19"/><ellipse class="cls-8" cx="250.27" cy="105.23" rx="0.17" ry="0.19"/><ellipse class="cls-8" cx="245" cy="110.5" rx="0.17" ry="0.19"/><ellipse class="cls-8" cx="252.91" cy="92.92" rx="0.17" ry="0.19"/><ellipse class="cls-8" cx="252.91" cy="101.71" rx="0.17" ry="0.19"/><ellipse class="cls-8" cx="246.76" cy="97.32" rx="0.17" ry="0.19"/><ellipse class="cls-8" cx="229.18" cy="122.81" rx="0.17" ry="0.19"/><ellipse class="cls-8" cx="226.54" cy="116.66" rx="0.17" ry="0.19"/><ellipse class="cls-8" cx="221.27" cy="121.93" rx="0.17" ry="0.19"/><ellipse class="cls-8" cx="229.18" cy="104.35" rx="0.17" ry="0.19"/><ellipse class="cls-8" cx="229.18" cy="113.14" rx="0.17" ry="0.19"/><ellipse class="cls-8" cx="223.02" cy="108.75" rx="0.17" ry="0.19"/><circle class="cls-8" cx="226.94" cy="203.27" r="2.2"/><circle class="cls-8" cx="343.29" cy="272.9" r="0.99"/><circle class="cls-8" cx="303.73" cy="258.83" r="0.99"/><circle class="cls-8" cx="337.13" cy="174.45" r="0.99"/><circle class="cls-8" cx="345.05" cy="233.34" r="0.99"/><circle class="cls-8" cx="328.35" cy="257.08" r="0.99"/><circle class="cls-8" cx="286.15" cy="272.02" r="0.99"/><circle class="cls-8" cx="314.28" cy="183.24" r="0.99"/><circle class="cls-8" cx="287.91" cy="220.16" r="0.99"/><circle class="cls-8" cx="364.38" cy="200.82" r="0.99"/><ellipse class="cls-8" cx="313.46" cy="241.69" rx="0.17" ry="0.19"/><ellipse class="cls-8" cx="312.58" cy="219.72" rx="0.17" ry="0.19"/><ellipse class="cls-8" cx="312.58" cy="226.75" rx="0.17" ry="0.19"/><ellipse class="cls-8" cx="318.73" cy="217.08" rx="0.17" ry="0.19"/><ellipse class="cls-8" cx="309.94" cy="213.57" rx="0.17" ry="0.19"/><ellipse class="cls-8" cx="304.67" cy="218.84" rx="0.17" ry="0.19"/><ellipse class="cls-8" cx="312.58" cy="233.78" rx="0.17" ry="0.19"/><ellipse class="cls-8" cx="324.88" cy="219.72" rx="0.17" ry="0.19"/><ellipse class="cls-8" cx="312.58" cy="201.26" rx="0.17" ry="0.19"/><ellipse class="cls-8" cx="302.91" cy="217.08" rx="0.17" ry="0.19"/><ellipse class="cls-8" cx="285.33" cy="237.3" rx="0.17" ry="0.19"/><ellipse class="cls-8" cx="302.91" cy="203.02" rx="0.17" ry="0.19"/><ellipse class="cls-8" cx="312.58" cy="210.05" rx="0.17" ry="0.19"/><ellipse class="cls-8" cx="274.78" cy="217.08" rx="0.17" ry="0.19"/><ellipse class="cls-8" cx="279.18" cy="220.6" rx="0.17" ry="0.19"/><ellipse class="cls-8" cx="280.94" cy="213.57" rx="0.17" ry="0.19"/><ellipse class="cls-8" cx="306.43" cy="205.66" rx="0.17" ry="0.19"/><ellipse class="cls-8" cx="291.48" cy="227.63" rx="0.17" ry="0.19"/><ellipse class="cls-8" cx="336.31" cy="219.72" rx="0.17" ry="0.19"/><ellipse class="cls-8" cx="328.4" cy="244.33" rx="0.17" ry="0.19"/><ellipse class="cls-8" cx="345.1" cy="214.45" rx="0.17" ry="0.19"/><ellipse class="cls-8" cx="324.01" cy="224.11" rx="0.17" ry="0.19"/><circle class="cls-8" cx="305.49" cy="227.19" r="0.99"/><circle class="cls-8" cx="317.8" cy="208.73" r="0.99"/><circle class="cls-8" cx="291.1" cy="201.51" r="2.2"/><circle class="cls-8" cx="336.81" cy="205.9" r="2.2"/><circle class="cls-8" cx="295.5" cy="241.94" r="2.2"/><circle class="cls-8" cx="278.93" cy="248.25" r="0.99"/><circle class="cls-8" cx="249.92" cy="217.91" r="0.99"/><circle class="cls-8" cx="309.78" cy="167.22" r="0.99"/><circle class="cls-8" cx="298.28" cy="213.71" r="0.99"/><circle class="cls-8" cx="272.7" cy="227.4" r="0.99"/><circle class="cls-8" cx="228.29" cy="221.78" r="0.99"/><circle class="cls-8" cx="293.33" cy="155.13" r="0.99"/><circle class="cls-8" cx="253.18" cy="176.25" r="0.99"/><circle class="cls-8" cx="330.18" cy="193.36" r="0.99"/><circle class="cls-8" cx="279.06" cy="199.12" r="0.99"/><circle class="cls-8" cx="264.41" cy="161.02" r="2.2"/><circle class="cls-8" cx="303.26" cy="185.5" r="2.2"/><circle class="cls-8" cx="250.16" cy="199.12" r="2.2"/><circle class="cls-8" cx="280.28" cy="229.15" r="0.99"/><circle class="cls-8" cx="257.43" cy="237.94" r="0.99"/><circle class="cls-8" cx="260.85" cy="212.25" r="0.99"/><circle class="cls-8" cx="236.48" cy="209.83" r="0.99"/><circle class="cls-8" cx="273.33" cy="248.06" r="0.99"/><circle class="cls-8" cx="246.41" cy="240.2" r="2.2"/><ellipse class="cls-8" cx="374.4" cy="240.44" rx="0.17" ry="0.19"/><ellipse class="cls-8" cx="289.56" cy="188.75" rx="0.17" ry="0.19"/><ellipse class="cls-8" cx="284.29" cy="194.02" rx="0.17" ry="0.19"/><ellipse class="cls-8" cx="282.53" cy="192.26" rx="0.17" ry="0.19"/><ellipse class="cls-8" cx="282.53" cy="178.2" rx="0.17" ry="0.19"/><ellipse class="cls-8" cx="286.05" cy="180.84" rx="0.17" ry="0.19"/><ellipse class="cls-8" cx="270.23" cy="187.87" rx="0.17" ry="0.19"/><ellipse class="cls-8" cx="264.95" cy="193.14" rx="0.17" ry="0.19"/><ellipse class="cls-8" cx="263.19" cy="191.39" rx="0.17" ry="0.19"/><ellipse class="cls-8" cx="263.19" cy="177.32" rx="0.17" ry="0.19"/><ellipse class="cls-8" cx="266.71" cy="179.96" rx="0.17" ry="0.19"/><ellipse class="cls-8" cx="289.78" cy="189.19" rx="0.17" ry="0.19"/><ellipse class="cls-8" cx="287.14" cy="183.04" rx="0.17" ry="0.19"/><ellipse class="cls-8" cx="281.87" cy="188.31" rx="0.17" ry="0.19"/><ellipse class="cls-8" cx="289.78" cy="170.73" rx="0.17" ry="0.19"/><ellipse class="cls-8" cx="280.11" cy="186.55" rx="0.17" ry="0.19"/><ellipse class="cls-8" cx="280.11" cy="172.49" rx="0.17" ry="0.19"/><ellipse class="cls-8" cx="289.78" cy="179.52" rx="0.17" ry="0.19"/><ellipse class="cls-8" cx="283.63" cy="175.12" rx="0.17" ry="0.19"/><circle class="cls-8" cx="295" cy="178.2" r="0.99"/><circle class="cls-8" cx="275.48" cy="183.18" r="0.99"/><ellipse class="cls-8" cx="324.13" cy="181.48" rx="0.17" ry="0.19"/><ellipse class="cls-8" cx="321.49" cy="175.32" rx="0.17" ry="0.19"/><ellipse class="cls-8" cx="316.22" cy="180.6" rx="0.17" ry="0.19"/><ellipse class="cls-8" cx="324.13" cy="163.02" rx="0.17" ry="0.19"/><ellipse class="cls-8" cx="314.46" cy="178.84" rx="0.17" ry="0.19"/><ellipse class="cls-8" cx="314.46" cy="164.78" rx="0.17" ry="0.19"/><ellipse class="cls-8" cx="324.13" cy="171.81" rx="0.17" ry="0.19"/><ellipse class="cls-8" cx="317.98" cy="167.41" rx="0.17" ry="0.19"/><circle class="cls-8" cx="309.83" cy="175.47" r="0.99"/><ellipse class="cls-8" cx="327.49" cy="194.66" rx="0.17" ry="0.19"/><ellipse class="cls-8" cx="324.85" cy="188.51" rx="0.17" ry="0.19"/><ellipse class="cls-8" cx="319.58" cy="193.78" rx="0.17" ry="0.19"/><ellipse class="cls-8" cx="327.49" cy="176.2" rx="0.17" ry="0.19"/><ellipse class="cls-8" cx="327.49" cy="184.99" rx="0.17" ry="0.19"/><ellipse class="cls-8" cx="321.33" cy="180.6" rx="0.17" ry="0.19"/><ellipse class="cls-8" cx="303.76" cy="206.09" rx="0.17" ry="0.19"/><ellipse class="cls-8" cx="301.12" cy="199.94" rx="0.17" ry="0.19"/><ellipse class="cls-8" cx="295.84" cy="205.21" rx="0.17" ry="0.19"/><ellipse class="cls-8" cx="303.76" cy="187.63" rx="0.17" ry="0.19"/><ellipse class="cls-8" cx="303.76" cy="196.42" rx="0.17" ry="0.19"/><ellipse class="cls-8" cx="297.6" cy="192.02" rx="0.17" ry="0.19"/><circle class="cls-8" cx="274.63" cy="120.4" r="1.41"/><circle class="cls-8" cx="349.34" cy="165.11" r="0.64"/><circle class="cls-8" cx="323.94" cy="156.08" r="0.64"/><circle class="cls-8" cx="345.39" cy="101.9" r="0.64"/><circle class="cls-8" cx="350.47" cy="139.71" r="0.64"/><circle class="cls-8" cx="339.74" cy="154.95" r="0.64"/><circle class="cls-8" cx="312.65" cy="164.55" r="0.64"/><circle class="cls-8" cx="330.71" cy="107.54" r="0.64"/><circle class="cls-8" cx="313.78" cy="131.25" r="0.64"/><circle class="cls-8" cx="362.88" cy="118.83" r="0.64"/><ellipse class="cls-8" cx="330.18" cy="145.08" rx="0.11" ry="0.12"/><ellipse class="cls-8" cx="329.62" cy="130.97" rx="0.11" ry="0.12"/><ellipse class="cls-8" cx="329.62" cy="135.48" rx="0.11" ry="0.12"/><ellipse class="cls-8" cx="333.57" cy="129.27" rx="0.11" ry="0.12"/><ellipse class="cls-8" cx="327.93" cy="127.02" rx="0.11" ry="0.12"/><ellipse class="cls-8" cx="324.54" cy="130.4" rx="0.11" ry="0.12"/><ellipse class="cls-8" cx="329.62" cy="140" rx="0.11" ry="0.12"/><ellipse class="cls-8" cx="337.52" cy="130.97" rx="0.11" ry="0.12"/><ellipse class="cls-8" cx="329.62" cy="119.11" rx="0.11" ry="0.12"/><ellipse class="cls-8" cx="323.41" cy="129.27" rx="0.11" ry="0.12"/><ellipse class="cls-8" cx="312.12" cy="142.25" rx="0.11" ry="0.12"/><ellipse class="cls-8" cx="323.41" cy="120.24" rx="0.11" ry="0.12"/><ellipse class="cls-8" cx="329.62" cy="124.76" rx="0.11" ry="0.12"/><ellipse class="cls-8" cx="305.35" cy="129.27" rx="0.11" ry="0.12"/><ellipse class="cls-8" cx="308.17" cy="131.53" rx="0.11" ry="0.12"/><ellipse class="cls-8" cx="309.3" cy="127.02" rx="0.11" ry="0.12"/><ellipse class="cls-8" cx="325.67" cy="121.94" rx="0.11" ry="0.12"/><ellipse class="cls-8" cx="316.07" cy="136.05" rx="0.11" ry="0.12"/><ellipse class="cls-8" cx="344.86" cy="130.97" rx="0.11" ry="0.12"/><ellipse class="cls-8" cx="339.78" cy="146.77" rx="0.11" ry="0.12"/><ellipse class="cls-8" cx="350.5" cy="127.58" rx="0.11" ry="0.12"/><ellipse class="cls-8" cx="336.96" cy="133.79" rx="0.11" ry="0.12"/><circle class="cls-8" cx="325.07" cy="135.76" r="0.64"/><circle class="cls-8" cx="332.97" cy="123.91" r="0.64"/><circle class="cls-8" cx="315.83" cy="119.27" r="1.41"/><circle class="cls-8" cx="345.18" cy="122.09" r="1.41"/><circle class="cls-8" cx="318.65" cy="145.23" r="1.41"/><circle class="cls-8" cx="308.01" cy="149.29" r="0.64"/><circle class="cls-8" cx="289.39" cy="129.8" r="0.64"/><circle class="cls-8" cx="327.82" cy="97.26" r="0.64"/><circle class="cls-8" cx="320.44" cy="127.11" r="0.64"/><circle class="cls-8" cx="304.01" cy="135.9" r="0.64"/><circle class="cls-8" cx="275.5" cy="132.29" r="0.64"/><circle class="cls-8" cx="317.26" cy="89.49" r="0.64"/><circle class="cls-8" cx="291.48" cy="103.05" r="0.64"/><circle class="cls-8" cx="340.92" cy="114.04" r="0.64"/><circle class="cls-8" cx="308.1" cy="117.74" r="0.64"/><circle class="cls-8" cx="298.69" cy="93.28" r="1.41"/><circle class="cls-8" cx="323.64" cy="108.99" r="1.41"/><circle class="cls-8" cx="289.54" cy="117.74" r="1.41"/><circle class="cls-8" cx="308.88" cy="137.02" r="0.64"/><circle class="cls-8" cx="294.21" cy="142.67" r="0.64"/><circle class="cls-8" cx="296.4" cy="126.17" r="0.64"/><circle class="cls-8" cx="280.75" cy="124.62" r="0.64"/><circle class="cls-8" cx="304.42" cy="149.16" r="0.64"/><circle class="cls-8" cx="287.13" cy="144.12" r="1.41"/><ellipse class="cls-8" cx="369.32" cy="144.27" rx="0.11" ry="0.12"/><ellipse class="cls-8" cx="314.84" cy="111.08" rx="0.11" ry="0.12"/><ellipse class="cls-8" cx="311.45" cy="114.47" rx="0.11" ry="0.12"/><ellipse class="cls-8" cx="310.33" cy="113.34" rx="0.11" ry="0.12"/><ellipse class="cls-8" cx="310.33" cy="104.31" rx="0.11" ry="0.12"/><ellipse class="cls-8" cx="312.58" cy="106" rx="0.11" ry="0.12"/><ellipse class="cls-8" cx="302.42" cy="110.52" rx="0.11" ry="0.12"/><ellipse class="cls-8" cx="299.04" cy="113.9" rx="0.11" ry="0.12"/><ellipse class="cls-8" cx="297.91" cy="112.77" rx="0.11" ry="0.12"/><ellipse class="cls-8" cx="297.91" cy="103.74" rx="0.11" ry="0.12"/><ellipse class="cls-8" cx="300.17" cy="105.44" rx="0.11" ry="0.12"/><ellipse class="cls-8" cx="314.98" cy="111.36" rx="0.11" ry="0.12"/><ellipse class="cls-8" cx="313.29" cy="107.41" rx="0.11" ry="0.12"/><ellipse class="cls-8" cx="309.9" cy="110.8" rx="0.11" ry="0.12"/><ellipse class="cls-8" cx="314.98" cy="99.51" rx="0.11" ry="0.12"/><ellipse class="cls-8" cx="308.77" cy="109.67" rx="0.11" ry="0.12"/><ellipse class="cls-8" cx="308.77" cy="100.64" rx="0.11" ry="0.12"/><ellipse class="cls-8" cx="314.98" cy="105.15" rx="0.11" ry="0.12"/><ellipse class="cls-8" cx="311.03" cy="102.33" rx="0.11" ry="0.12"/><circle class="cls-8" cx="318.33" cy="104.31" r="0.64"/><circle class="cls-8" cx="305.8" cy="107.51" r="0.64"/><ellipse class="cls-8" cx="337.04" cy="106.41" rx="0.11" ry="0.12"/><ellipse class="cls-8" cx="335.34" cy="102.46" rx="0.11" ry="0.12"/><ellipse class="cls-8" cx="331.96" cy="105.85" rx="0.11" ry="0.12"/><ellipse class="cls-8" cx="337.04" cy="94.56" rx="0.11" ry="0.12"/><ellipse class="cls-8" cx="330.83" cy="104.72" rx="0.11" ry="0.12"/><ellipse class="cls-8" cx="330.83" cy="95.69" rx="0.11" ry="0.12"/><ellipse class="cls-8" cx="337.04" cy="100.2" rx="0.11" ry="0.12"/><ellipse class="cls-8" cx="333.09" cy="97.38" rx="0.11" ry="0.12"/><circle class="cls-8" cx="327.86" cy="102.55" r="0.64"/><ellipse class="cls-8" cx="339.19" cy="114.88" rx="0.11" ry="0.12"/><ellipse class="cls-8" cx="337.5" cy="110.93" rx="0.11" ry="0.12"/><ellipse class="cls-8" cx="334.11" cy="114.31" rx="0.11" ry="0.12"/><ellipse class="cls-8" cx="339.19" cy="103.02" rx="0.11" ry="0.12"/><ellipse class="cls-8" cx="339.19" cy="108.67" rx="0.11" ry="0.12"/><ellipse class="cls-8" cx="335.24" cy="105.85" rx="0.11" ry="0.12"/><ellipse class="cls-8" cx="323.95" cy="122.21" rx="0.11" ry="0.12"/><ellipse class="cls-8" cx="322.26" cy="118.26" rx="0.11" ry="0.12"/><ellipse class="cls-8" cx="318.87" cy="121.65" rx="0.11" ry="0.12"/><ellipse class="cls-8" cx="323.95" cy="110.36" rx="0.11" ry="0.12"/><ellipse class="cls-8" cx="323.95" cy="116.01" rx="0.11" ry="0.12"/><ellipse class="cls-8" cx="320" cy="113.18" rx="0.11" ry="0.12"/><g class="cls-9"><path d="M52.2,402.49c-8.7-20.41,9.84-51.64,33-67.3,19.54-13.21,48.73-16.5,56.67-6.2,3.11,4,2.46,9.49,6,10.5,4.83,1.39,8.31-8.25,18.82-13.78,8.3-4.37,22-6.73,29.06-.66,8.77,7.56.46,22.39,9.71,29.24,5.92,4.38,11.59,0,20.65,6.14,5.95,4,5.66,7.38,9.78,8.14,7,1.28,9.87-8.07,20.18-9.89,8.89-1.56,11.64,4.54,17.3,2.43,9.43-3.51,3.76-21.24,15-33.51,10.32-11.28,31-13.61,37.56-6.46,5.77,6.25-2.23,16.4,4.19,23.72,3.56,4.07,7.46,2.57,26.62,5.59,17.32,2.73,17.14,4.42,23.45,3.88,13.52-1.17,14.81-9,28-12.61,18.34-5.07,22.27,8.3,41.56,4.22,15.1-3.19,20-12.93,36-12.34,7.19.26,9.67,4.58,13.31,2.79,7.92-3.88.1-22,9.12-32,7.39-8.16,25.14-9.58,34-2.11,13.95,11.83,6.48,46.77,2.14,67.08-2,9.54-6.13,24.82-1.15,42.28,1.17,4.11,1.75,4.5,2.82,8.78,2.72,11,5,33-4.41,39.57-10.39,7.29-25.15-11-38.48-3.5-9.27,5.26-7.51,17.17-20.89,24-3.49,1.78-7.19,3.67-11.77,3.09-13.62-1.74-13.86-22.72-28.63-27.5-11.85-3.84-23.86,5.72-24.53,6.27-13.08,10.71-12.08,30.29-11.83,35.22.74,14.69,7.05,19.61,4,32.78-.44,1.87-3,13.11-8.77,13.85-5,.65-9.74-7.06-10.87-9-6.44-11.27-.64-19.08-4-32.77-2.87-11.6-11.39-23.64-16.14-22.62-7.27,1.56-10.85,34.86-3.21,63.56,1.89,7.06,4.09,12.52,5.09,22.63.78,7.91,3.09,31.26-6.76,35.76-7,3.19-18.84-3.6-24.27-12.83-6.13-10.43-1.86-21.28.78-35.22C347.59,520.15,345,479,333,475.14c-4.54-1.47-9.56,2.72-9.77,2.91-9.14,7.83.27,25.31-8.13,31.87-3.82,3-10.34,2.93-14,.28-7.08-5.07-2-18.41-8-21.36-3.58-1.75-8.92,1.24-11.68,4.09-4,4.1-3.28,8.64-4.79,13.49-3.27,10.54-14.83,15.74-22.34,19.12-2.95,1.33-28.47,12.43-43.1.94-9.17-7.2-8-18.49-18-21.44a17.5,17.5,0,0,0-11.95,1.1c-1.76.85-6.9,3.75-10.67,15-1.13,3.38-5.24,16.78-.42,39.21,3.1,14.45,6.57,17,5.45,26.61-.33,2.82-1.9,16.28-10.31,19-5.62,1.83-12.81-1.63-16.66-6.5-7.67-9.72-.18-22.62,3-43.46,4.59-29.67-1.31-63.7-13.18-67.08-6.64-1.89-10,7.28-28.06,11.61-8,1.91-18,4.3-25.16-.7-8-5.61-8.5-17.71-9.09-33.31-.81-21.69,4.14-24.64.79-35.22C71.76,415,58,416.16,52.2,402.49Z"/></g><path class="cls-10" d="M51.1,390.54c-8.69-20.41,9.84-51.64,33-67.3,19.53-13.21,48.72-16.5,56.67-6.2,3.1,4,2.46,9.49,6,10.5,4.84,1.39,8.31-8.25,18.82-13.78,8.3-4.37,22-6.73,29.06-.66,8.77,7.56.46,22.39,9.71,29.24,5.92,4.38,11.59,0,20.65,6.14,5.95,4,5.66,7.38,9.78,8.14,7,1.28,9.88-8.07,20.19-9.89,8.88-1.56,11.64,4.54,17.29,2.43,9.44-3.51,3.77-21.24,15-33.51,10.33-11.27,31-13.61,37.57-6.46,5.77,6.25-2.24,16.4,4.18,23.72,3.57,4.07,7.46,2.57,26.62,5.59,17.32,2.73,17.15,4.42,23.46,3.88,13.51-1.17,14.8-9,28-12.61,18.34-5.07,22.27,8.3,41.56,4.22,15.11-3.19,20-12.93,36-12.34,7.2.27,9.67,4.58,13.32,2.79,7.91-3.88.09-22,9.11-32,7.4-8.16,25.14-9.58,33.95-2.11,14,11.83,6.48,46.77,2.14,67.08-2,9.54-6.13,24.82-1.14,42.28,1.17,4.11,1.75,4.5,2.81,8.78,2.72,11,5,33-4.4,39.57-10.4,7.29-25.16-11.05-38.48-3.5-9.27,5.26-7.51,17.17-20.9,24-3.49,1.78-7.19,3.68-11.76,3.09-13.62-1.74-13.86-22.72-28.64-27.5-11.85-3.84-23.86,5.72-24.53,6.27C403,461.16,404,480.74,404.27,485.67c.75,14.69,7.05,19.61,4,32.78-.43,1.87-3,13.11-8.77,13.85-5,.65-9.74-7.06-10.87-9-6.44-11.27-.63-19.08-4-32.77-2.86-11.6-11.39-23.64-16.13-22.62-7.27,1.56-10.85,34.86-3.21,63.56,1.88,7.06,4.09,12.52,5.09,22.63.78,7.91,3.09,31.26-6.76,35.76-7,3.19-18.85-3.6-24.28-12.83-6.13-10.43-1.86-21.28.79-35.22,6.37-33.57,3.76-74.71-8.21-78.58-4.55-1.47-9.57,2.72-9.78,2.91-9.13,7.83.28,25.31-8.12,31.87-3.83,3-10.35,2.93-14,.28-7.07-5.07-2-18.41-8-21.36-3.58-1.75-8.92,1.24-11.68,4.09-4,4.1-3.28,8.64-4.78,13.49-3.27,10.54-14.84,15.74-22.35,19.12-2.95,1.33-28.46,12.43-43.09.94-9.18-7.2-8-18.49-18-21.44a17.51,17.51,0,0,0-11.95,1.1c-1.75.85-6.89,3.75-10.67,15-1.13,3.38-5.24,16.78-.42,39.21,3.11,14.45,6.57,17,5.45,26.61-.32,2.82-1.9,16.28-10.3,19-5.63,1.83-12.82-1.63-16.67-6.5-7.67-9.72-.17-22.62,3.05-43.46,4.58-29.67-1.32-63.7-13.18-67.08-6.64-1.89-10,7.28-28.06,11.61-8,1.91-18,4.3-25.17-.7-8-5.61-8.5-17.71-9.08-33.31-.82-21.69,4.13-24.64.78-35.22C70.66,403,56.93,404.21,51.1,390.54Z"/><path class="cls-11" d="M102.72,341.11q-12.45,5.72-18.27,16.08t-4.56,24.17a43.43,43.43,0,0,0,2.34,10.95,23.32,23.32,0,0,0,4.54,7.88q-12.1,1.11-18.34-3.37t-7.18-14.89a43.39,43.39,0,0,1,5.49-25.41,55.61,55.61,0,0,1,19.33-20.18,62.23,62.23,0,0,1,28.13-9.45,44.09,44.09,0,0,1,7.62-.13,44.35,44.35,0,0,1,7.57,1.41l32,99.14,11.77-104.68,18.35-1.69L173.64,465.3l-26.11,2.39L117,375.86l-13,95.82-18,1.65Z"/><path class="cls-11" d="M212.17,504.69q-6.48-4.17-7.3-13.06A20.7,20.7,0,0,1,212,473.51q8.1-7.32,21.14-12.91l1.34-10.42a29.13,29.13,0,0,1-21.74,12.68q-9.08.83-15.18-4.33T190.4,442a66.31,66.31,0,0,1,.38-12.44l7.3-61.91,27.24-2.5-7.72,65.58a19.5,19.5,0,0,0-.13,4.78q.76,8.33,6.44,7.8a11.44,11.44,0,0,0,8.31-5.05,31.5,31.5,0,0,0,5-11.81l7.57-63.09,27.25-2.5-10.68,89.51A33.5,33.5,0,0,0,275.11,440q4.93-6.56,7.62-18.82l7.95-.73q-3.56,17.31-11.55,26a46.46,46.46,0,0,1-18.69,12.49l-1.59,13.89q-2.1,18.69-10.74,26.45A34.37,34.37,0,0,1,227.74,508Q218.67,508.87,212.17,504.69Zm15.71-15.94q2.63-4.63,3.59-12.92l.63-5.59Q214.18,478.75,215,488a6.36,6.36,0,0,0,2.1,4.2,6.12,6.12,0,0,0,4.91,1.46Q225.25,493.38,227.88,488.75Z"/><path class="cls-11" d="M335.61,445.38a22.37,22.37,0,0,1-6.79-14.73,49.07,49.07,0,0,1,.13-9.08q.48-5.08,1.09-9.92t.86-6.19q.92-6.75,1.64-13.31a53.78,53.78,0,0,0,.37-10.53q-.89-9.64-7.69-9-4.92.45-8.26,5.63a37.31,37.31,0,0,0-4.9,13.13l-7.3,61.92-27.24,2.5,15.63-131.18,27.65-6.35L315,366.86q8.49-11.46,21.16-12.63,9.66-.89,15.82,3.89t7.15,15.56a64.56,64.56,0,0,1-.21,12.33q-.7,6.84-2.28,16.71-1,6-1.69,11.7a44.22,44.22,0,0,0-.43,8.91,9.05,9.05,0,0,0,2.25,5.71c1.26,1.29,3.28,1.8,6,1.55a11.27,11.27,0,0,0,8.71-4.91q3-4.38,5.66-13.2l7.94-.73Q380,433.2,371.48,441.14T353.11,450Q341.58,451,335.61,445.38Z"/><path class="cls-11" d="M383.85,439.81q-8.43-6.57-9.85-22.08-1.2-13.07,2.47-29.23a67.17,67.17,0,0,1,14.16-28.68q10.49-12.51,28.28-14.14,20.8-1.9,22.48,16.26a34,34,0,0,1-4.27,20,44.88,44.88,0,0,1-14.77,15.76,52,52,0,0,1-20.82,8.11q.14,5.72.32,7.61.84,9.27,4.37,12.28t10.71,2.36q10.21-.94,17.07-6.34t14.66-15.84l6.44-.59q-17.79,36.93-48.82,39.77Q392.27,446.39,383.85,439.81Zm31.25-49.32A34.8,34.8,0,0,0,424.26,378a30.14,30.14,0,0,0,2.52-15.11q-.7-7.77-5.44-7.33-6.81.63-12.24,13.15a91,91,0,0,0-6.89,27.91A25.07,25.07,0,0,0,415.1,390.49Z"/><path class="cls-11" d="M454.79,433.21q-7.86-6.72-9.31-22.42a87,87,0,0,1,2.89-29.94,68,68,0,0,1,14.25-27.63A36.88,36.88,0,0,1,488,340.1c5.18-.47,9.1.06,11.79,1.6a8.21,8.21,0,0,1,4.43,6.65l.07.76,5.28-44.37,27.65-6.35L524.86,402.55a21.5,21.5,0,0,0-.25,5.56q.69,7.58,8.45,6.86a15.34,15.34,0,0,0,6-1.7q.12,9.54-5.39,15.09A21.22,21.22,0,0,1,520,434.67a20.86,20.86,0,0,1-13.13-2.7q-5.57-3.41-8-11.2-9.92,16.75-25.43,18.17A24.15,24.15,0,0,1,454.79,433.21Zm37.36-18.12a21.41,21.41,0,0,0,5.42-10.61l.48-3.09,5.29-44.18Q501,350.75,495,351.3q-7.58.69-12.82,10.05a70.08,70.08,0,0,0-7.52,22,84.26,84.26,0,0,0-1.4,22.17q.87,9.46,3.86,11.86a9.34,9.34,0,0,0,7,2Q488.22,419.09,492.15,415.09Z"/></g></svg>