<svg width="279" height="183" viewBox="0 0 279 183" fill="none" xmlns="http://www.w3.org/2000/svg">
<path d="M172.33 22.0315C175.229 23.0715 177.363 24.1232 178.451 27.0046C179.579 29.9924 178.784 32.444 176.921 35.038C174.493 38.4181 169.538 35.5848 166.975 38.8634C164.809 41.6336 167.648 45.2791 165.062 47.6619C163.01 49.5532 160.948 49.8981 158.176 49.5746C154.76 49.176 152.79 47.4802 150.908 44.6016C146.839 38.3784 152.516 31.8256 158.176 27.0046C162.637 23.2057 166.816 20.0532 172.33 22.0315Z" stroke="#F291BA" stroke-width="2"/>
<path d="M125.328 39.6125C124.519 42.5841 123.639 44.7942 120.852 46.1049C117.962 47.4641 115.455 46.864 112.723 45.2105C109.162 43.0559 111.598 37.8933 108.128 35.5956C105.196 33.6542 101.785 36.7706 99.2063 34.3799C97.1597 32.4824 96.6539 30.4546 96.7586 27.6657C96.8877 24.2288 98.4235 22.1315 101.145 20.0292C107.03 15.4842 114.008 20.6286 119.259 25.8928C123.396 30.0408 126.867 33.9595 125.328 39.6125Z" stroke="#F291BA" stroke-width="2"/>
<path d="M123.789 71.7504C123.17 74.0239 122.496 75.7148 120.363 76.7176C118.152 77.7575 116.235 77.2984 114.144 76.0333C111.42 74.3848 113.283 70.435 110.629 68.6771C108.386 67.1917 105.776 69.576 103.803 67.747C102.237 66.2952 101.85 64.7437 101.93 62.61C102.029 59.9805 103.204 58.3759 105.286 56.7674C109.788 53.2901 115.128 57.226 119.145 61.2535C122.31 64.4272 124.966 67.4253 123.789 71.7504Z" stroke="#F291BA" stroke-width="2"/>
<path d="M137.446 10.0663C140.594 7.16015 146.567 3.97034 146.567 3.97034C146.567 3.97034 148.935 10.441 149.385 14.7804C150.076 21.4478 152.017 27.1982 147.141 31.7974C143.554 35.181 139.596 36.9376 134.981 35.2012C130.264 33.4265 128.498 29.3048 128.104 24.2802C127.584 17.6581 132.566 14.5723 137.446 10.0663Z" stroke="#F291BA" stroke-width="2"/>
<path d="M155.612 74.4161C155.551 79.1399 153.575 86.3404 153.575 86.3404C153.575 86.3404 146.599 83.329 142.784 80.3981C136.923 75.895 130.847 73.0882 130.863 65.6967C130.875 60.2588 132.47 55.7588 137.361 53.3807C142.359 50.9503 146.997 52.6627 151.319 56.1578C157.014 60.7641 155.706 67.0919 155.612 74.4161Z" stroke="#F291BA" stroke-width="2"/>
<path d="M10.9396 122V108.909H13.3111V114.451H19.3771V108.909H21.755V122H19.3771V116.439H13.3111V122H10.9396ZM27.0572 122.198C26.435 122.198 25.8746 122.087 25.3761 121.866C24.8817 121.64 24.4897 121.308 24.1999 120.869C23.9144 120.43 23.7717 119.888 23.7717 119.245C23.7717 118.691 23.8739 118.233 24.0785 117.871C24.283 117.509 24.5621 117.219 24.9158 117.001C25.2695 116.784 25.668 116.62 26.1112 116.509C26.5586 116.394 27.021 116.311 27.4982 116.26C28.0735 116.2 28.5401 116.147 28.8981 116.1C29.256 116.049 29.516 115.972 29.6779 115.87C29.8441 115.763 29.9272 115.599 29.9272 115.378V115.339C29.9272 114.858 29.7844 114.485 29.4989 114.221C29.2134 113.957 28.8022 113.825 28.2653 113.825C27.6985 113.825 27.2489 113.948 26.9165 114.195C26.5884 114.442 26.3668 114.734 26.2518 115.071L24.0913 114.764C24.2617 114.168 24.543 113.669 24.935 113.268C25.3271 112.864 25.8065 112.561 26.3732 112.361C26.94 112.156 27.5664 112.054 28.2525 112.054C28.7255 112.054 29.1964 112.109 29.6651 112.22C30.1339 112.331 30.5621 112.514 30.9499 112.77C31.3377 113.021 31.6488 113.364 31.8832 113.799C32.1218 114.234 32.2411 114.777 32.2411 115.429V122H30.0167V120.651H29.94C29.7994 120.924 29.6012 121.18 29.3455 121.418C29.0941 121.653 28.7766 121.842 28.3931 121.987C28.0138 122.128 27.5685 122.198 27.0572 122.198ZM27.658 120.498C28.1225 120.498 28.5252 120.406 28.8661 120.223C29.207 120.036 29.4691 119.788 29.6523 119.482C29.8398 119.175 29.9336 118.84 29.9336 118.478V117.321C29.8612 117.381 29.7376 117.436 29.5629 117.487C29.3924 117.538 29.2006 117.583 28.9876 117.621C28.7745 117.66 28.5636 117.694 28.3548 117.724C28.146 117.754 27.9648 117.779 27.8114 117.8C27.4663 117.847 27.1573 117.924 26.8846 118.031C26.6119 118.137 26.3967 118.286 26.239 118.478C26.0813 118.665 26.0025 118.908 26.0025 119.207C26.0025 119.633 26.158 119.955 26.4691 120.172C26.7802 120.389 27.1765 120.498 27.658 120.498ZM42.3278 114.777L40.2184 115.007C40.1587 114.794 40.0543 114.594 39.9052 114.406C39.7603 114.219 39.5643 114.067 39.3171 113.952C39.07 113.837 38.7674 113.78 38.4094 113.78C37.9279 113.78 37.5231 113.884 37.195 114.093C36.8711 114.302 36.7113 114.572 36.7156 114.905C36.7113 115.19 36.8157 115.423 37.0288 115.602C37.2461 115.781 37.604 115.928 38.1026 116.043L39.7773 116.401C40.7063 116.601 41.3967 116.918 41.8484 117.353C42.3043 117.788 42.5344 118.357 42.5387 119.06C42.5344 119.678 42.3533 120.223 41.9954 120.696C41.6417 121.165 41.1495 121.531 40.5188 121.795C39.8881 122.06 39.1637 122.192 38.3455 122.192C37.1438 122.192 36.1765 121.94 35.4435 121.438C34.7106 120.93 34.2738 120.225 34.1332 119.322L36.3896 119.104C36.4918 119.548 36.7092 119.882 37.0415 120.108C37.3739 120.334 37.8065 120.447 38.3391 120.447C38.8888 120.447 39.3299 120.334 39.6623 120.108C39.9989 119.882 40.1673 119.603 40.1673 119.271C40.1673 118.989 40.0586 118.757 39.8413 118.574C39.6282 118.391 39.2958 118.25 38.8441 118.152L37.1694 117.8C36.2276 117.604 35.5309 117.274 35.0792 116.81C34.6275 116.341 34.4038 115.749 34.408 115.033C34.4038 114.428 34.5678 113.903 34.9002 113.46C35.2369 113.013 35.7035 112.668 36.3001 112.425C36.9009 112.178 37.5934 112.054 38.3775 112.054C39.5281 112.054 40.4336 112.299 41.0941 112.789C41.7589 113.279 42.1701 113.942 42.3278 114.777ZM52.2067 114.777L50.0973 115.007C50.0376 114.794 49.9332 114.594 49.7841 114.406C49.6392 114.219 49.4432 114.067 49.196 113.952C48.9489 113.837 48.6463 113.78 48.2884 113.78C47.8068 113.78 47.402 113.884 47.0739 114.093C46.75 114.302 46.5902 114.572 46.5945 114.905C46.5902 115.19 46.6946 115.423 46.9077 115.602C47.125 115.781 47.483 115.928 47.9815 116.043L49.6562 116.401C50.5852 116.601 51.2756 116.918 51.7273 117.353C52.1832 117.788 52.4134 118.357 52.4176 119.06C52.4134 119.678 52.2322 120.223 51.8743 120.696C51.5206 121.165 51.0284 121.531 50.3977 121.795C49.767 122.06 49.0426 122.192 48.2244 122.192C47.0227 122.192 46.0554 121.94 45.3224 121.438C44.5895 120.93 44.1527 120.225 44.0121 119.322L46.2685 119.104C46.3707 119.548 46.5881 119.882 46.9205 120.108C47.2528 120.334 47.6854 120.447 48.218 120.447C48.7678 120.447 49.2088 120.334 49.5412 120.108C49.8778 119.882 50.0462 119.603 50.0462 119.271C50.0462 118.989 49.9375 118.757 49.7202 118.574C49.5071 118.391 49.1747 118.25 48.723 118.152L47.0483 117.8C46.1065 117.604 45.4098 117.274 44.9581 116.81C44.5064 116.341 44.2827 115.749 44.2869 115.033C44.2827 114.428 44.4467 113.903 44.7791 113.46C45.1158 113.013 45.5824 112.668 46.179 112.425C46.7798 112.178 47.4723 112.054 48.2564 112.054C49.407 112.054 50.3125 112.299 50.973 112.789C51.6378 113.279 52.049 113.942 52.2067 114.777ZM58.6722 122.192C57.6879 122.192 56.8377 121.987 56.1218 121.578C55.4102 121.165 54.8626 120.581 54.479 119.827C54.0955 119.068 53.9038 118.175 53.9038 117.148C53.9038 116.138 54.0955 115.252 54.479 114.489C54.8668 113.722 55.408 113.126 56.1026 112.7C56.7972 112.269 57.6133 112.054 58.5508 112.054C59.1559 112.054 59.7269 112.152 60.2638 112.348C60.805 112.54 61.2823 112.838 61.6957 113.243C62.1133 113.648 62.4414 114.163 62.68 114.79C62.9187 115.412 63.038 116.153 63.038 117.014V117.724H54.9904V116.164H60.82C60.8157 115.721 60.7198 115.327 60.5323 114.982C60.3448 114.632 60.0827 114.357 59.7461 114.157C59.4137 113.957 59.0259 113.857 58.5827 113.857C58.1097 113.857 57.6942 113.972 57.3363 114.202C56.9783 114.428 56.6992 114.726 56.4989 115.097C56.3029 115.463 56.2028 115.866 56.1985 116.305V117.666C56.1985 118.237 56.3029 118.727 56.5117 119.136C56.7205 119.541 57.0124 119.852 57.3874 120.07C57.7624 120.283 58.2013 120.389 58.7042 120.389C59.0408 120.389 59.3455 120.342 59.6183 120.249C59.891 120.151 60.1275 120.008 60.3278 119.82C60.5281 119.633 60.6793 119.401 60.7816 119.124L62.9421 119.366C62.8058 119.937 62.5458 120.436 62.1623 120.862C61.783 121.284 61.2972 121.612 60.7049 121.847C60.1126 122.077 59.435 122.192 58.6722 122.192ZM67.3095 108.909V122H64.9956V108.909H67.3095ZM72.0028 116.247V122H69.6889V112.182H71.9006V113.85H72.0156C72.2415 113.3 72.6016 112.864 73.0959 112.54C73.5945 112.216 74.2102 112.054 74.9432 112.054C75.6207 112.054 76.2109 112.199 76.7138 112.489C77.2209 112.778 77.6129 113.198 77.8899 113.748C78.1712 114.298 78.3097 114.964 78.3054 115.749V122H75.9915V116.107C75.9915 115.45 75.821 114.937 75.4801 114.566C75.1435 114.195 74.6768 114.01 74.0803 114.01C73.6754 114.01 73.3153 114.099 73 114.278C72.6889 114.453 72.4439 114.707 72.2649 115.039C72.0902 115.371 72.0028 115.774 72.0028 116.247ZM82.0192 122.601L80.8622 121.808L87.8487 111.658L89.0185 112.45L82.0192 122.601ZM84.9403 122.205C83.9815 122.205 83.1506 121.994 82.4474 121.572C81.7443 121.15 81.1989 120.56 80.8111 119.801C80.4276 119.038 80.2358 118.152 80.2358 117.142C80.2358 116.128 80.4276 115.239 80.8111 114.477C81.1989 113.714 81.7443 113.121 82.4474 112.7C83.1506 112.278 83.9815 112.067 84.9403 112.067C85.8991 112.067 86.7301 112.278 87.4332 112.7C88.1364 113.121 88.6797 113.714 89.0632 114.477C89.451 115.239 89.6449 116.128 89.6449 117.142C89.6449 118.152 89.451 119.038 89.0632 119.801C88.6797 120.56 88.1364 121.15 87.4332 121.572C86.7301 121.994 85.8991 122.205 84.9403 122.205ZM84.9531 120.351C85.473 120.351 85.9077 120.208 86.2571 119.923C86.6065 119.633 86.8665 119.245 87.0369 118.759C87.2116 118.273 87.299 117.73 87.299 117.129C87.299 116.533 87.2116 115.991 87.0369 115.506C86.8665 115.016 86.6065 114.626 86.2571 114.336C85.9077 114.046 85.473 113.901 84.9531 113.901C84.4205 113.901 83.9773 114.046 83.6236 114.336C83.2741 114.626 83.0121 115.016 82.8374 115.506C82.6669 115.991 82.5817 116.533 82.5817 117.129C82.5817 117.73 82.6669 118.273 82.8374 118.759C83.0121 119.245 83.2741 119.633 83.6236 119.923C83.9773 120.208 84.4205 120.351 84.9531 120.351ZM95.2523 122.173C94.481 122.173 93.7907 121.974 93.1813 121.578C92.5719 121.182 92.0904 120.607 91.7367 119.852C91.383 119.098 91.2061 118.182 91.2061 117.104C91.2061 116.013 91.3851 115.092 91.7431 114.342C92.1053 113.588 92.5932 113.019 93.2069 112.636C93.8205 112.248 94.5044 112.054 95.2587 112.054C95.834 112.054 96.307 112.152 96.6777 112.348C97.0485 112.54 97.3425 112.772 97.5598 113.045C97.7772 113.313 97.9455 113.567 98.0648 113.805H98.1607V108.909H100.481V122H98.2054V120.453H98.0648C97.9455 120.692 97.7729 120.945 97.5471 121.214C97.3212 121.478 97.0229 121.704 96.6522 121.891C96.2814 122.079 95.8148 122.173 95.2523 122.173ZM95.8979 120.274C96.388 120.274 96.8056 120.142 97.1507 119.878C97.4959 119.609 97.758 119.237 97.937 118.759C98.1159 118.282 98.2054 117.726 98.2054 117.091C98.2054 116.456 98.1159 115.904 97.937 115.435C97.7623 114.967 97.5023 114.602 97.1571 114.342C96.8162 114.082 96.3965 113.952 95.8979 113.952C95.3823 113.952 94.9519 114.087 94.6067 114.355C94.2615 114.624 94.0016 114.994 93.8269 115.467C93.6522 115.94 93.5648 116.482 93.5648 117.091C93.5648 117.705 93.6522 118.252 93.8269 118.734C94.0059 119.211 94.2679 119.588 94.6131 119.865C94.9625 120.138 95.3908 120.274 95.8979 120.274ZM106.59 122.173C105.819 122.173 105.129 121.974 104.519 121.578C103.91 121.182 103.428 120.607 103.075 119.852C102.721 119.098 102.544 118.182 102.544 117.104C102.544 116.013 102.723 115.092 103.081 114.342C103.443 113.588 103.931 113.019 104.545 112.636C105.158 112.248 105.842 112.054 106.597 112.054C107.172 112.054 107.645 112.152 108.016 112.348C108.386 112.54 108.68 112.772 108.898 113.045C109.115 113.313 109.283 113.567 109.403 113.805H109.499V108.909H111.819V122H109.543V120.453H109.403C109.283 120.692 109.111 120.945 108.885 121.214C108.659 121.478 108.361 121.704 107.99 121.891C107.619 122.079 107.153 122.173 106.59 122.173ZM107.236 120.274C107.726 120.274 108.143 120.142 108.489 119.878C108.834 119.609 109.096 119.237 109.275 118.759C109.454 118.282 109.543 117.726 109.543 117.091C109.543 116.456 109.454 115.904 109.275 115.435C109.1 114.967 108.84 114.602 108.495 114.342C108.154 114.082 107.734 113.952 107.236 113.952C106.72 113.952 106.29 114.087 105.945 114.355C105.599 114.624 105.339 114.994 105.165 115.467C104.99 115.94 104.903 116.482 104.903 117.091C104.903 117.705 104.99 118.252 105.165 118.734C105.344 119.211 105.606 119.588 105.951 119.865C106.3 120.138 106.729 120.274 107.236 120.274ZM118.631 122.192C117.647 122.192 116.797 121.987 116.081 121.578C115.369 121.165 114.822 120.581 114.438 119.827C114.055 119.068 113.863 118.175 113.863 117.148C113.863 116.138 114.055 115.252 114.438 114.489C114.826 113.722 115.367 113.126 116.062 112.7C116.756 112.269 117.572 112.054 118.51 112.054C119.115 112.054 119.686 112.152 120.223 112.348C120.764 112.54 121.241 112.838 121.655 113.243C122.072 113.648 122.4 114.163 122.639 114.79C122.878 115.412 122.997 116.153 122.997 117.014V117.724H114.949V116.164H120.779C120.775 115.721 120.679 115.327 120.491 114.982C120.304 114.632 120.042 114.357 119.705 114.157C119.373 113.957 118.985 113.857 118.542 113.857C118.069 113.857 117.653 113.972 117.295 114.202C116.937 114.428 116.658 114.726 116.458 115.097C116.262 115.463 116.162 115.866 116.157 116.305V117.666C116.157 118.237 116.262 118.727 116.471 119.136C116.68 119.541 116.971 119.852 117.346 120.07C117.721 120.283 118.16 120.389 118.663 120.389C119 120.389 119.305 120.342 119.577 120.249C119.85 120.151 120.086 120.008 120.287 119.82C120.487 119.633 120.638 119.401 120.741 119.124L122.901 119.366C122.765 119.937 122.505 120.436 122.121 120.862C121.742 121.284 121.256 121.612 120.664 121.847C120.072 122.077 119.394 122.192 118.631 122.192ZM124.955 122V112.182H127.198V113.818H127.3C127.479 113.251 127.786 112.815 128.221 112.508C128.66 112.197 129.161 112.041 129.723 112.041C129.851 112.041 129.994 112.048 130.151 112.06C130.313 112.069 130.447 112.084 130.554 112.105V114.234C130.456 114.2 130.3 114.17 130.087 114.144C129.879 114.114 129.676 114.099 129.48 114.099C129.058 114.099 128.679 114.191 128.342 114.374C128.01 114.553 127.748 114.803 127.556 115.122C127.364 115.442 127.268 115.81 127.268 116.228V122H124.955ZM133.683 120.21L133.6 120.913C133.54 121.45 133.434 121.996 133.28 122.55C133.131 123.108 132.973 123.621 132.807 124.09C132.641 124.559 132.507 124.928 132.404 125.196H130.845C130.904 124.936 130.985 124.582 131.088 124.135C131.194 123.688 131.297 123.185 131.395 122.626C131.493 122.068 131.559 121.501 131.593 120.926L131.637 120.21H133.683ZM140.335 125.682V112.182H142.611V113.805H142.745C142.865 113.567 143.033 113.313 143.25 113.045C143.468 112.772 143.762 112.54 144.132 112.348C144.503 112.152 144.976 112.054 145.551 112.054C146.31 112.054 146.994 112.248 147.603 112.636C148.217 113.019 148.703 113.588 149.061 114.342C149.423 115.092 149.604 116.013 149.604 117.104C149.604 118.182 149.427 119.098 149.073 119.852C148.72 120.607 148.238 121.182 147.629 121.578C147.019 121.974 146.329 122.173 145.558 122.173C144.995 122.173 144.529 122.079 144.158 121.891C143.787 121.704 143.489 121.478 143.263 121.214C143.041 120.945 142.869 120.692 142.745 120.453H142.649V125.682H140.335ZM142.605 117.091C142.605 117.726 142.694 118.282 142.873 118.759C143.056 119.237 143.318 119.609 143.659 119.878C144.004 120.142 144.422 120.274 144.912 120.274C145.423 120.274 145.852 120.138 146.197 119.865C146.542 119.588 146.802 119.211 146.977 118.734C147.156 118.252 147.245 117.705 147.245 117.091C147.245 116.482 147.158 115.94 146.983 115.467C146.808 114.994 146.548 114.624 146.203 114.355C145.858 114.087 145.428 113.952 144.912 113.952C144.418 113.952 143.998 114.082 143.653 114.342C143.308 114.602 143.046 114.967 142.867 115.435C142.692 115.904 142.605 116.456 142.605 117.091ZM151.585 122V112.182H153.899V122H151.585ZM152.749 110.788C152.382 110.788 152.067 110.667 151.803 110.424C151.539 110.177 151.406 109.881 151.406 109.536C151.406 109.186 151.539 108.89 151.803 108.647C152.067 108.4 152.382 108.276 152.749 108.276C153.119 108.276 153.435 108.4 153.695 108.647C153.959 108.89 154.091 109.186 154.091 109.536C154.091 109.881 153.959 110.177 153.695 110.424C153.435 110.667 153.119 110.788 152.749 110.788ZM164.039 114.777L161.929 115.007C161.87 114.794 161.765 114.594 161.616 114.406C161.471 114.219 161.275 114.067 161.028 113.952C160.781 113.837 160.478 113.78 160.12 113.78C159.639 113.78 159.234 113.884 158.906 114.093C158.582 114.302 158.422 114.572 158.426 114.905C158.422 115.19 158.527 115.423 158.74 115.602C158.957 115.781 159.315 115.928 159.814 116.043L161.488 116.401C162.417 116.601 163.108 116.918 163.559 117.353C164.015 117.788 164.245 118.357 164.25 119.06C164.245 119.678 164.064 120.223 163.706 120.696C163.353 121.165 162.86 121.531 162.23 121.795C161.599 122.06 160.875 122.192 160.056 122.192C158.855 122.192 157.887 121.94 157.154 121.438C156.422 120.93 155.985 120.225 155.844 119.322L158.1 119.104C158.203 119.548 158.42 119.882 158.752 120.108C159.085 120.334 159.517 120.447 160.05 120.447C160.6 120.447 161.041 120.334 161.373 120.108C161.71 119.882 161.878 119.603 161.878 119.271C161.878 118.989 161.77 118.757 161.552 118.574C161.339 118.391 161.007 118.25 160.555 118.152L158.88 117.8C157.939 117.604 157.242 117.274 156.79 116.81C156.338 116.341 156.115 115.749 156.119 115.033C156.115 114.428 156.279 113.903 156.611 113.46C156.948 113.013 157.414 112.668 158.011 112.425C158.612 112.178 159.304 112.054 160.088 112.054C161.239 112.054 162.145 112.299 162.805 112.789C163.47 113.279 163.881 113.942 164.039 114.777ZM171.06 112.182V113.972H165.416V112.182H171.06ZM166.81 109.83H169.124V119.047C169.124 119.358 169.17 119.597 169.264 119.763C169.362 119.925 169.49 120.036 169.648 120.095C169.805 120.155 169.98 120.185 170.172 120.185C170.317 120.185 170.449 120.174 170.568 120.153C170.692 120.131 170.786 120.112 170.849 120.095L171.239 121.904C171.116 121.947 170.939 121.994 170.709 122.045C170.483 122.096 170.206 122.126 169.878 122.134C169.298 122.151 168.776 122.064 168.312 121.872C167.847 121.676 167.479 121.374 167.206 120.964C166.938 120.555 166.805 120.044 166.81 119.43V109.83ZM175.821 122.198C175.199 122.198 174.638 122.087 174.14 121.866C173.645 121.64 173.253 121.308 172.964 120.869C172.678 120.43 172.535 119.888 172.535 119.245C172.535 118.691 172.638 118.233 172.842 117.871C173.047 117.509 173.326 117.219 173.68 117.001C174.033 116.784 174.432 116.62 174.875 116.509C175.322 116.394 175.785 116.311 176.262 116.26C176.837 116.2 177.304 116.147 177.662 116.1C178.02 116.049 178.28 115.972 178.442 115.87C178.608 115.763 178.691 115.599 178.691 115.378V115.339C178.691 114.858 178.548 114.485 178.263 114.221C177.977 113.957 177.566 113.825 177.029 113.825C176.462 113.825 176.013 113.948 175.68 114.195C175.352 114.442 175.131 114.734 175.015 115.071L172.855 114.764C173.025 114.168 173.307 113.669 173.699 113.268C174.091 112.864 174.57 112.561 175.137 112.361C175.704 112.156 176.33 112.054 177.016 112.054C177.489 112.054 177.96 112.109 178.429 112.22C178.898 112.331 179.326 112.514 179.714 112.77C180.101 113.021 180.412 113.364 180.647 113.799C180.885 114.234 181.005 114.777 181.005 115.429V122H178.78V120.651H178.704C178.563 120.924 178.365 121.18 178.109 121.418C177.858 121.653 177.54 121.842 177.157 121.987C176.778 122.128 176.332 122.198 175.821 122.198ZM176.422 120.498C176.886 120.498 177.289 120.406 177.63 120.223C177.971 120.036 178.233 119.788 178.416 119.482C178.604 119.175 178.697 118.84 178.697 118.478V117.321C178.625 117.381 178.501 117.436 178.327 117.487C178.156 117.538 177.964 117.583 177.751 117.621C177.538 117.66 177.327 117.694 177.118 117.724C176.91 117.754 176.729 117.779 176.575 117.8C176.23 117.847 175.921 117.924 175.648 118.031C175.376 118.137 175.16 118.286 175.003 118.478C174.845 118.665 174.766 118.908 174.766 119.207C174.766 119.633 174.922 119.955 175.233 120.172C175.544 120.389 175.94 120.498 176.422 120.498ZM187.614 122.192C186.634 122.192 185.792 121.977 185.089 121.546C184.39 121.116 183.851 120.521 183.472 119.763C183.097 119 182.91 118.122 182.91 117.129C182.91 116.132 183.101 115.252 183.485 114.489C183.868 113.722 184.41 113.126 185.108 112.7C185.812 112.269 186.643 112.054 187.601 112.054C188.398 112.054 189.104 112.201 189.717 112.495C190.335 112.785 190.827 113.196 191.194 113.729C191.56 114.257 191.769 114.875 191.82 115.582H189.608C189.519 115.109 189.306 114.715 188.969 114.4C188.637 114.08 188.192 113.92 187.633 113.92C187.16 113.92 186.745 114.048 186.387 114.304C186.029 114.555 185.75 114.918 185.55 115.391C185.354 115.864 185.256 116.43 185.256 117.091C185.256 117.76 185.354 118.335 185.55 118.817C185.746 119.294 186.02 119.663 186.374 119.923C186.732 120.178 187.152 120.306 187.633 120.306C187.974 120.306 188.279 120.242 188.547 120.114C188.82 119.982 189.048 119.793 189.231 119.545C189.415 119.298 189.54 118.998 189.608 118.644H191.82C191.765 119.339 191.56 119.955 191.206 120.491C190.853 121.024 190.371 121.442 189.762 121.744C189.153 122.043 188.437 122.192 187.614 122.192ZM193.72 122V112.182H196.034V122H193.72ZM194.884 110.788C194.517 110.788 194.202 110.667 193.938 110.424C193.673 110.177 193.541 109.881 193.541 109.536C193.541 109.186 193.673 108.89 193.938 108.647C194.202 108.4 194.517 108.276 194.884 108.276C195.254 108.276 195.57 108.4 195.83 108.647C196.094 108.89 196.226 109.186 196.226 109.536C196.226 109.881 196.094 110.177 195.83 110.424C195.57 110.667 195.254 110.788 194.884 110.788ZM202.76 122.192C201.776 122.192 200.926 121.987 200.21 121.578C199.498 121.165 198.95 120.581 198.567 119.827C198.183 119.068 197.992 118.175 197.992 117.148C197.992 116.138 198.183 115.252 198.567 114.489C198.955 113.722 199.496 113.126 200.191 112.7C200.885 112.269 201.701 112.054 202.639 112.054C203.244 112.054 203.815 112.152 204.352 112.348C204.893 112.54 205.37 112.838 205.784 113.243C206.201 113.648 206.529 114.163 206.768 114.79C207.007 115.412 207.126 116.153 207.126 117.014V117.724H199.078V116.164H204.908C204.904 115.721 204.808 115.327 204.62 114.982C204.433 114.632 204.171 114.357 203.834 114.157C203.502 113.957 203.114 113.857 202.671 113.857C202.198 113.857 201.782 113.972 201.424 114.202C201.066 114.428 200.787 114.726 200.587 115.097C200.391 115.463 200.291 115.866 200.286 116.305V117.666C200.286 118.237 200.391 118.727 200.6 119.136C200.808 119.541 201.1 119.852 201.475 120.07C201.85 120.283 202.289 120.389 202.792 120.389C203.129 120.389 203.433 120.342 203.706 120.249C203.979 120.151 204.215 120.008 204.416 119.82C204.616 119.633 204.767 119.401 204.869 119.124L207.03 119.366C206.894 119.937 206.634 120.436 206.25 120.862C205.871 121.284 205.385 121.612 204.793 121.847C204.2 122.077 203.523 122.192 202.76 122.192ZM211.397 116.247V122H209.083V112.182H211.295V113.85H211.41C211.636 113.3 211.996 112.864 212.49 112.54C212.989 112.216 213.605 112.054 214.338 112.054C215.015 112.054 215.605 112.199 216.108 112.489C216.615 112.778 217.007 113.198 217.284 113.748C217.566 114.298 217.704 114.964 217.7 115.749V122H215.386V116.107C215.386 115.45 215.216 114.937 214.875 114.566C214.538 114.195 214.071 114.01 213.475 114.01C213.07 114.01 212.71 114.099 212.395 114.278C212.083 114.453 211.838 114.707 211.659 115.039C211.485 115.371 211.397 115.774 211.397 116.247ZM221.414 122.601L220.257 121.808L227.243 111.658L228.413 112.45L221.414 122.601ZM224.335 122.205C223.376 122.205 222.545 121.994 221.842 121.572C221.139 121.15 220.593 120.56 220.206 119.801C219.822 119.038 219.63 118.152 219.63 117.142C219.63 116.128 219.822 115.239 220.206 114.477C220.593 113.714 221.139 113.121 221.842 112.7C222.545 112.278 223.376 112.067 224.335 112.067C225.294 112.067 226.125 112.278 226.828 112.7C227.531 113.121 228.074 113.714 228.458 114.477C228.846 115.239 229.039 116.128 229.039 117.142C229.039 118.152 228.846 119.038 228.458 119.801C228.074 120.56 227.531 121.15 226.828 121.572C226.125 121.994 225.294 122.205 224.335 122.205ZM224.348 120.351C224.868 120.351 225.302 120.208 225.652 119.923C226.001 119.633 226.261 119.245 226.431 118.759C226.606 118.273 226.694 117.73 226.694 117.129C226.694 116.533 226.606 115.991 226.431 115.506C226.261 115.016 226.001 114.626 225.652 114.336C225.302 114.046 224.868 113.901 224.348 113.901C223.815 113.901 223.372 114.046 223.018 114.336C222.669 114.626 222.407 115.016 222.232 115.506C222.061 115.991 221.976 116.533 221.976 117.129C221.976 117.73 222.061 118.273 222.232 118.759C222.407 119.245 222.669 119.633 223.018 119.923C223.372 120.208 223.815 120.351 224.348 120.351ZM234.647 122.173C233.876 122.173 233.185 121.974 232.576 121.578C231.966 121.182 231.485 120.607 231.131 119.852C230.778 119.098 230.601 118.182 230.601 117.104C230.601 116.013 230.78 115.092 231.138 114.342C231.5 113.588 231.988 113.019 232.601 112.636C233.215 112.248 233.899 112.054 234.653 112.054C235.229 112.054 235.702 112.152 236.072 112.348C236.443 112.54 236.737 112.772 236.954 113.045C237.172 113.313 237.34 113.567 237.459 113.805H237.555V108.909H239.876V122H237.6V120.453H237.459C237.34 120.692 237.167 120.945 236.942 121.214C236.716 121.478 236.417 121.704 236.047 121.891C235.676 122.079 235.209 122.173 234.647 122.173ZM235.292 120.274C235.782 120.274 236.2 120.142 236.545 119.878C236.89 119.609 237.153 119.237 237.331 118.759C237.51 118.282 237.6 117.726 237.6 117.091C237.6 116.456 237.51 115.904 237.331 115.435C237.157 114.967 236.897 114.602 236.552 114.342C236.211 114.082 235.791 113.952 235.292 113.952C234.777 113.952 234.346 114.087 234.001 114.355C233.656 114.624 233.396 114.994 233.221 115.467C233.047 115.94 232.959 116.482 232.959 117.091C232.959 117.705 233.047 118.252 233.221 118.734C233.4 119.211 233.662 119.588 234.008 119.865C234.357 120.138 234.785 120.274 235.292 120.274ZM245.985 122.173C245.213 122.173 244.523 121.974 243.914 121.578C243.304 121.182 242.823 120.607 242.469 119.852C242.115 119.098 241.939 118.182 241.939 117.104C241.939 116.013 242.118 115.092 242.475 114.342C242.838 113.588 243.326 113.019 243.939 112.636C244.553 112.248 245.237 112.054 245.991 112.054C246.566 112.054 247.039 112.152 247.41 112.348C247.781 112.54 248.075 112.772 248.292 113.045C248.51 113.313 248.678 113.567 248.797 113.805H248.893V108.909H251.213V122H248.938V120.453H248.797C248.678 120.692 248.505 120.945 248.279 121.214C248.054 121.478 247.755 121.704 247.385 121.891C247.014 122.079 246.547 122.173 245.985 122.173ZM246.63 120.274C247.12 120.274 247.538 120.142 247.883 119.878C248.228 119.609 248.49 119.237 248.669 118.759C248.848 118.282 248.938 117.726 248.938 117.091C248.938 116.456 248.848 115.904 248.669 115.435C248.495 114.967 248.235 114.602 247.89 114.342C247.549 114.082 247.129 113.952 246.63 113.952C246.115 113.952 245.684 114.087 245.339 114.355C244.994 114.624 244.734 114.994 244.559 115.467C244.385 115.94 244.297 116.482 244.297 117.091C244.297 117.705 244.385 118.252 244.559 118.734C244.738 119.211 245 119.588 245.346 119.865C245.695 120.138 246.123 120.274 246.63 120.274ZM258.026 122.192C257.041 122.192 256.191 121.987 255.475 121.578C254.764 121.165 254.216 120.581 253.833 119.827C253.449 119.068 253.257 118.175 253.257 117.148C253.257 116.138 253.449 115.252 253.833 114.489C254.22 113.722 254.762 113.126 255.456 112.7C256.151 112.269 256.967 112.054 257.904 112.054C258.509 112.054 259.08 112.152 259.617 112.348C260.159 112.54 260.636 112.838 261.049 113.243C261.467 113.648 261.795 114.163 262.034 114.79C262.272 115.412 262.392 116.153 262.392 117.014V117.724H254.344V116.164H260.173C260.169 115.721 260.073 115.327 259.886 114.982C259.698 114.632 259.436 114.357 259.1 114.157C258.767 113.957 258.379 113.857 257.936 113.857C257.463 113.857 257.048 113.972 256.69 114.202C256.332 114.428 256.053 114.726 255.852 115.097C255.656 115.463 255.556 115.866 255.552 116.305V117.666C255.552 118.237 255.656 118.727 255.865 119.136C256.074 119.541 256.366 119.852 256.741 120.07C257.116 120.283 257.555 120.389 258.058 120.389C258.394 120.389 258.699 120.342 258.972 120.249C259.244 120.151 259.481 120.008 259.681 119.82C259.882 119.633 260.033 119.401 260.135 119.124L262.296 119.366C262.159 119.937 261.899 120.436 261.516 120.862C261.137 121.284 260.651 121.612 260.058 121.847C259.466 122.077 258.789 122.192 258.026 122.192ZM264.349 122V112.182H266.593V113.818H266.695C266.874 113.251 267.181 112.815 267.615 112.508C268.054 112.197 268.555 112.041 269.118 112.041C269.245 112.041 269.388 112.048 269.546 112.06C269.708 112.069 269.842 112.084 269.949 112.105V114.234C269.85 114.2 269.695 114.17 269.482 114.144C269.273 114.114 269.071 114.099 268.875 114.099C268.453 114.099 268.074 114.191 267.737 114.374C267.404 114.553 267.142 114.803 266.951 115.122C266.759 115.442 266.663 115.81 266.663 116.228V122H264.349ZM27.6972 149.192C26.7384 149.192 25.9074 148.981 25.2043 148.559C24.5012 148.137 23.9557 147.547 23.5679 146.788C23.1844 146.03 22.9926 145.143 22.9926 144.129C22.9926 143.115 23.1844 142.227 23.5679 141.464C23.9557 140.701 24.5012 140.109 25.2043 139.687C25.9074 139.265 26.7384 139.054 27.6972 139.054C28.656 139.054 29.4869 139.265 30.1901 139.687C30.8932 140.109 31.4365 140.701 31.82 141.464C32.2078 142.227 32.4017 143.115 32.4017 144.129C32.4017 145.143 32.2078 146.03 31.82 146.788C31.4365 147.547 30.8932 148.137 30.1901 148.559C29.4869 148.981 28.656 149.192 27.6972 149.192ZM27.71 147.338C28.2298 147.338 28.6645 147.195 29.0139 146.91C29.3634 146.62 29.6233 146.232 29.7938 145.746C29.9685 145.261 30.0558 144.719 30.0558 144.123C30.0558 143.522 29.9685 142.979 29.7938 142.493C29.6233 142.003 29.3634 141.613 29.0139 141.323C28.6645 141.033 28.2298 140.888 27.71 140.888C27.1773 140.888 26.7341 141.033 26.3804 141.323C26.031 141.613 25.7689 142.003 25.5942 142.493C25.4237 142.979 25.3385 143.522 25.3385 144.123C25.3385 144.719 25.4237 145.261 25.5942 145.746C25.7689 146.232 26.031 146.62 26.3804 146.91C26.7341 147.195 27.1773 147.338 27.71 147.338ZM38.6356 152.886C37.8046 152.886 37.0908 152.773 36.4942 152.548C35.8976 152.326 35.4182 152.028 35.056 151.653C34.6938 151.278 34.4424 150.862 34.3018 150.406L36.3856 149.901C36.4793 150.093 36.6157 150.283 36.7947 150.47C36.9736 150.662 37.2144 150.82 37.517 150.943C37.8238 151.071 38.2094 151.135 38.6739 151.135C39.3302 151.135 39.8735 150.975 40.3039 150.656C40.7343 150.34 40.9495 149.82 40.9495 149.096V147.236H40.8344C40.7151 147.474 40.5404 147.719 40.3103 147.971C40.0844 148.222 39.784 148.433 39.409 148.604C39.0383 148.774 38.5716 148.859 38.0091 148.859C37.2549 148.859 36.5709 148.683 35.9573 148.329C35.3479 147.971 34.8621 147.438 34.4999 146.731C34.142 146.019 33.963 145.129 33.963 144.059C33.963 142.981 34.142 142.071 34.4999 141.33C34.8621 140.584 35.3501 140.019 35.9637 139.636C36.5773 139.248 37.2613 139.054 38.0155 139.054C38.5908 139.054 39.0638 139.152 39.4346 139.348C39.8096 139.54 40.1079 139.772 40.3295 140.045C40.551 140.313 40.7194 140.567 40.8344 140.805H40.9623V139.182H43.2442V149.16C43.2442 149.999 43.0439 150.694 42.6434 151.244C42.2428 151.793 41.6952 152.205 41.0006 152.477C40.306 152.75 39.5177 152.886 38.6356 152.886ZM38.6547 147.044C39.1448 147.044 39.5624 146.925 39.9076 146.686C40.2528 146.447 40.5148 146.104 40.6938 145.657C40.8728 145.21 40.9623 144.673 40.9623 144.046C40.9623 143.428 40.8728 142.887 40.6938 142.423C40.5191 141.958 40.2591 141.598 39.914 141.342C39.5731 141.082 39.1533 140.952 38.6547 140.952C38.1391 140.952 37.7087 141.087 37.3635 141.355C37.0184 141.624 36.7584 141.992 36.5837 142.461C36.409 142.925 36.3216 143.454 36.3216 144.046C36.3216 144.647 36.409 145.173 36.5837 145.625C36.7627 146.072 37.0248 146.422 37.3699 146.673C37.7194 146.92 38.1476 147.044 38.6547 147.044ZM50.0805 149V139.182H52.2922V140.85H52.4072C52.6118 140.288 52.9506 139.849 53.4236 139.533C53.8966 139.214 54.4612 139.054 55.1175 139.054C55.7822 139.054 56.3426 139.216 56.7986 139.54C57.2588 139.859 57.5827 140.296 57.7702 140.85H57.8724C58.0898 140.305 58.4562 139.87 58.9719 139.546C59.4917 139.218 60.1075 139.054 60.8192 139.054C61.7226 139.054 62.4598 139.339 63.0308 139.911C63.6018 140.482 63.8873 141.315 63.8873 142.41V149H61.567V142.768C61.567 142.158 61.4051 141.713 61.0812 141.432C60.7574 141.146 60.3611 141.004 59.8923 141.004C59.3341 141.004 58.8973 141.178 58.5819 141.528C58.2709 141.873 58.1153 142.322 58.1153 142.876V149H55.8461V142.672C55.8461 142.165 55.6927 141.76 55.3859 141.457C55.0834 141.155 54.6871 141.004 54.197 141.004C53.8646 141.004 53.5621 141.089 53.2893 141.259C53.0166 141.425 52.7993 141.662 52.6373 141.969C52.4754 142.271 52.3944 142.625 52.3944 143.03V149H50.0805ZM69.0601 149.198C68.4379 149.198 67.8776 149.087 67.379 148.866C66.8847 148.64 66.4926 148.308 66.2029 147.869C65.9173 147.43 65.7746 146.888 65.7746 146.245C65.7746 145.691 65.8769 145.233 66.0814 144.871C66.286 144.509 66.5651 144.219 66.9188 144.001C67.2725 143.784 67.6709 143.62 68.1141 143.509C68.5615 143.394 69.0239 143.311 69.5012 143.26C70.0764 143.2 70.5431 143.147 70.901 143.1C71.259 143.049 71.5189 142.972 71.6808 142.87C71.847 142.763 71.9301 142.599 71.9301 142.378V142.339C71.9301 141.858 71.7874 141.485 71.5019 141.221C71.2164 140.957 70.8051 140.825 70.2682 140.825C69.7014 140.825 69.2519 140.948 68.9195 141.195C68.5914 141.442 68.3698 141.734 68.2547 142.071L66.0942 141.764C66.2646 141.168 66.5459 140.669 66.9379 140.268C67.33 139.864 67.8094 139.561 68.3762 139.361C68.9429 139.156 69.5693 139.054 70.2554 139.054C70.7284 139.054 71.1993 139.109 71.6681 139.22C72.1368 139.331 72.5651 139.514 72.9529 139.77C73.3406 140.021 73.6517 140.364 73.8861 140.799C74.1247 141.234 74.2441 141.777 74.2441 142.429V149H72.0196V147.651H71.9429C71.8023 147.924 71.6041 148.18 71.3485 148.418C71.097 148.653 70.7796 148.842 70.396 148.987C70.0168 149.128 69.5715 149.198 69.0601 149.198ZM69.661 147.498C70.1254 147.498 70.5281 147.406 70.8691 147.223C71.21 147.036 71.472 146.788 71.6553 146.482C71.8428 146.175 71.9365 145.84 71.9365 145.478V144.321C71.8641 144.381 71.7405 144.436 71.5658 144.487C71.3953 144.538 71.2036 144.583 70.9905 144.621C70.7774 144.66 70.5665 144.694 70.3577 144.724C70.1489 144.754 69.9678 144.779 69.8144 144.8C69.4692 144.847 69.1602 144.924 68.8875 145.031C68.6148 145.137 68.3996 145.286 68.2419 145.478C68.0843 145.665 68.0054 145.908 68.0054 146.207C68.0054 146.633 68.161 146.955 68.472 147.172C68.7831 147.389 69.1794 147.498 69.661 147.498ZM78.8847 143.247V149H76.5708V139.182H78.7824V140.85H78.8975C79.1233 140.3 79.4834 139.864 79.9777 139.54C80.4763 139.216 81.0921 139.054 81.825 139.054C82.5026 139.054 83.0928 139.199 83.5956 139.489C84.1027 139.778 84.4948 140.198 84.7718 140.748C85.053 141.298 85.1915 141.964 85.1872 142.749V149H82.8733V143.107C82.8733 142.45 82.7029 141.937 82.3619 141.566C82.0253 141.195 81.5587 141.01 80.9621 141.01C80.5573 141.01 80.1972 141.099 79.8818 141.278C79.5708 141.453 79.3257 141.707 79.1468 142.039C78.972 142.371 78.8847 142.774 78.8847 143.247ZM91.183 149.173C90.4117 149.173 89.7213 148.974 89.1119 148.578C88.5026 148.182 88.021 147.607 87.6673 146.852C87.3137 146.098 87.1368 145.182 87.1368 144.104C87.1368 143.013 87.3158 142.092 87.6737 141.342C88.036 140.588 88.5239 140.019 89.1375 139.636C89.7512 139.248 90.4351 139.054 91.1894 139.054C91.7646 139.054 92.2377 139.152 92.6084 139.348C92.9791 139.54 93.2732 139.772 93.4905 140.045C93.7078 140.313 93.8762 140.567 93.9955 140.805H94.0914V135.909H96.4117V149H94.1361V147.453H93.9955C93.8762 147.692 93.7036 147.945 93.4777 148.214C93.2519 148.478 92.9536 148.704 92.5828 148.891C92.2121 149.079 91.7455 149.173 91.183 149.173ZM91.8286 147.274C92.3186 147.274 92.7362 147.142 93.0814 146.878C93.4266 146.609 93.6887 146.237 93.8676 145.759C94.0466 145.282 94.1361 144.726 94.1361 144.091C94.1361 143.456 94.0466 142.904 93.8676 142.435C93.6929 141.967 93.433 141.602 93.0878 141.342C92.7469 141.082 92.3271 140.952 91.8286 140.952C91.3129 140.952 90.8825 141.087 90.5374 141.355C90.1922 141.624 89.9323 141.994 89.7575 142.467C89.5828 142.94 89.4955 143.482 89.4955 144.091C89.4955 144.705 89.5828 145.252 89.7575 145.734C89.9365 146.211 90.1986 146.588 90.5438 146.865C90.8932 147.138 91.3215 147.274 91.8286 147.274ZM101.191 135.909V149H98.8774V135.909H101.191ZM107.917 149.192C106.933 149.192 106.083 148.987 105.367 148.578C104.655 148.165 104.108 147.581 103.724 146.827C103.341 146.068 103.149 145.175 103.149 144.148C103.149 143.138 103.341 142.252 103.724 141.489C104.112 140.722 104.653 140.126 105.348 139.7C106.042 139.269 106.858 139.054 107.796 139.054C108.401 139.054 108.972 139.152 109.509 139.348C110.05 139.54 110.527 139.838 110.941 140.243C111.358 140.648 111.687 141.163 111.925 141.79C112.164 142.412 112.283 143.153 112.283 144.014V144.724H104.236V143.164H110.065C110.061 142.721 109.965 142.327 109.777 141.982C109.59 141.632 109.328 141.357 108.991 141.157C108.659 140.957 108.271 140.857 107.828 140.857C107.355 140.857 106.939 140.972 106.581 141.202C106.223 141.428 105.944 141.726 105.744 142.097C105.548 142.463 105.448 142.866 105.444 143.305V144.666C105.444 145.237 105.548 145.727 105.757 146.136C105.966 146.541 106.258 146.852 106.633 147.07C107.008 147.283 107.446 147.389 107.949 147.389C108.286 147.389 108.591 147.342 108.863 147.249C109.136 147.151 109.373 147.008 109.573 146.82C109.773 146.633 109.924 146.401 110.027 146.124L112.187 146.366C112.051 146.937 111.791 147.436 111.407 147.862C111.028 148.284 110.542 148.612 109.95 148.847C109.358 149.077 108.68 149.192 107.917 149.192ZM114.241 149V139.182H116.484V140.818H116.587C116.766 140.251 117.072 139.815 117.507 139.508C117.946 139.197 118.447 139.041 119.009 139.041C119.137 139.041 119.28 139.048 119.437 139.06C119.599 139.069 119.734 139.084 119.84 139.105V141.234C119.742 141.2 119.587 141.17 119.373 141.144C119.165 141.114 118.962 141.099 118.766 141.099C118.344 141.099 117.965 141.191 117.628 141.374C117.296 141.553 117.034 141.803 116.842 142.122C116.65 142.442 116.555 142.81 116.555 143.228V149H114.241ZM129.486 149.173C128.714 149.173 128.024 148.974 127.415 148.578C126.805 148.182 126.324 147.607 125.97 146.852C125.616 146.098 125.44 145.182 125.44 144.104C125.44 143.013 125.619 142.092 125.976 141.342C126.339 140.588 126.827 140.019 127.44 139.636C128.054 139.248 128.738 139.054 129.492 139.054C130.067 139.054 130.54 139.152 130.911 139.348C131.282 139.54 131.576 139.772 131.793 140.045C132.011 140.313 132.179 140.567 132.298 140.805H132.394V135.909H134.714V149H132.439V147.453H132.298C132.179 147.692 132.006 147.945 131.78 148.214C131.555 148.478 131.256 148.704 130.886 148.891C130.515 149.079 130.048 149.173 129.486 149.173ZM130.131 147.274C130.621 147.274 131.039 147.142 131.384 146.878C131.729 146.609 131.991 146.237 132.17 145.759C132.349 145.282 132.439 144.726 132.439 144.091C132.439 143.456 132.349 142.904 132.17 142.435C131.996 141.967 131.736 141.602 131.391 141.342C131.05 141.082 130.63 140.952 130.131 140.952C129.616 140.952 129.185 141.087 128.84 141.355C128.495 141.624 128.235 141.994 128.06 142.467C127.886 142.94 127.798 143.482 127.798 144.091C127.798 144.705 127.886 145.252 128.06 145.734C128.239 146.211 128.501 146.588 128.847 146.865C129.196 147.138 129.624 147.274 130.131 147.274ZM141.527 149.192C140.542 149.192 139.692 148.987 138.976 148.578C138.265 148.165 137.717 147.581 137.334 146.827C136.95 146.068 136.758 145.175 136.758 144.148C136.758 143.138 136.95 142.252 137.334 141.489C137.721 140.722 138.263 140.126 138.957 139.7C139.652 139.269 140.468 139.054 141.405 139.054C142.01 139.054 142.581 139.152 143.118 139.348C143.66 139.54 144.137 139.838 144.55 140.243C144.968 140.648 145.296 141.163 145.535 141.79C145.773 142.412 145.892 143.153 145.892 144.014V144.724H137.845V143.164H143.674C143.67 142.721 143.574 142.327 143.387 141.982C143.199 141.632 142.937 141.357 142.601 141.157C142.268 140.957 141.88 140.857 141.437 140.857C140.964 140.857 140.549 140.972 140.191 141.202C139.833 141.428 139.554 141.726 139.353 142.097C139.157 142.463 139.057 142.866 139.053 143.305V144.666C139.053 145.237 139.157 145.727 139.366 146.136C139.575 146.541 139.867 146.852 140.242 147.07C140.617 147.283 141.056 147.389 141.559 147.389C141.895 147.389 142.2 147.342 142.473 147.249C142.745 147.151 142.982 147.008 143.182 146.82C143.383 146.633 143.534 146.401 143.636 146.124L145.797 146.366C145.66 146.937 145.4 147.436 145.017 147.862C144.638 148.284 144.152 148.612 143.559 148.847C142.967 149.077 142.29 149.192 141.527 149.192ZM147.85 149V139.182H150.094V140.818H150.196C150.375 140.251 150.682 139.815 151.116 139.508C151.555 139.197 152.056 139.041 152.619 139.041C152.746 139.041 152.889 139.048 153.047 139.06C153.209 139.069 153.343 139.084 153.449 139.105V141.234C153.351 141.2 153.196 141.17 152.983 141.144C152.774 141.114 152.572 141.099 152.376 141.099C151.954 141.099 151.574 141.191 151.238 141.374C150.905 141.553 150.643 141.803 150.452 142.122C150.26 142.442 150.164 142.81 150.164 143.228V149H147.85ZM161.561 145.919L161.555 143.126H161.925L165.454 139.182H168.158L163.817 144.014H163.338L161.561 145.919ZM159.452 149V135.909H161.766V149H159.452ZM165.614 149L162.418 144.532L163.977 142.902L168.381 149H165.614ZM173.578 149.192C172.619 149.192 171.788 148.981 171.085 148.559C170.382 148.137 169.837 147.547 169.449 146.788C169.065 146.03 168.873 145.143 168.873 144.129C168.873 143.115 169.065 142.227 169.449 141.464C169.837 140.701 170.382 140.109 171.085 139.687C171.788 139.265 172.619 139.054 173.578 139.054C174.537 139.054 175.368 139.265 176.071 139.687C176.774 140.109 177.317 140.701 177.701 141.464C178.089 142.227 178.283 143.115 178.283 144.129C178.283 145.143 178.089 146.03 177.701 146.788C177.317 147.547 176.774 148.137 176.071 148.559C175.368 148.981 174.537 149.192 173.578 149.192ZM173.591 147.338C174.111 147.338 174.545 147.195 174.895 146.91C175.244 146.62 175.504 146.232 175.675 145.746C175.849 145.261 175.937 144.719 175.937 144.123C175.937 143.522 175.849 142.979 175.675 142.493C175.504 142.003 175.244 141.613 174.895 141.323C174.545 141.033 174.111 140.888 173.591 140.888C173.058 140.888 172.615 141.033 172.261 141.323C171.912 141.613 171.65 142.003 171.475 142.493C171.305 142.979 171.219 143.522 171.219 144.123C171.219 144.719 171.305 145.261 171.475 145.746C171.65 146.232 171.912 146.62 172.261 146.91C172.615 147.195 173.058 147.338 173.591 147.338ZM180.247 149V139.182H182.458V140.85H182.573C182.778 140.288 183.117 139.849 183.59 139.533C184.063 139.214 184.627 139.054 185.283 139.054C185.948 139.054 186.509 139.216 186.965 139.54C187.425 139.859 187.749 140.296 187.936 140.85H188.038C188.256 140.305 188.622 139.87 189.138 139.546C189.658 139.218 190.274 139.054 190.985 139.054C191.889 139.054 192.626 139.339 193.197 139.911C193.768 140.482 194.053 141.315 194.053 142.41V149H191.733V142.768C191.733 142.158 191.571 141.713 191.247 141.432C190.923 141.146 190.527 141.004 190.058 141.004C189.5 141.004 189.063 141.178 188.748 141.528C188.437 141.873 188.281 142.322 188.281 142.876V149H186.012V142.672C186.012 142.165 185.859 141.76 185.552 141.457C185.249 141.155 184.853 141.004 184.363 141.004C184.031 141.004 183.728 141.089 183.455 141.259C183.183 141.425 182.965 141.662 182.803 141.969C182.641 142.271 182.56 142.625 182.56 143.03V149H180.247ZM196.401 149V139.182H198.612V140.85H198.728C198.932 140.288 199.271 139.849 199.744 139.533C200.217 139.214 200.782 139.054 201.438 139.054C202.103 139.054 202.663 139.216 203.119 139.54C203.579 139.859 203.903 140.296 204.09 140.85H204.193C204.41 140.305 204.777 139.87 205.292 139.546C205.812 139.218 206.428 139.054 207.139 139.054C208.043 139.054 208.78 139.339 209.351 139.911C209.922 140.482 210.208 141.315 210.208 142.41V149H207.887V142.768C207.887 142.158 207.725 141.713 207.402 141.432C207.078 141.146 206.681 141.004 206.213 141.004C205.654 141.004 205.218 141.178 204.902 141.528C204.591 141.873 204.436 142.322 204.436 142.876V149H202.166V142.672C202.166 142.165 202.013 141.76 201.706 141.457C201.404 141.155 201.007 141.004 200.517 141.004C200.185 141.004 199.882 141.089 199.61 141.259C199.337 141.425 199.12 141.662 198.958 141.969C198.796 142.271 198.715 142.625 198.715 143.03V149H196.401ZM216.902 149.192C215.917 149.192 215.067 148.987 214.351 148.578C213.64 148.165 213.092 147.581 212.709 146.827C212.325 146.068 212.133 145.175 212.133 144.148C212.133 143.138 212.325 142.252 212.709 141.489C213.096 140.722 213.638 140.126 214.332 139.7C215.027 139.269 215.843 139.054 216.78 139.054C217.385 139.054 217.956 139.152 218.493 139.348C219.035 139.54 219.512 139.838 219.925 140.243C220.343 140.648 220.671 141.163 220.91 141.79C221.148 142.412 221.267 143.153 221.267 144.014V144.724H213.22V143.164H219.049C219.045 142.721 218.949 142.327 218.762 141.982C218.574 141.632 218.312 141.357 217.976 141.157C217.643 140.957 217.255 140.857 216.812 140.857C216.339 140.857 215.924 140.972 215.566 141.202C215.208 141.428 214.929 141.726 214.728 142.097C214.532 142.463 214.432 142.866 214.428 143.305V144.666C214.428 145.237 214.532 145.727 214.741 146.136C214.95 146.541 215.242 146.852 215.617 147.07C215.992 147.283 216.431 147.389 216.934 147.389C217.27 147.389 217.575 147.342 217.848 147.249C218.12 147.151 218.357 147.008 218.557 146.82C218.758 146.633 218.909 146.401 219.011 146.124L221.172 146.366C221.035 146.937 220.775 147.436 220.392 147.862C220.013 148.284 219.527 148.612 218.934 148.847C218.342 149.077 217.665 149.192 216.902 149.192ZM223.225 149V139.182H225.469V140.818H225.571C225.75 140.251 226.057 139.815 226.491 139.508C226.93 139.197 227.431 139.041 227.994 139.041C228.121 139.041 228.264 139.048 228.422 139.06C228.584 139.069 228.718 139.084 228.824 139.105V141.234C228.726 141.2 228.571 141.17 228.358 141.144C228.149 141.114 227.947 141.099 227.751 141.099C227.329 141.099 226.949 141.191 226.613 141.374C226.28 141.553 226.018 141.803 225.827 142.122C225.635 142.442 225.539 142.81 225.539 143.228V149H223.225ZM239.8 139.182V140.972H233.996V139.182H239.8ZM235.447 149V138.255C235.447 137.594 235.583 137.045 235.856 136.606C236.133 136.167 236.503 135.839 236.968 135.621C237.432 135.404 237.948 135.295 238.515 135.295C238.915 135.295 239.271 135.327 239.582 135.391C239.893 135.455 240.123 135.513 240.273 135.564L239.812 137.354C239.714 137.324 239.591 137.294 239.442 137.264C239.293 137.23 239.126 137.213 238.943 137.213C238.513 137.213 238.208 137.317 238.029 137.526C237.854 137.731 237.767 138.025 237.767 138.408V149H235.447ZM241.612 149V139.182H243.855V140.818H243.958C244.137 140.251 244.443 139.815 244.878 139.508C245.317 139.197 245.818 139.041 246.38 139.041C246.508 139.041 246.651 139.048 246.809 139.06C246.97 139.069 247.105 139.084 247.211 139.105V141.234C247.113 141.2 246.958 141.17 246.745 141.144C246.536 141.114 246.333 141.099 246.137 141.099C245.715 141.099 245.336 141.191 245 141.374C244.667 141.553 244.405 141.803 244.213 142.122C244.022 142.442 243.926 142.81 243.926 143.228V149H241.612ZM251.398 149.198C250.776 149.198 250.215 149.087 249.717 148.866C249.223 148.64 248.831 148.308 248.541 147.869C248.255 147.43 248.112 146.888 248.112 146.245C248.112 145.691 248.215 145.233 248.419 144.871C248.624 144.509 248.903 144.219 249.257 144.001C249.61 143.784 250.009 143.62 250.452 143.509C250.899 143.394 251.362 143.311 251.839 143.26C252.414 143.2 252.881 143.147 253.239 143.1C253.597 143.049 253.857 142.972 254.019 142.87C254.185 142.763 254.268 142.599 254.268 142.378V142.339C254.268 141.858 254.125 141.485 253.84 141.221C253.554 140.957 253.143 140.825 252.606 140.825C252.039 140.825 251.59 140.948 251.257 141.195C250.929 141.442 250.708 141.734 250.593 142.071L248.432 141.764C248.603 141.168 248.884 140.669 249.276 140.268C249.668 139.864 250.147 139.561 250.714 139.361C251.281 139.156 251.907 139.054 252.593 139.054C253.066 139.054 253.537 139.109 254.006 139.22C254.475 139.331 254.903 139.514 255.291 139.77C255.679 140.021 255.99 140.364 256.224 140.799C256.463 141.234 256.582 141.777 256.582 142.429V149H254.358V147.651H254.281C254.14 147.924 253.942 148.18 253.686 148.418C253.435 148.653 253.117 148.842 252.734 148.987C252.355 149.128 251.909 149.198 251.398 149.198ZM251.999 147.498C252.463 147.498 252.866 147.406 253.207 147.223C253.548 147.036 253.81 146.788 253.993 146.482C254.181 146.175 254.274 145.84 254.274 145.478V144.321C254.202 144.381 254.078 144.436 253.904 144.487C253.733 144.538 253.541 144.583 253.328 144.621C253.115 144.66 252.904 144.694 252.696 144.724C252.487 144.754 252.306 144.779 252.152 144.8C251.807 144.847 251.498 144.924 251.225 145.031C250.953 145.137 250.737 145.286 250.58 145.478C250.422 145.665 250.343 145.908 250.343 146.207C250.343 146.633 250.499 146.955 250.81 147.172C251.121 147.389 251.517 147.498 251.999 147.498ZM114.456 162.909V176H112.084V162.909H114.456ZM121.824 166.182V167.972H116.18V166.182H121.824ZM117.573 163.83H119.887V173.047C119.887 173.358 119.934 173.597 120.028 173.763C120.126 173.925 120.254 174.036 120.411 174.095C120.569 174.155 120.744 174.185 120.936 174.185C121.08 174.185 121.213 174.174 121.332 174.153C121.455 174.131 121.549 174.112 121.613 174.095L122.003 175.904C121.879 175.947 121.703 175.994 121.472 176.045C121.247 176.096 120.97 176.126 120.642 176.134C120.062 176.151 119.54 176.064 119.075 175.872C118.611 175.676 118.242 175.374 117.97 174.964C117.701 174.555 117.569 174.044 117.573 173.43V163.83ZM126.585 176.198C125.962 176.198 125.402 176.087 124.903 175.866C124.409 175.64 124.017 175.308 123.727 174.869C123.442 174.43 123.299 173.888 123.299 173.245C123.299 172.691 123.401 172.233 123.606 171.871C123.81 171.509 124.089 171.219 124.443 171.001C124.797 170.784 125.195 170.62 125.638 170.509C126.086 170.394 126.548 170.311 127.026 170.26C127.601 170.2 128.067 170.147 128.425 170.1C128.783 170.049 129.043 169.972 129.205 169.87C129.371 169.763 129.455 169.599 129.455 169.378V169.339C129.455 168.858 129.312 168.485 129.026 168.221C128.741 167.957 128.33 167.825 127.793 167.825C127.226 167.825 126.776 167.948 126.444 168.195C126.116 168.442 125.894 168.734 125.779 169.071L123.619 168.764C123.789 168.168 124.07 167.669 124.462 167.268C124.854 166.864 125.334 166.561 125.901 166.361C126.467 166.156 127.094 166.054 127.78 166.054C128.253 166.054 128.724 166.109 129.192 166.22C129.661 166.331 130.089 166.514 130.477 166.77C130.865 167.021 131.176 167.364 131.411 167.799C131.649 168.234 131.768 168.777 131.768 169.429V176H129.544V174.651H129.467C129.327 174.924 129.129 175.18 128.873 175.418C128.621 175.653 128.304 175.842 127.92 175.987C127.541 176.128 127.096 176.198 126.585 176.198ZM127.185 174.498C127.65 174.498 128.053 174.406 128.393 174.223C128.734 174.036 128.996 173.788 129.18 173.482C129.367 173.175 129.461 172.84 129.461 172.478V171.321C129.388 171.381 129.265 171.436 129.09 171.487C128.92 171.538 128.728 171.583 128.515 171.621C128.302 171.66 128.091 171.694 127.882 171.724C127.673 171.754 127.492 171.779 127.339 171.8C126.994 171.847 126.685 171.924 126.412 172.031C126.139 172.137 125.924 172.286 125.766 172.478C125.609 172.665 125.53 172.908 125.53 173.207C125.53 173.633 125.685 173.955 125.996 174.172C126.308 174.389 126.704 174.498 127.185 174.498ZM136.409 162.909V176H134.095V162.909H136.409ZM138.789 176V166.182H141.102V176H138.789ZM139.952 164.788C139.585 164.788 139.27 164.667 139.006 164.424C138.742 164.177 138.61 163.881 138.61 163.536C138.61 163.186 138.742 162.89 139.006 162.647C139.27 162.4 139.585 162.276 139.952 162.276C140.323 162.276 140.638 162.4 140.898 162.647C141.162 162.89 141.294 163.186 141.294 163.536C141.294 163.881 141.162 164.177 140.898 164.424C140.638 164.667 140.323 164.788 139.952 164.788ZM147.828 176.192C146.844 176.192 145.994 175.987 145.278 175.578C144.566 175.165 144.019 174.581 143.635 173.827C143.252 173.068 143.06 172.175 143.06 171.148C143.06 170.138 143.252 169.252 143.635 168.489C144.023 167.722 144.564 167.126 145.259 166.7C145.953 166.269 146.77 166.054 147.707 166.054C148.312 166.054 148.883 166.152 149.42 166.348C149.961 166.54 150.439 166.838 150.852 167.243C151.27 167.648 151.598 168.163 151.836 168.79C152.075 169.412 152.194 170.153 152.194 171.014V171.724H144.147V170.164H149.976C149.972 169.721 149.876 169.327 149.689 168.982C149.501 168.632 149.239 168.357 148.902 168.157C148.57 167.957 148.182 167.857 147.739 167.857C147.266 167.857 146.85 167.972 146.493 168.202C146.135 168.428 145.855 168.726 145.655 169.097C145.459 169.463 145.359 169.866 145.355 170.305V171.666C145.355 172.237 145.459 172.727 145.668 173.136C145.877 173.541 146.169 173.852 146.544 174.07C146.919 174.283 147.358 174.389 147.86 174.389C148.197 174.389 148.502 174.342 148.775 174.249C149.047 174.151 149.284 174.008 149.484 173.82C149.684 173.633 149.836 173.401 149.938 173.124L152.098 173.366C151.962 173.937 151.702 174.436 151.319 174.862C150.939 175.284 150.453 175.612 149.861 175.847C149.269 176.077 148.591 176.192 147.828 176.192ZM156.466 170.247V176H154.152V166.182H156.363V167.85H156.479C156.704 167.3 157.064 166.864 157.559 166.54C158.057 166.216 158.673 166.054 159.406 166.054C160.084 166.054 160.674 166.199 161.177 166.489C161.684 166.778 162.076 167.198 162.353 167.748C162.634 168.298 162.773 168.964 162.768 169.749V176H160.454V170.107C160.454 169.45 160.284 168.937 159.943 168.566C159.606 168.195 159.14 168.01 158.543 168.01C158.138 168.01 157.778 168.099 157.463 168.278C157.152 168.453 156.907 168.707 156.728 169.039C156.553 169.371 156.466 169.774 156.466 170.247ZM166.546 176.141C166.158 176.141 165.826 176.004 165.549 175.732C165.272 175.459 165.135 175.126 165.14 174.734C165.135 174.351 165.272 174.023 165.549 173.75C165.826 173.477 166.158 173.341 166.546 173.341C166.921 173.341 167.247 173.477 167.524 173.75C167.805 174.023 167.948 174.351 167.952 174.734C167.948 174.994 167.88 175.231 167.748 175.444C167.62 175.657 167.449 175.827 167.236 175.955C167.028 176.079 166.797 176.141 166.546 176.141Z" fill="#F291BA"/>
</svg>
