<svg width="279" height="154" viewBox="0 0 279 154" fill="none" xmlns="http://www.w3.org/2000/svg">
<path d="M118.313 9.79248C120.896 12.3763 123.437 13.5973 125.713 14.1091C129.228 14.9046 131.065 13.77 134.346 14.7258C137.861 15.7556 139.908 18.2716 141.129 19.6591C152.525 32.6461 172.382 39.2506 170.729 48.6425C170.661 49.031 170.507 49.697 170.113 50.4925L153.463 68.9925C152.661 69.3625 151.995 69.529 151.613 69.6091C141.345 71.7428 132.163 53.582 118.929 40.6258C117.745 39.4665 116.259 38.0851 115.229 35.6925C113.496 31.6595 114.952 29.1311 113.379 25.2091C112.787 23.723 111.615 21.688 109.062 19.6591C112.146 16.3723 115.229 13.0793 118.313 9.79248V9.79248Z" stroke="#F291BA" stroke-width="2" stroke-miterlimit="10"/>
<path d="M118.536 5.68438L117.723 4.91125C116.713 3.9517 115.117 3.99239 114.157 5.00213L103.813 15.887C102.854 16.8968 102.894 18.4932 103.904 19.4527L104.718 20.2259C105.727 21.1854 107.324 21.1447 108.283 20.135L118.627 9.25011C119.587 8.24036 119.546 6.64393 118.536 5.68438Z" stroke="#F291BA" stroke-width="2" stroke-miterlimit="10"/>
<path d="M138.354 24.2842C142.424 28.3727 146.142 31.1353 148.837 32.9175C161.405 41.2487 163.02 42.1675 163.02 42.1675C163.951 42.63 166.634 43.5858 167.337 45.8675C167.627 46.8172 167.497 47.7113 167.337 48.3342C164.667 51.4175 161.99 54.5008 159.32 57.5842" stroke="#F291BA" stroke-width="2" stroke-miterlimit="10" stroke-linecap="round"/>
<path d="M118.188 39.7011C117.935 38.2766 117.75 35.8284 118.928 33.2939C119.458 32.1592 119.964 31.0677 121.154 30.4449C122.505 29.7357 123.294 30.3894 125.607 29.7357C126.254 29.5507 127.407 29.2116 128.573 28.3112C129.128 27.8857 130.318 26.9607 130.799 25.4622C131.403 23.5814 130.207 22.8722 130.799 21.1949C131.366 19.5792 132.982 18.7529 133.765 18.3459C135.985 17.2112 138.168 17.4887 138.957 17.6367" stroke="#F291BA" stroke-width="2" stroke-miterlimit="10"/>
<path d="M6.39569 106.909H9.29767L13.184 116.395H13.3374L17.2238 106.909H20.1258V120H17.8502V111.006H17.7288L14.1109 119.962H12.4106L8.7927 110.987H8.67125V120H6.39569V106.909ZM32.9099 120.192C31.9426 120.192 31.1095 119.972 30.4106 119.533C29.716 119.09 29.2579 118.481 29.0363 117.705L29.0747 112.227C29.4497 111.507 29.9376 110.966 30.5384 110.604C31.1436 110.237 31.8573 110.054 32.6798 110.054C33.2806 110.054 33.8495 110.152 34.3865 110.348C34.9276 110.54 35.407 110.838 35.8247 111.243C36.2423 111.648 36.5683 112.163 36.8026 112.79C37.0413 113.412 37.1606 114.153 37.1606 115.014V115.724H29.2472V114.164H34.9426C34.9383 113.721 34.8424 113.327 34.6549 112.982C34.4674 112.632 34.2053 112.357 33.8687 112.157C33.5363 111.957 33.1485 111.857 32.7053 111.857C32.2323 111.857 31.8169 111.972 31.4589 112.202C31.1009 112.428 30.8218 112.726 30.6215 113.097C30.4255 113.467 30.3275 113.87 30.3275 114.305V115.666C30.3275 116.237 30.4319 116.727 30.6407 117.136C30.8495 117.541 31.1414 117.852 31.5164 118.07C31.8914 118.283 32.3303 118.389 32.8332 118.389C33.1656 118.389 33.4681 118.342 33.7409 118.249C34.0178 118.151 34.2544 118.008 34.4504 117.82C34.6507 117.633 34.8019 117.401 34.9042 117.124L37.0711 117.366C36.9347 117.937 36.6748 118.436 36.2913 118.862C35.9078 119.284 35.4284 119.612 34.8531 119.847C34.2778 120.077 33.6301 120.192 32.9099 120.192ZM26.032 118.498C26.4965 118.498 26.8992 118.406 27.2401 118.223C27.5811 118.036 27.8431 117.788 28.0264 117.482C28.2139 117.175 28.3076 116.84 28.3076 116.478V115.321C28.2352 115.381 28.1116 115.436 27.9369 115.487C27.7664 115.538 27.5747 115.583 27.3616 115.621C27.1485 115.66 26.9376 115.694 26.7288 115.724C26.52 115.754 26.3389 115.779 26.1855 115.8C25.8403 115.847 25.5313 115.924 25.2586 116.031C24.9859 116.137 24.7707 116.286 24.613 116.478C24.4553 116.665 24.3765 116.908 24.3765 117.207C24.3765 117.633 24.532 117.955 24.8431 118.172C25.1542 118.389 25.5505 118.498 26.032 118.498ZM25.5335 120.198C24.8772 120.198 24.2934 120.087 23.782 119.866C23.2707 119.64 22.8701 119.308 22.5803 118.869C22.2906 118.43 22.1457 117.888 22.1457 117.245C22.1457 116.691 22.248 116.233 22.4525 115.871C22.6613 115.509 22.9426 115.219 23.2963 115.001C23.6499 114.78 24.0484 114.614 24.4916 114.503C24.939 114.392 25.3992 114.311 25.8722 114.26C26.4518 114.2 26.9184 114.145 27.2721 114.094C27.6301 114.043 27.89 113.966 28.0519 113.864C28.2181 113.757 28.3012 113.595 28.3012 113.378V113.339C28.3012 112.858 28.1585 112.485 27.873 112.221C27.5874 111.957 27.1762 111.825 26.6393 111.825C26.0768 111.825 25.6294 111.948 25.297 112.195C24.9646 112.442 24.7409 112.734 24.6258 113.071L22.4653 112.764C22.6357 112.168 22.917 111.669 23.309 111.268C23.7011 110.864 24.1805 110.561 24.7472 110.361C25.3183 110.156 25.9553 110.054 26.6585 110.054C26.9482 110.054 27.2465 110.082 27.5534 110.137C27.8644 110.188 28.1649 110.28 28.4546 110.412C28.7487 110.544 29.0129 110.727 29.2472 110.962C29.4816 111.196 29.6627 111.496 29.7906 111.863L29.3815 118.332H29.2217C29.064 118.698 28.7998 119.022 28.4291 119.303C28.0626 119.585 27.6279 119.804 27.1251 119.962C26.6265 120.119 26.096 120.198 25.5335 120.198ZM41.4257 106.909V120H39.1118V106.909H41.4257ZM45.9145 116.919L45.9081 114.126H46.2789L49.8073 110.182H52.5111L48.1709 115.014H47.6915L45.9145 116.919ZM43.8051 120V106.909H46.1191V120H43.8051ZM49.9671 120L46.771 115.532L48.3307 113.902L52.7348 120H49.9671ZM62.8007 120.192C61.8419 120.192 61.0109 119.981 60.3078 119.559C59.6047 119.137 59.0592 118.547 58.6714 117.788C58.2879 117.03 58.0961 116.143 58.0961 115.129C58.0961 114.115 58.2879 113.227 58.6714 112.464C59.0592 111.701 59.6047 111.109 60.3078 110.687C61.0109 110.265 61.8419 110.054 62.8007 110.054C63.7595 110.054 64.5905 110.265 65.2936 110.687C65.9967 111.109 66.54 111.701 66.9236 112.464C67.3113 113.227 67.5052 114.115 67.5052 115.129C67.5052 116.143 67.3113 117.03 66.9236 117.788C66.54 118.547 65.9967 119.137 65.2936 119.559C64.5905 119.981 63.7595 120.192 62.8007 120.192ZM62.8135 118.338C63.3334 118.338 63.768 118.195 64.1175 117.91C64.4669 117.62 64.7268 117.232 64.8973 116.746C65.072 116.261 65.1594 115.719 65.1594 115.123C65.1594 114.522 65.072 113.979 64.8973 113.493C64.7268 113.003 64.4669 112.613 64.1175 112.323C63.768 112.033 63.3334 111.888 62.8135 111.888C62.2808 111.888 61.8376 112.033 61.4839 112.323C61.1345 112.613 60.8724 113.003 60.6977 113.493C60.5273 113.979 60.442 114.522 60.442 115.123C60.442 115.719 60.5273 116.261 60.6977 116.746C60.8724 117.232 61.1345 117.62 61.4839 117.91C61.8376 118.195 62.2808 118.338 62.8135 118.338ZM73.7391 123.886C72.9081 123.886 72.1943 123.773 71.5977 123.548C71.0012 123.326 70.5218 123.028 70.1595 122.653C69.7973 122.278 69.5459 121.862 69.4053 121.406L71.4891 120.901C71.5828 121.093 71.7192 121.283 71.8982 121.47C72.0771 121.662 72.3179 121.82 72.6205 121.943C72.9273 122.071 73.3129 122.135 73.7774 122.135C74.4337 122.135 74.977 121.975 75.4074 121.656C75.8378 121.34 76.053 120.82 76.053 120.096V118.236H75.9379C75.8186 118.474 75.6439 118.719 75.4138 118.971C75.1879 119.222 74.8875 119.433 74.5125 119.604C74.1418 119.774 73.6752 119.859 73.1127 119.859C72.3584 119.859 71.6744 119.683 71.0608 119.329C70.4514 118.971 69.9656 118.438 69.6034 117.731C69.2455 117.019 69.0665 116.129 69.0665 115.059C69.0665 113.981 69.2455 113.071 69.6034 112.33C69.9656 111.584 70.4536 111.019 71.0672 110.636C71.6808 110.248 72.3648 110.054 73.1191 110.054C73.6943 110.054 74.1673 110.152 74.5381 110.348C74.9131 110.54 75.2114 110.772 75.433 111.045C75.6546 111.313 75.8229 111.567 75.9379 111.805H76.0658V110.182H78.3477V120.16C78.3477 120.999 78.1475 121.694 77.7469 122.244C77.3463 122.793 76.7987 123.205 76.1041 123.477C75.4095 123.75 74.6212 123.886 73.7391 123.886ZM73.7583 118.044C74.2483 118.044 74.6659 117.925 75.0111 117.686C75.3563 117.447 75.6183 117.104 75.7973 116.657C75.9763 116.21 76.0658 115.673 76.0658 115.046C76.0658 114.428 75.9763 113.887 75.7973 113.423C75.6226 112.958 75.3627 112.598 75.0175 112.342C74.6766 112.082 74.2568 111.952 73.7583 111.952C73.2426 111.952 72.8122 112.087 72.4671 112.355C72.1219 112.624 71.8619 112.992 71.6872 113.461C71.5125 113.925 71.4252 114.454 71.4252 115.046C71.4252 115.647 71.5125 116.173 71.6872 116.625C71.8662 117.072 72.1283 117.422 72.4735 117.673C72.8229 117.92 73.2512 118.044 73.7583 118.044ZM90.157 110.182V111.972H84.3531V110.182H90.157ZM85.8041 120V109.255C85.8041 108.594 85.9404 108.045 86.2132 107.606C86.4901 107.167 86.8609 106.839 87.3254 106.621C87.7899 106.404 88.3055 106.295 88.8722 106.295C89.2728 106.295 89.6286 106.327 89.9397 106.391C90.2508 106.455 90.4809 106.513 90.6301 106.564L90.1698 108.354C90.0718 108.324 89.9482 108.294 89.7991 108.264C89.6499 108.23 89.4838 108.213 89.3005 108.213C88.8701 108.213 88.5654 108.317 88.3865 108.526C88.2117 108.731 88.1244 109.025 88.1244 109.408V120H85.8041ZM94.2831 106.909V120H91.9692V106.909H94.2831ZM98.0241 120.601L96.8671 119.808L103.854 109.658L105.023 110.45L98.0241 120.601ZM100.945 120.205C99.9864 120.205 99.1555 119.994 98.4523 119.572C97.7492 119.15 97.2037 118.56 96.816 117.801C96.4324 117.038 96.2407 116.152 96.2407 115.142C96.2407 114.128 96.4324 113.239 96.816 112.477C97.2037 111.714 97.7492 111.121 98.4523 110.7C99.1555 110.278 99.9864 110.067 100.945 110.067C101.904 110.067 102.735 110.278 103.438 110.7C104.141 111.121 104.685 111.714 105.068 112.477C105.456 113.239 105.65 114.128 105.65 115.142C105.65 116.152 105.456 117.038 105.068 117.801C104.685 118.56 104.141 119.15 103.438 119.572C102.735 119.994 101.904 120.205 100.945 120.205ZM100.958 118.351C101.478 118.351 101.913 118.208 102.262 117.923C102.611 117.633 102.871 117.245 103.042 116.759C103.217 116.273 103.304 115.73 103.304 115.129C103.304 114.533 103.217 113.991 103.042 113.506C102.871 113.016 102.611 112.626 102.262 112.336C101.913 112.046 101.478 111.901 100.958 111.901C100.425 111.901 99.9822 112.046 99.6285 112.336C99.279 112.626 99.017 113.016 98.8422 113.506C98.6718 113.991 98.5866 114.533 98.5866 115.129C98.5866 115.73 98.6718 116.273 98.8422 116.759C99.017 117.245 99.279 117.633 99.6285 117.923C99.9822 118.208 100.425 118.351 100.958 118.351ZM111.257 120.173C110.486 120.173 109.796 119.974 109.186 119.578C108.577 119.182 108.095 118.607 107.742 117.852C107.388 117.098 107.211 116.182 107.211 115.104C107.211 114.013 107.39 113.092 107.748 112.342C108.11 111.588 108.598 111.019 109.212 110.636C109.825 110.248 110.509 110.054 111.264 110.054C111.839 110.054 112.312 110.152 112.683 110.348C113.053 110.54 113.347 110.772 113.565 111.045C113.782 111.313 113.95 111.567 114.07 111.805H114.166V106.909H116.486V120H114.21V118.453H114.07C113.95 118.692 113.778 118.945 113.552 119.214C113.326 119.478 113.028 119.704 112.657 119.891C112.286 120.079 111.82 120.173 111.257 120.173ZM111.903 118.274C112.393 118.274 112.81 118.142 113.156 117.878C113.501 117.609 113.763 117.237 113.942 116.759C114.121 116.282 114.21 115.726 114.21 115.091C114.21 114.456 114.121 113.904 113.942 113.435C113.767 112.967 113.507 112.602 113.162 112.342C112.821 112.082 112.401 111.952 111.903 111.952C111.387 111.952 110.957 112.087 110.612 112.355C110.266 112.624 110.006 112.994 109.832 113.467C109.657 113.94 109.57 114.482 109.57 115.091C109.57 115.705 109.657 116.252 109.832 116.734C110.011 117.211 110.273 117.588 110.618 117.865C110.967 118.138 111.396 118.274 111.903 118.274ZM123.298 120.192C122.314 120.192 121.464 119.987 120.748 119.578C120.036 119.165 119.489 118.581 119.105 117.827C118.722 117.068 118.53 116.175 118.53 115.148C118.53 114.138 118.722 113.252 119.105 112.489C119.493 111.722 120.034 111.126 120.729 110.7C121.423 110.269 122.239 110.054 123.177 110.054C123.782 110.054 124.353 110.152 124.89 110.348C125.431 110.54 125.908 110.838 126.322 111.243C126.739 111.648 127.067 112.163 127.306 112.79C127.545 113.412 127.664 114.153 127.664 115.014V115.724H119.616V114.164H125.446C125.442 113.721 125.346 113.327 125.158 112.982C124.971 112.632 124.709 112.357 124.372 112.157C124.04 111.957 123.652 111.857 123.209 111.857C122.736 111.857 122.32 111.972 121.962 112.202C121.604 112.428 121.325 112.726 121.125 113.097C120.929 113.463 120.829 113.866 120.824 114.305V115.666C120.824 116.237 120.929 116.727 121.138 117.136C121.347 117.541 121.638 117.852 122.013 118.07C122.388 118.283 122.827 118.389 123.33 118.389C123.667 118.389 123.972 118.342 124.244 118.249C124.517 118.151 124.753 118.008 124.954 117.82C125.154 117.633 125.305 117.401 125.408 117.124L127.568 117.366C127.432 117.937 127.172 118.436 126.788 118.862C126.409 119.284 125.923 119.612 125.331 119.847C124.739 120.077 124.061 120.192 123.298 120.192ZM141.846 112.777L139.737 113.007C139.677 112.794 139.573 112.594 139.424 112.406C139.279 112.219 139.083 112.067 138.836 111.952C138.589 111.837 138.286 111.78 137.928 111.78C137.446 111.78 137.042 111.884 136.714 112.093C136.39 112.302 136.23 112.572 136.234 112.905C136.23 113.19 136.334 113.423 136.547 113.602C136.765 113.781 137.123 113.928 137.621 114.043L139.296 114.401C140.225 114.601 140.915 114.918 141.367 115.353C141.823 115.788 142.053 116.357 142.057 117.06C142.053 117.678 141.872 118.223 141.514 118.696C141.16 119.165 140.668 119.531 140.037 119.795C139.407 120.06 138.682 120.192 137.864 120.192C136.662 120.192 135.695 119.94 134.962 119.438C134.229 118.93 133.792 118.225 133.652 117.322L135.908 117.104C136.01 117.548 136.228 117.882 136.56 118.108C136.892 118.334 137.325 118.447 137.858 118.447C138.407 118.447 138.848 118.334 139.181 118.108C139.517 117.882 139.686 117.603 139.686 117.271C139.686 116.989 139.577 116.757 139.36 116.574C139.147 116.391 138.814 116.25 138.363 116.152L136.688 115.8C135.746 115.604 135.049 115.274 134.598 114.81C134.146 114.341 133.922 113.749 133.927 113.033C133.922 112.428 134.086 111.903 134.419 111.46C134.755 111.013 135.222 110.668 135.819 110.425C136.419 110.178 137.112 110.054 137.896 110.054C139.047 110.054 139.952 110.299 140.613 110.789C141.277 111.279 141.689 111.942 141.846 112.777ZM148.248 120.192C147.289 120.192 146.458 119.981 145.755 119.559C145.052 119.137 144.506 118.547 144.119 117.788C143.735 117.03 143.543 116.143 143.543 115.129C143.543 114.115 143.735 113.227 144.119 112.464C144.506 111.701 145.052 111.109 145.755 110.687C146.458 110.265 147.289 110.054 148.248 110.054C149.207 110.054 150.038 110.265 150.741 110.687C151.444 111.109 151.987 111.701 152.371 112.464C152.759 113.227 152.953 114.115 152.953 115.129C152.953 116.143 152.759 117.03 152.371 117.788C151.987 118.547 151.444 119.137 150.741 119.559C150.038 119.981 149.207 120.192 148.248 120.192ZM148.261 118.338C148.781 118.338 149.215 118.195 149.565 117.91C149.914 117.62 150.174 117.232 150.345 116.746C150.519 116.261 150.607 115.719 150.607 115.123C150.607 114.522 150.519 113.979 150.345 113.493C150.174 113.003 149.914 112.613 149.565 112.323C149.215 112.033 148.781 111.888 148.261 111.888C147.728 111.888 147.285 112.033 146.931 112.323C146.582 112.613 146.32 113.003 146.145 113.493C145.975 113.979 145.889 114.522 145.889 115.123C145.889 115.719 145.975 116.261 146.145 116.746C146.32 117.232 146.582 117.62 146.931 117.91C147.285 118.195 147.728 118.338 148.261 118.338ZM154.916 120V110.182H157.128V111.85H157.243C157.448 111.288 157.786 110.849 158.259 110.533C158.733 110.214 159.297 110.054 159.953 110.054C160.618 110.054 161.179 110.216 161.634 110.54C162.095 110.859 162.419 111.296 162.606 111.85H162.708C162.926 111.305 163.292 110.87 163.808 110.546C164.328 110.218 164.943 110.054 165.655 110.054C166.559 110.054 167.296 110.339 167.867 110.911C168.438 111.482 168.723 112.315 168.723 113.41V120H166.403V113.768C166.403 113.158 166.241 112.713 165.917 112.432C165.593 112.146 165.197 112.004 164.728 112.004C164.17 112.004 163.733 112.178 163.418 112.528C163.107 112.873 162.951 113.322 162.951 113.876V120H160.682V113.672C160.682 113.165 160.529 112.76 160.222 112.457C159.919 112.155 159.523 112.004 159.033 112.004C158.701 112.004 158.398 112.089 158.125 112.259C157.853 112.425 157.635 112.662 157.473 112.969C157.311 113.271 157.23 113.625 157.23 114.03V120H154.916ZM178.361 120.198C177.739 120.198 177.178 120.087 176.68 119.866C176.185 119.64 175.793 119.308 175.504 118.869C175.218 118.43 175.075 117.888 175.075 117.245C175.075 116.691 175.178 116.233 175.382 115.871C175.587 115.509 175.866 115.219 176.22 115.001C176.573 114.784 176.972 114.62 177.415 114.509C177.862 114.394 178.325 114.311 178.802 114.26C179.377 114.2 179.844 114.147 180.202 114.1C180.56 114.049 180.82 113.972 180.982 113.87C181.148 113.763 181.231 113.599 181.231 113.378V113.339C181.231 112.858 181.088 112.485 180.803 112.221C180.517 111.957 180.106 111.825 179.569 111.825C179.002 111.825 178.553 111.948 178.22 112.195C177.892 112.442 177.671 112.734 177.555 113.071L175.395 112.764C175.565 112.168 175.847 111.669 176.239 111.268C176.631 110.864 177.11 110.561 177.677 110.361C178.244 110.156 178.87 110.054 179.556 110.054C180.029 110.054 180.5 110.109 180.969 110.22C181.438 110.331 181.866 110.514 182.254 110.77C182.641 111.021 182.953 111.364 183.187 111.799C183.426 112.234 183.545 112.777 183.545 113.429V120H181.32V118.651H181.244C181.103 118.924 180.905 119.18 180.649 119.418C180.398 119.653 180.08 119.842 179.697 119.987C179.318 120.128 178.872 120.198 178.361 120.198ZM178.962 118.498C179.426 118.498 179.829 118.406 180.17 118.223C180.511 118.036 180.773 117.788 180.956 117.482C181.144 117.175 181.237 116.84 181.237 116.478V115.321C181.165 115.381 181.041 115.436 180.867 115.487C180.696 115.538 180.504 115.583 180.291 115.621C180.078 115.66 179.867 115.694 179.658 115.724C179.45 115.754 179.269 115.779 179.115 115.8C178.77 115.847 178.461 115.924 178.188 116.031C177.916 116.137 177.7 116.286 177.543 116.478C177.385 116.665 177.306 116.908 177.306 117.207C177.306 117.633 177.462 117.955 177.773 118.172C178.084 118.389 178.48 118.498 178.962 118.498ZM188.185 106.909V120H185.872V106.909H188.185ZM195.468 110.182V111.972H189.823V110.182H195.468ZM191.217 107.83H193.531V117.047C193.531 117.358 193.578 117.597 193.671 117.763C193.769 117.925 193.897 118.036 194.055 118.095C194.213 118.155 194.387 118.185 194.579 118.185C194.724 118.185 194.856 118.174 194.975 118.153C195.099 118.131 195.193 118.112 195.257 118.095L195.647 119.904C195.523 119.947 195.346 119.994 195.116 120.045C194.89 120.096 194.613 120.126 194.285 120.134C193.706 120.151 193.184 120.064 192.719 119.872C192.255 119.676 191.886 119.374 191.613 118.964C191.345 118.555 191.213 118.044 191.217 117.43V107.83ZM209.628 112.777L207.518 113.007C207.459 112.794 207.354 112.594 207.205 112.406C207.06 112.219 206.864 112.067 206.617 111.952C206.37 111.837 206.067 111.78 205.709 111.78C205.228 111.78 204.823 111.884 204.495 112.093C204.171 112.302 204.011 112.572 204.015 112.905C204.011 113.19 204.116 113.423 204.329 113.602C204.546 113.781 204.904 113.928 205.402 114.043L207.077 114.401C208.006 114.601 208.696 114.918 209.148 115.353C209.604 115.788 209.834 116.357 209.839 117.06C209.834 117.678 209.653 118.223 209.295 118.696C208.941 119.165 208.449 119.531 207.819 119.795C207.188 120.06 206.464 120.192 205.645 120.192C204.444 120.192 203.476 119.94 202.743 119.438C202.01 118.93 201.574 118.225 201.433 117.322L203.689 117.104C203.792 117.548 204.009 117.882 204.341 118.108C204.674 118.334 205.106 118.447 205.639 118.447C206.189 118.447 206.63 118.334 206.962 118.108C207.299 117.882 207.467 117.603 207.467 117.271C207.467 116.989 207.358 116.757 207.141 116.574C206.928 116.391 206.596 116.25 206.144 116.152L204.469 115.8C203.527 115.604 202.831 115.274 202.379 114.81C201.927 114.341 201.704 113.749 201.708 113.033C201.704 112.428 201.868 111.903 202.2 111.46C202.537 111.013 203.003 110.668 203.6 110.425C204.201 110.178 204.893 110.054 205.677 110.054C206.828 110.054 207.733 110.299 208.394 110.789C209.059 111.279 209.47 111.942 209.628 112.777ZM214.572 120.198C213.95 120.198 213.389 120.087 212.891 119.866C212.396 119.64 212.004 119.308 211.715 118.869C211.429 118.43 211.286 117.888 211.286 117.245C211.286 116.691 211.389 116.233 211.593 115.871C211.798 115.509 212.077 115.219 212.43 115.001C212.784 114.784 213.183 114.62 213.626 114.509C214.073 114.394 214.536 114.311 215.013 114.26C215.588 114.2 216.055 114.147 216.413 114.1C216.771 114.049 217.031 113.972 217.193 113.87C217.359 113.763 217.442 113.599 217.442 113.378V113.339C217.442 112.858 217.299 112.485 217.014 112.221C216.728 111.957 216.317 111.825 215.78 111.825C215.213 111.825 214.764 111.948 214.431 112.195C214.103 112.442 213.881 112.734 213.766 113.071L211.606 112.764C211.776 112.168 212.058 111.669 212.45 111.268C212.842 110.864 213.321 110.561 213.888 110.361C214.455 110.156 215.081 110.054 215.767 110.054C216.24 110.054 216.711 110.109 217.18 110.22C217.649 110.331 218.077 110.514 218.465 110.77C218.852 111.021 219.163 111.364 219.398 111.799C219.636 112.234 219.756 112.777 219.756 113.429V120H217.531V118.651H217.455C217.314 118.924 217.116 119.18 216.86 119.418C216.609 119.653 216.291 119.842 215.908 119.987C215.528 120.128 215.083 120.198 214.572 120.198ZM215.173 118.498C215.637 118.498 216.04 118.406 216.381 118.223C216.722 118.036 216.984 117.788 217.167 117.482C217.354 117.175 217.448 116.84 217.448 116.478V115.321C217.376 115.381 217.252 115.436 217.078 115.487C216.907 115.538 216.715 115.583 216.502 115.621C216.289 115.66 216.078 115.694 215.869 115.724C215.661 115.754 215.479 115.779 215.326 115.8C214.981 115.847 214.672 115.924 214.399 116.031C214.127 116.137 213.911 116.286 213.754 116.478C213.596 116.665 213.517 116.908 213.517 117.207C213.517 117.633 213.673 117.955 213.984 118.172C214.295 118.389 214.691 118.498 215.173 118.498ZM222.082 120V110.182H224.294V111.85H224.409C224.614 111.288 224.953 110.849 225.426 110.533C225.899 110.214 226.463 110.054 227.119 110.054C227.784 110.054 228.345 110.216 228.801 110.54C229.261 110.859 229.585 111.296 229.772 111.85H229.874C230.092 111.305 230.458 110.87 230.974 110.546C231.494 110.218 232.109 110.054 232.821 110.054C233.725 110.054 234.462 110.339 235.033 110.911C235.604 111.482 235.889 112.315 235.889 113.41V120H233.569V113.768C233.569 113.158 233.407 112.713 233.083 112.432C232.759 112.146 232.363 112.004 231.894 112.004C231.336 112.004 230.899 112.178 230.584 112.528C230.273 112.873 230.117 113.322 230.117 113.876V120H227.848V113.672C227.848 113.165 227.695 112.76 227.388 112.457C227.085 112.155 226.689 112.004 226.199 112.004C225.867 112.004 225.564 112.089 225.291 112.259C225.019 112.425 224.801 112.662 224.639 112.969C224.477 113.271 224.396 113.625 224.396 114.03V120H222.082ZM238.237 120V110.182H240.448V111.85H240.563C240.768 111.288 241.107 110.849 241.58 110.533C242.053 110.214 242.617 110.054 243.274 110.054C243.938 110.054 244.499 110.216 244.955 110.54C245.415 110.859 245.739 111.296 245.926 111.85H246.029C246.246 111.305 246.612 110.87 247.128 110.546C247.648 110.218 248.264 110.054 248.975 110.054C249.879 110.054 250.616 110.339 251.187 110.911C251.758 111.482 252.044 112.315 252.044 113.41V120H249.723V113.768C249.723 113.158 249.561 112.713 249.237 112.432C248.914 112.146 248.517 112.004 248.049 112.004C247.49 112.004 247.054 112.178 246.738 112.528C246.427 112.873 246.272 113.322 246.272 113.876V120H244.002V113.672C244.002 113.165 243.849 112.76 243.542 112.457C243.24 112.155 242.843 112.004 242.353 112.004C242.021 112.004 241.718 112.089 241.446 112.259C241.173 112.425 240.956 112.662 240.794 112.969C240.632 113.271 240.551 113.625 240.551 114.03V120H238.237ZM258.738 120.192C257.753 120.192 256.903 119.987 256.187 119.578C255.476 119.165 254.928 118.581 254.544 117.827C254.161 117.068 253.969 116.175 253.969 115.148C253.969 114.138 254.161 113.252 254.544 112.489C254.932 111.722 255.473 111.126 256.168 110.7C256.863 110.269 257.679 110.054 258.616 110.054C259.221 110.054 259.792 110.152 260.329 110.348C260.87 110.54 261.348 110.838 261.761 111.243C262.179 111.648 262.507 112.163 262.745 112.79C262.984 113.412 263.103 114.153 263.103 115.014V115.724H255.056V114.164H260.885C260.881 113.721 260.785 113.327 260.598 112.982C260.41 112.632 260.148 112.357 259.812 112.157C259.479 111.957 259.091 111.857 258.648 111.857C258.175 111.857 257.76 111.972 257.402 112.202C257.044 112.428 256.765 112.726 256.564 113.097C256.368 113.463 256.268 113.866 256.264 114.305V115.666C256.264 116.237 256.368 116.727 256.577 117.136C256.786 117.541 257.078 117.852 257.453 118.07C257.828 118.283 258.267 118.389 258.77 118.389C259.106 118.389 259.411 118.342 259.684 118.249C259.956 118.151 260.193 118.008 260.393 117.82C260.593 117.633 260.745 117.401 260.847 117.124L263.008 117.366C262.871 117.937 262.611 118.436 262.228 118.862C261.848 119.284 261.363 119.612 260.77 119.847C260.178 120.077 259.5 120.192 258.738 120.192ZM267.375 114.247V120H265.061V110.182H267.273V111.85H267.388C267.614 111.3 267.974 110.864 268.468 110.54C268.967 110.216 269.582 110.054 270.315 110.054C270.993 110.054 271.583 110.199 272.086 110.489C272.593 110.778 272.985 111.198 273.262 111.748C273.543 112.298 273.682 112.964 273.677 113.749V120H271.364V114.107C271.364 113.45 271.193 112.937 270.852 112.566C270.516 112.195 270.049 112.01 269.452 112.01C269.047 112.01 268.687 112.099 268.372 112.278C268.061 112.453 267.816 112.707 267.637 113.039C267.462 113.371 267.375 113.774 267.375 114.247ZM78.7089 133.909V147H76.395V133.909H78.7089ZM85.4349 147.192C84.4506 147.192 83.6004 146.987 82.8845 146.578C82.1729 146.165 81.6253 145.581 81.2417 144.827C80.8582 144.068 80.6665 143.175 80.6665 142.148C80.6665 141.138 80.8582 140.252 81.2417 139.489C81.6295 138.722 82.1707 138.126 82.8653 137.7C83.5599 137.269 84.376 137.054 85.3135 137.054C85.9186 137.054 86.4896 137.152 87.0265 137.348C87.5677 137.54 88.045 137.838 88.4584 138.243C88.876 138.648 89.2041 139.163 89.4427 139.79C89.6814 140.412 89.8007 141.153 89.8007 142.014V142.724H81.7531V141.164H87.5827C87.5784 140.721 87.4825 140.327 87.295 139.982C87.1075 139.632 86.8454 139.357 86.5088 139.157C86.1764 138.957 85.7886 138.857 85.3454 138.857C84.8724 138.857 84.4569 138.972 84.099 139.202C83.741 139.428 83.4619 139.726 83.2616 140.097C83.0656 140.463 82.9655 140.866 82.9612 141.305V142.666C82.9612 143.237 83.0656 143.727 83.2744 144.136C83.4832 144.541 83.7751 144.852 84.1501 145.07C84.5251 145.283 84.964 145.389 85.4669 145.389C85.8035 145.389 86.1082 145.342 86.3809 145.249C86.6537 145.151 86.8902 145.008 87.0905 144.82C87.2907 144.633 87.442 144.401 87.5443 144.124L89.7048 144.366C89.5684 144.937 89.3085 145.436 88.925 145.862C88.5457 146.284 88.0599 146.612 87.4676 146.847C86.8753 147.077 86.1977 147.192 85.4349 147.192ZM100.247 137.182L96.7504 147H94.1936L90.6972 137.182H93.1645L95.4209 144.475H95.5232L97.786 137.182H100.247ZM105.861 147.192C104.876 147.192 104.026 146.987 103.31 146.578C102.599 146.165 102.051 145.581 101.668 144.827C101.284 144.068 101.092 143.175 101.092 142.148C101.092 141.138 101.284 140.252 101.668 139.489C102.055 138.722 102.597 138.126 103.291 137.7C103.986 137.269 104.802 137.054 105.739 137.054C106.344 137.054 106.915 137.152 107.452 137.348C107.994 137.54 108.471 137.838 108.884 138.243C109.302 138.648 109.63 139.163 109.869 139.79C110.107 140.412 110.226 141.153 110.226 142.014V142.724H102.179V141.164H108.008C108.004 140.721 107.908 140.327 107.721 139.982C107.533 139.632 107.271 139.357 106.935 139.157C106.602 138.957 106.214 138.857 105.771 138.857C105.298 138.857 104.883 138.972 104.525 139.202C104.167 139.428 103.888 139.726 103.687 140.097C103.491 140.463 103.391 140.866 103.387 141.305V142.666C103.387 143.237 103.491 143.727 103.7 144.136C103.909 144.541 104.201 144.852 104.576 145.07C104.951 145.283 105.39 145.389 105.893 145.389C106.229 145.389 106.534 145.342 106.807 145.249C107.079 145.151 107.316 145.008 107.516 144.82C107.717 144.633 107.868 144.401 107.97 144.124L110.131 144.366C109.994 144.937 109.734 145.436 109.351 145.862C108.972 146.284 108.486 146.612 107.893 146.847C107.301 147.077 106.623 147.192 105.861 147.192ZM112.184 147V137.182H114.428V138.818H114.53C114.709 138.251 115.016 137.815 115.45 137.508C115.889 137.197 116.39 137.041 116.953 137.041C117.08 137.041 117.223 137.048 117.381 137.06C117.543 137.069 117.677 137.084 117.783 137.105V139.234C117.685 139.2 117.53 139.17 117.317 139.144C117.108 139.114 116.906 139.099 116.71 139.099C116.288 139.099 115.908 139.191 115.572 139.374C115.239 139.553 114.977 139.803 114.786 140.122C114.594 140.442 114.498 140.81 114.498 141.228V147H112.184ZM123.263 147.192C122.279 147.192 121.429 146.987 120.713 146.578C120.001 146.165 119.453 145.581 119.07 144.827C118.686 144.068 118.495 143.175 118.495 142.148C118.495 141.138 118.686 140.252 119.07 139.489C119.458 138.722 119.999 138.126 120.693 137.7C121.388 137.269 122.204 137.054 123.142 137.054C123.747 137.054 124.318 137.152 124.855 137.348C125.396 137.54 125.873 137.838 126.286 138.243C126.704 138.648 127.032 139.163 127.271 139.79C127.509 140.412 127.629 141.153 127.629 142.014V142.724H119.581V141.164H125.411C125.407 140.721 125.311 140.327 125.123 139.982C124.936 139.632 124.674 139.357 124.337 139.157C124.005 138.957 123.617 138.857 123.174 138.857C122.701 138.857 122.285 138.972 121.927 139.202C121.569 139.428 121.29 139.726 121.09 140.097C120.894 140.463 120.794 140.866 120.789 141.305V142.666C120.789 143.237 120.894 143.727 121.103 144.136C121.311 144.541 121.603 144.852 121.978 145.07C122.353 145.283 122.792 145.389 123.295 145.389C123.632 145.389 123.936 145.342 124.209 145.249C124.482 145.151 124.718 145.008 124.919 144.82C125.119 144.633 125.27 144.401 125.372 144.124L127.533 144.366C127.397 144.937 127.137 145.436 126.753 145.862C126.374 146.284 125.888 146.612 125.296 146.847C124.703 147.077 124.026 147.192 123.263 147.192ZM137.346 139.777L135.237 140.007C135.177 139.794 135.073 139.594 134.924 139.406C134.779 139.219 134.583 139.067 134.336 138.952C134.089 138.837 133.786 138.78 133.428 138.78C132.946 138.78 132.542 138.884 132.214 139.093C131.89 139.302 131.73 139.572 131.734 139.905C131.73 140.19 131.834 140.423 132.047 140.602C132.265 140.781 132.623 140.928 133.121 141.043L134.796 141.401C135.725 141.601 136.415 141.918 136.867 142.353C137.323 142.788 137.553 143.357 137.557 144.06C137.553 144.678 137.372 145.223 137.014 145.696C136.66 146.165 136.168 146.531 135.537 146.795C134.907 147.06 134.182 147.192 133.364 147.192C132.162 147.192 131.195 146.94 130.462 146.438C129.729 145.93 129.292 145.225 129.152 144.322L131.408 144.104C131.51 144.548 131.728 144.882 132.06 145.108C132.392 145.334 132.825 145.447 133.358 145.447C133.907 145.447 134.348 145.334 134.681 145.108C135.017 144.882 135.186 144.603 135.186 144.271C135.186 143.989 135.077 143.757 134.86 143.574C134.647 143.391 134.314 143.25 133.863 143.152L132.188 142.8C131.246 142.604 130.549 142.274 130.098 141.81C129.646 141.341 129.422 140.749 129.427 140.033C129.422 139.428 129.586 138.903 129.919 138.46C130.255 138.013 130.722 137.668 131.319 137.425C131.919 137.178 132.612 137.054 133.396 137.054C134.547 137.054 135.452 137.299 136.113 137.789C136.777 138.279 137.189 138.942 137.346 139.777ZM146.755 147.198C146.133 147.198 145.573 147.087 145.074 146.866C144.58 146.64 144.188 146.308 143.898 145.869C143.613 145.43 143.47 144.888 143.47 144.245C143.47 143.691 143.572 143.233 143.777 142.871C143.981 142.509 144.26 142.219 144.614 142.001C144.968 141.784 145.366 141.62 145.809 141.509C146.257 141.394 146.719 141.311 147.196 141.26C147.772 141.2 148.238 141.147 148.596 141.1C148.954 141.049 149.214 140.972 149.376 140.87C149.542 140.763 149.625 140.599 149.625 140.378V140.339C149.625 139.858 149.483 139.485 149.197 139.221C148.912 138.957 148.5 138.825 147.964 138.825C147.397 138.825 146.947 138.948 146.615 139.195C146.287 139.442 146.065 139.734 145.95 140.071L143.79 139.764C143.96 139.168 144.241 138.669 144.633 138.268C145.025 137.864 145.505 137.561 146.071 137.361C146.638 137.156 147.265 137.054 147.951 137.054C148.424 137.054 148.895 137.109 149.363 137.22C149.832 137.331 150.26 137.514 150.648 137.77C151.036 138.021 151.347 138.364 151.581 138.799C151.82 139.234 151.939 139.777 151.939 140.429V147H149.715V145.651H149.638C149.498 145.924 149.299 146.18 149.044 146.418C148.792 146.653 148.475 146.842 148.091 146.987C147.712 147.128 147.267 147.198 146.755 147.198ZM147.356 145.498C147.821 145.498 148.223 145.406 148.564 145.223C148.905 145.036 149.167 144.788 149.351 144.482C149.538 144.175 149.632 143.84 149.632 143.478V142.321C149.559 142.381 149.436 142.436 149.261 142.487C149.091 142.538 148.899 142.583 148.686 142.621C148.473 142.66 148.262 142.694 148.053 142.724C147.844 142.754 147.663 142.779 147.51 142.8C147.165 142.847 146.856 142.924 146.583 143.031C146.31 143.137 146.095 143.286 145.937 143.478C145.78 143.665 145.701 143.908 145.701 144.207C145.701 144.633 145.856 144.955 146.167 145.172C146.478 145.389 146.875 145.498 147.356 145.498ZM159.239 137.182V138.972H153.435V137.182H159.239ZM154.886 147V136.255C154.886 135.594 155.022 135.045 155.295 134.606C155.572 134.167 155.943 133.839 156.407 133.621C156.872 133.404 157.388 133.295 157.954 133.295C158.355 133.295 158.711 133.327 159.022 133.391C159.333 133.455 159.563 133.513 159.712 133.564L159.252 135.354C159.154 135.324 159.03 135.294 158.881 135.264C158.732 135.23 158.566 135.213 158.383 135.213C157.952 135.213 157.647 135.317 157.468 135.526C157.294 135.731 157.206 136.025 157.206 136.408V147H154.886ZM167.299 147H164.768L169.377 133.909H172.304L176.919 147H174.388L170.892 136.594H170.79L167.299 147ZM167.383 141.867H174.286V143.772H167.383V141.867ZM178.541 147V137.182H180.785V138.818H180.887C181.066 138.251 181.373 137.815 181.808 137.508C182.247 137.197 182.747 137.041 183.31 137.041C183.438 137.041 183.581 137.048 183.738 137.06C183.9 137.069 184.034 137.084 184.141 137.105V139.234C184.043 139.2 183.887 139.17 183.674 139.144C183.465 139.114 183.263 139.099 183.067 139.099C182.645 139.099 182.266 139.191 181.929 139.374C181.597 139.553 181.335 139.803 181.143 140.122C180.951 140.442 180.855 140.81 180.855 141.228V147H178.541ZM187.992 133.909V147H185.678V133.909H187.992ZM193.197 147.198C192.575 147.198 192.014 147.087 191.516 146.866C191.021 146.64 190.629 146.308 190.34 145.869C190.054 145.43 189.911 144.888 189.911 144.245C189.911 143.691 190.014 143.233 190.218 142.871C190.423 142.509 190.702 142.219 191.055 142.001C191.409 141.784 191.808 141.62 192.251 141.509C192.698 141.394 193.161 141.311 193.638 141.26C194.213 141.2 194.68 141.147 195.038 141.1C195.396 141.049 195.656 140.972 195.818 140.87C195.984 140.763 196.067 140.599 196.067 140.378V140.339C196.067 139.858 195.924 139.485 195.639 139.221C195.353 138.957 194.942 138.825 194.405 138.825C193.838 138.825 193.389 138.948 193.056 139.195C192.728 139.442 192.506 139.734 192.391 140.071L190.231 139.764C190.401 139.168 190.683 138.669 191.075 138.268C191.467 137.864 191.946 137.561 192.513 137.361C193.08 137.156 193.706 137.054 194.392 137.054C194.865 137.054 195.336 137.109 195.805 137.22C196.274 137.331 196.702 137.514 197.09 137.77C197.477 138.021 197.788 138.364 198.023 138.799C198.261 139.234 198.381 139.777 198.381 140.429V147H196.156V145.651H196.08C195.939 145.924 195.741 146.18 195.485 146.418C195.234 146.653 194.916 146.842 194.533 146.987C194.153 147.128 193.708 147.198 193.197 147.198ZM193.798 145.498C194.262 145.498 194.665 145.406 195.006 145.223C195.347 145.036 195.609 144.788 195.792 144.482C195.979 144.175 196.073 143.84 196.073 143.478V142.321C196.001 142.381 195.877 142.436 195.703 142.487C195.532 142.538 195.34 142.583 195.127 142.621C194.914 142.66 194.703 142.694 194.494 142.724C194.286 142.754 194.104 142.779 193.951 142.8C193.606 142.847 193.297 142.924 193.024 143.031C192.752 143.137 192.536 143.286 192.379 143.478C192.221 143.665 192.142 143.908 192.142 144.207C192.142 144.633 192.298 144.955 192.609 145.172C192.92 145.389 193.316 145.498 193.798 145.498ZM202.133 147.141C201.745 147.141 201.413 147.004 201.136 146.732C200.859 146.459 200.722 146.126 200.727 145.734C200.722 145.351 200.859 145.023 201.136 144.75C201.413 144.477 201.745 144.341 202.133 144.341C202.508 144.341 202.834 144.477 203.111 144.75C203.392 145.023 203.535 145.351 203.539 145.734C203.535 145.994 203.467 146.231 203.335 146.444C203.207 146.657 203.036 146.827 202.823 146.955C202.614 147.079 202.384 147.141 202.133 147.141Z" fill="#F291BA"/>
</svg>
