<svg width="279" height="149" viewBox="0 0 279 149" fill="none" xmlns="http://www.w3.org/2000/svg">
<path d="M161.027 25.4575C171.026 39.5397 163.377 55.6693 159.677 61.9614C159.134 62.8415 158.405 63.5925 157.542 64.1618C156.678 64.7311 155.7 65.105 154.677 65.2572C147.427 66.5056 129.377 67.9039 119.677 53.8217C110.128 40.5384 110.528 17.1679 111.378 6.03201C111.411 5.20234 111.641 4.39249 112.05 3.66911C112.458 2.94573 113.032 2.32951 113.725 1.87117C114.419 1.41284 115.211 1.12549 116.037 1.03278C116.863 0.940078 117.7 1.04467 118.477 1.33794C129.227 4.43403 151.627 12.1743 161.027 25.4575Z" stroke="#F291BA" stroke-width="2" stroke-linecap="round" stroke-linejoin="round"/>
<path d="M126.973 21C138.425 34.2954 148.477 48.7027 156.973 64" stroke="#F291BA" stroke-width="2" stroke-linecap="round" stroke-linejoin="round"/>
<path d="M21.6119 101.909L25.0189 112.213H25.1531L28.5537 101.909H31.1617L26.5466 115H23.6191L19.0104 101.909H21.6119ZM32.7836 115V105.182H35.0976V115H32.7836ZM33.947 103.788C33.5805 103.788 33.2652 103.667 33.001 103.424C32.7368 103.177 32.6047 102.881 32.6047 102.536C32.6047 102.186 32.7368 101.89 33.001 101.647C33.2652 101.4 33.5805 101.276 33.947 101.276C34.3177 101.276 34.6331 101.4 34.893 101.647C35.1572 101.89 35.2893 102.186 35.2893 102.536C35.2893 102.881 35.1572 103.177 34.893 103.424C34.6331 103.667 34.3177 103.788 33.947 103.788ZM42.0441 115V101.909H44.358V106.805H44.4539C44.5732 106.567 44.7416 106.313 44.9589 106.045C45.1762 105.772 45.4703 105.54 45.841 105.348C46.2117 105.152 46.6847 105.054 47.26 105.054C48.0186 105.054 48.7025 105.248 49.3119 105.636C49.9255 106.019 50.4113 106.588 50.7693 107.342C51.1315 108.092 51.3126 109.013 51.3126 110.104C51.3126 111.182 51.1357 112.098 50.782 112.852C50.4284 113.607 49.9468 114.182 49.3374 114.578C48.7281 114.974 48.0377 115.173 47.2664 115.173C46.7039 115.173 46.2373 115.079 45.8666 114.891C45.4958 114.704 45.1975 114.478 44.9717 114.214C44.7501 113.945 44.5775 113.692 44.4539 113.453H44.3197V115H42.0441ZM44.3133 110.091C44.3133 110.726 44.4028 111.282 44.5818 111.759C44.765 112.237 45.0271 112.609 45.368 112.878C45.7132 113.142 46.1308 113.274 46.6208 113.274C47.1322 113.274 47.5605 113.138 47.9056 112.865C48.2508 112.588 48.5107 112.211 48.6855 111.734C48.8644 111.252 48.9539 110.705 48.9539 110.091C48.9539 109.482 48.8666 108.94 48.6919 108.467C48.5171 107.994 48.2572 107.624 47.912 107.355C47.5669 107.087 47.1365 106.952 46.6208 106.952C46.1265 106.952 45.7068 107.082 45.3616 107.342C45.0164 107.602 44.7544 107.967 44.5754 108.435C44.4007 108.904 44.3133 109.456 44.3133 110.091ZM53.2797 115V105.182H55.5233V106.818H55.6256C55.8046 106.251 56.1114 105.815 56.5461 105.508C56.985 105.197 57.4857 105.041 58.0482 105.041C58.176 105.041 58.3188 105.048 58.4765 105.06C58.6384 105.069 58.7726 105.084 58.8792 105.105V107.234C58.7812 107.2 58.6256 107.17 58.4126 107.144C58.2037 107.114 58.0013 107.099 57.8053 107.099C57.3834 107.099 57.0042 107.191 56.6675 107.374C56.3351 107.553 56.0731 107.803 55.8813 108.122C55.6895 108.442 55.5937 108.81 55.5937 109.228V115H53.2797ZM66.6743 110.871V105.182H68.9882V115H66.7446V113.255H66.6423C66.4207 113.805 66.0564 114.254 65.5493 114.604C65.0464 114.953 64.4264 115.128 63.6892 115.128C63.0457 115.128 62.4768 114.985 61.9825 114.7C61.4925 114.41 61.1089 113.99 60.8319 113.44C60.555 112.886 60.4165 112.217 60.4165 111.433V105.182H62.7304V111.075C62.7304 111.697 62.9008 112.192 63.2417 112.558C63.5827 112.925 64.0301 113.108 64.5841 113.108C64.925 113.108 65.2552 113.025 65.5748 112.859C65.8944 112.692 66.1565 112.445 66.3611 112.117C66.5699 111.785 66.6743 111.369 66.6743 110.871ZM75.6375 118.886C74.8066 118.886 74.0928 118.773 73.4962 118.548C72.8996 118.326 72.4202 118.028 72.058 117.653C71.6958 117.278 71.4443 116.862 71.3037 116.406L73.3875 115.901C73.4813 116.093 73.6176 116.283 73.7966 116.47C73.9756 116.662 74.2164 116.82 74.5189 116.943C74.8257 117.071 75.2114 117.135 75.6759 117.135C76.3321 117.135 76.8754 116.975 77.3058 116.656C77.7362 116.34 77.9514 115.82 77.9514 115.096V113.236H77.8364C77.7171 113.474 77.5423 113.719 77.3122 113.971C77.0864 114.222 76.786 114.433 76.411 114.604C76.0402 114.774 75.5736 114.859 75.0111 114.859C74.2568 114.859 73.5729 114.683 72.9593 114.329C72.3499 113.971 71.8641 113.438 71.5019 112.731C71.1439 112.019 70.9649 111.129 70.9649 110.059C70.9649 108.981 71.1439 108.071 71.5019 107.33C71.8641 106.584 72.352 106.019 72.9656 105.636C73.5793 105.248 74.2632 105.054 75.0175 105.054C75.5928 105.054 76.0658 105.152 76.4365 105.348C76.8115 105.54 77.1098 105.772 77.3314 106.045C77.553 106.313 77.7213 106.567 77.8364 106.805H77.9642V105.182H80.2462V115.16C80.2462 115.999 80.0459 116.694 79.6453 117.244C79.2448 117.793 78.6972 118.205 78.0026 118.477C77.308 118.75 76.5196 118.886 75.6375 118.886ZM75.6567 113.044C76.1468 113.044 76.5644 112.925 76.9095 112.686C77.2547 112.447 77.5168 112.104 77.6958 111.657C77.8747 111.21 77.9642 110.673 77.9642 110.046C77.9642 109.428 77.8747 108.887 77.6958 108.423C77.521 107.958 77.2611 107.598 76.9159 107.342C76.575 107.082 76.1553 106.952 75.6567 106.952C75.1411 106.952 74.7107 107.087 74.3655 107.355C74.0203 107.624 73.7604 107.992 73.5857 108.461C73.411 108.925 73.3236 109.454 73.3236 110.046C73.3236 110.647 73.411 111.173 73.5857 111.625C73.7646 112.072 74.0267 112.422 74.3719 112.673C74.7213 112.92 75.1496 113.044 75.6567 113.044ZM86.9642 115.192C85.9798 115.192 85.1297 114.987 84.4138 114.578C83.7021 114.165 83.1546 113.581 82.771 112.827C82.3875 112.068 82.1958 111.175 82.1958 110.148C82.1958 109.138 82.3875 108.252 82.771 107.489C83.1588 106.722 83.7 106.126 84.3946 105.7C85.0892 105.269 85.9053 105.054 86.8428 105.054C87.4479 105.054 88.0189 105.152 88.5558 105.348C89.097 105.54 89.5743 105.838 89.9877 106.243C90.4053 106.648 90.7334 107.163 90.972 107.79C91.2107 108.412 91.33 109.153 91.33 110.014V110.724H83.2824V109.164H89.1119C89.1077 108.721 89.0118 108.327 88.8243 107.982C88.6368 107.632 88.3747 107.357 88.0381 107.157C87.7057 106.957 87.3179 106.857 86.8747 106.857C86.4017 106.857 85.9862 106.972 85.6283 107.202C85.2703 107.428 84.9912 107.726 84.7909 108.097C84.5949 108.463 84.4948 108.866 84.4905 109.305V110.666C84.4905 111.237 84.5949 111.727 84.8037 112.136C85.0125 112.541 85.3044 112.852 85.6794 113.07C86.0544 113.283 86.4933 113.389 86.9962 113.389C87.3328 113.389 87.6375 113.342 87.9102 113.249C88.183 113.151 88.4195 113.008 88.6198 112.82C88.82 112.633 88.9713 112.401 89.0736 112.124L91.2341 112.366C91.0977 112.937 90.8378 113.436 90.4543 113.862C90.075 114.284 89.5892 114.612 88.9969 114.847C88.4046 115.077 87.727 115.192 86.9642 115.192ZM93.2876 115V105.182H95.5312V106.818H95.6334C95.8124 106.251 96.1192 105.815 96.5539 105.508C96.9928 105.197 97.4935 105.041 98.056 105.041C98.1839 105.041 98.3266 105.048 98.4843 105.06C98.6462 105.069 98.7805 105.084 98.887 105.105V107.234C98.789 107.2 98.6334 107.17 98.4204 107.144C98.2116 107.114 98.0091 107.099 97.8131 107.099C97.3912 107.099 97.012 107.191 96.6753 107.374C96.343 107.553 96.0809 107.803 95.8891 108.122C95.6974 108.442 95.6015 108.81 95.6015 109.228V115H93.2876ZM107.203 109.247V115H104.889V105.182H107.101V106.85H107.216C107.442 106.3 107.802 105.864 108.296 105.54C108.795 105.216 109.41 105.054 110.143 105.054C110.821 105.054 111.411 105.199 111.914 105.489C112.421 105.778 112.813 106.198 113.09 106.748C113.371 107.298 113.51 107.964 113.506 108.749V115H111.192V109.107C111.192 108.45 111.021 107.937 110.68 107.566C110.344 107.195 109.877 107.01 109.28 107.01C108.876 107.01 108.516 107.099 108.2 107.278C107.889 107.453 107.644 107.707 107.465 108.039C107.29 108.371 107.203 108.774 107.203 109.247ZM118.683 115.198C118.061 115.198 117.501 115.087 117.002 114.866C116.508 114.64 116.116 114.308 115.826 113.869C115.54 113.43 115.398 112.888 115.398 112.245C115.398 111.691 115.5 111.233 115.704 110.871C115.909 110.509 116.188 110.219 116.542 110.001C116.896 109.784 117.294 109.62 117.737 109.509C118.185 109.394 118.647 109.311 119.124 109.26C119.699 109.2 120.166 109.147 120.524 109.1C120.882 109.049 121.142 108.972 121.304 108.87C121.47 108.763 121.553 108.599 121.553 108.378V108.339C121.553 107.858 121.41 107.485 121.125 107.221C120.839 106.957 120.428 106.825 119.891 106.825C119.324 106.825 118.875 106.948 118.543 107.195C118.214 107.442 117.993 107.734 117.878 108.071L115.717 107.764C115.888 107.168 116.169 106.669 116.561 106.268C116.953 105.864 117.432 105.561 117.999 105.361C118.566 105.156 119.192 105.054 119.878 105.054C120.351 105.054 120.822 105.109 121.291 105.22C121.76 105.331 122.188 105.514 122.576 105.77C122.964 106.021 123.275 106.364 123.509 106.799C123.748 107.234 123.867 107.777 123.867 108.429V115H121.643V113.651H121.566C121.425 113.924 121.227 114.18 120.972 114.418C120.72 114.653 120.403 114.842 120.019 114.987C119.64 115.128 119.195 115.198 118.683 115.198ZM119.284 113.498C119.748 113.498 120.151 113.406 120.492 113.223C120.833 113.036 121.095 112.788 121.278 112.482C121.466 112.175 121.56 111.84 121.56 111.478V110.321C121.487 110.381 121.364 110.436 121.189 110.487C121.018 110.538 120.827 110.583 120.614 110.621C120.4 110.66 120.19 110.694 119.981 110.724C119.772 110.754 119.591 110.779 119.437 110.8C119.092 110.847 118.783 110.924 118.511 111.031C118.238 111.137 118.023 111.286 117.865 111.478C117.707 111.665 117.628 111.908 117.628 112.207C117.628 112.633 117.784 112.955 118.095 113.172C118.406 113.389 118.802 113.498 119.284 113.498ZM131.097 105.182V106.972H125.452V105.182H131.097ZM126.846 102.83H129.16V112.047C129.16 112.358 129.207 112.597 129.3 112.763C129.398 112.925 129.526 113.036 129.684 113.095C129.842 113.155 130.016 113.185 130.208 113.185C130.353 113.185 130.485 113.174 130.604 113.153C130.728 113.131 130.822 113.112 130.886 113.095L131.275 114.904C131.152 114.947 130.975 114.994 130.745 115.045C130.519 115.096 130.242 115.126 129.914 115.134C129.334 115.151 128.812 115.064 128.348 114.872C127.883 114.676 127.515 114.374 127.242 113.964C126.974 113.555 126.842 113.044 126.846 112.43V102.83ZM139.29 110.871V105.182H141.603V115H139.36V113.255H139.258C139.036 113.805 138.672 114.254 138.165 114.604C137.662 114.953 137.042 115.128 136.304 115.128C135.661 115.128 135.092 114.985 134.598 114.7C134.108 114.41 133.724 113.99 133.447 113.44C133.17 112.886 133.032 112.217 133.032 111.433V105.182H135.346V111.075C135.346 111.697 135.516 112.192 135.857 112.558C136.198 112.925 136.645 113.108 137.199 113.108C137.54 113.108 137.87 113.025 138.19 112.859C138.51 112.692 138.772 112.445 138.976 112.117C139.185 111.785 139.29 111.369 139.29 110.871ZM143.983 115V105.182H146.226V106.818H146.329C146.508 106.251 146.815 105.815 147.249 105.508C147.688 105.197 148.189 105.041 148.751 105.041C148.879 105.041 149.022 105.048 149.18 105.06C149.342 105.069 149.476 105.084 149.582 105.105V107.234C149.484 107.2 149.329 107.17 149.116 107.144C148.907 107.114 148.704 107.099 148.508 107.099C148.087 107.099 147.707 107.191 147.371 107.374C147.038 107.553 146.776 107.803 146.584 108.122C146.393 108.442 146.297 108.81 146.297 109.228V115H143.983ZM153.434 101.909V115H151.12V101.909H153.434ZM155.813 115V105.182H158.127V115H155.813ZM156.976 103.788C156.61 103.788 156.294 103.667 156.03 103.424C155.766 103.177 155.634 102.881 155.634 102.536C155.634 102.186 155.766 101.89 156.03 101.647C156.294 101.4 156.61 101.276 156.976 101.276C157.347 101.276 157.662 101.4 157.922 101.647C158.187 101.89 158.319 102.186 158.319 102.536C158.319 102.881 158.187 103.177 157.922 103.424C157.662 103.667 157.347 103.788 156.976 103.788ZM164.776 118.886C163.945 118.886 163.231 118.773 162.635 118.548C162.038 118.326 161.559 118.028 161.197 117.653C160.834 117.278 160.583 116.862 160.442 116.406L162.526 115.901C162.62 116.093 162.756 116.283 162.935 116.47C163.114 116.662 163.355 116.82 163.658 116.943C163.964 117.071 164.35 117.135 164.815 117.135C165.471 117.135 166.014 116.975 166.445 116.656C166.875 116.34 167.09 115.82 167.09 115.096V113.236H166.975C166.856 113.474 166.681 113.719 166.451 113.971C166.225 114.222 165.925 114.433 165.55 114.604C165.179 114.774 164.712 114.859 164.15 114.859C163.396 114.859 162.712 114.683 162.098 114.329C161.489 113.971 161.003 113.438 160.641 112.731C160.283 112.019 160.104 111.129 160.104 110.059C160.104 108.981 160.283 108.071 160.641 107.33C161.003 106.584 161.491 106.019 162.104 105.636C162.718 105.248 163.402 105.054 164.156 105.054C164.731 105.054 165.204 105.152 165.575 105.348C165.95 105.54 166.248 105.772 166.47 106.045C166.692 106.313 166.86 106.567 166.975 106.805H167.103V105.182H169.385V115.16C169.385 115.999 169.185 116.694 168.784 117.244C168.383 117.793 167.836 118.205 167.141 118.477C166.447 118.75 165.658 118.886 164.776 118.886ZM164.795 113.044C165.285 113.044 165.703 112.925 166.048 112.686C166.393 112.447 166.655 112.104 166.834 111.657C167.013 111.21 167.103 110.673 167.103 110.046C167.103 109.428 167.013 108.887 166.834 108.423C166.66 107.958 166.4 107.598 166.055 107.342C165.714 107.082 165.294 106.952 164.795 106.952C164.28 106.952 163.849 107.087 163.504 107.355C163.159 107.624 162.899 107.992 162.724 108.461C162.55 108.925 162.462 109.454 162.462 110.046C162.462 110.647 162.55 111.173 162.724 111.625C162.903 112.072 163.165 112.422 163.511 112.673C163.86 112.92 164.288 113.044 164.795 113.044ZM176.103 115.192C175.119 115.192 174.268 114.987 173.552 114.578C172.841 114.165 172.293 113.581 171.91 112.827C171.526 112.068 171.334 111.175 171.334 110.148C171.334 109.138 171.526 108.252 171.91 107.489C172.297 106.722 172.839 106.126 173.533 105.7C174.228 105.269 175.044 105.054 175.981 105.054C176.587 105.054 177.158 105.152 177.695 105.348C178.236 105.54 178.713 105.838 179.126 106.243C179.544 106.648 179.872 107.163 180.111 107.79C180.349 108.412 180.469 109.153 180.469 110.014V110.724H172.421V109.164H178.251C178.246 108.721 178.15 108.327 177.963 107.982C177.775 107.632 177.513 107.357 177.177 107.157C176.844 106.957 176.457 106.857 176.013 106.857C175.54 106.857 175.125 106.972 174.767 107.202C174.409 107.428 174.13 107.726 173.93 108.097C173.734 108.463 173.633 108.866 173.629 109.305V110.666C173.629 111.237 173.734 111.727 173.942 112.136C174.151 112.541 174.443 112.852 174.818 113.07C175.193 113.283 175.632 113.389 176.135 113.389C176.472 113.389 176.776 113.342 177.049 113.249C177.322 113.151 177.558 113.008 177.758 112.82C177.959 112.633 178.11 112.401 178.212 112.124L180.373 112.366C180.236 112.937 179.976 113.436 179.593 113.862C179.214 114.284 178.728 114.612 178.136 114.847C177.543 115.077 176.866 115.192 176.103 115.192ZM191.174 115.192C190.215 115.192 189.384 114.981 188.681 114.559C187.978 114.137 187.432 113.547 187.044 112.788C186.661 112.03 186.469 111.143 186.469 110.129C186.469 109.115 186.661 108.227 187.044 107.464C187.432 106.701 187.978 106.109 188.681 105.687C189.384 105.265 190.215 105.054 191.174 105.054C192.133 105.054 192.964 105.265 193.667 105.687C194.37 106.109 194.913 106.701 195.297 107.464C195.684 108.227 195.878 109.115 195.878 110.129C195.878 111.143 195.684 112.03 195.297 112.788C194.913 113.547 194.37 114.137 193.667 114.559C192.964 114.981 192.133 115.192 191.174 115.192ZM191.187 113.338C191.706 113.338 192.141 113.195 192.491 112.91C192.84 112.62 193.1 112.232 193.27 111.746C193.445 111.261 193.532 110.719 193.532 110.123C193.532 109.522 193.445 108.979 193.27 108.493C193.1 108.003 192.84 107.613 192.491 107.323C192.141 107.033 191.706 106.888 191.187 106.888C190.654 106.888 190.211 107.033 189.857 107.323C189.508 107.613 189.245 108.003 189.071 108.493C188.9 108.979 188.815 109.522 188.815 110.123C188.815 110.719 188.9 111.261 189.071 111.746C189.245 112.232 189.508 112.62 189.857 112.91C190.211 113.195 190.654 113.338 191.187 113.338ZM202.112 118.886C201.281 118.886 200.567 118.773 199.971 118.548C199.374 118.326 198.895 118.028 198.533 117.653C198.17 117.278 197.919 116.862 197.778 116.406L199.862 115.901C199.956 116.093 200.092 116.283 200.271 116.47C200.45 116.662 200.691 116.82 200.994 116.943C201.3 117.071 201.686 117.135 202.15 117.135C202.807 117.135 203.35 116.975 203.78 116.656C204.211 116.34 204.426 115.82 204.426 115.096V113.236H204.311C204.192 113.474 204.017 113.719 203.787 113.971C203.561 114.222 203.261 114.433 202.886 114.604C202.515 114.774 202.048 114.859 201.486 114.859C200.731 114.859 200.047 114.683 199.434 114.329C198.824 113.971 198.339 113.438 197.976 112.731C197.619 112.019 197.44 111.129 197.44 110.059C197.44 108.981 197.619 108.071 197.976 107.33C198.339 106.584 198.827 106.019 199.44 105.636C200.054 105.248 200.738 105.054 201.492 105.054C202.067 105.054 202.54 105.152 202.911 105.348C203.286 105.54 203.584 105.772 203.806 106.045C204.028 106.313 204.196 106.567 204.311 106.805H204.439V105.182H206.721V115.16C206.721 115.999 206.521 116.694 206.12 117.244C205.719 117.793 205.172 118.205 204.477 118.477C203.783 118.75 202.994 118.886 202.112 118.886ZM202.131 113.044C202.621 113.044 203.039 112.925 203.384 112.686C203.729 112.447 203.991 112.104 204.17 111.657C204.349 111.21 204.439 110.673 204.439 110.046C204.439 109.428 204.349 108.887 204.17 108.423C203.996 107.958 203.736 107.598 203.391 107.342C203.05 107.082 202.63 106.952 202.131 106.952C201.616 106.952 201.185 107.087 200.84 107.355C200.495 107.624 200.235 107.992 200.06 108.461C199.886 108.925 199.798 109.454 199.798 110.046C199.798 110.647 199.886 111.173 200.06 111.625C200.239 112.072 200.501 112.422 200.847 112.673C201.196 112.92 201.624 113.044 202.131 113.044ZM218.53 105.182V106.972H212.726V105.182H218.53ZM214.177 115V104.255C214.177 103.594 214.313 103.045 214.586 102.606C214.863 102.167 215.234 101.839 215.698 101.621C216.163 101.404 216.679 101.295 217.245 101.295C217.646 101.295 218.002 101.327 218.313 101.391C218.624 101.455 218.854 101.513 219.003 101.564L218.543 103.354C218.445 103.324 218.321 103.294 218.172 103.264C218.023 103.23 217.857 103.213 217.674 103.213C217.243 103.213 216.938 103.317 216.759 103.526C216.585 103.731 216.497 104.025 216.497 104.408V115H214.177ZM220.342 115V105.182H222.586V106.818H222.688C222.867 106.251 223.174 105.815 223.609 105.508C224.047 105.197 224.548 105.041 225.111 105.041C225.239 105.041 225.381 105.048 225.539 105.06C225.701 105.069 225.835 105.084 225.942 105.105V107.234C225.844 107.2 225.688 107.17 225.475 107.144C225.266 107.114 225.064 107.099 224.868 107.099C224.446 107.099 224.067 107.191 223.73 107.374C223.398 107.553 223.136 107.803 222.944 108.122C222.752 108.442 222.656 108.81 222.656 109.228V115H220.342ZM227.479 115V105.182H229.793V115H227.479ZM228.642 103.788C228.276 103.788 227.96 103.667 227.696 103.424C227.432 103.177 227.3 102.881 227.3 102.536C227.3 102.186 227.432 101.89 227.696 101.647C227.96 101.4 228.276 101.276 228.642 101.276C229.013 101.276 229.328 101.4 229.588 101.647C229.853 101.89 229.985 102.186 229.985 102.536C229.985 102.881 229.853 103.177 229.588 103.424C229.328 103.667 229.013 103.788 228.642 103.788ZM239.932 107.777L237.823 108.007C237.763 107.794 237.659 107.594 237.51 107.406C237.365 107.219 237.169 107.067 236.922 106.952C236.674 106.837 236.372 106.78 236.014 106.78C235.532 106.78 235.128 106.884 234.799 107.093C234.476 107.302 234.316 107.572 234.32 107.905C234.316 108.19 234.42 108.423 234.633 108.602C234.851 108.781 235.209 108.928 235.707 109.043L237.382 109.401C238.311 109.601 239.001 109.918 239.453 110.353C239.909 110.788 240.139 111.357 240.143 112.06C240.139 112.678 239.958 113.223 239.6 113.696C239.246 114.165 238.754 114.531 238.123 114.795C237.493 115.06 236.768 115.192 235.95 115.192C234.748 115.192 233.781 114.94 233.048 114.438C232.315 113.93 231.878 113.225 231.738 112.322L233.994 112.104C234.096 112.548 234.314 112.882 234.646 113.108C234.978 113.334 235.411 113.447 235.944 113.447C236.493 113.447 236.934 113.334 237.267 113.108C237.603 112.882 237.772 112.603 237.772 112.271C237.772 111.989 237.663 111.757 237.446 111.574C237.233 111.391 236.9 111.25 236.449 111.152L234.774 110.8C233.832 110.604 233.135 110.274 232.684 109.81C232.232 109.341 232.008 108.749 232.013 108.033C232.008 107.428 232.172 106.903 232.505 106.46C232.841 106.013 233.308 105.668 233.905 105.425C234.505 105.178 235.198 105.054 235.982 105.054C237.133 105.054 238.038 105.299 238.699 105.789C239.363 106.279 239.775 106.942 239.932 107.777ZM244.161 111.919L244.154 109.126H244.525L248.053 105.182H250.757L246.417 110.014H245.938L244.161 111.919ZM242.051 115V101.909H244.365V115H242.051ZM248.213 115L245.017 110.532L246.577 108.902L250.981 115H248.213ZM256.242 115.192C255.257 115.192 254.407 114.987 253.691 114.578C252.979 114.165 252.432 113.581 252.048 112.827C251.665 112.068 251.473 111.175 251.473 110.148C251.473 109.138 251.665 108.252 252.048 107.489C252.436 106.722 252.977 106.126 253.672 105.7C254.367 105.269 255.183 105.054 256.12 105.054C256.725 105.054 257.296 105.152 257.833 105.348C258.374 105.54 258.852 105.838 259.265 106.243C259.683 106.648 260.011 107.163 260.249 107.79C260.488 108.412 260.607 109.153 260.607 110.014V110.724H252.56V109.164H258.389C258.385 108.721 258.289 108.327 258.102 107.982C257.914 107.632 257.652 107.357 257.315 107.157C256.983 106.957 256.595 106.857 256.152 106.857C255.679 106.857 255.264 106.972 254.906 107.202C254.548 107.428 254.269 107.726 254.068 108.097C253.872 108.463 253.772 108.866 253.768 109.305V110.666C253.768 111.237 253.872 111.727 254.081 112.136C254.29 112.541 254.582 112.852 254.957 113.07C255.332 113.283 255.771 113.389 256.274 113.389C256.61 113.389 256.915 113.342 257.188 113.249C257.46 113.151 257.697 113.008 257.897 112.82C258.097 112.633 258.249 112.401 258.351 112.124L260.511 112.366C260.375 112.937 260.115 113.436 259.732 113.862C259.352 114.284 258.867 114.612 258.274 114.847C257.682 115.077 257.004 115.192 256.242 115.192ZM84.2788 142V132.182H86.5927V142H84.2788ZM85.4421 130.788C85.0756 130.788 84.7603 130.667 84.4961 130.424C84.2319 130.177 84.0998 129.881 84.0998 129.536C84.0998 129.186 84.2319 128.89 84.4961 128.647C84.7603 128.4 85.0756 128.276 85.4421 128.276C85.8129 128.276 86.1282 128.4 86.3881 128.647C86.6523 128.89 86.7844 129.186 86.7844 129.536C86.7844 129.881 86.6523 130.177 86.3881 130.424C86.1282 130.667 85.8129 130.788 85.4421 130.788ZM91.286 136.247V142H88.9721V132.182H91.1838V133.85H91.2988C91.5247 133.3 91.8848 132.864 92.3791 132.54C92.8777 132.216 93.4934 132.054 94.2264 132.054C94.9039 132.054 95.4941 132.199 95.997 132.489C96.5041 132.778 96.8961 133.198 97.1731 133.748C97.4544 134.298 97.5929 134.964 97.5886 135.749V142H95.2747V136.107C95.2747 135.45 95.1042 134.937 94.7633 134.566C94.4267 134.195 93.96 134.01 93.3635 134.01C92.9586 134.01 92.5985 134.099 92.2832 134.278C91.9721 134.453 91.7271 134.707 91.5481 135.039C91.3734 135.371 91.286 135.774 91.286 136.247ZM104.211 145.886C103.38 145.886 102.666 145.773 102.069 145.548C101.473 145.326 100.993 145.028 100.631 144.653C100.269 144.278 100.018 143.862 99.877 143.406L101.961 142.901C102.055 143.093 102.191 143.283 102.37 143.47C102.549 143.662 102.79 143.82 103.092 143.943C103.399 144.071 103.785 144.135 104.249 144.135C104.905 144.135 105.449 143.975 105.879 143.656C106.309 143.34 106.525 142.82 106.525 142.096V140.236H106.41C106.29 140.474 106.116 140.719 105.885 140.971C105.66 141.222 105.359 141.433 104.984 141.604C104.613 141.774 104.147 141.859 103.584 141.859C102.83 141.859 102.146 141.683 101.532 141.329C100.923 140.971 100.437 140.438 100.075 139.731C99.7172 139.019 99.5382 138.129 99.5382 137.059C99.5382 135.981 99.7172 135.071 100.075 134.33C100.437 133.584 100.925 133.019 101.539 132.636C102.153 132.248 102.836 132.054 103.591 132.054C104.166 132.054 104.639 132.152 105.01 132.348C105.385 132.54 105.683 132.772 105.905 133.045C106.126 133.313 106.295 133.567 106.41 133.805H106.537V132.182H108.819V142.16C108.819 142.999 108.619 143.694 108.219 144.244C107.818 144.793 107.27 145.205 106.576 145.477C105.881 145.75 105.093 145.886 104.211 145.886ZM104.23 140.044C104.72 140.044 105.138 139.925 105.483 139.686C105.828 139.447 106.09 139.104 106.269 138.657C106.448 138.21 106.537 137.673 106.537 137.046C106.537 136.428 106.448 135.887 106.269 135.423C106.094 134.958 105.834 134.598 105.489 134.342C105.148 134.082 104.729 133.952 104.23 133.952C103.714 133.952 103.284 134.087 102.939 134.355C102.594 134.624 102.334 134.992 102.159 135.461C101.984 135.925 101.897 136.454 101.897 137.046C101.897 137.647 101.984 138.173 102.159 138.625C102.338 139.072 102.6 139.422 102.945 139.673C103.295 139.92 103.723 140.044 104.23 140.044ZM111.191 142V132.182H113.434V133.818H113.537C113.716 133.251 114.023 132.815 114.457 132.508C114.896 132.197 115.397 132.041 115.959 132.041C116.087 132.041 116.23 132.048 116.388 132.06C116.55 132.069 116.684 132.084 116.79 132.105V134.234C116.692 134.2 116.537 134.17 116.324 134.144C116.115 134.114 115.912 134.099 115.716 134.099C115.295 134.099 114.915 134.191 114.579 134.374C114.246 134.553 113.984 134.803 113.792 135.122C113.601 135.442 113.505 135.81 113.505 136.228V142H111.191ZM122.27 142.192C121.286 142.192 120.435 141.987 119.719 141.578C119.008 141.165 118.46 140.581 118.077 139.827C117.693 139.068 117.501 138.175 117.501 137.148C117.501 136.138 117.693 135.252 118.077 134.489C118.464 133.722 119.006 133.126 119.7 132.7C120.395 132.269 121.211 132.054 122.148 132.054C122.754 132.054 123.325 132.152 123.862 132.348C124.403 132.54 124.88 132.838 125.293 133.243C125.711 133.648 126.039 134.163 126.278 134.79C126.516 135.412 126.636 136.153 126.636 137.014V137.724H118.588V136.164H124.418C124.413 135.721 124.317 135.327 124.13 134.982C123.942 134.632 123.68 134.357 123.344 134.157C123.011 133.957 122.624 133.857 122.18 133.857C121.707 133.857 121.292 133.972 120.934 134.202C120.576 134.428 120.297 134.726 120.097 135.097C119.901 135.463 119.8 135.866 119.796 136.305V137.666C119.796 138.237 119.901 138.727 120.109 139.136C120.318 139.541 120.61 139.852 120.985 140.07C121.36 140.283 121.799 140.389 122.302 140.389C122.638 140.389 122.943 140.342 123.216 140.249C123.489 140.151 123.725 140.008 123.925 139.82C124.126 139.633 124.277 139.401 124.379 139.124L126.54 139.366C126.403 139.937 126.143 140.436 125.76 140.862C125.381 141.284 124.895 141.612 124.303 141.847C123.71 142.077 123.033 142.192 122.27 142.192ZM132.237 142.173C131.465 142.173 130.775 141.974 130.166 141.578C129.556 141.182 129.075 140.607 128.721 139.852C128.367 139.098 128.191 138.182 128.191 137.104C128.191 136.013 128.369 135.092 128.727 134.342C129.09 133.588 129.578 133.019 130.191 132.636C130.805 132.248 131.489 132.054 132.243 132.054C132.818 132.054 133.291 132.152 133.662 132.348C134.033 132.54 134.327 132.772 134.544 133.045C134.762 133.313 134.93 133.567 135.049 133.805H135.145V128.909H137.465V142H135.19V140.453H135.049C134.93 140.692 134.757 140.945 134.531 141.214C134.306 141.478 134.007 141.704 133.637 141.891C133.266 142.079 132.799 142.173 132.237 142.173ZM132.882 140.274C133.372 140.274 133.79 140.142 134.135 139.878C134.48 139.609 134.742 139.237 134.921 138.759C135.1 138.282 135.19 137.726 135.19 137.091C135.19 136.456 135.1 135.904 134.921 135.435C134.747 134.967 134.487 134.602 134.142 134.342C133.801 134.082 133.381 133.952 132.882 133.952C132.367 133.952 131.936 134.087 131.591 134.355C131.246 134.624 130.986 134.994 130.811 135.467C130.637 135.94 130.549 136.482 130.549 137.091C130.549 137.705 130.637 138.252 130.811 138.734C130.99 139.211 131.252 139.588 131.597 139.865C131.947 140.138 132.375 140.274 132.882 140.274ZM139.931 142V132.182H142.245V142H139.931ZM141.094 130.788C140.728 130.788 140.413 130.667 140.148 130.424C139.884 130.177 139.752 129.881 139.752 129.536C139.752 129.186 139.884 128.89 140.148 128.647C140.413 128.4 140.728 128.276 141.094 128.276C141.465 128.276 141.781 128.4 142.04 128.647C142.305 128.89 142.437 129.186 142.437 129.536C142.437 129.881 142.305 130.177 142.04 130.424C141.781 130.667 141.465 130.788 141.094 130.788ZM148.971 142.192C147.987 142.192 147.137 141.987 146.421 141.578C145.709 141.165 145.161 140.581 144.778 139.827C144.394 139.068 144.203 138.175 144.203 137.148C144.203 136.138 144.394 135.252 144.778 134.489C145.166 133.722 145.707 133.126 146.401 132.7C147.096 132.269 147.912 132.054 148.85 132.054C149.455 132.054 150.026 132.152 150.563 132.348C151.104 132.54 151.581 132.838 151.994 133.243C152.412 133.648 152.74 134.163 152.979 134.79C153.218 135.412 153.337 136.153 153.337 137.014V137.724H145.289V136.164H151.119C151.115 135.721 151.019 135.327 150.831 134.982C150.644 134.632 150.382 134.357 150.045 134.157C149.713 133.957 149.325 133.857 148.882 133.857C148.409 133.857 147.993 133.972 147.635 134.202C147.277 134.428 146.998 134.726 146.798 135.097C146.602 135.463 146.502 135.866 146.497 136.305V137.666C146.497 138.237 146.602 138.727 146.811 139.136C147.019 139.541 147.311 139.852 147.686 140.07C148.061 140.283 148.5 140.389 149.003 140.389C149.34 140.389 149.644 140.342 149.917 140.249C150.19 140.151 150.426 140.008 150.627 139.82C150.827 139.633 150.978 139.401 151.08 139.124L153.241 139.366C153.105 139.937 152.845 140.436 152.461 140.862C152.082 141.284 151.596 141.612 151.004 141.847C150.411 142.077 149.734 142.192 148.971 142.192ZM157.608 136.247V142H155.294V132.182H157.506V133.85H157.621C157.847 133.3 158.207 132.864 158.701 132.54C159.2 132.216 159.816 132.054 160.549 132.054C161.226 132.054 161.816 132.199 162.319 132.489C162.826 132.778 163.218 133.198 163.495 133.748C163.777 134.298 163.915 134.964 163.911 135.749V142H161.597V136.107C161.597 135.45 161.426 134.937 161.086 134.566C160.749 134.195 160.282 134.01 159.686 134.01C159.281 134.01 158.921 134.099 158.605 134.278C158.294 134.453 158.049 134.707 157.87 135.039C157.696 135.371 157.608 135.774 157.608 136.247ZM174.023 134.777L171.914 135.007C171.854 134.794 171.75 134.594 171.6 134.406C171.456 134.219 171.26 134.067 171.012 133.952C170.765 133.837 170.463 133.78 170.105 133.78C169.623 133.78 169.218 133.884 168.89 134.093C168.566 134.302 168.407 134.572 168.411 134.905C168.407 135.19 168.511 135.423 168.724 135.602C168.941 135.781 169.299 135.928 169.798 136.043L171.473 136.401C172.402 136.601 173.092 136.918 173.544 137.353C174 137.788 174.23 138.357 174.234 139.06C174.23 139.678 174.049 140.223 173.691 140.696C173.337 141.165 172.845 141.531 172.214 141.795C171.583 142.06 170.859 142.192 170.041 142.192C168.839 142.192 167.872 141.94 167.139 141.438C166.406 140.93 165.969 140.225 165.828 139.322L168.085 139.104C168.187 139.548 168.404 139.882 168.737 140.108C169.069 140.334 169.502 140.447 170.034 140.447C170.584 140.447 171.025 140.334 171.358 140.108C171.694 139.882 171.863 139.603 171.863 139.271C171.863 138.989 171.754 138.757 171.537 138.574C171.324 138.391 170.991 138.25 170.539 138.152L168.865 137.8C167.923 137.604 167.226 137.274 166.775 136.81C166.323 136.341 166.099 135.749 166.103 135.033C166.099 134.428 166.263 133.903 166.596 133.46C166.932 133.013 167.399 132.668 167.995 132.425C168.596 132.178 169.289 132.054 170.073 132.054C171.223 132.054 172.129 132.299 172.789 132.789C173.454 133.279 173.865 133.942 174.023 134.777ZM180.489 142.192C179.504 142.192 178.654 141.987 177.938 141.578C177.227 141.165 176.679 140.581 176.295 139.827C175.912 139.068 175.72 138.175 175.72 137.148C175.72 136.138 175.912 135.252 176.295 134.489C176.683 133.722 177.224 133.126 177.919 132.7C178.614 132.269 179.43 132.054 180.367 132.054C180.972 132.054 181.543 132.152 182.08 132.348C182.621 132.54 183.099 132.838 183.512 133.243C183.93 133.648 184.258 134.163 184.496 134.79C184.735 135.412 184.854 136.153 184.854 137.014V137.724H176.807V136.164H182.636C182.632 135.721 182.536 135.327 182.349 134.982C182.161 134.632 181.899 134.357 181.562 134.157C181.23 133.957 180.842 133.857 180.399 133.857C179.926 133.857 179.511 133.972 179.153 134.202C178.795 134.428 178.516 134.726 178.315 135.097C178.119 135.463 178.019 135.866 178.015 136.305V137.666C178.015 138.237 178.119 138.727 178.328 139.136C178.537 139.541 178.829 139.852 179.204 140.07C179.579 140.283 180.018 140.389 180.521 140.389C180.857 140.389 181.162 140.342 181.435 140.249C181.707 140.151 181.944 140.008 182.144 139.82C182.344 139.633 182.496 139.401 182.598 139.124L184.759 139.366C184.622 139.937 184.362 140.436 183.979 140.862C183.599 141.284 183.114 141.612 182.521 141.847C181.929 142.077 181.251 142.192 180.489 142.192ZM186.812 142V132.182H189.056V133.818H189.158C189.337 133.251 189.644 132.815 190.078 132.508C190.517 132.197 191.018 132.041 191.58 132.041C191.708 132.041 191.851 132.048 192.009 132.06C192.171 132.069 192.305 132.084 192.411 132.105V134.234C192.313 134.2 192.158 134.17 191.945 134.144C191.736 134.114 191.534 134.099 191.338 134.099C190.916 134.099 190.536 134.191 190.2 134.374C189.867 134.553 189.605 134.803 189.414 135.122C189.222 135.442 189.126 135.81 189.126 136.228V142H186.812ZM194.249 142.141C193.861 142.141 193.529 142.004 193.252 141.732C192.975 141.459 192.839 141.126 192.843 140.734C192.839 140.351 192.975 140.023 193.252 139.75C193.529 139.477 193.861 139.341 194.249 139.341C194.624 139.341 194.95 139.477 195.227 139.75C195.508 140.023 195.651 140.351 195.655 140.734C195.651 140.994 195.583 141.231 195.451 141.444C195.323 141.657 195.153 141.827 194.939 141.955C194.731 142.079 194.501 142.141 194.249 142.141Z" fill="#F291BA"/>
</svg>
