<svg xmlns="http://www.w3.org/2000/svg" xmlns:xlink="http://www.w3.org/1999/xlink" width="320" height="320" viewBox="0 0 320 320"><defs><style>.cls-1{fill:url(#radial-gradient);}.cls-2{fill:url(#radial-gradient-2);}.cls-3{fill:url(#radial-gradient-3);}.cls-4{fill:url(#radial-gradient-4);}.cls-5{fill:url(#radial-gradient-5);}.cls-6{fill:#a38078;}.cls-7{fill:url(#radial-gradient-6);}.cls-8{fill:url(#radial-gradient-7);}</style><radialGradient id="radial-gradient" cx="160" cy="153.97" r="147.88" gradientUnits="userSpaceOnUse"><stop offset="0" stop-color="#fffdf9"/><stop offset="0.16" stop-color="#fefaf4"/><stop offset="0.35" stop-color="#fcf1e5"/><stop offset="0.56" stop-color="#f9e1cc"/><stop offset="0.78" stop-color="#f4ccaa"/><stop offset="0.8" stop-color="#f4caa6"/><stop offset="1" stop-color="#fbf7f1"/></radialGradient><radialGradient id="radial-gradient-2" cx="468.92" cy="-2684.84" r="115.82" gradientTransform="matrix(0.98, 0.52, -0.5, 0.94, -1637.66, 2417.74)" gradientUnits="userSpaceOnUse"><stop offset="0" stop-color="#fffdf9"/><stop offset="0.15" stop-color="#fefaf4"/><stop offset="0.33" stop-color="#fcf1e5"/><stop offset="0.53" stop-color="#f9e1cc"/><stop offset="0.73" stop-color="#f4ccaa"/><stop offset="0.75" stop-color="#f4caa6"/><stop offset="0.81" stop-color="#f4cdab"/><stop offset="0.87" stop-color="#f6d6bb"/><stop offset="0.94" stop-color="#f8e6d4"/><stop offset="1" stop-color="#fbf7f1"/></radialGradient><radialGradient id="radial-gradient-3" cx="-7976.77" cy="-8936.51" r="70.69" gradientTransform="matrix(0.1, -1.03, -1.01, -0.1, -8166.16, -8938.85)" gradientUnits="userSpaceOnUse"><stop offset="0" stop-color="#f7eed2"/><stop offset="0.09" stop-color="#f6e6c5"/><stop offset="0.34" stop-color="#f4d2a4"/><stop offset="0.58" stop-color="#f3c48c"/><stop offset="0.81" stop-color="#f2bb7e"/><stop offset="1" stop-color="#f2b879"/></radialGradient><radialGradient id="radial-gradient-4" cx="234.88" cy="-3435.19" r="106.2" gradientTransform="matrix(0.95, 0.67, -0.69, 0.96, -2400.88, 3283.78)" gradientUnits="userSpaceOnUse"><stop offset="0" stop-color="#fae7d5"/><stop offset="0.63" stop-color="#f4caa6"/><stop offset="0.71" stop-color="#f5d1b2"/><stop offset="0.87" stop-color="#f8e4d1"/><stop offset="1" stop-color="#fbf7f1"/></radialGradient><radialGradient id="radial-gradient-5" cx="157.52" cy="144.7" r="107.83" gradientTransform="matrix(1, 0, 0, 1, 0, 0)" xlink:href="#radial-gradient-3"/><radialGradient id="radial-gradient-6" cx="220.55" cy="-784.94" r="35.56" gradientTransform="translate(0 1415) scale(1 1.46)" xlink:href="#radial-gradient-3"/><radialGradient id="radial-gradient-7" cx="122.75" cy="52.21" r="38.84" gradientTransform="matrix(1, 0, 0, 1, 0, 0)" xlink:href="#radial-gradient-3"/></defs><g id="Layer_2" data-name="Layer 2"><path class="cls-1" d="M310.07,149.33c.24,31.55-12.85,56.43-21.61,70a15.36,15.36,0,0,1-1.39,10c-1.13,2.08-2,2.29-7,7-5.66,5.33-5.93,6.37-8,7-1.51.46-5.2,1.08-11-3l-17.88,26.18a24.51,24.51,0,0,0-4.12,3.82c-2.43,2.85-2.81,4.66-4,6-1.64,1.84-5.23,3.32-14,1.32L212.39,282a76.7,76.7,0,0,1-8.32,8.31c-5.63,4.82-9.38,8-14,9-9.89,2.07-19.15-7.09-21-9a44.21,44.21,0,0,1-9,0,46.16,46.16,0,0,1-20-7l-49-18c-6.7-4.48-12.19-7.78-16-10-5.55-3.21-9.53-5.26-12-10a17.85,17.85,0,0,1-1.93-6.78q-4.68-5.7-9.37-11.38a61.81,61.81,0,0,1-9.7-7.84c-4.11-4.06-12.08-11.94-14-23-.78-4.44,0-5.94,1-15a200.52,200.52,0,0,0,1-27q-1-2.49-2-5a12.09,12.09,0,0,1-9,2,11.73,11.73,0,0,1-9-9c-.88-4.71,2.78-6,5-13,3.59-11.31-2.6-18.75,2-23,3.36-3.11,8.6-.92,10-4,1.05-2.33-1.76-4-2-8-.3-4.81,3.47-7.09,8-14,2.7-4.13,1.35-3.32,7-15,7.25-15,9.49-16.38,11-17S57.83,46,67,52.06C78,41.4,115.78,7.36,169.07,8.33,244,9.7,309.51,79.56,310.07,149.33Z"/><path class="cls-2" d="M272.72,201.38c-23,43.65-74.8,68.71-128.94,61.83a41.32,41.32,0,0,1-20.53-1.82c-8.66-3.18-13.76-8.7-17.6-12.71-21.79-22.83-23.63-19.08-32.82-31-6.29-8.14-18.13-26.34-21-57.1-3.8,5.3-8.32,8.22-11.42,7.14-2.73-1-3.54-4.73-4.67-10.4-.93-4.62-2.09-13.28.16-25.94a92.92,92.92,0,0,1,3-12c-2.85-6.64-2.14-10.62-1-13,2.17-4.66,6.13-3.78,9.62-9.61,2.58-4.31,3.07-9.23,3.44-12.9a49,49,0,0,0,.15-6.7,55.18,55.18,0,0,1,3.6-19.6,17.4,17.4,0,0,0,7.27-5.2c2.43-3,2.34-5.25,3.75-7.07,1.89-2.44,6.67-4.39,19.93-1.19C88.35,42.43,155,2.53,218,36.59,273.77,66.75,303.79,142.53,272.72,201.38Z"/><path class="cls-3" d="M47.78,172.89c12.63-.51,17.15-36.73,28.94-36.66,3.9,0,4.23,4.05,10.25,5.05,9.31,1.55,17.87-6,20.22-8.27,11.51-11.06,7.39-22.64,14.51-25.8,11.58-5.14,33.48,20.64,35.79,18.33,1.42-1.41-7.81-10.08-5.17-16.11,2-4.56,8.77-3,18.1-7.12,3.09-1.35,16.71-7.67,21.43-21.06,5.59-15.87-4.67-32.06-5.7-31.79-.78.2,3.69,9.7.62,21.79-.61,2.4-4.77,17-16.12,21.57-10.85,4.42-23.35-3.73-24.71-1-1.12,2.27,7.61,7.41,6.35,10.79-1,2.67-7.7,3-12.94,2.17-15.9-2.35-22.33-15-26.94-12.74-4.77,2.38,2.45,15.82-4.74,28.76-3.72,6.7-11.19,13.08-19.4,13.79-7.36.64-10.23-3.72-21.47-6.79-9.36-2.55-15.8,2.49-20.6-1.95-2.4-2.22-3-5-5.53-5.28s-5.8,2.26-5.82,4.88c0,3,4.06,4.85,4.87,5.22,4.87,2.24,7.58-.54,14.67.71.44.08,8.11,1.48,8.32,4.19.13,1.59-2.44,2.27-6.55,5.49-2.5,1.95-10.11,7.91-9.31,13.38.31,2.17,1.71,2.6,1.54,4.9a7.44,7.44,0,0,1-3.89,5.75c-3.22,1.7-6.42-.06-6.77.72C37.23,166.93,42.47,173.11,47.78,172.89Z"/><path class="cls-4" d="M277,209.67c-29.15,41-83.14,60.6-134.42,48.19A38.65,38.65,0,0,1,123,253.93c-7.88-4.05-11.94-10.06-15-14.45-17.49-24.94-19.86-21.41-26.88-34.17-4.8-8.74-13.4-28.05-11.3-58.93-4.51,4.87-9.33,7.31-12.16,5.92-2.49-1.23-2.68-5.06-2.89-10.82-.17-4.69.06-13.42,4.23-25.78a101.36,101.36,0,0,1,4.75-11.63c-1.71-6.89-.4-10.78,1-13,2.83-4.42,6.52-3.13,10.82-8.57C78.78,78.45,80,73.62,81,70a52.24,52.24,0,0,0,1.21-6.65,58.55,58.55,0,0,1,6.55-19.12,18.27,18.27,0,0,0,7.86-4.42c2.82-2.75,3.08-5,4.73-6.64,2.21-2.23,7.14-3.68,19.46.87C123.67,32.64,194.39-.16,250,40.2,299.16,75.93,316.3,154.36,277,209.67Z"/><path class="cls-5" d="M57.07,233.33c2.5-18.76,56.45-20.39,58-38,.5-5.81-5.37-6.88-6-16-1-14.11,11.34-25.81,15-29,17.88-15.61,34.35-7.82,40-18,9.18-16.55-25.73-52.87-22-56,2.28-1.91,13.75,13.08,23,10,7-2.33,5.67-12.65,13-26,2.42-4.42,13.63-23.85,34-29,24.13-6.1,46.53,11.5,46,13-.41,1.13-13.77-6.87-32-4-3.62.57-25.61,4.71-34,21-8,15.56,2.23,35.37-2,37-3.5,1.35-9.85-12.4-15-11-4.07,1.11-5.42,11.08-5,19,1.24,24.06,19,35.45,15,42-4.17,6.79-22.94-5.89-43,3-10.39,4.61-20.81,14.86-23,27-2,10.9,4,15.79,7,33,2.45,14.32-5.88,23.21,0,31,2.93,3.9,7,5.17,7,9s-4.14,8.34-8,8c-4.38-.38-6.57-6.74-7-8-2.62-7.59,1.84-11.23,1-22-.06-.66-1-12.29-5-13-2.33-.41-3.69,3.32-9,9-3.23,3.45-13.06,14-21,12-3.15-.77-3.59-2.92-7-3a11,11,0,0,0-9,5c-2.95,4.57-.81,9.59-2,10C64.37,249.92,56,241.23,57.07,233.33Z"/><circle class="cls-6" cx="81.43" cy="102.86" r="1.77"/><circle class="cls-6" cx="175.03" cy="158.88" r="0.8"/><circle class="cls-6" cx="143.21" cy="147.56" r="0.8"/><circle class="cls-6" cx="170.08" cy="79.68" r="0.8"/><circle class="cls-6" cx="176.45" cy="127.05" r="0.8"/><circle class="cls-6" cx="163.01" cy="146.15" r="0.8"/><circle class="cls-6" cx="129.07" cy="158.17" r="0.8"/><circle class="cls-6" cx="151.7" cy="86.75" r="0.8"/><circle class="cls-6" cx="130.48" cy="116.45" r="0.8"/><circle class="cls-6" cx="192.01" cy="100.89" r="0.8"/><ellipse class="cls-6" cx="151.04" cy="133.77" rx="0.14" ry="0.16"/><ellipse class="cls-6" cx="150.33" cy="116.09" rx="0.14" ry="0.16"/><ellipse class="cls-6" cx="150.33" cy="121.75" rx="0.14" ry="0.16"/><ellipse class="cls-6" cx="155.28" cy="113.97" rx="0.14" ry="0.16"/><ellipse class="cls-6" cx="148.21" cy="111.14" rx="0.14" ry="0.16"/><ellipse class="cls-6" cx="143.97" cy="115.39" rx="0.14" ry="0.16"/><ellipse class="cls-6" cx="150.33" cy="127.41" rx="0.14" ry="0.16"/><ellipse class="cls-6" cx="160.23" cy="116.09" rx="0.14" ry="0.16"/><ellipse class="cls-6" cx="150.33" cy="101.24" rx="0.14" ry="0.16"/><ellipse class="cls-6" cx="142.55" cy="113.97" rx="0.14" ry="0.16"/><ellipse class="cls-6" cx="128.41" cy="130.24" rx="0.14" ry="0.16"/><ellipse class="cls-6" cx="142.55" cy="102.66" rx="0.14" ry="0.16"/><ellipse class="cls-6" cx="150.33" cy="108.32" rx="0.14" ry="0.16"/><ellipse class="cls-6" cx="119.92" cy="113.97" rx="0.14" ry="0.16"/><ellipse class="cls-6" cx="123.46" cy="116.8" rx="0.14" ry="0.16"/><ellipse class="cls-6" cx="124.87" cy="111.14" rx="0.14" ry="0.16"/><ellipse class="cls-6" cx="145.38" cy="104.78" rx="0.14" ry="0.16"/><ellipse class="cls-6" cx="133.36" cy="122.46" rx="0.14" ry="0.16"/><ellipse class="cls-6" cx="169.42" cy="116.09" rx="0.14" ry="0.16"/><ellipse class="cls-6" cx="163.06" cy="135.89" rx="0.14" ry="0.16"/><ellipse class="cls-6" cx="176.49" cy="111.85" rx="0.14" ry="0.16"/><ellipse class="cls-6" cx="159.52" cy="119.63" rx="0.14" ry="0.16"/><circle class="cls-6" cx="144.63" cy="122.1" r="0.8"/><circle class="cls-6" cx="154.53" cy="107.25" r="0.8"/><circle class="cls-6" cx="133.05" cy="101.44" r="1.77"/><circle class="cls-6" cx="169.82" cy="104.98" r="1.77"/><circle class="cls-6" cx="136.59" cy="133.97" r="1.77"/><circle class="cls-6" cx="123.26" cy="139.05" r="0.8"/><circle class="cls-6" cx="99.92" cy="114.64" r="0.8"/><circle class="cls-6" cx="148.08" cy="73.86" r="0.8"/><circle class="cls-6" cx="138.83" cy="111.26" r="0.8"/><circle class="cls-6" cx="118.24" cy="122.28" r="0.8"/><circle class="cls-6" cx="82.52" cy="117.75" r="0.8"/><circle class="cls-6" cx="134.84" cy="64.13" r="0.8"/><circle class="cls-6" cx="102.54" cy="81.12" r="0.8"/><circle class="cls-6" cx="164.49" cy="94.89" r="0.8"/><circle class="cls-6" cx="123.36" cy="99.52" r="0.8"/><circle class="cls-6" cx="111.58" cy="68.87" r="1.77"/><circle class="cls-6" cx="142.83" cy="88.56" r="1.77"/><circle class="cls-6" cx="100.11" cy="99.52" r="1.77"/><circle class="cls-6" cx="124.35" cy="123.68" r="0.8"/><circle class="cls-6" cx="105.96" cy="130.75" r="0.8"/><circle class="cls-6" cx="108.71" cy="110.09" r="0.8"/><circle class="cls-6" cx="89.11" cy="108.14" r="0.8"/><circle class="cls-6" cx="118.75" cy="138.89" r="0.8"/><circle class="cls-6" cx="97.1" cy="132.57" r="1.77"/><ellipse class="cls-6" cx="200.07" cy="132.77" rx="0.14" ry="0.16"/><ellipse class="cls-6" cx="131.81" cy="91.18" rx="0.14" ry="0.16"/><ellipse class="cls-6" cx="127.57" cy="95.42" rx="0.14" ry="0.16"/><ellipse class="cls-6" cx="126.16" cy="94.01" rx="0.14" ry="0.16"/><ellipse class="cls-6" cx="126.16" cy="82.69" rx="0.14" ry="0.16"/><ellipse class="cls-6" cx="128.98" cy="84.81" rx="0.14" ry="0.16"/><ellipse class="cls-6" cx="116.26" cy="90.47" rx="0.14" ry="0.16"/><ellipse class="cls-6" cx="112.01" cy="94.71" rx="0.14" ry="0.16"/><ellipse class="cls-6" cx="110.6" cy="93.3" rx="0.14" ry="0.16"/><ellipse class="cls-6" cx="110.6" cy="81.98" rx="0.14" ry="0.16"/><ellipse class="cls-6" cx="113.43" cy="84.11" rx="0.14" ry="0.16"/><ellipse class="cls-6" cx="131.99" cy="91.53" rx="0.14" ry="0.16"/><ellipse class="cls-6" cx="129.86" cy="86.58" rx="0.14" ry="0.16"/><ellipse class="cls-6" cx="125.62" cy="90.82" rx="0.14" ry="0.16"/><ellipse class="cls-6" cx="131.99" cy="76.68" rx="0.14" ry="0.16"/><ellipse class="cls-6" cx="124.21" cy="89.41" rx="0.14" ry="0.16"/><ellipse class="cls-6" cx="124.21" cy="78.1" rx="0.14" ry="0.16"/><ellipse class="cls-6" cx="131.99" cy="83.75" rx="0.14" ry="0.16"/><ellipse class="cls-6" cx="127.04" cy="80.22" rx="0.14" ry="0.16"/><circle class="cls-6" cx="136.18" cy="82.69" r="0.8"/><circle class="cls-6" cx="120.48" cy="86.7" r="0.8"/><ellipse class="cls-6" cx="159.62" cy="85.33" rx="0.14" ry="0.16"/><ellipse class="cls-6" cx="157.5" cy="80.38" rx="0.14" ry="0.16"/><ellipse class="cls-6" cx="153.26" cy="84.62" rx="0.14" ry="0.16"/><ellipse class="cls-6" cx="159.62" cy="70.48" rx="0.14" ry="0.16"/><ellipse class="cls-6" cx="151.84" cy="83.21" rx="0.14" ry="0.16"/><ellipse class="cls-6" cx="151.84" cy="71.89" rx="0.14" ry="0.16"/><ellipse class="cls-6" cx="159.62" cy="77.55" rx="0.14" ry="0.16"/><ellipse class="cls-6" cx="154.67" cy="74.01" rx="0.14" ry="0.16"/><circle class="cls-6" cx="148.12" cy="80.5" r="0.8"/><ellipse class="cls-6" cx="162.32" cy="95.93" rx="0.14" ry="0.16"/><ellipse class="cls-6" cx="160.2" cy="90.98" rx="0.14" ry="0.16"/><ellipse class="cls-6" cx="155.96" cy="95.23" rx="0.14" ry="0.16"/><ellipse class="cls-6" cx="162.32" cy="81.08" rx="0.14" ry="0.16"/><ellipse class="cls-6" cx="162.32" cy="88.16" rx="0.14" ry="0.16"/><ellipse class="cls-6" cx="157.37" cy="84.62" rx="0.14" ry="0.16"/><ellipse class="cls-6" cx="143.23" cy="105.13" rx="0.14" ry="0.16"/><ellipse class="cls-6" cx="141.11" cy="100.18" rx="0.14" ry="0.16"/><ellipse class="cls-6" cx="136.87" cy="104.42" rx="0.14" ry="0.16"/><ellipse class="cls-6" cx="143.23" cy="90.28" rx="0.14" ry="0.16"/><ellipse class="cls-6" cx="143.23" cy="97.35" rx="0.14" ry="0.16"/><ellipse class="cls-6" cx="138.28" cy="93.81" rx="0.14" ry="0.16"/><circle class="cls-6" cx="141.43" cy="169.86" r="1.77"/><circle class="cls-6" cx="235.03" cy="225.88" r="0.8"/><circle class="cls-6" cx="203.21" cy="214.56" r="0.8"/><circle class="cls-6" cx="230.08" cy="146.68" r="0.8"/><circle class="cls-6" cx="236.45" cy="194.05" r="0.8"/><circle class="cls-6" cx="223.01" cy="213.15" r="0.8"/><circle class="cls-6" cx="189.07" cy="225.17" r="0.8"/><circle class="cls-6" cx="211.7" cy="153.75" r="0.8"/><circle class="cls-6" cx="190.48" cy="183.45" r="0.8"/><circle class="cls-6" cx="252.01" cy="167.89" r="0.8"/><ellipse class="cls-6" cx="211.04" cy="200.77" rx="0.14" ry="0.16"/><ellipse class="cls-6" cx="210.33" cy="183.09" rx="0.14" ry="0.16"/><ellipse class="cls-6" cx="210.33" cy="188.75" rx="0.14" ry="0.16"/><ellipse class="cls-6" cx="215.28" cy="180.97" rx="0.14" ry="0.16"/><ellipse class="cls-6" cx="208.21" cy="178.14" rx="0.14" ry="0.16"/><ellipse class="cls-6" cx="203.97" cy="182.39" rx="0.14" ry="0.16"/><ellipse class="cls-6" cx="210.33" cy="194.41" rx="0.14" ry="0.16"/><ellipse class="cls-6" cx="220.23" cy="183.09" rx="0.14" ry="0.16"/><ellipse class="cls-6" cx="210.33" cy="168.24" rx="0.14" ry="0.16"/><ellipse class="cls-6" cx="202.55" cy="180.97" rx="0.14" ry="0.16"/><ellipse class="cls-6" cx="188.41" cy="197.24" rx="0.14" ry="0.16"/><ellipse class="cls-6" cx="202.55" cy="169.66" rx="0.14" ry="0.16"/><ellipse class="cls-6" cx="210.33" cy="175.32" rx="0.14" ry="0.16"/><ellipse class="cls-6" cx="179.92" cy="180.97" rx="0.14" ry="0.16"/><ellipse class="cls-6" cx="183.46" cy="183.8" rx="0.14" ry="0.16"/><ellipse class="cls-6" cx="184.87" cy="178.14" rx="0.14" ry="0.16"/><ellipse class="cls-6" cx="205.38" cy="171.78" rx="0.14" ry="0.16"/><ellipse class="cls-6" cx="193.36" cy="189.46" rx="0.14" ry="0.16"/><ellipse class="cls-6" cx="229.42" cy="183.09" rx="0.14" ry="0.16"/><ellipse class="cls-6" cx="223.06" cy="202.89" rx="0.14" ry="0.16"/><ellipse class="cls-6" cx="236.49" cy="178.85" rx="0.14" ry="0.16"/><ellipse class="cls-6" cx="219.52" cy="186.63" rx="0.14" ry="0.16"/><circle class="cls-6" cx="204.63" cy="189.1" r="0.8"/><circle class="cls-6" cx="214.53" cy="174.25" r="0.8"/><circle class="cls-6" cx="193.05" cy="168.44" r="1.77"/><circle class="cls-6" cx="229.82" cy="171.98" r="1.77"/><circle class="cls-6" cx="196.59" cy="200.97" r="1.77"/><circle class="cls-6" cx="183.26" cy="206.05" r="0.8"/><circle class="cls-6" cx="159.92" cy="181.64" r="0.8"/><circle class="cls-6" cx="208.08" cy="140.86" r="0.8"/><circle class="cls-6" cx="198.83" cy="178.26" r="0.8"/><circle class="cls-6" cx="178.24" cy="189.28" r="0.8"/><circle class="cls-6" cx="142.52" cy="184.75" r="0.8"/><circle class="cls-6" cx="194.84" cy="131.13" r="0.8"/><circle class="cls-6" cx="162.54" cy="148.12" r="0.8"/><circle class="cls-6" cx="224.49" cy="161.89" r="0.8"/><circle class="cls-6" cx="183.36" cy="166.52" r="0.8"/><circle class="cls-6" cx="171.58" cy="135.87" r="1.77"/><circle class="cls-6" cx="202.83" cy="155.56" r="1.77"/><circle class="cls-6" cx="160.11" cy="166.52" r="1.77"/><circle class="cls-6" cx="184.35" cy="190.68" r="0.8"/><circle class="cls-6" cx="165.96" cy="197.75" r="0.8"/><circle class="cls-6" cx="168.71" cy="177.09" r="0.8"/><circle class="cls-6" cx="149.11" cy="175.14" r="0.8"/><circle class="cls-6" cx="178.75" cy="205.89" r="0.8"/><circle class="cls-6" cx="157.1" cy="199.57" r="1.77"/><ellipse class="cls-6" cx="260.07" cy="199.77" rx="0.14" ry="0.16"/><ellipse class="cls-6" cx="191.81" cy="158.18" rx="0.14" ry="0.16"/><ellipse class="cls-6" cx="187.57" cy="162.42" rx="0.14" ry="0.16"/><ellipse class="cls-6" cx="186.16" cy="161.01" rx="0.14" ry="0.16"/><ellipse class="cls-6" cx="186.16" cy="149.69" rx="0.14" ry="0.16"/><ellipse class="cls-6" cx="188.98" cy="151.81" rx="0.14" ry="0.16"/><ellipse class="cls-6" cx="176.26" cy="157.47" rx="0.14" ry="0.16"/><ellipse class="cls-6" cx="172.01" cy="161.71" rx="0.14" ry="0.16"/><ellipse class="cls-6" cx="170.6" cy="160.3" rx="0.14" ry="0.16"/><ellipse class="cls-6" cx="170.6" cy="148.98" rx="0.14" ry="0.16"/><ellipse class="cls-6" cx="173.43" cy="151.11" rx="0.14" ry="0.16"/><ellipse class="cls-6" cx="191.99" cy="158.53" rx="0.14" ry="0.16"/><ellipse class="cls-6" cx="189.86" cy="153.58" rx="0.14" ry="0.16"/><ellipse class="cls-6" cx="185.62" cy="157.82" rx="0.14" ry="0.16"/><ellipse class="cls-6" cx="191.99" cy="143.68" rx="0.14" ry="0.16"/><ellipse class="cls-6" cx="184.21" cy="156.41" rx="0.14" ry="0.16"/><ellipse class="cls-6" cx="184.21" cy="145.1" rx="0.14" ry="0.16"/><ellipse class="cls-6" cx="191.99" cy="150.75" rx="0.14" ry="0.16"/><ellipse class="cls-6" cx="187.04" cy="147.22" rx="0.14" ry="0.16"/><circle class="cls-6" cx="196.18" cy="149.69" r="0.8"/><circle class="cls-6" cx="180.48" cy="153.7" r="0.8"/><ellipse class="cls-6" cx="219.62" cy="152.33" rx="0.14" ry="0.16"/><ellipse class="cls-6" cx="217.5" cy="147.38" rx="0.14" ry="0.16"/><ellipse class="cls-6" cx="213.26" cy="151.62" rx="0.14" ry="0.16"/><ellipse class="cls-6" cx="219.62" cy="137.48" rx="0.14" ry="0.16"/><ellipse class="cls-6" cx="211.84" cy="150.21" rx="0.14" ry="0.16"/><ellipse class="cls-6" cx="211.84" cy="138.89" rx="0.14" ry="0.16"/><ellipse class="cls-6" cx="219.62" cy="144.55" rx="0.14" ry="0.16"/><ellipse class="cls-6" cx="214.67" cy="141.01" rx="0.14" ry="0.16"/><circle class="cls-6" cx="208.12" cy="147.5" r="0.8"/><ellipse class="cls-6" cx="222.32" cy="162.93" rx="0.14" ry="0.16"/><ellipse class="cls-6" cx="220.2" cy="157.98" rx="0.14" ry="0.16"/><ellipse class="cls-6" cx="215.96" cy="162.23" rx="0.14" ry="0.16"/><ellipse class="cls-6" cx="222.32" cy="148.08" rx="0.14" ry="0.16"/><ellipse class="cls-6" cx="222.32" cy="155.16" rx="0.14" ry="0.16"/><ellipse class="cls-6" cx="217.37" cy="151.62" rx="0.14" ry="0.16"/><ellipse class="cls-6" cx="203.23" cy="172.13" rx="0.14" ry="0.16"/><ellipse class="cls-6" cx="201.11" cy="167.18" rx="0.14" ry="0.16"/><ellipse class="cls-6" cx="196.87" cy="171.42" rx="0.14" ry="0.16"/><ellipse class="cls-6" cx="203.23" cy="157.28" rx="0.14" ry="0.16"/><ellipse class="cls-6" cx="203.23" cy="164.35" rx="0.14" ry="0.16"/><ellipse class="cls-6" cx="198.28" cy="160.81" rx="0.14" ry="0.16"/><circle class="cls-6" cx="179.8" cy="103.19" r="1.14"/><circle class="cls-6" cx="239.9" cy="139.16" r="0.51"/><circle class="cls-6" cx="219.47" cy="131.9" r="0.51"/><circle class="cls-6" cx="236.72" cy="88.31" r="0.51"/><circle class="cls-6" cx="240.81" cy="118.73" r="0.51"/><circle class="cls-6" cx="232.18" cy="130.99" r="0.51"/><circle class="cls-6" cx="210.39" cy="138.71" r="0.51"/><circle class="cls-6" cx="224.92" cy="92.85" r="0.51"/><circle class="cls-6" cx="211.3" cy="111.92" r="0.51"/><circle class="cls-6" cx="250.8" cy="101.93" r="0.51"/><ellipse class="cls-6" cx="224.49" cy="123.04" rx="0.09" ry="0.1"/><ellipse class="cls-6" cx="224.04" cy="111.69" rx="0.09" ry="0.1"/><ellipse class="cls-6" cx="224.04" cy="115.32" rx="0.09" ry="0.1"/><ellipse class="cls-6" cx="227.22" cy="110.33" rx="0.09" ry="0.1"/><ellipse class="cls-6" cx="222.68" cy="108.51" rx="0.09" ry="0.1"/><ellipse class="cls-6" cx="219.95" cy="111.24" rx="0.09" ry="0.1"/><ellipse class="cls-6" cx="224.04" cy="118.96" rx="0.09" ry="0.1"/><ellipse class="cls-6" cx="230.4" cy="111.69" rx="0.09" ry="0.1"/><ellipse class="cls-6" cx="224.04" cy="102.15" rx="0.09" ry="0.1"/><ellipse class="cls-6" cx="219.04" cy="110.33" rx="0.09" ry="0.1"/><ellipse class="cls-6" cx="209.96" cy="120.77" rx="0.09" ry="0.1"/><ellipse class="cls-6" cx="219.04" cy="103.06" rx="0.09" ry="0.1"/><ellipse class="cls-6" cx="224.04" cy="106.7" rx="0.09" ry="0.1"/><ellipse class="cls-6" cx="204.51" cy="110.33" rx="0.09" ry="0.1"/><ellipse class="cls-6" cx="206.78" cy="112.14" rx="0.09" ry="0.1"/><ellipse class="cls-6" cx="207.69" cy="108.51" rx="0.09" ry="0.1"/><ellipse class="cls-6" cx="220.86" cy="104.43" rx="0.09" ry="0.1"/><ellipse class="cls-6" cx="213.14" cy="115.78" rx="0.09" ry="0.1"/><ellipse class="cls-6" cx="236.3" cy="111.69" rx="0.09" ry="0.1"/><ellipse class="cls-6" cx="232.21" cy="124.4" rx="0.09" ry="0.1"/><ellipse class="cls-6" cx="240.84" cy="108.97" rx="0.09" ry="0.1"/><ellipse class="cls-6" cx="229.94" cy="113.96" rx="0.09" ry="0.1"/><circle class="cls-6" cx="220.38" cy="115.55" r="0.51"/><circle class="cls-6" cx="226.73" cy="106.01" r="0.51"/><circle class="cls-6" cx="212.94" cy="102.28" r="1.14"/><circle class="cls-6" cx="236.56" cy="104.55" r="1.14"/><circle class="cls-6" cx="215.21" cy="123.17" r="1.14"/><circle class="cls-6" cx="206.66" cy="126.43" r="0.51"/><circle class="cls-6" cx="191.67" cy="110.75" r="0.51"/><circle class="cls-6" cx="222.6" cy="84.57" r="0.51"/><circle class="cls-6" cx="216.65" cy="108.59" r="0.51"/><circle class="cls-6" cx="203.43" cy="115.66" r="0.51"/><circle class="cls-6" cx="180.5" cy="112.76" r="0.51"/><circle class="cls-6" cx="214.09" cy="78.32" r="0.51"/><circle class="cls-6" cx="193.35" cy="89.23" r="0.51"/><circle class="cls-6" cx="233.13" cy="98.07" r="0.51"/><circle class="cls-6" cx="206.72" cy="101.05" r="0.51"/><circle class="cls-6" cx="199.16" cy="81.37" r="1.14"/><circle class="cls-6" cx="219.23" cy="94.01" r="1.14"/><circle class="cls-6" cx="191.79" cy="101.05" r="1.14"/><circle class="cls-6" cx="207.36" cy="116.56" r="0.51"/><circle class="cls-6" cx="195.55" cy="121.1" r="0.51"/><circle class="cls-6" cx="197.31" cy="107.83" r="0.51"/><circle class="cls-6" cx="184.73" cy="106.58" r="0.51"/><circle class="cls-6" cx="203.76" cy="126.33" r="0.51"/><circle class="cls-6" cx="189.86" cy="122.27" r="1.14"/><ellipse class="cls-6" cx="255.98" cy="122.4" rx="0.09" ry="0.1"/><ellipse class="cls-6" cx="212.15" cy="95.69" rx="0.09" ry="0.1"/><ellipse class="cls-6" cx="209.42" cy="98.42" rx="0.09" ry="0.1"/><ellipse class="cls-6" cx="208.52" cy="97.51" rx="0.09" ry="0.1"/><ellipse class="cls-6" cx="208.52" cy="90.24" rx="0.09" ry="0.1"/><ellipse class="cls-6" cx="210.33" cy="91.6" rx="0.09" ry="0.1"/><ellipse class="cls-6" cx="202.16" cy="95.24" rx="0.09" ry="0.1"/><ellipse class="cls-6" cx="199.43" cy="97.96" rx="0.09" ry="0.1"/><ellipse class="cls-6" cx="198.53" cy="97.05" rx="0.09" ry="0.1"/><ellipse class="cls-6" cx="198.53" cy="89.79" rx="0.09" ry="0.1"/><ellipse class="cls-6" cx="200.34" cy="91.15" rx="0.09" ry="0.1"/><ellipse class="cls-6" cx="212.26" cy="95.92" rx="0.09" ry="0.1"/><ellipse class="cls-6" cx="210.9" cy="92.74" rx="0.09" ry="0.1"/><ellipse class="cls-6" cx="208.17" cy="95.46" rx="0.09" ry="0.1"/><ellipse class="cls-6" cx="212.26" cy="86.38" rx="0.09" ry="0.1"/><ellipse class="cls-6" cx="207.26" cy="94.56" rx="0.09" ry="0.1"/><ellipse class="cls-6" cx="207.26" cy="87.29" rx="0.09" ry="0.1"/><ellipse class="cls-6" cx="212.26" cy="90.92" rx="0.09" ry="0.1"/><ellipse class="cls-6" cx="209.08" cy="88.65" rx="0.09" ry="0.1"/><circle class="cls-6" cx="214.96" cy="90.24" r="0.51"/><circle class="cls-6" cx="204.87" cy="92.82" r="0.51"/><ellipse class="cls-6" cx="230.01" cy="91.93" rx="0.09" ry="0.1"/><ellipse class="cls-6" cx="228.64" cy="88.76" rx="0.09" ry="0.1"/><ellipse class="cls-6" cx="225.92" cy="91.48" rx="0.09" ry="0.1"/><ellipse class="cls-6" cx="230.01" cy="82.4" rx="0.09" ry="0.1"/><ellipse class="cls-6" cx="225.01" cy="90.57" rx="0.09" ry="0.1"/><ellipse class="cls-6" cx="225.01" cy="83.31" rx="0.09" ry="0.1"/><ellipse class="cls-6" cx="230.01" cy="86.94" rx="0.09" ry="0.1"/><ellipse class="cls-6" cx="226.83" cy="84.67" rx="0.09" ry="0.1"/><circle class="cls-6" cx="222.62" cy="88.83" r="0.51"/><ellipse class="cls-6" cx="231.74" cy="98.75" rx="0.09" ry="0.1"/><ellipse class="cls-6" cx="230.38" cy="95.57" rx="0.09" ry="0.1"/><ellipse class="cls-6" cx="227.65" cy="98.29" rx="0.09" ry="0.1"/><ellipse class="cls-6" cx="231.74" cy="89.21" rx="0.09" ry="0.1"/><ellipse class="cls-6" cx="231.74" cy="93.75" rx="0.09" ry="0.1"/><ellipse class="cls-6" cx="228.56" cy="91.48" rx="0.09" ry="0.1"/><ellipse class="cls-6" cx="219.48" cy="104.65" rx="0.09" ry="0.1"/><ellipse class="cls-6" cx="218.12" cy="101.47" rx="0.09" ry="0.1"/><ellipse class="cls-6" cx="215.39" cy="104.19" rx="0.09" ry="0.1"/><ellipse class="cls-6" cx="219.48" cy="95.11" rx="0.09" ry="0.1"/><ellipse class="cls-6" cx="219.48" cy="99.65" rx="0.09" ry="0.1"/><ellipse class="cls-6" cx="216.3" cy="97.38" rx="0.09" ry="0.1"/><path class="cls-7" d="M261.55,226.69a108.07,108.07,0,0,0-5,19c-1.85,11-2.77,26.81-3,30.66-.48,8.2-.52,12.62-3,16.06-2.14,3-5.88,4.9-8,2.92-3.18-3-2.9-15-1-23.36.81-3.53,1.82-6,1-8.76-.91-3.05-3.79-5.26-6-4.38-.72.29-1.79,1.07-5,10.22-2.46,7-2.46,8.4-4,10.22-.18.22-3.21,3.7-7,2.92-4.24-.88-5-6.17-8-5.84-3.32.36-5.44,7-6,8.76a29.13,29.13,0,0,0-1,13.13c.42,2.38,1,3.3,1,5.84,0,1.1,0,6-2,7.3-1.65,1.08-4-.6-5-2.92-.88-2-.42-3.57,0-10.22a74.15,74.15,0,0,0,0-13.13c-.35-3.34-.71-6.74-2-7.3s-2.08,2.59-5,4.38a7,7,0,0,1-6.28.62,6.9,6.9,0,0,1-2.72-2.08c-3.82-4.66-4-18.93-4-20a122,122,0,0,0,82-34Z"/><path class="cls-8" d="M168.25,21.44c-7.5,5.92-9.53,11.24-10,15-.74,5.9,2.05,10.62-1,15a11.11,11.11,0,0,1-6,4c-10.72,3.38-18.06-8.65-25-6-8.68,3.31-4.62,24.94-14,28-4.07,1.32-6.71-2.13-13,0-4.38,1.48-5,3.82-9,5-3,.89-7.19.92-13-2,.57-1.91,1.23-3.92,2-6q1-2.64,2-5c6.4,4.92,12,5.07,14,5,10.53-.37,17.68-9.91,20-13,5.42-7.23,3.84-10.45,8-13,8.33-5.1,19.49,4.9,24,1,2.17-1.88,3-7.19-4-23a102.77,102.77,0,0,1,25-5Z"/></g></svg>