<svg xmlns="http://www.w3.org/2000/svg" xmlns:xlink="http://www.w3.org/1999/xlink" width="320" height="320" viewBox="0 0 320 320"><defs><style>.cls-1{fill:url(#radial-gradient);}.cls-2{fill:url(#radial-gradient-2);}.cls-3{fill:url(#radial-gradient-3);}.cls-4{fill:#a38078;}.cls-5{fill:#f2ede9;}.cls-6{fill:#fcf8f0;}.cls-7{fill:#e0d0b3;}.cls-8{fill:#c4b295;}.cls-9{fill:url(#radial-gradient-4);}.cls-10{fill:url(#radial-gradient-5);}</style><radialGradient id="radial-gradient" cx="160" cy="160" r="147.88" gradientUnits="userSpaceOnUse"><stop offset="0.01" stop-color="#eaf8ed"/><stop offset="0.64" stop-color="#c9e7d2"/><stop offset="1" stop-color="#e4f5e5"/></radialGradient><radialGradient id="radial-gradient-2" cx="-10.14" cy="-2892.69" r="115.82" gradientTransform="matrix(0.98, 0.52, -0.5, 0.94, -1270.8, 2867.85)" xlink:href="#radial-gradient"/><radialGradient id="radial-gradient-3" cx="176.71" cy="146.88" r="121.34" xlink:href="#radial-gradient"/><radialGradient id="radial-gradient-4" cx="212.71" cy="92.79" fx="188.49263029412532" fy="104.54001699413908" r="26.92" gradientUnits="userSpaceOnUse"><stop offset="0" stop-color="#c9e7d2"/><stop offset="0.03" stop-color="#c6deca"/><stop offset="0.17" stop-color="#b7b5a7"/><stop offset="0.3" stop-color="#ac988d"/><stop offset="0.41" stop-color="#a5867e"/><stop offset="0.49" stop-color="#a38078"/><stop offset="0.67" stop-color="#c1a996"/><stop offset="0.88" stop-color="#e9dfbe"/><stop offset="1" stop-color="#f2b879"/></radialGradient><radialGradient id="radial-gradient-5" cx="1007.49" cy="-2.54" fx="986.5411874655682" fy="7.627923926966133" r="23.28" gradientTransform="translate(-714.68 -236.9) rotate(20.21)" xlink:href="#radial-gradient-4"/></defs><g id="Layer_2" data-name="Layer 2"><path class="cls-1" d="M310.07,155.36c.24,31.55-12.85,56.42-21.61,70a15.38,15.38,0,0,1-1.39,10c-1.13,2.08-2,2.29-7,7-5.66,5.33-5.93,6.37-8,7-1.51.46-5.2,1.08-11-3l-17.88,26.18a24.09,24.09,0,0,0-4.12,3.82c-2.43,2.84-2.81,4.65-4,6-1.64,1.84-5.23,3.31-14,1.31q-4.33,2.19-8.68,4.37a77.55,77.55,0,0,1-8.32,8.32c-5.63,4.81-9.38,8-14,9-9.89,2.07-19.15-7.1-21-9a44.94,44.94,0,0,1-9,0,46.29,46.29,0,0,1-20-7l-49-18c-6.7-4.48-12.19-7.79-16-10-5.55-3.22-9.53-5.26-12-10a17.89,17.89,0,0,1-1.93-6.79q-4.68-5.69-9.37-11.38a61.06,61.06,0,0,1-9.7-7.83c-4.11-4.06-12.08-12-14-23-.78-4.45,0-5.94,1-15a200.67,200.67,0,0,0,1-27c-.67-1.67-1.34-3.33-2-5a12.14,12.14,0,0,1-9,2,11.74,11.74,0,0,1-9-9c-.88-4.72,2.78-6,5-13,3.59-11.32-2.6-18.75,2-23,3.36-3.11,8.6-.92,10-4,1.05-2.33-1.76-4-2-8-.3-4.81,3.47-7.09,8-14,2.7-4.13,1.35-3.32,7-15,7.25-15,9.49-16.38,11-17S57.83,52,67,58.09c11-10.67,48.79-44.71,102.08-43.73C244,15.73,309.51,85.58,310.07,155.36Z"/><path class="cls-2" d="M272.72,207.4c-23,43.65-74.8,68.71-128.94,61.84a41.55,41.55,0,0,1-20.53-1.82c-8.66-3.18-13.76-8.7-17.6-12.72-21.79-22.82-23.63-19.08-32.82-31-6.29-8.14-18.13-26.34-21-57.1-3.8,5.29-8.32,8.21-11.42,7.13-2.73-1-3.54-4.72-4.67-10.4-.93-4.61-2.09-13.28.16-25.94a93.34,93.34,0,0,1,3-12c-2.85-6.63-2.14-10.61-1-13,2.17-4.67,6.13-3.78,9.62-9.62,2.58-4.31,3.07-9.22,3.44-12.89a49.1,49.1,0,0,0,.15-6.71,55.22,55.22,0,0,1,3.6-19.6,17.36,17.36,0,0,0,7.27-5.19c2.43-3,2.34-5.25,3.75-7.07,1.89-2.45,6.67-4.4,19.93-1.19C88.35,48.46,155,8.56,218,42.62,273.77,72.78,303.79,148.56,272.72,207.4Z"/><path class="cls-3" d="M277,215.69c-29.15,41-83.14,60.61-134.42,48.2A38.65,38.65,0,0,1,123,260c-7.88-4-11.94-10.07-15-14.45-17.49-24.95-19.86-21.41-26.88-34.17-4.8-8.74-13.4-28.06-11.3-58.93-4.51,4.87-9.33,7.31-12.16,5.91-2.49-1.23-2.68-5.06-2.89-10.82-.17-4.68.06-13.42,4.23-25.77a101.63,101.63,0,0,1,4.75-11.64c-1.71-6.88-.4-10.77,1-13,2.83-4.42,6.52-3.13,10.82-8.57C78.78,84.48,80,79.64,81,76a53.45,53.45,0,0,0,1.21-6.65,58.51,58.51,0,0,1,6.55-19.11,18.27,18.27,0,0,0,7.86-4.42c2.82-2.75,3.08-5,4.73-6.64,2.21-2.24,7.14-3.68,19.46.87,2.91-1.41,73.63-34.21,129.2,6.14C299.16,82,316.3,160.39,277,215.69Z"/><circle class="cls-4" cx="206.03" cy="100.2" r="0.5"/><circle class="cls-4" cx="193.85" cy="98.6" r="0.5"/><circle class="cls-4" cx="173.37" cy="108.55" r="0.5"/><circle class="cls-4" cx="211.72" cy="118.36" r="0.5"/><ellipse class="cls-4" cx="184.35" cy="114.27" rx="0.1" ry="0.08" transform="translate(-4.12 221.61) rotate(-61.45)"/><ellipse class="cls-4" cx="187.7" cy="114.58" rx="0.1" ry="0.08" transform="translate(-2.65 224.71) rotate(-61.45)"/><ellipse class="cls-4" cx="184.67" cy="110.92" rx="0.1" ry="0.08" transform="translate(-1.02 220.13) rotate(-61.45)"/><ellipse class="cls-4" cx="181.08" cy="111.98" rx="0.1" ry="0.08" transform="translate(-3.82 217.53) rotate(-61.45)"/><ellipse class="cls-4" cx="189.78" cy="117.22" rx="0.1" ry="0.08" transform="translate(-3.88 227.91) rotate(-61.45)"/><ellipse class="cls-4" cx="188.78" cy="106.13" rx="0.1" ry="0.08" transform="translate(5.34 221.25) rotate(-61.45)"/><ellipse class="cls-4" cx="180.72" cy="110.79" rx="0.1" ry="0.08" transform="translate(-2.96 216.6) rotate(-61.45)"/><ellipse class="cls-4" cx="184.09" cy="104.59" rx="0.1" ry="0.08" transform="translate(4.25 216.32) rotate(-61.45)"/><ellipse class="cls-4" cx="186.67" cy="110.01" rx="0.1" ry="0.08" transform="translate(0.83 221.42) rotate(-61.45)"/><ellipse class="cls-4" cx="168.32" cy="104.04" rx="0.1" ry="0.08" transform="translate(-3.51 202.18) rotate(-61.45)"/><ellipse class="cls-4" cx="169.42" cy="106.65" rx="0.1" ry="0.08" transform="translate(-5.22 204.5) rotate(-61.45)"/><ellipse class="cls-4" cx="171.88" cy="103.97" rx="0.1" ry="0.08" transform="translate(-1.58 205.27) rotate(-61.45)"/><ellipse class="cls-4" cx="185.01" cy="106.59" rx="0.1" ry="0.08" transform="translate(2.97 218.18) rotate(-61.45)"/><ellipse class="cls-4" cx="194.82" cy="119.96" rx="0.1" ry="0.08" transform="translate(-3.66 233.77) rotate(-61.45)"/><ellipse class="cls-4" cx="199.96" cy="119.74" rx="0.1" ry="0.08" transform="translate(-0.78 238.17) rotate(-61.45)"/><circle class="cls-4" cx="189.29" cy="110.68" r="0.5"/><circle class="cls-4" cx="157.16" cy="98.44" r="0.5"/><circle class="cls-4" cx="195.71" cy="90.45" r="0.5"/><circle class="cls-4" cx="179.49" cy="108.19" r="0.5"/><circle class="cls-4" cx="191.36" cy="81.18" r="0.5"/><circle class="cls-4" cx="168.59" cy="80.86" r="0.5"/><circle class="cls-4" cx="198.43" cy="106.87" r="0.5"/><circle class="cls-4" cx="174.52" cy="97.15" r="0.5"/><circle class="cls-4" cx="163.33" cy="98.57" r="0.5"/><circle class="cls-4" cx="153.17" cy="91.66" r="0.5"/><ellipse class="cls-4" cx="181.63" cy="95.09" rx="0.1" ry="0.08" transform="translate(11.3 209.21) rotate(-61.45)"/><ellipse class="cls-4" cx="178.04" cy="96.16" rx="0.1" ry="0.08" transform="translate(8.5 206.61) rotate(-61.45)"/><ellipse class="cls-4" cx="177.69" cy="94.96" rx="0.1" ry="0.08" transform="translate(9.36 205.67) rotate(-61.45)"/><ellipse class="cls-4" cx="181.06" cy="88.76" rx="0.1" ry="0.08" transform="translate(16.57 205.4) rotate(-61.45)"/><ellipse class="cls-4" cx="181.98" cy="90.76" rx="0.1" ry="0.08" transform="translate(15.29 207.25) rotate(-61.45)"/><ellipse class="cls-4" cx="173.32" cy="90.07" rx="0.1" ry="0.08" transform="translate(11.38 199.28) rotate(-61.45)"/><ellipse class="cls-4" cx="169.73" cy="91.13" rx="0.1" ry="0.08" transform="translate(8.57 196.68) rotate(-61.45)"/><ellipse class="cls-4" cx="169.37" cy="89.93" rx="0.1" ry="0.08" transform="translate(9.44 195.74) rotate(-61.45)"/><ellipse class="cls-4" cx="172.75" cy="83.73" rx="0.1" ry="0.08" transform="translate(16.64 195.47) rotate(-61.45)"/><ellipse class="cls-4" cx="173.67" cy="85.74" rx="0.1" ry="0.08" transform="translate(15.36 197.32) rotate(-61.45)"/><ellipse class="cls-4" cx="181.62" cy="95.34" rx="0.1" ry="0.08" transform="translate(11.08 209.32) rotate(-61.45)"/><ellipse class="cls-4" cx="181.93" cy="91.99" rx="0.1" ry="0.08" transform="translate(14.18 207.85) rotate(-61.45)"/><ellipse class="cls-4" cx="178.34" cy="93.06" rx="0.1" ry="0.08" transform="translate(11.38 205.25) rotate(-61.45)"/><ellipse class="cls-4" cx="186.05" cy="87.2" rx="0.1" ry="0.08" transform="translate(20.54 208.96) rotate(-61.45)"/><ellipse class="cls-4" cx="177.99" cy="91.86" rx="0.1" ry="0.08" transform="translate(12.24 204.32) rotate(-61.45)"/><ellipse class="cls-4" cx="181.36" cy="85.66" rx="0.1" ry="0.08" transform="translate(19.45 204.04) rotate(-61.45)"/><ellipse class="cls-4" cx="183.94" cy="91.08" rx="0.1" ry="0.08" transform="translate(16.04 209.14) rotate(-61.45)"/><ellipse class="cls-4" cx="182.28" cy="87.66" rx="0.1" ry="0.08" transform="translate(18.17 205.9) rotate(-61.45)"/><circle class="cls-4" cx="186.56" cy="91.75" r="0.5"/><circle class="cls-4" cx="176.76" cy="89.26" r="0.5"/><ellipse class="cls-4" cx="198.62" cy="100.18" rx="0.1" ry="0.08" transform="translate(15.7 226.78) rotate(-61.45)"/><ellipse class="cls-4" cx="198.93" cy="96.83" rx="0.1" ry="0.08" transform="translate(18.81 225.31) rotate(-61.45)"/><ellipse class="cls-4" cx="195.34" cy="97.89" rx="0.1" ry="0.08" transform="translate(16 222.71) rotate(-61.45)"/><ellipse class="cls-4" cx="203.04" cy="92.04" rx="0.1" ry="0.08" transform="translate(25.17 226.42) rotate(-61.45)"/><ellipse class="cls-4" cx="194.99" cy="96.7" rx="0.1" ry="0.08" transform="translate(16.87 221.77) rotate(-61.45)"/><ellipse class="cls-4" cx="198.36" cy="90.5" rx="0.1" ry="0.08" transform="translate(24.08 221.5) rotate(-61.45)"/><ellipse class="cls-4" cx="200.94" cy="95.92" rx="0.1" ry="0.08" transform="translate(20.66 226.59) rotate(-61.45)"/><ellipse class="cls-4" cx="199.28" cy="92.5" rx="0.1" ry="0.08" transform="translate(22.79 223.35) rotate(-61.45)"/><circle class="cls-4" cx="193.75" cy="94.1" r="0.5"/><ellipse class="cls-4" cx="196.93" cy="106.8" rx="0.1" ry="0.08" transform="translate(9.01 228.76) rotate(-61.45)"/><ellipse class="cls-4" cx="197.25" cy="103.45" rx="0.1" ry="0.08" transform="translate(12.12 227.29) rotate(-61.45)"/><ellipse class="cls-4" cx="193.66" cy="104.51" rx="0.1" ry="0.08" transform="translate(9.31 224.69) rotate(-61.45)"/><ellipse class="cls-4" cx="201.36" cy="98.66" rx="0.1" ry="0.08" transform="translate(18.47 228.4) rotate(-61.45)"/><ellipse class="cls-4" cx="199.25" cy="102.53" rx="0.1" ry="0.08" transform="translate(13.97 228.57) rotate(-61.45)"/><ellipse class="cls-4" cx="197.59" cy="99.12" rx="0.1" ry="0.08" transform="translate(16.1 225.33) rotate(-61.45)"/><ellipse class="cls-4" cx="183.73" cy="106.14" rx="0.1" ry="0.08" transform="translate(2.69 216.82) rotate(-61.45)"/><ellipse class="cls-4" cx="184.04" cy="102.8" rx="0.1" ry="0.08" transform="translate(5.8 215.35) rotate(-61.45)"/><ellipse class="cls-4" cx="180.45" cy="103.86" rx="0.1" ry="0.08" transform="translate(2.99 212.75) rotate(-61.45)"/><ellipse class="cls-4" cx="188.16" cy="98.01" rx="0.1" ry="0.08" transform="translate(12.15 216.46) rotate(-61.45)"/><ellipse class="cls-4" cx="186.05" cy="101.88" rx="0.1" ry="0.08" transform="translate(7.65 216.63) rotate(-61.45)"/><ellipse class="cls-4" cx="184.39" cy="98.47" rx="0.1" ry="0.08" transform="translate(9.78 213.39) rotate(-61.45)"/><circle class="cls-4" cx="145.64" cy="97.98" r="0.5"/><circle class="cls-4" cx="133.46" cy="96.38" r="0.5"/><circle class="cls-4" cx="112.98" cy="106.33" r="0.5"/><circle class="cls-4" cx="151.33" cy="116.14" r="0.5"/><ellipse class="cls-4" cx="123.96" cy="112.05" rx="0.1" ry="0.08" transform="translate(-33.7 167.4) rotate(-61.45)"/><ellipse class="cls-4" cx="127.31" cy="112.36" rx="0.1" ry="0.08" transform="translate(-32.23 170.5) rotate(-61.45)"/><ellipse class="cls-4" cx="124.27" cy="108.71" rx="0.1" ry="0.08" transform="translate(-30.6 165.93) rotate(-61.45)"/><ellipse class="cls-4" cx="120.68" cy="109.77" rx="0.1" ry="0.08" transform="translate(-33.41 163.33) rotate(-61.45)"/><ellipse class="cls-4" cx="129.39" cy="115" rx="0.1" ry="0.08" transform="translate(-33.46 173.7) rotate(-61.45)"/><ellipse class="cls-4" cx="128.39" cy="103.91" rx="0.1" ry="0.08" transform="translate(-24.24 167.04) rotate(-61.45)"/><ellipse class="cls-4" cx="120.33" cy="108.57" rx="0.1" ry="0.08" transform="translate(-32.54 162.39) rotate(-61.45)"/><ellipse class="cls-4" cx="123.7" cy="102.37" rx="0.1" ry="0.08" transform="translate(-25.33 162.12) rotate(-61.45)"/><ellipse class="cls-4" cx="126.28" cy="107.79" rx="0.1" ry="0.08" transform="translate(-28.75 167.21) rotate(-61.45)"/><ellipse class="cls-4" cx="107.93" cy="101.82" rx="0.1" ry="0.08" transform="translate(-33.09 147.98) rotate(-61.45)"/><ellipse class="cls-4" cx="109.02" cy="104.43" rx="0.1" ry="0.08" transform="translate(-34.81 150.3) rotate(-61.45)"/><ellipse class="cls-4" cx="111.48" cy="101.75" rx="0.1" ry="0.08" transform="translate(-31.17 151.06) rotate(-61.45)"/><ellipse class="cls-4" cx="124.62" cy="104.37" rx="0.1" ry="0.08" transform="translate(-26.62 163.97) rotate(-61.45)"/><ellipse class="cls-4" cx="134.42" cy="117.74" rx="0.1" ry="0.08" transform="translate(-33.24 179.56) rotate(-61.45)"/><ellipse class="cls-4" cx="139.56" cy="117.53" rx="0.1" ry="0.08" transform="translate(-30.37 183.96) rotate(-61.45)"/><circle class="cls-4" cx="128.9" cy="108.46" r="0.5"/><circle class="cls-4" cx="96.77" cy="96.23" r="0.5"/><circle class="cls-4" cx="135.32" cy="88.24" r="0.5"/><circle class="cls-4" cx="119.1" cy="105.97" r="0.5"/><circle class="cls-4" cx="130.96" cy="78.96" r="0.5"/><circle class="cls-4" cx="108.2" cy="78.64" r="0.5"/><circle class="cls-4" cx="138.04" cy="104.65" r="0.5"/><circle class="cls-4" cx="114.12" cy="94.93" r="0.5"/><circle class="cls-4" cx="102.94" cy="96.35" r="0.5"/><circle class="cls-4" cx="92.78" cy="89.44" r="0.5"/><ellipse class="cls-4" cx="121.24" cy="92.88" rx="0.1" ry="0.08" transform="translate(-18.28 155) rotate(-61.45)"/><ellipse class="cls-4" cx="117.65" cy="93.94" rx="0.1" ry="0.08" transform="translate(-21.09 152.4) rotate(-61.45)"/><ellipse class="cls-4" cx="117.3" cy="92.74" rx="0.1" ry="0.08" transform="translate(-20.22 151.46) rotate(-61.45)"/><ellipse class="cls-4" cx="120.67" cy="86.54" rx="0.1" ry="0.08" transform="translate(-13.01 151.19) rotate(-61.45)"/><ellipse class="cls-4" cx="121.59" cy="88.55" rx="0.1" ry="0.08" transform="translate(-14.3 153.04) rotate(-61.45)"/><ellipse class="cls-4" cx="112.93" cy="87.85" rx="0.1" ry="0.08" transform="translate(-18.21 145.07) rotate(-61.45)"/><ellipse class="cls-4" cx="109.34" cy="88.91" rx="0.1" ry="0.08" transform="translate(-21.01 142.47) rotate(-61.45)"/><ellipse class="cls-4" cx="108.98" cy="87.71" rx="0.1" ry="0.08" transform="translate(-20.15 141.53) rotate(-61.45)"/><ellipse class="cls-4" cx="112.36" cy="81.51" rx="0.1" ry="0.08" transform="translate(-12.94 141.26) rotate(-61.45)"/><ellipse class="cls-4" cx="113.27" cy="83.52" rx="0.1" ry="0.08" transform="translate(-14.22 143.11) rotate(-61.45)"/><ellipse class="cls-4" cx="121.23" cy="93.12" rx="0.1" ry="0.08" transform="translate(-18.5 155.12) rotate(-61.45)"/><ellipse class="cls-4" cx="121.54" cy="89.78" rx="0.1" ry="0.08" transform="translate(-15.4 153.64) rotate(-61.45)"/><ellipse class="cls-4" cx="117.95" cy="90.84" rx="0.1" ry="0.08" transform="translate(-18.21 151.04) rotate(-61.45)"/><ellipse class="cls-4" cx="125.66" cy="84.98" rx="0.1" ry="0.08" transform="translate(-9.04 154.76) rotate(-61.45)"/><ellipse class="cls-4" cx="117.6" cy="89.64" rx="0.1" ry="0.08" transform="translate(-17.34 150.11) rotate(-61.45)"/><ellipse class="cls-4" cx="120.97" cy="83.44" rx="0.1" ry="0.08" transform="translate(-10.13 149.83) rotate(-61.45)"/><ellipse class="cls-4" cx="123.55" cy="88.86" rx="0.1" ry="0.08" transform="translate(-13.55 154.93) rotate(-61.45)"/><ellipse class="cls-4" cx="121.89" cy="85.45" rx="0.1" ry="0.08" transform="translate(-11.41 151.69) rotate(-61.45)"/><circle class="cls-4" cx="126.17" cy="89.53" r="0.5"/><circle class="cls-4" cx="116.37" cy="87.05" r="0.5"/><ellipse class="cls-4" cx="138.22" cy="97.96" rx="0.1" ry="0.08" transform="translate(-13.88 172.57) rotate(-61.45)"/><ellipse class="cls-4" cx="138.54" cy="94.62" rx="0.1" ry="0.08" transform="translate(-10.78 171.1) rotate(-61.45)"/><ellipse class="cls-4" cx="134.95" cy="95.68" rx="0.1" ry="0.08" transform="translate(-13.58 168.5) rotate(-61.45)"/><ellipse class="cls-4" cx="142.65" cy="89.82" rx="0.1" ry="0.08" transform="translate(-4.42 172.21) rotate(-61.45)"/><ellipse class="cls-4" cx="134.59" cy="94.48" rx="0.1" ry="0.08" transform="translate(-12.72 167.56) rotate(-61.45)"/><ellipse class="cls-4" cx="137.97" cy="88.28" rx="0.1" ry="0.08" transform="translate(-5.51 167.29) rotate(-61.45)"/><ellipse class="cls-4" cx="140.54" cy="93.7" rx="0.1" ry="0.08" transform="translate(-8.92 172.38) rotate(-61.45)"/><ellipse class="cls-4" cx="138.89" cy="90.28" rx="0.1" ry="0.08" transform="translate(-6.79 169.14) rotate(-61.45)"/><circle class="cls-4" cx="133.36" cy="91.88" r="0.5"/><ellipse class="cls-4" cx="136.54" cy="104.58" rx="0.1" ry="0.08" transform="translate(-20.57 174.55) rotate(-61.45)"/><ellipse class="cls-4" cx="136.86" cy="101.23" rx="0.1" ry="0.08" transform="translate(-17.47 173.08) rotate(-61.45)"/><ellipse class="cls-4" cx="133.27" cy="102.29" rx="0.1" ry="0.08" transform="translate(-20.28 170.48) rotate(-61.45)"/><ellipse class="cls-4" cx="140.97" cy="96.44" rx="0.1" ry="0.08" transform="translate(-11.11 174.19) rotate(-61.45)"/><ellipse class="cls-4" cx="138.86" cy="100.32" rx="0.1" ry="0.08" transform="translate(-15.62 174.36) rotate(-61.45)"/><ellipse class="cls-4" cx="137.2" cy="96.9" rx="0.1" ry="0.08" transform="translate(-13.48 171.12) rotate(-61.45)"/><ellipse class="cls-4" cx="123.34" cy="103.92" rx="0.1" ry="0.08" transform="translate(-26.89 162.61) rotate(-61.45)"/><ellipse class="cls-4" cx="123.65" cy="100.58" rx="0.1" ry="0.08" transform="translate(-23.79 161.14) rotate(-61.45)"/><ellipse class="cls-4" cx="120.06" cy="101.64" rx="0.1" ry="0.08" transform="translate(-26.59 158.54) rotate(-61.45)"/><ellipse class="cls-4" cx="127.77" cy="95.79" rx="0.1" ry="0.08" transform="translate(-17.43 162.25) rotate(-61.45)"/><ellipse class="cls-4" cx="125.66" cy="99.66" rx="0.1" ry="0.08" transform="translate(-21.94 162.42) rotate(-61.45)"/><ellipse class="cls-4" cx="124" cy="96.25" rx="0.1" ry="0.08" transform="translate(-19.8 159.18) rotate(-61.45)"/><circle class="cls-4" cx="156.64" cy="212.98" r="0.5"/><circle class="cls-4" cx="144.46" cy="211.38" r="0.5"/><circle class="cls-4" cx="123.98" cy="221.33" r="0.5"/><circle class="cls-4" cx="162.33" cy="231.14" r="0.5"/><ellipse class="cls-4" cx="134.96" cy="227.05" rx="0.1" ry="0.08" transform="translate(-128.98 237.11) rotate(-61.45)"/><ellipse class="cls-4" cx="138.31" cy="227.36" rx="0.1" ry="0.08" transform="translate(-127.51 240.21) rotate(-61.45)"/><ellipse class="cls-4" cx="135.27" cy="223.71" rx="0.1" ry="0.08" transform="translate(-125.88 235.63) rotate(-61.45)"/><ellipse class="cls-4" cx="131.68" cy="224.77" rx="0.1" ry="0.08" transform="translate(-128.69 233.04) rotate(-61.45)"/><ellipse class="cls-4" cx="140.39" cy="230" rx="0.1" ry="0.08" transform="translate(-128.74 243.41) rotate(-61.45)"/><ellipse class="cls-4" cx="139.39" cy="218.91" rx="0.1" ry="0.08" transform="translate(-119.52 236.75) rotate(-61.45)"/><ellipse class="cls-4" cx="131.33" cy="223.57" rx="0.1" ry="0.08" transform="translate(-127.82 232.1) rotate(-61.45)"/><ellipse class="cls-4" cx="134.7" cy="217.37" rx="0.1" ry="0.08" transform="translate(-120.61 231.83) rotate(-61.45)"/><ellipse class="cls-4" cx="137.28" cy="222.79" rx="0.1" ry="0.08" transform="translate(-124.03 236.92) rotate(-61.45)"/><ellipse class="cls-4" cx="118.93" cy="216.82" rx="0.1" ry="0.08" transform="translate(-128.37 217.68) rotate(-61.45)"/><ellipse class="cls-4" cx="120.02" cy="219.43" rx="0.1" ry="0.08" transform="translate(-130.08 220.01) rotate(-61.45)"/><ellipse class="cls-4" cx="122.48" cy="216.75" rx="0.1" ry="0.08" transform="translate(-126.45 220.77) rotate(-61.45)"/><ellipse class="cls-4" cx="135.62" cy="219.37" rx="0.1" ry="0.08" transform="translate(-121.89 233.68) rotate(-61.45)"/><ellipse class="cls-4" cx="145.42" cy="232.74" rx="0.1" ry="0.08" transform="translate(-128.52 249.27) rotate(-61.45)"/><ellipse class="cls-4" cx="150.56" cy="232.53" rx="0.1" ry="0.08" transform="translate(-125.64 253.67) rotate(-61.45)"/><circle class="cls-4" cx="139.9" cy="223.46" r="0.5"/><circle class="cls-4" cx="107.77" cy="211.23" r="0.5"/><circle class="cls-4" cx="146.32" cy="203.24" r="0.5"/><circle class="cls-4" cx="130.1" cy="220.97" r="0.5"/><circle class="cls-4" cx="141.96" cy="193.96" r="0.5"/><circle class="cls-4" cx="119.2" cy="193.64" r="0.5"/><circle class="cls-4" cx="149.04" cy="219.65" r="0.5"/><circle class="cls-4" cx="125.12" cy="209.93" r="0.5"/><circle class="cls-4" cx="113.94" cy="211.35" r="0.5"/><circle class="cls-4" cx="103.78" cy="204.44" r="0.5"/><ellipse class="cls-4" cx="132.24" cy="207.88" rx="0.1" ry="0.08" transform="translate(-113.56 224.71) rotate(-61.45)"/><ellipse class="cls-4" cx="128.65" cy="208.94" rx="0.1" ry="0.08" transform="translate(-116.36 222.11) rotate(-61.45)"/><ellipse class="cls-4" cx="128.3" cy="207.74" rx="0.1" ry="0.08" transform="translate(-115.5 221.17) rotate(-61.45)"/><ellipse class="cls-4" cx="131.67" cy="201.54" rx="0.1" ry="0.08" transform="translate(-108.29 220.9) rotate(-61.45)"/><ellipse class="cls-4" cx="132.59" cy="203.55" rx="0.1" ry="0.08" transform="translate(-109.57 222.75) rotate(-61.45)"/><ellipse class="cls-4" cx="123.93" cy="202.85" rx="0.1" ry="0.08" transform="translate(-113.48 214.78) rotate(-61.45)"/><ellipse class="cls-4" cx="120.34" cy="203.91" rx="0.1" ry="0.08" transform="translate(-116.29 212.18) rotate(-61.45)"/><ellipse class="cls-4" cx="119.98" cy="202.71" rx="0.1" ry="0.08" transform="translate(-115.42 211.24) rotate(-61.45)"/><ellipse class="cls-4" cx="123.36" cy="196.51" rx="0.1" ry="0.08" transform="translate(-108.22 210.97) rotate(-61.45)"/><ellipse class="cls-4" cx="124.27" cy="198.52" rx="0.1" ry="0.08" transform="translate(-109.5 212.82) rotate(-61.45)"/><ellipse class="cls-4" cx="132.23" cy="208.12" rx="0.1" ry="0.08" transform="translate(-113.78 224.82) rotate(-61.45)"/><ellipse class="cls-4" cx="132.54" cy="204.78" rx="0.1" ry="0.08" transform="translate(-110.68 223.35) rotate(-61.45)"/><ellipse class="cls-4" cx="128.95" cy="205.84" rx="0.1" ry="0.08" transform="translate(-113.48 220.75) rotate(-61.45)"/><ellipse class="cls-4" cx="136.66" cy="199.98" rx="0.1" ry="0.08" transform="translate(-104.32 224.46) rotate(-61.45)"/><ellipse class="cls-4" cx="128.6" cy="204.64" rx="0.1" ry="0.08" transform="translate(-112.62 219.82) rotate(-61.45)"/><ellipse class="cls-4" cx="131.97" cy="198.44" rx="0.1" ry="0.08" transform="translate(-105.41 219.54) rotate(-61.45)"/><ellipse class="cls-4" cx="134.55" cy="203.86" rx="0.1" ry="0.08" transform="translate(-108.82 224.64) rotate(-61.45)"/><ellipse class="cls-4" cx="132.89" cy="200.45" rx="0.1" ry="0.08" transform="translate(-106.69 221.4) rotate(-61.45)"/><circle class="cls-4" cx="137.17" cy="204.53" r="0.5"/><circle class="cls-4" cx="127.37" cy="202.05" r="0.5"/><ellipse class="cls-4" cx="149.22" cy="212.96" rx="0.1" ry="0.08" transform="translate(-109.16 242.28) rotate(-61.45)"/><ellipse class="cls-4" cx="149.54" cy="209.62" rx="0.1" ry="0.08" transform="translate(-106.05 240.81) rotate(-61.45)"/><ellipse class="cls-4" cx="145.95" cy="210.68" rx="0.1" ry="0.08" transform="translate(-108.86 238.21) rotate(-61.45)"/><ellipse class="cls-4" cx="153.65" cy="204.82" rx="0.1" ry="0.08" transform="translate(-99.7 241.92) rotate(-61.45)"/><ellipse class="cls-4" cx="145.59" cy="209.48" rx="0.1" ry="0.08" transform="translate(-107.99 237.27) rotate(-61.45)"/><ellipse class="cls-4" cx="148.97" cy="203.28" rx="0.1" ry="0.08" transform="translate(-100.79 237) rotate(-61.45)"/><ellipse class="cls-4" cx="151.54" cy="208.7" rx="0.1" ry="0.08" transform="translate(-104.2 242.09) rotate(-61.45)"/><ellipse class="cls-4" cx="149.89" cy="205.28" rx="0.1" ry="0.08" transform="translate(-102.07 238.85) rotate(-61.45)"/><circle class="cls-4" cx="144.36" cy="206.88" r="0.5"/><ellipse class="cls-4" cx="147.54" cy="219.58" rx="0.1" ry="0.08" transform="translate(-115.85 244.26) rotate(-61.45)"/><ellipse class="cls-4" cx="147.86" cy="216.23" rx="0.1" ry="0.08" transform="translate(-112.75 242.79) rotate(-61.45)"/><ellipse class="cls-4" cx="144.27" cy="217.29" rx="0.1" ry="0.08" transform="translate(-115.55 240.19) rotate(-61.45)"/><ellipse class="cls-4" cx="151.97" cy="211.44" rx="0.1" ry="0.08" transform="translate(-106.39 243.9) rotate(-61.45)"/><ellipse class="cls-4" cx="149.86" cy="215.32" rx="0.1" ry="0.08" transform="translate(-110.89 244.07) rotate(-61.45)"/><ellipse class="cls-4" cx="148.2" cy="211.9" rx="0.1" ry="0.08" transform="translate(-108.76 240.83) rotate(-61.45)"/><ellipse class="cls-4" cx="134.34" cy="218.92" rx="0.1" ry="0.08" transform="translate(-122.17 232.32) rotate(-61.45)"/><ellipse class="cls-4" cx="134.65" cy="215.58" rx="0.1" ry="0.08" transform="translate(-119.07 230.85) rotate(-61.45)"/><ellipse class="cls-4" cx="131.06" cy="216.64" rx="0.1" ry="0.08" transform="translate(-121.87 228.25) rotate(-61.45)"/><ellipse class="cls-4" cx="138.77" cy="210.79" rx="0.1" ry="0.08" transform="translate(-112.71 231.96) rotate(-61.45)"/><ellipse class="cls-4" cx="136.66" cy="214.66" rx="0.1" ry="0.08" transform="translate(-117.21 232.13) rotate(-61.45)"/><ellipse class="cls-4" cx="135" cy="211.25" rx="0.1" ry="0.08" transform="translate(-115.08 228.89) rotate(-61.45)"/><circle class="cls-4" cx="270.64" cy="182.98" r="0.5"/><circle class="cls-4" cx="258.46" cy="181.38" r="0.5"/><circle class="cls-4" cx="237.98" cy="191.33" r="0.5"/><circle class="cls-4" cx="276.33" cy="201.14" r="0.5"/><ellipse class="cls-4" cx="248.96" cy="197.05" rx="0.1" ry="0.08" transform="translate(-43.1 321.58) rotate(-61.45)"/><ellipse class="cls-4" cx="252.31" cy="197.36" rx="0.1" ry="0.08" transform="translate(-41.63 324.69) rotate(-61.45)"/><ellipse class="cls-4" cx="249.27" cy="193.71" rx="0.1" ry="0.08" transform="translate(-40 320.11) rotate(-61.45)"/><ellipse class="cls-4" cx="245.68" cy="194.77" rx="0.1" ry="0.08" transform="translate(-42.81 317.51) rotate(-61.45)"/><ellipse class="cls-4" cx="254.39" cy="200" rx="0.1" ry="0.08" transform="translate(-42.86 327.89) rotate(-61.45)"/><ellipse class="cls-4" cx="253.39" cy="188.91" rx="0.1" ry="0.08" transform="translate(-33.64 321.22) rotate(-61.45)"/><ellipse class="cls-4" cx="245.33" cy="193.57" rx="0.1" ry="0.08" transform="translate(-41.94 316.58) rotate(-61.45)"/><ellipse class="cls-4" cx="248.7" cy="187.37" rx="0.1" ry="0.08" transform="translate(-34.73 316.3) rotate(-61.45)"/><ellipse class="cls-4" cx="251.28" cy="192.79" rx="0.1" ry="0.08" transform="translate(-38.15 321.4) rotate(-61.45)"/><ellipse class="cls-4" cx="232.93" cy="186.82" rx="0.1" ry="0.08" transform="translate(-42.49 302.16) rotate(-61.45)"/><ellipse class="cls-4" cx="234.02" cy="189.43" rx="0.1" ry="0.08" transform="translate(-44.21 304.48) rotate(-61.45)"/><ellipse class="cls-4" cx="236.48" cy="186.75" rx="0.1" ry="0.08" transform="translate(-40.57 305.25) rotate(-61.45)"/><ellipse class="cls-4" cx="249.62" cy="189.37" rx="0.1" ry="0.08" transform="translate(-36.02 318.16) rotate(-61.45)"/><ellipse class="cls-4" cx="259.42" cy="202.74" rx="0.1" ry="0.08" transform="translate(-42.64 333.75) rotate(-61.45)"/><ellipse class="cls-4" cx="264.56" cy="202.53" rx="0.1" ry="0.08" transform="translate(-39.77 338.15) rotate(-61.45)"/><circle class="cls-4" cx="253.9" cy="193.46" r="0.5"/><circle class="cls-4" cx="221.77" cy="181.23" r="0.5"/><circle class="cls-4" cx="260.32" cy="173.24" r="0.5"/><circle class="cls-4" cx="244.1" cy="190.97" r="0.5"/><circle class="cls-4" cx="255.96" cy="163.96" r="0.5"/><circle class="cls-4" cx="233.2" cy="163.64" r="0.5"/><circle class="cls-4" cx="263.04" cy="189.65" r="0.5"/><circle class="cls-4" cx="239.12" cy="179.93" r="0.5"/><circle class="cls-4" cx="227.94" cy="181.35" r="0.5"/><circle class="cls-4" cx="217.78" cy="174.44" r="0.5"/><ellipse class="cls-4" cx="246.24" cy="177.88" rx="0.1" ry="0.08" transform="translate(-27.68 309.18) rotate(-61.45)"/><ellipse class="cls-4" cx="242.65" cy="178.94" rx="0.1" ry="0.08" transform="translate(-30.49 306.58) rotate(-61.45)"/><ellipse class="cls-4" cx="242.3" cy="177.74" rx="0.1" ry="0.08" transform="translate(-29.62 305.65) rotate(-61.45)"/><ellipse class="cls-4" cx="245.67" cy="171.54" rx="0.1" ry="0.08" transform="translate(-22.41 305.37) rotate(-61.45)"/><ellipse class="cls-4" cx="246.59" cy="173.55" rx="0.1" ry="0.08" transform="translate(-23.69 307.23) rotate(-61.45)"/><ellipse class="cls-4" cx="237.93" cy="172.85" rx="0.1" ry="0.08" transform="translate(-27.61 299.26) rotate(-61.45)"/><ellipse class="cls-4" cx="234.34" cy="173.91" rx="0.1" ry="0.08" transform="translate(-30.41 296.66) rotate(-61.45)"/><ellipse class="cls-4" cx="233.98" cy="172.71" rx="0.1" ry="0.08" transform="translate(-29.55 295.72) rotate(-61.45)"/><ellipse class="cls-4" cx="237.36" cy="166.51" rx="0.1" ry="0.08" transform="translate(-22.34 295.45) rotate(-61.45)"/><ellipse class="cls-4" cx="238.27" cy="168.52" rx="0.1" ry="0.08" transform="translate(-23.62 297.3) rotate(-61.45)"/><ellipse class="cls-4" cx="246.23" cy="178.12" rx="0.1" ry="0.08" transform="translate(-27.9 309.3) rotate(-61.45)"/><ellipse class="cls-4" cx="246.54" cy="174.78" rx="0.1" ry="0.08" transform="translate(-24.8 307.83) rotate(-61.45)"/><ellipse class="cls-4" cx="242.95" cy="175.84" rx="0.1" ry="0.08" transform="translate(-27.61 305.23) rotate(-61.45)"/><ellipse class="cls-4" cx="250.66" cy="169.98" rx="0.1" ry="0.08" transform="translate(-18.44 308.94) rotate(-61.45)"/><ellipse class="cls-4" cx="242.6" cy="174.64" rx="0.1" ry="0.08" transform="translate(-26.74 304.3) rotate(-61.45)"/><ellipse class="cls-4" cx="245.97" cy="168.44" rx="0.1" ry="0.08" transform="translate(-19.53 304.02) rotate(-61.45)"/><ellipse class="cls-4" cx="248.55" cy="173.86" rx="0.1" ry="0.08" transform="translate(-22.95 309.11) rotate(-61.45)"/><ellipse class="cls-4" cx="246.89" cy="170.45" rx="0.1" ry="0.08" transform="translate(-20.81 305.87) rotate(-61.45)"/><circle class="cls-4" cx="251.17" cy="174.53" r="0.5"/><circle class="cls-4" cx="241.37" cy="172.05" r="0.5"/><ellipse class="cls-4" cx="263.22" cy="182.96" rx="0.1" ry="0.08" transform="translate(-23.28 326.76) rotate(-61.45)"/><ellipse class="cls-4" cx="263.54" cy="179.62" rx="0.1" ry="0.08" transform="translate(-20.18 325.29) rotate(-61.45)"/><ellipse class="cls-4" cx="259.95" cy="180.68" rx="0.1" ry="0.08" transform="translate(-22.98 322.69) rotate(-61.45)"/><ellipse class="cls-4" cx="267.65" cy="174.82" rx="0.1" ry="0.08" transform="translate(-13.82 326.4) rotate(-61.45)"/><ellipse class="cls-4" cx="259.59" cy="179.48" rx="0.1" ry="0.08" transform="translate(-22.12 321.75) rotate(-61.45)"/><ellipse class="cls-4" cx="262.97" cy="173.28" rx="0.1" ry="0.08" transform="translate(-14.91 321.48) rotate(-61.45)"/><ellipse class="cls-4" cx="265.54" cy="178.7" rx="0.1" ry="0.08" transform="translate(-18.32 326.57) rotate(-61.45)"/><ellipse class="cls-4" cx="263.89" cy="175.28" rx="0.1" ry="0.08" transform="translate(-16.19 323.33) rotate(-61.45)"/><circle class="cls-4" cx="258.36" cy="176.88" r="0.5"/><ellipse class="cls-4" cx="261.54" cy="189.58" rx="0.1" ry="0.08" transform="translate(-29.97 328.74) rotate(-61.45)"/><ellipse class="cls-4" cx="261.86" cy="186.23" rx="0.1" ry="0.08" transform="translate(-26.87 327.26) rotate(-61.45)"/><ellipse class="cls-4" cx="258.27" cy="187.29" rx="0.1" ry="0.08" transform="translate(-29.67 324.66) rotate(-61.45)"/><ellipse class="cls-4" cx="265.97" cy="181.44" rx="0.1" ry="0.08" transform="translate(-20.51 328.38) rotate(-61.45)"/><ellipse class="cls-4" cx="263.86" cy="185.32" rx="0.1" ry="0.08" transform="translate(-25.02 328.55) rotate(-61.45)"/><ellipse class="cls-4" cx="262.2" cy="181.9" rx="0.1" ry="0.08" transform="translate(-22.88 325.31) rotate(-61.45)"/><ellipse class="cls-4" cx="248.34" cy="188.92" rx="0.1" ry="0.08" transform="translate(-36.29 316.8) rotate(-61.45)"/><ellipse class="cls-4" cx="248.65" cy="185.58" rx="0.1" ry="0.08" transform="translate(-33.19 315.32) rotate(-61.45)"/><ellipse class="cls-4" cx="245.06" cy="186.64" rx="0.1" ry="0.08" transform="translate(-35.99 312.72) rotate(-61.45)"/><ellipse class="cls-4" cx="252.77" cy="180.79" rx="0.1" ry="0.08" transform="translate(-26.83 316.44) rotate(-61.45)"/><ellipse class="cls-4" cx="250.66" cy="184.66" rx="0.1" ry="0.08" transform="translate(-31.34 316.61) rotate(-61.45)"/><ellipse class="cls-4" cx="249" cy="181.25" rx="0.1" ry="0.08" transform="translate(-29.2 313.37) rotate(-61.45)"/><circle class="cls-4" cx="291.54" cy="134.19" r="0.5"/><circle class="cls-4" cx="279.36" cy="132.59" r="0.5"/><circle class="cls-4" cx="258.88" cy="142.54" r="0.5"/><circle class="cls-4" cx="297.23" cy="152.35" r="0.5"/><ellipse class="cls-4" cx="269.86" cy="148.26" rx="0.1" ry="0.08" transform="translate(10.67 314.47) rotate(-61.45)"/><ellipse class="cls-4" cx="273.2" cy="148.57" rx="0.1" ry="0.08" transform="translate(12.14 317.57) rotate(-61.45)"/><ellipse class="cls-4" cx="270.17" cy="144.92" rx="0.1" ry="0.08" transform="translate(13.77 312.99) rotate(-61.45)"/><ellipse class="cls-4" cx="266.58" cy="145.98" rx="0.1" ry="0.08" transform="translate(10.96 310.39) rotate(-61.45)"/><ellipse class="cls-4" cx="275.28" cy="151.21" rx="0.1" ry="0.08" transform="translate(10.91 320.77) rotate(-61.45)"/><ellipse class="cls-4" cx="274.28" cy="140.12" rx="0.1" ry="0.08" transform="translate(20.13 314.11) rotate(-61.45)"/><ellipse class="cls-4" cx="266.23" cy="144.78" rx="0.1" ry="0.08" transform="translate(11.83 309.46) rotate(-61.45)"/><ellipse class="cls-4" cx="269.6" cy="138.58" rx="0.1" ry="0.08" transform="translate(19.04 309.18) rotate(-61.45)"/><ellipse class="cls-4" cx="272.18" cy="144" rx="0.1" ry="0.08" transform="translate(15.62 314.28) rotate(-61.45)"/><ellipse class="cls-4" cx="253.83" cy="138.03" rx="0.1" ry="0.08" transform="translate(11.28 295.04) rotate(-61.45)"/><ellipse class="cls-4" cx="254.92" cy="140.64" rx="0.1" ry="0.08" transform="translate(9.56 297.36) rotate(-61.45)"/><ellipse class="cls-4" cx="257.38" cy="137.96" rx="0.1" ry="0.08" transform="translate(13.2 298.13) rotate(-61.45)"/><ellipse class="cls-4" cx="270.52" cy="140.59" rx="0.1" ry="0.08" transform="translate(17.75 311.04) rotate(-61.45)"/><ellipse class="cls-4" cx="280.32" cy="153.95" rx="0.1" ry="0.08" transform="translate(11.13 326.63) rotate(-61.45)"/><ellipse class="cls-4" cx="285.46" cy="153.74" rx="0.1" ry="0.08" transform="translate(14 331.03) rotate(-61.45)"/><circle class="cls-4" cx="274.79" cy="144.67" r="0.5"/><circle class="cls-4" cx="242.67" cy="132.44" r="0.5"/><circle class="cls-4" cx="281.22" cy="124.45" r="0.5"/><circle class="cls-4" cx="264.99" cy="142.19" r="0.5"/><circle class="cls-4" cx="276.86" cy="115.17" r="0.5"/><circle class="cls-4" cx="254.09" cy="114.85" r="0.5"/><circle class="cls-4" cx="283.94" cy="140.86" r="0.5"/><circle class="cls-4" cx="260.02" cy="131.14" r="0.5"/><circle class="cls-4" cx="248.84" cy="132.56" r="0.5"/><circle class="cls-4" cx="238.68" cy="125.65" r="0.5"/><ellipse class="cls-4" cx="267.14" cy="129.09" rx="0.1" ry="0.08" transform="translate(26.09 302.07) rotate(-61.45)"/><ellipse class="cls-4" cx="263.55" cy="130.15" rx="0.1" ry="0.08" transform="translate(23.28 299.47) rotate(-61.45)"/><ellipse class="cls-4" cx="263.19" cy="128.95" rx="0.1" ry="0.08" transform="translate(24.15 298.53) rotate(-61.45)"/><ellipse class="cls-4" cx="266.57" cy="122.75" rx="0.1" ry="0.08" transform="translate(31.36 298.26) rotate(-61.45)"/><ellipse class="cls-4" cx="267.49" cy="124.76" rx="0.1" ry="0.08" transform="translate(30.07 300.11) rotate(-61.45)"/><ellipse class="cls-4" cx="258.82" cy="124.06" rx="0.1" ry="0.08" transform="translate(26.16 292.14) rotate(-61.45)"/><ellipse class="cls-4" cx="255.23" cy="125.12" rx="0.1" ry="0.08" transform="translate(23.36 289.54) rotate(-61.45)"/><ellipse class="cls-4" cx="254.88" cy="123.93" rx="0.1" ry="0.08" transform="translate(24.22 288.6) rotate(-61.45)"/><ellipse class="cls-4" cx="258.25" cy="117.72" rx="0.1" ry="0.08" transform="translate(31.43 288.33) rotate(-61.45)"/><ellipse class="cls-4" cx="259.17" cy="119.73" rx="0.1" ry="0.08" transform="translate(30.15 290.18) rotate(-61.45)"/><ellipse class="cls-4" cx="267.13" cy="129.33" rx="0.1" ry="0.08" transform="translate(25.87 302.18) rotate(-61.45)"/><ellipse class="cls-4" cx="267.44" cy="125.99" rx="0.1" ry="0.08" transform="translate(28.97 300.71) rotate(-61.45)"/><ellipse class="cls-4" cx="263.85" cy="127.05" rx="0.1" ry="0.08" transform="translate(26.16 298.11) rotate(-61.45)"/><ellipse class="cls-4" cx="271.55" cy="121.19" rx="0.1" ry="0.08" transform="translate(35.33 301.82) rotate(-61.45)"/><ellipse class="cls-4" cx="263.5" cy="125.85" rx="0.1" ry="0.08" transform="translate(27.03 297.18) rotate(-61.45)"/><ellipse class="cls-4" cx="266.87" cy="119.65" rx="0.1" ry="0.08" transform="translate(34.24 296.9) rotate(-61.45)"/><ellipse class="cls-4" cx="269.45" cy="125.07" rx="0.1" ry="0.08" transform="translate(30.82 302) rotate(-61.45)"/><ellipse class="cls-4" cx="267.79" cy="121.66" rx="0.1" ry="0.08" transform="translate(32.96 298.76) rotate(-61.45)"/><circle class="cls-4" cx="272.06" cy="125.74" r="0.5"/><circle class="cls-4" cx="262.26" cy="123.26" r="0.5"/><ellipse class="cls-4" cx="284.12" cy="134.17" rx="0.1" ry="0.08" transform="translate(30.49 319.64) rotate(-61.45)"/><ellipse class="cls-4" cx="284.44" cy="130.83" rx="0.1" ry="0.08" transform="translate(33.59 318.17) rotate(-61.45)"/><ellipse class="cls-4" cx="280.85" cy="131.89" rx="0.1" ry="0.08" transform="translate(30.79 315.57) rotate(-61.45)"/><ellipse class="cls-4" cx="288.55" cy="126.03" rx="0.1" ry="0.08" transform="translate(39.95 319.28) rotate(-61.45)"/><ellipse class="cls-4" cx="280.49" cy="130.69" rx="0.1" ry="0.08" transform="translate(31.65 314.63) rotate(-61.45)"/><ellipse class="cls-4" cx="283.86" cy="124.49" rx="0.1" ry="0.08" transform="translate(38.86 314.36) rotate(-61.45)"/><ellipse class="cls-4" cx="286.44" cy="129.91" rx="0.1" ry="0.08" transform="translate(35.45 319.45) rotate(-61.45)"/><ellipse class="cls-4" cx="284.78" cy="126.5" rx="0.1" ry="0.08" transform="translate(37.58 316.21) rotate(-61.45)"/><circle class="cls-4" cx="279.26" cy="128.1" r="0.5"/><ellipse class="cls-4" cx="282.44" cy="140.79" rx="0.1" ry="0.08" transform="translate(23.8 321.62) rotate(-61.45)"/><ellipse class="cls-4" cx="282.75" cy="137.44" rx="0.1" ry="0.08" transform="translate(26.9 320.15) rotate(-61.45)"/><ellipse class="cls-4" cx="279.16" cy="138.5" rx="0.1" ry="0.08" transform="translate(24.1 317.55) rotate(-61.45)"/><ellipse class="cls-4" cx="286.87" cy="132.65" rx="0.1" ry="0.08" transform="translate(33.26 321.26) rotate(-61.45)"/><ellipse class="cls-4" cx="284.76" cy="136.53" rx="0.1" ry="0.08" transform="translate(28.75 321.43) rotate(-61.45)"/><ellipse class="cls-4" cx="283.1" cy="133.11" rx="0.1" ry="0.08" transform="translate(30.89 318.19) rotate(-61.45)"/><ellipse class="cls-4" cx="269.24" cy="140.14" rx="0.1" ry="0.08" transform="translate(17.48 309.68) rotate(-61.45)"/><ellipse class="cls-4" cx="269.55" cy="136.79" rx="0.1" ry="0.08" transform="translate(20.58 308.21) rotate(-61.45)"/><ellipse class="cls-4" cx="265.96" cy="137.85" rx="0.1" ry="0.08" transform="translate(17.78 305.61) rotate(-61.45)"/><ellipse class="cls-4" cx="273.66" cy="132" rx="0.1" ry="0.08" transform="translate(26.94 309.32) rotate(-61.45)"/><ellipse class="cls-4" cx="271.56" cy="135.87" rx="0.1" ry="0.08" transform="translate(22.43 309.49) rotate(-61.45)"/><ellipse class="cls-4" cx="269.9" cy="132.46" rx="0.1" ry="0.08" transform="translate(24.57 306.25) rotate(-61.45)"/><circle class="cls-4" cx="222.54" cy="215.19" r="0.5"/><circle class="cls-4" cx="210.36" cy="213.59" r="0.5"/><circle class="cls-4" cx="189.88" cy="223.54" r="0.5"/><circle class="cls-4" cx="228.23" cy="233.35" r="0.5"/><ellipse class="cls-4" cx="200.86" cy="229.26" rx="0.1" ry="0.08" transform="translate(-96.52 296.15) rotate(-61.45)"/><ellipse class="cls-4" cx="204.2" cy="229.57" rx="0.1" ry="0.08" transform="translate(-95.04 299.25) rotate(-61.45)"/><ellipse class="cls-4" cx="201.17" cy="225.92" rx="0.1" ry="0.08" transform="translate(-93.41 294.68) rotate(-61.45)"/><ellipse class="cls-4" cx="197.58" cy="226.98" rx="0.1" ry="0.08" transform="translate(-96.22 292.08) rotate(-61.45)"/><ellipse class="cls-4" cx="206.28" cy="232.21" rx="0.1" ry="0.08" transform="translate(-96.28 302.45) rotate(-61.45)"/><ellipse class="cls-4" cx="205.28" cy="221.12" rx="0.1" ry="0.08" transform="translate(-87.06 295.79) rotate(-61.45)"/><ellipse class="cls-4" cx="197.23" cy="225.78" rx="0.1" ry="0.08" transform="translate(-95.35 291.14) rotate(-61.45)"/><ellipse class="cls-4" cx="200.6" cy="219.58" rx="0.1" ry="0.08" transform="translate(-88.15 290.87) rotate(-61.45)"/><ellipse class="cls-4" cx="203.18" cy="225" rx="0.1" ry="0.08" transform="translate(-91.56 295.96) rotate(-61.45)"/><ellipse class="cls-4" cx="184.83" cy="219.03" rx="0.1" ry="0.08" transform="translate(-95.9 276.73) rotate(-61.45)"/><ellipse class="cls-4" cx="185.92" cy="221.64" rx="0.1" ry="0.08" transform="translate(-97.62 279.05) rotate(-61.45)"/><ellipse class="cls-4" cx="188.38" cy="218.96" rx="0.1" ry="0.08" transform="translate(-93.98 279.81) rotate(-61.45)"/><ellipse class="cls-4" cx="201.52" cy="221.59" rx="0.1" ry="0.08" transform="translate(-89.43 292.72) rotate(-61.45)"/><ellipse class="cls-4" cx="211.32" cy="234.95" rx="0.1" ry="0.08" transform="translate(-96.05 308.31) rotate(-61.45)"/><ellipse class="cls-4" cx="216.46" cy="234.74" rx="0.1" ry="0.08" transform="translate(-93.18 312.71) rotate(-61.45)"/><circle class="cls-4" cx="205.79" cy="225.67" r="0.5"/><circle class="cls-4" cx="173.67" cy="213.44" r="0.5"/><circle class="cls-4" cx="212.22" cy="205.45" r="0.5"/><circle class="cls-4" cx="195.99" cy="223.19" r="0.5"/><circle class="cls-4" cx="207.86" cy="196.17" r="0.5"/><circle class="cls-4" cx="185.09" cy="195.85" r="0.5"/><circle class="cls-4" cx="214.94" cy="221.86" r="0.5"/><circle class="cls-4" cx="191.02" cy="212.14" r="0.5"/><circle class="cls-4" cx="179.84" cy="213.56" r="0.5"/><circle class="cls-4" cx="169.68" cy="206.65" r="0.5"/><ellipse class="cls-4" cx="198.14" cy="210.09" rx="0.1" ry="0.08" transform="translate(-81.09 283.75) rotate(-61.45)"/><ellipse class="cls-4" cx="194.55" cy="211.15" rx="0.1" ry="0.08" transform="translate(-83.9 281.15) rotate(-61.45)"/><ellipse class="cls-4" cx="194.19" cy="209.95" rx="0.1" ry="0.08" transform="translate(-83.03 280.21) rotate(-61.45)"/><ellipse class="cls-4" cx="197.57" cy="203.75" rx="0.1" ry="0.08" transform="translate(-75.82 279.94) rotate(-61.45)"/><ellipse class="cls-4" cx="198.49" cy="205.76" rx="0.1" ry="0.08" transform="translate(-77.11 281.79) rotate(-61.45)"/><ellipse class="cls-4" cx="189.82" cy="205.06" rx="0.1" ry="0.08" transform="translate(-81.02 273.82) rotate(-61.45)"/><ellipse class="cls-4" cx="186.23" cy="206.12" rx="0.1" ry="0.08" transform="translate(-83.82 271.22) rotate(-61.45)"/><ellipse class="cls-4" cx="185.88" cy="204.93" rx="0.1" ry="0.08" transform="translate(-82.96 270.28) rotate(-61.45)"/><ellipse class="cls-4" cx="189.25" cy="198.72" rx="0.1" ry="0.08" transform="translate(-75.75 270.01) rotate(-61.45)"/><ellipse class="cls-4" cx="190.17" cy="200.73" rx="0.1" ry="0.08" transform="translate(-77.03 271.86) rotate(-61.45)"/><ellipse class="cls-4" cx="198.13" cy="210.33" rx="0.1" ry="0.08" transform="translate(-81.31 283.87) rotate(-61.45)"/><ellipse class="cls-4" cx="198.44" cy="206.99" rx="0.1" ry="0.08" transform="translate(-78.21 282.39) rotate(-61.45)"/><ellipse class="cls-4" cx="194.85" cy="208.05" rx="0.1" ry="0.08" transform="translate(-81.02 279.79) rotate(-61.45)"/><ellipse class="cls-4" cx="202.55" cy="202.19" rx="0.1" ry="0.08" transform="translate(-71.85 283.51) rotate(-61.45)"/><ellipse class="cls-4" cx="194.5" cy="206.85" rx="0.1" ry="0.08" transform="translate(-80.15 278.86) rotate(-61.45)"/><ellipse class="cls-4" cx="197.87" cy="200.65" rx="0.1" ry="0.08" transform="translate(-72.94 278.58) rotate(-61.45)"/><ellipse class="cls-4" cx="200.45" cy="206.07" rx="0.1" ry="0.08" transform="translate(-76.36 283.68) rotate(-61.45)"/><ellipse class="cls-4" cx="198.79" cy="202.66" rx="0.1" ry="0.08" transform="translate(-74.23 280.44) rotate(-61.45)"/><circle class="cls-4" cx="203.06" cy="206.74" r="0.5"/><circle class="cls-4" cx="193.26" cy="204.26" r="0.5"/><ellipse class="cls-4" cx="215.12" cy="215.17" rx="0.1" ry="0.08" transform="translate(-76.69 301.32) rotate(-61.45)"/><ellipse class="cls-4" cx="215.44" cy="211.83" rx="0.1" ry="0.08" transform="translate(-73.59 299.85) rotate(-61.45)"/><ellipse class="cls-4" cx="211.85" cy="212.89" rx="0.1" ry="0.08" transform="translate(-76.39 297.25) rotate(-61.45)"/><ellipse class="cls-4" cx="219.55" cy="207.03" rx="0.1" ry="0.08" transform="translate(-67.23 300.96) rotate(-61.45)"/><ellipse class="cls-4" cx="211.49" cy="211.69" rx="0.1" ry="0.08" transform="translate(-75.53 296.31) rotate(-61.45)"/><ellipse class="cls-4" cx="214.86" cy="205.49" rx="0.1" ry="0.08" transform="translate(-68.32 296.04) rotate(-61.45)"/><ellipse class="cls-4" cx="217.44" cy="210.91" rx="0.1" ry="0.08" transform="translate(-71.73 301.13) rotate(-61.45)"/><ellipse class="cls-4" cx="215.78" cy="207.5" rx="0.1" ry="0.08" transform="translate(-69.6 297.89) rotate(-61.45)"/><circle class="cls-4" cx="210.26" cy="209.1" r="0.5"/><ellipse class="cls-4" cx="213.44" cy="221.79" rx="0.1" ry="0.08" transform="translate(-83.38 303.3) rotate(-61.45)"/><ellipse class="cls-4" cx="213.75" cy="218.44" rx="0.1" ry="0.08" transform="translate(-80.28 301.83) rotate(-61.45)"/><ellipse class="cls-4" cx="210.16" cy="219.5" rx="0.1" ry="0.08" transform="translate(-83.09 299.23) rotate(-61.45)"/><ellipse class="cls-4" cx="217.87" cy="213.65" rx="0.1" ry="0.08" transform="translate(-73.92 302.94) rotate(-61.45)"/><ellipse class="cls-4" cx="215.76" cy="217.53" rx="0.1" ry="0.08" transform="translate(-78.43 303.11) rotate(-61.45)"/><ellipse class="cls-4" cx="214.1" cy="214.11" rx="0.1" ry="0.08" transform="translate(-76.29 299.87) rotate(-61.45)"/><ellipse class="cls-4" cx="200.24" cy="221.14" rx="0.1" ry="0.08" transform="translate(-89.7 291.36) rotate(-61.45)"/><ellipse class="cls-4" cx="200.55" cy="217.79" rx="0.1" ry="0.08" transform="translate(-86.6 289.89) rotate(-61.45)"/><ellipse class="cls-4" cx="196.96" cy="218.85" rx="0.1" ry="0.08" transform="translate(-89.41 287.29) rotate(-61.45)"/><ellipse class="cls-4" cx="204.66" cy="213" rx="0.1" ry="0.08" transform="translate(-80.24 291) rotate(-61.45)"/><ellipse class="cls-4" cx="202.56" cy="216.87" rx="0.1" ry="0.08" transform="translate(-84.75 291.17) rotate(-61.45)"/><ellipse class="cls-4" cx="200.9" cy="213.46" rx="0.1" ry="0.08" transform="translate(-82.61 287.93) rotate(-61.45)"/><path class="cls-5" d="M267.93,82l-45.15-4.28a4.33,4.33,0,0,1-4.43-4.22l-3.87-17.2A26.11,26.11,0,0,1,219,51.4,12.67,12.67,0,0,1,222.78,49a11.52,11.52,0,0,1,5.22-.61c3.91.35,19.95.5,42.57.61a4.67,4.67,0,0,1,3.14,1.24,4.11,4.11,0,0,1,1.3,3V73.5a13.64,13.64,0,0,1-1.3,3A15.19,15.19,0,0,1,267.93,82Z"/><rect class="cls-6" x="213.84" y="53.85" width="56.66" height="28.76" rx="4.33"/><path class="cls-7" d="M276.6,91.42c-.18,1.29-1.16,2.15-2.71,3.32-3.66,2.75-5.48,4.13-8,5.08a23.54,23.54,0,0,1-14.4.7c-4-1.12-6.55-3-9.2-5a33.28,33.28,0,0,1-6.43-6.36c-1.75-2.29-4.28-5.59-3.21-7.6.43-.79,1.21-1,2.29-1.45,3.72-1.58,5.13-3.78,7.09-5.29,5.52-4.26,14.66-2.57,15.76-2.35s9.7,1.9,13.46,7.93c1.27,2.05,1.16,3.25,3.41,6.67C275.83,88.87,276.8,90,276.6,91.42Z"/><path class="cls-8" d="M275.88,91.43c0-.08.06-.28,0-.25l-.09.32Z"/><path class="cls-8" d="M275.56,90.76a1.43,1.43,0,0,0-.21.72c.12-.3.11-.17.24-.53.07,0,.1.12.07.24,0-.08.08.08.15-.12s-.15-.29-.28-.09A.51.51,0,0,1,275.56,90.76Z"/><path class="cls-8" d="M269.31,90.2l0,0Z"/><path class="cls-8" d="M265.49,90s0,0,.05-.07S265.49,89.93,265.49,90Z"/><path class="cls-8" d="M264.87,89.55l0,0S264.88,89.52,264.87,89.55Z"/><path class="cls-8" d="M269.31,90.2l-.11-.1C269.2,90.21,269.26,90.18,269.31,90.2Z"/><path class="cls-8" d="M274.64,91.46a.18.18,0,0,0,.06-.08l-.05,0Z"/><path class="cls-8" d="M271,89.86h0l0-.13Z"/><path class="cls-8" d="M272.33,89.77s0,.27-.05.39a.44.44,0,0,1,.06-.19A1.56,1.56,0,0,0,272.33,89.77Z"/><path class="cls-8" d="M274.44,90.3l0,0Z"/><path class="cls-8" d="M270.06,89.84a.3.3,0,0,0,0-.1A.3.3,0,0,0,270.06,89.84Z"/><path class="cls-8" d="M234.13,84.44v0S234.12,84.44,234.13,84.44Z"/><polygon class="cls-8" points="232.88 82.81 232.9 82.8 232.93 82.64 232.88 82.81"/><path class="cls-8" d="M263.73,89.09h0S263.75,89.07,263.73,89.09Z"/><path class="cls-8" d="M253,87.06c.05.28-.28.25-.18.57C252.87,87.52,253.14,87.26,253,87.06Z"/><path class="cls-8" d="M274.61,91.42h-.05A0,0,0,0,0,274.61,91.42Z"/><path class="cls-8" d="M252.85,87.63h0v0Z"/><path class="cls-8" d="M261,88.88a.45.45,0,0,0,0,.12A.62.62,0,0,0,261,88.88Z"/><path class="cls-8" d="M263,89.56l-.05,0S263,89.56,263,89.56Z"/><path class="cls-8" d="M259.91,89.08s0-.06-.07,0v0S259.88,89,259.91,89.08Z"/><path class="cls-8" d="M258.82,88.87v.06h0Z"/><path class="cls-8" d="M237.43,85a2.35,2.35,0,0,1,0-.26C237.41,84.94,237.24,85,237.43,85Z"/><path class="cls-8" d="M274.65,91.3c0,.07,0,.11,0,.12h0A.2.2,0,0,0,274.65,91.3Z"/><path class="cls-8" d="M259.45,91.26l-.17-.08A.45.45,0,0,0,259.45,91.26Z"/><path class="cls-8" d="M245.14,87.1l0,0S245.12,87.13,245.14,87.1Z"/><path class="cls-8" d="M258.74,91.12a.49.49,0,0,0-.06-.22.43.43,0,0,0,0,.07Z"/><path class="cls-8" d="M237.44,84.74Z"/><path class="cls-8" d="M236.17,85.14c.16,0,.15-.34.23-.54s0,.29.06.48c.14-.06.31-.38.4-.34a.31.31,0,0,1,0,.15c.2-.26.39.08.62-.24a.27.27,0,0,1,0,.09,4.18,4.18,0,0,1,.09-.5c.08,0,.2-.19.17.05,0,0-.07.07-.11.14l.1-.08c0,.35-.13.09-.19.34.17-.07.42-.31.51-.18-.06.33-.3,0-.22.37l-.14-.17c0,.56-.1-.06-.11.53.21.15.3-.11.51.05.1-.17,0-.28.15-.45.41-.25.05.89.4.52.12-.21.25-.62.37-.36l-.16.36c.22.09.27-.5.44-.19-.08.13-.21.08-.19.13.08.33.17-.18.28-.15l-.06.33c.26,0,.58-.15.86-.14,0,.1-.11.19-.07.3.37-.07.7.24,1,.52l.2-.25s0,.14,0,.19.06-.18.15-.27,0,.19,0,.26c.29-.18.77-.33.92,0l-.07.07c.15.16.37-.52.47-.21l0,0c.36.24.87.11,1,.62.17-.39.33.3.53-.26.14.35,0,.43.3.71.08.06.24-.31.36-.34l-.09.3.24-.27,0,.38.12,0a.32.32,0,0,1,0-.24c.19-.09.31.32.27.47l.44-.14c0,.12-.12.14-.19.2.28-.24-.06.32.2.1a.92.92,0,0,1,.09-.23c0,.21.23.27.41.24l-.09.19c.25.14.59.08.9.18-.08-.13,0-.48.15-.48l-.06.32c.12-.17-.06-.15.13-.35.1.08,0,.38-.13.46l.17-.06a1.6,1.6,0,0,1-.11.25c.12-.18.14.38.33.07l0,.1c.3.09.47,0,.72.09.09-.27.17-.18.31-.38.15.14.29.42.52.46s.11-.21.23-.35c-.06.24.16.29,0,.43a1.4,1.4,0,0,0,.74,0c0-.11,0-.16,0-.24s.11.14.06.26l0,0c.48-.26.66,1,1.11.54l0,0,.39-.17c.13.08-.14.16-.08.34.46-.31.52.21.87,0,0,.79.78.16.94.7l0-.17c.12-.15.07.12.11.17,0-.13,0-.17,0-.25.69,0,1.25.61,1.88.92.23.11.35-.86.56-.37l-.17.3c.58-.27,1,.27,1.55,0,0,.06-.06.16-.11.15,0,.26.37.09.42-.1.07,0,0,.18,0,.28s.32-.24.33,0c0,0-.05.07-.07.09s.3.09.3-.19c.15.17.37-.05.48.14.15-.28.28.22.39-.21-.1.45.25.42.41.23-.07.13.07.16,0,.34.14,0,.27-.05.29-.28.15.58.56-.34.58.36a5.12,5.12,0,0,1,1.19-.31c-.08.45-.4,0-.46.45.37-.12.62-.49.94-.34.07.08-.08.19-.12.26.36-.14.65.13,1-.08a.25.25,0,0,1-.08.12c.06,0,.13.08.15-.12l-.07,0c-.06-.3.31-.58.34-.74-.17.57.27.19,0,.9a.37.37,0,0,0,.11-.26s.06.13,0,.28c.22-.09.17-.31.36-.28,0,.1-.06.13-.09.24.12-.18.24-.36.39-.27,0,.06,0,.14-.05.14.28,0,.52-.48.81-.27-.13.42.09.15.08.52l.17-.1-.05-.18c.14,0,.28-.25.4-.12l-.12.15.28-.05-.15-.15c.16-.18,0-.48.2-.36,0,0,.14,0,.2.24h0c.08-.11.16-.23.26-.13s0,.41,0,.49c.09-.3.34-.08.44-.41a1,1,0,0,0,0,.32l.07-.25c.06.08.07.12,0,.27.2,0,0-.47.19-.26,0,0,0,0-.05.09.23.11.46-.15.68,0,.06.37-.2.09-.13.4.32-.06.66-.43,1-.34l-.06,0c0-.53.23.27.38,0a.63.63,0,0,0,0,.24c.21.08.42-.14.73-.32l0,.14c.13.11.33.06.46.11,0-.14.11-.12.06-.31.44.76.75-.45,1.14.18,0,0-.1.12-.06.12l.3-.14c0-.23-.05-.13-.12-.31s.11-.25.19-.25c-.13.16,0,.37.08.49a1.61,1.61,0,0,1,0-.22c.17.41,0-.46.23-.19v.12c.08-.07.14-.23.23-.2.05.27-.08.13-.08.35.13,0,.23-.51.35-.25,0,.07-.13.08-.18.15.14.31.15.23.24.28h0l.21.14-.06-.08c.14-.7.31-.14.51-.6-.19.44,0,.25,0,.56.05.08.13.17.11.26.1-.24.16.19.3-.17,0,.1.1,0,.08.26.12-.08,0-.17,0-.29.2-.33.44.4.73,0,.24-.18.3-.51.54-.66.07.16-.08.35-.08.35.11.16.2.13.32,0a.52.52,0,0,0,0,.27c.09,0,.09-.35.2-.19a2.14,2.14,0,0,1-.13.38c.12-.08.24-.26.36-.33,0,.17-.1.25-.14.36.12-.07.33-.12.4-.38l-.07-.11c.05,0,0,.23,0,.28-.13.2-.14-.11-.14-.21l.09,0c0-.58-.34.06-.49,0l.1-.41-.19.33c0-.11,0-.35.05-.4-.1-.21-.12.14-.2-.1a.08.08,0,0,1,0-.07l-.13.12c0-.09,0-.29.07-.23-.2-.25-.35.29-.42,0l0,0c-.29.13,0,.3-.27.65l-.12-.75,0,.3s-.08,0-.07-.16c-.12.21,0,.14-.05.33-.14-.28-.39.13-.43-.36-.05.24.14.18,0,.34-.05-.52-.18.09-.31-.15,0-.27.17-.12,0-.36-.07.45-.26-.1-.37,0,0,.36-.23.15-.42.28,0-.12-.35-.19-.53-.31v-.06c0,.37-.2.3-.33.38a.66.66,0,0,1,.08-.4H271a.31.31,0,0,1-.13.23l0-.28c-.17,0-.31.34-.53.17,0,.25.2.7,0,.88,0-.14,0-.37,0-.43s-.06.12-.1.06l.07-.24c-.1-.1,0,.2-.11.18,0-.2-.07-.14-.06-.29s.07.07.09,0a.49.49,0,0,1-.23-.3c0,.12,0,.27-.05.3s-.06-.24-.16-.33c0,.13-.14,0-.13.29-.05,0-.06-.14-.09-.22-.07.14-.38.06-.27.37l0,0h0c-.26.3-.56-.15-.82,0v-.1c-.15.12-.35.07-.46.28-.05,0-.11-.18-.09-.3-.13.07-.14.19-.32,0,.13-.17,0-.15.13-.12-.16-.09-.19-.25-.36,0,.06-.26-.12-.32-.19-.25l.11.18a.33.33,0,0,1-.24,0l.05-.33c-.3-.41-.6.68-.82,0-.09.23.17.16.08.43-.14,0-.28-.52-.32-.53-.19-.2-.21.47-.42.33,0,.12,0,.44-.14.54-.14,0-.15-.51-.05-.6s.05,0,.05.07a.15.15,0,0,0,.06-.21l0,.11c-.07-.12-.27-.13-.21-.32-.12.11-.06.19,0,.26-.18-.19-.3,0-.48-.16,0,.07,0,.21,0,.21-.27-.17-.14.21-.34.25-.1-.19.07-.43-.13-.29-.11-.13,0-.32.05-.41-.19.22-.31-.17-.41-.22l.11-.09a.18.18,0,0,1-.16,0l0,.24c-.05,0-.09,0-.08-.15-.07.15,0,.4-.13.6-.06-.13-.24.1-.23-.22.22.14,0-.31.21-.34a.1.1,0,0,1-.14,0,.12.12,0,0,1,0-.08c-.18-.31-.14.34-.36.3.05-.17,0-.34-.06-.31s0,.3-.09.43c-.13-.16-.17.08-.24,0l.08.08c-.05.17-.12.14-.23.18,0-.14.1-.08.07-.14-.15.29-.21-.36-.4-.17-.05-.13,0-.33,0-.42-.21.21-.16-.27-.37-.1,0,.24,0,.19-.12.4l.32-.13-.24.32c.09,0,.21-.12.26-.08-.12.19-.1.13-.08.33-.08-.37-.28.17-.4-.08l.1-.59c-.18-.28-.44.24-.7,0l.08.11c-.08.23-.18,0-.29.08a.85.85,0,0,0,0-.4c0,.15-.21,0-.3.34l-.08-.28c-.21-.15-.36.51-.57.4.11-.2,0-.35.21-.48-.08,0-.14-.06-.16.07,0-.12-.25.23-.29,0,0,.08-.09.29-.17.26a.31.31,0,0,1,0-.1c0,.1-.16.11-.13.33-.11-.64-.64-.08-.73-.64a1.93,1.93,0,0,1-.53,0s0-.09.05-.07c-.16-.22-.25.53-.43.28s.16-.14.11-.28c.11-.64-.29,0-.36-.37l0,0c-.07-.24-.34.18-.52.09l0-.1a1,1,0,0,1-.69.38c.12-.23.12-.11.14-.37-.09,0-.07.41-.25.44a1.3,1.3,0,0,1-.06-.57l.16,0c0-.37-.21,0-.27-.12l0-.15c-.24,0-.34.37-.59.28v.12c-.24.35-.07-.24-.28,0l.06-.39a2,2,0,0,1-.6.31,2.42,2.42,0,0,1,.56-.49c-.09,0-.32,0-.41.13,0,0,.11-.11.14,0-.19.27-.38.38-.56.32.23-.73-.42-.31-.4-.92-.39.18-.6-.29-1-.35,0,.61-.11,0-.25.58-.1,0-.13,0-.13,0l-.16-.43c0-.19.12-.11.15-.24-.18-.1,0-.27-.09-.47,0,.22-.15.29-.23.17l.07.32c-.35.24-.09-.56-.44-.33l.14-.16c-.17.07-.5-.15-.78.29,0-.08,0-.25.09-.27-.31-.17-.88.29-1-.08l.06-.14c-.07,0-.18.24-.22.07s.07-.13,0-.15-.24.2-.3.1l.12-.14c-.26-.29-.6.24-.9.26a.65.65,0,0,0-.19-.74l0-.06c-.36-.16-.74.16-1.13.22-.08-.52-.67-.41-.93-.77a.43.43,0,0,1-.18.34c-.06-.11-.31.23-.18-.15h0c.06-.39-.14-.34-.26-.39l-.18.49c-.12-.83-1,0-1-.71-.12.1-.22.07-.34.17l.09-.27a1.07,1.07,0,0,0-.61-.22l.12-.18c-.16-.06-.44.72-.59.7l.08-.42c-.28-.08-.46-.51-.84-.23,0-.06.07-.17.12-.17-.13,0-.43-.43-.54.15.1-.37-.28-.12-.47,0l.09-.26c-.22.31-.25.4-.45.44,0,0,0-.22.06-.14-.1-.18-.18.22-.31,0l.11-.16c-.14-.06-.15,0-.29.21s-.25-.14-.21-.39c-.06.15-.19.32-.26.23a.29.29,0,0,1,.09-.17c-.19-.25-.45.22-.54-.09a.71.71,0,0,0,0-.17,1,1,0,0,1,.32.13c.06-.25-.08-.33.14-.64-.18.15-.5.5-.62.34v-.09l0,0s-.07,0-.11,0-.06-.09-.11-.11c0-.21-.15-.16-.22-.19-.07.28-.16.2-.12.45,0,0,0,0,.08,0l0,0v0l.19,0c-.09.12-.19.22-.23,0l-.23.41c0-.41-.15-.67-.12-.91-.28.1-.59,0-.87.44-.08,0,0-.17,0-.25s.09,0,.13-.09c-.17.09-.41,0-.53.3-.13-.21.18-.31-.07-.31l.06-.1c-.33-.68-1,.72-1.31-.12a.17.17,0,0,1,0,.14c-.51-.45-1.27,0-1.74-.6-.14-.14-.2.09-.34.25l0-.31-.24.31c-.29.21-.28-.8-.68-.38v.21c-.1-.06-.37,0-.31-.17,0,0-.08.2-.1.09l0-.16-.32.22c-.19-.15.14-.61-.17-.7-.12,0-.4.4-.37.51s.1.12.08.27l-.12.07a2,2,0,0,0,0,1.28l.22-.25,0,.23H233c.05.22.13,0,.22-.07a.47.47,0,0,0,0,.26l.24-.41c0,.18-.13.34,0,.46.12-.19,0-.42.15-.53,0,.23,0,.39.13.23a.42.42,0,0,1-.09.24c.11-.13.24,0,.33-.25,0,.27.3,0,.22.41,0-.1.21-.31.3-.31-.25.49.29.08.15.63.2-.45.43-.14.67-.35,0,0,0,.1-.07.08s.11.21.16.31c.09-.38.28-.43.42-.65,0,.4-.18.43-.21.8.06-.32.29-.26.3-.53a.82.82,0,0,1,0,.46c.12-.48.11-.06.26-.34.09.27-.06.46.13.35C236.34,85,236.17,85.14,236.17,85.14Zm4,.11h0Zm.32.08-.14,0c0-.1.06-.19.09-.18S240.46,85.24,240.49,85.33Zm-.17-2.06c.06,0,.06,0,.05.09h-.1v0A.81.81,0,0,1,240.32,83.27Z"/><path class="cls-8" d="M240.13,83.6h0l0,.07,0-.08Z"/><path class="cls-8" d="M269.36,90.25h0s0,0,0,0Z"/><polygon class="cls-8" points="244.74 87.13 244.76 87.06 244.72 87.11 244.74 87.13"/><path class="cls-8" d="M271.23,91.13a.13.13,0,0,0,0,.08Z"/><path class="cls-8" d="M272,91.17l.11.1A.44.44,0,0,0,272,91.17Z"/><path class="cls-8" d="M272.62,91.3s0-.09,0-.12h0Z"/><path class="cls-8" d="M262.79,91.44h0C262.7,91.49,262.74,91.48,262.79,91.44Z"/><path class="cls-8" d="M265.77,91.05a.45.45,0,0,1-.1.13C265.72,91.2,265.76,91.21,265.77,91.05Z"/><polygon class="cls-8" points="259.47 91.26 259.47 91.26 259.45 91.25 259.47 91.26"/><path class="cls-8" d="M265.54,91.16c0,.06.09,0,.13,0S265.58,91.12,265.54,91.16Z"/><path class="cls-8" d="M275.15,91.54h0s0,0,0,0Z"/><path class="cls-8" d="M275.19,91.51l0,0S275.19,91.48,275.19,91.51Z"/><path class="cls-8" d="M275.29,91.42l-.07.06S275.27,91.49,275.29,91.42Z"/><path class="cls-8" d="M274.4,91.34l0,.1A.56.56,0,0,0,274.4,91.34Z"/><path class="cls-8" d="M274.16,91.35c.06,0,.13.23.21.17v-.08C274.34,91.59,274.23,91.18,274.16,91.35Z"/><path class="cls-8" d="M273.18,90.06l.21.09c0-.11-.08-.26,0-.28C273.14,89.54,273.46,90.11,273.18,90.06Z"/><path class="cls-8" d="M272.53,89.91c.11,0,0-.16,0-.22C272.46,89.79,272.45,89.82,272.53,89.91Z"/><path class="cls-8" d="M267.93,90v-.25C267.86,89.82,267.94,89.89,267.93,90Z"/><polygon class="cls-8" points="267.04 91.35 267.12 91.51 267.16 91.28 267.04 91.35"/><polygon class="cls-8" points="266.57 89.52 266.61 89.48 266.47 89.57 266.57 89.52"/><path class="cls-8" d="M259.06,88.67l0,.31C259.09,88.94,259.17,88.59,259.06,88.67Z"/><path class="cls-8" d="M255.77,88.24c0-.16-.06-.28-.15-.15C255.68,88.13,255.73,88.27,255.77,88.24Z"/><polygon class="cls-8" points="246.32 84.97 246.42 84.88 246.27 84.93 246.32 84.97"/><path class="cls-9" d="M241.2,90.86c.62,5.44-10,13.21-20.65,13.21S199.29,96.3,199.9,90.86c.24-2.17,2.36-3.65,6.6-6.61,5.72-4,10.82-8.35,14.05-6.61,1.38.74.81,1.7,2.48,3.3,3.15,3,6.85,1.24,11.56,3.31C236.83,85.23,240.85,87.76,241.2,90.86Z"/><path class="cls-10" d="M255.35,115.75c-1.13,4.6-12.12,7.73-20.72,4.56s-14.93-12.66-12.81-16.9c.84-1.69,3-2.26,7.34-3.39,5.83-1.53,11.27-3.55,13.37-1.17.9,1,.15,1.62,1,3.42,1.65,3.41,5.19,3.06,8.4,6.14C253.48,109.88,256,113.14,255.35,115.75Z"/></g></svg>