<svg xmlns="http://www.w3.org/2000/svg" xmlns:xlink="http://www.w3.org/1999/xlink" width="320" height="320" viewBox="0 0 320 320"><defs><style>.cls-1{fill:url(#radial-gradient);}.cls-2{fill:url(#radial-gradient-2);}.cls-3{fill:url(#radial-gradient-3);}.cls-4{fill:#a38078;}.cls-5{fill:#e0d0b3;}.cls-6{fill:#c4b295;}.cls-7{fill:url(#radial-gradient-4);}.cls-8{fill:url(#radial-gradient-5);}</style><radialGradient id="radial-gradient" cx="160" cy="160" r="147.88" gradientUnits="userSpaceOnUse"><stop offset="0.01" stop-color="#eaf8ed"/><stop offset="0.64" stop-color="#c9e7d2"/><stop offset="1" stop-color="#e4f5e5"/></radialGradient><radialGradient id="radial-gradient-2" cx="297.69" cy="-2599.13" r="115.82" gradientTransform="matrix(0.98, 0.52, -0.5, 0.94, -1427, 2432.35)" xlink:href="#radial-gradient"/><radialGradient id="radial-gradient-3" cx="176.71" cy="146.88" r="121.34" xlink:href="#radial-gradient"/><radialGradient id="radial-gradient-4" cx="215.09" cy="87.43" fx="186.3785737445364" fy="101.37097462285539" r="31.92" gradientUnits="userSpaceOnUse"><stop offset="0" stop-color="#c9e7d2"/><stop offset="0.03" stop-color="#c6deca"/><stop offset="0.17" stop-color="#b7b5a7"/><stop offset="0.3" stop-color="#ac988d"/><stop offset="0.41" stop-color="#a5867e"/><stop offset="0.49" stop-color="#a38078"/><stop offset="0.67" stop-color="#c1a996"/><stop offset="0.88" stop-color="#e9dfbe"/><stop offset="1" stop-color="#f2b879"/></radialGradient><radialGradient id="radial-gradient-5" cx="1180.14" cy="247.37" fx="1155.299242835015" fy="259.42668268401974" r="27.61" gradientTransform="translate(-784.46 -533.45) rotate(20.21)" xlink:href="#radial-gradient-4"/></defs><g id="Layer_2" data-name="Layer 2"><path class="cls-1" d="M310.07,155.36c.24,31.55-12.85,56.42-21.61,70a15.38,15.38,0,0,1-1.39,10c-1.13,2.08-2,2.29-7,7-5.66,5.33-5.93,6.37-8,7-1.51.46-5.2,1.08-11-3l-17.88,26.18a24.09,24.09,0,0,0-4.12,3.82c-2.43,2.84-2.81,4.65-4,6-1.64,1.84-5.23,3.31-14,1.31q-4.33,2.19-8.68,4.37a77.55,77.55,0,0,1-8.32,8.32c-5.63,4.81-9.38,8-14,9-9.89,2.07-19.15-7.1-21-9a44.94,44.94,0,0,1-9,0,46.29,46.29,0,0,1-20-7l-49-18c-6.7-4.48-12.19-7.79-16-10-5.55-3.22-9.53-5.26-12-10a17.89,17.89,0,0,1-1.93-6.79q-4.68-5.69-9.37-11.38a61.06,61.06,0,0,1-9.7-7.83c-4.11-4.06-12.08-12-14-23-.78-4.45,0-5.94,1-15a200.67,200.67,0,0,0,1-27c-.67-1.67-1.34-3.33-2-5a12.14,12.14,0,0,1-9,2,11.74,11.74,0,0,1-9-9c-.88-4.72,2.78-6,5-13,3.59-11.32-2.6-18.75,2-23,3.36-3.11,8.6-.92,10-4,1.05-2.33-1.76-4-2-8-.3-4.81,3.47-7.09,8-14,2.7-4.13,1.35-3.32,7-15,7.25-15,9.49-16.38,11-17S57.83,52,67,58.09c11-10.67,48.79-44.71,102.08-43.73C244,15.73,309.51,85.58,310.07,155.36Z"/><path class="cls-2" d="M272.72,207.4c-23,43.65-74.8,68.71-128.94,61.84a41.55,41.55,0,0,1-20.53-1.82c-8.66-3.18-13.76-8.7-17.6-12.72-21.79-22.82-23.63-19.08-32.82-31-6.29-8.14-18.13-26.34-21-57.1-3.8,5.29-8.32,8.21-11.42,7.13-2.73-1-3.54-4.72-4.67-10.4-.93-4.61-2.09-13.28.16-25.94a93.34,93.34,0,0,1,3-12c-2.85-6.63-2.14-10.61-1-13,2.17-4.67,6.13-3.78,9.62-9.62,2.58-4.31,3.07-9.22,3.44-12.89a49.1,49.1,0,0,0,.15-6.71,55.22,55.22,0,0,1,3.6-19.6,17.36,17.36,0,0,0,7.27-5.19c2.43-3,2.34-5.25,3.75-7.07,1.89-2.45,6.67-4.4,19.93-1.19C88.35,48.46,155,8.56,218,42.62,273.77,72.78,303.79,148.56,272.72,207.4Z"/><path class="cls-3" d="M277,215.69c-29.15,41-83.14,60.61-134.42,48.2A38.65,38.65,0,0,1,123,260c-7.88-4-11.94-10.07-15-14.45-17.49-24.95-19.86-21.41-26.88-34.17-4.8-8.74-13.4-28.06-11.3-58.93-4.51,4.87-9.33,7.31-12.16,5.91-2.49-1.23-2.68-5.06-2.89-10.82-.17-4.68.06-13.42,4.23-25.77a101.63,101.63,0,0,1,4.75-11.64c-1.71-6.88-.4-10.77,1-13,2.83-4.42,6.52-3.13,10.82-8.57C78.78,84.48,80,79.64,81,76a53.45,53.45,0,0,0,1.21-6.65,58.51,58.51,0,0,1,6.55-19.11,18.27,18.27,0,0,0,7.86-4.42c2.82-2.75,3.08-5,4.73-6.64,2.21-2.24,7.14-3.68,19.46.87,2.91-1.41,73.63-34.21,129.2,6.14C299.16,82,316.3,160.39,277,215.69Z"/><circle class="cls-4" cx="206.03" cy="100.2" r="0.5"/><circle class="cls-4" cx="193.85" cy="98.6" r="0.5"/><circle class="cls-4" cx="173.37" cy="108.55" r="0.5"/><circle class="cls-4" cx="211.72" cy="118.36" r="0.5"/><ellipse class="cls-4" cx="184.35" cy="114.27" rx="0.1" ry="0.08" transform="translate(-4.12 221.61) rotate(-61.45)"/><ellipse class="cls-4" cx="187.7" cy="114.58" rx="0.1" ry="0.08" transform="translate(-2.65 224.71) rotate(-61.45)"/><ellipse class="cls-4" cx="184.67" cy="110.92" rx="0.1" ry="0.08" transform="translate(-1.02 220.13) rotate(-61.45)"/><ellipse class="cls-4" cx="181.08" cy="111.98" rx="0.1" ry="0.08" transform="translate(-3.82 217.53) rotate(-61.45)"/><ellipse class="cls-4" cx="189.78" cy="117.22" rx="0.1" ry="0.08" transform="translate(-3.88 227.91) rotate(-61.45)"/><ellipse class="cls-4" cx="188.78" cy="106.13" rx="0.1" ry="0.08" transform="translate(5.34 221.25) rotate(-61.45)"/><ellipse class="cls-4" cx="180.72" cy="110.79" rx="0.1" ry="0.08" transform="translate(-2.96 216.6) rotate(-61.45)"/><ellipse class="cls-4" cx="184.09" cy="104.59" rx="0.1" ry="0.08" transform="translate(4.25 216.32) rotate(-61.45)"/><ellipse class="cls-4" cx="186.67" cy="110.01" rx="0.1" ry="0.08" transform="translate(0.83 221.42) rotate(-61.45)"/><ellipse class="cls-4" cx="168.32" cy="104.04" rx="0.1" ry="0.08" transform="translate(-3.51 202.18) rotate(-61.45)"/><ellipse class="cls-4" cx="169.42" cy="106.65" rx="0.1" ry="0.08" transform="translate(-5.22 204.5) rotate(-61.45)"/><ellipse class="cls-4" cx="171.88" cy="103.97" rx="0.1" ry="0.08" transform="translate(-1.58 205.27) rotate(-61.45)"/><ellipse class="cls-4" cx="185.01" cy="106.59" rx="0.1" ry="0.08" transform="translate(2.97 218.18) rotate(-61.45)"/><ellipse class="cls-4" cx="194.82" cy="119.96" rx="0.1" ry="0.08" transform="translate(-3.66 233.77) rotate(-61.45)"/><ellipse class="cls-4" cx="199.96" cy="119.74" rx="0.1" ry="0.08" transform="translate(-0.78 238.17) rotate(-61.45)"/><circle class="cls-4" cx="189.29" cy="110.68" r="0.5"/><circle class="cls-4" cx="157.16" cy="98.44" r="0.5"/><circle class="cls-4" cx="195.71" cy="90.45" r="0.5"/><circle class="cls-4" cx="179.49" cy="108.19" r="0.5"/><circle class="cls-4" cx="191.36" cy="81.18" r="0.5"/><circle class="cls-4" cx="168.59" cy="80.86" r="0.5"/><circle class="cls-4" cx="198.43" cy="106.87" r="0.5"/><circle class="cls-4" cx="174.52" cy="97.15" r="0.5"/><circle class="cls-4" cx="163.33" cy="98.57" r="0.5"/><circle class="cls-4" cx="153.17" cy="91.66" r="0.5"/><ellipse class="cls-4" cx="181.63" cy="95.09" rx="0.1" ry="0.08" transform="translate(11.3 209.21) rotate(-61.45)"/><ellipse class="cls-4" cx="178.04" cy="96.16" rx="0.1" ry="0.08" transform="translate(8.5 206.61) rotate(-61.45)"/><ellipse class="cls-4" cx="177.69" cy="94.96" rx="0.1" ry="0.08" transform="translate(9.36 205.67) rotate(-61.45)"/><ellipse class="cls-4" cx="181.06" cy="88.76" rx="0.1" ry="0.08" transform="translate(16.57 205.4) rotate(-61.45)"/><ellipse class="cls-4" cx="181.98" cy="90.76" rx="0.1" ry="0.08" transform="translate(15.29 207.25) rotate(-61.45)"/><ellipse class="cls-4" cx="173.32" cy="90.07" rx="0.1" ry="0.08" transform="translate(11.38 199.28) rotate(-61.45)"/><ellipse class="cls-4" cx="169.73" cy="91.13" rx="0.1" ry="0.08" transform="translate(8.57 196.68) rotate(-61.45)"/><ellipse class="cls-4" cx="169.37" cy="89.93" rx="0.1" ry="0.08" transform="translate(9.44 195.74) rotate(-61.45)"/><ellipse class="cls-4" cx="172.75" cy="83.73" rx="0.1" ry="0.08" transform="translate(16.64 195.47) rotate(-61.45)"/><ellipse class="cls-4" cx="173.67" cy="85.74" rx="0.1" ry="0.08" transform="translate(15.36 197.32) rotate(-61.45)"/><ellipse class="cls-4" cx="181.62" cy="95.34" rx="0.1" ry="0.08" transform="translate(11.08 209.32) rotate(-61.45)"/><ellipse class="cls-4" cx="181.93" cy="91.99" rx="0.1" ry="0.08" transform="translate(14.18 207.85) rotate(-61.45)"/><ellipse class="cls-4" cx="178.34" cy="93.06" rx="0.1" ry="0.08" transform="translate(11.38 205.25) rotate(-61.45)"/><ellipse class="cls-4" cx="186.05" cy="87.2" rx="0.1" ry="0.08" transform="translate(20.54 208.96) rotate(-61.45)"/><ellipse class="cls-4" cx="177.99" cy="91.86" rx="0.1" ry="0.08" transform="translate(12.24 204.32) rotate(-61.45)"/><ellipse class="cls-4" cx="181.36" cy="85.66" rx="0.1" ry="0.08" transform="translate(19.45 204.04) rotate(-61.45)"/><ellipse class="cls-4" cx="183.94" cy="91.08" rx="0.1" ry="0.08" transform="translate(16.04 209.14) rotate(-61.45)"/><ellipse class="cls-4" cx="182.28" cy="87.66" rx="0.1" ry="0.08" transform="translate(18.17 205.9) rotate(-61.45)"/><circle class="cls-4" cx="186.56" cy="91.75" r="0.5"/><circle class="cls-4" cx="176.76" cy="89.26" r="0.5"/><ellipse class="cls-4" cx="198.62" cy="100.18" rx="0.1" ry="0.08" transform="translate(15.7 226.78) rotate(-61.45)"/><ellipse class="cls-4" cx="198.93" cy="96.83" rx="0.1" ry="0.08" transform="translate(18.81 225.31) rotate(-61.45)"/><ellipse class="cls-4" cx="195.34" cy="97.89" rx="0.1" ry="0.08" transform="translate(16 222.71) rotate(-61.45)"/><ellipse class="cls-4" cx="203.04" cy="92.04" rx="0.1" ry="0.08" transform="translate(25.17 226.42) rotate(-61.45)"/><ellipse class="cls-4" cx="194.99" cy="96.7" rx="0.1" ry="0.08" transform="translate(16.87 221.77) rotate(-61.45)"/><ellipse class="cls-4" cx="198.36" cy="90.5" rx="0.1" ry="0.08" transform="translate(24.08 221.5) rotate(-61.45)"/><ellipse class="cls-4" cx="200.94" cy="95.92" rx="0.1" ry="0.08" transform="translate(20.66 226.59) rotate(-61.45)"/><ellipse class="cls-4" cx="199.28" cy="92.5" rx="0.1" ry="0.08" transform="translate(22.79 223.35) rotate(-61.45)"/><circle class="cls-4" cx="193.75" cy="94.1" r="0.5"/><ellipse class="cls-4" cx="196.93" cy="106.8" rx="0.1" ry="0.08" transform="translate(9.01 228.76) rotate(-61.45)"/><ellipse class="cls-4" cx="197.25" cy="103.45" rx="0.1" ry="0.08" transform="translate(12.12 227.29) rotate(-61.45)"/><ellipse class="cls-4" cx="193.66" cy="104.51" rx="0.1" ry="0.08" transform="translate(9.31 224.69) rotate(-61.45)"/><ellipse class="cls-4" cx="201.36" cy="98.66" rx="0.1" ry="0.08" transform="translate(18.47 228.4) rotate(-61.45)"/><ellipse class="cls-4" cx="199.25" cy="102.53" rx="0.1" ry="0.08" transform="translate(13.97 228.57) rotate(-61.45)"/><ellipse class="cls-4" cx="197.59" cy="99.12" rx="0.1" ry="0.08" transform="translate(16.1 225.33) rotate(-61.45)"/><ellipse class="cls-4" cx="183.73" cy="106.14" rx="0.1" ry="0.08" transform="translate(2.69 216.82) rotate(-61.45)"/><ellipse class="cls-4" cx="184.04" cy="102.8" rx="0.1" ry="0.08" transform="translate(5.8 215.35) rotate(-61.45)"/><ellipse class="cls-4" cx="180.45" cy="103.86" rx="0.1" ry="0.08" transform="translate(2.99 212.75) rotate(-61.45)"/><ellipse class="cls-4" cx="188.16" cy="98.01" rx="0.1" ry="0.08" transform="translate(12.15 216.46) rotate(-61.45)"/><ellipse class="cls-4" cx="186.05" cy="101.88" rx="0.1" ry="0.08" transform="translate(7.65 216.63) rotate(-61.45)"/><ellipse class="cls-4" cx="184.39" cy="98.47" rx="0.1" ry="0.08" transform="translate(9.78 213.39) rotate(-61.45)"/><circle class="cls-4" cx="145.64" cy="97.98" r="0.5"/><circle class="cls-4" cx="133.46" cy="96.38" r="0.5"/><circle class="cls-4" cx="112.98" cy="106.33" r="0.5"/><circle class="cls-4" cx="151.33" cy="116.14" r="0.5"/><ellipse class="cls-4" cx="123.96" cy="112.05" rx="0.1" ry="0.08" transform="translate(-33.7 167.4) rotate(-61.45)"/><ellipse class="cls-4" cx="127.31" cy="112.36" rx="0.1" ry="0.08" transform="translate(-32.23 170.5) rotate(-61.45)"/><ellipse class="cls-4" cx="124.27" cy="108.71" rx="0.1" ry="0.08" transform="translate(-30.6 165.93) rotate(-61.45)"/><ellipse class="cls-4" cx="120.68" cy="109.77" rx="0.1" ry="0.08" transform="translate(-33.41 163.33) rotate(-61.45)"/><ellipse class="cls-4" cx="129.39" cy="115" rx="0.1" ry="0.08" transform="translate(-33.46 173.7) rotate(-61.45)"/><ellipse class="cls-4" cx="128.39" cy="103.91" rx="0.1" ry="0.08" transform="translate(-24.24 167.04) rotate(-61.45)"/><ellipse class="cls-4" cx="120.33" cy="108.57" rx="0.1" ry="0.08" transform="translate(-32.54 162.39) rotate(-61.45)"/><ellipse class="cls-4" cx="123.7" cy="102.37" rx="0.1" ry="0.08" transform="translate(-25.33 162.12) rotate(-61.45)"/><ellipse class="cls-4" cx="126.28" cy="107.79" rx="0.1" ry="0.08" transform="translate(-28.75 167.21) rotate(-61.45)"/><ellipse class="cls-4" cx="107.93" cy="101.82" rx="0.1" ry="0.08" transform="translate(-33.09 147.98) rotate(-61.45)"/><ellipse class="cls-4" cx="109.02" cy="104.43" rx="0.1" ry="0.08" transform="translate(-34.81 150.3) rotate(-61.45)"/><ellipse class="cls-4" cx="111.48" cy="101.75" rx="0.1" ry="0.08" transform="translate(-31.17 151.06) rotate(-61.45)"/><ellipse class="cls-4" cx="124.62" cy="104.37" rx="0.1" ry="0.08" transform="translate(-26.62 163.97) rotate(-61.45)"/><ellipse class="cls-4" cx="134.42" cy="117.74" rx="0.1" ry="0.08" transform="translate(-33.24 179.56) rotate(-61.45)"/><ellipse class="cls-4" cx="139.56" cy="117.53" rx="0.1" ry="0.08" transform="translate(-30.37 183.96) rotate(-61.45)"/><circle class="cls-4" cx="128.9" cy="108.46" r="0.5"/><circle class="cls-4" cx="96.77" cy="96.23" r="0.5"/><circle class="cls-4" cx="135.32" cy="88.24" r="0.5"/><circle class="cls-4" cx="119.1" cy="105.97" r="0.5"/><circle class="cls-4" cx="130.96" cy="78.96" r="0.5"/><circle class="cls-4" cx="108.2" cy="78.64" r="0.5"/><circle class="cls-4" cx="138.04" cy="104.65" r="0.5"/><circle class="cls-4" cx="114.12" cy="94.93" r="0.5"/><circle class="cls-4" cx="102.94" cy="96.35" r="0.5"/><circle class="cls-4" cx="92.78" cy="89.44" r="0.5"/><ellipse class="cls-4" cx="121.24" cy="92.88" rx="0.1" ry="0.08" transform="translate(-18.28 155) rotate(-61.45)"/><ellipse class="cls-4" cx="117.65" cy="93.94" rx="0.1" ry="0.08" transform="translate(-21.09 152.4) rotate(-61.45)"/><ellipse class="cls-4" cx="117.3" cy="92.74" rx="0.1" ry="0.08" transform="translate(-20.22 151.46) rotate(-61.45)"/><ellipse class="cls-4" cx="120.67" cy="86.54" rx="0.1" ry="0.08" transform="translate(-13.01 151.19) rotate(-61.45)"/><ellipse class="cls-4" cx="121.59" cy="88.55" rx="0.1" ry="0.08" transform="translate(-14.3 153.04) rotate(-61.45)"/><ellipse class="cls-4" cx="112.93" cy="87.85" rx="0.1" ry="0.08" transform="translate(-18.21 145.07) rotate(-61.45)"/><ellipse class="cls-4" cx="109.34" cy="88.91" rx="0.1" ry="0.08" transform="translate(-21.01 142.47) rotate(-61.45)"/><ellipse class="cls-4" cx="108.98" cy="87.71" rx="0.1" ry="0.08" transform="translate(-20.15 141.53) rotate(-61.45)"/><ellipse class="cls-4" cx="112.36" cy="81.51" rx="0.1" ry="0.08" transform="translate(-12.94 141.26) rotate(-61.45)"/><ellipse class="cls-4" cx="113.27" cy="83.52" rx="0.1" ry="0.08" transform="translate(-14.22 143.11) rotate(-61.45)"/><ellipse class="cls-4" cx="121.23" cy="93.12" rx="0.1" ry="0.08" transform="translate(-18.5 155.12) rotate(-61.45)"/><ellipse class="cls-4" cx="121.54" cy="89.78" rx="0.1" ry="0.08" transform="translate(-15.4 153.64) rotate(-61.45)"/><ellipse class="cls-4" cx="117.95" cy="90.84" rx="0.1" ry="0.08" transform="translate(-18.21 151.04) rotate(-61.45)"/><ellipse class="cls-4" cx="125.66" cy="84.98" rx="0.1" ry="0.08" transform="translate(-9.04 154.76) rotate(-61.45)"/><ellipse class="cls-4" cx="117.6" cy="89.64" rx="0.1" ry="0.08" transform="translate(-17.34 150.11) rotate(-61.45)"/><ellipse class="cls-4" cx="120.97" cy="83.44" rx="0.1" ry="0.08" transform="translate(-10.13 149.83) rotate(-61.45)"/><ellipse class="cls-4" cx="123.55" cy="88.86" rx="0.1" ry="0.08" transform="translate(-13.55 154.93) rotate(-61.45)"/><ellipse class="cls-4" cx="121.89" cy="85.45" rx="0.1" ry="0.08" transform="translate(-11.41 151.69) rotate(-61.45)"/><circle class="cls-4" cx="126.17" cy="89.53" r="0.5"/><circle class="cls-4" cx="116.37" cy="87.05" r="0.5"/><ellipse class="cls-4" cx="138.22" cy="97.96" rx="0.1" ry="0.08" transform="translate(-13.88 172.57) rotate(-61.45)"/><ellipse class="cls-4" cx="138.54" cy="94.62" rx="0.1" ry="0.08" transform="translate(-10.78 171.1) rotate(-61.45)"/><ellipse class="cls-4" cx="134.95" cy="95.68" rx="0.1" ry="0.08" transform="translate(-13.58 168.5) rotate(-61.45)"/><ellipse class="cls-4" cx="142.65" cy="89.82" rx="0.1" ry="0.08" transform="translate(-4.42 172.21) rotate(-61.45)"/><ellipse class="cls-4" cx="134.59" cy="94.48" rx="0.1" ry="0.08" transform="translate(-12.72 167.56) rotate(-61.45)"/><ellipse class="cls-4" cx="137.97" cy="88.28" rx="0.1" ry="0.08" transform="translate(-5.51 167.29) rotate(-61.45)"/><ellipse class="cls-4" cx="140.54" cy="93.7" rx="0.1" ry="0.08" transform="translate(-8.92 172.38) rotate(-61.45)"/><ellipse class="cls-4" cx="138.89" cy="90.28" rx="0.1" ry="0.08" transform="translate(-6.79 169.14) rotate(-61.45)"/><circle class="cls-4" cx="133.36" cy="91.88" r="0.5"/><ellipse class="cls-4" cx="136.54" cy="104.58" rx="0.1" ry="0.08" transform="translate(-20.57 174.55) rotate(-61.45)"/><ellipse class="cls-4" cx="136.86" cy="101.23" rx="0.1" ry="0.08" transform="translate(-17.47 173.08) rotate(-61.45)"/><ellipse class="cls-4" cx="133.27" cy="102.29" rx="0.1" ry="0.08" transform="translate(-20.28 170.48) rotate(-61.45)"/><ellipse class="cls-4" cx="140.97" cy="96.44" rx="0.1" ry="0.08" transform="translate(-11.11 174.19) rotate(-61.45)"/><ellipse class="cls-4" cx="138.86" cy="100.32" rx="0.1" ry="0.08" transform="translate(-15.62 174.36) rotate(-61.45)"/><ellipse class="cls-4" cx="137.2" cy="96.9" rx="0.1" ry="0.08" transform="translate(-13.48 171.12) rotate(-61.45)"/><ellipse class="cls-4" cx="123.34" cy="103.92" rx="0.1" ry="0.08" transform="translate(-26.89 162.61) rotate(-61.45)"/><ellipse class="cls-4" cx="123.65" cy="100.58" rx="0.1" ry="0.08" transform="translate(-23.79 161.14) rotate(-61.45)"/><ellipse class="cls-4" cx="120.06" cy="101.64" rx="0.1" ry="0.08" transform="translate(-26.59 158.54) rotate(-61.45)"/><ellipse class="cls-4" cx="127.77" cy="95.79" rx="0.1" ry="0.08" transform="translate(-17.43 162.25) rotate(-61.45)"/><ellipse class="cls-4" cx="125.66" cy="99.66" rx="0.1" ry="0.08" transform="translate(-21.94 162.42) rotate(-61.45)"/><ellipse class="cls-4" cx="124" cy="96.25" rx="0.1" ry="0.08" transform="translate(-19.8 159.18) rotate(-61.45)"/><circle class="cls-4" cx="156.64" cy="212.98" r="0.5"/><circle class="cls-4" cx="144.46" cy="211.38" r="0.5"/><circle class="cls-4" cx="123.98" cy="221.33" r="0.5"/><circle class="cls-4" cx="162.33" cy="231.14" r="0.5"/><ellipse class="cls-4" cx="134.96" cy="227.05" rx="0.1" ry="0.08" transform="translate(-128.98 237.11) rotate(-61.45)"/><ellipse class="cls-4" cx="138.31" cy="227.36" rx="0.1" ry="0.08" transform="translate(-127.51 240.21) rotate(-61.45)"/><ellipse class="cls-4" cx="135.27" cy="223.71" rx="0.1" ry="0.08" transform="translate(-125.88 235.63) rotate(-61.45)"/><ellipse class="cls-4" cx="131.68" cy="224.77" rx="0.1" ry="0.08" transform="translate(-128.69 233.04) rotate(-61.45)"/><ellipse class="cls-4" cx="140.39" cy="230" rx="0.1" ry="0.08" transform="translate(-128.74 243.41) rotate(-61.45)"/><ellipse class="cls-4" cx="139.39" cy="218.91" rx="0.1" ry="0.08" transform="translate(-119.52 236.75) rotate(-61.45)"/><ellipse class="cls-4" cx="131.33" cy="223.57" rx="0.1" ry="0.08" transform="translate(-127.82 232.1) rotate(-61.45)"/><ellipse class="cls-4" cx="134.7" cy="217.37" rx="0.1" ry="0.08" transform="translate(-120.61 231.83) rotate(-61.45)"/><ellipse class="cls-4" cx="137.28" cy="222.79" rx="0.1" ry="0.08" transform="translate(-124.03 236.92) rotate(-61.45)"/><ellipse class="cls-4" cx="118.93" cy="216.82" rx="0.1" ry="0.08" transform="translate(-128.37 217.68) rotate(-61.45)"/><ellipse class="cls-4" cx="120.02" cy="219.43" rx="0.1" ry="0.08" transform="translate(-130.08 220.01) rotate(-61.45)"/><ellipse class="cls-4" cx="122.48" cy="216.75" rx="0.1" ry="0.08" transform="translate(-126.45 220.77) rotate(-61.45)"/><ellipse class="cls-4" cx="135.62" cy="219.37" rx="0.1" ry="0.08" transform="translate(-121.89 233.68) rotate(-61.45)"/><ellipse class="cls-4" cx="145.42" cy="232.74" rx="0.1" ry="0.08" transform="translate(-128.52 249.27) rotate(-61.45)"/><ellipse class="cls-4" cx="150.56" cy="232.53" rx="0.1" ry="0.08" transform="translate(-125.64 253.67) rotate(-61.45)"/><circle class="cls-4" cx="139.9" cy="223.46" r="0.5"/><circle class="cls-4" cx="107.77" cy="211.23" r="0.5"/><circle class="cls-4" cx="146.32" cy="203.24" r="0.5"/><circle class="cls-4" cx="130.1" cy="220.97" r="0.5"/><circle class="cls-4" cx="141.96" cy="193.96" r="0.5"/><circle class="cls-4" cx="119.2" cy="193.64" r="0.5"/><circle class="cls-4" cx="149.04" cy="219.65" r="0.5"/><circle class="cls-4" cx="125.12" cy="209.93" r="0.5"/><circle class="cls-4" cx="113.94" cy="211.35" r="0.5"/><circle class="cls-4" cx="103.78" cy="204.44" r="0.5"/><ellipse class="cls-4" cx="132.24" cy="207.88" rx="0.1" ry="0.08" transform="translate(-113.56 224.71) rotate(-61.45)"/><ellipse class="cls-4" cx="128.65" cy="208.94" rx="0.1" ry="0.08" transform="translate(-116.36 222.11) rotate(-61.45)"/><ellipse class="cls-4" cx="128.3" cy="207.74" rx="0.1" ry="0.08" transform="translate(-115.5 221.17) rotate(-61.45)"/><ellipse class="cls-4" cx="131.67" cy="201.54" rx="0.1" ry="0.08" transform="translate(-108.29 220.9) rotate(-61.45)"/><ellipse class="cls-4" cx="132.59" cy="203.55" rx="0.1" ry="0.08" transform="translate(-109.57 222.75) rotate(-61.45)"/><ellipse class="cls-4" cx="123.93" cy="202.85" rx="0.1" ry="0.08" transform="translate(-113.48 214.78) rotate(-61.45)"/><ellipse class="cls-4" cx="120.34" cy="203.91" rx="0.1" ry="0.08" transform="translate(-116.29 212.18) rotate(-61.45)"/><ellipse class="cls-4" cx="119.98" cy="202.71" rx="0.1" ry="0.08" transform="translate(-115.42 211.24) rotate(-61.45)"/><ellipse class="cls-4" cx="123.36" cy="196.51" rx="0.1" ry="0.08" transform="translate(-108.22 210.97) rotate(-61.45)"/><ellipse class="cls-4" cx="124.27" cy="198.52" rx="0.1" ry="0.08" transform="translate(-109.5 212.82) rotate(-61.45)"/><ellipse class="cls-4" cx="132.23" cy="208.12" rx="0.1" ry="0.08" transform="translate(-113.78 224.82) rotate(-61.45)"/><ellipse class="cls-4" cx="132.54" cy="204.78" rx="0.1" ry="0.08" transform="translate(-110.68 223.35) rotate(-61.45)"/><ellipse class="cls-4" cx="128.95" cy="205.84" rx="0.1" ry="0.08" transform="translate(-113.48 220.75) rotate(-61.45)"/><ellipse class="cls-4" cx="136.66" cy="199.98" rx="0.1" ry="0.08" transform="translate(-104.32 224.46) rotate(-61.45)"/><ellipse class="cls-4" cx="128.6" cy="204.64" rx="0.1" ry="0.08" transform="translate(-112.62 219.82) rotate(-61.45)"/><ellipse class="cls-4" cx="131.97" cy="198.44" rx="0.1" ry="0.08" transform="translate(-105.41 219.54) rotate(-61.45)"/><ellipse class="cls-4" cx="134.55" cy="203.86" rx="0.1" ry="0.08" transform="translate(-108.82 224.64) rotate(-61.45)"/><ellipse class="cls-4" cx="132.89" cy="200.45" rx="0.1" ry="0.08" transform="translate(-106.69 221.4) rotate(-61.45)"/><circle class="cls-4" cx="137.17" cy="204.53" r="0.5"/><circle class="cls-4" cx="127.37" cy="202.05" r="0.5"/><ellipse class="cls-4" cx="149.22" cy="212.96" rx="0.1" ry="0.08" transform="translate(-109.16 242.28) rotate(-61.45)"/><ellipse class="cls-4" cx="149.54" cy="209.62" rx="0.1" ry="0.08" transform="translate(-106.05 240.81) rotate(-61.45)"/><ellipse class="cls-4" cx="145.95" cy="210.68" rx="0.1" ry="0.08" transform="translate(-108.86 238.21) rotate(-61.45)"/><ellipse class="cls-4" cx="153.65" cy="204.82" rx="0.1" ry="0.08" transform="translate(-99.7 241.92) rotate(-61.45)"/><ellipse class="cls-4" cx="145.59" cy="209.48" rx="0.1" ry="0.08" transform="translate(-107.99 237.27) rotate(-61.45)"/><ellipse class="cls-4" cx="148.97" cy="203.28" rx="0.1" ry="0.08" transform="translate(-100.79 237) rotate(-61.45)"/><ellipse class="cls-4" cx="151.54" cy="208.7" rx="0.1" ry="0.08" transform="translate(-104.2 242.09) rotate(-61.45)"/><ellipse class="cls-4" cx="149.89" cy="205.28" rx="0.1" ry="0.08" transform="translate(-102.07 238.85) rotate(-61.45)"/><circle class="cls-4" cx="144.36" cy="206.88" r="0.5"/><ellipse class="cls-4" cx="147.54" cy="219.58" rx="0.1" ry="0.08" transform="translate(-115.85 244.26) rotate(-61.45)"/><ellipse class="cls-4" cx="147.86" cy="216.23" rx="0.1" ry="0.08" transform="translate(-112.75 242.79) rotate(-61.45)"/><ellipse class="cls-4" cx="144.27" cy="217.29" rx="0.1" ry="0.08" transform="translate(-115.55 240.19) rotate(-61.45)"/><ellipse class="cls-4" cx="151.97" cy="211.44" rx="0.1" ry="0.08" transform="translate(-106.39 243.9) rotate(-61.45)"/><ellipse class="cls-4" cx="149.86" cy="215.32" rx="0.1" ry="0.08" transform="translate(-110.89 244.07) rotate(-61.45)"/><ellipse class="cls-4" cx="148.2" cy="211.9" rx="0.1" ry="0.08" transform="translate(-108.76 240.83) rotate(-61.45)"/><ellipse class="cls-4" cx="134.34" cy="218.92" rx="0.1" ry="0.08" transform="translate(-122.17 232.32) rotate(-61.45)"/><ellipse class="cls-4" cx="134.65" cy="215.58" rx="0.1" ry="0.08" transform="translate(-119.07 230.85) rotate(-61.45)"/><ellipse class="cls-4" cx="131.06" cy="216.64" rx="0.1" ry="0.08" transform="translate(-121.87 228.25) rotate(-61.45)"/><ellipse class="cls-4" cx="138.77" cy="210.79" rx="0.1" ry="0.08" transform="translate(-112.71 231.96) rotate(-61.45)"/><ellipse class="cls-4" cx="136.66" cy="214.66" rx="0.1" ry="0.08" transform="translate(-117.21 232.13) rotate(-61.45)"/><ellipse class="cls-4" cx="135" cy="211.25" rx="0.1" ry="0.08" transform="translate(-115.08 228.89) rotate(-61.45)"/><circle class="cls-4" cx="270.64" cy="182.98" r="0.5"/><circle class="cls-4" cx="258.46" cy="181.38" r="0.5"/><circle class="cls-4" cx="237.98" cy="191.33" r="0.5"/><circle class="cls-4" cx="276.33" cy="201.14" r="0.5"/><ellipse class="cls-4" cx="248.96" cy="197.05" rx="0.1" ry="0.08" transform="translate(-43.1 321.58) rotate(-61.45)"/><ellipse class="cls-4" cx="252.31" cy="197.36" rx="0.1" ry="0.08" transform="translate(-41.63 324.69) rotate(-61.45)"/><ellipse class="cls-4" cx="249.27" cy="193.71" rx="0.1" ry="0.08" transform="translate(-40 320.11) rotate(-61.45)"/><ellipse class="cls-4" cx="245.68" cy="194.77" rx="0.1" ry="0.08" transform="translate(-42.81 317.51) rotate(-61.45)"/><ellipse class="cls-4" cx="254.39" cy="200" rx="0.1" ry="0.08" transform="translate(-42.86 327.89) rotate(-61.45)"/><ellipse class="cls-4" cx="253.39" cy="188.91" rx="0.1" ry="0.08" transform="translate(-33.64 321.22) rotate(-61.45)"/><ellipse class="cls-4" cx="245.33" cy="193.57" rx="0.1" ry="0.08" transform="translate(-41.94 316.58) rotate(-61.45)"/><ellipse class="cls-4" cx="248.7" cy="187.37" rx="0.1" ry="0.08" transform="translate(-34.73 316.3) rotate(-61.45)"/><ellipse class="cls-4" cx="251.28" cy="192.79" rx="0.1" ry="0.08" transform="translate(-38.15 321.4) rotate(-61.45)"/><ellipse class="cls-4" cx="232.93" cy="186.82" rx="0.1" ry="0.08" transform="translate(-42.49 302.16) rotate(-61.45)"/><ellipse class="cls-4" cx="234.02" cy="189.43" rx="0.1" ry="0.08" transform="translate(-44.21 304.48) rotate(-61.45)"/><ellipse class="cls-4" cx="236.48" cy="186.75" rx="0.1" ry="0.08" transform="translate(-40.57 305.25) rotate(-61.45)"/><ellipse class="cls-4" cx="249.62" cy="189.37" rx="0.1" ry="0.08" transform="translate(-36.02 318.16) rotate(-61.45)"/><ellipse class="cls-4" cx="259.42" cy="202.74" rx="0.1" ry="0.08" transform="translate(-42.64 333.75) rotate(-61.45)"/><ellipse class="cls-4" cx="264.56" cy="202.53" rx="0.1" ry="0.08" transform="translate(-39.77 338.15) rotate(-61.45)"/><circle class="cls-4" cx="253.9" cy="193.46" r="0.5"/><circle class="cls-4" cx="221.77" cy="181.23" r="0.5"/><circle class="cls-4" cx="260.32" cy="173.24" r="0.5"/><circle class="cls-4" cx="244.1" cy="190.97" r="0.5"/><circle class="cls-4" cx="255.96" cy="163.96" r="0.5"/><circle class="cls-4" cx="233.2" cy="163.64" r="0.5"/><circle class="cls-4" cx="263.04" cy="189.65" r="0.5"/><circle class="cls-4" cx="239.12" cy="179.93" r="0.5"/><circle class="cls-4" cx="227.94" cy="181.35" r="0.5"/><circle class="cls-4" cx="217.78" cy="174.44" r="0.5"/><ellipse class="cls-4" cx="246.24" cy="177.88" rx="0.1" ry="0.08" transform="translate(-27.68 309.18) rotate(-61.45)"/><ellipse class="cls-4" cx="242.65" cy="178.94" rx="0.1" ry="0.08" transform="translate(-30.49 306.58) rotate(-61.45)"/><ellipse class="cls-4" cx="242.3" cy="177.74" rx="0.1" ry="0.08" transform="translate(-29.62 305.65) rotate(-61.45)"/><ellipse class="cls-4" cx="245.67" cy="171.54" rx="0.1" ry="0.08" transform="translate(-22.41 305.37) rotate(-61.45)"/><ellipse class="cls-4" cx="246.59" cy="173.55" rx="0.1" ry="0.08" transform="translate(-23.69 307.23) rotate(-61.45)"/><ellipse class="cls-4" cx="237.93" cy="172.85" rx="0.1" ry="0.08" transform="translate(-27.61 299.26) rotate(-61.45)"/><ellipse class="cls-4" cx="234.34" cy="173.91" rx="0.1" ry="0.08" transform="translate(-30.41 296.66) rotate(-61.45)"/><ellipse class="cls-4" cx="233.98" cy="172.71" rx="0.1" ry="0.08" transform="translate(-29.55 295.72) rotate(-61.45)"/><ellipse class="cls-4" cx="237.36" cy="166.51" rx="0.1" ry="0.08" transform="translate(-22.34 295.45) rotate(-61.45)"/><ellipse class="cls-4" cx="238.27" cy="168.52" rx="0.1" ry="0.08" transform="translate(-23.62 297.3) rotate(-61.45)"/><ellipse class="cls-4" cx="246.23" cy="178.12" rx="0.1" ry="0.08" transform="translate(-27.9 309.3) rotate(-61.45)"/><ellipse class="cls-4" cx="246.54" cy="174.78" rx="0.1" ry="0.08" transform="translate(-24.8 307.83) rotate(-61.45)"/><ellipse class="cls-4" cx="242.95" cy="175.84" rx="0.1" ry="0.08" transform="translate(-27.61 305.23) rotate(-61.45)"/><ellipse class="cls-4" cx="250.66" cy="169.98" rx="0.1" ry="0.08" transform="translate(-18.44 308.94) rotate(-61.45)"/><ellipse class="cls-4" cx="242.6" cy="174.64" rx="0.1" ry="0.08" transform="translate(-26.74 304.3) rotate(-61.45)"/><ellipse class="cls-4" cx="245.97" cy="168.44" rx="0.1" ry="0.08" transform="translate(-19.53 304.02) rotate(-61.45)"/><ellipse class="cls-4" cx="248.55" cy="173.86" rx="0.1" ry="0.08" transform="translate(-22.95 309.11) rotate(-61.45)"/><ellipse class="cls-4" cx="246.89" cy="170.45" rx="0.1" ry="0.08" transform="translate(-20.81 305.87) rotate(-61.45)"/><circle class="cls-4" cx="251.17" cy="174.53" r="0.5"/><circle class="cls-4" cx="241.37" cy="172.05" r="0.5"/><ellipse class="cls-4" cx="263.22" cy="182.96" rx="0.1" ry="0.08" transform="translate(-23.28 326.76) rotate(-61.45)"/><ellipse class="cls-4" cx="263.54" cy="179.62" rx="0.1" ry="0.08" transform="translate(-20.18 325.29) rotate(-61.45)"/><ellipse class="cls-4" cx="259.95" cy="180.68" rx="0.1" ry="0.08" transform="translate(-22.98 322.69) rotate(-61.45)"/><ellipse class="cls-4" cx="267.65" cy="174.82" rx="0.1" ry="0.08" transform="translate(-13.82 326.4) rotate(-61.45)"/><ellipse class="cls-4" cx="259.59" cy="179.48" rx="0.1" ry="0.08" transform="translate(-22.12 321.75) rotate(-61.45)"/><ellipse class="cls-4" cx="262.97" cy="173.28" rx="0.1" ry="0.08" transform="translate(-14.91 321.48) rotate(-61.45)"/><ellipse class="cls-4" cx="265.54" cy="178.7" rx="0.1" ry="0.08" transform="translate(-18.32 326.57) rotate(-61.45)"/><ellipse class="cls-4" cx="263.89" cy="175.28" rx="0.1" ry="0.08" transform="translate(-16.19 323.33) rotate(-61.45)"/><circle class="cls-4" cx="258.36" cy="176.88" r="0.5"/><ellipse class="cls-4" cx="261.54" cy="189.58" rx="0.1" ry="0.08" transform="translate(-29.97 328.74) rotate(-61.45)"/><ellipse class="cls-4" cx="261.86" cy="186.23" rx="0.1" ry="0.08" transform="translate(-26.87 327.26) rotate(-61.45)"/><ellipse class="cls-4" cx="258.27" cy="187.29" rx="0.1" ry="0.08" transform="translate(-29.67 324.66) rotate(-61.45)"/><ellipse class="cls-4" cx="265.97" cy="181.44" rx="0.1" ry="0.08" transform="translate(-20.51 328.38) rotate(-61.45)"/><ellipse class="cls-4" cx="263.86" cy="185.32" rx="0.1" ry="0.08" transform="translate(-25.02 328.55) rotate(-61.45)"/><ellipse class="cls-4" cx="262.2" cy="181.9" rx="0.1" ry="0.08" transform="translate(-22.88 325.31) rotate(-61.45)"/><ellipse class="cls-4" cx="248.34" cy="188.92" rx="0.1" ry="0.08" transform="translate(-36.29 316.8) rotate(-61.45)"/><ellipse class="cls-4" cx="248.65" cy="185.58" rx="0.1" ry="0.08" transform="translate(-33.19 315.32) rotate(-61.45)"/><ellipse class="cls-4" cx="245.06" cy="186.64" rx="0.1" ry="0.08" transform="translate(-35.99 312.72) rotate(-61.45)"/><ellipse class="cls-4" cx="252.77" cy="180.79" rx="0.1" ry="0.08" transform="translate(-26.83 316.44) rotate(-61.45)"/><ellipse class="cls-4" cx="250.66" cy="184.66" rx="0.1" ry="0.08" transform="translate(-31.34 316.61) rotate(-61.45)"/><ellipse class="cls-4" cx="249" cy="181.25" rx="0.1" ry="0.08" transform="translate(-29.2 313.37) rotate(-61.45)"/><circle class="cls-4" cx="291.54" cy="134.19" r="0.5"/><circle class="cls-4" cx="279.36" cy="132.59" r="0.5"/><circle class="cls-4" cx="258.88" cy="142.54" r="0.5"/><circle class="cls-4" cx="297.23" cy="152.35" r="0.5"/><ellipse class="cls-4" cx="269.86" cy="148.26" rx="0.1" ry="0.08" transform="translate(10.67 314.47) rotate(-61.45)"/><ellipse class="cls-4" cx="273.2" cy="148.57" rx="0.1" ry="0.08" transform="translate(12.14 317.57) rotate(-61.45)"/><ellipse class="cls-4" cx="270.17" cy="144.92" rx="0.1" ry="0.08" transform="translate(13.77 312.99) rotate(-61.45)"/><ellipse class="cls-4" cx="266.58" cy="145.98" rx="0.1" ry="0.08" transform="translate(10.96 310.39) rotate(-61.45)"/><ellipse class="cls-4" cx="275.28" cy="151.21" rx="0.1" ry="0.08" transform="translate(10.91 320.77) rotate(-61.45)"/><ellipse class="cls-4" cx="274.28" cy="140.12" rx="0.1" ry="0.08" transform="translate(20.13 314.11) rotate(-61.45)"/><ellipse class="cls-4" cx="266.23" cy="144.78" rx="0.1" ry="0.08" transform="translate(11.83 309.46) rotate(-61.45)"/><ellipse class="cls-4" cx="269.6" cy="138.58" rx="0.1" ry="0.08" transform="translate(19.04 309.18) rotate(-61.45)"/><ellipse class="cls-4" cx="272.18" cy="144" rx="0.1" ry="0.08" transform="translate(15.62 314.28) rotate(-61.45)"/><ellipse class="cls-4" cx="253.83" cy="138.03" rx="0.1" ry="0.08" transform="translate(11.28 295.04) rotate(-61.45)"/><ellipse class="cls-4" cx="254.92" cy="140.64" rx="0.1" ry="0.08" transform="translate(9.56 297.36) rotate(-61.45)"/><ellipse class="cls-4" cx="257.38" cy="137.96" rx="0.1" ry="0.08" transform="translate(13.2 298.13) rotate(-61.45)"/><ellipse class="cls-4" cx="270.52" cy="140.59" rx="0.1" ry="0.08" transform="translate(17.75 311.04) rotate(-61.45)"/><ellipse class="cls-4" cx="280.32" cy="153.95" rx="0.1" ry="0.08" transform="translate(11.13 326.63) rotate(-61.45)"/><ellipse class="cls-4" cx="285.46" cy="153.74" rx="0.1" ry="0.08" transform="translate(14 331.03) rotate(-61.45)"/><circle class="cls-4" cx="274.79" cy="144.67" r="0.5"/><circle class="cls-4" cx="242.67" cy="132.44" r="0.5"/><circle class="cls-4" cx="281.22" cy="124.45" r="0.5"/><circle class="cls-4" cx="264.99" cy="142.19" r="0.5"/><circle class="cls-4" cx="276.86" cy="115.17" r="0.5"/><circle class="cls-4" cx="254.09" cy="114.85" r="0.5"/><circle class="cls-4" cx="283.94" cy="140.86" r="0.5"/><circle class="cls-4" cx="260.02" cy="131.14" r="0.5"/><circle class="cls-4" cx="248.84" cy="132.56" r="0.5"/><circle class="cls-4" cx="238.68" cy="125.65" r="0.5"/><ellipse class="cls-4" cx="267.14" cy="129.09" rx="0.1" ry="0.08" transform="translate(26.09 302.07) rotate(-61.45)"/><ellipse class="cls-4" cx="263.55" cy="130.15" rx="0.1" ry="0.08" transform="translate(23.28 299.47) rotate(-61.45)"/><ellipse class="cls-4" cx="263.19" cy="128.95" rx="0.1" ry="0.08" transform="translate(24.15 298.53) rotate(-61.45)"/><ellipse class="cls-4" cx="266.57" cy="122.75" rx="0.1" ry="0.08" transform="translate(31.36 298.26) rotate(-61.45)"/><ellipse class="cls-4" cx="267.49" cy="124.76" rx="0.1" ry="0.08" transform="translate(30.07 300.11) rotate(-61.45)"/><ellipse class="cls-4" cx="258.82" cy="124.06" rx="0.1" ry="0.08" transform="translate(26.16 292.14) rotate(-61.45)"/><ellipse class="cls-4" cx="255.23" cy="125.12" rx="0.1" ry="0.08" transform="translate(23.36 289.54) rotate(-61.45)"/><ellipse class="cls-4" cx="254.88" cy="123.93" rx="0.1" ry="0.08" transform="translate(24.22 288.6) rotate(-61.45)"/><ellipse class="cls-4" cx="258.25" cy="117.72" rx="0.1" ry="0.08" transform="translate(31.43 288.33) rotate(-61.45)"/><ellipse class="cls-4" cx="259.17" cy="119.73" rx="0.1" ry="0.08" transform="translate(30.15 290.18) rotate(-61.45)"/><ellipse class="cls-4" cx="267.13" cy="129.33" rx="0.1" ry="0.08" transform="translate(25.87 302.18) rotate(-61.45)"/><ellipse class="cls-4" cx="267.44" cy="125.99" rx="0.1" ry="0.08" transform="translate(28.97 300.71) rotate(-61.45)"/><ellipse class="cls-4" cx="263.85" cy="127.05" rx="0.1" ry="0.08" transform="translate(26.16 298.11) rotate(-61.45)"/><ellipse class="cls-4" cx="271.55" cy="121.19" rx="0.1" ry="0.08" transform="translate(35.33 301.82) rotate(-61.45)"/><ellipse class="cls-4" cx="263.5" cy="125.85" rx="0.1" ry="0.08" transform="translate(27.03 297.18) rotate(-61.45)"/><ellipse class="cls-4" cx="266.87" cy="119.65" rx="0.1" ry="0.08" transform="translate(34.24 296.9) rotate(-61.45)"/><ellipse class="cls-4" cx="269.45" cy="125.07" rx="0.1" ry="0.08" transform="translate(30.82 302) rotate(-61.45)"/><ellipse class="cls-4" cx="267.79" cy="121.66" rx="0.1" ry="0.08" transform="translate(32.96 298.76) rotate(-61.45)"/><circle class="cls-4" cx="272.06" cy="125.74" r="0.5"/><circle class="cls-4" cx="262.26" cy="123.26" r="0.5"/><ellipse class="cls-4" cx="284.12" cy="134.17" rx="0.1" ry="0.08" transform="translate(30.49 319.64) rotate(-61.45)"/><ellipse class="cls-4" cx="284.44" cy="130.83" rx="0.1" ry="0.08" transform="translate(33.59 318.17) rotate(-61.45)"/><ellipse class="cls-4" cx="280.85" cy="131.89" rx="0.1" ry="0.08" transform="translate(30.79 315.57) rotate(-61.45)"/><ellipse class="cls-4" cx="288.55" cy="126.03" rx="0.1" ry="0.08" transform="translate(39.95 319.28) rotate(-61.45)"/><ellipse class="cls-4" cx="280.49" cy="130.69" rx="0.1" ry="0.08" transform="translate(31.65 314.63) rotate(-61.45)"/><ellipse class="cls-4" cx="283.86" cy="124.49" rx="0.1" ry="0.08" transform="translate(38.86 314.36) rotate(-61.45)"/><ellipse class="cls-4" cx="286.44" cy="129.91" rx="0.1" ry="0.08" transform="translate(35.45 319.45) rotate(-61.45)"/><ellipse class="cls-4" cx="284.78" cy="126.5" rx="0.1" ry="0.08" transform="translate(37.58 316.21) rotate(-61.45)"/><circle class="cls-4" cx="279.26" cy="128.1" r="0.5"/><ellipse class="cls-4" cx="282.44" cy="140.79" rx="0.1" ry="0.08" transform="translate(23.8 321.62) rotate(-61.45)"/><ellipse class="cls-4" cx="282.75" cy="137.44" rx="0.1" ry="0.08" transform="translate(26.9 320.15) rotate(-61.45)"/><ellipse class="cls-4" cx="279.16" cy="138.5" rx="0.1" ry="0.08" transform="translate(24.1 317.55) rotate(-61.45)"/><ellipse class="cls-4" cx="286.87" cy="132.65" rx="0.1" ry="0.08" transform="translate(33.26 321.26) rotate(-61.45)"/><ellipse class="cls-4" cx="284.76" cy="136.53" rx="0.1" ry="0.08" transform="translate(28.75 321.43) rotate(-61.45)"/><ellipse class="cls-4" cx="283.1" cy="133.11" rx="0.1" ry="0.08" transform="translate(30.89 318.19) rotate(-61.45)"/><ellipse class="cls-4" cx="269.24" cy="140.14" rx="0.1" ry="0.08" transform="translate(17.48 309.68) rotate(-61.45)"/><ellipse class="cls-4" cx="269.55" cy="136.79" rx="0.1" ry="0.08" transform="translate(20.58 308.21) rotate(-61.45)"/><ellipse class="cls-4" cx="265.96" cy="137.85" rx="0.1" ry="0.08" transform="translate(17.78 305.61) rotate(-61.45)"/><ellipse class="cls-4" cx="273.66" cy="132" rx="0.1" ry="0.08" transform="translate(26.94 309.32) rotate(-61.45)"/><ellipse class="cls-4" cx="271.56" cy="135.87" rx="0.1" ry="0.08" transform="translate(22.43 309.49) rotate(-61.45)"/><ellipse class="cls-4" cx="269.9" cy="132.46" rx="0.1" ry="0.08" transform="translate(24.57 306.25) rotate(-61.45)"/><circle class="cls-4" cx="222.54" cy="215.19" r="0.5"/><circle class="cls-4" cx="210.36" cy="213.59" r="0.5"/><circle class="cls-4" cx="189.88" cy="223.54" r="0.5"/><circle class="cls-4" cx="228.23" cy="233.35" r="0.5"/><ellipse class="cls-4" cx="200.86" cy="229.26" rx="0.1" ry="0.08" transform="translate(-96.52 296.15) rotate(-61.45)"/><ellipse class="cls-4" cx="204.2" cy="229.57" rx="0.1" ry="0.08" transform="translate(-95.04 299.25) rotate(-61.45)"/><ellipse class="cls-4" cx="201.17" cy="225.92" rx="0.1" ry="0.08" transform="translate(-93.41 294.68) rotate(-61.45)"/><ellipse class="cls-4" cx="197.58" cy="226.98" rx="0.1" ry="0.08" transform="translate(-96.22 292.08) rotate(-61.45)"/><ellipse class="cls-4" cx="206.28" cy="232.21" rx="0.1" ry="0.08" transform="translate(-96.28 302.45) rotate(-61.45)"/><ellipse class="cls-4" cx="205.28" cy="221.12" rx="0.1" ry="0.08" transform="translate(-87.06 295.79) rotate(-61.45)"/><ellipse class="cls-4" cx="197.23" cy="225.78" rx="0.1" ry="0.08" transform="translate(-95.35 291.14) rotate(-61.45)"/><ellipse class="cls-4" cx="200.6" cy="219.58" rx="0.1" ry="0.08" transform="translate(-88.15 290.87) rotate(-61.45)"/><ellipse class="cls-4" cx="203.18" cy="225" rx="0.1" ry="0.08" transform="translate(-91.56 295.96) rotate(-61.45)"/><ellipse class="cls-4" cx="184.83" cy="219.03" rx="0.1" ry="0.08" transform="translate(-95.9 276.73) rotate(-61.45)"/><ellipse class="cls-4" cx="185.92" cy="221.64" rx="0.1" ry="0.08" transform="translate(-97.62 279.05) rotate(-61.45)"/><ellipse class="cls-4" cx="188.38" cy="218.96" rx="0.1" ry="0.08" transform="translate(-93.98 279.81) rotate(-61.45)"/><ellipse class="cls-4" cx="201.52" cy="221.59" rx="0.1" ry="0.08" transform="translate(-89.43 292.72) rotate(-61.45)"/><ellipse class="cls-4" cx="211.32" cy="234.95" rx="0.1" ry="0.08" transform="translate(-96.05 308.31) rotate(-61.45)"/><ellipse class="cls-4" cx="216.46" cy="234.74" rx="0.1" ry="0.08" transform="translate(-93.18 312.71) rotate(-61.45)"/><circle class="cls-4" cx="205.79" cy="225.67" r="0.5"/><circle class="cls-4" cx="173.67" cy="213.44" r="0.5"/><circle class="cls-4" cx="212.22" cy="205.45" r="0.5"/><circle class="cls-4" cx="195.99" cy="223.19" r="0.5"/><circle class="cls-4" cx="207.86" cy="196.17" r="0.5"/><circle class="cls-4" cx="185.09" cy="195.85" r="0.5"/><circle class="cls-4" cx="214.94" cy="221.86" r="0.5"/><circle class="cls-4" cx="191.02" cy="212.14" r="0.5"/><circle class="cls-4" cx="179.84" cy="213.56" r="0.5"/><circle class="cls-4" cx="169.68" cy="206.65" r="0.5"/><ellipse class="cls-4" cx="198.14" cy="210.09" rx="0.1" ry="0.08" transform="translate(-81.09 283.75) rotate(-61.45)"/><ellipse class="cls-4" cx="194.55" cy="211.15" rx="0.1" ry="0.08" transform="translate(-83.9 281.15) rotate(-61.45)"/><ellipse class="cls-4" cx="194.19" cy="209.95" rx="0.1" ry="0.08" transform="translate(-83.03 280.21) rotate(-61.45)"/><ellipse class="cls-4" cx="197.57" cy="203.75" rx="0.1" ry="0.08" transform="translate(-75.82 279.94) rotate(-61.45)"/><ellipse class="cls-4" cx="198.49" cy="205.76" rx="0.1" ry="0.08" transform="translate(-77.11 281.79) rotate(-61.45)"/><ellipse class="cls-4" cx="189.82" cy="205.06" rx="0.1" ry="0.08" transform="translate(-81.02 273.82) rotate(-61.45)"/><ellipse class="cls-4" cx="186.23" cy="206.12" rx="0.1" ry="0.08" transform="translate(-83.82 271.22) rotate(-61.45)"/><ellipse class="cls-4" cx="185.88" cy="204.93" rx="0.1" ry="0.08" transform="translate(-82.96 270.28) rotate(-61.45)"/><ellipse class="cls-4" cx="189.25" cy="198.72" rx="0.1" ry="0.08" transform="translate(-75.75 270.01) rotate(-61.45)"/><ellipse class="cls-4" cx="190.17" cy="200.73" rx="0.1" ry="0.08" transform="translate(-77.03 271.86) rotate(-61.45)"/><ellipse class="cls-4" cx="198.13" cy="210.33" rx="0.1" ry="0.08" transform="translate(-81.31 283.87) rotate(-61.45)"/><ellipse class="cls-4" cx="198.44" cy="206.99" rx="0.1" ry="0.08" transform="translate(-78.21 282.39) rotate(-61.45)"/><ellipse class="cls-4" cx="194.85" cy="208.05" rx="0.1" ry="0.08" transform="translate(-81.02 279.79) rotate(-61.45)"/><ellipse class="cls-4" cx="202.55" cy="202.19" rx="0.1" ry="0.08" transform="translate(-71.85 283.51) rotate(-61.45)"/><ellipse class="cls-4" cx="194.5" cy="206.85" rx="0.1" ry="0.08" transform="translate(-80.15 278.86) rotate(-61.45)"/><ellipse class="cls-4" cx="197.87" cy="200.65" rx="0.1" ry="0.08" transform="translate(-72.94 278.58) rotate(-61.45)"/><ellipse class="cls-4" cx="200.45" cy="206.07" rx="0.1" ry="0.08" transform="translate(-76.36 283.68) rotate(-61.45)"/><ellipse class="cls-4" cx="198.79" cy="202.66" rx="0.1" ry="0.08" transform="translate(-74.23 280.44) rotate(-61.45)"/><circle class="cls-4" cx="203.06" cy="206.74" r="0.5"/><circle class="cls-4" cx="193.26" cy="204.26" r="0.5"/><ellipse class="cls-4" cx="215.12" cy="215.17" rx="0.1" ry="0.08" transform="translate(-76.69 301.32) rotate(-61.45)"/><ellipse class="cls-4" cx="215.44" cy="211.83" rx="0.1" ry="0.08" transform="translate(-73.59 299.85) rotate(-61.45)"/><ellipse class="cls-4" cx="211.85" cy="212.89" rx="0.1" ry="0.08" transform="translate(-76.39 297.25) rotate(-61.45)"/><ellipse class="cls-4" cx="219.55" cy="207.03" rx="0.1" ry="0.08" transform="translate(-67.23 300.96) rotate(-61.45)"/><ellipse class="cls-4" cx="211.49" cy="211.69" rx="0.1" ry="0.08" transform="translate(-75.53 296.31) rotate(-61.45)"/><ellipse class="cls-4" cx="214.86" cy="205.49" rx="0.1" ry="0.08" transform="translate(-68.32 296.04) rotate(-61.45)"/><ellipse class="cls-4" cx="217.44" cy="210.91" rx="0.1" ry="0.08" transform="translate(-71.73 301.13) rotate(-61.45)"/><ellipse class="cls-4" cx="215.78" cy="207.5" rx="0.1" ry="0.08" transform="translate(-69.6 297.89) rotate(-61.45)"/><circle class="cls-4" cx="210.26" cy="209.1" r="0.5"/><ellipse class="cls-4" cx="213.44" cy="221.79" rx="0.1" ry="0.08" transform="translate(-83.38 303.3) rotate(-61.45)"/><ellipse class="cls-4" cx="213.75" cy="218.44" rx="0.1" ry="0.08" transform="translate(-80.28 301.83) rotate(-61.45)"/><ellipse class="cls-4" cx="210.16" cy="219.5" rx="0.1" ry="0.08" transform="translate(-83.09 299.23) rotate(-61.45)"/><ellipse class="cls-4" cx="217.87" cy="213.65" rx="0.1" ry="0.08" transform="translate(-73.92 302.94) rotate(-61.45)"/><ellipse class="cls-4" cx="215.76" cy="217.53" rx="0.1" ry="0.08" transform="translate(-78.43 303.11) rotate(-61.45)"/><ellipse class="cls-4" cx="214.1" cy="214.11" rx="0.1" ry="0.08" transform="translate(-76.29 299.87) rotate(-61.45)"/><ellipse class="cls-4" cx="200.24" cy="221.14" rx="0.1" ry="0.08" transform="translate(-89.7 291.36) rotate(-61.45)"/><ellipse class="cls-4" cx="200.55" cy="217.79" rx="0.1" ry="0.08" transform="translate(-86.6 289.89) rotate(-61.45)"/><ellipse class="cls-4" cx="196.96" cy="218.85" rx="0.1" ry="0.08" transform="translate(-89.41 287.29) rotate(-61.45)"/><ellipse class="cls-4" cx="204.66" cy="213" rx="0.1" ry="0.08" transform="translate(-80.24 291) rotate(-61.45)"/><ellipse class="cls-4" cx="202.56" cy="216.87" rx="0.1" ry="0.08" transform="translate(-84.75 291.17) rotate(-61.45)"/><ellipse class="cls-4" cx="200.9" cy="213.46" rx="0.1" ry="0.08" transform="translate(-82.61 287.93) rotate(-61.45)"/><path class="cls-5" d="M290.85,85.82c-.21,1.52-1.36,2.54-3.21,3.94-4.33,3.26-6.5,4.89-9.51,6A28,28,0,0,1,261,96.6c-4.69-1.32-7.77-3.61-10.9-5.95a38.85,38.85,0,0,1-7.63-7.54c-2.08-2.71-5.08-6.63-3.8-9,.5-.94,1.42-1.17,2.72-1.72,4.4-1.88,6.08-4.48,8.4-6.27,6.54-5,17.38-3,18.69-2.79s11.49,2.25,16,9.41c1.51,2.42,1.38,3.85,4,7.9C290,82.79,291.09,84.08,290.85,85.82Z"/><path class="cls-6" d="M290,85.7c0-.08.05-.28,0-.25l-.11.32Z"/><path class="cls-6" d="M289.63,85a1.1,1.1,0,0,0-.23.72c.12-.31.13-.17.27-.53.08,0,.11.12.08.24,0-.08.1.09.18-.11s-.18-.29-.34-.1A.4.4,0,0,1,289.63,85Z"/><path class="cls-6" d="M282.21,84.46l.05,0A.05.05,0,0,0,282.21,84.46Z"/><path class="cls-6" d="M277.68,84.2a.06.06,0,0,0,.05-.06S277.67,84.17,277.68,84.2Z"/><path class="cls-6" d="M276.93,83.78l.05,0S277,83.76,276.93,83.78Z"/><path class="cls-6" d="M282.21,84.46l-.12-.1C282.08,84.46,282.15,84.43,282.21,84.46Z"/><path class="cls-6" d="M288.55,85.7a.19.19,0,0,0,.07-.08l-.06,0Z"/><path class="cls-6" d="M284.22,84.1h0s0-.08,0-.13Z"/><path class="cls-6" d="M285.79,84s0,.27-.05.4c0-.12,0-.18.07-.2A1.91,1.91,0,0,0,285.79,84Z"/><path class="cls-6" d="M288.29,84.54l0,0Z"/><path class="cls-6" d="M283.11,84.09a.58.58,0,0,1,0-.1A.3.3,0,0,0,283.11,84.09Z"/><path class="cls-6" d="M240.54,77.3v0S240.53,77.29,240.54,77.3Z"/><polygon class="cls-6" points="239.01 75.61 239.04 75.6 239.07 75.45 239.01 75.61"/><path class="cls-6" d="M275.57,83.3h0S275.59,83.28,275.57,83.3Z"/><path class="cls-6" d="M262.85,80.85c.07.28-.32.24-.18.57C262.68,81.31,263,81.06,262.85,80.85Z"/><path class="cls-6" d="M288.51,85.66s0,0-.06,0S288.5,85.67,288.51,85.66Z"/><path class="cls-6" d="M262.67,81.42h0v0Z"/><path class="cls-6" d="M272.34,83a.37.37,0,0,0,0,.12A.32.32,0,0,0,272.34,83Z"/><path class="cls-6" d="M274.68,83.76l-.05,0Z"/><path class="cls-6" d="M271,83.19s0-.07-.08,0,0,0,0,0S271,83.14,271,83.19Z"/><path class="cls-6" d="M269.74,82.93l0,.06h0Z"/><path class="cls-6" d="M244.46,78a1.13,1.13,0,0,1,0-.26C244.43,77.93,244.23,78,244.46,78Z"/><path class="cls-6" d="M288.56,85.55c0,.07,0,.1-.05.11h.05A.33.33,0,0,0,288.56,85.55Z"/><path class="cls-6" d="M270.57,85.36l-.21-.08A.49.49,0,0,0,270.57,85.36Z"/><path class="cls-6" d="M253.61,80.49l-.06,0S253.59,80.52,253.61,80.49Z"/><path class="cls-6" d="M269.73,85.2a.6.6,0,0,0-.08-.22.43.43,0,0,0,0,.07Z"/><path class="cls-6" d="M244.46,77.72h0Z"/><path class="cls-6" d="M243,78.07c.19.05.17-.33.26-.53.25-.05.05.29.08.49.17-.06.36-.37.46-.33a.21.21,0,0,1,0,.15c.22-.25.46.09.72-.22v.09a2.24,2.24,0,0,1,.09-.5c.09,0,.22-.18.19.06-.05,0-.08.07-.12.14l.12-.08c0,.36-.15.09-.21.34.2-.07.47-.3.59-.17-.05.34-.35,0-.24.37l-.18-.18c0,.57-.12-.06-.1.53.25.16.35-.09.6.07.11-.16.05-.27.15-.44.48-.23.11.91.5.54.13-.2.27-.61.42-.34l-.17.35c.26.11.29-.49.51-.17-.09.13-.24.07-.21.12.1.34.18-.18.32-.14l-.06.33c.3,0,.68-.12,1-.1,0,.1-.13.19-.08.31a1.55,1.55,0,0,1,1.16.57l.23-.25a.16.16,0,0,1,0,.19c.12.15.06-.17.16-.26s.07.19,0,.26c.33-.17.9-.3,1.09.08l-.08.07c.18.18.41-.51.54-.19l-.06,0c.44.26,1,.15,1.26.68.19-.38.41.32.61-.23.18.36.08.44.4.74.09.06.25-.31.4-.33l-.09.3.26-.26,0,.38.14,0a.26.26,0,0,1,0-.25c.22-.08.38.34.34.49l.5-.12c0,.12-.13.14-.21.2.33-.23,0,.32.25.11,0-.08.06-.17.09-.23A.42.42,0,0,0,255,81l-.1.2a8.27,8.27,0,0,0,1.06.22c-.1-.13,0-.48.16-.48l-.06.32c.13-.17-.07-.15.14-.34.12.08,0,.38-.12.46l.19-.06a1.13,1.13,0,0,1-.12.25c.13-.17.19.4.39.09l0,.1c.36.11.55,0,.85.13.09-.27.19-.18.34-.37.19.15.37.44.63.49s.12-.21.25-.34c-.06.25.21.3,0,.44a2,2,0,0,0,.87,0c0-.12-.05-.17,0-.25s.13.15.09.27l0,0c.55-.24.82,1,1.32.6l0,0,.44-.16c.16.09-.15.16-.07.35.51-.3.61.24,1,.06.05.8.92.2,1.14.76l0-.18c.13-.15.08.13.13.18,0-.13-.05-.18,0-.26.81,0,1.48.68,2.23,1,.28.12.39-.85.64-.35l-.18.3c.67-.25,1.18.31,1.83.1-.05.07-.08.16-.13.15.06.26.44.11.48-.09.09,0,0,.18,0,.29s.37-.23.38,0c0,0-.05.07-.07.09s.36.1.34-.18c.19.17.43,0,.57.16.17-.28.34.22.46-.2-.11.45.3.43.48.25-.07.12.09.16,0,.33a.26.26,0,0,0,.33-.27c.2.59.66-.32.7.39A5.91,5.91,0,0,1,273,85.2c-.09.44-.47,0-.52.43.42-.11.71-.47,1.08-.31.1.08-.08.19-.13.26.43-.13.77.14,1.15-.06,0,0,0,.08-.09.11s.16.09.17-.11l-.07,0c-.08-.31.35-.58.38-.73-.19.56.33.19.06.9a.3.3,0,0,0,.12-.26c.06,0,.08.13,0,.28.26-.08.2-.31.42-.27,0,.09-.06.13-.09.24.13-.18.26-.36.45-.26,0,.06,0,.13-.06.13.33,0,.6-.47.95-.26-.14.42.11.15.1.53l.2-.1-.06-.19c.17,0,.34-.24.47-.1l-.13.14.32,0-.17-.15c.18-.18,0-.48.23-.35,0,0,.17,0,.24.24h0c.09-.11.18-.23.3-.13a3.58,3.58,0,0,1,0,.49c.1-.3.41-.08.53-.4a.72.72,0,0,0,0,.31l.08-.25c.07.08.08.12.07.27.23.06-.06-.47.21-.26,0,0,0,.06-.06.09.28.12.55-.15.8,0,.08.38-.22.09-.14.41.38-.06.78-.44,1.14-.34l-.07,0c.05-.53.27.27.45,0a.51.51,0,0,0,0,.23c.25.08.51-.14.87-.32l0,.14c.15.12.39.06.55.11,0-.13.13-.12.07-.31.51.75.9-.46,1.35.17,0,0-.12.13-.08.12l.36-.14c0-.23-.05-.13-.14-.31s.14-.25.23-.25c-.16.16,0,.37.09.49,0-.07,0-.15,0-.22.21.41,0-.46.28-.2v.13c.1-.07.18-.23.29-.2,0,.26-.1.13-.1.35.15,0,.27-.52.41-.26-.06.08-.15.08-.21.16.16.31.17.23.28.27h0l.25.13-.07-.08c.17-.7.37-.13.61-.6-.23.44,0,.26-.05.56.06.08.16.18.13.26.11-.24.19.19.35-.16,0,.09.12,0,.1.25.14-.08,0-.17,0-.29.23-.33.53.4.86,0,.29-.18.36-.5.64-.65.08.16-.09.35-.09.35.13.16.24.13.39,0,0,.09,0,.16,0,.27s.1-.34.23-.19a1.74,1.74,0,0,1-.14.38c.13-.07.27-.25.41-.32,0,.17-.1.25-.16.35.16-.06.39-.11.47-.37l-.08-.1c.06,0,0,.23,0,.27-.15.2-.17-.11-.17-.21l.1,0c0-.58-.39,0-.58,0l.12-.41-.23.33c0-.11,0-.34.06-.4-.13-.21-.14.14-.24-.1a.08.08,0,0,1,0-.07l-.15.12c0-.09,0-.3.08-.23-.24-.26-.42.29-.49,0l0,0c-.35.13-.05.31-.31.66l-.16-.76,0,.3s-.1,0-.09-.15c-.13.2,0,.13-.06.33-.16-.29-.46.12-.5-.36-.06.23.16.17,0,.34-.05-.53-.21.09-.36-.15,0-.27.19-.13,0-.37-.09.45-.31-.1-.44,0,0,.36-.28.16-.5.29,0-.13-.42-.19-.62-.31v-.07c0,.37-.24.31-.39.39a.58.58,0,0,1,.1-.41h-.14a.31.31,0,0,1-.16.23l0-.27c-.19,0-.37.33-.62.16,0,.26.22.71,0,.89,0-.14,0-.38,0-.44s-.07.12-.12.07l.09-.24c-.11-.1-.05.2-.14.18,0-.2-.07-.14-.06-.3s.08.08.11,0a.44.44,0,0,1-.27-.29c0,.11,0,.27-.06.3s-.08-.24-.19-.34c0,.14-.17,0-.16.3-.06,0-.07-.14-.1-.21-.09.13-.45,0-.33.36l0,0h0c-.31.31-.67-.14-1,0v-.1c-.18.12-.42.07-.55.28-.06,0-.13-.18-.11-.3-.14.07-.16.18-.37,0,.15-.17-.05-.16.15-.13-.19-.09-.23-.25-.43,0,.07-.25-.14-.32-.23-.25l.13.19a.53.53,0,0,1-.28,0l.06-.34c-.37-.41-.71.68-1,0-.12.23.2.17.09.44-.17,0-.33-.53-.39-.54-.22-.2-.24.47-.49.33,0,.12,0,.44-.16.53s-.18-.51-.07-.6.06,0,.06.08.14-.09.08-.22l0,.12c-.08-.13-.33-.14-.26-.33-.14.11-.07.19,0,.26-.21-.19-.35,0-.57-.16,0,.06,0,.21,0,.2-.32-.17-.16.22-.4.25-.12-.19.08-.43-.16-.29-.13-.14,0-.32.06-.41-.23.21-.38-.18-.49-.23l.12-.09a.22.22,0,0,1-.18,0l0,.24c-.06,0-.12,0-.1-.15-.09.15,0,.4-.15.6-.07-.13-.28.09-.27-.22.26.14,0-.32.24-.34a.14.14,0,0,1-.17,0,.1.1,0,0,1,0-.08c-.23-.31-.16.34-.43.3.06-.17,0-.34-.07-.31.11,0,0,.3-.1.42-.15-.16-.2.08-.29.05l.1.08c-.06.17-.14.14-.27.18,0-.14.12-.08.09-.15-.18.29-.27-.36-.48-.18-.07-.13,0-.33,0-.42-.24.2-.19-.27-.44-.11,0,.25.05.19-.14.4l.39-.12-.28.32c.11,0,.25-.12.31-.07-.14.17-.12.12-.09.32-.1-.37-.33.17-.47-.09l.09-.59c-.22-.29-.5.23-.82,0l.09.12c-.08.22-.21,0-.33.07a.87.87,0,0,0,0-.41c0,.15-.25,0-.34.33l-.11-.28c-.25-.15-.41.5-.66.39.12-.2,0-.36.23-.48-.09,0-.16-.07-.19.07,0-.13-.29.22-.33,0,0,.08-.11.28-.2.25a.31.31,0,0,1,0-.1c0,.1-.18.1-.14.33-.15-.65-.76-.11-.88-.68a2.71,2.71,0,0,1-.63,0c0-.06,0-.1.05-.07-.19-.23-.26.52-.49.26-.07-.34.18-.13.12-.27.1-.64-.34,0-.44-.39l.05,0c-.09-.25-.39.17-.61.07a.19.19,0,0,0,0-.1,1.08,1.08,0,0,1-.78.36c.12-.23.13-.11.15-.37-.11,0-.07.41-.28.43a1.12,1.12,0,0,1-.1-.57l.19,0c0-.37-.24,0-.32-.13l.05-.15c-.3,0-.4.36-.69.26v.12c-.26.33-.08-.25-.32,0l0-.39a2.43,2.43,0,0,1-.69.29,2.15,2.15,0,0,1,.63-.47c-.11,0-.37-.06-.48.11.06,0,.14-.11.16,0q-.31.4-.63.3c.23-.73-.51-.34-.51-1-.46.17-.72-.32-1.17-.4,0,.62-.13,0-.27.58-.12,0-.15,0-.15,0l-.21-.44c0-.2.13-.11.16-.24-.21-.11,0-.28-.13-.48,0,.22-.16.28-.26.16l.1.33c-.4.22-.13-.57-.53-.36l.15-.15c-.19.06-.6-.18-.89.25,0-.08,0-.25.08-.27-.36-.19-1,.25-1.22-.13L260,80c-.09,0-.21.23-.25.06s.07-.13,0-.15-.27.19-.34.08l.13-.14c-.32-.3-.7.22-1,.22a.69.69,0,0,0-.26-.76l0,0c-.43-.19-.86.12-1.31.16-.12-.54-.8-.45-1.13-.83,0,.09-.11.32-.2.34s-.35.21-.22-.17l0,0c0-.4-.19-.36-.34-.42l-.18.5c-.17-.86-1.13,0-1.15-.77-.14.09-.26.06-.39.15l.09-.27a1.48,1.48,0,0,0-.73-.26l.13-.17c-.18-.07-.47.71-.65.67l.07-.42c-.33-.09-.56-.54-1-.26,0-.06.06-.18.12-.18-.15,0-.52-.45-.62.13.1-.37-.33-.14-.55,0l.1-.26c-.25.3-.28.39-.51.43,0,0,0-.23.06-.14-.12-.19-.2.21-.36,0l.12-.15c-.16-.06-.17,0-.32.21s-.31-.16-.27-.41c-.06.14-.21.31-.29.22a.22.22,0,0,1,.09-.17c-.24-.26-.51.2-.63-.12a.34.34,0,0,0,0-.17c.22.07.4.13.38.15.07-.25-.11-.34.13-.65-.2.15-.56.49-.71.32v-.09l0,0s-.08,0-.12,0a.36.36,0,0,0-.13-.12c0-.21-.18-.17-.27-.2-.07.27-.17.2-.12.45,0,0,0,0,.09,0l0,0v0l.23,0c-.11.12-.21.21-.27,0l-.25.41c0-.42-.21-.69-.18-.93-.32.08-.69-.06-1,.4-.1,0,0-.16-.06-.25s.11,0,.15-.09c-.19.09-.48-.06-.61.28-.16-.21.19-.3-.1-.31l.07-.1c-.41-.7-1.1.69-1.54-.18,0,.06.05.08,0,.15-.62-.48-1.49,0-2.07-.67-.17-.15-.24.08-.39.23v-.3l-.27.3c-.33.2-.36-.81-.82-.4v.21c-.12-.07-.43,0-.37-.19,0,0-.08.2-.12.09l0-.16-.37.21c-.23-.15.14-.61-.22-.7-.15,0-.46.38-.43.49a.28.28,0,0,1,.11.28l-.14.06c-.1.46-.26.91,0,1.29l.25-.25,0,.24-.18,0c.07.23.16,0,.25-.06a.44.44,0,0,0,.05.26l.28-.4c0,.18-.16.34,0,.46.13-.18,0-.42.16-.52.07.22,0,.39.16.23a.36.36,0,0,1-.1.24c.13-.13.28,0,.38-.25.06.28.37,0,.28.43,0-.1.24-.31.34-.31-.27.49.35.09.2.64.22-.45.5-.12.78-.33,0,0-.06.11-.07.08s.13.21.19.32c.1-.38.31-.42.47-.64.08.41-.19.43-.21.8.05-.31.33-.25.34-.52a.8.8,0,0,1,.07.46c.12-.47.13-.06.29-.33.12.27,0,.46.17.35C243.18,77.94,243,78.07,243,78.07Zm4.72.29h0Zm.38.1-.16,0c0-.1.05-.19.09-.18S248,78.37,248.07,78.46Zm-.3-2.1c.07,0,.08,0,.07.1h-.11l0,0A.81.81,0,0,1,247.77,76.36Z"/><path class="cls-6" d="M247.57,76.69h0a.14.14,0,0,0,0,.07l0-.08Z"/><path class="cls-6" d="M282.27,84.5h0s0,0,0,0Z"/><polygon class="cls-6" points="253.15 80.5 253.17 80.43 253.12 80.48 253.15 80.5"/><path class="cls-6" d="M284.48,85.37l0,.07A.17.17,0,0,0,284.48,85.37Z"/><path class="cls-6" d="M285.42,85.4l.13.1A.76.76,0,0,0,285.42,85.4Z"/><path class="cls-6" d="M286.14,85.53s0-.09,0-.12h0Z"/><path class="cls-6" d="M274.5,85.63h0C274.4,85.69,274.45,85.67,274.5,85.63Z"/><path class="cls-6" d="M278,85.3a.45.45,0,0,1-.12.12C278,85.45,278,85.46,278,85.3Z"/><polygon class="cls-6" points="270.59 85.37 270.59 85.36 270.57 85.36 270.59 85.37"/><path class="cls-6" d="M277.74,85.41a.1.1,0,0,0,.16,0S277.8,85.37,277.74,85.41Z"/><path class="cls-6" d="M289.16,85.79l0,0a.07.07,0,0,1,0,0Z"/><path class="cls-6" d="M289.2,85.76l0,0S289.21,85.73,289.2,85.76Z"/><path class="cls-6" d="M289.32,85.67l-.08.06S289.3,85.75,289.32,85.67Z"/><path class="cls-6" d="M288.26,85.58l0,.1A.84.84,0,0,1,288.26,85.58Z"/><path class="cls-6" d="M288,85.59c.07,0,.16.23.25.17l0-.08C288.19,85.83,288.05,85.42,288,85.59Z"/><path class="cls-6" d="M286.8,84.29l.25.09c0-.11-.1-.26,0-.28C286.76,83.77,287.13,84.34,286.8,84.29Z"/><path class="cls-6" d="M286,84.14c.14,0,0-.16,0-.22C286,84,285.93,84.05,286,84.14Z"/><path class="cls-6" d="M280.57,84.3l0-.26C280.49,84.08,280.59,84.14,280.57,84.3Z"/><polygon class="cls-6" points="279.52 85.6 279.61 85.76 279.67 85.53 279.52 85.6"/><polygon class="cls-6" points="278.95 83.77 279 83.74 278.83 83.83 278.95 83.77"/><path class="cls-6" d="M270,82.74l0,.31C270.07,83,270.15,82.67,270,82.74Z"/><path class="cls-6" d="M266.13,82.17c0-.16-.09-.29-.19-.15C266,82.06,266.07,82.2,266.13,82.17Z"/><polygon class="cls-6" points="254.89 78.38 255 78.3 254.83 78.34 254.89 78.38"/><path class="cls-7" d="M248.88,85.15c.73,6.45-11.92,15.67-24.49,15.67s-25.2-9.22-24.49-15.67c.28-2.58,2.8-4.33,7.84-7.84,6.78-4.73,12.82-9.9,16.65-7.84,1.64.88,1,2,2.94,3.92,3.73,3.6,8.13,1.47,13.71,3.92C243.7,78.47,248.47,81.48,248.88,85.15Z"/><path class="cls-8" d="M265.65,114.67c-1.33,5.45-14.36,9.16-24.56,5.4s-17.71-15-15.2-20c1-2,3.57-2.68,8.71-4,6.91-1.81,13.36-4.21,15.86-1.39,1.06,1.21.18,1.93,1.21,4.06,2,4,6.16,3.63,10,7.28C263.44,107.7,266.41,111.57,265.65,114.67Z"/></g></svg>