<svg xmlns="http://www.w3.org/2000/svg" xmlns:xlink="http://www.w3.org/1999/xlink" width="320" height="320" viewBox="0 0 320 320"><defs><style>.cls-1{fill:url(#radial-gradient);}.cls-2{fill:url(#radial-gradient-2);}.cls-3{fill:url(#radial-gradient-3);}.cls-4{fill:#f2d897;}.cls-5{fill:#fffdf9;}.cls-6{fill:#efddac;}</style><radialGradient id="radial-gradient" cx="160" cy="160" r="147.88" gradientUnits="userSpaceOnUse"><stop offset="0" stop-color="#fffdf9"/><stop offset="0.84" stop-color="#efddac"/><stop offset="0.89" stop-color="#f0dfb1"/><stop offset="0.95" stop-color="#f3e6c0"/><stop offset="1" stop-color="#f7eed2"/></radialGradient><radialGradient id="radial-gradient-2" cx="922.51" cy="-3228.6" r="115.82" gradientTransform="matrix(0.98, 0.52, -0.5, 0.94, -2353.11, 2698.26)" xlink:href="#radial-gradient"/><radialGradient id="radial-gradient-3" cx="732.43" cy="-4216.7" r="106.2" gradientTransform="matrix(0.95, 0.67, -0.69, 0.96, -3406.94, 3706.02)" xlink:href="#radial-gradient"/></defs><g id="Layer_2" data-name="Layer 2"><path class="cls-1" d="M310.07,155.36c.24,31.55-12.85,56.42-21.61,70a15.38,15.38,0,0,1-1.39,10c-1.13,2.08-2,2.29-7,7-5.66,5.33-5.93,6.37-8,7-1.51.46-5.2,1.08-11-3l-17.88,26.18a24.09,24.09,0,0,0-4.12,3.82c-2.43,2.84-2.81,4.65-4,6-1.64,1.84-5.23,3.31-14,1.31q-4.33,2.19-8.68,4.37a77.55,77.55,0,0,1-8.32,8.32c-5.63,4.81-9.38,8-14,9-9.89,2.07-19.15-7.1-21-9a44.94,44.94,0,0,1-9,0,46.29,46.29,0,0,1-20-7l-49-18c-6.7-4.48-12.19-7.79-16-10-5.55-3.22-9.53-5.26-12-10a17.89,17.89,0,0,1-1.93-6.79q-4.68-5.69-9.37-11.38a61.06,61.06,0,0,1-9.7-7.83c-4.11-4.06-12.08-12-14-23-.78-4.45,0-5.94,1-15a200.67,200.67,0,0,0,1-27c-.67-1.67-1.34-3.33-2-5a12.14,12.14,0,0,1-9,2,11.74,11.74,0,0,1-9-9c-.88-4.72,2.78-6,5-13,3.59-11.32-2.6-18.75,2-23,3.36-3.11,8.6-.92,10-4,1.05-2.33-1.76-4-2-8-.3-4.81,3.47-7.09,8-14,2.7-4.13,1.35-3.32,7-15,7.25-15,9.49-16.38,11-17S57.83,52,67,58.09c11-10.67,48.79-44.71,102.08-43.73C244,15.73,309.51,85.58,310.07,155.36Z"/><path class="cls-2" d="M272.72,207.4c-23,43.65-74.8,68.71-128.94,61.84a41.55,41.55,0,0,1-20.53-1.82c-8.66-3.18-13.76-8.7-17.6-12.72-21.79-22.82-23.63-19.08-32.82-31-6.29-8.14-18.13-26.34-21-57.1-3.8,5.29-8.32,8.21-11.42,7.13-2.73-1-3.54-4.72-4.67-10.4-.93-4.61-2.09-13.28.16-25.94a93.34,93.34,0,0,1,3-12c-2.85-6.63-2.14-10.61-1-13,2.17-4.67,6.13-3.78,9.62-9.62,2.58-4.31,3.07-9.22,3.44-12.89a49.1,49.1,0,0,0,.15-6.71,55.22,55.22,0,0,1,3.6-19.6,17.36,17.36,0,0,0,7.27-5.19c2.43-3,2.34-5.25,3.75-7.07,1.89-2.45,6.67-4.4,19.93-1.19C88.35,48.46,155,8.56,218,42.62,273.77,72.78,303.79,148.56,272.72,207.4Z"/><path class="cls-3" d="M277,215.69c-29.15,41-83.14,60.61-134.42,48.2A38.65,38.65,0,0,1,123,260c-7.88-4-11.94-10.07-15-14.45-17.49-24.95-19.86-21.41-26.88-34.17-4.8-8.74-13.4-28.06-11.3-58.93-4.51,4.87-9.33,7.31-12.16,5.91-2.49-1.23-2.68-5.06-2.89-10.82-.17-4.68.06-13.42,4.23-25.77a101.63,101.63,0,0,1,4.75-11.64c-1.71-6.88-.4-10.77,1-13,2.83-4.42,6.52-3.13,10.82-8.57C78.78,84.48,80,79.64,81,76a53.45,53.45,0,0,0,1.21-6.65,58.51,58.51,0,0,1,6.55-19.11,18.27,18.27,0,0,0,7.86-4.42c2.82-2.75,3.08-5,4.73-6.64,2.21-2.24,7.14-3.68,19.46.87,2.91-1.41,73.63-34.21,129.2,6.14C299.16,82,316.3,160.39,277,215.69Z"/><path class="cls-4" d="M135.64,126.67l123-101c18.31,33.18,12.13,74.19-14,99C215.61,152.24,168.24,153.82,135.64,126.67Z"/><path class="cls-5" d="M139.17,123l56.32-46.71,58.42-48.47c16.3,30.4,12.46,68.11-10.73,90.32C216.19,144,171,146.75,139.17,123Z"/><path class="cls-6" d="M145.07,121.36l44-38-21,48a33.48,33.48,0,0,1-23-10Z"/><path class="cls-6" d="M194.07,80.36q-11.5,25.5-23,51a29.29,29.29,0,0,0,24,3Q194.56,107.36,194.07,80.36Z"/><path class="cls-6" d="M195.94,78.42l3.36,55.84a29.26,29.26,0,0,0,22.64-8.5Z"/><path class="cls-6" d="M197.78,77.1q14.24,24.09,28.46,48.17a51.68,51.68,0,0,0,17.83-15.91Z"/><path class="cls-6" d="M252.42,30.18,208.73,68.54l50.44-14.2a33.52,33.52,0,0,0-6.75-24.16Z"/><path class="cls-6" d="M205.08,73.08l53.67-15.77a29.32,29.32,0,0,1-.32,24.18Z"/><path class="cls-6" d="M202.89,74.66l54.86,11a29.36,29.36,0,0,1-11.54,21.26Z"/></g></svg>