<svg xmlns="http://www.w3.org/2000/svg" xmlns:xlink="http://www.w3.org/1999/xlink" width="320" height="320" viewBox="0 0 320 320"><defs><style>.cls-1{fill:url(#radial-gradient);}.cls-2{fill:url(#radial-gradient-2);}.cls-3{fill:url(#radial-gradient-3);}.cls-4{fill:#ea5788;}.cls-5{fill:url(#linear-gradient);}.cls-6{fill:url(#linear-gradient-2);}.cls-7{fill:#72aa9a;}.cls-8{fill:url(#radial-gradient-4);}.cls-9{fill:#f4caa6;}</style><radialGradient id="radial-gradient" cx="160" cy="162.52" r="147.88" gradientUnits="userSpaceOnUse"><stop offset="0" stop-color="#f9d2e3"/><stop offset="0.83" stop-color="#f291ba"/><stop offset="1" stop-color="#f7bcd5"/></radialGradient><radialGradient id="radial-gradient-2" cx="1065.6" cy="-2887.81" r="115.82" gradientTransform="matrix(0.98, 0.52, -0.5, 0.94, -2324.15, 2306.59)" gradientUnits="userSpaceOnUse"><stop offset="0" stop-color="#f9d0e2"/><stop offset="0.91" stop-color="#f291ba"/><stop offset="0.94" stop-color="#f39bc1"/><stop offset="0.99" stop-color="#f6b7d2"/><stop offset="1" stop-color="#f7bdd6"/></radialGradient><radialGradient id="radial-gradient-3" cx="944.9" cy="-3833.66" r="106.2" gradientTransform="matrix(0.95, 0.67, -0.69, 0.96, -3345.55, 3197.01)" gradientUnits="userSpaceOnUse"><stop offset="0" stop-color="#fcd8e8"/><stop offset="0.84" stop-color="#f5a4c6"/><stop offset="0.92" stop-color="#f6a9c9"/><stop offset="1" stop-color="#f7b6d2"/></radialGradient><linearGradient id="linear-gradient" x1="-102.58" y1="304.99" x2="-62.69" y2="333.98" gradientTransform="translate(263.75 -240.43) rotate(-3.33)" gradientUnits="userSpaceOnUse"><stop offset="0" stop-color="#fffdf9"/><stop offset="1" stop-color="#ec6895"/></linearGradient><linearGradient id="linear-gradient-2" x1="182.86" y1="67.95" x2="195.14" y2="76.87" gradientUnits="userSpaceOnUse"><stop offset="0" stop-color="#fcd8e8"/><stop offset="1" stop-color="#ec6895"/></linearGradient><radialGradient id="radial-gradient-4" cx="-2800.13" cy="1674.96" fy="1693.618274483894" r="55.77" gradientTransform="translate(1782.63 -2768.59) rotate(-31.04)" gradientUnits="userSpaceOnUse"><stop offset="0" stop-color="#f4abc6"/><stop offset="0.77" stop-color="#ea5788"/><stop offset="0.81" stop-color="#ee79a1"/><stop offset="0.87" stop-color="#f29aba"/><stop offset="0.92" stop-color="#f5b2cc"/><stop offset="0.96" stop-color="#f6c0d6"/><stop offset="1" stop-color="#f7c5da"/></radialGradient></defs><g id="Layer_2" data-name="Layer 2"><path class="cls-1" d="M310.07,157.88c.24,31.55-12.85,56.42-21.61,70a15.36,15.36,0,0,1-1.39,10c-1.13,2.08-2,2.29-7,7-5.66,5.33-5.93,6.37-8,7-1.51.46-5.2,1.08-11-3l-17.88,26.18a24.09,24.09,0,0,0-4.12,3.82c-2.43,2.84-2.81,4.66-4,6-1.64,1.84-5.23,3.31-14,1.31q-4.33,2.19-8.68,4.37a75.75,75.75,0,0,1-8.32,8.32c-5.63,4.81-9.38,8-14,9-9.89,2.07-19.15-7.09-21-9a44.94,44.94,0,0,1-9,0,46.29,46.29,0,0,1-20-7l-49-18c-6.7-4.48-12.19-7.79-16-10-5.55-3.22-9.53-5.26-12-10a17.89,17.89,0,0,1-1.93-6.79l-9.37-11.37a61.81,61.81,0,0,1-9.7-7.84c-4.11-4.06-12.08-11.95-14-23-.78-4.45,0-5.94,1-15a200.67,200.67,0,0,0,1-27c-.67-1.67-1.34-3.33-2-5a12.09,12.09,0,0,1-9,2,11.74,11.74,0,0,1-9-9c-.88-4.72,2.78-6,5-13,3.59-11.31-2.6-18.75,2-23,3.36-3.11,8.6-.92,10-4,1.05-2.33-1.76-4-2-8-.3-4.81,3.47-7.09,8-14,2.7-4.13,1.35-3.32,7-15,7.25-15,9.49-16.38,11-17S57.83,54.55,67,60.61C78,49.94,115.78,15.9,169.07,16.88,244,18.25,309.51,88.1,310.07,157.88Z"/><path class="cls-2" d="M272.72,209.92c-23,43.65-74.8,68.71-128.94,61.84a41.55,41.55,0,0,1-20.53-1.82c-8.66-3.18-13.76-8.7-17.6-12.72-21.79-22.82-23.63-19.08-32.82-31-6.29-8.14-18.13-26.34-21-57.1-3.8,5.29-8.32,8.22-11.42,7.13-2.73-.95-3.54-4.72-4.67-10.4-.93-4.61-2.09-13.28.16-25.94a93.34,93.34,0,0,1,3-12c-2.85-6.63-2.14-10.61-1-13,2.17-4.67,6.13-3.78,9.62-9.62,2.58-4.31,3.07-9.22,3.44-12.89a49.1,49.1,0,0,0,.15-6.71,55.14,55.14,0,0,1,3.6-19.59,17.49,17.49,0,0,0,7.27-5.2c2.43-3,2.34-5.25,3.75-7.07,1.89-2.45,6.67-4.4,19.93-1.19C88.35,51,155,11.08,218,45.14,273.77,75.3,303.79,151.08,272.72,209.92Z"/><path class="cls-3" d="M277,218.22c-29.15,41-83.14,60.6-134.42,48.19A38.65,38.65,0,0,1,123,262.48c-7.88-4.05-11.94-10.07-15-14.45-17.49-24.94-19.86-21.41-26.88-34.17-4.8-8.74-13.4-28.06-11.3-58.93-4.51,4.87-9.33,7.31-12.16,5.91-2.49-1.22-2.68-5.06-2.89-10.82-.17-4.68.06-13.42,4.23-25.77a100.61,100.61,0,0,1,4.75-11.63c-1.71-6.89-.4-10.78,1-13,2.83-4.42,6.52-3.13,10.82-8.57C78.78,87,80,82.16,81,78.55a53.45,53.45,0,0,0,1.21-6.65,58.51,58.51,0,0,1,6.55-19.11,18.27,18.27,0,0,0,7.86-4.42c2.82-2.75,3.08-5,4.73-6.64,2.21-2.24,7.14-3.68,19.46.87,2.91-1.41,73.63-34.21,129.2,6.14C299.16,84.48,316.3,162.91,277,218.22Z"/><path class="cls-4" d="M143.44,131l72.3-117.4c20.37,4.51,34.58,18.74,34.95,32.62.4,14.77-14.89,28.9-16.42,30.34-9.15,8.67-12.52,6.44-24.76,15.59-10.34,7.73-20.75,22.29-28.28,28.86C174.88,126.58,163.86,132.13,143.44,131Z"/><path class="cls-5" d="M143.16,130.65l72.33-117.4c18.43,4.63,31.8,17.17,32.81,30.74,1,13.83-11.05,25.26-16.42,30.34-9.15,8.66-12.52,6.44-24.77,15.59-15.85,11.85-15.17,20.6-28.27,28.86A81.51,81.51,0,0,1,143.16,130.65Z"/><path class="cls-6" d="M208.31,32.93c.39-.39,4.53,1.38,6.53,5,3,5.45,0,13.19-4.29,17.38-.36.35,0,0-4.84,3.64-5.12,3.88-6.89,5.36-8.64,6.95a33.42,33.42,0,0,0-4.42,4.67c-3.87,5.13-3.8,8-6,12a33.1,33.1,0,0,1-3.41,4.84c-8.11,10.41-23,18.87-23.21,18.56s11-6.51,18.09-17a37.3,37.3,0,0,0,3-4.84c2.21-4.54,2.17-7.7,5.55-12.71,4.4-6.55,6.13-3.62,13.63-12.22C209.13,49,213.61,44,213.11,40,212.58,35.72,207.9,33.36,208.31,32.93Z"/><path class="cls-7" d="M215.07,13.88c.08.55,1.61.63,3,1,1.64.44,2.76,1.29,5,3a32.73,32.73,0,0,1,6,6l-3-5.55a10.81,10.81,0,0,0,1.45,1.23,11.06,11.06,0,0,0,2.55,1.32,45.29,45.29,0,0,0,9,2,15.86,15.86,0,0,0-4-3c-2.33-1.21-4-1.3-4-2s2.29-1.72,4-2a9.55,9.55,0,0,1,3,0,32.54,32.54,0,0,0-8-2,22.59,22.59,0,0,1-6-1,13.69,13.69,0,0,0-3-1,8.07,8.07,0,0,0-5,1C215.59,13.17,215,13.52,215.07,13.88Z"/><path class="cls-8" d="M256.66,157.73c-8.41-1.11-12.58-7.69-19.94-15.22-13.7-14-17.46-9.86-24.43-19.88-2-2.86-10.41-14.95-7.38-30.16a36.12,36.12,0,0,1,59-20.74c14.5,12.13,13.32,31.29,13,35.82-.53,8.68-3.1,7.06-5.3,21.33-2.33,15.08-.68,24.09-6.55,27.76C262.15,158.46,258.87,158,256.66,157.73Z"/><ellipse class="cls-9" cx="210.54" cy="112.21" rx="0.83" ry="0.99" transform="translate(-27.71 124.62) rotate(-31.04)"/><ellipse class="cls-9" cx="264.53" cy="116.52" rx="0.38" ry="0.45" transform="translate(-22.2 153.07) rotate(-31.04)"/><ellipse class="cls-9" cx="248.42" cy="118.78" rx="0.38" ry="0.45" transform="translate(-25.68 145.09) rotate(-31.04)"/><ellipse class="cls-9" cx="239.56" cy="79.53" rx="0.38" ry="0.45" transform="translate(-6.71 134.9) rotate(-31.04)"/><ellipse class="cls-9" cx="255.87" cy="100.83" rx="0.38" ry="0.45" transform="translate(-15.35 146.36) rotate(-31.04)"/><ellipse class="cls-9" cx="255.99" cy="113.29" rx="0.38" ry="0.45" transform="translate(-21.76 148.21) rotate(-31.04)"/><ellipse class="cls-9" cx="245.8" cy="127.32" rx="0.38" ry="0.45" transform="translate(-30.46 144.96) rotate(-31.04)"/><ellipse class="cls-9" cx="234.2" cy="87.4" rx="0.38" ry="0.45" transform="translate(-11.53 133.26) rotate(-31.04)"/><ellipse class="cls-9" cx="234.26" cy="106.86" rx="0.38" ry="0.45" transform="translate(-21.56 136.08) rotate(-31.04)"/><ellipse class="cls-9" cx="254.55" cy="84.44" rx="0.38" ry="0.45" transform="translate(-7.09 143.33) rotate(-31.04)"/><ellipse class="cls-9" cx="247.57" cy="110.23" rx="0.06" ry="0.09" transform="translate(-21.39 143.43) rotate(-31.04)"/><ellipse class="cls-9" cx="242.16" cy="101.88" rx="0.06" ry="0.09" transform="translate(-17.86 139.44) rotate(-31.04)"/><ellipse class="cls-9" cx="243.8" cy="104.61" rx="0.06" ry="0.09" transform="translate(-19.03 140.68) rotate(-31.04)"/><ellipse class="cls-9" cx="243.54" cy="99.66" rx="0.06" ry="0.09" transform="translate(-16.52 139.83) rotate(-31.04)"/><ellipse class="cls-9" cx="239.87" cy="100.01" rx="0.06" ry="0.09" transform="matrix(0.86, -0.52, 0.52, 0.86, -17.22, 137.99)"/><ellipse class="cls-9" cx="239.39" cy="103.08" rx="0.06" ry="0.09" transform="matrix(0.86, -0.52, 0.52, 0.86, -18.88, 138.18)"/><ellipse class="cls-9" cx="245.44" cy="107.33" rx="0.06" ry="0.09" transform="translate(-20.2 141.91) rotate(-31.04)"/><ellipse class="cls-9" cx="246.15" cy="99.48" rx="0.06" ry="0.09" transform="translate(-16.05 141.15) rotate(-31.04)"/><ellipse class="cls-9" cx="237.85" cy="94.72" rx="0.06" ry="0.09" transform="translate(-14.78 136.19) rotate(-31.04)"/><ellipse class="cls-9" cx="238.41" cy="102.74" rx="0.06" ry="0.09" transform="translate(-18.84 137.63) rotate(-31.04)"/><ellipse class="cls-9" cx="237.43" cy="114.02" rx="0.06" ry="0.09" transform="translate(-24.79 138.74) rotate(-31.04)"/><ellipse class="cls-9" cx="235.12" cy="97.29" rx="0.06" ry="0.09" transform="matrix(0.86, -0.52, 0.52, 0.86, -16.5, 135.16)"/><ellipse class="cls-9" cx="239.9" cy="98.13" rx="0.06" ry="0.09" transform="translate(-16.25 137.74) rotate(-31.04)"/><ellipse class="cls-9" cx="229.29" cy="108.23" rx="0.06" ry="0.09" transform="translate(-22.98 133.71) rotate(-31.04)"/><ellipse class="cls-9" cx="231.53" cy="108.74" rx="0.06" ry="0.09" transform="translate(-22.92 134.94) rotate(-31.04)"/><ellipse class="cls-9" cx="230.46" cy="105.67" rx="0.06" ry="0.09" transform="translate(-21.49 133.95) rotate(-31.04)"/><ellipse class="cls-9" cx="236.88" cy="97.62" rx="0.06" ry="0.09" transform="translate(-16.42 136.11) rotate(-31.04)"/><ellipse class="cls-9" cx="237.16" cy="109.06" rx="0.06" ry="0.09" transform="translate(-22.28 137.89) rotate(-31.04)"/><ellipse class="cls-9" cx="249.86" cy="97.25" rx="0.06" ry="0.09" transform="translate(-14.37 142.75) rotate(-31.04)"/><ellipse class="cls-9" cx="253.03" cy="108.34" rx="0.06" ry="0.09" transform="translate(-19.63 145.97) rotate(-31.04)"/><ellipse class="cls-9" cx="251.47" cy="93.49" rx="0.06" ry="0.09" transform="translate(-12.2 143.04) rotate(-31.04)"/><ellipse class="cls-9" cx="246.89" cy="101.35" rx="0.06" ry="0.09" transform="translate(-16.91 141.81) rotate(-31.04)"/><ellipse class="cls-9" cx="241.6" cy="106.16" rx="0.38" ry="0.45" transform="translate(-20.15 139.77) rotate(-31.04)"/><ellipse class="cls-9" cx="241.29" cy="96.6" rx="0.38" ry="0.45" transform="translate(-15.26 138.24) rotate(-31.04)"/><ellipse class="cls-9" cx="230.94" cy="99.01" rx="0.83" ry="0.99" transform="translate(-17.98 133.25) rotate(-31.04)"/><ellipse class="cls-9" cx="246.79" cy="91.79" rx="0.83" ry="0.99" transform="translate(-11.99 140.39) rotate(-31.04)"/><ellipse class="cls-9" cx="241.81" cy="113.83" rx="0.83" ry="0.99" transform="translate(-24.07 140.97) rotate(-31.04)"/><ellipse class="cls-9" cx="237.91" cy="119.52" rx="0.38" ry="0.45" transform="translate(-27.56 139.77) rotate(-31.04)"/><ellipse class="cls-9" cx="221.42" cy="113.4" rx="0.38" ry="0.45" transform="translate(-26.77 130.4) rotate(-31.04)"/><ellipse class="cls-9" cx="229" cy="82.06" rx="0.38" ry="0.45" transform="translate(-9.52 129.82) rotate(-31.04)"/><ellipse class="cls-9" cx="236.12" cy="102.34" rx="0.38" ry="0.45" transform="matrix(0.86, -0.52, 0.52, 0.86, -18.96, 136.39)"/><ellipse class="cls-9" cx="231.02" cy="112.64" rx="0.38" ry="0.45" transform="translate(-25 135.24) rotate(-31.04)"/><ellipse class="cls-9" cx="215.31" cy="119.13" rx="0.38" ry="0.45" transform="translate(-30.6 128.07) rotate(-31.04)"/><ellipse class="cls-9" cx="220.84" cy="80.58" rx="0.38" ry="0.45" transform="translate(-9.93 125.4) rotate(-31.04)"/><ellipse class="cls-9" cx="212.75" cy="96.61" rx="0.38" ry="0.45" transform="translate(-19.35 123.52) rotate(-31.04)"/><ellipse class="cls-9" cx="241.71" cy="88.22" rx="0.38" ry="0.45" transform="translate(-10.88 137.26) rotate(-31.04)"/><ellipse class="cls-9" cx="226.48" cy="100.43" rx="0.38" ry="0.45" transform="matrix(0.86, -0.52, 0.52, 0.86, -19.36, 131.15)"/><ellipse class="cls-9" cx="212.84" cy="88.51" rx="0.83" ry="0.99" transform="matrix(0.86, -0.52, 0.52, 0.86, -15.16, 122.41)"/><ellipse class="cls-9" cx="231.15" cy="90.42" rx="0.83" ry="0.99" transform="translate(-13.53 132.12) rotate(-31.04)"/><ellipse class="cls-9" cx="217.11" cy="106.07" rx="0.83" ry="0.99" transform="translate(-23.61 127.12) rotate(-31.04)"/><ellipse class="cls-9" cx="233.89" cy="111.84" rx="0.38" ry="0.45" transform="translate(-24.18 136.6) rotate(-31.04)"/><ellipse class="cls-9" cx="228.53" cy="119.71" rx="0.38" ry="0.45" transform="translate(-29 134.97) rotate(-31.04)"/><ellipse class="cls-9" cx="223.64" cy="109.08" rx="0.38" ry="0.45" transform="translate(-24.22 130.92) rotate(-31.04)"/><ellipse class="cls-9" cx="215.17" cy="112.89" rx="0.38" ry="0.45" transform="translate(-27.4 127.1) rotate(-31.04)"/><ellipse class="cls-9" cx="236.04" cy="120.53" rx="0.38" ry="0.45" transform="translate(-28.35 138.96) rotate(-31.04)"/><ellipse class="cls-9" cx="225.48" cy="122.74" rx="0.83" ry="0.99" transform="translate(-31 133.83) rotate(-31.04)"/><ellipse class="cls-9" cx="267.05" cy="97.85" rx="0.06" ry="0.09" transform="translate(-12.22 151.7) rotate(-31.04)"/><ellipse class="cls-9" cx="227.47" cy="94.36" rx="0.06" ry="0.09" transform="translate(-16.08 130.79) rotate(-31.04)"/><ellipse class="cls-9" cx="226.99" cy="97.43" rx="0.06" ry="0.09" transform="translate(-17.74 130.98) rotate(-31.04)"/><ellipse class="cls-9" cx="226.01" cy="97.09" rx="0.06" ry="0.09" transform="translate(-17.7 130.43) rotate(-31.04)"/><ellipse class="cls-9" cx="222.72" cy="91.64" rx="0.06" ry="0.09" transform="translate(-15.36 127.95) rotate(-31.04)"/><ellipse class="cls-9" cx="224.48" cy="91.97" rx="0.06" ry="0.09" transform="translate(-15.28 128.91) rotate(-31.04)"/><ellipse class="cls-9" cx="220.99" cy="97.79" rx="0.06" ry="0.09" transform="matrix(0.86, -0.52, 0.52, 0.86, -18.78, 127.94)"/><ellipse class="cls-9" cx="220.51" cy="100.86" rx="0.06" ry="0.09" transform="translate(-20.44 128.13) rotate(-31.04)"/><ellipse class="cls-9" cx="219.53" cy="100.52" rx="0.06" ry="0.09" transform="translate(-20.4 127.58) rotate(-31.04)"/><ellipse class="cls-9" cx="216.25" cy="95.07" rx="0.06" ry="0.09" transform="translate(-18.06 125.11) rotate(-31.04)"/><ellipse class="cls-9" cx="218" cy="95.41" rx="0.06" ry="0.09" transform="translate(-17.98 126.06) rotate(-31.04)"/><ellipse class="cls-9" cx="227.64" cy="94.48" rx="0.06" ry="0.09" transform="translate(-16.13 130.9) rotate(-31.04)"/><ellipse class="cls-9" cx="225.35" cy="92.61" rx="0.06" ry="0.09" transform="translate(-15.49 129.45) rotate(-31.04)"/><ellipse class="cls-9" cx="224.87" cy="95.69" rx="0.06" ry="0.09" transform="matrix(0.86, -0.52, 0.52, 0.86, -17.14, 129.64)"/><ellipse class="cls-9" cx="223.33" cy="87.32" rx="0.06" ry="0.09" transform="translate(-13.05 127.65) rotate(-31.04)"/><ellipse class="cls-9" cx="223.89" cy="95.35" rx="0.06" ry="0.09" transform="translate(-17.11 129.08) rotate(-31.04)"/><ellipse class="cls-9" cx="220.6" cy="89.89" rx="0.06" ry="0.09" transform="translate(-14.77 126.61) rotate(-31.04)"/><ellipse class="cls-9" cx="225.38" cy="90.73" rx="0.06" ry="0.09" transform="translate(-14.51 129.19) rotate(-31.04)"/><ellipse class="cls-9" cx="222.36" cy="90.23" rx="0.06" ry="0.09" transform="translate(-14.69 127.56) rotate(-31.04)"/><ellipse class="cls-9" cx="226.76" cy="89.2" rx="0.38" ry="0.45" transform="translate(-13.53 129.69) rotate(-31.04)"/><ellipse class="cls-9" cx="221.6" cy="94.95" rx="0.38" ry="0.45" transform="translate(-17.23 127.85) rotate(-31.04)"/><ellipse class="cls-9" cx="236.98" cy="84.79" rx="0.06" ry="0.09" transform="translate(-9.79 134.32) rotate(-31.04)"/><ellipse class="cls-9" cx="234.69" cy="82.92" rx="0.06" ry="0.09" transform="translate(-9.15 132.87) rotate(-31.04)"/><ellipse class="cls-9" cx="234.21" cy="85.99" rx="0.06" ry="0.09" transform="translate(-10.81 133.07) rotate(-31.04)"/><ellipse class="cls-9" cx="232.67" cy="77.63" rx="0.06" ry="0.09" transform="translate(-6.71 131.08) rotate(-31.04)"/><ellipse class="cls-9" cx="233.23" cy="85.65" rx="0.06" ry="0.09" transform="translate(-10.77 132.51) rotate(-31.04)"/><ellipse class="cls-9" cx="229.94" cy="80.2" rx="0.06" ry="0.09" transform="translate(-8.43 130.04) rotate(-31.04)"/><ellipse class="cls-9" cx="234.72" cy="81.04" rx="0.06" ry="0.09" transform="translate(-8.18 132.62) rotate(-31.04)"/><ellipse class="cls-9" cx="231.7" cy="80.53" rx="0.06" ry="0.09" transform="translate(-8.35 130.99) rotate(-31.04)"/><ellipse class="cls-9" cx="230.94" cy="85.25" rx="0.38" ry="0.45" transform="translate(-10.89 131.28) rotate(-31.04)"/><ellipse class="cls-9" cx="241.14" cy="89.25" rx="0.06" ry="0.09" transform="translate(-11.49 137.11) rotate(-31.04)"/><ellipse class="cls-9" cx="238.85" cy="87.38" rx="0.06" ry="0.09" transform="translate(-10.86 135.66) rotate(-31.04)"/><ellipse class="cls-9" cx="238.37" cy="90.45" rx="0.06" ry="0.09" transform="translate(-12.51 135.85) rotate(-31.04)"/><ellipse class="cls-9" cx="236.84" cy="82.09" rx="0.06" ry="0.09" transform="matrix(0.86, -0.52, 0.52, 0.86, -8.42, 133.86)"/><ellipse class="cls-9" cx="238.89" cy="85.5" rx="0.06" ry="0.09" transform="translate(-9.88 135.41) rotate(-31.04)"/><ellipse class="cls-9" cx="235.87" cy="84.99" rx="0.06" ry="0.09" transform="translate(-10.05 133.78) rotate(-31.04)"/><ellipse class="cls-9" cx="236.12" cy="98.31" rx="0.06" ry="0.09" transform="translate(-16.89 135.81) rotate(-31.04)"/><ellipse class="cls-9" cx="233.82" cy="96.44" rx="0.06" ry="0.09" transform="translate(-16.25 134.37) rotate(-31.04)"/><ellipse class="cls-9" cx="233.34" cy="99.52" rx="0.06" ry="0.09" transform="translate(-17.9 134.56) rotate(-31.04)"/><ellipse class="cls-9" cx="231.81" cy="91.15" rx="0.06" ry="0.09" transform="translate(-13.81 132.57) rotate(-31.04)"/><ellipse class="cls-9" cx="233.86" cy="94.56" rx="0.06" ry="0.09" transform="translate(-15.28 134.11) rotate(-31.04)"/><ellipse class="cls-9" cx="230.84" cy="94.06" rx="0.06" ry="0.09" transform="matrix(0.86, -0.52, 0.52, 0.86, -15.45, 132.48)"/><ellipse class="cls-9" cx="236.08" cy="136.8" rx="0.51" ry="0.61" transform="translate(-29.08 72.49) rotate(-16.46)"/><ellipse class="cls-9" cx="267.55" cy="147.72" rx="0.23" ry="0.28" transform="translate(-30.89 81.85) rotate(-16.46)"/><ellipse class="cls-9" cx="257.61" cy="146.57" rx="0.23" ry="0.28" transform="translate(-30.97 78.99) rotate(-16.46)"/><ellipse class="cls-9" cx="258.41" cy="121.83" rx="0.23" ry="0.28" transform="translate(-23.93 78.2) rotate(-16.46)"/><ellipse class="cls-9" cx="264.82" cy="137.04" rx="0.23" ry="0.28" transform="translate(-27.97 80.64) rotate(-16.46)"/><ellipse class="cls-9" cx="262.97" cy="144.48" rx="0.23" ry="0.28" transform="translate(-30.16 80.42) rotate(-16.46)"/><ellipse class="cls-9" cx="254.72" cy="151.25" rx="0.23" ry="0.28" transform="translate(-32.42 78.36) rotate(-16.46)"/><ellipse class="cls-9" cx="254" cy="125.69" rx="0.23" ry="0.28" transform="translate(-25.2 77.11) rotate(-16.46)"/><ellipse class="cls-9" cx="251.03" cy="137.29" rx="0.23" ry="0.28" transform="translate(-28.61 76.74) rotate(-16.46)"/><ellipse class="cls-9" cx="266.57" cy="127.08" rx="0.23" ry="0.28" transform="translate(-25.08 80.73) rotate(-16.46)"/><ellipse class="cls-9" cx="258.43" cy="141.35" rx="0.04" ry="0.05" transform="translate(-29.46 79.01) rotate(-16.46)"/><ellipse class="cls-9" cx="256.5" cy="135.54" rx="0.04" ry="0.05" transform="translate(-27.89 78.22) rotate(-16.46)"/><ellipse class="cls-9" cx="257.05" cy="137.42" rx="0.04" ry="0.05" transform="matrix(0.96, -0.28, 0.28, 0.96, -28.4, 78.46)"/><ellipse class="cls-9" cx="257.66" cy="134.43" rx="0.04" ry="0.05" transform="translate(-27.53 78.51) rotate(-16.46)"/><ellipse class="cls-9" cx="255.42" cy="134.07" rx="0.04" ry="0.05" transform="translate(-27.52 77.86) rotate(-16.46)"/><ellipse class="cls-9" cx="254.66" cy="135.83" rx="0.04" ry="0.05" transform="translate(-28.05 77.71) rotate(-16.46)"/><ellipse class="cls-9" cx="257.61" cy="139.3" rx="0.04" ry="0.05" transform="matrix(0.96, -0.28, 0.28, 0.96, -28.91, 78.69)"/><ellipse class="cls-9" cx="259.25" cy="134.73" rx="0.04" ry="0.05" transform="matrix(0.96, -0.28, 0.28, 0.96, -27.55, 78.97)"/><ellipse class="cls-9" cx="255.04" cy="130.61" rx="0.04" ry="0.05" transform="translate(-26.55 77.61) rotate(-16.46)"/><ellipse class="cls-9" cx="254.13" cy="135.48" rx="0.04" ry="0.05" transform="translate(-27.97 77.55) rotate(-16.46)"/><ellipse class="cls-9" cx="251.8" cy="142.04" rx="0.04" ry="0.05" transform="translate(-29.92 77.16) rotate(-16.46)"/><ellipse class="cls-9" cx="253.02" cy="131.72" rx="0.04" ry="0.05" transform="translate(-26.95 77.08) rotate(-16.46)"/><ellipse class="cls-9" cx="255.74" cy="132.96" rx="0.04" ry="0.05" transform="translate(-27.19 77.9) rotate(-16.46)"/><ellipse class="cls-9" cx="247.85" cy="137.33" rx="0.04" ry="0.05" transform="translate(-28.75 75.85) rotate(-16.46)"/><ellipse class="cls-9" cx="249.11" cy="137.98" rx="0.04" ry="0.05" transform="translate(-28.88 76.23) rotate(-16.46)"/><ellipse class="cls-9" cx="248.95" cy="135.99" rx="0.04" ry="0.05" transform="translate(-28.33 76.1) rotate(-16.46)"/><ellipse class="cls-9" cx="254.02" cy="132.19" rx="0.04" ry="0.05" transform="translate(-27.04 77.38) rotate(-16.46)"/><ellipse class="cls-9" cx="252.41" cy="139.05" rx="0.04" ry="0.05" transform="matrix(0.96, -0.28, 0.28, 0.96, -29.05, 77.21)"/><ellipse class="cls-9" cx="261.8" cy="133.98" rx="0.04" ry="0.05" transform="translate(-27.23 79.66) rotate(-16.46)"/><ellipse class="cls-9" cx="261.97" cy="141.07" rx="0.04" ry="0.05" transform="translate(-29.23 80) rotate(-16.46)"/><ellipse class="cls-9" cx="263.34" cy="131.99" rx="0.04" ry="0.05" transform="matrix(0.96, -0.28, 0.28, 0.96, -26.6, 80.02)"/><ellipse class="cls-9" cx="259.4" cy="135.96" rx="0.04" ry="0.05" transform="translate(-27.89 79.06) rotate(-16.46)"/><ellipse class="cls-9" cx="255.51" cy="138.01" rx="0.23" ry="0.28" transform="translate(-28.63 78.04) rotate(-16.46)"/><ellipse class="cls-9" cx="256.8" cy="132.26" rx="0.23" ry="0.28" transform="matrix(0.96, -0.28, 0.28, 0.96, -26.95, 78.17)"/><ellipse class="cls-9" cx="250.27" cy="132.1" rx="0.51" ry="0.61" transform="translate(-27.17 76.32) rotate(-16.46)"/><ellipse class="cls-9" cx="260.82" cy="130.25" rx="0.51" ry="0.61" transform="translate(-26.22 79.23) rotate(-16.46)"/><ellipse class="cls-9" cx="254.44" cy="142.6" rx="0.51" ry="0.61" transform="translate(-29.98 77.93) rotate(-16.46)"/><ellipse class="cls-9" cx="251.24" cy="145.38" rx="0.23" ry="0.28" transform="translate(-30.9 77.13) rotate(-16.46)"/><ellipse class="cls-9" cx="242.37" cy="139.19" rx="0.23" ry="0.28" transform="translate(-29.5 74.37) rotate(-16.46)"/><ellipse class="cls-9" cx="251.73" cy="121.71" rx="0.23" ry="0.28" transform="translate(-24.17 76.31) rotate(-16.46)"/><ellipse class="cls-9" cx="252.83" cy="134.88" rx="0.23" ry="0.28" transform="translate(-27.85 77.16) rotate(-16.46)"/><ellipse class="cls-9" cx="248.2" cy="140.23" rx="0.23" ry="0.28" transform="matrix(0.96, -0.28, 0.28, 0.96, -29.56, 76.06)"/><ellipse class="cls-9" cx="237.84" cy="141.65" rx="0.23" ry="0.28" transform="translate(-30.39 73.19) rotate(-16.46)"/><ellipse class="cls-9" cx="247.1" cy="119.56" rx="0.23" ry="0.28" transform="translate(-23.75 74.91) rotate(-16.46)"/><ellipse class="cls-9" cx="239.81" cy="127.85" rx="0.23" ry="0.28" transform="translate(-26.4 73.18) rotate(-16.46)"/><ellipse class="cls-9" cx="258.35" cy="127.34" rx="0.23" ry="0.28" transform="translate(-25.49 78.41) rotate(-16.46)"/><ellipse class="cls-9" cx="247.39" cy="132.25" rx="0.23" ry="0.28" transform="translate(-27.33 75.51) rotate(-16.46)"/><ellipse class="cls-9" cx="241.11" cy="123.04" rx="0.51" ry="0.61" transform="translate(-24.98 73.35) rotate(-16.46)"/><ellipse class="cls-9" cx="251.72" cy="127.02" rx="0.51" ry="0.61" transform="translate(-25.67 76.52) rotate(-16.46)"/><ellipse class="cls-9" cx="240.94" cy="134.16" rx="0.51" ry="0.61" transform="translate(-28.14 73.76) rotate(-16.46)"/><ellipse class="cls-9" cx="250.03" cy="140.19" rx="0.23" ry="0.28" transform="translate(-29.47 76.58) rotate(-16.46)"/><ellipse class="cls-9" cx="245.62" cy="144.05" rx="0.23" ry="0.28" transform="translate(-30.75 75.49) rotate(-16.46)"/><ellipse class="cls-9" cx="244.36" cy="136.96" rx="0.23" ry="0.28" transform="translate(-28.79 74.84) rotate(-16.46)"/><ellipse class="cls-9" cx="238.73" cy="137.92" rx="0.23" ry="0.28" transform="translate(-29.29 73.28) rotate(-16.46)"/><ellipse class="cls-9" cx="249.97" cy="145.7" rx="0.23" ry="0.28" transform="translate(-31.04 76.79) rotate(-16.46)"/><ellipse class="cls-9" cx="243.34" cy="145.38" rx="0.51" ry="0.61" transform="translate(-31.22 74.9) rotate(-16.46)"/><ellipse class="cls-9" cx="271.94" cy="137" rx="0.04" ry="0.05" transform="matrix(0.96, -0.28, 0.28, 0.96, -27.67, 82.66)"/><ellipse class="cls-9" cx="248.92" cy="128.79" rx="0.04" ry="0.05" transform="translate(-26.29 75.8) rotate(-16.46)"/><ellipse class="cls-9" cx="248.15" cy="130.55" rx="0.04" ry="0.05" transform="translate(-26.82 75.65) rotate(-16.46)"/><ellipse class="cls-9" cx="247.62" cy="130.19" rx="0.04" ry="0.05" transform="translate(-26.74 75.49) rotate(-16.46)"/><ellipse class="cls-9" cx="246.51" cy="126.44" rx="0.04" ry="0.05" transform="translate(-25.72 75.02) rotate(-16.46)"/><ellipse class="cls-9" cx="247.51" cy="126.91" rx="0.04" ry="0.05" transform="translate(-25.81 75.32) rotate(-16.46)"/><ellipse class="cls-9" cx="244.53" cy="129.83" rx="0.04" ry="0.05" transform="translate(-26.76 74.6) rotate(-16.46)"/><ellipse class="cls-9" cx="243.77" cy="131.59" rx="0.04" ry="0.05" transform="translate(-27.29 74.45) rotate(-16.46)"/><ellipse class="cls-9" cx="243.24" cy="131.23" rx="0.04" ry="0.05" transform="matrix(0.96, -0.28, 0.28, 0.96, -27.21, 74.29)"/><ellipse class="cls-9" cx="242.13" cy="127.48" rx="0.04" ry="0.05" transform="translate(-26.2 73.82) rotate(-16.46)"/><ellipse class="cls-9" cx="243.12" cy="127.95" rx="0.04" ry="0.05" transform="translate(-26.29 74.12) rotate(-16.46)"/><ellipse class="cls-9" cx="249" cy="128.89" rx="0.04" ry="0.05" transform="translate(-26.31 75.83) rotate(-16.46)"/><ellipse class="cls-9" cx="247.92" cy="127.42" rx="0.04" ry="0.05" transform="translate(-25.94 75.46) rotate(-16.46)"/><ellipse class="cls-9" cx="247.16" cy="129.18" rx="0.04" ry="0.05" transform="translate(-26.47 75.32) rotate(-16.46)"/><ellipse class="cls-9" cx="247.54" cy="123.96" rx="0.04" ry="0.05" transform="translate(-24.98 75.21) rotate(-16.46)"/><ellipse class="cls-9" cx="246.63" cy="128.83" rx="0.04" ry="0.05" transform="translate(-26.39 75.15) rotate(-16.46)"/><ellipse class="cls-9" cx="245.52" cy="125.07" rx="0.04" ry="0.05" transform="translate(-25.37 74.68) rotate(-16.46)"/><ellipse class="cls-9" cx="248.24" cy="126.31" rx="0.04" ry="0.05" transform="translate(-25.61 75.5) rotate(-16.46)"/><ellipse class="cls-9" cx="246.51" cy="125.54" rx="0.04" ry="0.05" transform="translate(-25.47 74.98) rotate(-16.46)"/><ellipse class="cls-9" cx="249.3" cy="125.61" rx="0.23" ry="0.28" transform="translate(-25.37 75.78) rotate(-16.46)"/><ellipse class="cls-9" cx="245.33" cy="128.23" rx="0.23" ry="0.28" transform="translate(-26.28 74.76) rotate(-16.46)"/><ellipse class="cls-9" cx="256.06" cy="124.57" rx="0.04" ry="0.05" transform="translate(-24.8 77.65) rotate(-16.46)"/><ellipse class="cls-9" cx="254.99" cy="123.1" rx="0.04" ry="0.05" transform="translate(-24.43 77.28) rotate(-16.46)"/><ellipse class="cls-9" cx="254.22" cy="124.85" rx="0.04" ry="0.05" transform="matrix(0.96, -0.28, 0.28, 0.96, -24.96, 77.14)"/><ellipse class="cls-9" cx="254.6" cy="119.64" rx="0.04" ry="0.05" transform="matrix(0.96, -0.28, 0.28, 0.96, -23.46, 77.03)"/><ellipse class="cls-9" cx="253.69" cy="124.5" rx="0.04" ry="0.05" transform="matrix(0.96, -0.28, 0.28, 0.96, -24.88, 76.98)"/><ellipse class="cls-9" cx="252.58" cy="120.74" rx="0.04" ry="0.05" transform="translate(-23.86 76.51) rotate(-16.46)"/><ellipse class="cls-9" cx="255.3" cy="121.98" rx="0.04" ry="0.05" transform="matrix(0.96, -0.28, 0.28, 0.96, -24.1, 77.33)"/><ellipse class="cls-9" cx="253.58" cy="121.22" rx="0.04" ry="0.05" transform="translate(-23.95 76.81) rotate(-16.46)"/><ellipse class="cls-9" cx="252.39" cy="123.91" rx="0.23" ry="0.28" transform="translate(-24.76 76.58) rotate(-16.46)"/><ellipse class="cls-9" cx="257.85" cy="127.87" rx="0.04" ry="0.05" transform="translate(-25.66 78.29) rotate(-16.46)"/><ellipse class="cls-9" cx="256.78" cy="126.4" rx="0.04" ry="0.05" transform="translate(-25.29 77.93) rotate(-16.46)"/><ellipse class="cls-9" cx="256.01" cy="128.15" rx="0.04" ry="0.05" transform="translate(-25.82 77.78) rotate(-16.46)"/><ellipse class="cls-9" cx="256.39" cy="122.94" rx="0.04" ry="0.05" transform="translate(-24.32 77.68) rotate(-16.46)"/><ellipse class="cls-9" cx="257.09" cy="125.28" rx="0.04" ry="0.05" transform="translate(-24.96 77.97) rotate(-16.46)"/><ellipse class="cls-9" cx="255.37" cy="124.52" rx="0.04" ry="0.05" transform="translate(-24.81 77.45) rotate(-16.46)"/><ellipse class="cls-9" cx="253.45" cy="132.48" rx="0.04" ry="0.05" transform="translate(-27.15 77.23) rotate(-16.46)"/><ellipse class="cls-9" cx="252.38" cy="131.01" rx="0.04" ry="0.05" transform="translate(-26.78 76.87) rotate(-16.46)"/><ellipse class="cls-9" cx="251.62" cy="132.77" rx="0.04" ry="0.05" transform="translate(-27.31 76.73) rotate(-16.46)"/><ellipse class="cls-9" cx="252" cy="127.55" rx="0.04" ry="0.05" transform="translate(-25.81 76.62) rotate(-16.46)"/><ellipse class="cls-9" cx="252.69" cy="129.9" rx="0.04" ry="0.05" transform="matrix(0.96, -0.28, 0.28, 0.96, -26.45, 76.91)"/><ellipse class="cls-9" cx="250.97" cy="129.13" rx="0.04" ry="0.05" transform="translate(-26.3 76.39) rotate(-16.46)"/><ellipse class="cls-9" cx="241.05" cy="94.4" rx="0.51" ry="0.61" transform="matrix(0.96, -0.28, 0.28, 0.96, -16.87, 72.16)"/><ellipse class="cls-9" cx="272.52" cy="105.33" rx="0.23" ry="0.28" transform="translate(-18.67 81.52) rotate(-16.46)"/><ellipse class="cls-9" cx="262.58" cy="104.18" rx="0.23" ry="0.28" transform="translate(-18.76 78.66) rotate(-16.46)"/><ellipse class="cls-9" cx="263.38" cy="79.44" rx="0.23" ry="0.28" transform="translate(-11.71 77.87) rotate(-16.46)"/><ellipse class="cls-9" cx="269.8" cy="94.65" rx="0.23" ry="0.28" transform="translate(-15.76 80.31) rotate(-16.46)"/><ellipse class="cls-9" cx="267.94" cy="102.09" rx="0.23" ry="0.28" transform="translate(-17.94 80.09) rotate(-16.46)"/><ellipse class="cls-9" cx="259.7" cy="108.86" rx="0.23" ry="0.28" transform="translate(-20.2 78.04) rotate(-16.46)"/><ellipse class="cls-9" cx="258.97" cy="83.29" rx="0.23" ry="0.28" transform="translate(-12.99 76.78) rotate(-16.46)"/><ellipse class="cls-9" cx="256" cy="94.89" rx="0.23" ry="0.28" transform="translate(-16.4 76.42) rotate(-16.46)"/><ellipse class="cls-9" cx="271.55" cy="84.69" rx="0.23" ry="0.28" transform="translate(-12.87 80.4) rotate(-16.46)"/><ellipse class="cls-9" cx="263.4" cy="98.96" rx="0.04" ry="0.05" transform="translate(-17.24 78.68) rotate(-16.46)"/><ellipse class="cls-9" cx="261.47" cy="93.15" rx="0.04" ry="0.05" transform="translate(-15.68 77.89) rotate(-16.46)"/><ellipse class="cls-9" cx="262.03" cy="95.03" rx="0.04" ry="0.05" transform="translate(-16.19 78.13) rotate(-16.46)"/><ellipse class="cls-9" cx="262.64" cy="92.04" rx="0.04" ry="0.05" transform="translate(-15.32 78.18) rotate(-16.46)"/><ellipse class="cls-9" cx="260.4" cy="91.68" rx="0.04" ry="0.05" transform="translate(-15.31 77.53) rotate(-16.46)"/><ellipse class="cls-9" cx="259.64" cy="93.44" rx="0.04" ry="0.05" transform="translate(-15.83 77.39) rotate(-16.46)"/><ellipse class="cls-9" cx="262.58" cy="96.91" rx="0.04" ry="0.05" transform="translate(-16.7 78.36) rotate(-16.46)"/><ellipse class="cls-9" cx="264.22" cy="92.34" rx="0.04" ry="0.05" transform="translate(-15.33 78.64) rotate(-16.46)"/><ellipse class="cls-9" cx="260.02" cy="88.22" rx="0.04" ry="0.05" transform="matrix(0.96, -0.28, 0.28, 0.96, -14.34, 77.28)"/><ellipse class="cls-9" cx="259.1" cy="93.08" rx="0.04" ry="0.05" transform="translate(-15.76 77.22) rotate(-16.46)"/><ellipse class="cls-9" cx="256.77" cy="99.64" rx="0.04" ry="0.05" transform="translate(-17.71 76.83) rotate(-16.46)"/><ellipse class="cls-9" cx="257.99" cy="89.33" rx="0.04" ry="0.05" transform="translate(-14.74 76.75) rotate(-16.46)"/><ellipse class="cls-9" cx="260.71" cy="90.57" rx="0.04" ry="0.05" transform="translate(-14.98 77.57) rotate(-16.46)"/><ellipse class="cls-9" cx="252.82" cy="94.94" rx="0.04" ry="0.05" transform="translate(-16.54 75.52) rotate(-16.46)"/><ellipse class="cls-9" cx="254.08" cy="95.59" rx="0.04" ry="0.05" transform="translate(-16.67 75.9) rotate(-16.46)"/><ellipse class="cls-9" cx="253.92" cy="93.59" rx="0.04" ry="0.05" transform="translate(-16.11 75.77) rotate(-16.46)"/><ellipse class="cls-9" cx="258.99" cy="89.8" rx="0.04" ry="0.05" transform="translate(-14.83 77.05) rotate(-16.46)"/><ellipse class="cls-9" cx="257.39" cy="96.65" rx="0.04" ry="0.05" transform="matrix(0.96, -0.28, 0.28, 0.96, -16.84, 76.88)"/><ellipse class="cls-9" cx="266.77" cy="91.58" rx="0.04" ry="0.05" transform="translate(-15.02 79.33) rotate(-16.46)"/><ellipse class="cls-9" cx="266.95" cy="98.68" rx="0.04" ry="0.05" transform="translate(-17.02 79.67) rotate(-16.46)"/><ellipse class="cls-9" cx="268.32" cy="89.6" rx="0.04" ry="0.05" transform="matrix(0.96, -0.28, 0.28, 0.96, -14.39, 79.69)"/><ellipse class="cls-9" cx="264.37" cy="93.57" rx="0.04" ry="0.05" transform="matrix(0.96, -0.28, 0.28, 0.96, -15.68, 78.73)"/><ellipse class="cls-9" cx="260.48" cy="95.61" rx="0.23" ry="0.28" transform="translate(-16.42 77.71) rotate(-16.46)"/><ellipse class="cls-9" cx="261.77" cy="89.87" rx="0.23" ry="0.28" transform="translate(-14.74 77.84) rotate(-16.46)"/><ellipse class="cls-9" cx="255.24" cy="89.7" rx="0.51" ry="0.61" transform="translate(-14.96 75.99) rotate(-16.46)"/><ellipse class="cls-9" cx="265.79" cy="87.86" rx="0.51" ry="0.61" transform="translate(-14 78.9) rotate(-16.46)"/><ellipse class="cls-9" cx="259.41" cy="100.21" rx="0.51" ry="0.61" transform="translate(-17.76 77.6) rotate(-16.46)"/><ellipse class="cls-9" cx="256.21" cy="102.99" rx="0.23" ry="0.28" transform="translate(-18.68 76.81) rotate(-16.46)"/><ellipse class="cls-9" cx="247.34" cy="96.8" rx="0.23" ry="0.28" transform="translate(-17.29 74.04) rotate(-16.46)"/><ellipse class="cls-9" cx="256.71" cy="79.31" rx="0.23" ry="0.28" transform="translate(-11.95 75.98) rotate(-16.46)"/><ellipse class="cls-9" cx="257.81" cy="92.49" rx="0.23" ry="0.28" transform="translate(-15.64 76.83) rotate(-16.46)"/><ellipse class="cls-9" cx="253.17" cy="97.83" rx="0.23" ry="0.28" transform="translate(-17.34 75.74) rotate(-16.46)"/><ellipse class="cls-9" cx="242.81" cy="99.26" rx="0.23" ry="0.28" transform="translate(-18.17 72.86) rotate(-16.46)"/><ellipse class="cls-9" cx="252.08" cy="77.17" rx="0.23" ry="0.28" transform="translate(-11.53 74.58) rotate(-16.46)"/><ellipse class="cls-9" cx="244.78" cy="85.46" rx="0.23" ry="0.28" transform="matrix(0.96, -0.28, 0.28, 0.96, -14.18, 72.85)"/><ellipse class="cls-9" cx="263.32" cy="84.95" rx="0.23" ry="0.28" transform="matrix(0.96, -0.28, 0.28, 0.96, -13.28, 78.08)"/><ellipse class="cls-9" cx="252.36" cy="89.86" rx="0.23" ry="0.28" transform="translate(-15.12 75.18) rotate(-16.46)"/><ellipse class="cls-9" cx="246.09" cy="80.65" rx="0.51" ry="0.61" transform="translate(-12.77 73.02) rotate(-16.46)"/><ellipse class="cls-9" cx="256.69" cy="84.62" rx="0.51" ry="0.61" transform="translate(-13.46 76.19) rotate(-16.46)"/><ellipse class="cls-9" cx="245.91" cy="91.76" rx="0.51" ry="0.61" transform="translate(-15.92 73.43) rotate(-16.46)"/><ellipse class="cls-9" cx="255" cy="97.8" rx="0.23" ry="0.28" transform="translate(-17.26 76.25) rotate(-16.46)"/><ellipse class="cls-9" cx="250.6" cy="101.65" rx="0.23" ry="0.28" transform="translate(-18.53 75.16) rotate(-16.46)"/><ellipse class="cls-9" cx="249.33" cy="94.57" rx="0.23" ry="0.28" transform="translate(-16.58 74.51) rotate(-16.46)"/><ellipse class="cls-9" cx="243.7" cy="95.53" rx="0.23" ry="0.28" transform="translate(-17.08 72.96) rotate(-16.46)"/><ellipse class="cls-9" cx="254.94" cy="103.31" rx="0.23" ry="0.28" transform="translate(-18.82 76.46) rotate(-16.46)"/><ellipse class="cls-9" cx="248.31" cy="102.98" rx="0.51" ry="0.61" transform="translate(-19 74.57) rotate(-16.46)"/><ellipse class="cls-9" cx="276.91" cy="94.61" rx="0.04" ry="0.05" transform="translate(-15.46 82.33) rotate(-16.46)"/><ellipse class="cls-9" cx="253.89" cy="86.4" rx="0.04" ry="0.05" transform="matrix(0.96, -0.28, 0.28, 0.96, -14.07, 75.47)"/><ellipse class="cls-9" cx="253.13" cy="88.15" rx="0.04" ry="0.05" transform="translate(-14.6 75.33) rotate(-16.46)"/><ellipse class="cls-9" cx="252.6" cy="87.8" rx="0.04" ry="0.05" transform="translate(-14.52 75.16) rotate(-16.46)"/><ellipse class="cls-9" cx="251.49" cy="84.04" rx="0.04" ry="0.05" transform="translate(-13.51 74.69) rotate(-16.46)"/><ellipse class="cls-9" cx="252.48" cy="84.51" rx="0.04" ry="0.05" transform="translate(-13.6 74.99) rotate(-16.46)"/><ellipse class="cls-9" cx="249.5" cy="87.44" rx="0.04" ry="0.05" transform="translate(-14.55 74.27) rotate(-16.46)"/><ellipse class="cls-9" cx="248.74" cy="89.19" rx="0.04" ry="0.05" transform="translate(-15.08 74.13) rotate(-16.46)"/><ellipse class="cls-9" cx="248.21" cy="88.84" rx="0.04" ry="0.05" transform="translate(-15 73.96) rotate(-16.46)"/><ellipse class="cls-9" cx="247.1" cy="85.08" rx="0.04" ry="0.05" transform="translate(-13.98 73.49) rotate(-16.46)"/><ellipse class="cls-9" cx="248.09" cy="85.56" rx="0.04" ry="0.05" transform="translate(-14.07 73.79) rotate(-16.46)"/><ellipse class="cls-9" cx="253.97" cy="86.5" rx="0.04" ry="0.05" transform="translate(-14.1 75.5) rotate(-16.46)"/><ellipse class="cls-9" cx="252.9" cy="85.03" rx="0.04" ry="0.05" transform="translate(-13.73 75.13) rotate(-16.46)"/><ellipse class="cls-9" cx="252.14" cy="86.79" rx="0.04" ry="0.05" transform="translate(-14.26 74.99) rotate(-16.46)"/><ellipse class="cls-9" cx="252.51" cy="81.57" rx="0.04" ry="0.05" transform="translate(-12.76 74.88) rotate(-16.46)"/><ellipse class="cls-9" cx="251.6" cy="86.43" rx="0.04" ry="0.05" transform="translate(-14.18 74.82) rotate(-16.46)"/><ellipse class="cls-9" cx="250.49" cy="82.68" rx="0.04" ry="0.05" transform="translate(-13.16 74.36) rotate(-16.46)"/><ellipse class="cls-9" cx="253.21" cy="83.92" rx="0.04" ry="0.05" transform="translate(-13.4 75.18) rotate(-16.46)"/><ellipse class="cls-9" cx="251.49" cy="83.15" rx="0.04" ry="0.05" transform="translate(-13.25 74.66) rotate(-16.46)"/><ellipse class="cls-9" cx="254.27" cy="83.22" rx="0.23" ry="0.28" transform="translate(-13.16 75.45) rotate(-16.46)"/><ellipse class="cls-9" cx="250.31" cy="85.84" rx="0.23" ry="0.28" transform="translate(-14.06 74.43) rotate(-16.46)"/><ellipse class="cls-9" cx="261.03" cy="82.17" rx="0.04" ry="0.05" transform="matrix(0.96, -0.28, 0.28, 0.96, -12.59, 77.32)"/><ellipse class="cls-9" cx="259.96" cy="80.7" rx="0.04" ry="0.05" transform="translate(-12.21 76.96) rotate(-16.46)"/><ellipse class="cls-9" cx="259.2" cy="82.46" rx="0.04" ry="0.05" transform="translate(-12.74 76.81) rotate(-16.46)"/><ellipse class="cls-9" cx="259.58" cy="77.24" rx="0.04" ry="0.05" transform="translate(-11.25 76.71) rotate(-16.46)"/><ellipse class="cls-9" cx="258.67" cy="82.11" rx="0.04" ry="0.05" transform="translate(-12.66 76.65) rotate(-16.46)"/><ellipse class="cls-9" cx="257.56" cy="78.35" rx="0.04" ry="0.05" transform="translate(-11.64 76.18) rotate(-16.46)"/><ellipse class="cls-9" cx="260.27" cy="79.59" rx="0.04" ry="0.05" transform="matrix(0.96, -0.28, 0.28, 0.96, -11.89, 77)"/><ellipse class="cls-9" cx="258.55" cy="78.82" rx="0.04" ry="0.05" transform="translate(-11.74 76.48) rotate(-16.46)"/><ellipse class="cls-9" cx="257.37" cy="81.51" rx="0.23" ry="0.28" transform="translate(-12.55 76.25) rotate(-16.46)"/><ellipse class="cls-9" cx="262.82" cy="85.47" rx="0.04" ry="0.05" transform="translate(-13.45 77.96) rotate(-16.46)"/><ellipse class="cls-9" cx="261.75" cy="84" rx="0.04" ry="0.05" transform="translate(-13.07 77.6) rotate(-16.46)"/><ellipse class="cls-9" cx="260.99" cy="85.76" rx="0.04" ry="0.05" transform="translate(-13.6 77.45) rotate(-16.46)"/><ellipse class="cls-9" cx="261.37" cy="80.54" rx="0.04" ry="0.05" transform="translate(-12.11 77.35) rotate(-16.46)"/><ellipse class="cls-9" cx="262.06" cy="82.89" rx="0.04" ry="0.05" transform="translate(-12.75 77.64) rotate(-16.46)"/><ellipse class="cls-9" cx="260.34" cy="82.12" rx="0.04" ry="0.05" transform="translate(-12.6 77.12) rotate(-16.46)"/><ellipse class="cls-9" cx="258.43" cy="90.09" rx="0.04" ry="0.05" transform="translate(-14.94 76.91) rotate(-16.46)"/><ellipse class="cls-9" cx="257.35" cy="88.62" rx="0.04" ry="0.05" transform="translate(-14.56 76.54) rotate(-16.46)"/><ellipse class="cls-9" cx="256.59" cy="90.38" rx="0.04" ry="0.05" transform="translate(-15.09 76.4) rotate(-16.46)"/><ellipse class="cls-9" cx="256.97" cy="85.16" rx="0.04" ry="0.05" transform="translate(-13.6 76.29) rotate(-16.46)"/><ellipse class="cls-9" cx="257.66" cy="87.51" rx="0.04" ry="0.05" transform="matrix(0.96, -0.28, 0.28, 0.96, -14.24, 76.58)"/><ellipse class="cls-9" cx="255.94" cy="86.74" rx="0.04" ry="0.05" transform="translate(-14.09 76.07) rotate(-16.46)"/><path class="cls-7" d="M221.41,68.94c.43.53,2.1-.36,3.8-.85,2-.58,3.74-.39,7.19,0a40,40,0,0,1,10.15,2.52l-6.7-3.95a14.32,14.32,0,0,0,2.31.37,13.56,13.56,0,0,0,3.54-.22,56.47,56.47,0,0,0,10.77-3.61,19.45,19.45,0,0,0-6.13-.63c-3.22.2-5,1.15-5.49.43s1.33-3.27,3-4.65A11.82,11.82,0,0,1,247,56.43a39.74,39.74,0,0,0-9.72,3c-2.37,1.09-3.94,2.13-7,2.76a16.77,16.77,0,0,0-3.81.85,9.93,9.93,0,0,0-4.64,4.24C221.51,67.85,221.12,68.59,221.41,68.94Z"/><path class="cls-7" d="M229.09,65.1c.09.68-1.69,1.31-3.2,2.23-1.79,1.09-2.81,2.49-4.86,5.29a39.45,39.45,0,0,0-5,9.19l1.61-7.6a13.32,13.32,0,0,1-3.84,4.4,55.53,55.53,0,0,1-9.94,5.51,19.27,19.27,0,0,1,3.68-4.94c2.32-2.24,4.23-2.93,4-3.76-.24-1-3.32-1.24-5.43-1a11.37,11.37,0,0,0-3.54,1,39.65,39.65,0,0,1,8.75-5.16c2.4-1,4.23-1.47,6.75-3.28a17.07,17.07,0,0,1,3.19-2.23,10,10,0,0,1,6.26-.56C228.22,64.44,229,64.66,229.09,65.1Z"/><ellipse class="cls-9" cx="231.57" cy="126.88" rx="1" ry="1.5" transform="translate(-7.01 240.03) rotate(-54.09)"/><ellipse class="cls-9" cx="250.07" cy="109.38" rx="1" ry="1.5"/><ellipse class="cls-9" cx="266.07" cy="108.38" rx="1" ry="1.5"/><ellipse class="cls-9" cx="260.07" cy="141.38" rx="1" ry="1.5"/></g></svg>