<svg id="Layer_1" data-name="Layer 1" xmlns="http://www.w3.org/2000/svg" xmlns:xlink="http://www.w3.org/1999/xlink" width="320" height="320" viewBox="0 0 320 320"><defs><style>.cls-1{fill:url(#radial-gradient);}.cls-2{fill:url(#radial-gradient-2);}.cls-3{fill:url(#radial-gradient-3);}.cls-4{fill:url(#radial-gradient-4);}.cls-5{fill:url(#radial-gradient-5);}.cls-6{fill:none;stroke:#a38078;stroke-miterlimit:10;}.cls-7{fill:#72aa9a;}.cls-8{fill:#b0ddd1;}</style><radialGradient id="radial-gradient" cx="160" cy="166.49" r="147.88" gradientUnits="userSpaceOnUse"><stop offset="0" stop-color="#ebd2e3"/><stop offset="0.37" stop-color="#e6b4d8"/><stop offset="0.73" stop-color="#e29ccf"/><stop offset="0.84" stop-color="#e39fd0"/><stop offset="0.93" stop-color="#e5a9d2"/><stop offset="1" stop-color="#e9b7d5"/></radialGradient><radialGradient id="radial-gradient-2" cx="1131.41" cy="-3123.08" r="115.82" gradientTransform="matrix(0.98, 0.52, -0.5, 0.94, -2505.69, 2497.13)" gradientUnits="userSpaceOnUse"><stop offset="0" stop-color="#ebd2e3"/><stop offset="0.47" stop-color="#db9fc7"/><stop offset="0.73" stop-color="#d487ba"/><stop offset="0.82" stop-color="#d58abc"/><stop offset="0.89" stop-color="#da95c2"/><stop offset="0.95" stop-color="#e1a6cb"/><stop offset="1" stop-color="#e9b7d5"/></radialGradient><radialGradient id="radial-gradient-3" cx="999.8" cy="-4139.97" r="106.2" gradientTransform="matrix(0.95, 0.67, -0.69, 0.96, -3607.32, 3458.54)" xlink:href="#radial-gradient"/><radialGradient id="radial-gradient-4" cx="-2583.92" cy="1480.25" fy="1465.8372900896" r="29.18" gradientTransform="translate(1847.58 -2379.52) rotate(-27.06)" gradientUnits="userSpaceOnUse"><stop offset="0" stop-color="#ebd2e3"/><stop offset="0.2" stop-color="#ebadc8"/><stop offset="0.56" stop-color="#ea6f9a"/><stop offset="0.73" stop-color="#ea5788"/><stop offset="0.8" stop-color="#ea5a8b"/><stop offset="0.85" stop-color="#ea6593"/><stop offset="0.9" stop-color="#ea76a1"/><stop offset="0.94" stop-color="#e98eb4"/><stop offset="0.99" stop-color="#e9adcd"/><stop offset="1" stop-color="#e9b7d5"/></radialGradient><radialGradient id="radial-gradient-5" cx="-2538.33" cy="1483.9" fy="1469.4846562514906" r="29.18" xlink:href="#radial-gradient-4"/></defs><path class="cls-1" d="M310.07,161.85c.24,31.55-12.85,56.42-21.61,70a15.38,15.38,0,0,1-1.39,10c-1.13,2.08-2,2.29-7,7-5.66,5.33-5.93,6.37-8,7-1.51.46-5.2,1.08-11-3L243.19,279a24.09,24.09,0,0,0-4.12,3.82c-2.43,2.84-2.81,4.65-4,6-1.64,1.84-5.23,3.31-14,1.31q-4.33,2.19-8.68,4.37a77.55,77.55,0,0,1-8.32,8.32c-5.63,4.81-9.38,8-14,9-9.89,2.07-19.15-7.1-21-9a44.94,44.94,0,0,1-9,0,46.29,46.29,0,0,1-20-7l-49-18c-6.7-4.48-12.19-7.79-16-10-5.55-3.22-9.53-5.26-12-10a17.89,17.89,0,0,1-1.93-6.79q-4.68-5.69-9.37-11.38a61.06,61.06,0,0,1-9.7-7.83c-4.11-4.06-12.08-11.95-14-23-.78-4.45,0-5.94,1-15a200.67,200.67,0,0,0,1-27c-.67-1.67-1.34-3.33-2-5a12.14,12.14,0,0,1-9,2,11.74,11.74,0,0,1-9-9c-.88-4.72,2.78-6,5-13,3.59-11.32-2.6-18.75,2-23,3.36-3.11,8.6-.92,10-4,1.05-2.33-1.76-4-2-8-.3-4.81,3.47-7.09,8-14,2.7-4.13,1.35-3.32,7-15,7.25-15,9.49-16.38,11-17S57.83,58.52,67,64.58c11-10.67,48.79-44.71,102.08-43.73C244,22.22,309.51,92.07,310.07,161.85Z"/><path class="cls-2" d="M272.72,213.89c-23,43.65-74.8,68.71-128.94,61.84a41.55,41.55,0,0,1-20.53-1.82c-8.66-3.18-13.76-8.7-17.6-12.72-21.79-22.82-23.63-19.08-32.82-31-6.29-8.14-18.13-26.34-21-57.1-3.8,5.29-8.32,8.21-11.42,7.13-2.73-.95-3.54-4.72-4.67-10.4-.93-4.61-2.09-13.28.16-25.94a93.34,93.34,0,0,1,3-12c-2.85-6.63-2.14-10.61-1-13,2.17-4.67,6.13-3.78,9.62-9.62,2.58-4.31,3.07-9.22,3.44-12.89a49.1,49.1,0,0,0,.15-6.71,55.22,55.22,0,0,1,3.6-19.6,17.45,17.45,0,0,0,7.27-5.19c2.43-3,2.34-5.25,3.75-7.07,1.89-2.45,6.67-4.4,19.93-1.19C88.35,55,155,15.05,218,49.11,273.77,79.27,303.79,155.05,272.72,213.89Z"/><path class="cls-3" d="M277,222.18c-29.15,41-83.14,60.61-134.42,48.2A38.65,38.65,0,0,1,123,266.45c-7.88-4.05-11.94-10.07-15-14.45-17.49-24.95-19.86-21.41-26.88-34.17-4.8-8.74-13.4-28.06-11.3-58.93-4.51,4.87-9.33,7.31-12.16,5.91-2.49-1.23-2.68-5.06-2.89-10.82-.17-4.68.06-13.42,4.23-25.77a101.63,101.63,0,0,1,4.75-11.64c-1.71-6.89-.4-10.77,1-13,2.83-4.42,6.52-3.13,10.82-8.57C78.78,91,80,86.13,81,82.52a53.45,53.45,0,0,0,1.21-6.65,58.51,58.51,0,0,1,6.55-19.11,18.27,18.27,0,0,0,7.86-4.42c2.82-2.75,3.08-5,4.73-6.64,2.21-2.24,7.14-3.68,19.46.87,2.91-1.41,73.63-34.21,129.2,6.14C299.16,88.45,316.3,166.88,277,222.18Z"/><circle class="cls-4" cx="219.9" cy="114.16" r="29.18"/><circle class="cls-5" cx="262.16" cy="96.67" r="29.18"/><path class="cls-6" d="M215.41,88c-1.18-2.53-13.14-29.09,1-50.79A43.89,43.89,0,0,1,231,23.54a52.83,52.83,0,0,0,12.25,52.1"/><path class="cls-7" d="M232.21,21.28c-1.12,5.2-12.63,6.37-14.51,6.56-10.18,1-24.88-1.89-32.31-13.18a26.89,26.89,0,0,1-3.2-6.81c7.08,4.21,12.85,5.06,16.79,5.07,6.64,0,9.67-2.36,19.15-1.89,5.63.28,8.63,1.32,10.89,3.44C229.78,15.18,232.86,18.28,232.21,21.28Z"/><path class="cls-8" d="M231.59,19.2c1.83,5-7.27,12.13-8.76,13.3-8.06,6.31-22,11.7-34.36,6.13a26.69,26.69,0,0,1-6.34-4.05c8.23-.23,13.57-2.59,16.9-4.69,5.62-3.53,6.91-7.16,15.17-11.83,4.92-2.77,8-3.5,11.05-2.91C226.27,15.35,230.53,16.32,231.59,19.2Z"/></svg>